<svg fill="none" height="16" viewBox="0 0 16 16" width="16" xmlns="http://www.w3.org/2000/svg"><path d="m11.0327 8 4.5487-4.54864c.5581-.55818.5581-1.46318 0-2.02181l-1.0109-1.010914c-.5582-.558181-1.4632-.558181-2.0219 0l-4.5486 4.548634-4.54864-4.548634c-.55818-.558181-1.46318-.558181-2.02181 0l-1.010914 1.010914c-.558181.55818-.558181 1.46318 0 2.02181l4.548634 4.54864-4.548634 4.5486c-.558181.5582-.558181 1.4632 0 2.0219l1.010914 1.0109c.55818.5581 1.46363.5581 2.02181 0l4.54864-4.5487 4.5486 4.5487c.5582.5581 1.4637.5581 2.0219 0l1.0109-1.0109c.5581-.5582.5581-1.4632 0-2.0219z" fill="#000" opacity=".75"/></svg>