<svg fill="none" height="20" viewBox="0 0 20 20" width="20" xmlns="http://www.w3.org/2000/svg"><path d="m0 10c0 5.5241 4.47754 10 10 10 5.5225 0 10-4.4759 10-10 0-5.52085-4.4775-10-10-10-5.52246 0-10 4.47915-10 10zm10 2.0161c1.0244 0 1.8548.8305 1.8548 1.8549s-.8304 1.8548-1.8548 1.8548c-1.02439 0-1.85484-.8304-1.85484-1.8548s.83045-1.8549 1.85484-1.8549zm1.761-6.66715-.2991 5.48385c-.014.2566-.2262.4575-.4831.4575h-1.95755c-.25698 0-.46915-.2009-.48314-.4575l-.29912-5.48385c-.01512-.27718.20557-.51024.48315-.51024h2.55576c.2776 0 .4982.23306.4831.51024z" fill="#fff"/></svg>