<svg fill="none" height="16" viewBox="0 0 7 16" width="7" xmlns="http://www.w3.org/2000/svg"><path d="m.626984 13.2572h.626986v-4.51436h-.626986c-.346283 0-.626984-.27981-.626984-.625v-1.49284c0-.34519.280701-.625.626984-.625h3.511106c.34629 0 .62699.27981.62699.625v6.6322h.62698c.34629 0 .62699.2798.62699.625v1.4928c0 .3452-.2807.625-.62699.625h-4.765076c-.346283 0-.626984-.2798-.626984-.625v-1.4928c0-.3452.280701-.625.626984-.625zm2.382536-13.2572c-1.2466 0-2.257139 1.00734-2.257139 2.25s1.010539 2.25 2.257139 2.25 2.25715-1.00734 2.25715-2.25-1.01058-2.25-2.25715-2.25z" fill="#000" fill-opacity=".75"/></svg>