<svg clip-rule="evenodd" fill-rule="evenodd" stroke-miterlimit="22.926" viewBox="0 0 301 269" xmlns="http://www.w3.org/2000/svg"><path d="m0-226.179c41.011 71.093 80.972 144.664 123.505 214.71 6.493 10.694-2.981 26.049-15.017 26.049h-249.209c-12.036 0-21.509-15.355-15.018-26.049 42.529-70.061 82.484-143.613 123.506-214.71 8.411-14.576 23.824-14.58 32.233 0" fill="#fff" transform="translate(166.454 245.718)"/><path d="m0-226.179c41.011 71.093 80.972 144.664 123.505 214.71 6.493 10.694-2.981 26.049-15.017 26.049h-249.209c-12.036 0-21.509-15.355-15.018-26.049 42.529-70.061 82.484-143.613 123.506-214.71 8.411-14.576 23.824-14.58 32.233 0z" fill="none" stroke="#000" stroke-width=".75" transform="translate(166.454 245.718)"/><path d="m0 206.426h112.71c1.832 0 4.714-3.925 3.573-5.806-5.746-9.464-12.065-20.825-17.645-30.516l-87.683-152.587c-2.803-4.859-5.968-4.86-8.772.001l-99.757 173.524c-1.841 3.186-3.662 6.434-5.571 9.577-1.142 1.881 1.741 5.807 3.572 5.807zm-5.751-214.624-117.106 203.705c-2.141 3.702-4.231 7.435-6.45 11.091-4.661 7.678 2.54 19.391 11.271 19.391h249.209c8.733 0 15.933-11.712 11.271-19.391-2.219-3.656-4.309-7.388-6.449-11.091l-117.107-203.705c-6.555-11.365-18.083-11.362-24.639 0" fill="#d72717" transform="translate(143.769 29.927)"/><path d="m0-36.798h7.455v36.917h-7.455v9.79h7.455v8.053h14.172v-8.053h9.071v8.053h13.706v-8.053h9.071v8.053h13.978v-8.053h9.07v8.053h13.706v-8.053h9.072v8.053h14.172v-8.053h7.455v-9.79h-7.455v-36.917h7.455v-8.439h-7.455v-.187l-7.455-9.336-6.717 9.336v.187h-9.072v-.187l-6.988-9.336-6.718 9.336v.187h-9.07v-.187l-6.989-9.336-6.989 9.336v.187h-9.071v-.187l-6.717-9.336-6.989 9.336v.187h-9.071v-.187l-6.717-9.336-7.455 9.336v.187h-7.455zm67.453 36.917h9.07v-36.917h-9.07zm22.776 0h9.071v-36.917h-9.071zm-36.754 0h-9.071v-36.917h9.071zm-22.777 0h-9.071v-36.917h9.071z" transform="translate(89.874 202.636)"/></svg>