<svg clip-rule="evenodd" fill-rule="evenodd" stroke-miterlimit="22.926" viewBox="0 0 301 269" xmlns="http://www.w3.org/2000/svg"><path d="m166.454 19.539c41.011 71.093 80.972 144.664 123.505 214.71 6.493 10.694-2.981 26.049-15.017 26.049h-249.209c-12.036 0-21.509-15.355-15.018-26.049 42.529-70.061 82.484-143.613 123.506-214.71 8.411-14.576 23.824-14.58 32.233 0" fill="#fff"/><path d="m166.454 19.539c41.011 71.093 80.972 144.664 123.505 214.71 6.493 10.694-2.981 26.049-15.017 26.049h-249.209c-12.036 0-21.509-15.355-15.018-26.049 42.529-70.061 82.484-143.613 123.506-214.71 8.411-14.576 23.824-14.58 32.233 0z" fill="none" stroke="#000" stroke-width=".75"/><path d="m143.769 236.245h112.71c1.832 0 4.714-3.926 3.573-5.806-5.746-9.465-12.065-20.826-17.645-30.517l-87.683-152.586c-2.803-4.859-5.968-4.86-8.772 0l-99.757 173.524c-1.841 3.186-3.662 6.435-5.571 9.578-1.142 1.881 1.741 5.807 3.572 5.807zm-5.751-214.624-117.106 203.705c-2.141 3.702-4.231 7.435-6.45 11.09-4.661 7.679 2.54 19.391 11.271 19.391h249.209c8.733 0 15.933-11.712 11.271-19.391-2.219-3.655-4.309-7.387-6.449-11.09l-117.107-203.705c-6.555-11.365-18.083-11.362-24.639 0" fill="#d72717"/><path d="m172.307 159.172c2.527 0 4.577 2.049 4.577 4.576 0 2.528-2.05 4.576-4.577 4.576s-4.576-2.048-4.576-4.576c0-2.527 2.049-4.576 4.576-4.576m0-3.928c4.697 0 8.504 3.808 8.504 8.504s-3.807 8.504-8.504 8.504c-4.696 0-8.504-3.808-8.504-8.504s3.808-8.504 8.504-8.504m-53.344-10.045c2.528 0 4.576 2.049 4.576 4.577s-2.048 4.577-4.576 4.577c-2.527 0-4.576-2.049-4.576-4.577s2.049-4.577 4.576-4.577m-10.365-16.63c5.414-3.732 10.828-7.466 16.242-11.197 2.96-2.04 3.974-1.722 7.36-.795 7.03 1.929 14.062 3.859 21.092 5.787 1.839.505 3.517 1.207 4.551 3.025 3.183 5.592 5.392 10.997 8.574 16.589 6.331 2.716 12.662 5.433 18.993 8.149 2.368 1.017 4.007 3.053 3.48 4.892l-2.125 7.414c-1.046 2.241-2.243 2.816-4.786 2.774.071-.476.108-.963.108-1.459 0-5.401-4.379-9.779-9.78-9.779-4.866 0-8.901 3.555-9.653 8.209l-33.587-9.1-.805-.265c.312-.956.481-1.977.481-3.037 0-5.401-4.379-9.78-9.78-9.78-4.29 0-7.934 2.763-9.253 6.606-2.716-2.025-3.933-2.006-3.679-5.861l.53-8.063c.163-2.471-.015-2.695 2.037-4.109m-21.057 28.47h26.997c-2.446-1.493-4.079-4.187-4.079-7.263 0-4.697 3.807-8.504 8.504-8.504s8.504 3.807 8.504 8.504c0 3.076-1.633 5.77-4.079 7.263h3.965l-.046 43.955c4.989-.561 9.979-3.179 14.97-3.179 6.576 0 13.151 4.067 19.727 4.067 6.624 0 13.248-4.067 19.873-4.067 6.551 0 13.102 4.067 19.653 4.067 6.499 0 12.999-4.067 19.498-4.067 6.054 0 12.109 3.501 18.164 4.005 1.045 1.941 2.113 3.934 3.196 5.956-.595.033-1.189.049-1.783.049-6.527 0-13.052-4.067-19.577-4.067-6.499 0-12.999 4.067-19.498 4.067-6.551 0-13.102-4.067-19.653-4.067-6.625 0-13.249 4.067-19.873 4.067-6.576 0-13.151-4.067-19.727-4.067-4.992 0-9.985 2.621-14.976 3.181l-.006 5.333c4.993-.559 9.988-3.182 14.982-3.182 6.576 0 13.151 4.067 19.727 4.067 6.624 0 13.248-4.067 19.873-4.067 6.551 0 13.102 4.067 19.653 4.067 6.499 0 12.999-4.067 19.498-4.067 6.525 0 13.05 4.067 19.577 4.067 1.604 0 3.209-.125 4.813-.331.98 1.828 1.965 3.661 2.95 5.484-2.588.466-5.176.791-7.763.791-6.527 0-13.052-4.068-19.577-4.068-6.499 0-12.999 4.068-19.498 4.068-6.551 0-13.102-4.068-19.653-4.068-6.625 0-13.249 4.068-19.873 4.068-6.576 0-13.151-4.068-19.727-4.068-4.996 0-9.992 2.625-14.988 3.183l-.005 4.594c4.997-.556 9.995-3.183 14.993-3.183 6.576 0 13.151 4.067 19.727 4.067 6.624 0 13.248-4.067 19.873-4.067 6.551 0 13.102 4.067 19.653 4.067 6.499 0 12.999-4.067 19.498-4.067 6.525 0 13.05 4.067 19.577 4.067 3.56 0 7.121-.615 10.682-1.367.988 1.802 1.969 3.574 2.938 5.302-4.54 1.009-9.08 2.01-13.62 2.01-6.527 0-13.052-4.068-19.577-4.068-6.499 0-12.999 4.068-19.498 4.068-6.551 0-13.102-4.068-19.653-4.068-6.625 0-13.249 4.068-19.873 4.068-6.576 0-13.151-4.068-19.727-4.068-5 0-10 2.629-14.999 3.184h-81.326c13.863-23.905 27.726-47.811 41.589-71.716m42.448-37.85 22.957 6.353c1.427.395 2.309 1.812 2.952 3.146l4.346 9.027c.642 1.335-.929 3.853-3.368 3.222l-32.36-8.378c-1.434-.371-2.729-2.858-2.133-4.215l3.311-7.539c.596-1.356 2.868-2.011 4.295-1.616"/></svg>