<svg clip-rule="evenodd" fill-rule="evenodd" stroke-miterlimit="22.926" viewBox="0 0 301 269" xmlns="http://www.w3.org/2000/svg"><path d="m134.221 19.539c-41.011 71.093-80.972 144.664-123.505 214.71-6.493 10.694 2.981 26.049 15.017 26.049h249.209c12.035 0 21.509-15.355 15.018-26.049-42.53-70.061-82.484-143.613-123.506-214.71-8.41-14.576-23.824-14.58-32.233 0" fill="#fff"/><path d="m134.221 19.539c-41.011 71.093-80.972 144.664-123.505 214.71-6.493 10.694 2.981 26.049 15.017 26.049h249.209c12.035 0 21.509-15.355 15.018-26.049-42.53-70.061-82.484-143.613-123.506-214.71-8.41-14.576-23.824-14.58-32.233 0z" fill="none" stroke="#000" stroke-width=".75"/><path d="m156.906 236.245h-112.71c-1.832 0-4.714-3.926-3.573-5.806 5.747-9.465 12.064-20.826 17.645-30.517l87.683-152.586c2.803-4.859 5.968-4.86 8.772 0l99.757 173.524c1.841 3.186 3.662 6.435 5.572 9.578 1.14 1.881-1.742 5.807-3.574 5.807zm5.751-214.624 117.106 203.705c2.14 3.702 4.231 7.435 6.451 11.09 4.661 7.679-2.541 19.391-11.272 19.391h-249.209c-8.732 0-15.933-11.712-11.271-19.391 2.219-3.655 4.309-7.387 6.449-11.09l117.107-203.705c6.554-11.365 18.083-11.362 24.639 0" fill="#d72717"/><path d="m150.711 230.87h23.747l.025-44.344c.011-20.177-2.599-34.021-14.42-50.752-9.606-12.142-23.134-22.748-34.296-32.464l-15.5 18.271c6.953 6.053 25.826 21.228 31.17 28.793 6.719 9.51 9.293 20.124 9.289 31.642z"/></svg>