<svg clip-rule="evenodd" fill-rule="evenodd" stroke-miterlimit="22.926" viewBox="0 0 301 269" xmlns="http://www.w3.org/2000/svg"><path d="m134.221 19.539c-41.011 71.093-80.972 144.664-123.505 214.71-6.493 10.694 2.981 26.049 15.017 26.049h249.209c12.035 0 21.509-15.355 15.018-26.049-42.53-70.061-82.484-143.613-123.506-214.71-8.41-14.576-23.824-14.58-32.233 0" fill="#fff"/><path d="m134.221 19.539c-41.011 71.093-80.972 144.664-123.505 214.71-6.493 10.694 2.981 26.049 15.017 26.049h249.209c12.035 0 21.509-15.355 15.018-26.049-42.53-70.061-82.484-143.613-123.506-214.71-8.41-14.576-23.824-14.58-32.233 0z" fill="none" stroke="#000" stroke-width=".75"/><path d="m156.906 236.245h-112.71c-1.832 0-4.714-3.926-3.573-5.806 5.747-9.465 12.064-20.826 17.645-30.517l87.683-152.586c2.803-4.859 5.968-4.86 8.772 0l99.757 173.524c1.841 3.186 3.662 6.435 5.572 9.578 1.14 1.881-1.742 5.807-3.574 5.807zm5.751-214.624 117.106 203.705c2.14 3.702 4.231 7.435 6.451 11.09 4.661 7.679-2.541 19.391-11.272 19.391h-249.209c-8.732 0-15.933-11.712-11.271-19.391 2.219-3.655 4.309-7.387 6.449-11.09l117.107-203.705c6.554-11.365 18.083-11.362 24.639 0" fill="#d72717"/><path d="m173.908 175.625c-1.069-.381-2.162.002-3.242.608-5.99 3.361-11.545 7.389-17.816 10.446-16.6 8.093-35.355 1.167-39.598-17.957-.641-2.89-.754-5.086-.754-7.989v-43.985h23.66v45.607c0 1.808.779 3.633 2.913 3.896 1.078.132 2.326-.447 3.706-1.267l14.049-8.346c4.345-2.582 8.792-4.679 13.89-5.115 2.689-.229 5.539-.01 8.751.713 7.301 1.647 13.854 6.288 17.716 14.315 3.605 7.492 3.172 12.428 3.172 20.259v44.052h-24.236v-51.453c0-1.695-.327-3.113-2.211-3.784"/></svg>