<svg clip-rule="evenodd" fill-rule="evenodd" stroke-miterlimit="22.926" viewBox="0 0 301 269" xmlns="http://www.w3.org/2000/svg"><path d="m166.454 19.539c41.011 71.093 80.972 144.664 123.505 214.71 6.492 10.694-2.982 26.049-15.017 26.049h-249.21c-12.035 0-21.508-15.355-15.017-26.049 42.529-70.061 82.484-143.613 123.506-214.71 8.411-14.576 23.824-14.58 32.233 0" fill="#fff"/><path d="m166.454 19.539c41.011 71.093 80.972 144.664 123.505 214.71 6.492 10.694-2.982 26.049-15.017 26.049h-249.21c-12.035 0-21.508-15.355-15.017-26.049 42.529-70.061 82.484-143.613 123.506-214.71 8.411-14.576 23.824-14.58 32.233 0z" fill="none" stroke="#000" stroke-width=".75"/><path d="m143.768 236.245h112.71c1.832 0 4.714-3.926 3.573-5.806-5.747-9.465-12.064-20.826-17.644-30.517l-87.684-152.586c-2.804-4.859-5.968-4.86-8.772 0l-99.756 173.524c-1.841 3.186-3.663 6.435-5.572 9.578-1.141 1.881 1.741 5.807 3.573 5.807zm-5.75-214.624-117.106 203.705c-2.141 3.702-4.232 7.435-6.451 11.09-4.661 7.679 2.54 19.391 11.272 19.391h249.209c8.731 0 15.932-11.712 11.27-19.391-2.219-3.655-4.309-7.387-6.449-11.09l-117.106-203.705c-6.555-11.365-18.084-11.362-24.639 0" fill="#d72717"/><path d="m126.767 175.625c1.068-.381 2.161.002 3.241.608 5.991 3.361 11.546 7.389 17.817 10.446 16.599 8.093 35.354 1.167 39.597-17.957.642-2.89.754-5.086.754-7.989v-43.985h-23.66v45.607c0 1.808-.779 3.633-2.913 3.896-1.078.132-2.326-.447-3.705-1.267l-14.049-8.346c-4.346-2.582-8.792-4.679-13.89-5.115-2.689-.229-5.539-.01-8.751.713-7.301 1.647-13.855 6.288-17.716 14.315-3.606 7.492-3.173 12.428-3.173 20.259v44.052h24.236v-51.453c0-1.695.327-3.113 2.212-3.784"/></svg>