<svg clip-rule="evenodd" fill-rule="evenodd" stroke-miterlimit="22.926" viewBox="0 0 301 269" xmlns="http://www.w3.org/2000/svg"><path d="m166.454 19.539c41.011 71.093 80.972 144.664 123.505 214.71 6.493 10.694-2.981 26.049-15.017 26.049h-249.209c-12.036 0-21.509-15.355-15.018-26.049 42.529-70.061 82.484-143.613 123.506-214.71 8.411-14.576 23.824-14.58 32.233 0" fill="#fff"/><path d="m166.454 19.539c41.011 71.093 80.972 144.664 123.505 214.71 6.493 10.694-2.981 26.049-15.017 26.049h-249.209c-12.036 0-21.509-15.355-15.018-26.049 42.529-70.061 82.484-143.613 123.506-214.71 8.411-14.576 23.824-14.58 32.233 0z" fill="none" stroke="#000" stroke-width=".75"/><path d="m88.337 156.42 169.275 75.704h-212.439zm112.618-5.265 6.106 2.731-32.164 33.522-6.106-2.731zm-42.241 19.892-15.804-7.068c5.423-2.256 12.861-4.944 18.047-7.37 5.823-2.724 7.738-6.854 7.618-12.436-.262-12.184-14.749-16.752-24.16-11.68l2.833 8.065c.01-.003.12-.065.313-.168.82-.441 2.948-1.846 5.511-2.259 4.037-.65 6.012.724 6.945 2.595 3.66 7.332-4.152 9.264-8.114 11.29l-20.149 7.789-3.123 6.912 24.694 11.044zm-22.846-49.001-18.027 39.846-7.301-3.265 13.502-30.222-6.713.853-1.186-4.812 12.893-5.455zm50.321 27.332c1.878 0 3.399 1.522 3.399 3.399 0 1.878-1.521 3.4-3.399 3.4-1.877 0-3.399-1.522-3.399-3.4 0-1.877 1.522-3.399 3.399-3.399m0-4.922c4.596 0 8.321 3.726 8.321 8.321 0 4.596-3.725 8.322-8.321 8.322-4.595 0-8.32-3.726-8.32-8.322 0-4.595 3.725-8.321 8.32-8.321m3.964 37.818c1.877 0 3.398 1.521 3.398 3.399 0 1.877-1.521 3.399-3.398 3.399-1.878 0-3.399-1.522-3.399-3.399 0-1.878 1.521-3.399 3.399-3.399m0-4.922c4.595 0 8.32 3.725 8.32 8.321s-3.725 8.321-8.32 8.321c-4.596 0-8.321-3.725-8.321-8.321s3.725-8.321 8.321-8.321"/><path d="m143.769 236.245h112.71c1.832 0 4.714-3.926 3.573-5.806-5.746-9.465-12.065-20.826-17.645-30.517l-87.683-152.586c-2.803-4.859-5.968-4.86-8.772 0l-99.757 173.524c-1.841 3.186-3.662 6.435-5.571 9.578-1.142 1.881 1.741 5.807 3.572 5.807zm-5.751-214.624-117.106 203.705c-2.141 3.702-4.231 7.435-6.45 11.09-4.661 7.679 2.54 19.391 11.271 19.391h249.209c8.733 0 15.933-11.712 11.271-19.391-2.219-3.655-4.309-7.387-6.449-11.09l-117.107-203.705c-6.555-11.365-18.083-11.362-24.639 0" fill="#d72717"/></svg>