<svg clip-rule="evenodd" fill-rule="evenodd" stroke-miterlimit="22.926" viewBox="0 0 301 269" xmlns="http://www.w3.org/2000/svg"><path d="m166.454 19.539c41.011 71.093 80.972 144.664 123.505 214.71 6.493 10.694-2.981 26.049-15.017 26.049h-249.209c-12.036 0-21.509-15.355-15.018-26.049 42.529-70.061 82.484-143.613 123.506-214.71 8.411-14.576 23.824-14.58 32.233 0" fill="#fff"/><path d="m166.454 19.539c41.011 71.093 80.972 144.664 123.505 214.71 6.493 10.694-2.981 26.049-15.017 26.049h-249.209c-12.036 0-21.509-15.355-15.018-26.049 42.529-70.061 82.484-143.613 123.506-214.71 8.411-14.576 23.824-14.58 32.233 0z" fill="none" stroke="#000" stroke-width=".75"/><path d="m143.769 236.245h112.71c1.832 0 4.714-3.926 3.573-5.806-5.746-9.465-12.065-20.826-17.645-30.517l-87.683-152.586c-2.803-4.859-5.968-4.86-8.772 0l-99.757 173.524c-1.841 3.186-3.662 6.435-5.571 9.578-1.142 1.881 1.741 5.807 3.572 5.807zm-5.751-214.624-117.106 203.705c-2.141 3.702-4.231 7.435-6.45 11.09-4.661 7.679 2.54 19.391 11.271 19.391h249.209c8.733 0 15.933-11.712 11.271-19.391-2.219-3.655-4.309-7.387-6.449-11.09l-117.107-203.705c-6.555-11.365-18.083-11.362-24.639 0" fill="#d72717"/><path d="m43.309 232.124 169.275-75.704 43.164 75.704zm100.161-51.764c7.335-3.28 8.645-11.484 7.082-18.925-1.995-9.494-9.859-24.094-21.119-23.628-7.191.296-11.718 6.042-12.168 13.296-.791 12.729 11.676 35.758 26.205 29.257m-3.353-7.497c-7.51 3.462-14.977-14.437-15.106-20.671-.11-5.311 4.206-7.166 7.288-6.009 5.341 2.003 11.601 16.033 10.814 21.998-.279 2.11-1.175 3.891-2.996 4.682m10.963-44.814c3.062-3.427 8.321-3.723 11.749-.661 3.427 3.062 3.723 8.322.661 11.749-3.062 3.426-8.322 3.722-11.749.661-3.427-3.062-3.723-8.322-.661-11.749m3.67 3.279c2.981-3.338 8.052 1.192 5.07 4.529-2.982 3.338-8.052-1.192-5.07-4.529m11.163-9.828 6.104-2.733 3.569 46.32-6.105 2.734zm12.338 25.511c3.062-3.427 8.322-3.723 11.749-.661 3.427 3.061 3.723 8.321.661 11.749-3.061 3.426-8.321 3.722-11.749.66-3.427-3.062-3.723-8.322-.661-11.748m3.67 3.278c2.982-3.337 8.052 1.192 5.07 4.53-2.981 3.337-8.052-1.192-5.07-4.53m-81.08.356 17.702 39.989-7.299 3.269-13.54-30.204-3.837 5.575-4.378-2.321 4.522-13.25z"/></svg>