<svg clip-rule="evenodd" fill-rule="evenodd" stroke-miterlimit="22.926" viewBox="0 0 301 269" xmlns="http://www.w3.org/2000/svg"><path d="m166.454 19.539c41.011 71.093 80.972 144.664 123.505 214.71 6.493 10.694-2.981 26.049-15.017 26.049h-249.209c-12.036 0-21.509-15.355-15.018-26.049 42.529-70.061 82.484-143.613 123.506-214.71 8.411-14.576 23.824-14.58 32.233 0" fill="#fff"/><path d="m166.454 19.539c41.011 71.093 80.972 144.664 123.505 214.71 6.493 10.694-2.981 26.049-15.017 26.049h-249.209c-12.036 0-21.509-15.355-15.018-26.049 42.529-70.061 82.484-143.613 123.506-214.71 8.411-14.576 23.824-14.58 32.233 0z" fill="none" stroke="#000" stroke-width=".75"/><path d="m143.769 236.245h112.71c1.832 0 4.714-3.926 3.573-5.806-5.746-9.465-12.065-20.826-17.645-30.517l-87.683-152.586c-2.803-4.859-5.968-4.86-8.772 0l-99.757 173.524c-1.841 3.186-3.662 6.435-5.571 9.578-1.142 1.881 1.741 5.807 3.572 5.807zm-5.751-214.624-117.106 203.705c-2.141 3.702-4.231 7.435-6.45 11.09-4.661 7.679 2.54 19.391 11.271 19.391h249.209c8.733 0 15.933-11.712 11.271-19.391-2.219-3.655-4.309-7.387-6.449-11.09l-117.107-203.705c-6.555-11.365-18.083-11.362-24.639 0" fill="#d72717"/><path d="m229.573 228.673h-38.712c4.068-2.305 7.238-5.983 5.771-11.124-1.267-4.433-5.344-5.541-9.163-7.226-10.339-4.561-20.839-8.872-31.25-13.287-6.756-2.865-6.299-10.667.6-14.187 3.063-1.563 8.763-4.263 14.462-6.963-.895 1.781-4.319 7.946-4.415 9.35-.257 3.8 4.049 4.657 6.763 5.576l27.968 9.468c11.362 3.845 20.692 9.318 25.675 20.925 1.063 2.475 1.679 4.864 2.301 7.468m-86.35 0c8.556-8.141 14.135-19.49 1.4-27.143-10.915-6.558-22.378-12.239-33.282-18.738-4.281-2.552-2.373-4.702-.006-7.707 1.188-1.508 3.226-4.035 5.263-6.562-6.449 1.725-12.9 3.45-16.462 4.637-8.023 2.675-9.973 10.425-3.163 15.788 6.733 5.302 14.538 10.206 21.576 15.263 9.179 6.595 7.683 10.591-1.313 16.563-2.937 1.95-7.413 4.924-11.888 7.899zm12.901-121.13.199.024 18.112 2.224c2.312.284 3.239 2.361 3.706 4.562l3.181 14.986-27.463-3.354-27.458-3.39 6.712-13.771c.986-2.023 2.389-3.814 4.699-3.53l18.114 2.224zm-5.629 45.84 31.48 3.844c3.269.398 6.269-1.949 6.667-5.217l1.895-15.517c.355-2.914-1.474-5.616-4.192-6.449l-3.711-18.54c-.541-2.701-1.627-5.246-4.362-5.581l-21.425-2.631-.198-.024-.199-.025-21.424-2.631c-2.735-.335-4.404 1.872-5.582 4.361l-8.087 17.091c-2.84.151-5.267 2.33-5.628 5.244l-1.915 15.514c-.404 3.268 1.939 6.271 5.207 6.674zm17.494 12.778 1.122-9.191 13.825 1.687-1.123 9.192c-.465 3.818-3.937 6.535-7.756 6.069-3.818-.466-6.534-3.938-6.068-7.757m-37.559-4.611 1.135-9.19-13.822-1.708-1.135 9.191c-.472 3.817 2.24 7.293 6.058 7.765 3.817.471 7.293-2.241 7.764-6.058"/></svg>