<svg clip-rule="evenodd" fill-rule="evenodd" stroke-miterlimit="22.926" viewBox="0 0 301 269" xmlns="http://www.w3.org/2000/svg"><path d="m166.454 19.539c41.011 71.093 80.972 144.664 123.505 214.71 6.493 10.694-2.981 26.049-15.017 26.049h-249.209c-12.036 0-21.509-15.355-15.018-26.049 42.529-70.061 82.484-143.613 123.506-214.71 8.411-14.576 23.824-14.58 32.233 0" fill="#f8f100"/><path d="m166.454 19.539c41.011 71.093 80.972 144.664 123.505 214.71 6.493 10.694-2.981 26.049-15.017 26.049h-249.209c-12.036 0-21.509-15.355-15.018-26.049 42.529-70.061 82.484-143.613 123.506-214.71 8.411-14.576 23.824-14.58 32.233 0z" fill="none" stroke="#000" stroke-width=".75"/><path d="m143.769 236.245h112.71c1.832 0 4.714-3.926 3.573-5.806-5.746-9.465-12.065-20.826-17.645-30.517l-87.683-152.586c-2.803-4.859-5.968-4.86-8.772 0l-99.757 173.524c-1.841 3.186-3.662 6.435-5.571 9.578-1.142 1.881 1.741 5.807 3.572 5.807zm-5.751-214.624-117.106 203.705c-2.141 3.702-4.231 7.435-6.45 11.09-4.661 7.679 2.54 19.391 11.271 19.391h249.209c8.733 0 15.933-11.712 11.271-19.391-2.219-3.655-4.309-7.387-6.449-11.09l-117.107-203.705c-6.555-11.365-18.083-11.362-24.639 0" fill="#d72717"/><path d="m158.22 184.318-26.692 35.29 2.153 2.297 28.852-33.785zm-17.162 34.716 1.948 3.031 62.196-38.845-3.881-4.76zm55.955-10.805-30.615 10.081 1.086 3.764 31.059-9.109zm10.207-8.809c4.516 0 8.175 3.66 8.175 8.174 0 4.516-3.659 8.175-8.175 8.175-4.515 0-8.175-3.659-8.175-8.175 0-4.514 3.66-8.174 8.175-8.174m16.163-7.116c3.625 0 6.563 2.939 6.563 6.563 0 3.625-2.938 6.563-6.563 6.563s-6.562-2.938-6.562-6.563c0-3.624 2.937-6.563 6.562-6.563m-10.088-26.437c4.93 0 8.926 3.996 8.926 8.925s-3.996 8.925-8.926 8.925c-4.929 0-8.926-3.996-8.926-8.925s3.997-8.925 8.926-8.925m-43.088 4.369c4.329 0 7.838 3.509 7.838 7.837 0 4.329-3.509 7.838-7.838 7.838-4.328 0-7.837-3.509-7.837-7.838 0-4.328 3.509-7.837 7.837-7.837m-2.286-18.112c3.252 0 5.888 2.635 5.888 5.886 0 3.252-2.636 5.888-5.888 5.888s-5.888-2.636-5.888-5.888c0-3.251 2.636-5.886 5.888-5.886m-48.901 13.819c5.033 0 9.112 4.079 9.112 9.112s-4.079 9.113-9.112 9.113c-5.032 0-9.112-4.08-9.112-9.113s4.08-9.112 9.112-9.112m-9.64 45.612-.01-12.758 19.08-.013.009 12.757c.004 5.299-4.263 9.598-9.533 9.602-5.269.003-9.542-4.289-9.546-9.588m-12.514-78.834h11.796c3.212 0 4.831 2.698 5.841 5.644l6.875 20.057-38.169.025-1.133-.001-21.961 38.202 23.094.016 43.753-.031c4.543-.003 8.256-3.734 8.252-8.293l-.015-21.642c-.002-4.065-2.961-7.469-6.824-8.154l-8.2-24.853c-1.195-3.62-3.11-6.934-6.91-6.934h-12.972z"/></svg>