<svg clip-rule="evenodd" fill-rule="evenodd" stroke-miterlimit="22.926" viewBox="0 0 301 269" xmlns="http://www.w3.org/2000/svg"><path d="m166.454 19.539c41.011 71.093 80.972 144.664 123.505 214.71 6.493 10.694-2.981 26.049-15.017 26.049h-249.209c-12.036 0-21.509-15.355-15.018-26.049 42.529-70.061 82.484-143.613 123.506-214.71 8.411-14.576 23.824-14.58 32.233 0" fill="#f8f100"/><path d="m166.454 19.539c41.011 71.093 80.972 144.664 123.505 214.71 6.493 10.694-2.981 26.049-15.017 26.049h-249.209c-12.036 0-21.509-15.355-15.018-26.049 42.529-70.061 82.484-143.613 123.506-214.71 8.411-14.576 23.824-14.58 32.233 0z" fill="none" stroke="#000" stroke-width=".75"/><path d="m143.769 236.245h112.71c1.832 0 4.714-3.926 3.573-5.806-5.746-9.465-12.065-20.826-17.645-30.517l-87.683-152.586c-2.803-4.859-5.968-4.86-8.772 0l-99.757 173.524c-1.841 3.186-3.662 6.435-5.571 9.578-1.142 1.881 1.741 5.807 3.572 5.807zm-5.751-214.624-117.106 203.705c-2.141 3.702-4.231 7.435-6.45 11.09-4.661 7.679 2.54 19.391 11.271 19.391h249.209c8.733 0 15.933-11.712 11.271-19.391-2.219-3.655-4.309-7.387-6.449-11.09l-117.107-203.705c-6.555-11.365-18.083-11.362-24.639 0" fill="#d72717"/><path d="m199.41 204.219c1.491 0 2.7 1.209 2.7 2.7s-1.209 2.7-2.7 2.7-2.7-1.209-2.7-2.7 1.209-2.7 2.7-2.7m-7.031 8.738c2.247 0 4.068 1.822 4.068 4.069s-1.821 4.068-4.068 4.068-4.069-1.821-4.069-4.068 1.822-4.069 4.069-4.069m-14.157-1.387c1.782 0 3.225 1.444 3.225 3.224 0 1.781-1.443 3.226-3.225 3.226-1.781 0-3.224-1.445-3.224-3.226 0-1.78 1.443-3.224 3.224-3.224m-1.199-9.375c2.05 0 3.713 1.662 3.713 3.712s-1.663 3.712-3.713 3.712c-2.051 0-3.713-1.662-3.713-3.712s1.662-3.712 3.713-3.712m-24.338 8.943c1.658 0 3 1.318 3 2.944 0 1.625-1.342 2.944-3 2.944-1.656 0-2.999-1.319-2.999-2.944 0-1.626 1.343-2.944 2.999-2.944m11.925-6.019c2.175 0 3.939 1.763 3.939 3.938s-1.764 3.937-3.939 3.937c-2.174 0-3.937-1.762-3.937-3.937s1.763-3.938 3.937-3.938m2.156-6.75c1.399 0 2.532 1.133 2.532 2.531s-1.133 2.531-2.532 2.531c-1.397 0-2.531-1.133-2.531-2.531s1.134-2.531 2.531-2.531m-12.075-1.238c1.068 0 1.932.865 1.932 1.932 0 1.066-.864 1.931-1.932 1.931-1.066 0-1.93-.865-1.93-1.931 0-1.067.864-1.932 1.93-1.932m15.855-59.686.199.024 18.113 2.224c2.311.284 3.239 2.36 3.705 4.561l3.181 14.986-27.462-3.353-27.458-3.39 6.711-13.771c.986-2.023 2.389-3.814 4.699-3.53l18.113 2.224zm-5.628 45.839 31.479 3.844c3.269.399 6.269-1.948 6.668-5.217l1.894-15.516c.355-2.914-1.473-5.616-4.192-6.449l-3.711-18.54c-.542-2.701-1.627-5.246-4.362-5.582l-21.425-2.631-.198-.024-.199-.025-21.424-2.63c-2.734-.336-4.404 1.871-5.582 4.36l-8.086 17.092c-2.84.151-5.268 2.33-5.628 5.244l-1.916 15.514c-.403 3.267 1.939 6.27 5.207 6.674zm17.493 12.779 1.122-9.192 13.825 1.688-1.122 9.19c-.466 3.819-3.938 6.536-7.757 6.07-3.818-.466-6.534-3.939-6.068-7.756m-114.477.843h67.056c-2.658-1.243-4.339-4.091-3.959-7.163l1.134-9.189 13.823 1.707-1.135 9.19c-.305 2.467-1.866 4.473-3.963 5.455h5.645v15.675h-78.601z"/></svg>