<svg clip-rule="evenodd" fill-rule="evenodd" stroke-miterlimit="22.926" viewBox="0 0 301 269" xmlns="http://www.w3.org/2000/svg"><path d="m166.454 19.539c41.011 71.093 80.972 144.664 123.505 214.71 6.493 10.694-2.981 26.049-15.017 26.049h-249.209c-12.036 0-21.509-15.355-15.018-26.049 42.529-70.061 82.484-143.613 123.506-214.71 8.411-14.576 23.824-14.58 32.233 0" fill="#fff"/><path d="m166.454 19.539c41.011 71.093 80.972 144.664 123.505 214.71 6.493 10.694-2.981 26.049-15.017 26.049h-249.209c-12.036 0-21.509-15.355-15.018-26.049 42.529-70.061 82.484-143.613 123.506-214.71 8.411-14.576 23.824-14.58 32.233 0z" fill="none" stroke="#000" stroke-width=".75"/><path d="m143.769 236.353h112.71c1.832 0 4.714-3.925 3.573-5.806-5.746-9.464-12.065-20.825-17.645-30.516l-87.683-152.587c-2.803-4.859-5.968-4.86-8.772.001l-99.757 173.524c-1.841 3.186-3.662 6.434-5.571 9.577-1.142 1.881 1.741 5.807 3.572 5.807zm-5.751-214.624-117.106 203.705c-2.141 3.702-4.231 7.435-6.45 11.091-4.661 7.678 2.54 19.391 11.271 19.391h249.209c8.733 0 15.933-11.712 11.271-19.391-2.219-3.656-4.309-7.388-6.449-11.091l-117.107-203.705c-6.555-11.365-18.083-11.362-24.639 0" fill="#d72717"/><path d="m150.275 65.768c6.911 0 12.513 5.602 12.513 12.513 0 4.536-2.413 8.508-6.026 10.703 6.079 2.57 10.345 8.589 10.345 15.603 0 9.051-7.102 16.443-16.036 16.91-.713 8.169-7.582 14.564-15.944 14.532h-8.445c-6.851 0-12.66 4.46-14.684 10.634h-12.206c-.29-12.695 7.958-23.562 19.482-27.151.282-7.875 6.279-14.293 13.968-15.234.124-6.928 4.41-12.841 10.463-15.345-3.567-2.205-5.943-6.15-5.943-10.652 0-6.911 5.602-12.513 12.513-12.513m28.985 93.298h13.693v15.014h-13.693zm-8.747-8.343h36.531v8.802h-4.371v37.015h-32.16zm-75.878 14.345h4.932v-15.996h12.47v15.996h55.669v31.462h-73.071c-8.945-10.488-9.367-20.975 0-31.462m78.65 41.187c6.224 0 11.27 5.045 11.27 11.268 0 6.224-5.046 11.269-11.27 11.269-6.222 0-11.268-5.045-11.268-11.269 0-6.223 5.046-11.268 11.268-11.268m0 6.867c2.432 0 4.403 1.971 4.403 4.401 0 2.432-1.971 4.403-4.403 4.403-2.43 0-4.4-1.971-4.4-4.403 0-2.43 1.97-4.401 4.4-4.401m-30.671 0c2.432 0 4.402 1.971 4.402 4.401 0 2.432-1.97 4.403-4.402 4.403-2.43 0-4.401-1.971-4.401-4.403 0-2.43 1.971-4.401 4.401-4.401m0-6.867c6.224 0 11.269 5.045 11.269 11.268 0 6.224-5.045 11.269-11.269 11.269-6.223 0-11.268-5.045-11.268-11.269 0-6.223 5.045-11.268 11.268-11.268m-30.671 6.867c2.431 0 4.402 1.971 4.402 4.401 0 2.432-1.971 4.403-4.402 4.403s-4.401-1.971-4.401-4.403c0-2.43 1.97-4.401 4.401-4.401m0-6.867c6.224 0 11.269 5.045 11.269 11.268 0 6.224-5.045 11.269-11.269 11.269-6.223 0-11.268-5.045-11.268-11.269 0-6.223 5.045-11.268 11.268-11.268m-12.113 14.936c1.572 5.201 6.4 8.987 12.113 8.987 6.989 0 12.655-5.665 12.655-12.655 0-.205-.006-.409-.015-.612h5.392c-.01.203-.014.407-.014.612 0 6.99 5.665 12.655 12.653 12.655 6.989 0 12.655-5.665 12.655-12.655 0-.205-.005-.409-.015-.612h5.393c-.01.203-.015.407-.015.612 0 6.99 5.665 12.655 12.653 12.655 6.99 0 12.655-5.665 12.655-12.655 0-.205-.005-.409-.015-.611h17.013v-17.197h-112.186v5.674h-10.249v15.802z"/></svg>