<svg clip-rule="evenodd" fill-rule="evenodd" stroke-miterlimit="22.926" viewBox="0 0 301 269" xmlns="http://www.w3.org/2000/svg"><path d="m134.221 19.539c-41.011 71.093-80.972 144.664-123.505 214.709-6.493 10.694 2.981 26.049 15.017 26.049h249.209c12.035 0 21.509-15.355 15.018-26.049-42.53-70.061-82.485-143.612-123.506-214.709-8.411-14.576-23.824-14.58-32.233 0" fill="#f8f100"/><path d="m134.221 19.539c-41.011 71.093-80.972 144.664-123.505 214.709-6.493 10.694 2.981 26.049 15.017 26.049h249.209c12.035 0 21.509-15.355 15.018-26.049-42.53-70.061-82.485-143.612-123.506-214.709-8.411-14.576-23.824-14.58-32.233 0z" fill="none" stroke="#000" stroke-width=".75"/><path d="m156.906 236.244h-112.71c-1.832 0-4.714-3.926-3.573-5.806 5.747-9.465 12.064-20.826 17.645-30.517l87.683-152.585c2.803-4.859 5.968-4.86 8.772 0l99.757 173.523c1.841 3.186 3.662 6.435 5.571 9.578 1.141 1.881-1.741 5.807-3.573 5.807zm5.751-214.623 117.105 203.704c2.141 3.702 4.232 7.435 6.451 11.09 4.661 7.679-2.54 19.391-11.272 19.391h-249.208c-8.732 0-15.933-11.712-11.271-19.391 2.219-3.655 4.309-7.387 6.449-11.09l117.107-203.705c6.554-11.364 18.083-11.361 24.639.001" fill="#d72717"/><path d="m176.919 94.592h-21.725v133.651h21.725zm-53.165 0h21.779l-.006 31.022c-.024 11.989-.463 20.603-5.779 31.015-4.737 9.276-11.557 14.28-14.283 19.267-1.722 3.15-3.223 7.699-3.494 11.561-.261 3.725-.154 11.006-.154 15.177v25.609h-21.779l.006-31.346c.019-7.546.487-17.228 2.943-23.946 2.597-7.104 6.325-12.478 11.424-18.05 4.04-4.414 6.363-7.504 8.154-13.324 1.076-3.497 1.166-10.2 1.18-14.575z"/></svg>