<svg clip-rule="evenodd" fill-rule="evenodd" stroke-miterlimit="22.926" viewBox="0 0 301 269" xmlns="http://www.w3.org/2000/svg"><path d="m166.454 19.539c41.011 71.093 80.972 144.664 123.505 214.71 6.493 10.694-2.981 26.049-15.017 26.049h-249.209c-12.036 0-21.509-15.355-15.018-26.049 42.529-70.061 82.484-143.613 123.506-214.71 8.411-14.576 23.824-14.58 32.233 0" fill="#f8f100"/><path d="m166.454 19.539c41.011 71.093 80.972 144.664 123.505 214.71 6.493 10.694-2.981 26.049-15.017 26.049h-249.209c-12.036 0-21.509-15.355-15.018-26.049 42.529-70.061 82.484-143.613 123.506-214.71 8.411-14.576 23.824-14.58 32.233 0z" fill="none" stroke="#000" stroke-width=".75"/><path d="m143.769 236.245h112.71c1.832 0 4.714-3.926 3.573-5.806-5.746-9.465-12.065-20.826-17.645-30.517l-87.683-152.586c-2.803-4.859-5.968-4.86-8.772 0l-99.757 173.524c-1.841 3.186-3.662 6.435-5.571 9.578-1.142 1.881 1.741 5.807 3.572 5.807zm-5.751-214.624-117.106 203.705c-2.141 3.702-4.231 7.435-6.45 11.09-4.661 7.679 2.54 19.391 11.271 19.391h249.209c8.733 0 15.933-11.712 11.271-19.391-2.219-3.655-4.309-7.387-6.449-11.09l-117.107-203.705c-6.555-11.365-18.083-11.362-24.639 0" fill="#d72717"/><path d="m176.921 94.592h-21.779l.006 31.023c.023 11.989.462 20.603 5.78 31.016 4.735 9.275 11.555 14.279 14.282 19.266 1.723 3.151 3.223 7.699 3.494 11.561.261 3.725.155 11.007.155 15.177v25.609h21.778l-.006-31.346c-.019-7.546-.487-17.227-2.943-23.946-2.597-7.104-6.326-12.478-11.424-18.05-4.04-4.414-6.364-7.504-8.155-13.325-1.076-3.496-1.165-10.2-1.179-14.574zm-53.166 0h21.779l-.006 31.023c-.024 11.989-.463 20.603-5.78 31.016-4.736 9.275-11.556 14.279-14.283 19.266-1.721 3.151-3.223 7.699-3.493 11.561-.261 3.725-.155 11.007-.155 15.177v25.609h-21.778l.006-31.346c.018-7.546.487-17.227 2.943-23.946 2.597-7.104 6.325-12.478 11.424-18.05 4.04-4.414 6.363-7.504 8.154-13.325 1.076-3.496 1.166-10.2 1.18-14.574z"/></svg>