<svg clip-rule="evenodd" fill-rule="evenodd" stroke-miterlimit="22.926" viewBox="0 0 301 269" xmlns="http://www.w3.org/2000/svg"><path d="m166.454 19.539c41.011 71.093 80.972 144.664 123.505 214.709 6.492 10.694-2.982 26.049-15.017 26.049h-249.209c-12.036 0-21.509-15.355-15.018-26.049 42.529-70.061 82.484-143.612 123.506-214.709 8.411-14.576 23.824-14.58 32.233 0" fill="#fff"/><path d="m166.454 19.539c41.011 71.093 80.972 144.664 123.505 214.709 6.492 10.694-2.982 26.049-15.017 26.049h-249.209c-12.036 0-21.509-15.355-15.018-26.049 42.529-70.061 82.484-143.612 123.506-214.709 8.411-14.576 23.824-14.58 32.233 0z" fill="none" stroke="#000" stroke-width=".75"/><path d="m143.769 236.244h112.709c1.833 0 4.714-3.926 3.574-5.806-5.747-9.465-12.065-20.826-17.645-30.517l-87.683-152.585c-2.804-4.859-5.968-4.86-8.772 0l-99.757 173.523c-1.841 3.186-3.662 6.435-5.571 9.578-1.142 1.881 1.741 5.807 3.572 5.807zm-5.751-214.623-117.106 203.704c-2.141 3.702-4.231 7.435-6.45 11.09-4.661 7.679 2.54 19.391 11.271 19.391h249.209c8.732 0 15.933-11.712 11.271-19.391-2.22-3.655-4.31-7.387-6.449-11.09l-117.107-203.705c-6.555-11.364-18.083-11.361-24.639.001" fill="#d72717"/><path d="m176.921 94.592h-21.779l.006 31.022c.023 11.989.462 20.603 5.779 31.016 4.736 9.275 11.556 14.279 14.283 19.266 1.722 3.151 3.223 7.699 3.493 11.561.262 3.725.155 11.007.155 15.177v25.609h21.779l-.006-31.346c-.019-7.546-.487-17.227-2.943-23.946-2.597-7.104-6.326-12.478-11.424-18.05-4.04-4.414-6.364-7.504-8.155-13.324-1.076-3.497-1.166-10.2-1.179-14.574zm-53.166 0h21.725v133.651h-21.725z"/></svg>