<svg clip-rule="evenodd" fill-rule="evenodd" stroke-miterlimit="22.926" viewBox="0 0 301 269" xmlns="http://www.w3.org/2000/svg"><path d="m166.454 19.539c41.011 71.093 80.972 144.664 123.505 214.71 6.493 10.694-2.981 26.049-15.017 26.049h-249.209c-12.036 0-21.509-15.355-15.018-26.049 42.529-70.061 82.484-143.613 123.506-214.71 8.411-14.576 23.824-14.58 32.233 0" fill="#fff"/><path d="m166.454 19.539c41.011 71.093 80.972 144.664 123.505 214.71 6.493 10.694-2.981 26.049-15.017 26.049h-249.209c-12.036 0-21.509-15.355-15.018-26.049 42.529-70.061 82.484-143.613 123.506-214.71 8.411-14.576 23.824-14.58 32.233 0z" fill="none" stroke="#000" stroke-width=".75"/><path d="m143.769 236.245h112.71c1.832 0 4.714-3.926 3.573-5.806-5.746-9.465-12.065-20.826-17.645-30.517l-87.683-152.586c-2.803-4.859-5.968-4.86-8.772 0l-99.757 173.524c-1.841 3.186-3.662 6.435-5.571 9.578-1.142 1.881 1.741 5.807 3.572 5.807zm-5.751-214.624-117.106 203.705c-2.141 3.702-4.231 7.435-6.45 11.09-4.661 7.679 2.54 19.391 11.271 19.391h249.209c8.733 0 15.933-11.712 11.271-19.391-2.219-3.655-4.309-7.387-6.449-11.09l-117.107-203.705c-6.555-11.365-18.083-11.362-24.639 0" fill="#d72717"/><path d="m152.457 73.419c-5.583.646-12.429 4.763-14.02 10.436-1.374 4.901.545 14.124 6.408 15.24 3.309.63 5.279.173 8.297-1.221 5.826-2.691 13.678-8.351 12.879-15.544-.796-7.18-7.067-9.662-13.564-8.911m36.925 47.952c-.968-4.397-3.543-5.441-7.009-7.534-2.233-1.348-21.007-12.386-22.544-12.765-4.44-1.095-6.435.595-10.424 2.935-1.484.872-2.976 1.749-4.442 2.653-2.964 1.828-2.961 2.69-3.011 5.974-.079 5.089.154 37.128-.103 37.496-.655.937-18.272 18.044-18.982 19.224-.853 1.418-1.986 6.829-2.384 8.49l-7.861 33.326c-1.125 4.699 2.405 9.228 7.249 9.228 3.447 0 6.458-2.367 7.254-5.717.947-3.982 7.158-31.118 7.982-32.719.827-1.609 5.386-5.722 6.919-7.255 6.197-6.197 12.378-12.41 18.562-18.619 1.057-1.061 4.859-4.56 5.391-5.788.789-1.818.569-14.493.573-16.255l-.022-15.702c1.776.442 10.407 6.184 10.86 7.105.48.978.259 20.013.259 22.598 0 3.239 2.626 5.866 5.867 5.866 3.24 0 5.866-2.627 5.866-5.866zm-50.346 4.14-21.7 21.724c-1.103 1.105-1.716 2.586-1.716 4.147 0 5.157 6.271 7.846 9.958 4.204l13.458-13.291zm25.227 31.421-11.187 11.04 28.279 48.551c3.311 5.682 11.554 4.967 13.78-1.163.759-2.089.603-4.389-.521-6.32zm-76.825 47.197h17.162l-9.524 24.675h-23.733zm126.192 0h-17.161l9.524 24.675h23.734zm-70.708 0h15.225l3.3 24.675h-21.825z" fill-rule="nonzero"/></svg>