<svg clip-rule="evenodd" fill-rule="evenodd" stroke-miterlimit="22.926" viewBox="0 0 301 269" xmlns="http://www.w3.org/2000/svg"><path d="m166.454 19.539c41.011 71.093 80.972 144.664 123.505 214.71 6.493 10.694-2.981 26.049-15.017 26.049h-249.209c-12.036 0-21.509-15.355-15.018-26.049 42.529-70.061 82.484-143.613 123.506-214.71 8.411-14.576 23.824-14.58 32.233 0" fill="#fff"/><path d="m166.454 19.539c41.011 71.093 80.972 144.664 123.505 214.71 6.493 10.694-2.981 26.049-15.017 26.049h-249.209c-12.036 0-21.509-15.355-15.018-26.049 42.529-70.061 82.484-143.613 123.506-214.71 8.411-14.576 23.824-14.58 32.233 0z" fill="none" stroke="#000" stroke-width=".75"/><path d="m143.769 236.245h112.71c1.832 0 4.714-3.926 3.573-5.806-5.746-9.465-12.065-20.826-17.645-30.517l-87.683-152.586c-2.803-4.859-5.968-4.86-8.772 0l-99.757 173.524c-1.841 3.186-3.662 6.435-5.571 9.578-1.142 1.881 1.741 5.807 3.572 5.807zm-5.751-214.624-117.106 203.705c-2.141 3.702-4.231 7.435-6.45 11.09-4.661 7.679 2.54 19.391 11.271 19.391h249.209c8.733 0 15.933-11.712 11.271-19.391-2.219-3.655-4.309-7.387-6.449-11.09l-117.107-203.705c-6.555-11.365-18.083-11.362-24.639 0" fill="#d72717"/><path d="m138.609 115.188c-1.957 0-3.766 1.033-4.745 2.724l-22.128 38.23c-1.144 1.977-1.344 2.962-.193 4.988l7.109 12.507c.169.298.341.635.317.988-.048.693-.95 1.316-1.457 1.69-1.54 1.137-3.146 2.208-4.7 3.334-2.45 1.774-2.211 1.937-3.633 4.38l-15.838 27.202c-.564.969-.857 2.061-.857 3.183 0 6.399 8.523 8.782 11.794 3.217l12.213-20.774c1.532-2.606 2.907-6.033 5.553-7.69l15.679-9.816c1.877-1.175 2.386-2.202 1.931-4.411-.189-.916-.601-1.862-1.072-2.664l-10.261-17.442c-1.712-2.908-1.022-3.484.578-6.264l14.473-25.156c2.094-3.64-.567-8.226-4.763-8.226m-.309 67.091-10.798 6.717 7.824 13.551c1.105 1.914 2.925 5.874 5.199 6.495.527.144 1.786.14 2.354.156 1.415.038 2.834.046 4.251.049 2.075.004 4.15-.021 6.225-.019v-12.558h-5.958c-.829 0-.91-.131-1.289-.792zm55.189-62.371-17.706-.007c-2.26-.001-2.776-.199-4.508 1.355-1.462 1.311-6.203 8.079-6.478 9.876-.377 2.465.167 3.435 1.39 5.567l11.994 20.9c.219.381 1.285 1.941 1.004 2.406-.08.134-.204.194-.333.268l-20.525 11.844c-3.014 1.739-2.689 2.566-2.685 5.786l.041 36.324c.004 3.603 2.919 6.524 6.523 6.524 3.602 0 6.523-2.921 6.523-6.523v-32.186c0-.693.597-.896 1.109-1.187l26.2-14.926c3.825-2.178 5.991-6.753 3.673-10.841l-8.549-15.066c-.537-.945-1.109-1.875-1.68-2.8-.685-1.111-1.387-2.218-2.047-3.344-.197-.335-1.027-1.624-.831-2.016.158-.317 1.347-.242 1.629-.242h11.986zm30.221 52.591-14.043 8.168c-1.262.734-2.266.842-3.07-.55l-7.29-12.626-11.298 6.522 12.808 22.184c1.09 1.887 3.534 2.542 5.421 1.452l23.972-13.84zm-109.208-.914-5.426-9.539-7.515 4.39c-1.018.596-1.215.345-1.747-.579l-4.925-8.546c-.491-.852-1.17-1.575-2.025-2.068-4.942-2.854-9.944 2.799-7.154 7.64l8.694 15.086c1.041 1.807 3.122 3.187 5.157 2.038zm54.962-23.837-6.759-11.769-7.971 13.897c-.659 1.151-.972 1.012-2.011.412l-11.604-6.71c-.984-.57-2.079-.9-3.219-.9-6.593 0-8.305 8.514-2.744 11.77l18.696 10.95c2.1 1.229 4.66 1.367 6.009-.974zm-65.387-20.217c-3.854 3.02-7.108 9.231-5.707 14.175 1.188 4.189 6.789 10.245 11.607 8.422 2.751-1.04 3.998-2.276 5.609-4.688 1.328-1.989 2.465-4.18 3.258-6.439 1.251-3.565 1.786-7.871-.691-11.061-3.854-4.963-9.613-3.907-14.076-.409m52.689-27.154c-2.054 1.525-3.809 3.695-5.023 5.937-1.532 2.832-2.488 6.329-1.671 9.525 1.191 4.66 7.196 11.491 12.566 9.619 3.062-1.068 4.475-2.395 6.319-5.009 1.52-2.153 2.835-4.532 3.772-6.997 1.483-3.897 2.193-8.627-.447-12.217-4.11-5.586-10.492-4.589-15.516-.858"/></svg>