<svg clip-rule="evenodd" fill-rule="evenodd" stroke-miterlimit="22.926" viewBox="0 0 301 269" xmlns="http://www.w3.org/2000/svg"><path d="m166.454 19.539c41.011 71.093 80.972 144.664 123.505 214.71 6.493 10.694-2.981 26.049-15.017 26.049h-249.209c-12.036 0-21.509-15.355-15.018-26.049 42.529-70.061 82.484-143.613 123.506-214.71 8.411-14.576 23.824-14.58 32.233 0" fill="#fff"/><path d="m166.454 19.539c41.011 71.093 80.972 144.664 123.505 214.71 6.493 10.694-2.981 26.049-15.017 26.049h-249.209c-12.036 0-21.509-15.355-15.018-26.049 42.529-70.061 82.484-143.613 123.506-214.71 8.411-14.576 23.824-14.58 32.233 0z" fill="none" stroke="#000" stroke-width=".75"/><path d="m143.769 236.245h112.71c1.832 0 4.714-3.926 3.573-5.806-5.746-9.465-12.065-20.826-17.645-30.517l-87.683-152.586c-2.803-4.859-5.968-4.86-8.772 0l-99.757 173.524c-1.841 3.186-3.662 6.435-5.571 9.578-1.142 1.881 1.741 5.807 3.572 5.807zm-5.751-214.624-117.106 203.705c-2.141 3.702-4.231 7.435-6.45 11.09-4.661 7.679 2.54 19.391 11.271 19.391h249.209c8.733 0 15.933-11.712 11.271-19.391-2.219-3.655-4.309-7.387-6.449-11.09l-117.107-203.705c-6.555-11.365-18.083-11.362-24.639 0" fill="#d72717"/><path d="m109.647 178.764-5.556 11.658c-.47.987-1.311 2.594-2.087 3.38l-.025.025-4.324 2.58c-1.622.967-3.64 3.004-2.684 5.076.111.24.259.46.439.653.975 1.055 2.947 1.174 4.143.448l7.126-4.329c1.109-.673 2.028-2.513 2.591-3.68l5.681-11.769c4.334 4.365 7.011 10.376 7.011 17.013 0 13.339-10.813 24.151-24.15 24.151-13.339 0-24.151-10.812-24.151-24.151 0-13.338 10.812-24.151 24.151-24.151 4.3 0 8.337 1.126 11.835 3.096m69.691 25.913 24.198-.08c1.238-.005 2.403-.5 3.229-1.431 1.487-1.675 1.334-3.981.156-5.781-1.87-2.859-3.849-5.675-5.81-8.474-2.617-3.736-5.258-7.458-7.907-11.171 2.994-1.331 6.308-2.072 9.797-2.072 13.338 0 24.151 10.813 24.151 24.151 0 13.339-10.813 24.151-24.151 24.151-11.674 0-21.414-8.283-23.663-19.293m-5.323-6.384h-9.589l13.131-31.518 7.353 10.348c-6.292 5.022-10.45 12.605-10.895 21.17m25.935 0h-21.051c.433-6.926 3.783-13.061 8.838-17.189zm-102.138-27.499c5.051 0 9.8 1.291 13.937 3.56l8.567-17.977c.282-.592.568-1.236.534-1.906-.045-.858-.461-1.635-1.123-2.178-.731-.599-1.78-.909-2.592-1.417-.849-.531-1.636-1.164-2.334-1.883-4.712-4.862-4.076-12.734 1.832-16.309 1.357-.821 2.886-1.284 4.478-1.283l15.02.001c4.809.001 4.379 6.409.374 6.409h-14.384c-3.016 0-4.573 3.317-3.078 5.71.102.164.219.318.349.461 1.234 1.359 3.27 1.999 4.664 3.247 2.895 2.594 3.634 5.559 3.148 9.274l-.042.321 47.837-.007 1.523-3.411h-12.495c-5.651 0-5.651-8.865 0-8.865h20.858c5.652 0 5.652 8.865 0 8.865h-2.308l-.074.173c-.365.874-.747 1.742-1.111 2.616-.273.657-.961 2.185-1.046 2.852-.066.525.213 1.099.512 1.512 3.166 4.373 6.32 8.755 9.462 13.145 3.831-1.864 8.134-2.91 12.681-2.91 16.03 0 29.025 12.994 29.025 29.025 0 16.03-12.995 29.025-29.025 29.025-14.369 0-26.297-10.441-28.616-24.15l-15.829.052-39.629-30.175-1.752 3.629c5.93 5.313 9.661 13.03 9.661 21.619 0 16.03-12.995 29.025-29.024 29.025-16.031 0-29.026-12.995-29.026-29.025 0-16.031 12.995-29.025 29.026-29.025m26.845-7.442h48.464l-13.993 33.59-36.984-28.383z"/></svg>