<svg clip-rule="evenodd" fill-rule="evenodd" stroke-miterlimit="22.926" viewBox="0 0 301 269" xmlns="http://www.w3.org/2000/svg"><path d="m166.454 19.539c41.011 71.093 80.972 144.664 123.505 214.71 6.493 10.694-2.981 26.049-15.017 26.049h-249.209c-12.036 0-21.509-15.355-15.018-26.049 42.529-70.061 82.484-143.613 123.506-214.71 8.411-14.576 23.824-14.58 32.233 0" fill="#fff"/><path d="m166.454 19.539c41.011 71.093 80.972 144.664 123.505 214.71 6.493 10.694-2.981 26.049-15.017 26.049h-249.209c-12.036 0-21.509-15.355-15.018-26.049 42.529-70.061 82.484-143.613 123.506-214.71 8.411-14.576 23.824-14.58 32.233 0z" fill="none" stroke="#000" stroke-width=".75"/><path d="m143.769 236.245h112.71c1.832 0 4.714-3.926 3.573-5.806-5.746-9.465-12.065-20.826-17.645-30.517l-87.683-152.586c-2.803-4.859-5.968-4.86-8.772 0l-99.757 173.524c-1.841 3.186-3.662 6.435-5.571 9.578-1.142 1.881 1.741 5.807 3.572 5.807zm-5.751-214.624-117.106 203.705c-2.141 3.702-4.231 7.435-6.45 11.09-4.661 7.679 2.54 19.391 11.271 19.391h249.209c8.733 0 15.933-11.712 11.271-19.391-2.219-3.655-4.309-7.387-6.449-11.09l-117.107-203.705c-6.555-11.365-18.083-11.362-24.639 0" fill="#d72717"/><path d="m175.925 181.918 32.734 18.896c4.74-4.908 5.182-9.501 13.78-20.776l28.494 49.354h-81.145c2.358-3.592 6.128-8.418 9.321-11.077 13.179-10.973 19.215-9.821 25.671-14.202l-29.459-17.007c-.802 2.569-3.094 3.242-5.532 3.541v30.563c0 4.226-3.425 7.65-7.649 7.65-4.242 0-7.677-3.463-7.651-7.671v-30.542c-.028-3.845-.036-3.47-4.043-5.94l-28.6-16.512c-3.019-1.777-3.898-3.819-2.072-7.048.861-1.525 1.741-3.054 2.634-4.586l-7.858-4.537-1.662 2.849c-3.536 6.249-12.831 3.655-12.831-3.282 0-1.478.469-2.845 1.265-3.963 2.418-3.75 15.7-27.429 16.613-28.573 1.421-1.781 3.192-1.906 5.375-1.974 3.466 0 21.046-.158 23.149.093 1.233.148 2.624 1.001 3.476 1.781l11.55 12.001c1.355 1.541 1.947 2.873 2.55 4.8zm-58.958-34.035 7.876 4.546c4.36-7.336 8.925-14.736 13.139-22.114h-10.763zm27.192 15.043 9.262-15.867 6.725 25.097zm-6.168 25.027c.077 1.631-.083 2.567-.824 3.969l-18.246 31.386-1.005 1.728c-3.902 6.729-14.276 3.974-14.276-3.826 0-2.56 1.279-4.269 2.492-6.378l15.266-26.572c.516-1.265.115-2.795-.095-4.175l-1.923-14.78 17.508 10.108c0 .084 1.006 6.488 1.103 8.54m34.197-86.902c2.342 1.739 4.344 4.213 5.728 6.77 1.747 3.229 2.836 7.217 1.905 10.861-1.358 5.314-8.206 13.103-14.33 10.968-3.491-1.217-5.101-2.731-7.205-5.711-1.733-2.455-3.232-5.168-4.301-7.979-1.69-4.444-2.501-9.837.51-13.93 4.686-6.37 11.964-5.234 17.693-.979"/></svg>