<svg clip-rule="evenodd" fill-rule="evenodd" stroke-miterlimit="22.926" viewBox="0 0 301 269" xmlns="http://www.w3.org/2000/svg"><path d="m166.454 19.539c41.011 71.093 80.972 144.664 123.505 214.71 6.493 10.694-2.981 26.049-15.017 26.049h-249.209c-12.036 0-21.509-15.355-15.018-26.049 42.529-70.061 82.484-143.613 123.506-214.71 8.411-14.576 23.824-14.58 32.233 0" fill="#fff"/><path d="m166.454 19.539c41.011 71.093 80.972 144.664 123.505 214.71 6.493 10.694-2.981 26.049-15.017 26.049h-249.209c-12.036 0-21.509-15.355-15.018-26.049 42.529-70.061 82.484-143.613 123.506-214.71 8.411-14.576 23.824-14.58 32.233 0z" fill="none" stroke="#000" stroke-width=".75"/><path d="m143.769 236.245h112.71c1.832 0 4.714-3.926 3.573-5.806-5.746-9.465-12.065-20.826-17.645-30.517l-87.683-152.586c-2.803-4.859-5.968-4.86-8.772 0l-99.757 173.524c-1.841 3.186-3.662 6.435-5.571 9.578-1.142 1.881 1.741 5.807 3.572 5.807zm-5.751-214.624-117.106 203.705c-2.141 3.702-4.231 7.435-6.45 11.09-4.661 7.679 2.54 19.391 11.271 19.391h249.209c8.733 0 15.933-11.712 11.271-19.391-2.219-3.655-4.309-7.387-6.449-11.09l-117.107-203.705c-6.555-11.365-18.083-11.362-24.639 0" fill="#d72717"/><path d="m133.598 124.554c2.94-3.203 2.673 8.321 5.741 9.378 2.721.249 4.831 2.011 4.831 4.147 0 2.16-2.155 3.936-4.919 4.155l-4.535 22.2c-.284 1.391-1.286 2.427-2.857 2.427h-18.018c-1.572 0-2.574-1.036-2.858-2.427l-4.534-22.2c-2.764-.219-4.919-1.995-4.919-4.155 0-2.136 2.109-3.898 4.831-4.147 3.068-1.057 2.8-12.581 5.74-9.378.976 1.063 2.069 7.649 2.787 8.825.221.363 6.768.18 7.911.18 1.033 0 7.79.184 8.012-.18.718-1.176 1.811-7.762 2.787-8.825m-.918 78.063h9.692l-8.722 22.388c-.736 1.889-3.256 3.077-5.14 2.331l-.853-.339c-1.883-.747-2.952-3.243-2.237-5.139zm61.261.468-9.192 22.183c-.774 1.872-2.9 2.814-4.783 2.068l-.853-.339c-1.883-.747-2.909-3.469-2.143-5.345l10.391-25.445zm3.904-57.615c4.365 0 7.937 3.571 7.937 7.938 0 2.134-.232 19.715.256 22.067.477 2.299 8.532 10.445 9.753 13.801.278.763.422 1.503.566 2.242l2.067 31.869c.321 4.952-7.428 5.84-8.234.939l-3.117-18.93c-.269-.758-1.677-2.788-2.537-3.489-3.495-2.852-11.343-2.698-14.113-5.307-3.657-3.445-2.085-10.42-9.325-7.919-2.023.699-21.777 8.433-22.356 8.969-1.681 1.556-1.33 6.787-1.337 9.356v16.903c0 4.949-8.288 4.949-8.288 0 0-3.481.22-18.085-.314-20.701-.307-1.501-1.703-2.575-2.963-3.263-2.513-1.372-14.974-.065-17.776-1.363-1.093-.507-2.801-1.84-3.562-2.8-2.662-3.36-7.624-24.763-8.453-25.649l17.665-.026c4.768-1.241 4.824-5.461 5.838-11.206.446-2.532 1.894-12.139 2.919-13.101.582-.547 1.689-.35 2.411-.33zm-81.796 24.663c-.058-.003-.023-.024 0 0"/></svg>