<svg clip-rule="evenodd" fill-rule="evenodd" stroke-miterlimit="22.926" viewBox="0 0 301 269" xmlns="http://www.w3.org/2000/svg"><path d="m166.454 19.539c41.011 71.093 80.972 144.664 123.505 214.71 6.493 10.694-2.981 26.049-15.017 26.049h-249.209c-12.036 0-21.509-15.355-15.018-26.049 42.529-70.061 82.484-143.613 123.506-214.71 8.411-14.576 23.824-14.58 32.233 0" fill="#fff"/><path d="m166.454 19.539c41.011 71.093 80.972 144.664 123.505 214.71 6.493 10.694-2.981 26.049-15.017 26.049h-249.209c-12.036 0-21.509-15.355-15.018-26.049 42.529-70.061 82.484-143.613 123.506-214.71 8.411-14.576 23.824-14.58 32.233 0z" fill="none" stroke="#000" stroke-width=".75"/><path d="m143.769 236.245h112.71c1.832 0 4.714-3.926 3.573-5.806-5.746-9.465-12.065-20.826-17.645-30.517l-87.683-152.586c-2.803-4.859-5.968-4.86-8.772 0l-99.757 173.524c-1.841 3.186-3.662 6.435-5.571 9.578-1.142 1.881 1.741 5.807 3.572 5.807zm-5.751-214.624-117.106 203.705c-2.141 3.702-4.231 7.435-6.45 11.09-4.661 7.679 2.54 19.391 11.271 19.391h249.209c8.733 0 15.933-11.712 11.271-19.391-2.219-3.655-4.309-7.387-6.449-11.09l-117.107-203.705c-6.555-11.365-18.083-11.362-24.639 0" fill="#d72717"/><path d="m149.595 102.639c4.443-4.937 8.881-9.969 13.064-15.126.803-.989 2.207-2.553 2.576-3.781.141-.474.175-.96.174-1.452l-.016-4.538c-.003-.954-.412-1.616-1.202-2.147-.635-.427-1.812-.434-2.521-.227-1.211.352-1.767 1.279-1.794 2.51l-.057 2.682c-.029 1.318-.444 1.583-1.319 2.584l-8.674 9.918.027-5.273c.012-2.098-2.945-3.413-4.638-2.532-1.332.693-2.005 1.634-2.018 3.138l-.051 5.651-.446-.326c-1.061-.776-2.152-1.518-3.218-2.289-.992-.718-2.162-1.547-3.031-2.404-.327-.322-.611-.625-.465-1.11l1.445-4.793c.444-1.47.337-3.157-1.332-3.73-.953-.328-2.041-.199-2.823.463-.958.811-2.508 6.784-2.936 8.251-.666 2.277-.962 3.005 1.067 4.532l8.281 6.23c.35.264 1.67 1.125 1.771 1.575.022.093.019.183.017.277l-.057 2.425-.31-.037c-2.807-.336-5.616-.805-8.421-1.183-1.85-.249-3.716-.482-5.577-.622-1.145-.086-2.757-.203-3.884.014-2.807.539-4.157 2.889-3.229 5.573.435 1.259 6.317 5.241 7.563 6.101 1.141.788 7.687 5.089 8.089 6.088.327.817-2.021 13.637-2.286 15.136-.549 3.099-1.109 6.197-1.663 9.295-.317 1.769-.68 3.59-.928 5.368l-.054.395-15.836-8.122c-1.275-.654-2.736-.553-3.919.249-1.255.85-1.603 2.407-1.864 3.805l-5.972 31.994c-.219 1.173.012 2.3.815 3.202 2.191 2.463 6.962 1.921 7.65-1.776l4.672-25.141c.303-1.631 1.628-.966 2.684-.443l16.419 8.125c5.176 2.561 7.114-1.694 8.578-1.162.355.129 1.07.63 1.399.842.977.63 1.943 1.276 2.909 1.921 2.811 1.882 5.608 3.786 8.403 5.692 4.117 2.808 8.215 5.646 12.338 8.445 1.664 1.13 3.355 2.226 5.013 3.361.533.366 1.62 1.08 1.943 1.646.415.726.774 1.932 1.037 2.734.471 1.443.914 2.895 1.37 4.342.433 1.377.873 2.759 1.364 4.116.276.764.691 1.94 1.15 2.605.293.425.633.784 1.043 1.096.994.757 2.475 1.31 3.604 1.889 2.239 1.151 4.183 2.595 6.046 4.285 1.902 1.728 2.437 2.719 3.252 5.046 2.527 7.22 5.687 14.218 8.557 21.307.462 1.139 1.295 1.983 2.498 2.306 3.168.851 6.786-2.1 5.444-5.564l-10.024-25.873c-.357-.921-.733-2.27-1.314-3.062-.856-1.163-2.092-2.219-3.182-3.165-1.606-1.391-5.157-4.068-4.341-6.546l.008-.025 7.962-14.728c.87-1.61 2.467-4.367 2.095-6.266-.446-2.267-4.078-4.577-5.838-5.78l-37.692-25.779c-1.002-.685-1.508-2.126-1.842-3.238-.511-1.705-.865-3.474-1.34-5.196l-4.343-15.747 3.984-.274c.992-.069 1.936-.727 2.47-1.545.797-1.22.705-2.67.186-3.981-.872-2.2-6.263-1.726-8.304-1.758l-.623-.01zm-10.171 63.901-8.133-3.169c-1.188 3.032-2.379 6.063-3.559 9.099-.605 1.558-1.265 3.14-1.796 4.724-.301.901-.562 1.836-.55 2.793.023 1.792 1.218 4.502 1.843 6.185l7.007 18.863c1.839 4.952 9.885 1.963 8.046-2.989l-7.007-18.864c-.823-2.213-1.179-3.358-.263-5.639zm42.317 32.451v25.647c0 2.181 1.787 3.968 3.968 3.968h.646c2.181 0 3.969-1.787 3.969-3.968v-20.291c-2.455-2.53-5.238-4.302-8.583-5.356"/></svg>