<svg clip-rule="evenodd" fill-rule="evenodd" stroke-miterlimit="22.926" viewBox="0 0 301 269" xmlns="http://www.w3.org/2000/svg"><path d="m166.454 19.539c41.011 71.093 80.972 144.664 123.505 214.71 6.493 10.694-2.981 26.049-15.017 26.049h-249.209c-12.036 0-21.509-15.355-15.018-26.049 42.529-70.061 82.484-143.613 123.506-214.71 8.411-14.576 23.824-14.58 32.233 0" fill="#fff"/><path d="m166.454 19.539c41.011 71.093 80.972 144.664 123.505 214.71 6.493 10.694-2.981 26.049-15.017 26.049h-249.209c-12.036 0-21.509-15.355-15.018-26.049 42.529-70.061 82.484-143.613 123.506-214.71 8.411-14.576 23.824-14.58 32.233 0z" fill="none" stroke="#000" stroke-width=".75"/><path d="m143.769 236.245h112.71c1.832 0 4.714-3.926 3.573-5.806-5.746-9.465-12.065-20.826-17.645-30.517l-87.683-152.586c-2.803-4.859-5.968-4.86-8.772 0l-99.757 173.524c-1.841 3.186-3.662 6.435-5.571 9.578-1.142 1.881 1.741 5.807 3.572 5.807zm-5.751-214.624-117.106 203.705c-2.141 3.702-4.231 7.435-6.45 11.09-4.661 7.679 2.54 19.391 11.271 19.391h249.209c8.733 0 15.933-11.712 11.271-19.391-2.219-3.655-4.309-7.387-6.449-11.09l-117.107-203.705c-6.555-11.365-18.083-11.362-24.639 0" fill="#d72717"/><path d="m165.296 109.412c2.754 0 4.987 2.233 4.987 4.987 0 2.755-2.233 4.988-4.987 4.988-2.755 0-4.988-2.233-4.988-4.988 0-2.754 2.233-4.987 4.988-4.987m-9.227 36.225c-3.685 0-6.674-2.989-6.674-6.675s2.989-6.675 6.674-6.675c3.687 0 6.676 2.989 6.676 6.675s-2.989 6.675-6.676 6.675m-16.725-1.574c4.183 0 7.575 3.391 7.575 7.574 0 4.184-3.392 7.575-7.575 7.575s-7.575-3.391-7.575-7.575c0-4.183 3.392-7.574 7.575-7.574m-24.112 13.95c3.397 0 6.15 2.753 6.15 6.149 0 3.397-2.753 6.151-6.15 6.151s-6.15-2.754-6.15-6.151c0-3.396 2.753-6.149 6.15-6.149m12.454 18.032c5.76 0 10.43 4.67 10.43 10.431 0 5.76-4.67 10.43-10.43 10.43-5.761 0-10.431-4.67-10.431-10.43 0-5.761 4.67-10.431 10.431-10.431m-32.897 15.23c8.823 0 15.976 7.152 15.976 15.975 0 8.824-7.153 15.976-15.976 15.976s-15.975-7.152-15.975-15.976c0-8.823 7.152-15.975 15.975-15.975m86.317-83.363 70.062 121.352h-145.164c2.021-4.891 4.543-11.633 8.397-15.788 1.588-1.711 8.274-7.607 10.326-8.976 4.135-2.755 8.069-4.072 10.45-7.024 3.07-3.807 4.882-4.656 7.55-9.475 4.282-7.735 7.311-13.577 13.25-20.925 5.021-6.213 4.467-4.756 7.875-12.425 3.971-8.938 3.044-12.923 5.05-20.951.788-3.149 3.52-10.212 5.025-13.35 1.927-4.017 4.962-8.875 7.179-12.438"/></svg>