<svg clip-rule="evenodd" fill-rule="evenodd" stroke-miterlimit="22.926" viewBox="0 0 301 269" xmlns="http://www.w3.org/2000/svg"><path d="m166.454 19.539c41.011 71.093 80.972 144.664 123.505 214.71 6.493 10.694-2.981 26.049-15.017 26.049h-249.209c-12.036 0-21.509-15.355-15.018-26.049 42.529-70.061 82.484-143.613 123.506-214.71 8.411-14.576 23.824-14.58 32.233 0" fill="#fff"/><path d="m166.454 19.539c41.011 71.093 80.972 144.664 123.505 214.71 6.493 10.694-2.981 26.049-15.017 26.049h-249.209c-12.036 0-21.509-15.355-15.018-26.049 42.529-70.061 82.484-143.613 123.506-214.71 8.411-14.576 23.824-14.58 32.233 0z" fill="none" stroke="#000" stroke-width=".75"/><path d="m143.769 236.245h112.71c1.832 0 4.714-3.926 3.573-5.806-5.746-9.465-12.065-20.826-17.645-30.517l-87.683-152.586c-2.803-4.859-5.968-4.86-8.772 0l-99.757 173.524c-1.841 3.186-3.662 6.435-5.571 9.578-1.142 1.881 1.741 5.807 3.572 5.807zm-5.751-214.624-117.106 203.705c-2.141 3.702-4.231 7.435-6.45 11.09-4.661 7.679 2.54 19.391 11.271 19.391h249.209c8.733 0 15.933-11.712 11.271-19.391-2.219-3.655-4.309-7.387-6.449-11.09l-117.107-203.705c-6.555-11.365-18.083-11.362-24.639 0" fill="#d72717"/><path d="m113.453 228.898h11.186v-47.017h84.739c10.431 0 12.726-14.586 3.011-17.903l-81.859-27.947c-1.979-.743-3.963-1.335-5.891-1.75v-7.622c0-7.164-11.186-7.164-11.186 0v7.454c-10.901 2.332-19.076 12.019-19.076 23.616 0 11.598 8.175 21.284 19.076 23.616zm65.569-74.769 10.533 3.61c-10.798 4.271-12.049 16.247-2.565 23.008h-11.754c-.24 0-.931-.241-1.231-.355-5.39-2.044-8.885-6.734-8.885-12.738 0-6.119 4.008-11.303 9.541-13.069 1.808-.512 4.361-.456 4.361-.456m-58.286 25.184c-13.23.239-23.45-9.479-23.45-21.469 0-11.708 9.957-21.592 21.799-21.17 8.415.301 10.806 1.904 15.239 3.543-22.521-1.342-32.119 24.551-13.588 39.096m88.408-14.729c4.463 0 8.081 3.618 8.081 8.082 0 4.462-3.618 8.081-8.081 8.081s-8.082-3.619-8.082-8.081c0-4.464 3.619-8.082 8.082-8.082m-63.376 16.163c-8.523-1.607-15.005-9.182-15.005-18.171 0-10.102 8.141-18.302 18.22-18.399.059 0 .811-.001.871-.001l8.872 2.852c-9.127 0-16.045 9.148-16.045 17.428 0 8.279 5.67 14.207 12.421 16.291z"/></svg>