<svg clip-rule="evenodd" fill-rule="evenodd" stroke-miterlimit="22.926" viewBox="0 0 297 317" xmlns="http://www.w3.org/2000/svg"><path d="m148.432 68.043 106.551-61.537 35.182 9.594-9.641 35.281-80.799 46.638 80.799 46.638 9.641 35.282-35.182 9.593-106.551-61.537-106.552 61.537-35.18-9.593 9.64-35.282 80.799-46.638-80.799-46.638-9.64-35.281 35.18-9.594z" fill="#fff" stroke="#000" stroke-width=".57"/><path d="m40.055 20.601-17.241 4.702 4.758 17.414 95.809 55.302-95.809 55.302-4.758 17.414 17.241 4.701 108.377-62.591 108.377 62.591 17.241-4.701-4.758-17.414-95.809-55.302 95.809-55.302 4.758-17.414-17.241-4.702-108.377 62.592-108.377-62.592zm108.377 49.858 106.842-61.705 32.321 8.813-8.862 32.432-83.193 48.02 83.193 48.02 8.862 32.432-32.321 8.813-106.842-61.705-106.843 61.705-32.32-8.813 8.862-32.432 83.193-48.02-83.193-48.02-8.862-32.432 32.32-8.813z" fill="#d72717"/><path d="m148.308 248.762-106.634 61.395-35.168-9.641 9.688-35.269 132.114-76.121 132.115 76.121 9.686 35.269-35.166 9.641z" fill="#fff" stroke="#000" stroke-width=".57"/><path d="m148.308 246.348-106.923 61.561-32.307-8.857 8.905-32.42 83.257-47.909 47.068-27.186 47.068 27.186 83.256 47.909 8.906 32.42-32.308 8.857zm0-42.102-.003-.002zm0 0 .003-.002zm.003-.002 25.007 14.509 95.885 55.174 4.781 17.407-17.235 4.725-108.441-62.435zm-.006 0-25.008 14.509-95.883 55.174-4.781 17.407 17.234 4.725 108.441-62.435z" fill="#d72717"/></svg>