<svg clip-rule="evenodd" fill-rule="evenodd" stroke-miterlimit="22.926" viewBox="0 0 297 197" xmlns="http://www.w3.org/2000/svg"><path d="m148.238 68.043 106.553-61.537 35.179 9.594-9.64 35.28-80.799 46.639 80.799 46.637 9.64 35.282-35.179 9.593-106.553-61.537-106.552 61.537-35.18-9.593 9.64-35.282 80.799-46.637-80.799-46.639-9.64-35.28 35.18-9.594z" fill="#fff" stroke="#000" stroke-width=".57"/><path d="m39.861 20.601-17.241 4.702 4.759 17.413 95.809 55.302-95.809 55.302-4.759 17.414 17.241 4.703 108.377-62.591 108.377 62.591 17.24-4.703-4.758-17.414-95.808-55.302 95.808-55.302 4.758-17.413-17.24-4.702-108.377 62.592zm108.377 49.858 106.844-61.706 32.318 8.814-8.861 32.432-83.194 48.019 83.194 48.021 8.861 32.432-32.318 8.812-106.844-61.705-106.843 61.705-32.319-8.812 8.862-32.432 83.192-48.021-83.192-48.019-8.862-32.432 32.319-8.814z" fill="#d72717"/></svg>