<svg clip-rule="evenodd" fill-rule="evenodd" stroke-miterlimit="22.926" viewBox="0 0 301 269" xmlns="http://www.w3.org/2000/svg"><path d="m166.454 19.539c41.011 71.093 80.972 144.664 123.505 214.71 6.493 10.694-2.981 26.049-15.017 26.049h-249.209c-12.036 0-21.509-15.355-15.018-26.049 42.529-70.061 82.484-143.613 123.506-214.71 8.411-14.576 23.824-14.58 32.233 0" fill="#fff"/><path d="m166.454 19.539c41.011 71.093 80.972 144.664 123.505 214.71 6.493 10.694-2.981 26.049-15.017 26.049h-249.209c-12.036 0-21.509-15.355-15.018-26.049 42.529-70.061 82.484-143.613 123.506-214.71 8.411-14.576 23.824-14.58 32.233 0z" fill="none" stroke="#000" stroke-width=".75"/><path d="m143.769 236.245h112.71c1.832 0 4.714-3.926 3.573-5.806-5.746-9.465-12.065-20.826-17.645-30.517l-87.683-152.586c-2.803-4.859-5.968-4.86-8.772 0l-99.757 173.524c-1.841 3.186-3.662 6.435-5.571 9.578-1.142 1.881 1.741 5.807 3.572 5.807zm-5.751-214.624-117.106 203.705c-2.141 3.702-4.231 7.435-6.45 11.09-4.661 7.679 2.54 19.391 11.271 19.391h249.209c8.733 0 15.933-11.712 11.271-19.391-2.219-3.655-4.309-7.387-6.449-11.09l-117.107-203.705c-6.555-11.365-18.083-11.362-24.639 0" fill="#d72717"/><path d="m167.415 84.306-13.661-7.526-.075 69.932c-.002 2.158.092 4.406-.101 6.55-.128 1.417-.431 3.329-1.645 4.249-2.157 1.634-6.206-.724-8.077-1.854l-15.383-9.312c-5.445-3.295-4.464-2.112-5.243-8.369l-1.808-14.517-10.134-7.964-.459 27.888-24.64 13.069 11.698 5.414 13.755-4.98c5.928-2.146 4.429-2.483 9.837.872l15.28 9.481c1.858 1.152 5.796 3.69 5.319 6.353-.268 1.5-1.834 2.638-3.038 3.395-1.824 1.146-3.87 2.082-5.791 3.063l-62.275 31.816 12.907 8.754 85.928-29.389c3.679-1.259 3.804-1.149 7.043.862l43.792 27.191c3.422 2.126 7.991 1.001 10.089-2.424 2.099-3.425 1.027-8.005-2.421-10.091l-44.108-26.674c-3.262-1.973-3.417-2.033-3.966-5.884z"/></svg>