<svg clip-rule="evenodd" fill-rule="evenodd" stroke-miterlimit="22.926" viewBox="0 0 301 269" xmlns="http://www.w3.org/2000/svg"><path d="m166.454 19.539c41.011 71.093 80.972 144.664 123.505 214.71 6.493 10.694-2.981 26.049-15.017 26.049h-249.209c-12.036 0-21.509-15.355-15.018-26.049 42.529-70.061 82.484-143.613 123.506-214.71 8.411-14.576 23.824-14.58 32.233 0" fill="#fff"/><path d="m166.454 19.539c41.011 71.093 80.972 144.664 123.505 214.71 6.493 10.694-2.981 26.049-15.017 26.049h-249.209c-12.036 0-21.509-15.355-15.018-26.049 42.529-70.061 82.484-143.613 123.506-214.71 8.411-14.576 23.824-14.58 32.233 0z" fill="none" stroke="#000" stroke-width=".75"/><path d="m143.769 236.245h112.71c1.832 0 4.714-3.926 3.573-5.806-5.746-9.465-12.065-20.826-17.645-30.517l-87.683-152.586c-2.803-4.859-5.968-4.86-8.772 0l-99.757 173.524c-1.841 3.186-3.662 6.435-5.571 9.578-1.142 1.881 1.741 5.807 3.572 5.807zm-5.751-214.624-117.106 203.705c-2.141 3.702-4.231 7.435-6.45 11.09-4.661 7.679 2.54 19.391 11.271 19.391h249.209c8.733 0 15.933-11.712 11.271-19.391-2.219-3.655-4.309-7.387-6.449-11.09l-117.107-203.705c-6.555-11.365-18.083-11.362-24.639 0" fill="#d72717"/><path d="m139.173 202.815.006-8.037-12.432-.009-.006 8.036c-.002 3.475 2.778 6.293 6.212 6.295 3.433.002 6.218-2.811 6.22-6.285m-27.682-20.669.006-7.185-11.114-.007-.004 7.183c-.002 3.106 2.483 5.625 5.552 5.627s5.558-2.513 5.56-5.618m35.936-33.423h-10.827c-2.084 0-3.291 1.55-4.081 3.455h-28.015l3.971-11.644c.584-1.711 1.52-3.277 3.375-3.277h29.408c1.856 0 2.792 1.566 3.375 3.277zm31.465 15.282h-15.131c-2.677 0-4.027 2.355-4.869 4.927l-.117.357h-27.419l4.443-13.028c.653-1.913 1.7-3.665 3.776-3.665h32.9c2.076 0 3.123 1.752 3.776 3.665zm-27.402-15.282-3.58-10.902c-.69-2.101-1.797-4.026-3.992-4.026h-34.727c-2.195 0-3.302 1.925-3.992 4.026l-4.737 14.429c-2.232.397-3.941 2.374-3.943 4.733l-.009 12.136c-.001 2.646 2.143 4.812 4.768 4.814l21.193.016c-.031.234-.048.472-.048.715l-.009 13.577c-.002 2.961 2.397 5.384 5.333 5.386l20.555.015-.009 13.598c-.002 3.238 2.614 5.89 5.816 5.892l30.834.023 30.835-.023c3.201-.002 5.818-2.653 5.816-5.892l-.01-14.854c-.002-2.888-2.087-5.307-4.81-5.795l-5.779-17.659c-.842-2.572-2.192-4.927-4.869-4.927h-22.67l-3.539-10.779c-.773-2.35-2.011-4.503-4.466-4.503zm15.058 74.362.006-8.754-13.542-.01-.006 8.754c-.002 3.783 3.026 6.853 6.766 6.856 3.739.002 6.773-3.062 6.776-6.846m36.792 0-.007-8.754 13.542-.01.006 8.754c.002 3.783-3.026 6.853-6.766 6.856-3.739.002-6.773-3.062-6.775-6.846m-18.397-54.842h17.938c2.264 0 3.405 1.917 4.117 4.009l4.845 14.252h-53.799l4.845-14.252c.711-2.092 1.853-4.009 4.117-4.009z"/></svg>