<svg clip-rule="evenodd" fill-rule="evenodd" stroke-miterlimit="22.926" viewBox="0 0 155 297" xmlns="http://www.w3.org/2000/svg"><path d="m130.442 6.506h-106.14c-9.787 0-17.796 8.008-17.796 17.797v247.87c0 9.789 8.009 17.798 17.796 17.798h106.14c9.788 0 17.797-8.009 17.797-17.798v-247.87c0-9.789-8.009-17.797-17.797-17.797z" fill="#fff" stroke="#000" stroke-width=".57"/><path d="m130.442 14.96h-106.14c-5.138 0-9.343 4.204-9.343 9.343v247.871c0 5.139 4.205 9.343 9.343 9.343h106.14c5.139 0 9.343-4.204 9.343-9.343v-247.871c0-5.139-4.204-9.343-9.343-9.343m0-4.449h-106.14c-7.585 0-13.792 6.206-13.792 13.792v247.871c0 7.586 6.207 13.792 13.792 13.792h106.14c7.586 0 13.792-6.206 13.792-13.792v-247.871c0-7.586-6.206-13.792-13.792-13.792"/><path d="m14.959 155.385 124.834 71.396v-29.606l-124.834-71.395zm0-56.083 124.834 71.396v-29.606l-124.834-71.395z" fill="#d72717"/></svg>