<svg clip-rule="evenodd" fill-rule="evenodd" stroke-miterlimit="22.926" viewBox="0 0 301 269" xmlns="http://www.w3.org/2000/svg"><path d="m166.454 19.539c41.011 71.093 80.972 144.664 123.505 214.709 6.492 10.694-2.982 26.049-15.017 26.049h-249.209c-12.036 0-21.509-15.355-15.018-26.049 42.529-70.061 82.484-143.612 123.506-214.709 8.411-14.576 23.824-14.58 32.233 0" fill="#fff"/><path d="m166.454 19.539c41.011 71.093 80.972 144.664 123.505 214.709 6.492 10.694-2.982 26.049-15.017 26.049h-249.209c-12.036 0-21.509-15.355-15.018-26.049 42.529-70.061 82.484-143.612 123.506-214.709 8.411-14.576 23.824-14.58 32.233 0z" fill="none" stroke="#000" stroke-width=".75"/><path d="m143.768 236.352h112.71c1.832 0 4.714-3.925 3.573-5.806-5.747-9.464-12.064-20.825-17.644-30.516l-87.684-152.586c-2.804-4.859-5.968-4.86-8.772 0l-99.757 173.524c-1.841 3.186-3.662 6.434-5.571 9.577-1.141 1.881 1.741 5.807 3.573 5.807zm-5.75-214.623-117.107 203.704c-2.14 3.702-4.23 7.435-6.45 11.091-4.661 7.678 2.54 19.391 11.272 19.391h249.209c8.731 0 15.932-11.712 11.27-19.391-2.219-3.656-4.309-7.388-6.449-11.091l-117.106-203.704c-6.555-11.365-18.084-11.362-24.639 0" fill="#d72717"/><path d="m141.117 164.795h18.478c1.977 0 3.593 1.616 3.593 3.592v12.228c0 1.976-1.616 3.593-3.593 3.593h-18.478c-1.976 0-3.593-1.617-3.593-3.593v-12.228c0-1.976 1.617-3.592 3.593-3.592m28.427 0h18.479c1.975 0 3.593 1.616 3.593 3.592v12.228c0 1.976-1.618 3.593-3.593 3.593h-18.479c-1.976 0-3.593-1.617-3.593-3.593v-12.228c0-1.976 1.617-3.592 3.593-3.592m-56.854 0h18.478c1.976 0 3.593 1.616 3.593 3.592v12.228c0 1.976-1.617 3.593-3.593 3.593h-18.478c-1.976 0-3.593-1.617-3.593-3.593v-12.228c0-1.976 1.617-3.592 3.593-3.592m-17.314 0h7.365c1.976 0 3.593 1.617 3.593 3.592v12.228c0 1.976-1.617 3.593-3.593 3.593h-14.091c-4.096 0-4.215-3.367-2.827-5.717l5.961-10.104c1.004-1.701 1.617-3.592 3.592-3.592m109.96 0h-7.365c-1.976 0-3.593 1.617-3.593 3.592v12.228c0 1.976 1.617 3.593 3.593 3.593h14.092c4.095 0 4.214-3.367 2.827-5.717l-5.962-10.104c-1.004-1.701-1.616-3.592-3.592-3.592m-106.984-4.877h103.972c4.806 0 6.846 2.733 8.649 6.161 1.318 2.509 2.694 4.817 4.057 7.189 1.316 2.296 2.617 4.659 4.02 7.016 1.843 3.092 2.154 4.763 2.154 8.221v13.968c0 6.252-5.116 11.368-11.369 11.368h-3.488c0-5.708-4.627-10.335-10.335-10.335h-91.348c-5.708 0-10.336 4.627-10.336 10.335h-3.488c-6.253 0-11.369-5.116-11.369-11.368v-13.968c0-3.458.312-5.129 2.154-8.221 1.404-2.357 2.704-4.72 4.021-7.016 1.362-2.372 2.739-4.68 4.057-7.189 1.802-3.428 3.843-6.161 8.649-6.161m49.745 54.697h20.611c-.438-5.298 3.216-9.287 5.948-10.087l-11.184-.002v-.002l-9.844.001-9.844-.001v.002l-17.764.002c2.731.8 6.386 4.789 5.947 10.087zm-35.074 1.554c-.968 3.74-4.365 6.503-8.408 6.503-4.797 0-8.685-3.889-8.685-8.685s3.888-8.685 8.685-8.685c4.043 0 7.44 2.763 8.408 6.504.968-3.741 4.365-6.504 8.408-6.504 4.797 0 8.685 3.889 8.685 8.685s-3.888 8.685-8.685 8.685c-4.043 0-7.44-2.763-8.408-6.503m74.555 0c-.967 3.74-4.365 6.503-8.408 6.503-4.796 0-8.683-3.889-8.683-8.685s3.887-8.685 8.683-8.685c4.043 0 7.441 2.763 8.408 6.504.968-3.741 4.367-6.504 8.41-6.504 4.796 0 8.683 3.889 8.683 8.685s-3.887 8.685-8.683 8.685c-4.043 0-7.442-2.763-8.41-6.503m-50.201-59.232h25.921l9.605-11.412-21.309-19.446.003-6.319h-1.259-1.259l.002 6.319-21.308 19.446zm12.961-3.035h-11.337l-6.985-8.297 18.322-16.669v.001-.001l18.321 16.669-6.984 8.297z"/></svg>