<svg clip-rule="evenodd" fill-rule="evenodd" stroke-miterlimit="22.926" viewBox="0 0 301 269" xmlns="http://www.w3.org/2000/svg"><path d="m166.454 19.539c41.011 71.093 80.972 144.664 123.505 214.709 6.492 10.694-2.982 26.049-15.017 26.049h-249.209c-12.036 0-21.509-15.355-15.018-26.049 42.529-70.061 82.484-143.612 123.506-214.709 8.411-14.576 23.824-14.58 32.233 0" fill="#fff"/><path d="m166.454 19.539c41.011 71.093 80.972 144.664 123.505 214.709 6.492 10.694-2.982 26.049-15.017 26.049h-249.209c-12.036 0-21.509-15.355-15.018-26.049 42.529-70.061 82.484-143.612 123.506-214.709 8.411-14.576 23.824-14.58 32.233 0z" fill="none" stroke="#000" stroke-width=".75"/><path d="m143.768 236.352h112.71c1.832 0 4.714-3.925 3.573-5.806-5.747-9.464-12.064-20.825-17.644-30.516l-87.684-152.586c-2.804-4.859-5.968-4.86-8.772 0l-99.757 173.524c-1.841 3.186-3.662 6.434-5.571 9.577-1.141 1.881 1.741 5.807 3.573 5.807zm-5.75-214.623-117.107 203.704c-2.14 3.702-4.23 7.435-6.45 11.091-4.661 7.678 2.54 19.391 11.272 19.391h249.209c8.731 0 15.932-11.712 11.27-19.391-2.219-3.656-4.309-7.388-6.449-11.091l-117.106-203.704c-6.555-11.365-18.084-11.362-24.639 0" fill="#d72717"/><path d="m185.459 126.548-35.122 35.122-35.121-35.122-15.902 15.902 35.122 35.122-35.122 35.122 15.902 15.901 35.121-35.121 35.122 35.121 15.902-15.902-35.122-35.121 35.122-35.122z"/></svg>