<svg clip-rule="evenodd" fill-rule="evenodd" stroke-miterlimit="22.926" viewBox="0 0 301 269" xmlns="http://www.w3.org/2000/svg"><path d="m166.454 19.539c41.011 71.093 80.972 144.664 123.505 214.71 6.493 10.694-2.981 26.049-15.017 26.049h-249.209c-12.036 0-21.509-15.355-15.018-26.049 42.529-70.061 82.484-143.613 123.506-214.71 8.411-14.576 23.824-14.58 32.233 0" fill="#fff"/><path d="m166.454 19.539c41.011 71.093 80.972 144.664 123.505 214.71 6.493 10.694-2.981 26.049-15.017 26.049h-249.209c-12.036 0-21.509-15.355-15.018-26.049 42.529-70.061 82.484-143.613 123.506-214.71 8.411-14.576 23.824-14.58 32.233 0z" fill="none" stroke="#000" stroke-width=".75"/><path d="m143.769 236.353h112.71c1.832 0 4.714-3.925 3.573-5.806-5.746-9.464-12.065-20.825-17.645-30.516l-87.683-152.587c-2.803-4.859-5.968-4.86-8.772.001l-99.757 173.524c-1.841 3.186-3.662 6.434-5.571 9.577-1.142 1.881 1.741 5.807 3.572 5.807zm-5.751-214.624-117.106 203.705c-2.141 3.702-4.231 7.435-6.45 11.091-4.661 7.678 2.54 19.391 11.271 19.391h249.209c8.733 0 15.933-11.712 11.271-19.391-2.219-3.656-4.309-7.388-6.449-11.091l-117.107-203.705c-6.555-11.365-18.083-11.362-24.639 0" fill="#d72717"/><path d="m197.86 198.268c-8.529 14.773-22.951 24.023-38.582 26.5l-2.933-15.512c11.567-1.686 22.203-8.582 28.252-19.594l-15.999.001 24.615-42.634 24.614 42.633-15.948.001c-1.07 2.93-2.406 5.809-4.019 8.605m-47.478-81.869c17.059 0 32.28 7.864 42.241 20.163l-11.967 10.296c-7.24-9.169-18.538-14.942-31.095-14.67l7.999 13.855h-49.229l24.615-42.633 7.974 13.812c3.073-.54 6.234-.823 9.462-.823m-47.159 82.23c-8.53-14.774-9.329-31.887-3.658-46.663l14.899 5.216c-4.213 10.585-3.715 22.926 2.423 33.558.138.238.279.473.421.707l7.999-13.857 24.615 42.634h-49.229l7.974-13.812c-2.004-2.391-3.829-4.988-5.444-7.783"/></svg>