<svg clip-rule="evenodd" fill-rule="evenodd" stroke-miterlimit="22.926" viewBox="0 0 301 269" xmlns="http://www.w3.org/2000/svg"><path d="m166.454 19.539c41.011 71.093 80.972 144.664 123.505 214.71 6.493 10.694-2.981 26.049-15.017 26.049h-249.209c-12.036 0-21.509-15.355-15.018-26.049 42.529-70.061 82.484-143.613 123.506-214.71 8.411-14.576 23.824-14.58 32.233 0" fill="#fff"/><path d="m166.454 19.539c41.011 71.093 80.972 144.664 123.505 214.71 6.493 10.694-2.981 26.049-15.017 26.049h-249.209c-12.036 0-21.509-15.355-15.018-26.049 42.529-70.061 82.484-143.613 123.506-214.71 8.411-14.576 23.824-14.58 32.233 0z" fill="none" stroke="#000" stroke-width=".75"/><path d="m143.769 236.353h112.71c1.832 0 4.714-3.925 3.573-5.806-5.746-9.464-12.065-20.825-17.645-30.516l-87.683-152.587c-2.803-4.859-5.968-4.86-8.772.001l-99.757 173.524c-1.841 3.186-3.662 6.434-5.571 9.577-1.142 1.881 1.741 5.807 3.572 5.807zm-5.751-214.624-117.106 203.705c-2.141 3.702-4.231 7.435-6.45 11.091-4.661 7.678 2.54 19.391 11.271 19.391h249.209c8.733 0 15.933-11.712 11.271-19.391-2.219-3.656-4.309-7.388-6.449-11.091l-117.107-203.705c-6.555-11.365-18.083-11.362-24.639 0" fill="#d72717"/><path d="m150.338 91.225c10.921 0 19.774 8.854 19.774 19.775s-8.853 19.775-19.774 19.775-19.775-8.854-19.775-19.775 8.854-19.775 19.775-19.775m0 46.726c10.921 0 19.774 8.853 19.774 19.775 0 10.921-8.853 19.774-19.774 19.774s-19.775-8.853-19.775-19.774c0-10.922 8.854-19.775 19.775-19.775m0 46.725c10.921 0 19.774 8.854 19.774 19.775s-8.853 19.775-19.774 19.775-19.775-8.854-19.775-19.775 8.854-19.775 19.775-19.775m0-96.326c12.509 0 22.65 10.141 22.65 22.65 0 12.51-10.141 22.65-22.65 22.65s-22.65-10.14-22.65-22.65c0-12.509 10.141-22.65 22.65-22.65m0 46.725c12.509 0 22.65 10.141 22.65 22.651 0 12.509-10.141 22.65-22.65 22.65s-22.65-10.141-22.65-22.65c0-12.51 10.141-22.651 22.65-22.651m0 46.726c12.509 0 22.65 10.141 22.65 22.65s-10.141 22.65-22.65 22.65-22.65-10.141-22.65-22.65 10.141-22.65 22.65-22.65"/><path d="m150.338 91.225c10.921 0 19.774 8.854 19.774 19.775s-8.853 19.775-19.774 19.775-19.775-8.854-19.775-19.775 8.854-19.775 19.775-19.775" fill="#d72717"/><path d="m150.338 137.951c10.921 0 19.774 8.854 19.774 19.775s-8.853 19.775-19.774 19.775-19.775-8.854-19.775-19.775 8.854-19.775 19.775-19.775" fill="#f8f100"/><path d="m150.338 184.676c10.921 0 19.774 8.854 19.774 19.774 0 10.922-8.853 19.776-19.774 19.776s-19.775-8.854-19.775-19.776c0-10.92 8.854-19.774 19.775-19.774" fill="#008d21"/></svg>