<svg clip-rule="evenodd" fill-rule="evenodd" stroke-miterlimit="22.926" viewBox="0 0 301 269" xmlns="http://www.w3.org/2000/svg"><path d="m166.454 19.539c41.011 71.093 80.972 144.664 123.505 214.71 6.493 10.694-2.981 26.049-15.017 26.049h-249.209c-12.036 0-21.509-15.355-15.018-26.049 42.529-70.061 82.484-143.613 123.506-214.71 8.411-14.576 23.824-14.58 32.233 0" fill="#fff"/><path d="m166.454 19.539c41.011 71.093 80.972 144.664 123.505 214.71 6.493 10.694-2.981 26.049-15.017 26.049h-249.209c-12.036 0-21.509-15.355-15.018-26.049 42.529-70.061 82.484-143.613 123.506-214.71 8.411-14.576 23.824-14.58 32.233 0z" fill="none" stroke="#000" stroke-width=".75"/><path d="m143.769 236.353h112.71c1.832 0 4.714-3.925 3.573-5.806-5.746-9.464-12.065-20.825-17.645-30.516l-87.683-152.587c-2.803-4.859-5.968-4.86-8.772.001l-99.757 173.524c-1.841 3.186-3.662 6.434-5.571 9.577-1.142 1.881 1.741 5.807 3.572 5.807zm-5.751-214.624-117.106 203.705c-2.141 3.702-4.231 7.435-6.45 11.091-4.661 7.678 2.54 19.391 11.271 19.391h249.209c8.733 0 15.933-11.712 11.271-19.391-2.219-3.656-4.309-7.388-6.449-11.091l-117.107-203.705c-6.555-11.365-18.083-11.362-24.639 0" fill="#d72717"/><path d="m103.55 216.912v5.461c3.009-.99 5.95-1.954 8.959-1.954 6.176 0 12.351 3.974 18.526 3.974 6.434 0 12.869-3.974 19.303-3.974 6.441 0 12.882 3.974 19.322 3.974 6.1 0 12.201-3.974 18.3-3.974 3.058 0 6.108 1.016 9.165 2.021v-5.461c-3.057-1.005-6.107-2.021-9.165-2.021-6.099 0-12.2 3.975-18.3 3.975-6.44 0-12.881-3.975-19.322-3.975-6.434 0-12.869 3.975-19.303 3.975-6.175 0-12.35-3.975-18.526-3.975-3.009 0-5.95.964-8.959 1.954m0-10.922v5.461c3.009-.99 5.95-1.954 8.959-1.954 6.176 0 12.351 3.975 18.526 3.975 6.434 0 12.869-3.975 19.303-3.975 6.441 0 12.882 3.975 19.322 3.975 6.1 0 12.201-3.975 18.3-3.975 3.058 0 6.108 1.017 9.165 2.021v-5.46c-3.057-1.005-6.107-2.022-9.165-2.022-6.099 0-12.2 3.975-18.3 3.975-6.44 0-12.881-3.975-19.322-3.975-6.434 0-12.869 3.975-19.303 3.975-6.175 0-12.35-3.975-18.526-3.975-3.009 0-5.95.964-8.959 1.954m-11.472-56.773h11.05l62.032-62.033 10.775 10.774-62.577 62.578-9.808-9.808v49.801c3.009-.99 5.95-1.954 8.959-1.954 6.176 0 12.351 3.975 18.526 3.975 6.434 0 12.869-3.975 19.303-3.975 6.441 0 12.882 3.975 19.322 3.975 6.1 0 12.201-3.975 18.3-3.975 3.058 0 6.108 1.017 9.165 2.022v-51.38h11.473l46.125 79.538h-57.598v-.854c-3.057-1.005-6.107-2.021-9.165-2.021-6.099 0-12.2 3.974-18.3 3.974-6.44 0-12.881-3.974-19.322-3.974-6.434 0-12.869 3.974-19.303 3.974-6.175 0-12.35-3.974-18.526-3.974-3.009 0-5.95.964-8.959 1.954v.921h-57.598z"/></svg>