<svg clip-rule="evenodd" fill-rule="evenodd" stroke-miterlimit="22.926" viewBox="0 0 297 297" xmlns="http://www.w3.org/2000/svg"><path d="m157.614 10.373 128.488 128.489c5.157 5.157 5.157 13.594 0 18.752l-128.488 128.488c-5.158 5.157-13.596 5.157-18.753 0l-128.488-128.488c-5.157-5.158-5.157-13.595 0-18.752l128.488-128.489c5.157-5.157 13.595-5.157 18.753 0z" fill="#fff" stroke="#000" stroke-width=".57"/><path d="m156.511 13.552 126.414 126.413c4.549 4.551 4.549 11.996 0 16.546l-126.414 126.415c-4.551 4.548-11.996 4.548-16.546 0l-126.414-126.415c-4.55-4.55-4.55-11.995 0-16.546l126.414-126.413c4.55-4.551 11.995-4.551 16.546 0m-2.207 2.555 126.066 126.065c3.336 3.337 3.336 8.797 0 12.132l-126.066 126.067c-3.336 3.336-8.796 3.336-12.133 0l-126.065-126.067c-3.337-3.335-3.337-8.795 0-12.132l126.065-126.065c3.337-3.337 8.797-3.337 12.133 0"/><path d="m157.062 66.932 72.48 72.481c4.854 4.853 4.854 12.795 0 17.648l-72.48 72.481c-4.854 4.855-12.795 4.855-17.649 0l-72.48-72.481c-4.854-4.853-4.854-12.795 0-17.648l72.481-72.481c4.853-4.854 12.794-4.854 17.648 0m1.438-2.712 73.755 73.756c5.645 5.644 5.645 14.878 0 20.523l-73.755 73.756c-5.645 5.644-14.879 5.644-20.523 0l-73.757-73.756c-5.643-5.645-5.643-14.879 0-20.523l73.757-73.756c5.644-5.644 14.878-5.644 20.523 0"/><path d="m157.062 66.932 72.48 72.481c4.854 4.853 4.854 12.795 0 17.648l-72.48 72.481c-4.854 4.855-12.795 4.855-17.649 0l-72.48-72.481c-4.854-4.853-4.854-12.795 0-17.648l72.481-72.481c4.853-4.854 12.794-4.854 17.648 0" fill="#f8f100"/></svg>