<svg clip-rule="evenodd" fill-rule="evenodd" stroke-miterlimit="22.926" viewBox="0 0 297 297" xmlns="http://www.w3.org/2000/svg"><path d="m157.614 10.373 128.488 128.489c5.157 5.157 5.157 13.594 0 18.752l-128.488 128.488c-5.158 5.157-13.596 5.157-18.753 0l-128.488-128.488c-5.157-5.158-5.157-13.595 0-18.752l128.488-128.489c5.157-5.157 13.595-5.157 18.753 0z" fill="#fff" stroke="#000" stroke-width=".57"/><path d="m156.511 13.552 126.414 126.413c4.549 4.551 4.549 11.996 0 16.546l-126.414 126.415c-4.551 4.548-11.996 4.548-16.546 0l-126.414-126.415c-4.55-4.55-4.55-11.995 0-16.546l126.414-126.413c4.55-4.551 11.995-4.551 16.546 0m-61.238 176-2.007-2.007-21.96 21.961 2.007 2.005zm4.627 4.625-2.007-2.005-21.96 21.961 2.006 2.005zm4.626 4.627-2.006-2.005-21.961 21.961 2.007 2.005zm4.627 4.627-2.007-2.005-21.96 21.96 2.007 2.006zm96.899-91.657 26.203 26.203c5.645 5.644 5.643 14.878 0 20.523l-73.756 73.756c-5.644 5.644-14.879 5.644-20.522 0l-26.204-26.204-21.96 21.961 52.358 52.358c3.337 3.336 8.797 3.336 12.133 0l126.066-126.067c3.336-3.335 3.336-8.795 0-12.132l-52.359-52.358zm-4.627-4.627 2.006 2.007 21.961-21.96-2.008-2.007zm-4.627-4.627 2.006 2.007 21.961-21.96-2.008-2.007zm-4.627-4.627 2.006 2.007 21.961-21.96-2.006-2.007zm-4.627-4.626 2.008 2.007 21.959-21.961-2.006-2.006zm16.434 20.581 25.564 25.566c4.854 4.853 4.854 12.795.002 17.648l-72.482 72.481c-4.854 4.855-12.795 4.855-17.649 0l-25.566-25.565zm-4.627-4.627 2.006 2.007-90.13 90.129-2.007-2.006zm-4.627-4.627 2.006 2.007-90.13 90.129-2.006-2.006zm-4.627-4.626 2.006 2.006-90.129 90.129-2.007-2.006zm-4.627-4.627 2.008 2.006-90.131 90.131-2.007-2.008zm-28.408-28.408 25.789 25.788-90.131 90.13-25.788-25.789c-4.854-4.853-4.854-12.795 0-17.648l72.481-72.481c4.854-4.854 12.795-4.854 17.649 0m-2.758-50.826 52.58 52.579-21.959 21.961-26.428-26.426c-5.642-5.644-14.877-5.644-20.52 0l-73.757 73.756c-5.644 5.644-5.643 14.878 0 20.523l26.426 26.426-21.96 21.959-52.58-52.581c-3.337-3.335-3.337-8.795 0-12.132l126.065-126.065c3.337-3.337 8.797-3.337 12.133 0"/><path d="m203.978 113.848 25.564 25.566c4.854 4.854 4.854 12.795.002 17.648l-72.482 72.483c-4.854 4.853-12.795 4.853-17.648 0l-25.566-25.567zm-4.627-4.626 2.006 2.006-90.129 90.129-2.007-2.006zm-4.627-4.627 2.006 2.006-90.129 90.129-2.007-2.006zm-4.627-4.627 2.006 2.006-90.129 90.131-2.007-2.007zm-4.627-4.627 2.008 2.007-90.131 90.13-2.007-2.007zm-28.408-28.408 25.789 25.788-90.13 90.13-25.789-25.789c-4.853-4.853-4.853-12.794.001-17.648l72.481-72.481c4.853-4.854 12.794-4.854 17.648 0" fill="#f8f100"/></svg>