<svg clip-rule="evenodd" fill-rule="evenodd" stroke-miterlimit="22.926" viewBox="0 0 301 269" xmlns="http://www.w3.org/2000/svg"><path d="m166.453 19.539c41.012 71.093 80.973 144.663 123.506 214.709 6.492 10.694-2.983 26.049-15.018 26.049h-249.209c-12.035 0-21.508-15.355-15.017-26.049 42.529-70.061 82.484-143.612 123.506-214.709 8.41-14.576 23.824-14.58 32.232 0z" fill="#fff" stroke="#000" stroke-width=".75"/><path d="m143.768 236.244h112.71c1.832 0 4.713-3.926 3.572-5.807-5.746-9.464-12.064-20.825-17.644-30.516l-87.684-152.585c-2.803-4.859-5.967-4.86-8.771 0l-99.757 173.523c-1.841 3.186-3.662 6.435-5.571 9.578-1.141 1.881 1.741 5.807 3.573 5.807zm-5.751-214.623-117.106 203.704c-2.14 3.702-4.23 7.434-6.45 11.09-4.661 7.679 2.54 19.391 11.271 19.391h249.209c8.732 0 15.933-11.712 11.271-19.391-2.22-3.656-4.31-7.388-6.449-11.09l-117.107-203.705c-6.555-11.364-18.083-11.361-24.639.001" fill="#d72717"/><path d="m134.399 228.312h32.251v-41.115l41.379 41.115 8.926-8.73-50.305-50.455v-74.043h-32.251z"/></svg>