<svg clip-rule="evenodd" fill-rule="evenodd" stroke-miterlimit="22.926" viewBox="0 0 301 269" xmlns="http://www.w3.org/2000/svg"><path d="m166.454 249.364c41.011-71.093 80.972-144.663 123.505-214.709 6.493-10.694-2.982-26.05-15.017-26.05h-249.209c-12.036 0-21.509 15.356-15.018 26.049 42.529 70.062 82.484 143.613 123.506 214.711 8.411 14.575 23.824 14.579 32.233-.001" fill="#fff"/><path d="m166.454 249.364c41.011-71.093 80.972-144.663 123.505-214.709 6.493-10.694-2.982-26.05-15.017-26.05h-249.209c-12.036 0-21.509 15.356-15.018 26.049 42.529 70.062 82.484 143.613 123.506 214.711 8.411 14.575 23.824 14.579 32.233-.001z" fill="none" stroke="#000" stroke-width=".75"/><path d="m143.768 32.66h112.71c1.832 0 4.714 3.925 3.573 5.806-5.747 9.464-12.064 20.825-17.644 30.517l-87.684 152.586c-2.804 4.859-5.968 4.859-8.772 0l-99.757-173.525c-1.841-3.185-3.662-6.434-5.571-9.577-1.142-1.881 1.741-5.807 3.573-5.807zm-5.75 214.624-117.107-203.705c-2.14-3.702-4.231-7.434-6.45-11.09-4.661-7.678 2.54-19.391 11.271-19.391h249.21c8.731 0 15.932 11.712 11.27 19.391-2.219 3.656-4.309 7.387-6.449 11.09l-117.106 203.705c-6.555 11.365-18.084 11.362-24.639 0" fill="#d72717"/></svg>