<svg clip-rule="evenodd" fill-rule="evenodd" stroke-miterlimit="22.926" viewBox="0 0 297 297" xmlns="http://www.w3.org/2000/svg"><path d="m89.577 6.506h117.321l83.072 83.071v117.321l-83.072 83.072h-117.321l-83.071-83.072v-117.321l83.071-83.071z" fill="#fff" stroke="#000" stroke-width=".57"/><path d="m230.724 159.787v28.645h-14.643v-80.471h26.604c15.031 0 28.66 11.03 28.658 25.885 0 14.856-12.646 25.947-29.369 25.943zm-1.613-38.593v25.353h16.699c6.736 0 12.494-5.778 12.494-12.106 0-7.324-5.984-13.247-12.988-13.247zm-85.425 26.349c0-19.991 12.532-40.949 31.979-40.949 19.448 0 31.979 20.958 31.979 40.949 0 21.135-11.664 41.377-31.979 42.101-20.316-.724-31.979-20.966-31.979-42.101m31.979-27.661c-11.941 0-18.236 12.792-18.236 27.705 0 14.911 6.242 28.991 18.236 28.991 11.993 0 18.237-14.08 18.237-28.991 0-14.913-6.295-27.705-18.237-27.705m-147.3 59.528 9.37-11.381c24.007 16.885 35.054-.648 28.333-8.619-4.745-5.627-25.026-5.125-31.465-20.472-1.145-2.73-1.421-6.127-1.421-9.459 0-23.937 31.298-30.07 49.763-12.835l-9.263 10.861c-4.999-3.575-8.844-6.135-16.5-6.308-5.795-.132-9.487 3.543-9.485 9.286.001 5.387 4.737 8.056 15.993 11.312 7.906 2.286 14.151 7.48 17.58 15.611 3.72 8.819.454 20.027-6.957 26.088-5.136 4.201-9.422 6.596-18.048 6.609-8.155.014-21.31-3.98-27.9-10.693m59.444-71.451h53.437v14.378h-19.369v65.7h-14.697v-65.7h-19.371zm5.172-93.229h110.514l78.25 78.251v110.515l-78.25 78.25h-110.514l-78.251-78.25v-110.515z" fill="#d72717"/></svg>