<svg clip-rule="evenodd" fill-rule="evenodd" stroke-miterlimit="22.926" viewBox="0 0 297 297" xmlns="http://www.w3.org/2000/svg"><path d="m148.238 6.506c78.276 0 141.731 63.456 141.731 141.732 0 78.277-63.455 141.733-141.731 141.733-78.277 0-141.732-63.456-141.732-141.733 0-78.276 63.455-141.732 141.732-141.732" fill="#fff"/><ellipse cx="148.237" cy="148.238" fill="none" rx="141.731" ry="141.732" stroke="#000" stroke-width=".57"/><path d="m148.238 10.389c76.132 0 137.85 61.717 137.85 137.85 0 76.131-61.718 137.849-137.85 137.849s-137.85-61.718-137.85-137.849c0-76.133 61.718-137.85 137.85-137.85m0 23.546c63.128 0 114.303 51.176 114.303 114.304 0 51.764-34.413 95.486-81.609 109.548v-40.629h23.55l-38.002-65.136-38.001 65.136h23.55v45.314c-1.26.041-2.522.069-3.791.069-63.128 0-114.303-51.174-114.303-114.302s51.175-114.304 114.303-114.304" fill="#d72717"/><path d="m106.376 51.736v81.897h-23.55l38.001 65.136 38.002-65.136h-23.55v-81.897z" fill-rule="nonzero"/></svg>