<svg clip-rule="evenodd" fill-rule="evenodd" stroke-miterlimit="22.926" viewBox="0 0 297 297" xmlns="http://www.w3.org/2000/svg"><path d="m25.091 6.506h246.293c10.223 0 18.585 8.363 18.585 18.585v246.296c0 10.222-8.362 18.585-18.585 18.585h-246.293c-10.222 0-18.585-8.363-18.585-18.585v-246.296c0-10.222 8.363-18.585 18.585-18.585z" fill="#fff" stroke="#000" stroke-width=".57"/><path d="m25.159 14.474h89.542v57.722h-24.075l38.776 66.97 38.776-66.97h-24.076v-57.722h127.214c5.878 0 10.686 4.809 10.686 10.686v246.159c0 5.878-4.808 10.685-10.686 10.685h-84.64v-123.908h24.076l-38.776-66.971-38.776 66.971h24.076v123.908h-132.117c-5.877 0-10.686-4.807-10.686-10.685v-246.159c0-5.877 4.809-10.686 10.686-10.686" fill="#0099e2"/><path d="m119.58 14.474v62.601h-20.492l30.313 52.355 30.315-52.355h-20.493v-62.601h-19.643z" fill="#d72717"/></svg>