<svg clip-rule="evenodd" fill-rule="evenodd" stroke-miterlimit="22.926" viewBox="0 0 297 297" xmlns="http://www.w3.org/2000/svg"><path d="m148.238 6.506c78.276 0 141.731 63.456 141.731 141.732 0 78.277-63.455 141.733-141.731 141.733s-141.732-63.456-141.732-141.733c0-78.276 63.456-141.732 141.732-141.732" fill="#fff"/><ellipse cx="148.237" cy="148.238" fill="none" rx="141.731" ry="141.732" stroke="#000" stroke-width=".57"/><path d="m55.266 120.479h185.787c2.614 0 4.753 2.138 4.753 4.752v45.951c0 2.614-2.139 4.752-4.753 4.752h-185.787c-2.614 0-4.752-2.138-4.752-4.752v-45.951c0-2.614 2.138-4.752 4.752-4.752m92.972-105.737c73.727 0 133.496 59.768 133.496 133.496 0 73.727-59.769 133.496-133.496 133.496-73.728 0-133.496-59.769-133.496-133.496 0-73.728 59.768-133.496 133.496-133.496" fill="#d72717"/></svg>