<svg clip-rule="evenodd" fill-rule="evenodd" stroke-miterlimit="22.926" viewBox="0 0 297 297" xmlns="http://www.w3.org/2000/svg"><path d="m148.238 6.506c78.276 0 141.731 63.456 141.731 141.732 0 78.277-63.455 141.733-141.731 141.733s-141.732-63.456-141.732-141.733c0-78.276 63.456-141.732 141.732-141.732" fill="#fff"/><ellipse cx="148.237" cy="148.238" fill="none" rx="141.731" ry="141.732" stroke="#000" stroke-width=".57"/><path d="m221.267 234.899-159.691-159.691c-16.641 19.723-26.674 45.204-26.674 73.03 0 62.593 50.742 113.335 113.336 113.335 27.826 0 53.305-10.032 73.029-26.674m-146.059-173.323 159.691 159.691c16.639-19.725 26.674-45.203 26.674-73.029 0-62.594-50.743-113.336-113.335-113.336-27.826 0-53.304 10.034-73.03 26.674m73.03-50.778c75.905 0 137.438 61.535 137.438 137.44s-61.533 137.438-137.438 137.438c-75.906 0-137.439-61.533-137.439-137.438s61.533-137.44 137.439-137.44" fill="#d72717"/><path d="m149.899 168.448-36.19 62.155c-4.105 7.048-14.329 6.161-17.089-1.441-.942-2.592-.749-5.443.645-7.838l38.827-66.683zm16.346-50.408 26.84 26.871c1.379 1.381 2.147 3.233 2.147 5.185 0 6.453-7.845 9.816-12.457 5.26l-16.53-16.32zm-3.703 25.953c-.06-7.207.287-42.544-.058-44.848-.403-2.693-1.378-3.393-3.644-4.791l-11.194-6.48c-5.359-2.352-8.553.087-13.011 2.553l-16.325 9.334 11.233 11.232 2.551-2.011-.019 4.543zm9.41 46.508 9.011 37.818c.988 4.155 4.722 7.091 8.998 7.091 6.005 0 10.384-5.616 8.989-11.445-1.412-5.898-1.401-5.875-2.006-8.472zm-52.715-52.714c.016 2.555.047 4.682.047 7.95 0 9.793-14.877 9.793-14.877 0v-22.78zm30.31-84.657c6.924.801 15.415 5.907 17.387 12.941 2.241 7.996-1.898 24.932-18.235 17.388-7.226-3.337-16.964-10.357-15.974-19.278.989-8.905 8.766-11.983 16.822-11.051" fill-rule="nonzero"/></svg>