<svg clip-rule="evenodd" fill-rule="evenodd" stroke-miterlimit="22.926" viewBox="0 0 297 297" xmlns="http://www.w3.org/2000/svg"><path d="m148.272 6.54c78.276 0 141.731 63.456 141.731 141.732 0 78.277-63.455 141.733-141.731 141.733s-141.732-63.456-141.732-141.733c0-78.276 63.456-141.732 141.732-141.732" fill="#f8f100"/><ellipse cx="148.271" cy="148.272" fill="none" rx="141.731" ry="141.732" stroke="#000" stroke-width=".57"/><path d="m148.272 34.936c62.593 0 113.335 50.742 113.335 113.336 0 62.593-50.742 113.335-113.335 113.335s-113.335-50.742-113.335-113.335c0-62.594 50.742-113.336 113.335-113.336m0-24.104c75.905 0 137.438 61.535 137.438 137.44s-61.533 137.438-137.438 137.438-137.439-61.533-137.439-137.438 61.534-137.44 137.439-137.44" fill="#d72717"/><path d="m151.29 203.737c19.643.01 30.875-16.774 34.869-34.982 5.084-23.18 2.036-63.323-23.605-73.47-16.353-6.467-32.289 1.696-40.617 17.421-14.434 27.266-9.87 91.01 29.353 91.031m.011-19.139c-9.32.103-14.039-9.932-15.967-18.491-2.55-11.273-4.082-48.353 11.15-53.082 8.323-2.586 14.99 1.069 18.517 9.207 6.189 14.296 7.397 62.603-13.7 62.366"/><path d="m215.037 203.781h11.285v-49.686h15.046v-11.284h-15.046-11.285-15.045v11.284h15.045z" fill-rule="nonzero"/><path d="m97.15 97.331-.468 106.314h-19.447l-.02-80.472-14.055 8.554-7.402-9.499 23.2-24.902z"/></svg>