<svg clip-rule="evenodd" fill-rule="evenodd" stroke-miterlimit="22.926" viewBox="0 0 297 297" xmlns="http://www.w3.org/2000/svg"><path d="m148.272 6.54c78.276 0 141.731 63.456 141.731 141.732 0 78.277-63.455 141.733-141.731 141.733s-141.732-63.456-141.732-141.733c0-78.276 63.456-141.732 141.732-141.732" fill="#f8f100"/><ellipse cx="148.271" cy="148.272" fill="none" rx="141.731" ry="141.732" stroke="#000" stroke-width=".57"/><path d="m148.272 34.936c62.593 0 113.335 50.742 113.335 113.336 0 62.593-50.742 113.335-113.335 113.335s-113.335-50.742-113.335-113.335c0-62.594 50.742-113.336 113.335-113.336m0-24.104c75.905 0 137.438 61.535 137.438 137.44s-61.533 137.438-137.438 137.438-137.439-61.533-137.439-137.438 61.534-137.44 137.439-137.44" fill="#d72717"/><path d="m163.194 168.373c2.123 2.657 3.814 3.827 7.321 3.827h36.134v-15.012c0-5.401 4.308-9.735 10.013-9.735 5.354 0 9.735 4.381 9.735 9.735v45.846c0 5.402-4.307 9.735-10.013 9.735-5.354 0-9.735-4.38-9.735-9.735v-15.012h-36.326c-3.229 0-5.072 1.201-7.016 3.685-7.551 9.655-22.418 9.655-29.969 0-1.944-2.484-3.788-3.685-7.016-3.685h-36.326v15.012c0 5.402-4.307 9.735-10.012 9.735-5.355 0-9.736-4.38-9.736-9.735v-45.846c0-5.401 4.307-9.735 10.012-9.735 5.355 0 9.736 4.381 9.736 9.735v15.012h36.134c3.506 0 5.198-1.17 7.321-3.827 7.52-9.423 22.225-9.414 29.743 0m1.234-77.07h30.542v8.403h-10.779v35.543h-8.982v-35.543h-10.781zm-27.287 19.79c0-3.56-.076-6.236-1.76-8.341-1.683-2.106-4.708-3.208-7.606-3.208-2.55 0-4.967.822-7.283 2.433-2.097 1.458-4.493 3.035-5.586 5.141.152 3.984 1.154 7.478 3.019 10.483 2.231 3.509 5.129 5.256 8.725 5.256 2.595 0 4.886-1.127 6.843-3.396s3.648-5.022 3.648-8.368m5.361 17.439c-4.532 4.45-9.172 7.438-15.203 7.438-9.399 0-16.36-5.285-20.994-14.089-3.524-6.696-5.331-13.99-5.331-23.645 0-10.673 3.747-19.593 8.455-27.25 6.749-10.975 23.636-11.68 35.277-7.003l3.127 14.001c-7.268-2.798-20.368-7.802-27.317-.417-4.607 4.898-5.075 9.337-5.075 16.673 7.37-7.514 21.394-8.991 29.301-.985 8.879 8.99 6.673 26.524-2.24 35.277" fill-rule="nonzero"/></svg>