<svg clip-rule="evenodd" fill-rule="evenodd" stroke-miterlimit="22.926" viewBox="0 0 297 297" xmlns="http://www.w3.org/2000/svg"><path d="m148.272 6.54c78.276 0 141.731 63.456 141.731 141.732 0 78.277-63.455 141.733-141.731 141.733s-141.732-63.456-141.732-141.733c0-78.276 63.456-141.732 141.732-141.732" fill="#f8f100"/><ellipse cx="148.271" cy="148.272" fill="none" rx="141.731" ry="141.732" stroke="#000" stroke-width=".57"/><path d="m148.272 34.936c62.593 0 113.335 50.742 113.335 113.336 0 62.593-50.742 113.335-113.335 113.335s-113.335-50.742-113.335-113.335c0-62.594 50.742-113.336 113.335-113.336m0-24.104c75.905 0 137.438 61.535 137.438 137.44s-61.533 137.438-137.438 137.438-137.439-61.533-137.439-137.438 61.534-137.44 137.439-137.44" fill="#d72717"/><path d="m168.801 152.636-2.608-16.436c5.62 3.457 11.608 4.983 17.37 4.983 10.856 0 18.483-7.207 18.483-14.36 0-6.823-5.136-13.46-12.995-13.191-3.36.114-7.118 1.681-11.284 5.168l-8.947-4.213v-39.772h45.185l-3.557 14.459-28.35-.058v15.03c17.5-8.626 35.382 2.985 35.095 20.508-.27 16.517-11.579 29.583-30.124 29.672-5.734.027-11.898-.808-18.268-1.79m-18.863-15.615c4.526 0 8.195 3.669 8.195 8.195 0 1.474-.39 2.858-1.072 4.052l-8.939 16.959-5.34.001 6.762-12.828c-4.342-.205-7.799-3.791-7.799-8.184 0-4.526 3.669-8.195 8.193-8.195m17.687 33.136 4.27 42.834-9.963-.003-1.973-28.405-11.688 22.277-11.688-22.277-1.972 28.405-9.965.003 4.272-42.834 9.437.001 9.916 19.75 9.915-19.75zm-19.354-98.294 28.917-28.988h-57.834zm0 152.818-28.917 28.988h57.834z"/><path d="m106.618 125.937v-28.55l-21.964 28.55zm0 28.678v-14.859h-38.02v-13.753l38.815-51.983h14.388v51.917h10.787l-5.238 13.819h-5.549v14.859z"/></svg>