<svg clip-rule="evenodd" fill-rule="evenodd" stroke-miterlimit="22.926" viewBox="0 0 297 297" xmlns="http://www.w3.org/2000/svg"><path d="m148.238 6.506c78.276 0 141.731 63.456 141.731 141.732 0 78.277-63.455 141.733-141.731 141.733s-141.732-63.456-141.732-141.733c0-78.276 63.456-141.732 141.732-141.732" fill="#fff"/><ellipse cx="148.237" cy="148.238" fill="none" rx="141.731" ry="141.732" stroke="#000" stroke-width=".57"/><path d="m148.238 34.902c62.593 0 113.335 50.742 113.335 113.336 0 62.593-50.742 113.335-113.335 113.335s-113.335-50.742-113.335-113.335c0-62.594 50.742-113.336 113.335-113.336m0-24.104c75.905 0 137.438 61.535 137.438 137.44s-61.533 137.438-137.438 137.438-137.439-61.533-137.439-137.438 61.534-137.44 137.439-137.44" fill="#d72717"/><path d="m84.943 151.413-1.338-15.473c8.105 6.233 34.92 9.984 35.806-5.868.451-8.055-5.641-11.344-12.884-11.344-2.316 0-4.799.2-7.216 1.036v-13.068c10.787-1.289 16.478-6.29 16.789-13.023.156-3.401-2.261-7.487-8.363-7.701-5.221-.184-13.109 3.416-17.72 7.161l-4.79-13.448c5.616-3.804 16.643-6.127 23.863-6.17 11.699 0 22.475 6.122 22.475 19.031.024 7.359-5.516 13.561-13.828 17.613v.224c10.707 1.636 17.605 11.012 17.605 21.596-.01 16.81-16.042 22.413-28.879 22.413-7.724 0-16.922-.194-21.52-2.979m83.824 1.189-2.608-16.436c5.62 3.457 11.608 4.983 17.37 4.983 10.856 0 18.483-7.207 18.483-14.36 0-6.823-5.136-13.46-12.995-13.191-3.36.114-7.118 1.681-11.284 5.168l-8.947-4.213v-39.772h45.185l-3.557 14.459-28.35-.058v15.03c17.5-8.626 35.382 2.985 35.095 20.508-.27 16.517-11.579 29.583-30.124 29.672-5.734.027-11.898-.808-18.268-1.79m-18.863-15.615c4.526 0 8.195 3.669 8.195 8.195 0 1.474-.39 2.858-1.072 4.052l-8.939 16.959-5.34.001 6.762-12.828c-4.342-.205-7.799-3.791-7.799-8.184 0-4.526 3.669-8.195 8.193-8.195m17.687 33.136 4.27 42.834-9.963-.003-1.973-28.405-11.688 22.277-11.688-22.277-1.972 28.405-9.965.003 4.272-42.834 9.437.001 9.916 19.75 9.915-19.75zm-19.354-98.294 28.917-28.988h-57.834zm0 152.818-28.917 28.988h57.834z"/></svg>