<svg clip-rule="evenodd" fill-rule="evenodd" stroke-miterlimit="22.926" viewBox="0 0 297 297" xmlns="http://www.w3.org/2000/svg"><path d="m148.272 6.54c78.276 0 141.731 63.456 141.731 141.732 0 78.277-63.455 141.733-141.731 141.733s-141.732-63.456-141.732-141.733c0-78.276 63.456-141.732 141.732-141.732" fill="#f8f100"/><ellipse cx="148.271" cy="148.272" fill="none" rx="141.731" ry="141.732" stroke="#000" stroke-width=".57"/><path d="m148.272 34.936c62.593 0 113.335 50.742 113.335 113.336 0 62.593-50.742 113.335-113.335 113.335s-113.335-50.742-113.335-113.335c0-62.594 50.742-113.336 113.335-113.336m0-24.104c75.905 0 137.438 61.535 137.438 137.44s-61.533 137.438-137.438 137.438-137.439-61.533-137.439-137.438 61.534-137.44 137.439-137.44" fill="#d72717"/><path d="m132.422 171.836h-48.097v-13.652c6.547-6.091 13.718-12.978 19.751-19.338 4.819-5.08 8.864-9.86 11.651-13.386 3.314-4.193 7.155-7.701 5.966-13.273-1.063-4.969-5.153-9.14-10.567-9.039-5.912.112-10.828 4.678-16.298 10.754l-9.23-10.292c5.139-7.526 16.521-11.807 25.091-11.807 13.292 0 24.516 9.17 24.516 22.875 0 4.722-.565 9.464-3.698 13.802-2.895 4.008-9.077 10.697-16.662 18.16l-10.888 10.713h32.23zm30.281-64.641 3.792-14.141h47.87v14.141c-10.753 14.158-21.319 42.403-25.392 64.635l-16.836-.365c5.275-22.202 15.633-45.461 26.35-64.27zm-90.84 41.078-28.988-28.917v57.834zm152.817 0 28.988 28.917v-57.834zm-57.055 39.922 4.271 42.834-9.964-.003-1.973-28.406-11.687 22.279-11.689-22.279-1.972 28.406-9.964.003 4.271-42.834 9.438.001 9.916 19.75 9.915-19.75zm-17.686-33.172c4.525 0 8.194 3.669 8.194 8.195 0 1.474-.39 2.858-1.071 4.053l-8.94 16.959h-5.34l6.762-12.828c-4.342-.206-7.799-3.791-7.799-8.184 0-4.526 3.669-8.195 8.194-8.195"/></svg>