<svg clip-rule="evenodd" fill-rule="evenodd" stroke-miterlimit="22.926" viewBox="0 0 297 297" xmlns="http://www.w3.org/2000/svg"><path d="m148.272 6.54c78.276 0 141.731 63.456 141.731 141.732 0 78.277-63.455 141.733-141.731 141.733s-141.732-63.456-141.732-141.733c0-78.276 63.456-141.732 141.732-141.732" fill="#f8f100"/><ellipse cx="148.271" cy="148.272" fill="none" rx="141.731" ry="141.732" stroke="#000" stroke-width=".57"/><path d="m148.272 34.936c62.593 0 113.335 50.742 113.335 113.336 0 62.593-50.742 113.335-113.335 113.335s-113.335-50.742-113.335-113.335c0-62.594 50.742-113.336 113.335-113.336m0-24.104c75.905 0 137.438 61.535 137.438 137.44s-61.533 137.438-137.438 137.438-137.439-61.533-137.439-137.438 61.534-137.44 137.439-137.44" fill="#d72717"/><path d="m89.22 96.81h18.286c2.318 0 4.215 1.897 4.215 4.215v10.681c0 2.32-1.897 4.215-4.215 4.215h-24.724c-3.8 0-4.903-4.47-3.319-6.842l7.055-10.565c.65-.973 1.4-1.704 2.702-1.704m101.729 39.032c7.335 0 13.282 5.947 13.282 13.282s-5.947 13.283-13.282 13.283c-7.336 0-13.282-5.948-13.282-13.283s5.946-13.282 13.282-13.282m0 6.489c3.752 0 6.793 3.042 6.793 6.793 0 3.752-3.041 6.793-6.793 6.793s-6.794-3.041-6.794-6.793c0-3.751 3.042-6.793 6.794-6.793m-90.396-6.489c7.336 0 13.283 5.947 13.283 13.282s-5.947 13.283-13.283 13.283c-7.335 0-13.281-5.948-13.281-13.283s5.946-13.282 13.281-13.282m0 6.489c3.753 0 6.793 3.042 6.793 6.793 0 3.752-3.04 6.793-6.793 6.793-3.751 0-6.793-3.041-6.793-6.793 0-3.751 3.042-6.793 6.793-6.793m93.735-8.036h27.099v14.499h-15.245c-.15-7.099-5.171-13.001-11.854-14.499m-75.073 0h68.395c-6.684 1.498-11.704 7.4-11.855 14.499h-60.007c-.176-8.241-6.911-14.868-15.195-14.868-8.283 0-15.017 6.627-15.193 14.868h-7.785c-4.215 0-7.664-3.449-7.664-7.664v-6.835-15.458-2.535c.174-1.315.675-2.54 1.529-3.662l11.699-16.973c1.305-1.892 2.774-3.332 5.342-3.332h22.303c4.636 0 8.431 3.794 8.431 8.432zm3.407-3.222h98.83v-54.079c0-4.004-3.276-7.282-7.281-7.282h-84.268c-4.005 0-7.281 3.278-7.281 7.282zm37.295 92.229 2.569 25.271-5.995-.002-1.187-16.758-7.032 13.143-7.032-13.143-1.187 16.758-5.996.002 2.57-25.271 5.678.001 5.967 11.652 5.966-11.652zm-90.014-16.012 28.625 28.555v-57.108zm152.343 0-28.624 28.554v-57.107zm-87.042-37.084-.205 46.723-8.545-.001-.011-35.363-6.176 3.76-3.255-4.176 10.197-10.943zm24.238 38.819c-.871.009-1.742-.236-2.601-.745-.862-.52-1.644-1.352-2.361-2.518-.717-1.164-1.29-2.722-1.718-4.669-.429-1.948-.649-4.355-.659-7.222.013-2.771.158-5.101.445-6.999.299-1.889.697-3.425 1.194-4.599.497-1.175 1.071-2.066 1.7-2.682.63-.626 1.291-1.047 1.986-1.261.685-.225 1.358-.332 2.031-.313.673-.019 1.345.089 2.041.314.683.216 1.345.637 1.973 1.264.629.617 1.203 1.508 1.698 2.683.496 1.175.891 2.712 1.189 4.6.285 1.9.439 4.23.438 6.999-.013 2.868-.235 5.276-.666 7.223-.431 1.948-1.006 3.504-1.723 4.668-.719 1.164-1.502 1.996-2.362 2.514-.862.508-1.734.753-2.605.743m-.005 8.773c1.684.001 3.306-.305 4.875-.93 1.571-.616 3.035-1.567 4.377-2.828 1.353-1.269 2.527-2.866 3.547-4.79 1.009-1.933 1.8-4.194 2.372-6.811.564-2.608.857-5.571.868-8.882-.008-3.31-.298-6.274-.858-8.893-.57-2.618-1.358-4.888-2.366-6.823-1.018-1.935-2.191-3.543-3.541-4.814-1.34-1.271-2.805-2.224-4.374-2.851-1.569-.626-3.19-.934-4.874-.935-1.683-.001-3.305.305-4.874.93-1.571.625-3.026 1.577-4.377 2.847-1.352 1.27-2.528 2.876-3.546 4.81-1.011 1.933-1.801 4.204-2.374 6.821-.562 2.617-.855 5.581-.867 8.89.008 3.311.298 6.276.858 8.883.57 2.618 1.358 4.88 2.365 6.815 1.019 1.925 2.192 3.523 3.542 4.794 1.35 1.261 2.805 2.215 4.374 2.831 1.569.627 3.191.936 4.873.936"/></svg>