<svg clip-rule="evenodd" fill-rule="evenodd" stroke-miterlimit="22.926" viewBox="0 0 297 297" xmlns="http://www.w3.org/2000/svg"><path d="m148.272 6.54c78.276 0 141.731 63.456 141.731 141.732 0 78.277-63.455 141.733-141.731 141.733s-141.732-63.456-141.732-141.733c0-78.276 63.456-141.732 141.732-141.732" fill="#f8f100"/><ellipse cx="148.271" cy="148.272" fill="none" rx="141.731" ry="141.732" stroke="#000" stroke-width=".57"/><path d="m148.272 34.936c62.593 0 113.335 50.742 113.335 113.336 0 62.593-50.742 113.335-113.335 113.335s-113.335-50.742-113.335-113.335c0-62.594 50.742-113.336 113.335-113.336m0-24.104c75.905 0 137.438 61.535 137.438 137.44s-61.533 137.438-137.438 137.438-137.439-61.533-137.439-137.438 61.534-137.44 137.439-137.44" fill="#d72717"/><path d="m171.763 216.891h-27.392v-7.96c6.398-6.092 12.767-12.448 17.883-19.078 1.887-2.444 4.075-4.49 3.398-7.74-.606-2.894-2.933-5.327-6.017-5.267-3.367.064-6.167 2.727-9.282 6.269l-5.256-5.999c2.926-4.389 9.408-6.887 14.288-6.887 13.408 0 16.828 14.342 11.858 21.385-3.013 4.274-10.825 11.933-15.691 16.835h18.354z"/><path d="m89.22 96.81h18.286c2.318 0 4.215 1.897 4.215 4.215v10.681c0 2.32-1.897 4.215-4.215 4.215h-24.724c-3.8 0-4.903-4.47-3.319-6.842l7.055-10.565c.65-.973 1.4-1.704 2.702-1.704m101.729 39.032c7.335 0 13.282 5.947 13.282 13.282s-5.947 13.283-13.282 13.283c-7.336 0-13.282-5.948-13.282-13.283s5.946-13.282 13.282-13.282m0 6.489c3.752 0 6.793 3.042 6.793 6.793 0 3.752-3.041 6.793-6.793 6.793s-6.794-3.041-6.794-6.793c0-3.751 3.042-6.793 6.794-6.793m-90.396-6.489c7.336 0 13.283 5.947 13.283 13.282s-5.947 13.283-13.283 13.283c-7.335 0-13.281-5.948-13.281-13.283s5.946-13.282 13.281-13.282m0 6.489c3.753 0 6.793 3.042 6.793 6.793 0 3.752-3.04 6.793-6.793 6.793-3.751 0-6.793-3.041-6.793-6.793 0-3.751 3.042-6.793 6.793-6.793m93.735-8.036h27.099v14.499h-15.245c-.15-7.099-5.171-13.001-11.854-14.499m-75.073 0h68.395c-6.684 1.498-11.704 7.4-11.855 14.499h-60.007c-.176-8.241-6.911-14.868-15.195-14.868-8.283 0-15.017 6.627-15.193 14.868h-7.785c-4.215 0-7.664-3.449-7.664-7.664v-6.835-15.458-2.535c.174-1.315.675-2.54 1.529-3.662l11.699-16.973c1.305-1.892 2.774-3.332 5.342-3.332h22.303c4.636 0 8.431 3.794 8.431 8.432zm3.407-3.222h98.83v-54.079c0-4.004-3.276-7.282-7.281-7.282h-84.268c-4.005 0-7.281 3.278-7.281 7.282zm37.295 92.229 2.569 25.271-5.995-.002-1.187-16.758-7.032 13.143-7.032-13.143-1.187 16.758-5.996.002 2.57-25.271 5.678.001 5.967 11.652 5.966-11.652zm-90.014-16.012 28.625 28.555v-57.108zm152.343 0-28.624 28.554v-57.107zm-87.042-37.084-.205 46.723-8.545-.001-.011-35.363-6.176 3.76-3.255-4.176 10.197-10.943z"/></svg>