<svg clip-rule="evenodd" fill-rule="evenodd" stroke-miterlimit="22.926" viewBox="0 0 297 297" xmlns="http://www.w3.org/2000/svg"><path d="m148.272 6.54c78.276 0 141.731 63.456 141.731 141.732 0 78.277-63.455 141.733-141.731 141.733s-141.732-63.456-141.732-141.733c0-78.276 63.456-141.732 141.732-141.732" fill="#f8f100"/><ellipse cx="148.271" cy="148.272" fill="none" rx="141.731" ry="141.732" stroke="#000" stroke-width=".57"/><path d="m148.272 34.936c62.593 0 113.335 50.742 113.335 113.336 0 62.593-50.742 113.335-113.335 113.335s-113.335-50.742-113.335-113.335c0-62.594 50.742-113.336 113.335-113.336m0-24.104c75.905 0 137.438 61.535 137.438 137.44s-61.533 137.438-137.438 137.438-137.439-61.533-137.439-137.438 61.534-137.44 137.439-137.44" fill="#d72717"/><path d="m253.125 116.687c-1.967.563-3.812 1.541-5.476 3.212-10.354 10.411-18.452 20.993-28.807 31.404-15.57 2.195-31.139 4.391-46.706 6.583-5.824.821-10.653 4.324-10.593 8.691l.244 17.598c.963 5.564 3.256 7.546 8.882 8.975 1.603-13.574 14.852-22.543 28.024-18.964 10.719 2.911 17.48 13.156 16.35 23.856l30.763.022c6.76-13.216 10.91-27.989 11.777-43.638l-17.789-.213c-5.748-.07-7.704-6.554-5.49-9.11l14.974-17.279c1.575-1.818 3.442-3.654 5.606-4.568-.519-2.216-1.109-4.406-1.759-6.569m-132.576 39.684c-9.691-11.46-19.382-22.922-29.072-34.381-5.297-6.263-7.723-6.17-15.734-6.154l-32.097.081c-.678 2.196-1.284 4.422-1.825 6.674l39.297-.185c3.38-.016 7.991 2.787 8.492 6.131l2.781 18.585c.501 3.344-3.841 8.046-7.219 8.005l-46.203-.553c.886 15.604 5.034 30.336 11.781 43.517l11.985-.096c-.754-15.03 13.411-26.664 28.148-22.661 9.448 2.567 15.822 10.832 16.426 20.083 7.192-2.832 9.863-2.064 11.61-10.704l3.655-18.074c1.121-5.541 1.647-5.928-2.025-10.268m74.259 30.711c-5.667-1.54-11.509 1.806-13.049 7.473s1.806 11.51 7.473 13.05 11.51-1.807 13.05-7.474c1.539-5.666-1.807-11.509-7.474-13.049m2.393-8.806c-10.531-2.861-21.388 3.357-24.249 13.888-2.861 10.53 3.357 21.386 13.888 24.248 10.53 2.861 21.388-3.357 24.248-13.888 2.861-10.53-3.357-21.387-13.887-24.248m-109.22 8.806c-5.666-1.54-11.509 1.806-13.049 7.473-1.539 5.667 1.806 11.51 7.474 13.05 5.667 1.54 11.51-1.807 13.05-7.474 1.539-5.666-1.808-11.509-7.475-13.049m2.393-8.806c-10.53-2.861-21.387 3.357-24.248 13.888-2.861 10.53 3.356 21.386 13.887 24.248 10.531 2.861 21.388-3.357 24.249-13.888 2.861-10.53-3.357-21.387-13.888-24.248m59.89-69.239c18.663.004 20.276-34.481 9.292-44.858-9.084-8.58-25.321-3.296-25.334 20.552-.006 10.623 3.978 24.299 16.042 24.306m.005-8.792c-9.394.099-8.878-24.68-4.007-29.489 2.498-2.465 7.53-2.559 9.747 2.692 2.598 6.155 3.11 26.9-5.74 26.797m-52.969-30.649 2.271-8.467h28.659v8.467c-6.437 8.476-12.763 25.386-15.203 38.696l-10.078-.218c3.158-13.292 9.359-27.217 15.775-38.478zm109.83 10.071 2.938 28.625-6.854-.001-1.356-18.983-8.04 14.888-8.039-14.888-1.355 18.983-6.855.001 2.938-28.625h6.492l6.819 13.2 6.822-13.2z"/></svg>