<svg clip-rule="evenodd" fill-rule="evenodd" stroke-miterlimit="22.926" viewBox="0 0 297 297" xmlns="http://www.w3.org/2000/svg"><path d="m148.238 6.506c78.276 0 141.731 63.456 141.731 141.732 0 78.277-63.455 141.733-141.731 141.733s-141.732-63.456-141.732-141.733c0-78.276 63.456-141.732 141.732-141.732" fill="#fff"/><ellipse cx="148.237" cy="148.238" fill="none" rx="141.731" ry="141.732" stroke="#000" stroke-width=".57"/><path d="m148.238 34.902c62.593 0 113.335 50.742 113.335 113.336 0 62.593-50.742 113.335-113.335 113.335s-113.335-50.742-113.335-113.335c0-62.594 50.742-113.336 113.335-113.336m0-24.104c75.905 0 137.438 61.535 137.438 137.44s-61.533 137.438-137.438 137.438-137.439-61.533-137.439-137.438 61.534-137.44 137.439-137.44" fill="#d72717"/><path d="m193.346 179.307 6.728 11.344 6.727-11.344h4.575l.007 23.676h-4.582v-16.021l-6.727 11.221-6.728-11.221v16.021h-4.582l.007-23.676zm-66.511 19.979 3.239-2.726c6.277 5.4 10.663 2.234 10.881-.423.407-4.939-12.368-.92-12.676-10.188-.209-6.278 9.504-10.094 16.954-3.855l-2.932 3.038c-1.31-.959-2.123-2.076-5.403-2.16-2.502-.063-4.063 1.281-4.029 2.9.127 4.811 13.132 1.29 12.725 10.228-.37 8.143-13.175 9.772-18.759 3.186m-23.192-2.329c-3.393 10.257-18.401 8.498-18.401-5.588 0-14.809 15.219-16.05 18.325-6.202l-3.937 1.807c-1.178-5.774-9.908-6.563-9.908 4.036 0 10.435 7.83 10.528 9.75 4.462zm3.144-17.65h4.288c0 2.326-.115 15.298.165 16.788.89 4.766 7.653 4.935 8.25.002.289-2.391.146-13.77.146-16.79l4.279.006v14.796c0 12.457-17.128 12.442-17.128.188zm47.166 23.675v-18.84h-6.358v-4.835h17.54v4.835h-6.359v18.84zm13.173-11.68c0-14.233 12.095-14.693 16.592-9.142 4.508 5.564 4.013 21.24-6.953 21.24-6.66 0-9.639-5.52-9.639-12.098m4.12-.159c0 10.917 10.963 11.146 10.963-.066 0-9.53-6.971-9.372-9.449-6.05-1.005 1.351-1.514 3.385-1.514 6.116m-109.355-54.585h172.768c6.375 0 11.591 5.215 11.591 11.59v.499c0 6.374-5.216 11.59-11.591 11.59h-172.768c-6.374 0-11.59-5.216-11.59-11.59v-.499c0-6.375 5.216-11.59 11.59-11.59m82.069-39.977c7.093 0 7.093 17.308 0 17.308-7.094 0-7.094-17.308 0-17.308m0-3.57c5.376 0 9.735 5.474 9.735 12.224 0 6.752-4.359 12.224-9.735 12.224-5.377 0-9.736-5.472-9.736-12.224 0-6.75 4.359-12.224 9.736-12.224m79.365 24.01v-9.555c-4.423 0-4.803.34-6.707 3.587l-3.063 5.968h-5.272c.897-1.105 3.919-6.63 4.876-8.721.639-1.399 1.321-1.862 2.847-2.256-7.213-1.781-5.724-10.574-.953-12.103 2.65-.849 9.217-.594 12.542-.594v23.674zm0-19.768c-3.364 0-7.497-.586-7.497 3.266 0 3.819 4.479 3.253 7.497 3.253zm-52.222 19.768h-2.193v-10.839c-1.698 0-2.475-.153-3.523 1.208-2.581 3.355-3.749 6.239-5.829 9.607l-5.503.024c2.048-2.539 2.816-4.421 4.224-6.632 1.003-1.574 2.071-3.597 2.82-4.602.768-1.029 1.389-1.703 2.663-1.913-.682-.107-2.864-3.406-3.878-5.065-.981-1.606-1.839-1.481-3.548-1.481l1.195-4.642c1.751-.014 3.229.684 4.038 1.544 1.71 1.812 3.506 5.082 5.351 7.236.519.605 1.181.601 1.99.53v-8.648h4.386v8.648c.81.071 1.472.075 1.989-.53 1.846-2.154 3.643-5.424 5.352-7.236.81-.86 2.288-1.558 4.039-1.544l1.194 4.642c-1.709 0-2.566-.125-3.547 1.481-1.014 1.659-3.198 4.958-3.878 5.065 1.274.21 1.894.884 2.663 1.913.749 1.005 1.817 3.028 2.82 4.602 1.407 2.211 2.176 4.093 4.223 6.632l-5.502-.024c-2.08-3.368-3.248-6.252-5.83-9.607-1.047-1.361-1.826-1.208-3.523-1.208v10.839zm-74.635-23.674h2.335l7.949 23.674h-4.863l-1.434-4.742h-7.975l-1.433 4.742h-4.863l7.95-23.674zm2.808 15.008-2.808-9.313-2.808 9.313zm25.919-15.008h4.902l2.663 23.674h-4.669l-1.591-16.927-5.972 13.59-5.972-13.59-1.592 16.927h-4.669l2.662-23.674h4.904l4.667 10.583zm-56.416 0h17.962v4.683h-6.269v18.991h-5.424v-18.991h-6.269zm120.325 0h4.27v9.109h8.547v-9.109h4.27v23.674h-4.27v-10.555h-8.547v10.555h-4.27z"/></svg>