<svg clip-rule="evenodd" fill-rule="evenodd" stroke-miterlimit="22.926" viewBox="0 0 297 297" xmlns="http://www.w3.org/2000/svg"><path d="m148.238 6.506c78.276 0 141.731 63.456 141.731 141.732 0 78.277-63.455 141.733-141.731 141.733s-141.732-63.456-141.732-141.733c0-78.276 63.456-141.732 141.732-141.732" fill="#fff"/><ellipse cx="148.237" cy="148.238" fill="none" rx="141.731" ry="141.732" stroke="#000" stroke-width=".57"/><path d="m148.238 34.902c62.593 0 113.335 50.742 113.335 113.336 0 62.593-50.742 113.335-113.335 113.335s-113.335-50.742-113.335-113.335c0-62.594 50.742-113.336 113.335-113.336m0-24.104c75.905 0 137.438 61.535 137.438 137.44s-61.533 137.438-137.438 137.438-137.439-61.533-137.439-137.438 61.534-137.44 137.439-137.44" fill="#d72717"/><path d="m197.411 189.528h3.504c1.931 0 3.468-1.038 3.36-3.214-.108-2.175-1.477-3.099-3.36-3.099h-3.504zm-4.396 13.453v-23.676h8.272c5.962 0 7.589 3.702 7.643 6.638.052 2.936-1.868 4.85-4.039 5.962 3.484 2.235 4.236 6.57 6.967 11.076h-5.075l-3.602-7.213c-.754-1.511-1.767-2.331-3.22-2.331h-2.55v9.544zm-19.194.001v-23.676h14.813v4.007h-10.557v5.348h8.402v4.102h-8.402v6.228h10.557v3.991zm-12.245-8.189v-3.854h8.862v11.857h-3.89l-.616-1.641c-2.737 3.008-7.177 2.722-10.329.724-1.646-1.044-2.881-2.536-3.709-4.478s-1.242-4.051-1.242-6.332c0-2.473.464-4.676 1.385-6.602.926-1.92 2.275-3.398 4.059-4.422 1.354-.792 3.044-1.171 5.063-1.185 3.08-.02 4.568.729 6.04 1.963 1.223 1.024 2.195 2.265 2.695 3.935l-3.916 1.956-.056.028c-.833-2.549-2.315-3.843-4.763-3.843-2.072 0-3.134.863-4.236 2.192-1.105 1.333-1.304 3.166-1.304 5.785 0 2.817.169 4.84 1.285 6.254 1.114 1.41 2.446 2.03 4.254 2.019 3.457-.021 4.287-2.621 4.651-4.354zm-31.314 8.189v-23.676h5.129l8.375 15.656v-15.656h4.508v23.676h-4.905l-8.47-15.851v15.851zm-39.042-19.759v15.677h3.314c5.227 0 5.868-4.786 5.868-7.833 0-3.048-.849-7.844-5.868-7.844zm-4.532-3.917h8.117c7.673 0 10.319 6.194 10.319 12.066 0 5.873-3.046 11.61-10.319 11.61h-8.117zm30.666 0h2.361l8.04 23.676h-4.918l-1.45-4.743h-4.033-4.033l-1.45 4.743h-4.918l8.04-23.676zm2.84 15.01-2.84-9.313-2.84 9.313zm-8.973-85.962-2.809-9.312-2.808 9.312zm-2.809-15.008h2.335l7.949 23.674h-4.863l-1.434-4.742h-7.974l-1.433 4.742h-4.864l7.95-23.674zm33.486 0h4.404v9.11h8.813v-9.11h4.403v23.674h-4.403v-10.555h-8.813v10.555h-4.404zm62.284-.001h17.963v4.683h-6.269v18.993h-5.425v-18.993h-6.269zm-139.268 3.236c6.995 0 6.995 17.307 0 17.307s-6.995-17.307 0-17.307m0-3.571c5.302 0 9.6 5.474 9.6 12.224 0 6.752-4.298 12.225-9.6 12.225s-9.6-5.473-9.6-12.225c0-6.75 4.298-12.224 9.6-12.224m107.196 3.571c6.994 0 6.994 17.307 0 17.307-6.995 0-6.995-17.307 0-17.307m0-3.571c5.302 0 9.6 5.474 9.6 12.224 0 6.752-4.298 12.225-9.6 12.225s-9.599-5.473-9.599-12.225c0-6.75 4.297-12.224 9.599-12.224m-32.472 16.77c-.67 4.431-4.762 7.596-9.15 7.678-6.543.122-9.887-5.355-9.887-12.01 0-3.936.934-6.99 2.798-9.171 1.865-2.175 4.317-3.338 7.358-3.265 4.65.115 7.553 2.657 8.752 7.378-1.385.409-2.77.818-4.155 1.226.02-.005-1.123-4.718-4.82-4.742-3.861-.025-5.303 4.421-5.311 8.516-.008 3.632 1.142 8.22 5.22 8.22 2.621 0 4.378-2.439 4.91-4.943zm-62.161-16.435h17.576v23.676h-4.283v-19.62h-9.009v19.62h-4.284zm147.402 0h4.326v8.905h5.787c4.394 0 7.166 2.825 7.057 7.188-.111 4.362-3.079 7.583-7.057 7.583h-10.113v-16.182zm4.35 19.985h4.366c2.042 0 4.015-1.109 4.015-3.589 0-2.483-2.091-3.576-4.004-3.576h-4.377zm-26.379-3.55c-.669 4.431-4.761 7.596-9.149 7.678-6.543.122-9.887-5.355-9.887-12.01 0-3.936.934-6.99 2.798-9.171 1.864-2.175 4.317-3.338 7.358-3.265 4.65.115 7.553 2.657 8.751 7.378-1.384.409-2.769.818-4.154 1.226.02-.005-1.124-4.718-4.82-4.742-3.861-.025-5.303 4.421-5.312 8.516-.008 3.632 1.143 8.22 5.221 8.22 2.621 0 4.378-2.439 4.91-4.943zm-140.958 26.777h172.768c6.374 0 11.591 5.215 11.591 11.59v.499c0 6.374-5.217 11.59-11.591 11.59h-172.768c-6.375 0-11.59-5.216-11.59-11.59v-.499c0-6.375 5.215-11.59 11.59-11.59"/></svg>