<svg clip-rule="evenodd" fill-rule="evenodd" stroke-miterlimit="22.926" viewBox="0 0 297 297" xmlns="http://www.w3.org/2000/svg"><path d="m148.238 6.506c78.276 0 141.731 63.456 141.731 141.732 0 78.277-63.455 141.733-141.731 141.733s-141.732-63.456-141.732-141.733c0-78.276 63.456-141.732 141.732-141.732" fill="#fff"/><ellipse cx="148.237" cy="148.238" fill="none" rx="141.731" ry="141.732" stroke="#000" stroke-width=".57"/><path d="m148.238 34.902c62.593 0 113.335 50.742 113.335 113.336 0 62.593-50.742 113.335-113.335 113.335s-113.335-50.742-113.335-113.335c0-62.594 50.742-113.336 113.335-113.336m0-24.104c75.905 0 137.438 61.535 137.438 137.44s-61.533 137.438-137.438 137.438-137.439-61.533-137.439-137.438 61.534-137.44 137.439-137.44" fill="#d72717"/><path d="m104.662 179.575h4.403v9.11h8.814v-9.11h4.403v23.674h-4.403v-10.554h-8.814v10.554h-4.403zm23.455-.269h17.964v4.683h-6.339v18.993h-5.232v-18.993h-6.393zm55.524 3.184c6.995 0 6.995 17.307 0 17.307s-6.995-17.307 0-17.307m0-3.57c5.302 0 9.6 5.472 9.6 12.223 0 6.752-4.298 12.224-9.6 12.224-5.301 0-9.599-5.472-9.599-12.224 0-6.751 4.298-12.223 9.599-12.223m40.638.386h4.326v8.905h5.788c4.394 0 7.165 2.825 7.056 7.187-.11 4.364-3.078 7.584-7.056 7.584h-10.114v-16.182zm4.351 19.985h4.365c2.042 0 4.016-1.109 4.016-3.59s-2.091-3.575-4.004-3.575h-4.377zm-72.058-15.91h3.656c1.71 0 3.363 1.167 3.363 3.781s-1.75 3.767-3.354 3.767h-3.665zm-4.431 19.601h4.279v-8.359h4.045c4.274 0 7.643-3.859 7.711-7.735.069-3.875-3.012-7.582-7.291-7.582h-8.744zm-63.103-20.492c6.995 0 6.995 17.307 0 17.307s-6.995-17.307 0-17.307m0-3.57c5.302 0 9.6 5.472 9.6 12.223 0 6.752-4.298 12.224-9.6 12.224s-9.6-5.472-9.6-12.224c0-6.751 4.298-12.223 9.6-12.223m-33.489.631h4.321v8.74c7.097-.695 2.655-9.179 12.086-9.179l.944 4.446c-4.387-.195-5.201 6.248-8.277 6.778 4.867.84 4.539 5.65 10.046 12.913h-5.237c-6.06-9.893-4.659-10.525-9.562-10.525v10.525h-4.321zm146.864-.245h15v23.68h-4.5v-19.673h-6.041l-.296 10.112c-.164 5.565-3.113 9.221-8.498 10.234l-.838-4.39c4.361-.879 4.665-3.556 4.842-6.445zm-131.741-69.617 5.759-4.847c11.166 9.606 18.967 3.975 19.356-.752.722-8.786-22-1.636-22.548-18.122-.372-11.166 16.905-17.955 30.156-6.857l-5.214 5.404c-2.332-1.707-3.777-3.693-9.611-3.842-4.45-.113-7.226 2.279-7.165 5.16.225 8.555 23.358 2.294 22.633 18.191-.659 14.483-23.435 17.383-33.366 5.665m53.186 6.114v-33.41h-11.277v-8.574h31.104v8.574h-11.277v33.41zm28.838-20.707c0-25.228 21.437-26.042 29.407-16.204 7.99 9.862 7.113 37.645-12.323 37.645-11.805 0-17.084-9.783-17.084-21.441m7.304-.282c0 19.349 19.43 19.756 19.43-.118 0-16.89-12.358-16.61-16.748-10.723-1.782 2.395-2.682 6.002-2.682 10.841m38.068 20.989h7.589v-14.823h7.172c7.58 0 13.553-6.843 13.675-13.715.121-6.871-5.342-13.445-12.931-13.445h-15.505zm7.858-34.757h6.484c3.033 0 5.963 2.069 5.963 6.705 0 4.635-3.105 6.678-5.947 6.678h-6.5zm-144.034 55.511h172.768c6.374 0 11.591 5.215 11.591 11.59v.499c0 6.374-5.217 11.59-11.591 11.59h-172.768c-6.375 0-11.59-5.216-11.59-11.59v-.499c0-6.375 5.215-11.59 11.59-11.59"/></svg>