<svg clip-rule="evenodd" fill-rule="evenodd" stroke-miterlimit="22.926" viewBox="0 0 297 297" xmlns="http://www.w3.org/2000/svg"><path d="m148.238 6.506c78.276 0 141.731 63.456 141.731 141.732 0 78.277-63.455 141.733-141.731 141.733s-141.732-63.456-141.732-141.733c0-78.276 63.456-141.732 141.732-141.732" fill="#fff"/><ellipse cx="148.237" cy="148.238" fill="none" rx="141.731" ry="141.732" stroke="#000" stroke-width=".57"/><path d="m92.825 111.521-31.297-18.07 8.386-4.842zm123.85 123.849h-28.183v-28.183zm-90.244-156.273c11.656 0 34.27-.201 45.774.036 24.637.508 45.15 21.146 45.15 46.344v73.105l-28.863-28.865v-44.508c0-10.201-7.188-17.38-17.386-17.384l-44.528-.021-32.909-32.909 32.762-18.916z"/><path d="m221.366 234.817-159.708-159.707c-16.689 19.736-26.755 45.255-26.755 73.128 0 62.593 50.742 113.335 113.335 113.335 27.872 0 53.391-10.066 73.128-26.756m-146.214-173.194 159.7 159.701c16.668-19.734 26.721-45.234 26.721-73.086 0-62.594-50.742-113.336-113.335-113.336-27.852 0-53.353 10.054-73.086 26.721m73.086-50.825c75.905 0 137.439 61.535 137.439 137.44s-61.534 137.438-137.439 137.438-137.439-61.533-137.439-137.438 61.534-137.44 137.439-137.44" fill="#d72717"/></svg>