<svg clip-rule="evenodd" fill-rule="evenodd" stroke-miterlimit="22.926" viewBox="0 0 297 297" xmlns="http://www.w3.org/2000/svg"><path d="m148.272 6.54c78.276 0 141.731 63.456 141.731 141.732 0 78.277-63.455 141.733-141.731 141.733s-141.732-63.456-141.732-141.733c0-78.276 63.456-141.732 141.732-141.732" fill="#f8f100"/><ellipse cx="148.271" cy="148.272" fill="none" rx="141.731" ry="141.732" stroke="#000" stroke-width=".57"/><path d="m221.4 234.851-159.708-159.707c-16.689 19.736-26.755 45.255-26.755 73.128 0 62.593 50.742 113.335 113.335 113.335 27.872 0 53.391-10.066 73.128-26.756m-146.214-173.194 159.7 159.701c16.668-19.734 26.721-45.234 26.721-73.086 0-62.594-50.742-113.336-113.335-113.336-27.852 0-53.353 10.054-73.086 26.721m73.086-50.825c75.905 0 137.439 61.535 137.439 137.44s-61.534 137.438-137.439 137.438-137.439-61.533-137.439-137.438 61.534-137.44 137.439-137.44" fill="#d72717"/><path d="m84.814 103.51c-3.555 6.551-5.579 14.04-5.579 21.979v100.971h28.864v-99.665zm76.466-24.379h-35.685c-7.974 0-15.495 2.04-22.065 5.624l23.082 23.083h34.668v23.118l64.903-37.471-64.903-37.472z"/></svg>