<svg clip-rule="evenodd" fill-rule="evenodd" stroke-miterlimit="22.926" viewBox="0 0 297 297" xmlns="http://www.w3.org/2000/svg"><path d="m148.272 6.54c78.276 0 141.731 63.456 141.731 141.732 0 78.277-63.455 141.733-141.731 141.733s-141.732-63.456-141.732-141.733c0-78.276 63.456-141.732 141.732-141.732" fill="#f8f100"/><ellipse cx="148.271" cy="148.272" fill="none" rx="141.731" ry="141.732" stroke="#000" stroke-width=".57"/><path d="m221.4 234.851-159.708-159.707c-16.689 19.736-26.755 45.255-26.755 73.128 0 62.593 50.742 113.335 113.335 113.335 27.872 0 53.391-10.066 73.128-26.756m-146.214-173.194 159.7 159.701c16.668-19.734 26.721-45.234 26.721-73.086 0-62.594-50.742-113.336-113.335-113.336-27.852 0-53.353 10.054-73.086 26.721m73.086-50.825c75.905 0 137.439 61.535 137.439 137.44s-61.534 137.438-137.439 137.438-137.439-61.533-137.439-137.438 61.534-137.44 137.439-137.44" fill="#d72717"/><path d="m179.29 197.987v37.401h28.889v-8.513zm-61.182-98.651c3.108-13.324 15.119-23.328 29.354-23.328h1.694c16.573 0 30.134 13.561 30.134 30.133v54.375l28.889 28.889v-82.171c0-32.927-26.941-59.866-59.868-59.866-22.158 0-41.604 12.201-51.954 30.216zm-52.928 61.759 37.472 64.904 37.471-64.904h-22.795v-25.07l-28.882-28.883-.001.092v53.861z"/></svg>