<svg clip-rule="evenodd" fill-rule="evenodd" stroke-miterlimit="22.926" viewBox="0 0 297 297" xmlns="http://www.w3.org/2000/svg"><path d="m148.238 6.506c78.276 0 141.731 63.456 141.731 141.732 0 78.277-63.455 141.733-141.731 141.733s-141.732-63.456-141.732-141.733c0-78.276 63.456-141.732 141.732-141.732" fill="#fff"/><ellipse cx="148.237" cy="148.238" fill="none" rx="141.731" ry="141.732" stroke="#000" stroke-width=".57"/><path d="m131.753 143.106c3.141 0 5.712 2.579 5.712 5.732v20.178c0 3.153-2.571 5.732-5.712 5.732h-76.245c-3.141 0-5.713-2.579-5.713-5.732v-20.178c0-3.153 2.572-5.732 5.713-5.732l7.445-22.975c.862-2.658 2.279-5.082 5.066-5.082h51.223c2.786 0 4.204 2.424 5.066 5.082zm-60.95-22.818h45.655c2.279 0 3.441 1.984 4.145 4.158l6.09 18.798h-66.126l5.782-18.798c.673-2.186 2.175-4.158 4.454-4.158m61.388 66.852v-.001-10.841h-15.836v10.842c.001 4.388 3.545 7.945 7.918 7.945 4.374 0 7.918-3.557 7.918-7.945m-61.2 0c0 4.388-3.545 7.945-7.918 7.945s-7.918-3.557-7.918-7.945v-.001-10.841h15.836zm77.246-152.238c62.593 0 113.335 50.742 113.335 113.336 0 62.593-50.742 113.335-113.335 113.335s-113.335-50.742-113.335-113.335c0-62.594 50.742-113.336 113.335-113.336m0-24.104c75.906 0 137.439 61.535 137.439 137.44s-61.533 137.438-137.439 137.438c-75.905 0-137.439-61.533-137.439-137.438s61.534-137.44 137.439-137.44" fill="#d72717"/><path d="m240.966 143.106c3.142 0 5.712 2.579 5.712 5.732v20.178c0 3.153-2.57 5.732-5.712 5.732h-76.244c-3.142 0-5.713-2.579-5.713-5.732v-20.178c0-3.153 2.571-5.732 5.713-5.732l7.444-22.975c.862-2.658 2.279-5.082 5.066-5.082h51.224c2.786 0 4.204 2.424 5.066 5.082zm-60.95-22.818h45.656c2.279 0 3.44 1.984 4.144 4.158l6.091 18.798h-66.127l5.783-18.798c.672-2.186 2.174-4.158 4.453-4.158m61.389 66.852v-.001-10.841h-15.836v10.842c0 4.388 3.544 7.945 7.918 7.945 4.373 0 7.917-3.557 7.918-7.945m-61.201 0c0 4.388-3.545 7.945-7.918 7.945s-7.918-3.557-7.918-7.945v-.001-10.841h15.836z"/></svg>