<svg clip-rule="evenodd" fill-rule="evenodd" stroke-miterlimit="22.926" viewBox="0 0 297 297" xmlns="http://www.w3.org/2000/svg"><path d="m148.272 6.54c78.276 0 141.732 63.456 141.732 141.732 0 78.277-63.456 141.733-141.732 141.733s-141.732-63.456-141.732-141.733c0-78.276 63.456-141.732 141.732-141.732" fill="#f8f100"/><circle cx="148.272" cy="148.272" fill="none" r="141.732" stroke="#000" stroke-width=".57"/><path d="m39.761 224.469 184.709-184.708c-21.558-15.169-47.838-24.077-76.198-24.077-73.226 0-132.588 59.362-132.588 132.588 0 28.361 8.909 54.64 24.077 76.197m6.148 8.077 186.636-186.638c-1.235-1.018-2.497-2.008-3.77-2.984l-185.85 185.851c.975 1.273 1.965 2.534 2.984 3.771m6.7 7.525 187.462-187.462c-1.151-1.104-2.323-2.183-3.511-3.244l-187.196 187.195c1.063 1.188 2.142 2.36 3.245 3.511m7.237 6.986 187.211-187.211c-1.064-1.188-2.147-2.356-3.251-3.504l-187.464 187.464c1.148 1.104 2.317 2.187 3.504 3.251m7.776 6.449 185.884-185.885c-.976-1.272-1.97-2.53-2.989-3.765l-186.661 186.661c1.235 1.02 2.494 2.013 3.766 2.989m189.054-181.586-184.756 184.756c21.587 15.232 47.923 24.184 76.352 24.184 73.225 0 132.588-59.363 132.588-132.588 0-28.428-8.952-54.765-24.184-76.352m-108.404-61.087c75.905 0 137.438 61.533 137.438 137.439.001 75.905-61.533 137.438-137.438 137.438s-137.439-61.533-137.439-137.438c0-75.906 61.534-137.439 137.439-137.439"/><path d="m137.5 162.648-.013 6.768-5.355 5.355-6.767.011zm-.017-14.208.017 6.739-19.604 19.603h-6.754zm-5.696-5.3c1.012 0 1.964.269 2.791.737l-30.905 30.905h-6.756l34.08-34.08zm-60.95-22.818h45.656c2.279 0 3.44 1.985 4.144 4.158l4.677 14.436 3.855-3.855-4.826-14.895c-.862-2.659-2.28-5.082-5.066-5.082h-51.224c-2.786 0-4.204 2.423-5.065 5.082l-7.445 22.974c-3.142 0-5.713 2.58-5.713 5.733v20.177c0 3.153 2.571 5.732 5.713 5.732h33.905l31.504-31.503h-60.35l5.781-18.799c.673-2.185 2.175-4.158 4.454-4.158m59.733 56.011h-6.756l-7.424 7.425c0 2.111-.202 4.35.515 6.241zm1.656 10.841v-5.028l-11.898 11.898c1.74 1.019 4.941 1.392 5.921.834l5.73-5.73c.162-.631.247-1.292.247-1.974m-61.2 0c-.001 10.461-15.837 10.46-15.837 0v-10.841h15.837zm101.025-66.546c1.022-3.156 2.206-5.544 5.545-5.544zm-12.897 27.121c.453-2.262 2.244-4.053 4.5-4.5zm13.41-13.411 3.001-9.755-7.094 7.094-3.24 9.993zm5.286 8.941h-6.756l-12.051 12.05v6.756zm30.424-22.957h17.432c2.279 0 3.44 1.985 4.144 4.158l6.091 18.799h-50.623l-26.255 26.254c.247 2.928 2.713 5.249 5.693 5.249h76.244c3.142 0 5.713-2.579 5.713-5.732v-20.177c0-3.153-2.571-5.732-5.713-5.732l-7.444-22.975c-.862-2.659-2.28-5.082-5.066-5.082h-14.977zm-14.224 0h6.756l5.238-5.238h-6.756zm-13.999 0h6.53l5.238-5.238h-6.756l-5.245 5.245c.077-.005.154-.007.233-.007m61.388 66.852v-10.841h-15.836v10.841c0 10.461 15.835 10.461 15.836 0m-61.2 0c-.001 10.461-15.837 10.46-15.837 0v-10.841h15.837z" fill="#4f4f4f"/></svg>