<svg clip-rule="evenodd" fill-rule="evenodd" stroke-miterlimit="22.926" viewBox="0 0 297 297" xmlns="http://www.w3.org/2000/svg"><path d="m148.272 6.54c78.276 0 141.731 63.456 141.731 141.732 0 78.277-63.455 141.733-141.731 141.733s-141.732-63.456-141.732-141.733c0-78.276 63.456-141.732 141.732-141.732" fill="#f8f100"/><ellipse cx="148.271" cy="148.272" fill="none" rx="141.731" ry="141.732" stroke="#000" stroke-width=".57"/><path d="m69.579 79.305h75.83c4.588 0 8.344 3.755 8.344 8.345v80.062h-3.892v19.526c0 4.334-3.546 7.881-7.881 7.881h-.143c-4.335 0-7.882-3.547-7.882-7.881v-19.526h-10.827c-4.301 3.393-9.731 5.417-15.634 5.417s-11.332-2.024-15.633-5.417h-10.829v19.526c0 4.334-3.547 7.881-7.881 7.881h-.143c-4.335 0-7.881-3.547-7.881-7.881v-19.526h-3.893v-80.062c0-4.59 3.756-8.345 8.345-8.345m78.693-44.369c62.593 0 113.335 50.742 113.335 113.336 0 62.593-50.742 113.335-113.335 113.335s-113.336-50.742-113.336-113.335c0-62.594 50.743-113.336 113.336-113.336m0-24.104c75.905 0 137.438 61.535 137.438 137.44s-61.533 137.438-137.438 137.438-137.439-61.533-137.439-137.438 61.534-137.44 137.439-137.44" fill="#d72717"/><path d="m242.975 143.14c3.142 0 5.713 2.579 5.713 5.732v20.178c0 3.153-2.571 5.732-5.713 5.732h-76.244c-3.142 0-5.713-2.579-5.713-5.732v-20.178c0-3.153 2.571-5.732 5.713-5.732l7.444-22.975c.862-2.658 2.279-5.082 5.066-5.082h51.224c2.786 0 4.204 2.424 5.066 5.082zm-60.949-22.818h45.655c2.279 0 3.44 1.984 4.145 4.158l6.09 18.798h-66.126l5.782-18.798c.672-2.186 2.174-4.158 4.454-4.158m61.388 66.852v-.001-10.841h-15.836v10.842c0 4.388 3.544 7.945 7.918 7.945s7.918-3.557 7.918-7.945m-61.2 0c-.001 4.388-3.546 7.945-7.919 7.945s-7.918-3.557-7.918-7.945v-.001-10.841h15.837z"/></svg>