<svg clip-rule="evenodd" fill-rule="evenodd" stroke-miterlimit="22.926" viewBox="0 0 297 297" xmlns="http://www.w3.org/2000/svg"><path d="m148.272 6.54c78.276 0 141.731 63.456 141.731 141.732 0 78.277-63.455 141.733-141.731 141.733s-141.732-63.456-141.732-141.733c0-78.276 63.456-141.732 141.732-141.732" fill="#fff"/><ellipse cx="148.271" cy="148.272" fill="none" rx="141.731" ry="141.732" stroke="#000" stroke-width=".57"/><path d="m39.761 224.469 184.708-184.709c-21.556-15.168-47.836-24.076-76.197-24.076-73.226 0-132.588 59.362-132.588 132.588 0 28.361 8.909 54.64 24.077 76.197m6.148 8.076 186.637-186.637c-1.237-1.019-2.497-2.009-3.771-2.984l-185.85 185.85c.975 1.274 1.965 2.535 2.984 3.771m6.7 7.525 187.461-187.461c-1.149-1.104-2.322-2.183-3.511-3.245l-187.194 187.195c1.062 1.189 2.141 2.361 3.244 3.511m7.237 6.987 187.211-187.211c-1.063-1.188-2.146-2.356-3.251-3.505l-187.464 187.465c1.148 1.104 2.317 2.187 3.504 3.251m7.776 6.449 185.885-185.885c-.977-1.272-1.97-2.531-2.991-3.765l-186.66 186.66c1.235 1.021 2.494 2.014 3.766 2.99m189.055-181.586-184.756 184.756c21.587 15.231 47.923 24.184 76.351 24.184 73.226 0 132.588-59.363 132.588-132.588 0-28.429-8.952-54.765-24.183-76.352m-108.405-61.088c75.906 0 137.439 61.534 137.439 137.44 0 75.905-61.533 137.438-137.439 137.438-75.905 0-137.439-61.533-137.439-137.438 0-75.906 61.534-137.44 137.439-137.44"/><path d="m175.721 116.958c.327-.436.697-.815 1.118-1.118zm2.129 26.32h-6.06l.309-1.005-11.081 11.081v6.756zm30.424-22.956h19.407c2.279 0 3.439 1.985 4.144 4.158l6.091 18.798h-52.598l-24.3 24.3v1.473c0 3.152 2.571 5.731 5.713 5.731h76.244c3.142 0 5.713-2.579 5.713-5.731v-20.178c0-3.153-2.571-5.732-5.713-5.732l-7.444-22.975c-.862-2.658-2.28-5.082-5.066-5.082h-16.952zm-14.224 0h6.756l5.238-5.238h-6.756zm-12.024 0h4.554l5.24-5.238h-6.756l-13.672 13.672-3.238 9.993 7.263-7.263 2.155-7.006c.671-2.185 2.173-4.158 4.454-4.158m61.388 66.853v-10.842h-15.837v10.842c0 4.387 3.545 7.944 7.918 7.944 4.374 0 7.919-3.557 7.919-7.944m-61.2 0c-.001 4.387-3.546 7.944-7.919 7.944s-7.918-3.557-7.918-7.945v-10.841h15.837zm-32.353-8.44v8.503c0 7.24-8.998 10.574-13.825 5.322zm3.892-18.116v6.756l-.338.338h-3.554v3.555l-15.906 15.904v-6.756zm0-14.224v6.755l-19.798 19.797v-5.234h-1.52zm0-14.224v6.755l-28.787 28.787h-1.838c-2.789 2.199-6.053 3.824-9.611 4.694zm0-14.225v6.756l-48.343 48.343c-1.95-.159-3.838-.54-5.638-1.117zm-84.174-38.64h75.829c4.589 0 8.345 3.755 8.345 8.344v22.828l-59.131 59.131c-.964-.572-1.886-1.206-2.761-1.896h-10.829v15.486l-11.234 11.234c-2.746-1.236-4.671-4.001-4.671-7.195v-19.525h-3.893v-80.063c0-4.589 3.756-8.344 8.345-8.344" fill="#4f4f4f"/></svg>