<svg clip-rule="evenodd" fill-rule="evenodd" stroke-miterlimit="22.926" viewBox="0 0 297 297" xmlns="http://www.w3.org/2000/svg"><path d="m148.272 6.54c78.276 0 141.731 63.456 141.731 141.732 0 78.277-63.455 141.733-141.731 141.733s-141.732-63.456-141.732-141.733c0-78.276 63.456-141.732 141.732-141.732" fill="#f8f100"/><ellipse cx="148.271" cy="148.272" fill="none" rx="141.731" ry="141.732" stroke="#000" stroke-width=".57"/><path d="m148.272 34.936c62.593 0 113.335 50.742 113.335 113.336 0 62.593-50.742 113.335-113.335 113.335s-113.335-50.742-113.335-113.335c0-62.594 50.742-113.336 113.335-113.336m0-24.104c75.905 0 137.438 61.535 137.438 137.44s-61.533 137.438-137.438 137.438-137.439-61.533-137.439-137.438 61.534-137.44 137.439-137.44" fill="#d72717"/><path d="m74.219 116.182 5.029-18.666h63.467v17.989c-14.255 18.687-28.266 56.643-33.67 85.99l-22.316-.485c6.991-29.307 20.724-60.004 34.933-84.828z"/><path d="m190.605 201.285c18.766.01 29.496-16.025 33.312-33.42 4.858-22.145 1.945-60.496-22.552-70.191-15.622-6.178-30.847 1.621-38.803 16.644-13.79 26.049-9.429 86.948 28.043 86.967m.01-18.284c-8.904.098-13.413-9.488-15.254-17.665-2.436-10.771-3.9-46.195 10.652-50.713 7.951-2.471 14.321 1.021 17.69 8.796 5.913 13.658 7.067 59.808-13.088 59.582"/></svg>