<svg clip-rule="evenodd" fill-rule="evenodd" stroke-miterlimit="22.926" viewBox="0 0 297 297" xmlns="http://www.w3.org/2000/svg"><path d="m148.272 6.54c78.276 0 141.731 63.456 141.731 141.732 0 78.277-63.455 141.733-141.731 141.733s-141.732-63.456-141.732-141.733c0-78.276 63.456-141.732 141.732-141.732" fill="#fff"/><ellipse cx="148.271" cy="148.272" fill="none" rx="141.731" ry="141.732" stroke="#000" stroke-width=".57"/><path d="m148.272 34.936c62.593 0 113.335 50.742 113.335 113.336 0 62.593-50.742 113.335-113.335 113.335s-113.335-50.742-113.335-113.335c0-62.594 50.742-113.336 113.335-113.336m0-24.104c75.905 0 137.438 61.535 137.438 137.44s-61.533 137.438-137.438 137.438-137.439-61.533-137.439-137.438 61.534-137.44 137.439-137.44" fill="#d72717"/><path d="m81.106 197.584-1.726-19.865c10.471 8.001 45.107 12.816 46.252-7.537.58-10.346-7.285-14.572-16.64-14.572-2.998 0-6.203.261-9.326 1.334v-16.785c13.938-1.654 21.286-8.069 21.688-16.718.203-4.366-2.916-9.612-10.801-9.892-6.744-.237-16.935 4.385-22.897 9.195l-6.183-17.264c7.257-4.893 21.5-7.871 30.825-7.924 15.118 0 29.037 7.861 29.037 24.434.029 9.447-7.126 17.419-17.864 22.621v.286c13.832 2.103 22.742 14.141 22.742 27.731-.014 21.586-20.726 28.78-37.308 28.78-9.974 0-21.858-.251-27.799-3.824"/><path d="m193.605 201.285c18.766.01 29.496-16.025 33.312-33.42 4.858-22.145 1.945-60.496-22.552-70.191-15.622-6.178-30.847 1.621-38.803 16.644-13.79 26.049-9.429 86.948 28.043 86.967m.01-18.284c-8.904.098-13.413-9.488-15.254-17.665-2.436-10.771-3.9-46.195 10.652-50.713 7.951-2.471 14.321 1.021 17.69 8.796 5.913 13.658 7.067 59.808-13.088 59.582"/></svg>