<svg clip-rule="evenodd" fill-rule="evenodd" stroke-miterlimit="22.926" viewBox="0 0 297 297" xmlns="http://www.w3.org/2000/svg"><path d="m148.272 6.54c78.276 0 141.731 63.456 141.731 141.732 0 78.277-63.455 141.733-141.731 141.733s-141.732-63.456-141.732-141.733c0-78.276 63.456-141.732 141.732-141.732" fill="#f8f100"/><ellipse cx="148.271" cy="148.272" fill="none" rx="141.731" ry="141.732" stroke="#000" stroke-width=".57"/><path d="m148.272 34.936c62.593 0 113.335 50.742 113.335 113.336 0 62.593-50.742 113.335-113.335 113.335s-113.335-50.742-113.335-113.335c0-62.594 50.742-113.336 113.335-113.336m0-24.104c75.905 0 137.438 61.535 137.438 137.44s-61.533 137.438-137.438 137.438-137.439-61.533-137.439-137.438 61.534-137.44 137.439-137.44" fill="#d72717"/><path d="m130.451 191.091c-6.1 6.177-12.349 10.321-20.463 10.321-12.657 0-22.026-7.336-28.265-19.56-4.745-9.287-7.177-19.42-7.177-32.822 0-14.82 5.043-27.208 11.383-37.841 9.085-15.233 31.817-16.209 47.488-9.719l4.211 19.439c-9.782-3.884-27.419-10.835-36.773-.581-6.201 6.797-6.831 12.969-6.831 23.15 9.921-10.431 28.799-12.484 39.441-1.365 11.95 12.479 8.984 36.826-3.014 48.978m-7.215-24.213c0-4.941-.106-8.657-2.37-11.58-2.269-2.927-6.34-4.456-10.239-4.456-3.432 0-6.686 1.139-9.806 3.38-2.822 2.023-6.052 4.21-7.523 7.133.207 5.533 1.557 10.388 4.067 14.56 3.004 4.865 6.907 7.293 11.748 7.293 3.49 0 6.576-1.563 9.21-4.711 2.634-3.149 4.913-6.975 4.913-11.619"/><path d="m193.605 201.285c18.766.01 29.496-16.025 33.312-33.42 4.858-22.145 1.945-60.496-22.552-70.191-15.622-6.178-30.847 1.621-38.803 16.644-13.79 26.049-9.429 86.948 28.043 86.967m.01-18.284c-8.904.098-13.413-9.488-15.254-17.665-2.436-10.771-3.9-46.195 10.652-50.713 7.951-2.471 14.321 1.021 17.69 8.796 5.913 13.658 7.067 59.808-13.088 59.582"/></svg>