<svg clip-rule="evenodd" fill-rule="evenodd" stroke-miterlimit="22.926" viewBox="0 0 297 297" xmlns="http://www.w3.org/2000/svg"><path d="m148.238 6.506c78.276 0 141.731 63.456 141.731 141.732 0 78.277-63.455 141.733-141.731 141.733s-141.732-63.456-141.732-141.733c0-78.276 63.456-141.732 141.732-141.732" fill="#fff"/><ellipse cx="148.237" cy="148.238" fill="none" rx="141.731" ry="141.732" stroke="#000" stroke-width=".57"/><path d="m148.238 34.902c62.593 0 113.335 50.742 113.335 113.336 0 62.593-50.742 113.335-113.335 113.335s-113.335-50.742-113.335-113.335c0-62.594 50.742-113.336 113.335-113.336m0-24.104c75.905 0 137.438 61.535 137.438 137.44s-61.533 137.438-137.438 137.438-137.439-61.533-137.439-137.438 61.534-137.44 137.439-137.44" fill="#d72717"/><path d="m189.249 183.089c-8.89.091-13.388-9.478-15.231-17.64-2.427-10.747-3.892-46.109 10.639-50.627 7.933-2.466 14.297 1.028 17.655 8.782 5.134 11.859 7.008 49.612-7.125 57.833-1.961 1.131-3.951 1.673-5.938 1.652m-.01 18.248c18.733.012 29.447-15.996 33.255-33.36 4.849-22.109 1.943-60.394-22.516-70.071-15.593-6.17-30.792 1.62-38.734 16.618-11.715 22.127-11.151 73.609 17.315 84.779 3.438 1.36 6.992 2.032 10.68 2.034m-110.369-3.168-3.261-20.559c7.303 4.493 15.267 6.182 22.756 6.182 14.108 0 24.019-9.365 24.019-18.661 0-8.868-6.675-17.697-16.888-17.351-4.364.149-9.92 1.703-14.798 6.692l-11.492-5.473v-51.455h58.719l-4.77 17.824h-37.23v20.805c22.618-12.098 46.033 3.927 45.668 26.269-.352 21.465-15.398 38.472-39.251 38.895-7.453.034-15.194-1.893-23.472-3.168"/></svg>