<svg clip-rule="evenodd" fill-rule="evenodd" stroke-miterlimit="22.926" viewBox="0 0 297 297" xmlns="http://www.w3.org/2000/svg"><path d="m148.272 6.54c78.276 0 141.731 63.456 141.731 141.732 0 78.277-63.455 141.733-141.731 141.733s-141.732-63.456-141.732-141.733c0-78.276 63.456-141.732 141.732-141.732" fill="#fff"/><ellipse cx="148.271" cy="148.272" fill="none" rx="141.731" ry="141.732" stroke="#000" stroke-width=".57"/><path d="m148.272 34.936c62.593 0 113.335 50.742 113.335 113.336 0 62.593-50.742 113.335-113.335 113.335s-113.335-50.742-113.335-113.335c0-62.594 50.742-113.336 113.335-113.336m0-24.104c75.905 0 137.438 61.535 137.438 137.44s-61.533 137.438-137.438 137.438-137.439-61.533-137.439-137.438 61.534-137.44 137.439-137.44" fill="#d72717"/><path d="m110.54 97.569c12.655 0 23.152 6.334 29.391 18.538 4.743 9.285 5.665 20.324 5.665 33.706 0 26.064-12.584 52.329-40.791 51.559-7.599-.209-15.164-2.148-21.071-5.375l-.841-18.034c22.786 15.473 44.317 6.24 44.317-22.747-20.818 20.58-47.791 3.008-48.427-21.052-.48-18.176 15.154-36.595 31.757-36.595m-13.253 34.49c0 4.937.104 8.644 2.371 11.562 2.267 2.922 6.339 4.452 10.241 4.452 3.435 0 6.686-1.14 9.808-3.374 2.823-2.024 6.049-4.21 7.518-7.128-.205-5.521-1.55-10.373-4.063-14.536-3.004-4.866-6.696-8.919-11.538-8.919-7.68 0-14.337 10.744-14.337 17.943" fill-rule="nonzero"/><path d="m190.605 201.285c18.766.01 29.496-16.025 33.312-33.42 4.858-22.145 1.945-60.496-22.552-70.191-15.622-6.178-30.847 1.621-38.803 16.644-13.79 26.049-9.429 86.948 28.043 86.967m.01-18.284c-8.904.098-13.413-9.488-15.254-17.665-2.436-10.771-3.9-46.195 10.652-50.713 7.951-2.471 14.321 1.021 17.69 8.796 5.913 13.658 7.067 59.808-13.088 59.582"/></svg>