<svg clip-rule="evenodd" fill-rule="evenodd" stroke-miterlimit="22.926" viewBox="0 0 297 297" xmlns="http://www.w3.org/2000/svg"><path d="m148.272 6.54c78.276 0 141.731 63.456 141.731 141.732 0 78.277-63.455 141.733-141.731 141.733s-141.732-63.456-141.732-141.733c0-78.276 63.456-141.732 141.732-141.732" fill="#f8f100"/><ellipse cx="148.271" cy="148.272" fill="none" rx="141.731" ry="141.732" stroke="#000" stroke-width=".57"/><g fill="#4f4f4f"><path d="m88.702 97.822-.455 103.493h-18.931l-.02-78.337-13.682 8.327-7.206-9.248 22.584-24.24z"/><path d="m211.847 201.587c18.676.01 29.356-15.949 33.154-33.261 4.834-22.039 1.935-60.208-22.445-69.857-15.548-6.149-30.701 1.613-38.619 16.565-13.725 25.925-9.384 86.534 27.91 86.553m.009-18.197c-8.861.098-13.348-9.443-15.181-17.581-2.425-10.719-3.881-45.975 10.601-50.472 7.914-2.459 14.253 1.017 17.606 8.754 5.885 13.593 7.034 59.524-13.026 59.299"/><path d="m102.297 197.452-1.725-19.858c10.468 7.998 45.09 12.812 46.235-7.534.58-10.342-7.283-14.566-16.634-14.566-2.997 0-6.201.261-9.323 1.334v-16.78c13.933-1.652 21.279-8.066 21.68-16.711.203-4.364-2.914-9.608-10.796-9.888-6.742-.237-16.929 4.383-22.888 9.192l-6.181-17.258c7.254-4.891 21.491-7.868 30.813-7.921 15.112 0 29.026 7.858 29.026 24.425.029 9.443-7.123 17.412-17.857 22.612v.285c13.826 2.103 22.733 14.136 22.733 27.721-.014 21.578-20.718 28.77-37.294 28.77-9.97 0-21.849-.252-27.789-3.823"/></g><path d="m39.761 224.469 184.708-184.709c-21.556-15.168-47.836-24.076-76.197-24.076-73.226 0-132.588 59.362-132.588 132.588 0 28.361 8.909 54.64 24.077 76.197m6.148 8.076 186.637-186.637c-1.237-1.019-2.497-2.009-3.771-2.984l-185.85 185.85c.975 1.274 1.965 2.535 2.984 3.771m6.7 7.525 187.461-187.461c-1.149-1.104-2.322-2.183-3.511-3.245l-187.194 187.195c1.062 1.189 2.141 2.361 3.244 3.511m7.237 6.987 187.211-187.211c-1.063-1.188-2.146-2.356-3.251-3.505l-187.464 187.465c1.148 1.104 2.317 2.187 3.504 3.251m7.776 6.449 185.885-185.885c-.977-1.272-1.97-2.531-2.991-3.765l-186.66 186.66c1.235 1.021 2.494 2.014 3.766 2.99m189.055-181.586-184.756 184.756c21.587 15.231 47.923 24.184 76.351 24.184 73.226 0 132.588-59.363 132.588-132.588 0-28.429-8.952-54.765-24.183-76.352m-108.405-61.088c75.906 0 137.439 61.534 137.439 137.44 0 75.905-61.533 137.438-137.439 137.438-75.905 0-137.439-61.533-137.439-137.438 0-75.906 61.534-137.44 137.439-137.44"/></svg>