<svg clip-rule="evenodd" fill-rule="evenodd" stroke-miterlimit="22.926" viewBox="0 0 297 297" xmlns="http://www.w3.org/2000/svg"><path d="m148.272 6.54c78.276 0 141.731 63.456 141.731 141.732 0 78.277-63.455 141.733-141.731 141.733s-141.732-63.456-141.732-141.733c0-78.276 63.456-141.732 141.732-141.732" fill="#f8f100"/><ellipse cx="148.271" cy="148.272" fill="none" rx="141.731" ry="141.732" stroke="#000" stroke-width=".57"/><path d="m180.141 203.438c19.121.01 30.056-16.329 33.944-34.055 4.949-22.564 1.982-61.642-22.98-71.521-15.918-6.295-31.431 1.652-39.538 16.96-14.052 26.543-9.609 88.596 28.574 88.616m.01-18.631c-9.073.1-13.667-9.669-15.543-18.001-2.482-10.974-3.974-47.07 10.854-51.674 8.102-2.517 14.592 1.041 18.025 8.963 6.026 13.917 7.202 60.942-13.336 60.712" fill="#4f4f4f"/><path d="m117.702 97.822-.455 103.493h-18.931l-.02-78.337-13.682 8.327-7.206-9.248 22.584-24.24z" fill="#4f4f4f"/><path d="m39.761 224.469 184.708-184.709c-21.556-15.168-47.836-24.076-76.197-24.076-73.226 0-132.588 59.362-132.588 132.588 0 28.361 8.909 54.64 24.077 76.197m6.148 8.076 186.637-186.637c-1.237-1.019-2.497-2.009-3.771-2.984l-185.85 185.85c.975 1.274 1.965 2.535 2.984 3.771m6.7 7.525 187.461-187.461c-1.149-1.104-2.322-2.183-3.511-3.245l-187.194 187.195c1.062 1.189 2.141 2.361 3.244 3.511m7.237 6.987 187.211-187.211c-1.063-1.188-2.146-2.356-3.251-3.505l-187.464 187.465c1.148 1.104 2.317 2.187 3.504 3.251m7.776 6.449 185.885-185.885c-.977-1.272-1.97-2.531-2.991-3.765l-186.66 186.66c1.235 1.021 2.494 2.014 3.766 2.99m189.055-181.586-184.756 184.756c21.587 15.231 47.923 24.184 76.351 24.184 73.226 0 132.588-59.363 132.588-132.588 0-28.429-8.952-54.765-24.183-76.352m-108.405-61.088c75.906 0 137.439 61.534 137.439 137.44 0 75.905-61.533 137.438-137.439 137.438-75.905 0-137.439-61.533-137.439-137.438 0-75.906 61.534-137.44 137.439-137.44"/></svg>