<svg clip-rule="evenodd" fill-rule="evenodd" stroke-miterlimit="22.926" viewBox="0 0 297 297" xmlns="http://www.w3.org/2000/svg"><path d="m148.272 6.54c78.276 0 141.731 63.456 141.731 141.732 0 78.277-63.455 141.733-141.731 141.733s-141.732-63.456-141.732-141.733c0-78.276 63.456-141.732 141.732-141.732" fill="#f8f100"/><ellipse cx="148.271" cy="148.272" fill="none" rx="141.731" ry="141.732" stroke="#000" stroke-width=".57"/><path d="m189.847 201.587c18.676.01 29.356-15.949 33.154-33.261 4.834-22.039 1.935-60.208-22.445-69.857-15.548-6.149-30.701 1.613-38.619 16.565-13.725 25.925-9.384 86.534 27.91 86.553m.009-18.197c-8.861.098-13.348-9.443-15.181-17.581-2.425-10.719-3.881-45.975 10.601-50.472 7.914-2.459 14.253 1.017 17.606 8.754 5.885 13.593 7.034 59.524-13.026 59.299" fill="#4f4f4f"/><path d="m106.905 97.783c34.164 0 41.59 38.469 17.138 49.748v.303c25.53 9.201 22.067 53.461-17.138 53.461-39.209 0-42.658-44.27-17.137-53.461v-.303c-24.381-11.245-17.104-49.748 17.137-49.748m.005 59.594c18.864 4.035 17.676 22.846 5.594 26.468-21.202 6.353-29.364-21.385-5.594-26.468m14.343-31.707c0 3.795-1.246 6.936-3.723 9.457-2.506 2.501-6.027 4.247-10.625 5.237-4.603-.99-8.128-2.736-10.629-5.237-6.71-6.763-5.204-22.053 10.629-22.053 7.932 0 14.348 4.165 14.348 12.596" fill="#4f4f4f"/><path d="m39.761 224.469 184.708-184.709c-21.556-15.168-47.836-24.076-76.197-24.076-73.226 0-132.588 59.362-132.588 132.588 0 28.361 8.909 54.64 24.077 76.197m6.148 8.076 186.637-186.637c-1.237-1.019-2.497-2.009-3.771-2.984l-185.85 185.85c.975 1.274 1.965 2.535 2.984 3.771m6.7 7.525 187.461-187.461c-1.149-1.104-2.322-2.183-3.511-3.245l-187.194 187.195c1.062 1.189 2.141 2.361 3.244 3.511m7.237 6.987 187.211-187.211c-1.063-1.188-2.146-2.356-3.251-3.505l-187.464 187.465c1.148 1.104 2.317 2.187 3.504 3.251m7.776 6.449 185.885-185.885c-.977-1.272-1.97-2.531-2.991-3.765l-186.66 186.66c1.235 1.021 2.494 2.014 3.766 2.99m189.055-181.586-184.756 184.756c21.587 15.231 47.923 24.184 76.351 24.184 73.226 0 132.588-59.363 132.588-132.588 0-28.429-8.952-54.765-24.183-76.352m-108.405-61.088c75.906 0 137.439 61.534 137.439 137.44 0 75.905-61.533 137.438-137.439 137.438-75.905 0-137.439-61.533-137.439-137.438 0-75.906 61.534-137.44 137.439-137.44"/></svg>