<svg clip-rule="evenodd" fill-rule="evenodd" stroke-miterlimit="22.926" viewBox="0 0 297 297" xmlns="http://www.w3.org/2000/svg"><path d="m148.272 6.54c78.276 0 141.731 63.456 141.731 141.732 0 78.277-63.455 141.733-141.731 141.733s-141.732-63.456-141.732-141.733c0-78.276 63.456-141.732 141.732-141.732" fill="#fff"/><ellipse cx="148.271" cy="148.272" fill="none" rx="141.731" ry="141.732" stroke="#000" stroke-width=".57"/><path d="m186.847 201.587c18.676.01 29.356-15.949 33.154-33.261 4.834-22.039 1.935-60.208-22.445-69.857-15.548-6.149-30.701 1.613-38.619 16.565-13.725 25.925-9.384 86.534 27.91 86.553m.009-18.197c-8.861.098-13.348-9.443-15.181-17.581-2.425-10.719-3.881-45.975 10.601-50.472 7.914-2.459 14.253 1.017 17.606 8.754 5.885 13.593 7.034 59.524-13.026 59.299" fill="#4f4f4f"/><path d="m130.716 191.006c-6.099 6.176-12.346 10.318-20.458 10.318-12.654 0-22.021-7.333-28.258-19.555-4.744-9.284-7.175-19.415-7.175-32.813 0-14.817 5.041-27.201 11.38-37.832 9.083-15.229 31.809-16.205 47.476-9.717l4.21 19.435c-9.78-3.883-27.412-10.832-36.764-.582-6.2 6.796-6.829 12.966-6.829 23.145 9.919-10.429 28.791-12.481 39.431-1.365 11.947 12.476 8.982 36.817-3.013 48.966m-7.214-24.207c0-4.94-.105-8.655-2.369-11.577-2.268-2.926-6.339-4.455-10.236-4.455-3.432 0-6.685 1.139-9.804 3.379-2.821 2.023-6.051 4.21-7.521 7.132.207 5.531 1.557 10.385 4.066 14.556 3.003 4.864 6.905 7.291 11.745 7.291 3.489 0 6.574-1.562 9.208-4.71 2.633-3.148 4.911-6.973 4.911-11.616" fill="#4f4f4f"/><path d="m39.761 224.469 184.708-184.709c-21.556-15.168-47.836-24.076-76.197-24.076-73.226 0-132.588 59.362-132.588 132.588 0 28.361 8.909 54.64 24.077 76.197m6.148 8.076 186.637-186.637c-1.237-1.019-2.497-2.009-3.771-2.984l-185.85 185.85c.975 1.274 1.965 2.535 2.984 3.771m6.7 7.525 187.461-187.461c-1.149-1.104-2.322-2.183-3.511-3.245l-187.194 187.195c1.062 1.189 2.141 2.361 3.244 3.511m7.237 6.987 187.211-187.211c-1.063-1.188-2.146-2.356-3.251-3.505l-187.464 187.465c1.148 1.104 2.317 2.187 3.504 3.251m7.776 6.449 185.885-185.885c-.977-1.272-1.97-2.531-2.991-3.765l-186.66 186.66c1.235 1.021 2.494 2.014 3.766 2.99m189.055-181.586-184.756 184.756c21.587 15.231 47.923 24.184 76.351 24.184 73.226 0 132.588-59.363 132.588-132.588 0-28.429-8.952-54.765-24.183-76.352m-108.405-61.088c75.906 0 137.439 61.534 137.439 137.44 0 75.905-61.533 137.438-137.439 137.438-75.905 0-137.439-61.533-137.439-137.438 0-75.906 61.534-137.44 137.439-137.44"/></svg>