<svg clip-rule="evenodd" fill-rule="evenodd" stroke-miterlimit="22.926" viewBox="0 0 297 297" xmlns="http://www.w3.org/2000/svg"><path d="m148.238 6.506c78.276 0 141.731 63.456 141.731 141.732 0 78.277-63.455 141.733-141.731 141.733s-141.732-63.456-141.732-141.733c0-78.276 63.456-141.732 141.732-141.732" fill="#fff"/><ellipse cx="148.237" cy="148.238" fill="none" rx="141.731" ry="141.732" stroke="#000" stroke-width=".57"/><path d="m221.366 234.817-159.708-159.707c-16.689 19.736-26.755 45.255-26.755 73.128 0 62.593 50.742 113.335 113.335 113.335 27.872 0 53.391-10.066 73.128-26.756m-146.214-173.194 159.7 159.701c16.668-19.734 26.721-45.234 26.721-73.086 0-62.594-50.742-113.336-113.335-113.336-27.852 0-53.353 10.054-73.086 26.721m73.086-50.825c75.905 0 137.439 61.535 137.439 137.44s-61.534 137.438-137.439 137.438-137.439-61.533-137.439-137.438 61.534-137.44 137.439-137.44" fill="#d72717"/><path d="m97.564 126.183c-18.176 1.876-32.727 15.962-35.314 33.918-6.565-11.607-10.315-25.018-10.315-39.305 0-14.256 3.734-27.638 10.273-39.228 2.439 17.926 16.796 32.058 34.826 34.164l10.45 10.451zm64.003 16.611h24.668c-3.688-9.697-12.732-16.611-24.559-16.611h-16.721l-10.396-10.397h28.613c16.734 0 30.424 11.52 34.531 27.008h14.493c2.383-7.714 8.598-13.318 18.067-13.318 9.468 0 18.904 8.464 18.904 18.906 0 10.441-8.464 18.905-18.904 18.905-8.635 0-15.916-5.788-18.179-13.696h-13.156c-.111 7.456-2.45 14.399-6.379 20.185l-7.506-7.506c1.741-3.939 2.863-8.207 3.238-12.679h-15.917zm-54.582-.024h17.086l10.823 10.821h-28.238c-6.628 0-12.054 5.426-12.054 12.054v1.63c0 6.629 5.424 12.054 12.054 12.054h53.974l9.79 9.789c-2.755.658-5.627 1.007-8.576 1.007h-54.859c-12.749 0-23.18-10.43-23.18-23.179v-.991c0-12.749 10.431-23.185 23.18-23.185"/></svg>