<svg clip-rule="evenodd" fill-rule="evenodd" stroke-linecap="round" stroke-linejoin="round" stroke-miterlimit="1.5" viewBox="0 0 297 297" xmlns="http://www.w3.org/2000/svg"><path d="m148.272 6.54c78.276 0 141.731 63.456 141.731 141.732 0 78.277-63.455 141.733-141.731 141.733s-141.732-63.456-141.732-141.733c0-78.276 63.456-141.732 141.732-141.732" fill="#fff"/><g stroke="#000"><path d="m123.35 143.302 39.9.021 9.715 9.811-41.428-.016z"/><path d="m160.753 179.903s8.016-.465 15.788-5.086c5.706-3.393 8.918-8.09 8.918-8.09l6.653 6.807s-2.657 5.401-9.69 9.954c-7.627 4.936-12.384 5.22-12.384 5.22z"/><ellipse cx="148.271" cy="148.272" fill="none" rx="141.731" ry="141.732" stroke-linecap="butt" stroke-linejoin="miter" stroke-miterlimit="22.926" stroke-width=".57"/></g><path d="m148.272 34.936c62.593 0 113.335 50.742 113.335 113.336 0 62.593-50.742 113.335-113.335 113.335s-113.335-50.742-113.335-113.335c0-62.594 50.742-113.336 113.335-113.336m0-24.104c75.905 0 137.438 61.535 137.438 137.44s-61.533 137.438-137.438 137.438-137.439-61.533-137.439-137.438 61.534-137.44 137.439-137.44" fill="#d72717"/><path d="m97.598 126.217c-18.176 1.876-32.727 15.962-35.314 33.918-6.565-11.607-10.315-25.018-10.315-39.305 0-14.256 3.734-27.638 10.273-39.228 2.439 17.926 16.796 32.058 34.826 34.164l10.45 10.451zm64.003 16.611h24.668c-3.688-9.697-12.732-16.611-24.559-16.611h-16.721l-10.396-10.397h28.613c16.734 0 30.424 11.52 34.531 27.008h14.493c2.383-7.714 8.598-13.318 18.067-13.318 9.468 0 18.904 8.464 18.904 18.906 0 10.441-8.464 18.905-18.904 18.905-8.635 0-15.916-5.788-18.179-13.696h-13.156c-.111 7.456-2.45 14.399-6.379 20.185l-7.506-7.506c1.741-3.939 2.863-8.207 3.238-12.679h-15.917zm-54.582-.024h17.086l10.823 10.821h-28.238c-6.628 0-12.054 5.426-12.054 12.054v1.63c0 6.629 5.424 12.054 12.054 12.054h53.974l9.79 9.789c-2.755.658-5.627 1.007-8.576 1.007h-54.859c-12.749 0-23.18-10.43-23.18-23.179v-.991c0-12.749 10.431-23.185 23.18-23.185"/><path d="m97.052 116.257 38.509.038 10.453 9.417-38.961-.015z" stroke="#000"/></svg>