<svg clip-rule="evenodd" fill-rule="evenodd" stroke-miterlimit="22.926" viewBox="0 0 297 297" xmlns="http://www.w3.org/2000/svg"><path d="m148.238 6.506c78.276 0 141.731 63.456 141.731 141.732 0 78.277-63.455 141.733-141.731 141.733s-141.732-63.456-141.732-141.733c0-78.276 63.456-141.732 141.732-141.732" fill="#fff"/><ellipse cx="148.237" cy="148.238" fill="none" rx="141.731" ry="141.732" stroke="#000" stroke-width=".57"/><path d="m221.324 61.623-73.086 73.086-73.086-73.086.024-.021c.603-.508 1.211-1.011 1.825-1.508l.058-.047c2.146-1.734 4.358-3.392 6.629-4.969l.222-.153c.615-.425 1.234-.844 1.857-1.257l.183-.12c.632-.417 1.268-.828 1.909-1.232l.045-.029c.86-.542 1.729-1.071 2.604-1.591l.593-.349c.554-.326 1.112-.644 1.672-.959l.562-.315c.546-.304 1.095-.602 1.648-.897.283-.152.568-.301.853-.449.477-.25.956-.497 1.436-.74.425-.214.852-.426 1.28-.635.342-.167.684-.333 1.028-.497.469-.222.939-.442 1.411-.659.405-.185.812-.369 1.219-.551.433-.192.868-.381 1.304-.57.399-.171.8-.341 1.202-.508.513-.215 1.027-.425 1.545-.632.307-.123.614-.244.922-.363.55-.214 1.103-.424 1.659-.63.266-.098.533-.197.8-.294.601-.218 1.205-.43 1.811-.637l.71-.243c.669-.224 1.341-.442 2.015-.654l.717-.223c.682-.21 1.365-.414 2.052-.611l.636-.178c.674-.19 1.349-.373 2.028-.549l.581-.151c.71-.179 1.423-.353 2.138-.521l.509-.119c.789-.181 1.582-.353 2.377-.518l.379-.077c.8-.162 1.603-.316 2.41-.462l.425-.075c.783-.138 1.567-.269 2.354-.39l.384-.058c.811-.122 1.626-.237 2.442-.342l.312-.04c.883-.113 1.771-.214 2.662-.305l.148-.016c.888-.088 1.779-.167 2.673-.236l.285-.021c.85-.063 1.701-.118 2.556-.162l.31-.016c.875-.043 1.754-.076 2.634-.1l.199-.006c.947-.023 1.896-.036 2.849-.036.952 0 1.901.013 2.849.036l.199.006c.88.024 1.758.057 2.633.1l.31.016c.855.044 1.707.099 2.557.162l.284.021c.895.069 1.785.148 2.673.236l.149.016c.89.091 1.778.192 2.661.305l.312.04c.817.105 1.632.22 2.442.342l.384.058c.787.121 1.572.252 2.354.39l.426.075c.806.146 1.609.3 2.409.462l.38.077c.795.165 1.588.337 2.376.518l.51.119c.715.168 1.428.341 2.138.521l.58.151c.679.176 1.356.359 2.029.549l.636.178c.687.197 1.37.402 2.051.611l.718.223c.674.212 1.345.43 2.014.654l.71.243c.606.207 1.21.419 1.812.637l.801.294c.554.206 1.107.416 1.658.63.307.12.615.24.922.363.516.207 1.032.418 1.546.632.401.167.801.337 1.201.508.436.188.871.378 1.304.57.408.182.814.366 1.218.551.473.217.944.436 1.412.659.344.164.686.33 1.028.497.428.209.854.421 1.28.635.48.243.959.49 1.435.74l.854.449c.552.295 1.102.593 1.648.897l.562.315c.56.315 1.118.633 1.672.959l.593.349c.875.52 1.744 1.049 2.604 1.591l.045.029c.641.404 1.276.816 1.908 1.232l.184.12c.623.413 1.242.832 1.857 1.257l.222.153c2.271 1.577 4.482 3.235 6.629 4.969l.058.047c.614.497 1.222 1 1.825 1.508zm-59.597 86.576 73.09-73.089.019.022c1.748 2.068 3.422 4.199 5.02 6.39l.258.355c.404.558.803 1.12 1.196 1.685l.282.407c.382.553.76 1.112 1.133 1.673l.347.527c.352.535.699 1.073 1.042 1.615.226.359.45.717.673 1.078.283.461.563.924.841 1.389.176.296.352.593.526.891.279.477.554.957.826 1.438.172.304.342.608.512.915.254.46.505.922.754 1.387.209.391.417.784.622 1.179.193.373.386.746.575 1.122.243.48.484.963.72 1.448l.42.869c.246.517.488 1.036.727 1.558.154.334.306.669.455 1.004.238.532.471 1.065.701 1.601.132.311.264.622.395.935.243.583.484 1.169.718 1.756.103.258.203.518.305.777.228.588.454 1.179.673 1.772l.249.681c.232.637.457 1.276.677 1.92l.207.605c.241.716.474 1.434.699 2.156l.184.589c.218.707.429 1.416.633 2.128l.157.555c.197.703.388 1.409.572 2.117l.13.505c.187.733.366 1.468.538 2.206l.105.444c.19.831.371 1.664.544 2.502l.047.229c.167.824.325 1.651.475 2.481l.069.39c.14.794.272 1.59.395 2.39l.053.343c.124.819.238 1.641.345 2.465l.041.317c.111.884.213 1.771.304 2.661l.015.152c.09.888.169 1.779.238 2.672l.019.262c.063.856.118 1.715.164 2.576l.015.314c.043.875.077 1.753.1 2.634l.005.189c.024.948.036 1.898.036 2.852 0 .952-.012 1.902-.036 2.849l-.005.199c-.023.88-.058 1.758-.101 2.634l-.015.309c-.045.856-.099 1.707-.162 2.557l-.022.284c-.068.895-.147 1.785-.236 2.673l-.015.15c-.091.889-.193 1.777-.304 2.661l-.041.311c-.106.818-.22 1.632-.342 2.443l-.059.383c-.122.787-.252 1.573-.39 2.354l-.075.427c-.144.805-.3 1.608-.462 2.408l-.077.38c-.165.796-.336 1.588-.517 2.378l-.119.508c-.167.715-.341 1.428-.522 2.138l-.149.58c-.177.679-.361 1.356-.549 2.03l-.18.635c-.197.687-.4 1.37-.61 2.051l-.223.718c-.212.675-.43 1.346-.654 2.014l-.242.71c-.208.606-.42 1.21-.638 1.812l-.295.801c-.206.554-.416 1.107-.63 1.658-.119.308-.24.615-.362.922-.207.516-.418 1.032-.632 1.546-.168.401-.337.801-.509 1.201-.187.436-.377.871-.57 1.305-.181.407-.365.813-.551 1.217-.217.473-.435.944-.659 1.412-.163.344-.329.686-.496 1.028-.21.428-.421.854-.636 1.28-.242.481-.489.959-.738 1.436-.15.285-.299.57-.45.853-.294.552-.594 1.102-.898 1.649l-.313.561c-.316.561-.635 1.118-.959 1.672l-.35.593c-.519.876-1.05 1.744-1.592 2.604l-.028.045c-.404.641-.815 1.277-1.232 1.909l-.121.183c-.413.623-.831 1.242-1.255 1.857l-.155.222c-1.577 2.272-3.234 4.482-4.969 6.629l-.046.059c-.496.613-.999 1.221-1.509 1.824l-.021.024-73.125-73.125zm-86.617 86.618 73.128-73.128 73.128 73.128-.022.019c-2.068 1.748-4.2 3.422-6.39 5.02l-.356.259c-.557.404-1.119.802-1.684 1.196l-.406.281c-.555.383-1.113.76-1.674 1.134l-.528.346c-.535.352-1.073.699-1.615 1.042-.357.227-.717.45-1.078.673-.46.283-.923.564-1.389.841-.296.177-.592.352-.89.526-.477.28-.956.554-1.438.826-.304.171-.609.342-.915.512-.46.254-.923.505-1.386.754-.392.209-.785.417-1.179.622-.373.193-.747.386-1.122.576-.482.243-.964.483-1.449.719-.289.141-.579.281-.869.42-.517.246-1.037.488-1.558.728-.334.152-.668.305-1.004.455-.531.237-1.066.47-1.601.7-.31.133-.622.264-.934.395-.583.243-1.169.485-1.758.719l-.776.304c-.588.228-1.179.454-1.772.674l-.681.249c-.637.231-1.277.457-1.92.676l-.606.207c-.716.242-1.434.474-2.155.701l-.59.182c-.706.218-1.415.429-2.128.633l-.555.157c-.703.198-1.409.388-2.117.573l-.505.129c-.732.187-1.468.367-2.206.539l-.443.104c-.83.19-1.664.372-2.502.544l-.229.047c-.824.167-1.651.325-2.482.475l-.389.069c-.794.139-1.59.272-2.389.395l-.344.053c-.819.124-1.641.238-2.466.345l-.316.041c-.884.112-1.771.213-2.662.304l-.151.015c-.889.091-1.779.169-2.673.238l-.261.019c-.856.063-1.715.118-2.577.164l-.313.016c-.876.043-1.754.076-2.634.099l-.188.006c-.949.023-1.9.035-2.853.035-.954 0-1.904-.012-2.852-.035l-.189-.006c-.881-.023-1.759-.056-2.634-.099l-.314-.016c-.862-.046-1.721-.101-2.576-.164l-.262-.019c-.894-.069-1.785-.148-2.672-.238l-.152-.015c-.891-.091-1.778-.192-2.661-.304l-.317-.041c-.824-.107-1.646-.221-2.466-.345l-.342-.053c-.8-.123-1.596-.256-2.391-.395l-.389-.069c-.83-.15-1.657-.308-2.481-.475l-.23-.047c-.837-.172-1.671-.354-2.502-.544l-.443-.104c-.738-.172-1.474-.352-2.206-.539l-.505-.129c-.708-.185-1.414-.375-2.117-.573l-.555-.157c-.712-.204-1.421-.415-2.128-.633l-.59-.182c-.72-.227-1.44-.459-2.155-.701l-.606-.207c-.643-.219-1.283-.445-1.919-.676l-.681-.249c-.594-.22-1.183-.446-1.772-.674l-.776-.304c-.589-.234-1.175-.476-1.758-.719-.313-.131-.624-.262-.934-.395-.536-.23-1.07-.463-1.601-.7-.336-.15-.67-.303-1.004-.455-.521-.24-1.041-.482-1.558-.728l-.869-.42c-.485-.236-.968-.476-1.449-.719-.375-.19-.749-.382-1.122-.576-.394-.205-.787-.413-1.179-.622-.464-.248-.926-.5-1.387-.754-.305-.17-.61-.34-.914-.512-.482-.272-.961-.546-1.438-.826-.298-.174-.595-.349-.891-.526-.465-.277-.928-.558-1.388-.841-.361-.223-.721-.447-1.079-.673-.542-.343-1.08-.69-1.615-1.042l-.527-.346c-.562-.374-1.12-.752-1.674-1.134l-.406-.281c-.565-.394-1.127-.792-1.685-1.196l-.355-.259c-2.191-1.598-4.322-3.272-6.39-5.02zm59.638-86.618-73.125 73.125-.02-.024c-.509-.603-1.012-1.211-1.509-1.824l-.047-.059c-1.734-2.147-3.391-4.357-4.969-6.629l-.153-.222c-.425-.615-.844-1.234-1.257-1.857l-.12-.183c-.417-.632-.828-1.268-1.232-1.909l-.029-.045c-.542-.86-1.071-1.729-1.591-2.604l-.35-.593c-.324-.554-.644-1.111-.959-1.672l-.313-.561c-.304-.547-.604-1.097-.898-1.649-.151-.283-.301-.568-.45-.853-.249-.477-.495-.955-.738-1.436-.215-.426-.426-.852-.636-1.28-.167-.341-.333-.684-.496-1.028-.223-.468-.443-.939-.659-1.412-.186-.404-.37-.81-.551-1.217-.193-.434-.383-.869-.571-1.305-.171-.4-.34-.8-.508-1.201-.214-.514-.426-1.03-.632-1.546-.122-.307-.243-.614-.362-.922-.214-.551-.425-1.104-.63-1.658l-.295-.801c-.218-.602-.43-1.205-.637-1.812-.082-.236-.164-.472-.243-.71-.225-.668-.442-1.339-.654-2.014l-.224-.718c-.209-.681-.413-1.364-.609-2.051l-.18-.635c-.189-.674-.372-1.351-.548-2.03l-.15-.58c-.181-.71-.354-1.422-.522-2.138l-.119-.508c-.181-.79-.354-1.582-.518-2.378l-.077-.38c-.162-.8-.316-1.603-.462-2.408l-.075-.427c-.138-.781-.267-1.567-.389-2.354l-.059-.383c-.122-.811-.236-1.625-.342-2.443l-.04-.311c-.112-.884-.214-1.772-.305-2.661l-.015-.15c-.09-.888-.168-1.778-.237-2.673l-.022-.284c-.063-.85-.116-1.702-.161-2.557l-.016-.309c-.043-.876-.076-1.754-.1-2.634l-.005-.199c-.025-.947-.036-1.897-.036-2.849 0-.954.012-1.904.036-2.852l.005-.189c.024-.881.057-1.759.1-2.634l.015-.314c.046-.861.1-1.72.164-2.576l.019-.262c.069-.893.148-1.785.238-2.672l.015-.152c.091-.891.193-1.777.304-2.661l.041-.317c.107-.824.221-1.646.345-2.465l.053-.343c.123-.8.255-1.597.395-2.39l.069-.39c.15-.83.308-1.657.476-2.481l.046-.229c.172-.838.354-1.671.544-2.502l.104-.444c.173-.737.352-1.472.539-2.206l.13-.505c.184-.708.375-1.414.572-2.117l.157-.555c.204-.712.415-1.421.633-2.128l.183-.589c.226-.721.459-1.441.699-2.156l.208-.605c.22-.644.445-1.283.676-1.92l.25-.681c.219-.592.445-1.183.674-1.772.101-.259.201-.519.303-.777.235-.587.475-1.173.719-1.756.13-.313.262-.624.395-.935.229-.536.463-1.069.7-1.601.15-.335.303-.67.456-1.004.239-.522.481-1.041.727-1.558l.42-.869c.236-.485.476-.968.719-1.448.19-.376.382-.75.576-1.122.205-.395.413-.788.622-1.179.248-.465.5-.927.754-1.387.17-.306.34-.611.512-.915.272-.481.547-.961.826-1.438l.526-.891c.277-.465.558-.928.841-1.389.222-.361.447-.719.673-1.078.342-.542.691-1.08 1.042-1.615l.347-.527c.372-.561.751-1.12 1.133-1.673l.282-.407c.393-.566.791-1.127 1.195-1.685l.259-.355c1.598-2.191 3.272-4.322 5.02-6.39l.018-.022zm13.49-137.4c75.905 0 137.439 61.534 137.439 137.439 0 75.906-61.534 137.439-137.439 137.439s-137.439-61.533-137.439-137.439c0-75.905 61.534-137.439 137.439-137.439" fill="#d72717"/><path d="m215.094 61.952c-1.532-1.188-3.091-2.341-4.684-3.444l-.221-.155c-.587-.406-1.177-.806-1.773-1.198l-.182-.12c-.614-.403-1.229-.802-1.848-1.193l-.046-.029c-.823-.521-1.656-1.029-2.495-1.524l-.593-.351c-.524-.309-1.054-.612-1.586-.909l-.561-.313c-.517-.289-1.035-.574-1.559-.849l-.852-.45c-.455-.239-.913-.473-1.371-.704-.409-.206-.819-.41-1.231-.612-.329-.161-.66-.321-.992-.478-.45-.216-.903-.427-1.359-.635-.389-.18-.78-.356-1.172-.531-.417-.185-.835-.368-1.255-.548-.385-.166-.771-.329-1.158-.49-.495-.206-.992-.41-1.49-.61-.295-.117-.59-.233-.885-.347-.527-.205-1.055-.408-1.586-.603l-.801-.295c-.571-.21-1.145-.409-1.72-.605l-.711-.243c-.632-.215-1.267-.419-1.905-.618l-.719-.223c-.645-.201-1.293-.396-1.944-.579l-.636-.179c-.644-.183-1.289-.358-1.937-.524l-.581-.151c-.68-.176-1.363-.339-2.046-.499l-.509-.119c-.751-.176-1.505-.337-2.26-.491l-.38-.077c-.765-.157-1.53-.306-2.299-.442l-.426-.075c-.751-.132-1.503-.26-2.257-.374l-.384-.059c-.782-.119-1.566-.227-2.352-.329l-.311-.04c-.845-.109-1.692-.206-2.539-.291l-.15-.014c-.855-.085-1.712-.164-2.569-.228l-.285-.021c-.818-.062-1.637-.115-2.456-.157l-.311-.015c-.845-.043-1.691-.072-2.538-.097l-.2-.005c-.91-.025-1.82-.034-2.731-.034-.912 0-1.823.009-2.733.034l-.199.005c-.847.025-1.693.054-2.538.097l-.312.015c-.818.042-1.637.095-2.455.157l-.286.021c-.857.064-1.713.143-2.569.228l-.149.014c-.848.085-1.695.182-2.54.291l-.311.04c-.784.102-1.569.21-2.351.329l-.384.059c-.755.114-1.505.242-2.257.374l-.426.075c-.769.136-1.535.285-2.299.442l-.38.077c-.755.154-1.51.315-2.26.491l-.509.119c-.683.16-1.367.323-2.046.499l-.58.151c-.649.166-1.294.341-1.939.524l-.636.179c-.65.183-1.298.378-1.944.579l-.719.223c-.637.199-1.273.403-1.905.618l-.71.243c-.582.198-1.161.403-1.739.612-.257.093-.514.188-.77.283-.535.199-1.069.402-1.601.609-.295.114-.589.229-.883.346-.497.2-.993.403-1.488.61-.388.161-.774.324-1.159.49-.42.18-.838.363-1.255.548-.392.175-.783.351-1.173.531-.454.209-.909.419-1.36.635-.332.157-.661.317-.991.478-.411.201-.819.404-1.227.61-.464.235-.927.472-1.387.714-.274.142-.548.286-.82.431-.528.283-1.055.567-1.578.86l-.561.313c-.532.297-1.062.6-1.587.909l-.592.351c-.84.495-1.672 1.003-2.495 1.524l-.046.029c-.619.391-1.235.79-1.848 1.193l-.182.12c-.596.392-1.186.792-1.773 1.198l-.222.155c-1.593 1.103-3.151 2.256-4.683 3.444l66.857 66.856zm-47.466 86.247 66.896 66.896c1.187-1.533 2.34-3.09 3.444-4.684l.153-.222c.407-.587.808-1.176 1.2-1.772l.12-.183c.402-.613.8-1.228 1.192-1.847l.029-.046c.522-.824 1.03-1.656 1.525-2.495l.349-.593c.311-.525.613-1.054.91-1.586l.314-.562c.292-.522.576-1.049.857-1.576.146-.273.29-.547.434-.821.24-.46.478-.921.712-1.384.206-.41.41-.821.612-1.233.16-.328.321-.658.478-.989.214-.45.425-.903.633-1.356.179-.391.357-.783.532-1.177.185-.417.368-.836.549-1.256.165-.383.329-.769.49-1.156.206-.495.41-.992.608-1.49.118-.295.234-.591.349-.887.205-.526.407-1.055.602-1.585l.294-.801c.21-.57.411-1.144.607-1.719l.242-.71c.216-.632.42-1.269.618-1.907l.224-.717c.201-.647.394-1.294.578-1.946l.18-.635c.181-.644.357-1.289.524-1.938l.149-.58c.176-.681.34-1.363.5-2.047l.119-.509c.175-.751.338-1.505.492-2.259l.077-.38c.156-.765.306-1.531.44-2.299l.076-.427c.132-.751.259-1.503.374-2.257l.058-.383c.119-.783.228-1.567.329-2.352l.041-.312c.11-.844.206-1.691.29-2.539l.015-.149c.086-.856.164-1.712.229-2.569l.021-.286c.061-.818.114-1.636.155-2.456l.016-.31c.043-.846.073-1.692.097-2.538l.005-.199c.026-.912.035-1.822.035-2.733 0-.91-.008-1.82-.035-2.729l-.005-.189c-.026-.849-.054-1.699-.097-2.548l-.016-.313c-.041-.829-.097-1.656-.157-2.484l-.019-.261c-.062-.854-.142-1.706-.228-2.557l-.015-.152c-.086-.848-.18-1.695-.29-2.539l-.041-.317c-.104-.793-.212-1.585-.333-2.376l-.051-.342c-.118-.767-.247-1.532-.381-2.296l-.069-.389c-.14-.795-.296-1.587-.456-2.378l-.046-.229c-.161-.795-.332-1.588-.517-2.378l-.105-.444c-.165-.708-.336-1.414-.516-2.119l-.13-.505c-.174-.676-.358-1.35-.547-2.021l-.157-.555c-.191-.679-.393-1.352-.602-2.025l-.183-.59c-.212-.684-.432-1.365-.663-2.043l-.208-.607c-.209-.612-.421-1.223-.645-1.831l-.249-.68c-.209-.568-.425-1.131-.645-1.695-.096-.249-.193-.498-.292-.746-.226-.567-.458-1.132-.693-1.695-.125-.3-.252-.6-.38-.899-.222-.516-.446-1.031-.675-1.543-.144-.324-.291-.644-.438-.965-.228-.496-.454-.992-.692-1.484l-.419-.869c-.224-.463-.455-.922-.686-1.38-.184-.362-.369-.722-.556-1.082-.197-.379-.396-.757-.597-1.133-.24-.448-.482-.893-.727-1.336-.163-.294-.327-.588-.492-.88-.263-.464-.527-.927-.797-1.388-.168-.287-.338-.573-.508-.858-.266-.448-.536-.893-.808-1.336-.215-.348-.432-.695-.65-1.039-.328-.521-.662-1.038-1-1.551l-.346-.528c-.352-.534-.712-1.063-1.078-1.589l-.281-.407c-.373-.538-.751-1.073-1.137-1.602l-.258-.355c-.652-.892-1.318-1.772-1.996-2.642zm-86.29 86.29c.871.679 1.751 1.346 2.643 1.996l.354.259c.53.386 1.065.764 1.603 1.137l.406.281c.526.365 1.056.726 1.59 1.077l.528.347c.513.339 1.031.672 1.551 1.001.345.219.691.434 1.039.648.442.274.888.543 1.335.809.285.171.571.34.858.508.461.268.923.534 1.388.796.293.166.586.33.88.493.443.245.888.486 1.335.725.378.202.756.403 1.137.6.359.186.719.371 1.08.555.458.231.917.461 1.38.685l.868.42c.491.236.986.464 1.481.69.323.149.647.295.97.441.513.228 1.026.453 1.541.674.3.128.599.254.899.38.556.231 1.112.463 1.672.683l.777.305c.56.22 1.123.434 1.687.641l.681.25c.607.224 1.219.436 1.831.645l.606.208c.678.23 1.36.45 2.043.663l.59.183c.673.209 1.347.411 2.024.602l.555.157c.672.189 1.347.373 2.023.546l.505.13c.705.181 1.411.352 2.119.517l.443.104c.79.186 1.583.357 2.378.518l.229.046c.791.16 1.583.315 2.378.456l.389.069c.765.134 1.529.263 2.296.38l.343.052c.79.121 1.583.229 2.376.333l.316.041c.845.109 1.691.204 2.539.29l.152.015c.851.086 1.704.166 2.557.228l.262.019c.827.059 1.654.116 2.483.157l.314.016c.848.042 1.698.071 2.548.096l.188.006c.909.026 1.819.034 2.73.034.909 0 1.819-.008 2.729-.034l.189-.006c.849-.025 1.698-.054 2.547-.096l.314-.016c.828-.041 1.656-.098 2.483-.157l.261-.019c.854-.062 1.706-.142 2.558-.228l.152-.015c.847-.086 1.694-.181 2.539-.29l.315-.041c.794-.104 1.586-.212 2.376-.333l.343-.052c.768-.117 1.531-.246 2.296-.38l.389-.069c.795-.141 1.588-.296 2.379-.456l.228-.046c.796-.161 1.589-.332 2.379-.518l.443-.104c.708-.165 1.415-.336 2.119-.517l.504-.13c.677-.173 1.351-.357 2.023-.546l.555-.157c.677-.191 1.352-.393 2.024-.602l.59-.183c.683-.213 1.366-.433 2.044-.663l.606-.208c.612-.209 1.223-.421 1.83-.645l.681-.25c.565-.207 1.127-.421 1.689-.641l.775-.305c.56-.22 1.117-.452 1.673-.683.3-.126.599-.252.898-.38.516-.221 1.029-.446 1.542-.675.323-.145.647-.291.97-.44.502-.23 1.003-.463 1.503-.702.277-.132.555-.266.831-.401.467-.227.931-.458 1.393-.692.363-.183.724-.369 1.084-.556.379-.196.756-.396 1.132-.598.448-.239.894-.481 1.337-.726.296-.163.59-.328.883-.494.464-.262.925-.527 1.386-.795.286-.168.572-.337.857-.508.447-.266.894-.535 1.336-.809.347-.214.692-.429 1.036-.646.521-.33 1.039-.664 1.554-1.003l.527-.347c.535-.351 1.065-.712 1.591-1.077l.405-.281c.539-.373 1.075-.751 1.603-1.137l.355-.259c.892-.65 1.772-1.317 2.643-1.996l-66.899-66.899-66.9 66.899zm47.509-86.29-66.86-66.86c-.68.87-1.346 1.75-1.997 2.642l-.258.355c-.387.529-.764 1.064-1.137 1.602l-.282.407c-.365.526-.725 1.055-1.077 1.589l-.347.528c-.337.513-.671 1.03-.999 1.549-.218.345-.434.691-.648 1.039-.271.439-.54.88-.802 1.324l-.527.891c-.267.452-.527.909-.784 1.366-.166.294-.331.589-.494.884-.246.443-.487.887-.726 1.333-.202.378-.402.758-.601 1.139-.186.358-.37.716-.552 1.076-.232.459-.463.919-.687 1.382l-.419.869c-.237.491-.464.986-.692 1.482-.147.322-.294.644-.439.969-.228.511-.453 1.024-.674 1.539-.127.299-.254.599-.379.9-.236.563-.468 1.128-.694 1.694-.099.249-.196.498-.293.748-.219.564-.435 1.127-.644 1.695l-.249.68c-.224.608-.436 1.219-.646 1.831l-.207.607c-.231.678-.451 1.359-.663 2.043l-.184.59c-.208.673-.41 1.346-.602 2.025l-.156.555c-.19.671-.373 1.345-.547 2.021l-.13.505c-.181.705-.351 1.411-.517 2.119l-.104.444c-.185.79-.356 1.583-.517 2.378l-.047.229c-.159.791-.315 1.583-.456 2.378l-.069.389c-.134.764-.262 1.529-.379 2.296l-.053.342c-.121.791-.228 1.583-.332 2.376l-.042.317c-.109.844-.204 1.691-.289 2.539l-.015.152c-.086.851-.166 1.703-.228 2.557l-.019.261c-.06.828-.116 1.655-.158 2.484l-.015.313c-.043.849-.072 1.699-.097 2.548l-.005.189c-.027.909-.035 1.819-.035 2.729 0 .911.009 1.821.035 2.733l.005.199c.024.846.054 1.692.097 2.538l.015.31c.042.82.095 1.638.156 2.456l.022.286c.064.857.142 1.713.228 2.569l.014.149c.085.848.181 1.695.291 2.539l.04.312c.102.785.21 1.569.329 2.352l.059.383c.114.754.241 1.506.374 2.257l.075.427c.135.768.285 1.534.441 2.299l.077.38c.154.754.316 1.508.492 2.259l.119.509c.16.684.323 1.366.499 2.047l.15.58c.167.649.342 1.294.524 1.938l.18.635c.183.652.377 1.299.578 1.946l.224.717c.201.646.411 1.289.625 1.93.077.227.156.454.233.681.199.577.398 1.153.608 1.725l.295.801c.194.53.397 1.059.602 1.585.114.297.231.593.349.888.199.498.402.994.608 1.488.161.387.323.772.489 1.155.181.42.363.839.549 1.256.175.394.352.785.532 1.176.208.455.419.908.634 1.359.157.33.316.659.476.986.203.413.407.825.614 1.235.234.463.472.925.712 1.385.143.274.288.548.433.821.281.527.566 1.054.858 1.576l.314.562c.297.532.599 1.061.909 1.586l.35.593c.495.839 1.003 1.671 1.525 2.495l.029.046c.391.619.79 1.234 1.192 1.847l.121.183c.391.596.792 1.185 1.198 1.772l.154.222c1.104 1.594 2.257 3.151 3.444 4.684z" fill="#0099e2"/></svg>