<svg clip-rule="evenodd" fill-rule="evenodd" stroke-miterlimit="22.926" viewBox="0 0 297 297" xmlns="http://www.w3.org/2000/svg"><path d="m148.238 6.506c78.276 0 141.731 63.456 141.731 141.732 0 78.277-63.455 141.733-141.731 141.733s-141.732-63.456-141.732-141.733c0-78.276 63.456-141.732 141.732-141.732" fill="#fff"/><ellipse cx="148.237" cy="148.238" fill="none" rx="141.731" ry="141.732" stroke="#000" stroke-width=".57"/><path d="m202.844 134.245c7.809 0 14.138 6.328 14.138 14.136 0 7.807-6.329 14.136-14.138 14.136-7.807 0-14.136-6.329-14.136-14.136 0-7.808 6.329-14.136 14.136-14.136m-109.258 0c7.808 0 14.137 6.328 14.137 14.136 0 7.807-6.329 14.136-14.137 14.136-7.807 0-14.136-6.329-14.136-14.136 0-7.808 6.329-14.136 14.136-14.136m14.137 68.72c-.001 7.807-6.329 14.136-14.137 14.136-7.807 0-14.136-6.329-14.136-14.136v-.001-19.289h28.273zm109.259 0v-.001-19.289h-28.274v19.29c.001 7.807 6.329 14.136 14.136 14.136 7.809 0 14.137-6.329 14.138-14.136m-109.596-118.95h81.507c4.069 0 6.141 3.53 7.399 7.398l10.874 33.447h-118.053l10.322-33.447c1.201-3.889 3.882-7.398 7.951-7.398m108.812 40.6c5.608 0 10.198 4.589 10.198 10.198v35.903c0 5.609-4.59 10.199-10.198 10.199h-136.116c-5.609 0-10.199-4.59-10.199-10.199v-35.903c0-5.609 4.59-10.198 10.199-10.198l13.29-40.88c1.538-4.729 4.07-9.043 9.044-9.043h91.448c4.973 0 7.505 4.314 9.043 9.043z"/><path d="m148.238 34.902c62.593 0 113.335 50.742 113.335 113.336 0 62.593-50.742 113.335-113.335 113.335s-113.335-50.742-113.335-113.335c0-62.594 50.742-113.336 113.335-113.336m0-24.104c75.905 0 137.438 61.535 137.438 137.44s-61.533 137.438-137.438 137.438-137.439-61.533-137.439-137.438 61.534-137.44 137.439-137.44" fill="#d72717"/></svg>