<svg clip-rule="evenodd" fill-rule="evenodd" stroke-miterlimit="22.926" viewBox="0 0 297 297" xmlns="http://www.w3.org/2000/svg"><path d="m148.238 6.506c78.276 0 141.731 63.456 141.731 141.732 0 78.277-63.455 141.733-141.731 141.733s-141.732-63.456-141.732-141.733c0-78.276 63.456-141.732 141.732-141.732" fill="#fff"/><ellipse cx="148.237" cy="148.238" fill="none" rx="141.731" ry="141.732" stroke="#000" stroke-width=".57"/><path d="m148.238 10.799c75.905 0 137.438 61.534 137.438 137.439 0 75.906-61.533 137.439-137.438 137.439s-137.439-61.533-137.439-137.439c0-75.905 61.534-137.439 137.439-137.439m-73.086 50.824 159.7 159.701c16.668-19.733 26.721-45.233 26.721-73.086 0-62.593-50.742-113.335-113.335-113.335-27.853 0-53.353 10.053-73.086 26.72m146.214 173.195-159.708-159.707c-16.69 19.736-26.755 45.254-26.755 73.127 0 62.593 50.742 113.335 113.335 113.335 27.872 0 53.391-10.065 73.128-26.755" fill="#d72717"/><path d="m81.378 61.948 29.643 29.644v-30.582h28.888v59.469l16.741 16.742v-76.211h28.889v105.099l48.988 48.988c14.856-19.136 22.874-42.518 22.874-66.859 0-60.29-48.873-109.163-109.163-109.163-24.342 0-47.723 8.017-66.86 22.873m133.763 172.545-29.602-29.603v30.467h-28.889v-59.354l-16.741-16.742v76.096h-28.888v-104.984l-49.039-49.039c-14.879 19.144-22.907 42.544-22.907 66.904 0 60.29 48.872 109.163 109.163 109.163 24.36 0 47.76-8.028 66.903-22.908" fill="#0099e2"/></svg>