<svg clip-rule="evenodd" fill-rule="evenodd" stroke-miterlimit="22.926" viewBox="0 0 297 297" xmlns="http://www.w3.org/2000/svg"><path d="m148.238 6.506c78.276 0 141.731 63.456 141.731 141.732 0 78.277-63.455 141.733-141.731 141.733s-141.732-63.456-141.732-141.733c0-78.276 63.456-141.732 141.732-141.732" fill="#fff"/><ellipse cx="148.237" cy="148.238" fill="none" rx="141.731" ry="141.732" stroke="#000" stroke-width=".57"/><path d="m148.238 34.902c62.593 0 113.335 50.742 113.335 113.336 0 62.593-50.742 113.335-113.335 113.335s-113.335-50.742-113.335-113.335c0-62.594 50.742-113.336 113.335-113.336m0-24.104c75.905 0 137.438 61.535 137.438 137.44s-61.533 137.438-137.438 137.438-137.439-61.533-137.439-137.438 61.534-137.44 137.439-137.44" fill="#d72717"/><path d="m108.244 70.558h80.074c5.61 0 10.199 4.591 10.199 10.199v108.953h-100.472v-108.953c0-5.608 4.59-10.199 10.199-10.199" fill="#e89300"/><path d="m111.869 202.168h-14.25v28.647h14.25v-11.214h27.065c1.305 3.912 4.997 6.732 9.348 6.732 4.35 0 8.041-2.82 9.346-6.732h27.064v11.214h14.251v-28.647h-14.251v11.207h-27.06c-1.302-3.918-4.996-6.744-9.35-6.744-4.355 0-8.05 2.826-9.351 6.744h-27.062zm-14.25-3.321h101.324v-5.406h-101.324z"/></svg>