<svg clip-rule="evenodd" fill-rule="evenodd" stroke-miterlimit="22.926" viewBox="0 0 297 297" xmlns="http://www.w3.org/2000/svg"><path d="m148.238 6.506c78.276 0 141.731 63.456 141.731 141.732 0 78.277-63.455 141.733-141.731 141.733s-141.732-63.456-141.732-141.733c0-78.276 63.456-141.732 141.732-141.732" fill="#fff"/><ellipse cx="148.237" cy="148.238" fill="none" rx="141.731" ry="141.732" stroke="#000" stroke-width=".57"/><path d="m136.749 94.219.197-16.815 7.034 13.204 11.383-13.227-.435 17.656 9.145-8.051-9.09 29.525-5.589-4.638-3.692 4.068-3.476-4.471-5.674 4.791-8.641-25.857zm11.488-59.316c62.593 0 113.335 50.742 113.335 113.336 0 62.592-50.742 113.334-113.335 113.334s-113.335-50.742-113.335-113.334c0-62.594 50.742-113.336 113.335-113.336m0-24.104c75.906 0 137.439 61.534 137.439 137.44 0 75.905-61.533 137.438-137.439 137.438-75.905 0-137.439-61.533-137.439-137.438 0-75.906 61.534-137.44 137.439-137.44" fill="#d72717"/><path d="m184.661 167.861c5.552 0 10.052 4.5 10.052 10.051 0 5.552-4.5 10.052-10.052 10.052-5.551 0-10.051-4.5-10.051-10.052 0-5.551 4.5-10.051 10.051-10.051m-77.685 0c5.551 0 10.051 4.5 10.051 10.051 0 5.552-4.5 10.052-10.051 10.052s-10.051-4.5-10.051-10.052c0-5.551 4.5-10.051 10.051-10.051m10.051 48.862c0 5.552-4.5 10.051-10.051 10.051s-10.05-4.499-10.051-10.051v-.001-13.715h20.102zm77.686 0v-.001-13.715h-20.103v13.716c0 5.552 4.5 10.051 10.051 10.051 5.552 0 10.052-4.499 10.052-10.051m-77.925-84.577h57.953c2.894 0 4.367 2.511 5.261 5.261l7.732 23.781h-83.938l7.339-23.781c.853-2.765 2.759-5.261 5.653-5.261m77.367 28.868c3.988 0 7.252 3.263 7.252 7.252v25.528c0 3.988-3.264 7.252-7.252 7.252h-96.781c-3.987 0-7.252-3.264-7.252-7.252v-25.528c0-3.989 3.265-7.252 7.252-7.252l9.45-29.065c1.094-3.363 2.894-6.431 6.43-6.431h65.021c3.537 0 5.337 3.068 6.431 6.431z"/><path d="m136.749 94.219.197-16.815 7.034 13.204 11.383-13.227-.435 17.656 9.145-8.051-9.09 29.525-5.589-4.638-3.692 4.068-3.476-4.471-5.674 4.791-8.641-25.857zm38.403 31.3h-58.599l-33.012-36.21 32.962 8.933-18.48-36.796 28.72 10.671 9.404-29.818 25.068 28.626 32.014-23.968-18.367 50.538 38.071-19.44z" fill="#e89300"/></svg>