<svg clip-rule="evenodd" fill-rule="evenodd" stroke-miterlimit="22.926" viewBox="0 0 297 297" xmlns="http://www.w3.org/2000/svg"><path d="m148.272 6.54c78.276 0 141.731 63.456 141.731 141.732 0 78.277-63.455 141.733-141.731 141.733s-141.732-63.456-141.732-141.733c0-78.276 63.456-141.732 141.732-141.732" fill="#fff"/><ellipse cx="148.271" cy="148.272" fill="none" rx="141.731" ry="141.732" stroke="#000" stroke-width=".57"/><path d="m148.272 34.936c62.593 0 113.335 50.742 113.335 113.336 0 62.593-50.742 113.335-113.335 113.335s-113.335-50.742-113.335-113.335c0-62.594 50.742-113.336 113.335-113.336m0-24.104c75.905 0 137.438 61.535 137.438 137.44s-61.533 137.438-137.438 137.438-137.439-61.533-137.439-137.438 61.534-137.44 137.439-137.44" fill="#d72717"/><path d="m75.358 121.248h22.121c2.806 0 5.1 2.295 5.1 5.1v12.921c0 2.806-2.294 5.1-5.1 5.1h-29.91c-4.597 0-5.931-5.409-4.015-8.279l8.535-12.78c.786-1.177 1.693-2.062 3.269-2.062m123.07 47.22c8.874 0 16.069 7.195 16.069 16.069s-7.195 16.068-16.069 16.068c-8.875 0-16.069-7.194-16.069-16.068s7.194-16.069 16.069-16.069m0 7.85c4.539 0 8.218 3.68 8.218 8.219s-3.679 8.219-8.218 8.219-8.218-3.68-8.218-8.219 3.679-8.219 8.218-8.219m-109.359-7.85c8.875 0 16.069 7.194 16.069 16.069 0 8.874-7.194 16.068-16.069 16.068-8.874 0-16.068-7.194-16.068-16.068 0-8.875 7.194-16.069 16.068-16.069m0 7.85c4.539 0 8.219 3.68 8.219 8.219s-3.68 8.219-8.219 8.219-8.218-3.68-8.218-8.219 3.679-8.219 8.218-8.219m113.398-9.721h32.786v17.54h-18.444c-.182-8.589-6.256-15.727-14.342-17.54m-90.823 0h82.744c-8.086 1.813-14.159 8.951-14.342 17.54h-72.595c-.213-9.97-8.361-17.987-18.382-17.987s-18.169 8.017-18.381 17.987h-9.418c-5.1 0-9.272-4.172-9.272-9.272v-8.268-18.701-3.066c.211-1.593.817-3.073 1.849-4.431l14.155-20.533c1.578-2.29 3.355-4.031 6.461-4.031h26.983c5.608 0 10.198 4.589 10.198 10.2zm4.123-3.898h119.563v-65.425c0-4.844-3.964-8.808-8.809-8.808h-101.945c-4.845 0-8.809 3.964-8.809 8.808z"/><g fill="#fff" fill-rule="nonzero"><path d="m146.563 148.248h-7.187v-33.094c-2.688 3.021-5.792 5.24-9.313 6.657v-7.969c2-.813 4.073-2.266 6.219-4.36 2.146-2.093 3.635-4.505 4.469-7.234h5.812z"/><path d="m169.501 102.248c3.646 0 6.593 1.734 8.843 5.203s3.375 9.537 3.375 18.203c0 8.646-1.125 14.703-3.375 18.172s-5.187 5.203-8.812 5.203c-3.646 0-6.594-1.718-8.844-5.156-2.25-3.437-3.375-9.542-3.375-18.312 0-8.605 1.125-14.641 3.375-18.11s5.188-5.203 8.813-5.203zm0 7.281c-1.417 0-2.547.938-3.391 2.813s-1.266 6.312-1.266 13.312.422 11.433 1.266 13.297c.844 1.865 1.974 2.797 3.391 2.797 1.437 0 2.573-.937 3.406-2.812s1.25-6.302 1.25-13.282c0-7-.417-11.437-1.25-13.312s-1.969-2.813-3.406-2.813z"/><path d="m199.438 121.998v-6.906h24.656v6.906h-8.718v26.25h-7.219v-26.25z"/></g></svg>