<svg clip-rule="evenodd" fill-rule="evenodd" stroke-miterlimit="22.926" viewBox="0 0 297 297" xmlns="http://www.w3.org/2000/svg"><path d="m148.272 6.54c78.276 0 141.731 63.456 141.731 141.732 0 78.277-63.455 141.733-141.731 141.733s-141.732-63.456-141.732-141.733c0-78.276 63.456-141.732 141.732-141.732" fill="#fff"/><ellipse cx="148.271" cy="148.272" fill="none" rx="141.731" ry="141.732" stroke="#000" stroke-width=".57"/><path d="m148.272 34.936c62.593 0 113.335 50.742 113.335 113.336 0 62.593-50.742 113.335-113.335 113.335s-113.335-50.742-113.335-113.335c0-62.594 50.742-113.336 113.335-113.336m0-24.104c75.905 0 137.438 61.535 137.438 137.44s-61.533 137.438-137.438 137.438-137.439-61.533-137.439-137.438 61.534-137.44 137.439-137.44" fill="#d72717"/><path d="m75.358 121.248h22.121c2.806 0 5.1 2.295 5.1 5.1v12.921c0 2.806-2.294 5.1-5.1 5.1h-29.91c-4.597 0-5.931-5.409-4.015-8.279l8.535-12.78c.786-1.177 1.693-2.062 3.269-2.062m123.07 47.22c8.874 0 16.069 7.195 16.069 16.069s-7.195 16.068-16.069 16.068c-8.875 0-16.069-7.194-16.069-16.068s7.194-16.069 16.069-16.069m0 7.85c4.539 0 8.218 3.68 8.218 8.219s-3.679 8.219-8.218 8.219-8.218-3.68-8.218-8.219 3.679-8.219 8.218-8.219m-109.359-7.85c8.875 0 16.069 7.194 16.069 16.069 0 8.874-7.194 16.068-16.069 16.068-8.874 0-16.068-7.194-16.068-16.068 0-8.875 7.194-16.069 16.068-16.069m0 7.85c4.539 0 8.219 3.68 8.219 8.219s-3.68 8.219-8.219 8.219-8.218-3.68-8.218-8.219 3.679-8.219 8.218-8.219m113.398-9.721h32.786v17.54h-18.444c-.182-8.589-6.256-15.727-14.342-17.54m-90.823 0h82.744c-8.086 1.813-14.159 8.951-14.342 17.54h-72.595c-.213-9.97-8.361-17.987-18.382-17.987s-18.169 8.017-18.381 17.987h-9.418c-5.1 0-9.272-4.172-9.272-9.272v-8.268-18.701-3.066c.211-1.593.817-3.073 1.849-4.431l14.155-20.533c1.578-2.29 3.355-4.031 6.461-4.031h26.983c5.608 0 10.198 4.589 10.198 10.2zm4.123-3.898h119.563v-65.425c0-4.844-3.964-8.808-8.809-8.808h-101.945c-4.845 0-8.809 3.964-8.809 8.808z"/><g fill="#fff" fill-rule="nonzero"><path d="m120.579 136.092 6.969-1.031c.187 2.166.781 3.823 1.781 4.968 1 1.146 2.177 1.719 3.531 1.719 1.479 0 2.729-.677 3.75-2.031s1.531-3.229 1.531-5.625c0-2.229-.489-3.979-1.468-5.25-.98-1.271-2.167-1.906-3.563-1.906-.917 0-2.01.218-3.281.656l.781-7.156c1.854.041 3.323-.459 4.406-1.5 1.063-1.042 1.594-2.511 1.594-4.407 0-1.583-.385-2.823-1.156-3.718-.771-.896-1.761-1.344-2.969-1.344s-2.255.515-3.141 1.547c-.885 1.031-1.411 2.557-1.578 4.578l-6.656-1.375c.688-4.188 2.031-7.229 4.031-9.125s4.521-2.844 7.563-2.844c3.416 0 6.13 1.219 8.14 3.656 2.011 2.438 3.016 5.136 3.016 8.094 0 2-.453 3.802-1.359 5.406-.907 1.605-2.266 3.011-4.078 4.219 2.104.563 3.817 1.802 5.14 3.719s1.985 4.312 1.985 7.187c0 4.188-1.245 7.651-3.735 10.391-2.489 2.74-5.453 4.109-8.89 4.109-3.292 0-6.079-1.156-8.36-3.468-2.281-2.313-3.609-5.469-3.984-9.469z"/><path d="m151.579 139.467h7.219v8.781h-7.219z"/><path d="m164.735 136.467 7.188-.906c.187 2 .802 3.573 1.843 4.718 1.042 1.146 2.188 1.719 3.438 1.719 1.479 0 2.75-.734 3.812-2.203 1.063-1.469 1.594-3.724 1.594-6.766 0-2.875-.526-5-1.578-6.375s-2.391-2.062-4.016-2.062c-2.062 0-3.916 1.114-5.562 3.344l-5.844-1.032 3.688-23.843h19.031v8.218h-13.563l-1.156 7.782c1.625-.98 3.271-1.469 4.938-1.469 2.958 0 5.468 1.167 7.531 3.5 2.604 2.979 3.906 6.906 3.906 11.781 0 4.021-1.109 7.719-3.328 11.094s-5.391 5.062-9.516 5.062c-3.333 0-6.119-1.088-8.359-3.265s-3.589-5.276-4.047-9.297z"/><path d="m206.735 121.998v-6.906h24.656v6.906h-8.718v26.25h-7.219v-26.25z"/></g></svg>