<svg clip-rule="evenodd" fill-rule="evenodd" stroke-miterlimit="22.926" viewBox="0 0 297 297" xmlns="http://www.w3.org/2000/svg"><path d="m148.272 6.54c78.276 0 141.731 63.456 141.731 141.732 0 78.277-63.455 141.733-141.731 141.733s-141.732-63.456-141.732-141.733c0-78.276 63.456-141.732 141.732-141.732" fill="#fff"/><ellipse cx="148.271" cy="148.272" fill="none" rx="141.731" ry="141.732" stroke="#000" stroke-width=".57"/><path d="m148.272 34.936c62.593 0 113.335 50.742 113.335 113.336 0 62.593-50.742 113.335-113.335 113.335s-113.335-50.742-113.335-113.335c0-62.594 50.742-113.336 113.335-113.336m0-24.104c75.905 0 137.438 61.535 137.438 137.44s-61.533 137.438-137.438 137.438-137.439-61.533-137.439-137.438 61.534-137.44 137.439-137.44" fill="#d72717"/><path d="m75.358 121.248h22.121c2.806 0 5.1 2.295 5.1 5.1v12.921c0 2.806-2.294 5.1-5.1 5.1h-29.91c-4.597 0-5.931-5.409-4.015-8.279l8.535-12.78c.786-1.177 1.693-2.062 3.269-2.062m123.07 47.22c8.874 0 16.069 7.195 16.069 16.069s-7.195 16.068-16.069 16.068c-8.875 0-16.069-7.194-16.069-16.068s7.194-16.069 16.069-16.069m0 7.85c4.539 0 8.218 3.68 8.218 8.219s-3.679 8.219-8.218 8.219-8.218-3.68-8.218-8.219 3.679-8.219 8.218-8.219m-109.359-7.85c8.875 0 16.069 7.194 16.069 16.069 0 8.874-7.194 16.068-16.069 16.068-8.874 0-16.068-7.194-16.068-16.068 0-8.875 7.194-16.069 16.068-16.069m0 7.85c4.539 0 8.219 3.68 8.219 8.219s-3.68 8.219-8.219 8.219-8.218-3.68-8.218-8.219 3.679-8.219 8.218-8.219m113.398-9.721h32.786v17.54h-18.444c-.182-8.589-6.256-15.727-14.342-17.54m-90.823 0h82.744c-8.086 1.813-14.159 8.951-14.342 17.54h-72.595c-.213-9.97-8.361-17.987-18.382-17.987s-18.169 8.017-18.381 17.987h-9.418c-5.1 0-9.272-4.172-9.272-9.272v-8.268-18.701-3.066c.211-1.593.817-3.073 1.849-4.431l14.155-20.533c1.578-2.29 3.355-4.031 6.461-4.031h26.983c5.608 0 10.198 4.589 10.198 10.2zm4.123-3.898h119.563v-65.425c0-4.844-3.964-8.808-8.809-8.808h-101.945c-4.845 0-8.809 3.964-8.809 8.808z"/><g fill="#fff" fill-rule="nonzero"><path d="m148.938 123.529c-1.771-.916-3.104-2.166-4-3.75-.896-1.583-1.344-3.489-1.344-5.718 0-3.605 1.021-6.474 3.063-8.61 2.042-2.135 4.792-3.203 8.25-3.203 3.667 0 6.458 1.141 8.375 3.422s2.875 5.057 2.875 8.328c0 2.229-.464 4.162-1.391 5.797s-2.192 2.88-3.797 3.734c2.146 1.042 3.75 2.506 4.813 4.391 1.062 1.885 1.594 4.203 1.594 6.953 0 2.833-.526 5.333-1.578 7.5-1.053 2.167-2.506 3.823-4.36 4.969s-3.937 1.719-6.25 1.719c-3.625 0-6.62-1.256-8.984-3.766-2.365-2.51-3.547-5.891-3.547-10.141 0-2.75.542-5.114 1.625-7.093 1.083-1.98 2.635-3.49 4.656-4.532zm1.469-8.843c0 1.791.422 3.166 1.266 4.125.843.958 1.911 1.437 3.203 1.437 1.312 0 2.396-.479 3.25-1.437.854-.959 1.281-2.334 1.281-4.125 0-1.73-.422-3.073-1.266-4.032-.843-.958-1.901-1.437-3.172-1.437-1.333 0-2.427.484-3.281 1.453s-1.281 2.307-1.281 4.016zm-.656 19.625c0 2.458.521 4.354 1.562 5.687 1.042 1.333 2.292 2 3.75 2 1.459 0 2.682-.635 3.672-1.906s1.484-3.177 1.484-5.719c0-2.187-.505-3.917-1.515-5.187-1.011-1.271-2.255-1.907-3.735-1.907-1.458 0-2.692.641-3.703 1.922-1.01 1.281-1.515 2.985-1.515 5.11z"/><path d="m184.844 121.998v-6.906h24.657v6.906h-8.719v26.25h-7.219v-26.25z"/></g></svg>