<svg clip-rule="evenodd" fill-rule="evenodd" stroke-miterlimit="22.926" viewBox="0 0 297 297" xmlns="http://www.w3.org/2000/svg"><path d="m148.238 6.506c78.276 0 141.731 63.456 141.731 141.732 0 78.277-63.455 141.733-141.731 141.733s-141.732-63.456-141.732-141.733c0-78.276 63.456-141.732 141.732-141.732" fill="#fff"/><ellipse cx="148.237" cy="148.238" fill="none" rx="141.731" ry="141.732" stroke="#000" stroke-width=".57"/><path d="m148.238 34.902c62.593 0 113.335 50.742 113.335 113.336 0 62.593-50.742 113.335-113.335 113.335s-113.335-50.742-113.335-113.335c0-62.594 50.742-113.336 113.335-113.336m0-24.104c75.905 0 137.438 61.535 137.438 137.44s-61.533 137.438-137.438 137.438-137.439-61.533-137.439-137.438 61.534-137.44 137.439-137.44" fill="#d72717"/><path d="m200.397 153.309 4.481 11.071c-5.7 6.181-1.346 16.333 7.16 16.333 5.377 0 9.735-4.359 9.735-9.736 0-5.118-3.951-9.315-8.97-9.706l-4.502-11.121c12.952-2.308 24.894 7.625 24.894 20.827 0 11.686-9.473 21.158-21.157 21.158-20.959 0-29.032-27.347-11.641-38.826m-104.313.004-4.448 11.11c5.643 6.194 1.281 16.29-7.198 16.29-5.377 0-9.736-4.359-9.736-9.736 0-5.218 4.107-9.479 9.264-9.725l4.428-11.061c-13.014-2.462-25.114 7.491-25.114 20.786 0 11.686 9.473 21.158 21.158 21.158 20.953 0 29.03-27.336 11.646-38.822m-11.646-14.071c2.741 0 5.401.346 7.938 1.001l9.308-23.252c-6.24 0-5.338.85-5.338-13.737 0-4.191 2.795-3.245 7.777-3.245h18.638c4.943 0 4.943 7.899 0 7.899l-6.665.032c-.769.081-4.793 6.47-5.553 7.481h33.655c9.845 0 9.845 15.332 0 15.332h-19.281c-6.167 0-4.816 4.139-3.916 7.44h.008l3.844 14.143c.606 2.202 2.034 4.152 4.32 4.152h11.818c2.295 0 3.212-2.117 4.265-4.156l7.315-14.139h32.686c2.331 0 3.535 2.888 1.719 4.543-10.924 9.957-15.048 26.306-10.231 40.601h-44.701c-5.607 0-8.722-4.788-10.199-10.199l-13.661-50.058-8.114 20.274c9.615 5.453 16.103 15.78 16.103 27.623 0 17.528-14.208 31.737-31.735 31.737s-31.737-14.209-31.737-31.737c0-17.526 14.21-31.735 31.737-31.735m108.293-4.873 3.645 9.002-3.645-9.002 3.645 9.002c-9.599 5.458-16.075 15.776-16.075 27.606 0 17.528 14.209 31.737 31.737 31.737 17.527 0 31.736-14.209 31.736-31.737 0-20.768-19.567-35.792-39.5-30.777l-2.359-5.831h15.371v-4.29c0-5.61-4.59-10.2-10.2-10.2h-41.295c-1.53 0-3.254 1.394-3.894 2.782l-5.404 11.708z"/></svg>