<svg clip-rule="evenodd" fill-rule="evenodd" stroke-miterlimit="22.926" viewBox="0 0 297 297" xmlns="http://www.w3.org/2000/svg"><path d="m148.238 6.506c78.276 0 141.731 63.456 141.731 141.732 0 78.277-63.455 141.733-141.731 141.733s-141.732-63.456-141.732-141.733c0-78.276 63.456-141.732 141.732-141.732" fill="#fff"/><ellipse cx="148.237" cy="148.238" fill="none" rx="141.731" ry="141.732" stroke="#000" stroke-width=".57"/><path d="m148.238 34.902c62.593 0 113.335 50.742 113.335 113.336 0 62.593-50.742 113.335-113.335 113.335s-113.335-50.742-113.335-113.335c0-62.594 50.742-113.336 113.335-113.336m0-24.104c75.905 0 137.438 61.535 137.438 137.44s-61.533 137.438-137.438 137.438-137.439-61.533-137.439-137.438 61.534-137.44 137.439-137.44" fill="#d72717"/><path d="m170.07 88.494h29.129c2.296 0 4.173 1.878 4.173 4.172v28.561c0 2.295-1.877 4.172-4.173 4.172h-40.168c-2.516 0-4.488-3.356-3.141-6.843l10.008-25.89c.827-2.14 1.877-4.172 4.172-4.172m-91.799 36.905h32.946v-36.767h10.207v36.767h21.962l14.475-36.874c1.862-4.745 4.173-9.271 9.271-9.271h40.716c5.099 0 9.272 4.173 9.272 9.271v36.874l4.72 9.074-5.732 12.168c-4.034-1.563-8.418-2.422-13.003-2.422-19.881 0-35.999 16.118-35.999 35.999 0 .249.004.498.009.746h-61.265c-3.467-10.958-13.716-18.902-25.819-18.902-3.397 0-6.646.627-9.642 1.77v-30.551c0-4.335 3.547-7.882 7.882-7.882m124.834 36.235c10.264 0 18.583 8.32 18.583 18.584 0 10.263-8.319 18.583-18.583 18.583s-18.584-8.32-18.584-18.583c0-10.264 8.32-18.584 18.584-18.584m-123.074 4.137c12.906 0 23.369 10.462 23.369 23.369 0 12.906-10.463 23.368-23.369 23.368s-23.368-10.462-23.368-23.368c0-12.907 10.462-23.369 23.368-23.369m0 11.777c6.402 0 11.591 5.189 11.591 11.592 0 6.401-5.189 11.59-11.591 11.59s-11.591-5.189-11.591-11.59c0-6.403 5.189-11.592 11.591-11.592m123.074-29.62c17.833 0 32.29 14.456 32.29 32.29 0 17.833-14.457 32.29-32.29 32.29-17.834 0-32.29-14.457-32.29-32.29 0-17.834 14.456-32.29 32.29-32.29"/></svg>