<svg clip-rule="evenodd" fill-rule="evenodd" stroke-miterlimit="22.926" viewBox="0 0 297 297" xmlns="http://www.w3.org/2000/svg"><path d="m148.238 6.506c78.276 0 141.731 63.456 141.731 141.732 0 78.277-63.455 141.733-141.731 141.733s-141.732-63.456-141.732-141.733c0-78.276 63.456-141.732 141.732-141.732" fill="#fff"/><ellipse cx="148.237" cy="148.238" fill="none" rx="141.731" ry="141.732" stroke="#000" stroke-width=".57"/><path d="m148.238 34.902c62.593 0 113.335 50.742 113.335 113.336 0 62.593-50.742 113.335-113.335 113.335s-113.335-50.742-113.335-113.335c0-62.594 50.742-113.336 113.335-113.336m0-24.104c75.905 0 137.438 61.535 137.438 137.44s-61.533 137.438-137.438 137.438-137.439-61.533-137.439-137.438 61.534-137.44 137.439-137.44" fill="#d72717"/><path d="m152.85 156.766c9.13 0 16.53 7.4 16.53 16.529s-7.4 16.53-16.53 16.53c-9.128 0-16.528-7.401-16.528-16.53s7.4-16.529 16.528-16.529m0 8.035c4.691 0 8.494 3.804 8.494 8.494 0 4.692-3.803 8.494-8.494 8.494-4.69 0-8.493-3.802-8.493-8.494 0-4.69 3.803-8.494 8.493-8.494m-46.641-48.88h110.884v55.688h-44.075c-.856-10.388-9.558-18.552-20.168-18.552-10.608 0-19.31 8.164-20.167 18.552h-18.256-8.218-54.216v-8.586h54.216z"/></svg>