<svg clip-rule="evenodd" fill-rule="evenodd" stroke-miterlimit="22.926" viewBox="0 0 297 297" xmlns="http://www.w3.org/2000/svg"><path d="m148.238 6.506c78.276 0 141.731 63.456 141.731 141.732 0 78.277-63.455 141.733-141.731 141.733s-141.732-63.456-141.732-141.733c0-78.276 63.456-141.732 141.732-141.732" fill="#fff"/><ellipse cx="148.237" cy="148.238" fill="none" rx="141.731" ry="141.732" stroke="#000" stroke-width=".57"/><path d="m148.238 34.902c62.593 0 113.335 50.742 113.335 113.336 0 62.593-50.742 113.335-113.335 113.335s-113.335-50.742-113.335-113.335c0-62.594 50.742-113.336 113.335-113.336m0-24.104c75.905 0 137.438 61.535 137.438 137.44s-61.533 137.438-137.438 137.438-137.439-61.533-137.439-137.438 61.534-137.44 137.439-137.44" fill="#d72717"/><path d="m256.854 133.805c2.769 13.414 1.161 26.428-1.744 40.288-.578 2.756-1.282 2.275-4.874 2.275-.625-12.964-12.911-22.151-25.52-19.149v-23.414zm-18.952 43.576c0 4.622-3.747 8.368-8.368 8.368s-8.368-3.746-8.368-8.368c0-4.621 3.747-8.367 8.368-8.367s8.368 3.746 8.368 8.367m8.649 0c0 9.4-7.619 17.019-17.017 17.019-9.399 0-17.019-7.619-17.019-17.019 0-9.397 7.62-17.017 17.019-17.017 9.398 0 17.017 7.62 17.017 17.017m-125.114-61.955h50.943c5.61 0 10.2 4.59 10.2 10.199v22.158c-4.422 0-8.04-3.619-8.04-8.04l-.07-14.245c-.576-2.148-2.686-2.382-2.816-2.254 0 2.496-.133 15.165.131 16.699 1.032 5.998 6.285 10.469 12.107 11.632l34.132 5.081-7.409 7.731-20.63-3.071v27.718c0 7.064-10.733 7.064-10.733 0v-23.773c0-5.115-2.85-5.661-7.494-6.658l-66.889-9.957-14.672 17.091c-1.068 1.242-1.159 2.126-.111 4.573l5.058 11.93c2.762 6.479-7.094 10.691-9.865 4.227l-7.246-16.906c-1.533-4.443-.148-5.927 2.606-9.174l11.781-13.594-10.352-1.541 1.287-8.643 10.138 1.509-11.003-29.796-9.766 7.84c-3.398 2.746-8.381-.867-6.632-5.042.943-2.252 8.323-19.586 8.166-20.47-.191-1.08-4.507-.03-4.507-3.394 0-1.605 1.402-3.045 3.543-2.455 5.039.91 9.947 1.8 12.562 2.303 2.774.535 2.968.638 5.002 2.544s5.909 5.617 9.782 9.327c2.618-3.133 6.141-6.211 9.349-2.943 2.778 3.359-.863 6.564-3.093 8.647l10.141 9.608c1.668 1.223 2.728 1.139 4.4 1.139m-4.24 73.608c0 7.064-10.732 7.064-10.732 0v-37.19l10.732 1.655zm58.559-26.722-13.45 28.95c-2.964 6.43-12.691 1.957-9.762-4.46l11.812-25.907z"/></svg>