<svg clip-rule="evenodd" fill-rule="evenodd" stroke-miterlimit="22.926" viewBox="0 0 297 297" xmlns="http://www.w3.org/2000/svg"><path d="m148.238 6.506c78.276 0 141.731 63.456 141.731 141.732 0 78.277-63.455 141.733-141.731 141.733s-141.732-63.456-141.732-141.733c0-78.276 63.456-141.732 141.732-141.732" fill="#fff"/><ellipse cx="148.237" cy="148.238" fill="none" rx="141.731" ry="141.732" stroke="#000" stroke-width=".57"/><path d="m148.238 34.902c62.593 0 113.335 50.742 113.335 113.336 0 62.593-50.742 113.335-113.335 113.335s-113.335-50.742-113.335-113.335c0-62.594 50.742-113.336 113.335-113.336m0-24.104c75.905 0 137.438 61.535 137.438 137.44s-61.533 137.438-137.438 137.438-137.439-61.533-137.439-137.438 61.534-137.44 137.439-137.44" fill="#d72717"/><path d="m102.43 142.375-6.244 13.103c-.529 1.108-1.474 2.914-2.345 3.797l-.029.029-4.86 2.899c-1.823 1.088-4.091 3.377-3.017 5.704.125.27.292.517.494.735 1.096 1.185 3.313 1.319 4.656.504l8.009-4.866c1.246-.757 2.279-2.825 2.912-4.136l6.385-13.227c4.87 4.905 7.879 11.662 7.879 19.121 0 14.99-12.152 27.143-27.142 27.143-14.991 0-27.143-12.153-27.143-27.143s12.152-27.142 27.143-27.142c4.833 0 9.371 1.264 13.302 3.479m78.324 29.123 27.194-.091c1.392-.005 2.702-.561 3.629-1.607 1.672-1.884 1.499-4.475.176-6.498-2.101-3.213-4.326-6.377-6.529-9.523-2.942-4.199-5.91-8.382-8.888-12.555 3.365-1.496 7.091-2.328 11.011-2.328 14.99 0 27.143 12.152 27.143 27.142s-12.153 27.143-27.143 27.143c-13.12 0-24.065-9.31-26.593-21.683m-5.983-7.175h-10.777l14.757-35.423 8.264 11.63c-7.071 5.645-11.745 14.166-12.244 23.793m29.147 0h-23.658c.485-7.785 4.252-14.679 9.933-19.319zm-114.79-30.905c5.677 0 11.014 1.45 15.664 4.001l9.628-20.204c.317-.665.639-1.39.6-2.143-.051-.965-.518-1.838-1.262-2.447-.821-.674-2-1.022-2.913-1.593-.955-.596-1.839-1.307-2.623-2.117-5.296-5.463-4.582-14.311 2.059-18.327 1.525-.924 3.244-1.443 5.033-1.443l16.88.001c5.405.001 4.922 7.203.421 7.203h-16.166c-3.39 0-5.14 3.728-3.459 6.417.114.184.245.358.391.518 1.387 1.528 3.676 2.247 5.242 3.65 3.253 2.914 4.085 6.248 3.537 10.421l-.046.361 53.762-.007 1.712-3.834h-14.043c-6.351 0-6.351-9.963 0-9.963h23.443c6.351 0 6.351 9.963 0 9.963h-2.595l-.082.195c-.41.983-.84 1.957-1.249 2.94-.308.738-1.08 2.456-1.176 3.205-.075.59.239 1.234.575 1.699 3.559 4.915 7.104 9.84 10.635 14.774 4.306-2.095 9.141-3.27 14.251-3.27 18.017 0 32.621 14.603 32.621 32.62 0 18.016-14.604 32.62-32.621 32.62-16.148 0-29.554-11.734-32.16-27.141l-17.79.058-44.538-33.914-1.969 4.079c6.664 5.972 10.858 14.645 10.858 24.298 0 18.016-14.604 32.62-32.62 32.62s-32.621-14.604-32.621-32.62c0-18.017 14.605-32.62 32.621-32.62m30.171-8.364h54.467l-15.726 37.75-41.566-31.899z"/></svg>