<svg clip-rule="evenodd" fill-rule="evenodd" stroke-miterlimit="22.926" viewBox="0 0 297 297" xmlns="http://www.w3.org/2000/svg"><path d="m148.238 6.506c-78.276 0-141.732 63.456-141.732 141.732 0 78.277 63.456 141.733 141.732 141.733s141.731-63.456 141.731-141.733c0-78.276-63.455-141.732-141.731-141.732" fill="#fff"/><ellipse cx="148.237" cy="148.238" fill="none" rx="141.731" ry="141.732" stroke="#000" stroke-width=".57"/><path d="m148.238 14.742c-73.728 0-133.496 59.769-133.496 133.496 0 73.728 59.768 133.496 133.496 133.496 13.996 0 27.488-2.158 40.165-6.153v-113.9c0-9.473-7.752-17.224-17.226-17.224h-63.178v23.455l-65.43-37.776 65.43-37.776v23.435h63.373c25.262 0 45.933 20.671 45.933 45.933v100.771c38.62-23.394 64.429-65.814 64.429-114.261 0-73.727-59.768-133.496-133.496-133.496" fill="#0099e2"/></svg>