<svg clip-rule="evenodd" fill-rule="evenodd" stroke-miterlimit="22.926" viewBox="0 0 297 297" xmlns="http://www.w3.org/2000/svg"><path d="m148.238 6.506c78.276 0 141.731 63.456 141.731 141.732 0 78.277-63.455 141.733-141.731 141.733s-141.732-63.456-141.732-141.733c0-78.276 63.456-141.732 141.732-141.732" fill="#fff"/><ellipse cx="148.237" cy="148.238" fill="none" rx="141.731" ry="141.732" stroke="#000" stroke-width=".57"/><path d="m148.238 14.742c73.728 0 133.496 59.769 133.496 133.496 0 73.728-59.768 133.496-133.496 133.496-1.244 0-2.481-.02-3.718-.054v-103.708c.983-8.558 8.302-15.263 17.113-15.263h26.844v23.456l65.43-37.776-65.43-37.775v23.434h-27.039c-5.967 0-11.676 1.153-16.918 3.247v-38.519h23.326l-37.776-65.43-37.776 65.43h23.327v178.937c-57.96-14.556-100.879-67-100.879-129.475 0-73.727 59.768-133.496 133.496-133.496" fill="#0099e2"/></svg>