<svg clip-rule="evenodd" fill-rule="evenodd" stroke-miterlimit="22.926" viewBox="0 0 297 297" xmlns="http://www.w3.org/2000/svg"><path d="m148.238 6.506c78.276 0 141.731 63.456 141.731 141.732 0 78.277-63.455 141.733-141.731 141.733s-141.732-63.456-141.732-141.733c0-78.276 63.456-141.732 141.732-141.732" fill="#fff"/><ellipse cx="148.237" cy="148.238" fill="none" rx="141.731" ry="141.732" stroke="#000" stroke-width=".57"/><path d="m148.238 14.743c73.728 0 133.495 59.768 133.495 133.495 0 68.844-52.115 125.509-119.045 132.714l.001-119.271c0-9.474 7.752-17.225 17.225-17.225h17.71v23.456l65.429-37.776-65.429-37.776v23.435h-17.904c-12.155 0-23.245 4.786-31.482 12.565-8.237-7.778-19.327-12.565-31.481-12.565h-17.905v-23.434l-65.429 37.775 65.429 37.776v-23.455h17.71c9.477 0 17.225 7.734 17.225 17.27 0 39.745.003 79.482.003 119.226-66.931-7.205-119.047-63.871-119.047-132.715 0-73.727 59.768-133.495 133.495-133.495" fill="#0099e2"/></svg>