<svg clip-rule="evenodd" fill-rule="evenodd" stroke-miterlimit="22.926" viewBox="0 0 297 297" xmlns="http://www.w3.org/2000/svg"><path d="m148.238 6.506c78.276 0 141.731 63.456 141.731 141.732 0 78.277-63.455 141.733-141.731 141.733s-141.732-63.456-141.732-141.733c0-78.276 63.456-141.732 141.732-141.732" fill="#fff"/><ellipse cx="148.237" cy="148.238" fill="none" rx="141.731" ry="141.732" stroke="#000" stroke-width=".57"/><path d="m148.238 14.742c73.728 0 133.496 59.769 133.496 133.496 0 68.844-52.116 125.51-119.046 132.715v-173.068h23.326l-37.776-65.431-37.776 65.431h23.327v173.069c-66.931-7.205-119.047-63.871-119.047-132.716 0-73.727 59.768-133.496 133.496-133.496" fill="#0099e2"/></svg>