<svg clip-rule="evenodd" fill-rule="evenodd" stroke-miterlimit="22.926" viewBox="0 0 297 297" xmlns="http://www.w3.org/2000/svg"><path d="m148.238 6.506c78.276 0 141.731 63.456 141.731 141.732 0 78.277-63.455 141.733-141.731 141.733s-141.732-63.456-141.732-141.733c0-78.276 63.456-141.732 141.732-141.732" fill="#fff"/><ellipse cx="148.237" cy="148.238" fill="none" rx="141.731" ry="141.732" stroke="#000" stroke-width=".57"/><path d="m148.238 14.742c73.728 0 133.496 59.769 133.496 133.496 0 73.728-59.768 133.496-133.496 133.496-13.997 0-27.488-2.158-40.165-6.153v-113.9c0-9.473 7.751-17.224 17.225-17.224h63.179v23.455l65.43-37.776-65.43-37.776v23.435h-63.373c-25.263 0-45.934 20.671-45.934 45.933v100.771c-38.619-23.394-64.428-65.814-64.428-114.261 0-73.727 59.768-133.496 133.496-133.496" fill="#0099e2"/></svg>