<svg clip-rule="evenodd" fill-rule="evenodd" stroke-miterlimit="22.926" viewBox="0 0 297 297" xmlns="http://www.w3.org/2000/svg"><path d="m148.238 6.506c-78.276 0-141.732 63.456-141.732 141.732 0 78.277 63.456 141.733 141.732 141.733s141.731-63.456 141.731-141.733c0-78.276-63.455-141.732-141.731-141.732" fill="#fff"/><ellipse cx="148.237" cy="148.238" fill="none" rx="141.731" ry="141.732" stroke="#000" stroke-width=".57"/><path d="m148.238 14.742c-73.728 0-133.496 59.769-133.496 133.496 0 73.728 59.768 133.496 133.496 133.496 1.243 0 2.481-.02 3.717-.054v-103.708c-.982-8.558-8.301-15.263-17.112-15.263h-26.845v23.456l-65.429-37.776 65.429-37.775v23.434h27.04c5.966 0 11.675 1.153 16.917 3.247v-38.519h-23.325l37.776-65.43 37.775 65.43h-23.326v178.937c57.96-14.556 100.879-67 100.879-129.475 0-73.727-59.768-133.496-133.496-133.496" fill="#0099e2"/></svg>