<svg clip-rule="evenodd" fill-rule="evenodd" stroke-miterlimit="22.926" viewBox="0 0 297 297" xmlns="http://www.w3.org/2000/svg"><path d="m148.238 6.506c-78.276 0-141.732 63.456-141.732 141.732 0 78.277 63.456 141.733 141.732 141.733s141.731-63.456 141.731-141.733c0-78.276-63.455-141.732-141.731-141.732" fill="#fff"/><ellipse cx="148.237" cy="148.238" fill="none" rx="141.731" ry="141.732" stroke="#000" stroke-width=".57"/><path d="m148.238 14.742c-73.728 0-133.496 59.769-133.496 133.496 0 73.728 59.768 133.496 133.496 133.496s133.496-59.768 133.496-133.496c0-31.659-11.027-60.737-29.441-83.621l-122.325 122.323 16.495 16.494-72.978 19.554 19.555-72.976 16.494 16.494 122.323-122.324c-22.882-18.415-51.962-29.44-83.619-29.44" fill="#0099e2"/></svg>