<svg clip-rule="evenodd" fill-rule="evenodd" stroke-miterlimit="22.926" viewBox="0 0 297 297" xmlns="http://www.w3.org/2000/svg"><path d="m148.238 6.506c78.276 0 141.731 63.456 141.731 141.732 0 78.277-63.455 141.733-141.731 141.733s-141.732-63.456-141.732-141.733c0-78.276 63.456-141.732 141.732-141.732" fill="#fff"/><ellipse cx="148.237" cy="148.238" fill="none" rx="141.731" ry="141.732" stroke="#000" stroke-width=".57"/><path d="m82.973 136.893-17.25-17.249-20.449 76.317 76.319-20.449-17.249-17.249-1.142-1.141 45.036-44.952-19.081-19.081-45.036 44.953zm130.53 0 17.25-17.249 20.449 76.317-76.318-20.449 17.249-17.249 1.14-1.141-45.035-44.952 19.08-19.081 45.037 44.953zm-65.266-122.152c73.729 0 133.497 59.768 133.497 133.497 0 73.727-59.768 133.496-133.497 133.496-73.727 0-133.496-59.769-133.496-133.496 0-73.729 59.769-133.497 133.496-133.497" fill="#0099e2"/></svg>