<svg clip-rule="evenodd" fill-rule="evenodd" stroke-miterlimit="22.926" viewBox="0 0 297 297" xmlns="http://www.w3.org/2000/svg"><path d="m148.238 6.506c78.276 0 141.731 63.456 141.731 141.732 0 78.277-63.455 141.733-141.731 141.733s-141.732-63.456-141.732-141.733c0-78.276 63.456-141.732 141.732-141.732" fill="#fff"/><ellipse cx="148.237" cy="148.238" fill="none" rx="141.731" ry="141.732" stroke="#000" stroke-width=".57"/><path d="m132.194 53.437 4.823 26.47c-21.666 3.532-39.952 17.119-49.916 35.815l27.68.001-42.82 74.165-42.819-74.165 28.601-.001c11.581-32.227 39.887-56.477 74.451-62.285m106.112 128.28-25.337-9.057c7.776-20.529 5.152-43.16-6.057-61.137l-13.841 23.972-42.819-74.167 85.639.001-14.301 24.769c22.121 26.145 28.968 62.782 16.716 95.619m-164.072 27.674 20.512-17.413c13.891 16.997 34.802 26.041 55.974 25.321l-13.838-23.971 85.639.001-42.82 74.165-14.301-24.769c-33.701 6.083-68.854-6.305-91.166-33.334m74.004-194.649c73.727 0 133.496 59.768 133.496 133.496 0 73.727-59.769 133.496-133.496 133.496-73.728 0-133.496-59.769-133.496-133.496 0-73.728 59.768-133.496 133.496-133.496" fill="#0099e2"/></svg>