<svg clip-rule="evenodd" fill-rule="evenodd" stroke-miterlimit="22.926" viewBox="0 0 297 297" xmlns="http://www.w3.org/2000/svg"><path d="m148.238 6.506c78.276 0 141.731 63.456 141.731 141.732 0 78.277-63.455 141.733-141.731 141.733s-141.732-63.456-141.732-141.733c0-78.276 63.456-141.732 141.732-141.732" fill="#fff"/><ellipse cx="148.237" cy="148.238" fill="none" rx="141.731" ry="141.732" stroke="#000" stroke-width=".57"/><path d="m95.755 143.692-7.154 15.011c-.606 1.27-1.688 3.34-2.687 4.351l-.033.034-5.567 3.321c-2.089 1.247-4.688 3.869-3.456 6.536.141.309.333.592.564.842 1.256 1.357 3.796 1.51 5.334.576l9.177-5.573c1.428-.869 2.612-3.238 3.337-4.741l7.315-15.153c5.58 5.62 9.028 13.36 9.028 21.906 0 17.176-13.923 31.099-31.099 31.099-17.174 0-31.097-13.923-31.097-31.099 0-17.173 13.923-31.096 31.097-31.096 5.539 0 10.737 1.449 15.241 3.986m89.738 33.366 31.156-.103c1.596-.005 3.095-.644 4.159-1.841 1.915-2.159 1.717-5.127.201-7.445-2.408-3.682-4.958-7.308-7.482-10.912-3.369-4.811-6.771-9.603-10.183-14.385 3.857-1.713 8.124-2.666 12.618-2.666 17.173 0 31.096 13.923 31.096 31.096 0 17.176-13.923 31.099-31.096 31.099-15.034 0-27.574-10.666-30.469-24.843m-6.855-8.22h-12.347l16.907-40.584 9.468 13.325c-8.103 6.467-13.456 16.229-14.028 27.259m33.395 0h-27.107c.557-8.918 4.872-16.819 11.38-22.133zm-131.519-35.409c6.505 0 12.62 1.662 17.947 4.584l11.032-23.148c.362-.761.731-1.592.686-2.454-.057-1.105-.592-2.106-1.445-2.805-.94-.771-2.291-1.171-3.336-1.823-1.095-.685-2.108-1.499-3.006-2.426-6.068-6.261-5.249-16.395 2.358-20.999 1.748-1.058 3.716-1.653 5.766-1.653l19.341.003c6.192.001 5.638 8.252.481 8.252h-18.521c-3.884 0-5.889 4.27-3.963 7.351.131.21.281.41.447.594 1.59 1.751 4.213 2.574 6.007 4.182 3.727 3.337 4.681 7.157 4.053 11.94l-.053.413 61.595-.009 1.963-4.392h-16.089c-7.277 0-7.277-11.414 0-11.414h26.857c7.278 0 7.278 11.414 0 11.414h-2.973l-.093.223c-.47 1.125-.962 2.242-1.432 3.368-.352.847-1.237 2.816-1.346 3.673-.086.675.273 1.414.659 1.947 4.077 5.63 8.138 11.274 12.183 16.926 4.933-2.4 10.474-3.747 16.33-3.747 20.64 0 37.373 16.733 37.373 37.373 0 20.642-16.733 37.375-37.373 37.375-18.503 0-33.863-13.446-36.848-31.097l-20.382.067-51.028-38.855-2.256 4.671c7.636 6.843 12.44 16.78 12.44 27.839 0 20.642-16.732 37.375-37.374 37.375-20.641 0-37.373-16.733-37.373-37.375 0-20.64 16.732-37.373 37.373-37.373m34.569-9.582h62.403l-18.018 43.25-47.623-36.546zm33.155-109.105c73.727 0 133.496 59.768 133.496 133.496 0 73.727-59.769 133.496-133.496 133.496-73.728 0-133.496-59.769-133.496-133.496 0-73.728 59.768-133.496 133.496-133.496" fill="#0099e2"/></svg>