<svg clip-rule="evenodd" fill-rule="evenodd" stroke-miterlimit="22.926" viewBox="0 0 297 297" xmlns="http://www.w3.org/2000/svg"><path d="m148.272 6.54c78.276 0 141.731 63.456 141.731 141.732 0 78.277-63.455 141.733-141.731 141.733s-141.732-63.456-141.732-141.733c0-78.276 63.456-141.732 141.732-141.732" fill="#fff"/><ellipse cx="148.271" cy="148.272" fill="none" rx="141.731" ry="141.732" stroke="#000" stroke-width=".57"/><path d="m132.134 156.835 13.862 13.68-35.044 60.166c-4.102 7.042-14.317 6.155-17.076-1.441-.94-2.59-.747-5.439.646-7.832zm31.261-38.938 26.891 26.921c1.367 1.37 2.126 3.204 2.126 5.138 0 6.392-7.771 9.723-12.339 5.211l-16.678-16.471zm-62.39-5.129c1.2-5.45 4.392-6.743 8.687-9.336 2.766-1.671 26.031-15.35 27.936-15.82 5.502-1.358 7.976.737 12.917 3.638 1.84 1.08 3.689 2.167 5.505 3.287 3.674 2.266 3.669 3.333 3.731 7.402.098 6.308-.192 46.01.127 46.466.813 1.161 22.644 22.361 23.524 23.823 1.056 1.756 2.461 8.462 2.954 10.52l9.741 41.299c1.395 5.824-2.98 11.436-8.982 11.436-4.273 0-8.003-2.932-8.99-7.085-1.173-4.933-8.871-38.562-9.891-40.546-1.025-1.994-6.674-7.09-8.574-8.99-7.68-7.679-15.339-15.379-23.002-23.074-1.31-1.314-6.023-5.65-6.682-7.173-.976-2.252-.704-17.96-.709-20.141l.026-19.458c-2.2.548-12.896 7.662-13.458 8.803-.594 1.212-.32 24.801-.32 28.003 0 4.015-3.255 7.27-7.27 7.27s-7.27-3.255-7.27-7.27zm45.759-59.423c6.918.8 15.401 5.902 17.373 12.93 1.703 6.075-.676 17.504-7.94 18.887-4.101.78-6.543.214-10.282-1.513-7.219-3.334-16.951-10.348-15.961-19.262.989-8.899 8.758-11.974 16.81-11.042m1.508-38.569c73.727 0 133.496 59.769 133.496 133.496 0 73.728-59.769 133.497-133.496 133.497-73.728 0-133.496-59.769-133.496-133.497 0-73.727 59.768-133.496 133.496-133.496" fill="#0099e2"/><path d="m235.163 46.524c5.348 4.547 10.334 9.507 14.908 14.832l-188.421 188.42c-5.324-4.574-10.285-9.559-14.832-14.907z" fill="#d72717"/></svg>