<svg clip-rule="evenodd" fill-rule="evenodd" stroke-miterlimit="22.926" viewBox="0 0 297 297" xmlns="http://www.w3.org/2000/svg"><path d="m148.272 6.54c78.276 0 141.731 63.456 141.731 141.732 0 78.277-63.455 141.733-141.731 141.733s-141.732-63.456-141.732-141.733c0-78.276 63.456-141.732 141.732-141.732" fill="#fff"/><ellipse cx="148.271" cy="148.272" fill="none" rx="141.731" ry="141.732" stroke="#000" stroke-width=".57"/><path d="m148.272 14.776c73.727 0 133.496 59.768 133.496 133.496 0 73.727-59.769 133.496-133.496 133.496-73.728 0-133.496-59.769-133.496-133.496 0-73.728 59.768-133.496 133.496-133.496" fill="#0099e2"/><path d="m152.475 86.481-7.366 7.269 18.622 31.972c2.18 3.742 7.608 3.27 9.074-.766.499-1.376.397-2.89-.343-4.162zm-16.612-20.691-14.289 14.305c-.726.728-1.13 1.703-1.13 2.731 0 3.396 4.13 5.166 6.557 2.769l8.862-8.753zm33.154-2.725c-.638-2.896-2.334-3.584-4.617-4.961-1.469-.888-13.832-8.157-14.844-8.407-2.924-.722-4.239.392-6.864 1.933-.978.574-1.96 1.152-2.925 1.747-1.953 1.204-1.95 1.771-1.983 3.933-.052 3.352.102 24.449-.068 24.692-.432.616-12.032 11.882-12.5 12.659-.561.933-1.308 4.496-1.57 5.59l-5.176 21.946c-.741 3.094 1.584 6.077 4.773 6.077 2.271 0 4.253-1.559 4.777-3.765.624-2.622 4.714-20.492 5.256-21.546.545-1.059 3.547-3.767 4.556-4.777 4.081-4.081 8.151-8.172 12.223-12.261.696-.698 3.201-3.003 3.551-3.812.519-1.197.374-9.544.377-10.703l-.014-10.339c1.169.291 6.853 4.071 7.151 4.678.316.644.17 13.178.17 14.88 0 2.133 1.73 3.863 3.863 3.863 2.134 0 3.864-1.73 3.864-3.863zm-24.316-31.577c-3.676.425-8.184 3.136-9.232 6.871-.905 3.228.359 9.301 4.219 10.036 2.18.415 3.477.114 5.464-.804 3.836-1.771 9.008-5.499 8.482-10.235-.526-4.729-4.654-6.363-8.933-5.868" fill="#fff"/><path d="m110.196 194.738-5.525 11.591c-.468.981-1.303 2.579-2.075 3.36l-.025.026-4.299 2.565c-1.613.963-3.62 2.987-2.669 5.047.109.239.257.457.436.65.97 1.048 2.931 1.166 4.119.445l7.086-4.304c1.103-.671 2.017-2.5 2.577-3.661l5.649-11.701c4.309 4.34 6.971 10.317 6.971 16.916 0 13.263-10.751 24.015-24.015 24.015-13.261 0-24.013-10.752-24.013-24.015 0-13.261 10.752-24.012 24.013-24.012 4.278 0 8.292 1.119 11.77 3.078m69.296 25.765 24.059-.08c1.232-.003 2.39-.497 3.211-1.421 1.479-1.667 1.326-3.959.155-5.749-1.859-2.844-3.828-5.644-5.777-8.427-2.602-3.715-5.229-7.415-7.864-11.108 2.979-1.323 6.274-2.058 9.744-2.058 13.261 0 24.013 10.751 24.013 24.012 0 13.263-10.752 24.015-24.013 24.015-11.609 0-21.293-8.236-23.528-19.184m-5.294-6.348h-9.534l13.056-31.339 7.311 10.29c-6.257 4.994-10.391 12.532-10.833 21.049m25.788 0h-20.932c.43-6.886 3.762-12.987 8.788-17.091zm-101.56-27.343c5.024 0 9.746 1.284 13.859 3.54l8.519-17.875c.28-.587.565-1.229.53-1.895-.044-.853-.457-1.626-1.116-2.166-.726-.595-1.769-.904-2.576-1.408-.846-.529-1.628-1.157-2.321-1.873-4.686-4.835-4.054-12.66 1.821-16.215 1.349-.817 2.869-1.277 4.452-1.277l14.935.002c4.782.001 4.354 6.373.372 6.373h-14.302c-3 0-4.548 3.297-3.061 5.676.102.162.217.317.346.459 1.227 1.352 3.253 1.987 4.638 3.229 2.878 2.577 3.615 5.527 3.13 9.22l-.041.319 47.564-.007 1.516-3.391h-12.424c-5.619 0-5.619-8.814 0-8.814h20.739c5.62 0 5.62 8.814 0 8.814h-2.296l-.072.172c-.362.869-.742 1.731-1.105 2.601-.272.654-.956 2.174-1.04 2.836-.066.521.211 1.092.509 1.504 3.148 4.347 6.284 8.705 9.408 13.07 3.809-1.853 8.088-2.894 12.61-2.894 15.938 0 28.86 12.922 28.86 28.86 0 15.94-12.922 28.861-28.86 28.861-14.288 0-26.149-10.383-28.454-24.013l-15.739.052-39.404-30.004-1.742 3.607c5.896 5.284 9.606 12.957 9.606 21.497 0 15.94-12.921 28.861-28.861 28.861-15.939 0-28.859-12.921-28.859-28.861 0-15.938 12.92-28.86 28.859-28.86m26.695-7.399h48.188l-13.914 33.398-36.775-28.221z" fill="#fff"/><path d="m235.163 46.524c5.348 4.547 10.334 9.507 14.908 14.832l-188.421 188.42c-5.324-4.574-10.285-9.559-14.832-14.907z" fill="#d72717"/></svg>