<svg clip-rule="evenodd" fill-rule="evenodd" stroke-miterlimit="22.926" viewBox="0 0 297 297" xmlns="http://www.w3.org/2000/svg"><path d="m148.272 6.54c78.276 0 141.731 63.456 141.731 141.732 0 78.277-63.455 141.733-141.731 141.733s-141.732-63.456-141.732-141.733c0-78.276 63.456-141.732 141.732-141.732" fill="#fff"/><ellipse cx="148.271" cy="148.272" fill="none" rx="141.731" ry="141.732" stroke="#000" stroke-width=".57"/><path d="m148.272 14.776c73.727 0 133.496 59.768 133.496 133.496 0 73.727-59.769 133.496-133.496 133.496-73.728 0-133.496-59.769-133.496-133.496 0-73.728 59.768-133.496 133.496-133.496" fill="#0099e2"/><g fill="#fff"><path d="m61.469 147.018-5.441 5.37 13.756 23.617c1.61 2.764 5.62 2.417 6.703-.565.369-1.017.293-2.136-.254-3.075zm-12.271-15.285-10.556 10.567c-.537.538-.835 1.258-.835 2.017 0 2.509 3.051 3.817 4.844 2.046l6.547-6.465zm24.49-2.014c-.471-2.139-1.724-2.646-3.41-3.664-1.085-.656-10.218-6.026-10.966-6.21-2.16-.534-3.131.289-5.07 1.427-.722.425-1.448.852-2.161 1.291-1.443.89-1.44 1.308-1.464 2.906-.039 2.476.074 18.06-.05 18.239-.32.456-8.889 8.778-9.235 9.352-.414.689-.966 3.322-1.159 4.13l-3.824 16.211c-.548 2.286 1.17 4.489 3.526 4.489 1.677 0 3.141-1.151 3.529-2.781.46-1.936 3.482-15.137 3.882-15.916.402-.782 2.62-2.783 3.366-3.529 3.015-3.014 6.021-6.036 9.029-9.057.515-.516 2.364-2.218 2.623-2.816.383-.884.277-7.05.278-7.906l-.01-7.638c.864.215 5.063 3.008 5.283 3.455.233.476.126 9.735.126 10.992 0 1.577 1.278 2.854 2.853 2.854 1.576 0 2.854-1.277 2.854-2.854zm-17.962-23.326c-2.716.315-6.046 2.317-6.82 5.076-.668 2.385.265 6.871 3.117 7.414 1.61.306 2.568.084 4.036-.594 2.834-1.309 6.654-4.062 6.266-7.561-.389-3.493-3.438-4.7-6.599-4.335"/><path d="m150.073 136.379-5.374 11.276c-.455.955-1.269 2.51-2.019 3.269l-.024.026-4.183 2.495c-1.569.937-3.523 2.907-2.597 4.91.107.232.251.445.424.633.944 1.019 2.852 1.134 4.008.433l6.894-4.187c1.073-.654 1.962-2.433 2.507-3.562l5.495-11.384c4.193 4.222 6.783 10.037 6.783 16.457 0 12.904-10.46 23.364-23.364 23.364-12.902 0-23.361-10.46-23.361-23.364 0-12.901 10.459-23.361 23.361-23.361 4.161 0 8.066 1.089 11.45 2.995m67.417 25.066 23.407-.078c1.199-.003 2.326-.483 3.125-1.383 1.438-1.621 1.29-3.851.151-5.592-1.809-2.766-3.725-5.491-5.621-8.198-2.532-3.614-5.087-7.215-7.651-10.808 2.898-1.286 6.104-2.002 9.48-2.002 12.902 0 23.362 10.46 23.362 23.361 0 12.904-10.46 23.364-23.362 23.364-11.294 0-20.715-8.013-22.891-18.664m-5.149-6.175h-9.277l12.702-30.49 7.114 10.01c-6.088 4.86-10.109 12.193-10.539 20.48m25.088 0h-20.364c.418-6.7 3.659-12.636 8.549-16.628zm-98.806-26.602c4.887 0 9.481 1.249 13.484 3.444l8.287-17.39c.272-.572.55-1.197.515-1.844-.042-.83-.445-1.583-1.085-2.108-.706-.579-1.722-.879-2.506-1.369-.823-.514-1.584-1.126-2.259-1.823-4.558-4.704-3.942-12.317 1.771-15.775 1.315-.795 2.793-1.242 4.332-1.242l14.531.002c4.652.001 4.236 6.199.361 6.199h-13.914c-2.918 0-4.424 3.209-2.978 5.523.099.158.212.307.337.446 1.194 1.315 3.165 1.934 4.513 3.142 2.8 2.507 3.516 5.377 3.044 8.97l-.04.31 46.275-.006 1.474-3.3h-12.087c-5.466 0-5.466-8.575 0-8.575h20.178c5.467 0 5.467 8.575 0 8.575h-2.234l-.07.168c-.353.844-.722 1.684-1.076 2.53-.264.636-.929 2.116-1.011 2.759-.065.508.205 1.063.495 1.463 3.063 4.229 6.114 8.47 9.153 12.716 3.706-1.803 7.869-2.815 12.268-2.815 15.506 0 28.077 12.571 28.077 28.077 0 15.508-12.571 28.079-28.077 28.079-13.9 0-25.44-10.102-27.682-23.362l-15.313.05-38.336-29.19-1.695 3.508c5.737 5.141 9.346 12.607 9.346 20.915 0 15.508-12.57 28.079-28.078 28.079-15.507 0-28.076-12.571-28.076-28.079 0-15.506 12.569-28.077 28.076-28.077m25.97-7.199h46.882l-13.536 32.493-35.778-27.456z"/><path d="m93.827 14.714h5.066v269.369h-5.066z"/></g><path d="m235.129 46.49c5.348 4.547 10.334 9.507 14.908 14.832l-188.421 188.42c-5.324-4.574-10.285-9.559-14.832-14.907z" fill="#d72717"/></svg>