<svg clip-rule="evenodd" fill-rule="evenodd" stroke-miterlimit="22.926" viewBox="0 0 297 297" xmlns="http://www.w3.org/2000/svg"><path d="m148.272 6.54c78.276 0 141.731 63.456 141.731 141.732 0 78.277-63.455 141.733-141.731 141.733s-141.732-63.456-141.732-141.733c0-78.276 63.456-141.732 141.732-141.732" fill="#fff"/><ellipse cx="148.271" cy="148.272" fill="none" rx="141.731" ry="141.732" stroke="#000" stroke-width=".57"/><path d="m148.272 14.777c73.727 0 133.496 59.768 133.496 133.496 0 73.727-59.769 133.496-133.496 133.496-73.728 0-133.497-59.769-133.497-133.496 0-73.728 59.769-133.496 133.497-133.496" fill="#0099e2"/><g fill="#fff"><path d="m137.127 201.042h-61.181v-17.778c14.29-13.608 28.515-27.804 39.944-42.612 4.214-5.46 9.101-10.03 7.589-17.289-1.354-6.463-6.552-11.898-13.44-11.765-7.52.144-13.775 6.093-20.732 14.003l-11.74-13.4c6.537-9.803 21.014-15.381 31.914-15.381 29.948 0 37.587 32.033 26.484 47.765-6.729 9.546-24.176 26.652-35.047 37.602h40.996z"/><path d="m188.767 201.51c18.949.009 29.786-16.183 33.639-33.749 4.905-22.362 1.964-61.089-22.773-70.879-15.776-6.239-31.15 1.637-39.184 16.807-13.926 26.305-9.522 87.801 28.318 87.821m.01-18.464c-8.992.099-13.544-9.582-15.404-17.839-2.46-10.876-3.938-46.648 10.757-51.21 8.029-2.495 14.461 1.031 17.863 8.882 5.971 13.792 7.137 60.395-13.216 60.167"/></g></svg>