<svg clip-rule="evenodd" fill-rule="evenodd" stroke-miterlimit="22.926" viewBox="0 0 297 297" xmlns="http://www.w3.org/2000/svg"><path d="m148.272 6.54c78.276 0 141.731 63.456 141.731 141.732 0 78.277-63.455 141.733-141.731 141.733s-141.732-63.456-141.732-141.733c0-78.276 63.456-141.732 141.732-141.732" fill="#fff"/><ellipse cx="148.271" cy="148.272" fill="none" rx="141.731" ry="141.732" stroke="#000" stroke-width=".57"/><path d="m148.272 14.777c73.727 0 133.496 59.768 133.496 133.496 0 73.727-59.769 133.496-133.496 133.496-73.728 0-133.497-59.769-133.497-133.496 0-73.728 59.769-133.496 133.497-133.496" fill="#0099e2"/><g fill="#fff"><path d="m105.885 96.781c12.703 0 23.24 6.359 29.503 18.609 4.761 9.321 5.686 20.402 5.686 33.835 0 26.164-12.631 52.529-40.947 51.756-7.628-.21-15.222-2.156-21.151-5.395l-.844-18.103c22.873 15.532 44.486 6.263 44.486-22.835-20.898 20.66-47.973 3.02-48.613-21.132-.481-18.246 15.213-36.735 31.88-36.735m-13.304 34.622c0 4.956.105 8.677 2.38 11.606 2.275 2.934 6.363 4.47 10.28 4.47 3.449 0 6.711-1.145 9.845-3.387 2.834-2.032 6.073-4.226 7.547-7.155-.205-5.543-1.555-10.414-4.079-14.592-3.015-4.885-6.721-8.954-11.582-8.954-7.708 0-14.391 10.785-14.391 18.012" fill-rule="nonzero"/><path d="m191.767 201.51c18.949.009 29.786-16.183 33.639-33.749 4.905-22.362 1.964-61.089-22.773-70.879-15.776-6.239-31.15 1.637-39.184 16.807-13.926 26.305-9.522 87.801 28.318 87.821m.01-18.464c-8.992.099-13.544-9.582-15.404-17.839-2.46-10.876-3.938-46.648 10.757-51.21 8.029-2.495 14.461 1.031 17.863 8.882 5.971 13.792 7.137 60.395-13.216 60.167"/></g></svg>