<svg clip-rule="evenodd" fill-rule="evenodd" stroke-miterlimit="22.926" viewBox="0 0 297 297" xmlns="http://www.w3.org/2000/svg"><path d="m148.272 6.54c78.276 0 141.731 63.456 141.731 141.732 0 78.277-63.455 141.733-141.731 141.733s-141.732-63.456-141.732-141.733c0-78.276 63.456-141.732 141.732-141.732" fill="#fff"/><ellipse cx="148.271" cy="148.272" fill="none" rx="141.731" ry="141.732" stroke="#000" stroke-width=".57"/><path d="m148.272 14.777c73.727 0 133.496 59.768 133.496 133.496 0 73.727-59.769 133.496-133.496 133.496-73.728 0-133.497-59.769-133.497-133.496 0-73.728 59.769-133.496 133.497-133.496" fill="#0099e2"/><g fill="#fff"><path d="m102.307 197.43-1.735-19.973c10.528 8.045 45.351 12.886 46.503-7.578.583-10.402-7.325-14.65-16.731-14.65-3.014 0-6.236.262-9.376 1.342v-16.877c14.013-1.662 21.401-8.112 21.805-16.808.204-4.39-2.931-9.663-10.859-9.945-6.781-.238-17.027 4.408-23.02 9.245l-6.217-17.358c7.296-4.919 21.615-7.913 30.992-7.967 15.199 0 29.193 7.904 29.193 24.567.029 9.497-7.164 17.513-17.96 22.743v.287c13.906 2.114 22.865 14.217 22.865 27.881-.015 21.703-20.838 28.936-37.51 28.936-10.028 0-21.976-.253-27.95-3.845"/><path d="m209.8 203.253c18.949.01 29.785-16.182 33.639-33.748 4.905-22.362 1.964-61.09-22.774-70.879-15.775-6.239-31.149 1.636-39.183 16.807-13.926 26.304-9.522 87.8 28.318 87.82m.009-18.463c-8.991.099-13.544-9.582-15.403-17.839-2.46-10.876-3.938-46.648 10.757-51.211 8.029-2.494 14.461 1.032 17.863 8.883 5.971 13.792 7.137 60.395-13.217 60.167"/><path d="m85.888 96.842-.451 102.564h-18.761l-.02-77.634-13.559 8.253-7.141-9.165 22.381-24.023z"/></g></svg>