<svg clip-rule="evenodd" fill-rule="evenodd" stroke-miterlimit="22.926" viewBox="0 0 297 297" xmlns="http://www.w3.org/2000/svg"><path d="m148.238 6.506c78.276 0 141.731 63.456 141.731 141.732 0 78.277-63.455 141.733-141.731 141.733s-141.732-63.456-141.732-141.733c0-78.276 63.456-141.732 141.732-141.732" fill="#fff"/><ellipse cx="148.237" cy="148.238" fill="none" rx="141.731" ry="141.732" stroke="#000" stroke-width=".57"/><path d="m194.385 201.015c18.732.012 29.446-15.995 33.255-33.358 4.848-22.11 1.942-60.394-22.516-70.072-15.593-6.169-30.793 1.619-38.733 16.618-11.716 22.127-11.152 73.609 17.313 84.779 3.439 1.359 6.993 2.031 10.681 2.033m.01-18.247c-8.889.091-13.388-9.478-15.232-17.64-2.426-10.747-3.89-46.108 10.641-50.627 7.932-2.465 14.296 1.029 17.653 8.783 5.135 11.858 7.009 49.611-7.124 57.832-1.963 1.131-3.95 1.673-5.938 1.652m-121.156 15.081-3.261-20.56c7.303 4.493 15.267 6.182 22.756 6.182 14.108 0 24.018-9.365 24.018-18.661 0-8.867-6.674-17.697-16.888-17.351-4.363.149-9.919 1.702-14.797 6.692l-11.493-5.473v-51.454h58.719l-4.768 17.824h-37.231v20.805c22.617-12.099 46.032 3.926 45.668 26.267-.352 21.466-15.397 38.473-39.251 38.895-7.453.035-15.194-1.892-23.472-3.166m74.999-183.106c73.727 0 133.496 59.768 133.496 133.496 0 73.727-59.769 133.496-133.496 133.496-73.728 0-133.497-59.769-133.497-133.496 0-73.728 59.769-133.496 133.497-133.496" fill="#0099e2"/></svg>