<svg clip-rule="evenodd" fill-rule="evenodd" stroke-miterlimit="22.926" viewBox="0 0 297 297" xmlns="http://www.w3.org/2000/svg"><path d="m148.272 6.54c78.276 0 141.731 63.456 141.731 141.732 0 78.277-63.455 141.733-141.731 141.733s-141.732-63.456-141.732-141.733c0-78.276 63.456-141.732 141.732-141.732" fill="#fff"/><ellipse cx="148.271" cy="148.272" fill="none" rx="141.731" ry="141.732" stroke="#000" stroke-width=".57"/><path d="m148.272 14.777c73.727 0 133.496 59.768 133.496 133.496 0 73.727-59.769 133.496-133.496 133.496-73.728 0-133.497-59.769-133.497-133.496 0-73.728 59.769-133.496 133.497-133.496" fill="#0099e2"/><path d="m105.681 96.934c34.38 0 41.854 38.712 17.246 50.062v.305c25.692 9.26 22.207 53.8-17.246 53.8-39.458 0-42.928-44.55-17.246-53.8v-.305c-24.535-11.316-17.212-50.062 17.246-50.062m.005 59.97c18.983 4.061 17.788 22.992 5.629 26.636-21.336 6.394-29.55-21.519-5.629-26.636m14.434-31.906c0 3.818-1.254 6.979-3.747 9.515-2.522 2.517-6.065 4.274-10.692 5.272-4.632-.998-8.18-2.755-10.697-5.272-6.752-6.805-5.237-22.192 10.697-22.192 7.982 0 14.439 4.192 14.439 12.677" fill="#fff"/><path d="m190.767 201.51c18.949.009 29.786-16.183 33.639-33.749 4.905-22.362 1.964-61.089-22.773-70.879-15.776-6.239-31.15 1.637-39.184 16.807-13.926 26.305-9.522 87.801 28.318 87.821m.01-18.464c-8.992.099-13.544-9.582-15.404-17.839-2.46-10.876-3.938-46.648 10.757-51.21 8.029-2.495 14.461 1.031 17.863 8.882 5.971 13.792 7.137 60.395-13.216 60.167" fill="#fff"/><path d="m235.129 46.49c5.348 4.547 10.334 9.507 14.908 14.832l-188.421 188.42c-5.324-4.574-10.285-9.559-14.832-14.907z" fill="#d72717"/></svg>