<svg clip-rule="evenodd" fill-rule="evenodd" stroke-miterlimit="22.926" viewBox="0 0 297 297" xmlns="http://www.w3.org/2000/svg"><path d="m148.272 6.54c78.276 0 141.731 63.456 141.731 141.732 0 78.277-63.455 141.733-141.731 141.733s-141.732-63.456-141.732-141.733c0-78.276 63.456-141.732 141.732-141.732" fill="#fff"/><ellipse cx="148.271" cy="148.272" fill="none" rx="141.731" ry="141.732" stroke="#000" stroke-width=".57"/><path d="m148.272 14.777c73.727 0 133.496 59.768 133.496 133.496 0 73.727-59.769 133.496-133.496 133.496-73.728 0-133.497-59.769-133.497-133.496 0-73.728 59.769-133.496 133.497-133.496" fill="#0099e2"/><path d="m110.152 163.923v-36.868l-28.364 36.868zm0 37.035v-19.189h-49.098v-17.76l50.125-67.13h18.58v67.044h13.93l-6.763 17.846h-7.167v19.189z" fill="#fff"/><path d="m189.767 201.51c18.949.009 29.786-16.183 33.639-33.749 4.905-22.362 1.964-61.089-22.773-70.879-15.776-6.239-31.15 1.637-39.184 16.807-13.926 26.305-9.522 87.801 28.318 87.821m.01-18.464c-8.992.099-13.544-9.582-15.404-17.839-2.46-10.876-3.938-46.648 10.757-51.21 8.029-2.495 14.461 1.031 17.863 8.882 5.971 13.792 7.137 60.395-13.216 60.167" fill="#fff"/><path d="m235.129 46.49c5.348 4.547 10.334 9.507 14.908 14.832l-188.421 188.42c-5.324-4.574-10.285-9.559-14.832-14.907z" fill="#d72717"/></svg>