<svg clip-rule="evenodd" fill-rule="evenodd" stroke-miterlimit="22.926" viewBox="0 0 297 297" xmlns="http://www.w3.org/2000/svg"><path d="m148.272 6.54c78.276 0 141.731 63.456 141.731 141.732 0 78.277-63.455 141.733-141.731 141.733s-141.732-63.456-141.732-141.733c0-78.276 63.456-141.732 141.732-141.732" fill="#fff"/><ellipse cx="148.271" cy="148.272" fill="none" rx="141.731" ry="141.732" stroke="#000" stroke-width=".57"/><path d="m148.272 14.777c73.727 0 133.496 59.768 133.496 133.496 0 73.727-59.769 133.496-133.496 133.496-73.728 0-133.497-59.769-133.497-133.496 0-73.728 59.769-133.496 133.497-133.496" fill="#0099e2"/><path d="m142.517 198.707-3.486-21.509c22.802 13.727 47.932 3.741 47.932-12.273 0-12.702-14.176-25.46-32.458-10.494l-11.963-5.515v-52.043h60.415l-4.76 18.921-37.902-.075v19.665c23.401-11.288 47.308 3.907 46.923 26.834-.36 21.614-15.48 38.712-40.275 38.832-7.667.035-15.909-1.054-24.426-2.343" fill="#fff"/><path d="m122.888 96.842-.451 102.564h-18.761l-.02-77.634-13.559 8.253-7.141-9.165 22.381-24.023z" fill="#fff"/><path d="m235.129 46.49c5.348 4.547 10.334 9.507 14.908 14.832l-188.421 188.42c-5.324-4.574-10.285-9.559-14.832-14.907z" fill="#d72717"/></svg>