<svg clip-rule="evenodd" fill-rule="evenodd" stroke-miterlimit="22.926" viewBox="0 0 297 297" xmlns="http://www.w3.org/2000/svg"><path d="m148.272 6.54c78.276 0 141.731 63.456 141.731 141.732 0 78.277-63.455 141.733-141.731 141.733s-141.732-63.456-141.732-141.733c0-78.276 63.456-141.732 141.732-141.732" fill="#fff"/><ellipse cx="148.271" cy="148.272" fill="none" rx="141.731" ry="141.732" stroke="#000" stroke-width=".57"/><path d="m148.272 14.777c73.727 0 133.496 59.768 133.496 133.496 0 73.727-59.769 133.496-133.496 133.496-73.728 0-133.497-59.769-133.497-133.496 0-73.728 59.769-133.496 133.497-133.496" fill="#0099e2"/><g fill="#fff"><path d="m199.8 203.253c18.949.01 29.785-16.182 33.639-33.748 4.905-22.362 1.964-61.09-22.774-70.879-15.775-6.239-31.149 1.636-39.183 16.807-13.926 26.304-9.522 87.8 28.318 87.82m.009-18.463c-8.991.099-13.544-9.582-15.403-17.839-2.46-10.876-3.938-46.648 10.757-51.211 8.029-2.494 14.461 1.032 17.863 8.883 5.971 13.792 7.137 60.395-13.217 60.167"/><path d="m96.888 96.842-.451 102.564h-18.761l-.02-77.634-13.559 8.253-7.141-9.165 22.381-24.023z"/><path d="m148.646 97.074-.451 102.564h-18.761l-.02-77.634-13.559 8.253-7.141-9.165 22.381-24.023z"/></g><path d="m235.129 46.49c5.348 4.547 10.334 9.507 14.908 14.832l-188.421 188.42c-5.324-4.574-10.285-9.559-14.832-14.907z" fill="#d72717"/></svg>