<svg clip-rule="evenodd" fill-rule="evenodd" stroke-miterlimit="22.926" viewBox="0 0 297 297" xmlns="http://www.w3.org/2000/svg"><path d="m148.272 6.54c78.276 0 141.731 63.456 141.731 141.732 0 78.277-63.455 141.733-141.731 141.733s-141.732-63.456-141.732-141.733c0-78.276 63.456-141.732 141.732-141.732" fill="#fff"/><ellipse cx="148.271" cy="148.272" fill="none" rx="141.731" ry="141.732" stroke="#000" stroke-width=".57"/><path d="m148.272 14.777c73.727 0 133.496 59.768 133.496 133.496 0 73.727-59.769 133.496-133.496 133.496-73.728 0-133.497-59.769-133.497-133.496 0-73.728 59.769-133.496 133.497-133.496" fill="#0099e2"/><path d="m127.952 190.692c-6.126 6.204-12.402 10.365-20.552 10.365-12.711 0-22.121-7.367-28.387-19.644-4.765-9.327-7.208-19.504-7.208-32.964 0-14.885 5.064-27.326 11.432-38.005 9.125-15.299 31.955-16.279 47.694-9.762l4.229 19.524c-9.824-3.901-27.538-10.882-36.933-.584-6.228 6.826-6.86 13.025-6.86 23.25 9.965-10.476 28.923-12.537 39.612-1.371 12.002 12.533 9.023 36.986-3.027 49.191m-7.246-24.318c0-4.963-.107-8.695-2.38-11.63-2.279-2.94-6.368-4.475-10.284-4.475-3.447 0-6.715 1.144-9.848 3.394-2.834 2.032-6.079 4.229-7.556 7.164.208 5.557 1.564 10.433 4.084 14.624 3.018 4.885 6.938 7.323 11.8 7.323 3.504 0 6.604-1.569 9.25-4.731 2.645-3.162 4.934-7.005 4.934-11.669" fill="#fff"/><path d="m189.767 201.51c18.949.009 29.786-16.183 33.639-33.749 4.905-22.362 1.964-61.089-22.773-70.879-15.776-6.239-31.15 1.637-39.184 16.807-13.926 26.305-9.522 87.801 28.318 87.821m.01-18.464c-8.992.099-13.544-9.582-15.404-17.839-2.46-10.876-3.938-46.648 10.757-51.21 8.029-2.495 14.461 1.031 17.863 8.882 5.971 13.792 7.137 60.395-13.216 60.167" fill="#fff"/><path d="m235.129 46.49c5.348 4.547 10.334 9.507 14.908 14.832l-188.421 188.42c-5.324-4.574-10.285-9.559-14.832-14.907z" fill="#d72717"/></svg>