<svg clip-rule="evenodd" fill-rule="evenodd" stroke-miterlimit="22.926" viewBox="0 0 297 297" xmlns="http://www.w3.org/2000/svg"><path d="m148.238 6.506c78.276 0 141.731 63.456 141.731 141.732 0 78.277-63.455 141.733-141.731 141.733s-141.732-63.456-141.732-141.733c0-78.276 63.456-141.732 141.732-141.732" fill="#fff"/><ellipse cx="148.237" cy="148.238" fill="none" rx="141.731" ry="141.732" stroke="#000" stroke-width=".57"/><path d="m178.134 137.4 22.296-22.297c2.964 1.544 5.364 4.339 7.027 8.18 5.135 11.858 7.009 49.611-7.124 57.832-1.963 1.132-3.95 1.674-5.938 1.652-8.889.091-13.388-9.477-15.232-17.639-1.216-5.387-2.189-16.957-1.029-27.728m73.544-73.545c18.784 22.998 30.056 52.373 30.056 84.383 0 73.727-59.769 133.496-133.496 133.496-32.01 0-61.385-11.271-84.383-30.055l95.64-95.64c1.461 18.769 8.686 36.851 24.209 42.942 3.439 1.359 6.993 2.031 10.681 2.033 18.732.012 29.446-15.995 33.255-33.358 4.253-19.398 2.537-51.242-14.464-65.299zm-103.44-49.113c32 0 61.369 11.262 84.363 30.038l-101.061 101.06c-7.799-12.662-24.733-18.821-41.246-9.988v-20.805h37.231l4.768-17.824h-58.719v51.454l11.493 5.473c4.878-4.989 10.434-6.543 14.797-6.691 8.751-.297 14.904 6.143 16.487 13.571l-22.417 22.417c-.397.016-.797.023-1.2.023-7.489 0-15.453-1.689-22.756-6.181l3.261 20.559c1.82.281 3.615.592 5.386.907l-33.845 33.846c-18.775-22.994-30.039-52.362-30.039-84.363 0-73.728 59.769-133.496 133.497-133.496" fill="#0099e2"/><path d="m232.601 44.78c6.981 5.701 13.376 12.094 19.077 19.075l-187.823 187.824c-6.982-5.702-13.374-12.096-19.075-19.078z" fill="#d72717"/></svg>