<svg clip-rule="evenodd" fill-rule="evenodd" stroke-miterlimit="22.926" viewBox="0 0 297 438" xmlns="http://www.w3.org/2000/svg"><path d="m27.807 6.54h240.93c11.697 0 21.266 9.57 21.266 21.268v382.14c0 11.697-9.569 21.268-21.266 21.268h-240.93c-11.697 0-21.267-9.571-21.267-21.268v-382.14c0-11.698 9.57-21.268 21.267-21.268z" fill="#fff" stroke="#000" stroke-width=".57"/><path d="m94.823 193.148h106.896v-5.797h-106.896zm14.404 2.704h-14.624v32.569h14.624v-13.261h30.265c1.334 3.611 4.659 6.596 8.55 6.596s7.216-2.985 8.549-6.596h30.71v13.258h14.639v-32.566h-14.639v13.345h-30.713c-1.336-3.604-4.659-6.815-8.546-6.815-3.888 0-7.211 3.211-8.547 6.815h-30.268zm-81.037-180.033h239.742c6.865 0 12.483 5.619 12.483 12.485v381.151c0 6.866-5.618 12.485-12.483 12.485h-239.742c-6.866 0-12.483-5.619-12.483-12.485v-381.151c0-6.866 5.617-12.485 12.483-12.485m.037-4.635h240.089c9.409 0 17.107 7.698 17.107 17.106v381.177c0 9.409-7.698 17.106-17.107 17.106h-240.089c-9.409 0-17.107-7.697-17.107-17.106v-381.177c0-9.408 7.698-17.106 17.107-17.106"/><path d="m105.339 59.312h85.864c6.016 0 10.937 4.923 10.937 10.937v113.774h-107.738v-113.774c0-6.015 4.922-10.937 10.937-10.937" fill="#e89300"/><path d="m147.291 259.97c37.211 0 67.376 30.166 67.376 67.377 0 34.746-26.303 63.346-60.083 66.983v-87.349h11.772l-19.065-33.024-19.066 33.024h11.773v87.349c-33.781-3.636-60.084-32.236-60.084-66.983 0-37.211 30.165-67.377 67.377-67.377" fill="#0099e2"/></svg>