<svg clip-rule="evenodd" fill-rule="evenodd" stroke-miterlimit="22.926" viewBox="0 0 297 438" xmlns="http://www.w3.org/2000/svg"><path d="m20.646 6.506h255.184c7.776 0 14.139 6.365 14.139 14.144v396.343c0 7.778-6.363 14.143-14.139 14.143h-255.184c-7.777 0-14.14-6.365-14.14-14.143v-396.343c0-7.779 6.363-14.144 14.14-14.144z" fill="#fff" stroke="#000" stroke-width=".57"/><path d="m21.607 12.484h110.548l-26.363 101.274h34.284l3.335-101.274h9.653l3.336 101.274h34.284l-26.364-101.274h110.549c4.861 0 8.839 3.977 8.839 8.839v105.693h-270.94v-105.693c0-4.862 3.977-8.839 8.839-8.839m262.101 130.494v273.341c0 4.861-3.978 8.838-8.839 8.838h-3.123l-70.005-268.921h-43.943l8.859 268.921h-36.838l8.857-268.921h-43.942l-70.004 268.921h-3.123c-4.862 0-8.839-3.977-8.839-8.838v-273.341h39.309v31.094h16.077l9.061-31.094h142.045l9.062 31.094h16.077v-31.094z" fill="#008d21"/></svg>