<svg clip-rule="evenodd" fill-rule="evenodd" stroke-miterlimit="22.926" viewBox="0 0 297 297" xmlns="http://www.w3.org/2000/svg"><path d="m6.506 271.385v-246.294c0-10.222 8.363-18.585 18.585-18.585h246.295c10.222 0 18.585 8.363 18.585 18.585v246.294c0 10.222-8.363 18.586-18.585 18.586h-246.295c-10.222 0-18.585-8.364-18.585-18.586z" fill="#fff" stroke="#000" stroke-width=".57"/><path d="m35.15 148.238 66.854 39.129v-24.484h92.468v24.484l66.854-39.129-66.854-39.129v24.484h-92.468v-24.484zm-20.677-123.078c0-5.878 4.809-10.687 10.686-10.687h246.158c5.877 0 10.686 4.809 10.686 10.687v246.156c0 5.878-4.809 10.687-10.686 10.687h-246.158c-5.877 0-10.686-4.809-10.686-10.687v-246.156z" fill="#0099e2"/></svg>