<svg clip-rule="evenodd" fill-rule="evenodd" stroke-miterlimit="22.926" viewBox="0 0 297 297" xmlns="http://www.w3.org/2000/svg"><path d="m25.091 6.506h246.293c10.222 0 18.585 8.363 18.585 18.585v246.296c0 10.222-8.363 18.585-18.585 18.585h-246.293c-10.222 0-18.585-8.363-18.585-18.585v-246.296c0-10.222 8.363-18.585 18.585-18.585z" fill="#fff" stroke="#000" stroke-width=".57"/><path d="m62.566 147.233v47.022h-23.665l38.601 67.737 38.601-67.737h-23.665v-47.022zm-16.416-106.786h62.703c3.067 0 5.576 2.509 5.576 5.575v21.7c0 3.067-2.509 5.575-5.576 5.575h-62.703c-3.066 0-5.576-2.508-5.576-5.575v-21.7c0-3.066 2.51-5.575 5.576-5.575m59.642 53.372c9.346 0 9.346 14.197 0 14.197-9.347 0-9.347-14.197 0-14.197m-56.58 0c9.347 0 9.347 14.197 0 14.197-9.346 0-9.346-14.197 0-14.197m-11.218 30.059h13.092v9.045c0 8.581-13.092 8.581-13.092 0zm65.923 0h13.092v9.045c0 8.581-13.092 8.581-13.092 0zm-55.427-89.273h58.023c7.667 0 13.939 6.273 13.939 13.939v67.075c0 2.811-2.301 5.111-5.111 5.111h-75.678c-2.811 0-5.112-2.3-5.112-5.111v-67.075c0-7.666 6.273-13.939 13.939-13.939m104.358-20.132h118.468c5.877 0 10.686 4.809 10.686 10.687v246.157c0 5.878-4.809 10.687-10.686 10.687h-37.466v-180.013h23.665l-38.602-67.737-38.6 67.737h23.665v180.013h-51.13v-267.531zm-127.689 0h118.468v267.531h-118.468c-5.878 0-10.686-4.809-10.686-10.687v-246.157c0-5.878 4.808-10.687 10.686-10.687" fill="#0099e2"/></svg>