<svg clip-rule="evenodd" fill-rule="evenodd" stroke-miterlimit="22.926" viewBox="0 0 297 297" xmlns="http://www.w3.org/2000/svg"><path d="m25.091 6.506h246.293c10.222 0 18.585 8.363 18.585 18.585v246.296c0 10.222-8.363 18.585-18.585 18.585h-246.293c-10.222 0-18.585-8.363-18.585-18.585v-246.296c0-10.222 8.363-18.585 18.585-18.585z" fill="#fff" stroke="#000" stroke-width=".57"/><path d="m46.151 40.447h62.702c3.068 0 5.576 2.509 5.576 5.575v21.7c0 3.067-2.508 5.576-5.576 5.576h-62.702c-3.067 0-5.576-2.509-5.576-5.576v-21.7c0-3.066 2.509-5.575 5.576-5.575m59.641 53.372c9.346 0 9.346 14.197 0 14.197s-9.346-14.197 0-14.197m-56.579 0c9.346 0 9.346 14.197 0 14.197-9.347 0-9.347-14.197 0-14.197m-11.218 30.059h13.092v9.046c0 8.581-13.092 8.581-13.092 0zm65.923 0h13.091v9.046c0 8.581-13.091 8.581-13.091 0zm-55.427-89.273h58.023c7.666 0 13.939 6.273 13.939 13.939v67.075c0 2.811-2.301 5.111-5.112 5.111h-75.678c-2.81 0-5.111-2.3-5.111-5.111v-67.075c0-7.666 6.272-13.939 13.939-13.939m155.487 81.242v166.157h-51.13v-115.027zm78.025-78.024v233.494c0 5.878-4.809 10.687-10.687 10.687h-37.466v-180.013h23.665l-14.404-25.276zm-129.155-23.35h106.14l-32.707 32.708-7.367-12.926-26.886 47.179-39.18 39.18zm-9.22 161.725v105.806h-105.806l32.541-32.541 7.14 12.529 26.058-45.727zm-118.468-161.725h118.468v115.361l-51.189 51.19v-33.791h-29.872v47.023h-23.666l14.632 25.673-39.06 39.06v-233.829c0-5.878 4.809-10.687 10.687-10.687" fill="#0099e2"/><path d="m258.988 14.474h12.328c5.878 0 10.687 4.809 10.687 10.687v12.663l-244.181 244.18h-12.662c-5.878 0-10.687-4.808-10.687-10.686v-12.328l244.515-244.516z" fill="#d72717"/></svg>