<svg clip-rule="evenodd" fill-rule="evenodd" stroke-miterlimit="22.926" viewBox="0 0 297 297" xmlns="http://www.w3.org/2000/svg"><path d="m6.506 271.385v-246.294c0-10.222 8.363-18.585 18.585-18.585h246.293c10.222 0 18.585 8.363 18.585 18.585v246.294c0 10.222-8.363 18.585-18.585 18.585h-246.293c-10.222 0-18.585-8.363-18.585-18.585z" fill="#fff" stroke="#000" stroke-width=".57"/><path d="m147.232 234.834h47.021v23.665l67.737-38.602-67.737-38.6v23.665h-47.021zm-64.269-54.197h-28.545c-2.028 0-3.686 1.658-3.686 3.685v19.202c0 2.028 1.659 3.686 3.686 3.686h28.545c2.027 0 3.686-1.659 3.686-3.686v-19.202c0-2.025-1.658-3.685-3.686-3.685m18.043 0h10.686c2.026 0 3.983 1.157 5.433 3.685l9.586 16.728c1.469 2.566-.092 6.159-4.126 6.159h-21.579c-2.025 0-3.686-1.659-3.686-3.686v-19.201c0-2.026 1.66-3.685 3.686-3.685m.398 65.139c-4.847 0-8.776 3.93-8.776 8.776s3.929 8.776 8.776 8.776c4.846 0 8.775-3.93 8.775-8.776s-3.929-8.776-8.775-8.776m0-10.564c-10.682 0-19.341 8.659-19.341 19.34s8.659 19.341 19.341 19.341c10.681 0 19.34-8.66 19.34-19.341s-8.659-19.34-19.34-19.34m-86.93-28.002v-26.573h22.007c2.027 0 3.687 1.658 3.687 3.685v19.202c0 2.028-1.66 3.686-3.687 3.686zm0 64.106v-16.032h64.403c-.008-.243-.013-.487-.013-.732 0-12.715 9.701-23.026 22.417-23.026 12.715 0 22.711 10.311 22.711 23.026 0 .245-.005.489-.014.732h5.592c5.403 0 9.828-4.423 9.828-9.828v-37.295l-15.115-26.098c-2.709-4.677-5.845-9.829-13.241-9.829h-96.568v-19.386h267.528v118.468c0 5.877-4.809 10.686-10.686 10.686h-246.156c-5.878 0-10.686-4.81-10.686-10.686m0-127.688v-118.468c0-5.878 4.808-10.686 10.686-10.686h246.156c5.877 0 10.686 4.808 10.686 10.686v40.848h-180.012v-23.666l-67.736 38.601 67.736 38.601v-23.665h180.012v47.749h-267.528z" fill="#0099e2"/></svg>