<svg clip-rule="evenodd" fill-rule="evenodd" stroke-miterlimit="22.926" viewBox="0 0 297 297" xmlns="http://www.w3.org/2000/svg"><path d="m6.54 271.419v-246.294c0-10.222 8.363-18.585 18.585-18.585h246.293c10.222 0 18.585 8.363 18.585 18.585v246.294c0 10.222-8.363 18.585-18.585 18.585h-246.293c-10.222 0-18.585-8.363-18.585-18.585z" fill="#fff" stroke="#000" stroke-width=".57"/><path d="m147.266 234.868h47.021v23.665l67.737-38.602-67.737-38.6v23.665h-47.021zm-132.758 36.482v-118.468h267.528v118.468c0 5.877-4.809 10.686-10.686 10.686h-246.156c-5.878 0-10.686-4.81-10.686-10.686m0-127.688v-118.468c0-5.878 4.808-10.686 10.686-10.686h246.156c5.877 0 10.686 4.808 10.686 10.686v40.848h-180.012v-23.666l-67.736 38.601 67.736 38.601v-23.665h180.012v47.749h-267.528z" fill="#0099e2"/><path d="m51.116 217.433-4.152 8.711c-.351.738-.98 1.939-1.559 2.526l-.019.02-3.231 1.927c-1.213.724-2.722 2.246-2.007 3.793.083.179.194.344.328.489.729.787 2.203.876 3.096.335l5.326-3.235c.829-.505 1.516-1.879 1.937-2.751l4.245-8.795c3.239 3.262 5.24 7.754 5.24 12.714 0 9.968-8.081 18.049-18.05 18.049-9.967 0-18.046-8.081-18.046-18.049 0-9.967 8.079-18.047 18.046-18.047 3.215 0 6.232.841 8.846 2.313m52.081 19.364 18.082-.06c.926-.002 1.797-.373 2.414-1.068 1.111-1.253.997-2.975.117-4.32-1.397-2.137-2.878-4.242-4.342-6.333-1.956-2.792-3.93-5.574-5.911-8.35 2.239-.993 4.716-1.546 7.324-1.546 9.967 0 18.047 8.08 18.047 18.047 0 9.968-8.08 18.049-18.047 18.049-8.725 0-16.003-6.191-17.684-14.419m-3.978-4.77h-7.167l9.813-23.554 5.496 7.733c-4.703 3.754-7.81 9.419-8.142 15.821m19.381 0h-15.731c.322-5.176 2.826-9.762 6.604-12.845zm-76.33-20.551c3.776 0 7.325.965 10.417 2.661l6.402-13.434c.21-.442.425-.925.398-1.425-.033-.641-.344-1.223-.838-1.628-.546-.447-1.331-.679-1.936-1.058-.636-.397-1.224-.87-1.745-1.408-3.522-3.634-3.046-9.515 1.368-12.187 1.016-.614 2.157-.959 3.346-.959l11.226.002c3.594 0 3.272 4.788.279 4.788h-10.749c-2.254 0-3.418 2.479-2.301 4.267.077.122.164.237.261.345.922 1.015 2.445 1.494 3.486 2.427 2.163 1.937 2.716 4.154 2.352 6.929l-.031.24 35.748-.005 1.139-2.549h-9.338c-4.222 0-4.222-6.625 0-6.625h15.588c4.224 0 4.224 6.625 0 6.625h-1.726l-.054.13c-.272.652-.557 1.301-.831 1.954-.204.491-.718 1.635-.781 2.132-.05.392.158.821.382 1.13 2.367 3.267 4.724 6.543 7.071 9.823 2.863-1.393 6.079-2.175 9.478-2.175 11.978 0 21.69 9.712 21.69 21.691 0 11.98-9.712 21.691-21.69 21.691-10.738 0-19.653-7.804-21.385-18.048l-11.83.039-29.615-22.55-1.31 2.71c4.432 3.972 7.22 9.739 7.22 16.158 0 11.98-9.71 21.691-21.691 21.691-11.979 0-21.689-9.711-21.689-21.691 0-11.979 9.71-21.691 21.689-21.691m20.063-5.561h36.217l-10.457 25.102-27.639-21.211z" fill="#fff"/></svg>