<svg clip-rule="evenodd" fill-rule="evenodd" stroke-miterlimit="22.926" viewBox="0 0 297 297" xmlns="http://www.w3.org/2000/svg"><path d="m290.005 25.125v246.294c0 10.222-8.363 18.586-18.585 18.586h-246.295c-10.223 0-18.585-8.364-18.585-18.586v-246.294c0-10.222 8.362-18.585 18.585-18.585h246.295c10.222 0 18.585 8.363 18.585 18.585z" fill="#fff" stroke="#000" stroke-width=".57"/><path d="m149.277 67.361h-47.022v-23.664l-67.736 38.601 67.736 38.6v-23.664h47.022zm132.76-42.167v118.468h-267.53v-118.468c0-5.878 4.809-10.687 10.687-10.687h246.156c5.878 0 10.687 4.809 10.687 10.687m0 127.688v118.468c0 5.878-4.809 10.687-10.687 10.687h-246.156c-5.878 0-10.687-4.809-10.687-10.687v-37.466h180.012v23.665l67.737-38.601-67.737-38.601v23.665h-180.012v-51.13z" fill="#0099e2"/><path d="m183.342 79.204-4.323 9.071c-.366.768-1.021 2.019-1.624 2.63l-.02.021-3.365 2.007c-1.262.753-2.834 2.338-2.089 3.949.086.187.202.358.341.51.76.819 2.295.912 3.225.348l5.545-3.368c.863-.526 1.579-1.957 2.017-2.866l4.42-9.157c3.373 3.396 5.457 8.074 5.457 13.238 0 10.381-8.415 18.795-18.795 18.795-10.379 0-18.792-8.414-18.792-18.795 0-10.378 8.413-18.792 18.792-18.792 3.347 0 6.489.876 9.211 2.409m54.232 20.164 18.829-.063c.964-.002 1.871-.388 2.514-1.112 1.156-1.304 1.037-3.098.121-4.499-1.455-2.225-2.996-4.417-4.521-6.594-2.037-2.907-4.093-5.804-6.155-8.694 2.331-1.035 4.91-1.611 7.626-1.611 10.379 0 18.793 8.414 18.793 18.792 0 10.381-8.414 18.795-18.793 18.795-9.085 0-16.664-6.446-18.414-15.014m-4.142-4.967h-7.463l10.218-24.527 5.723 8.052c-4.898 3.91-8.132 9.808-8.478 16.475m20.181 0h-16.381c.336-5.39 2.943-10.165 6.877-13.376zm-79.482-21.4c3.931 0 7.627 1.005 10.847 2.771l6.666-13.989c.219-.46.443-.963.415-1.483-.034-.668-.358-1.274-.873-1.696-.568-.466-1.385-.707-2.016-1.101-.662-.414-1.274-.906-1.817-1.467-3.667-3.784-3.171-9.908 1.424-12.69 1.058-.639 2.247-.999 3.485-.999l11.689.002c3.742.001 3.408 4.986.291 4.986h-11.193c-2.348 0-3.559 2.582-2.396 4.443.08.127.171.247.271.359.961 1.058 2.546 1.556 3.631 2.528 2.252 2.016 2.828 4.325 2.448 7.215l-.032.25 37.225-.005 1.186-2.655h-9.723c-4.397 0-4.397-6.898 0-6.898h16.231c4.398 0 4.398 6.898 0 6.898h-1.797l-.056.135c-.284.679-.581 1.355-.866 2.036-.212.511-.747 1.702-.813 2.219-.052.409.165.855.398 1.177 2.464 3.402 4.918 6.813 7.363 10.229 2.981-1.451 6.33-2.265 9.869-2.265 12.473 0 22.586 10.113 22.586 22.586 0 12.475-10.113 22.588-22.586 22.588-11.182 0-20.465-8.127-22.268-18.793l-12.318.04-30.839-23.481-1.363 2.822c4.615 4.135 7.518 10.141 7.518 16.824 0 12.475-10.112 22.588-22.587 22.588-12.474 0-22.585-10.113-22.585-22.588 0-12.473 10.111-22.586 22.585-22.586m20.891-5.791h37.713l-10.889 26.139-28.78-22.087z" fill="#fff"/></svg>