<svg clip-rule="evenodd" fill-rule="evenodd" stroke-miterlimit="22.926" viewBox="0 0 297 297" xmlns="http://www.w3.org/2000/svg"><path d="m289.971 25.091v246.294c0 10.222-8.363 18.586-18.585 18.586h-246.295c-10.223 0-18.585-8.364-18.585-18.586v-246.294c0-10.222 8.362-18.585 18.585-18.585h246.295c10.222 0 18.585 8.363 18.585 18.585z" fill="#fff" stroke="#000" stroke-width=".57"/><path d="m149.243 67.327h-47.022v-23.664l-67.736 38.601 67.736 38.6v-23.664h47.022zm64.27-24.355h28.545c2.028 0 3.686 1.658 3.686 3.685v19.201c0 2.028-1.658 3.686-3.686 3.686h-28.545c-2.028 0-3.687-1.658-3.687-3.686v-19.201c0-2.027 1.659-3.685 3.687-3.685m-18.043-.001h-10.686c-2.028 0-3.983 1.158-5.434 3.685l-9.586 16.728c-1.47 2.566.092 6.16 4.127 6.16h21.579c2.025 0 3.686-1.659 3.686-3.686v-19.202c0-2.026-1.658-3.685-3.686-3.685m-.398 65.14c4.846 0 8.776 3.929 8.776 8.776 0 4.846-3.93 8.776-8.776 8.776-4.847 0-8.776-3.93-8.776-8.776 0-4.847 3.929-8.776 8.776-8.776m0-10.564c10.682 0 19.341 8.658 19.341 19.34 0 10.681-8.659 19.341-19.341 19.341s-19.341-8.66-19.341-19.341c0-10.682 8.659-19.34 19.341-19.34m86.931-54.575v26.572h-22.008c-2.028 0-3.686-1.658-3.686-3.686v-19.201c0-2.027 1.658-3.685 3.686-3.685zm0-17.812v9.408h-96.569c-7.397 0-10.533 5.152-13.242 9.829l-15.115 26.099v37.295c0 5.405 4.425 9.828 9.828 9.828h5.592c-.009-.243-.014-.487-.014-.732 0-12.716 9.996-23.026 22.712-23.026s22.417 10.31 22.417 23.026c0 .245-.005.489-.013.732h64.404v26.009h-267.53v-118.468c0-5.878 4.809-10.687 10.687-10.687h246.156c5.878 0 10.687 4.809 10.687 10.687m0 127.688v118.468c0 5.878-4.809 10.687-10.687 10.687h-246.156c-5.878 0-10.687-4.809-10.687-10.687v-37.466h180.012v23.665l67.737-38.601-67.737-38.601v23.665h-180.012v-51.13z" fill="#0099e2"/></svg>