<svg clip-rule="evenodd" fill-rule="evenodd" stroke-miterlimit="22.926" viewBox="0 0 297 297" xmlns="http://www.w3.org/2000/svg"><path d="m25.125 6.54h246.293c10.223 0 18.585 8.363 18.585 18.585v246.296c0 10.222-8.362 18.585-18.585 18.585h-246.293c-10.222 0-18.585-8.363-18.585-18.585v-246.296c0-10.222 8.363-18.585 18.585-18.585z" fill="#fff" stroke="#000" stroke-width=".57"/><path d="m119.26 156.958h58.023c7.667 0 13.94 6.272 13.94 13.939v67.076c0 2.811-2.301 5.11-5.112 5.11h-75.678c-2.811 0-5.111-2.299-5.111-5.11v-67.076c0-7.667 6.272-13.939 13.938-13.939m55.427 89.273h13.093v9.046c0 3.577-2.927 6.505-6.505 6.505h-.083c-3.578 0-6.505-2.928-6.505-6.505zm-65.923 0h13.093v9.046c0 3.577-2.928 6.505-6.505 6.505h-.083c-3.578 0-6.505-2.928-6.505-6.505zm8.156-83.431h62.703c3.067 0 5.576 2.509 5.576 5.575v21.7c0 3.067-2.509 5.576-5.576 5.576h-62.703c-3.066 0-5.576-2.509-5.576-5.576v-21.7c0-3.066 2.51-5.575 5.576-5.575m16.416-13.759v-47.022h-23.665l38.602-67.737 38.6 67.737h-23.665v47.022zm-108.142-134.533h246.156c5.878 0 10.686 4.808 10.686 10.686v246.158c0 5.877-4.808 10.686-10.686 10.686h-246.156c-5.878 0-10.687-4.809-10.687-10.686v-246.158c0-5.878 4.809-10.686 10.687-10.686" fill="#0099e2"/><path d="m259.022 14.508h12.328c5.878 0 10.687 4.809 10.687 10.687v12.663l-244.181 244.18h-12.662c-5.878 0-10.687-4.808-10.687-10.686v-12.328l244.515-244.516z" fill="#d72717"/></svg>