<svg clip-rule="evenodd" fill-rule="evenodd" stroke-miterlimit="22.926" viewBox="0 0 240 240" xmlns="http://www.w3.org/2000/svg"><path d="m218.41 6.506h-197.036c-8.177 0-14.868 6.69-14.868 14.868v197.036c0 8.178 6.691 14.868 14.868 14.868h197.036c8.178 0 14.867-6.69 14.867-14.868v-197.036c0-8.178-6.689-14.868-14.867-14.868z" fill="#fff" stroke="#000" stroke-width=".57"/><path d="m218.354 12.88h-196.926c-4.702 0-8.549 3.848-8.549 8.55v196.925c0 4.702 3.847 8.549 8.549 8.549h60.157v-23.695h8.556v23.695h36.834v-32.035-40.239c0-7.84-9.333-19.126-19.975-19.126h-12.974v19.34l-53.864-31.263 53.864-31.262v19.465h13.193c7.981 0 13.478 2.119 19.756 5.856v-34.882h-19.547l31.297-54.207 31.296 54.207h-19.559v144.146h36.699v-23.695h8.555v23.695h22.638c4.701 0 8.549-3.847 8.549-8.549v-196.925c0-4.702-3.847-8.55-8.549-8.55m-22.638 98.865h-8.556v23.843h8.556zm0 30.489h-8.556v23.842h8.556zm0 30.487h-8.556v23.843h8.556zm-105.575 0h-8.556v23.843h8.556z" fill="#0099e2"/></svg>