<svg clip-rule="evenodd" fill-rule="evenodd" stroke-miterlimit="22.926" viewBox="0 0 354 184" xmlns="http://www.w3.org/2000/svg"><path d="m17.681 6.506h317.808c6.146 0 11.175 5.029 11.175 11.175v148.092c0 6.146-5.03 11.175-11.175 11.175h-317.808c-6.146 0-11.175-5.028-11.175-11.175v-148.092c0-6.147 5.029-11.175 11.175-11.175z" fill="#fff" stroke="#000" stroke-width=".57"/><path d="m227.336 131.075h6.431v18.11h-6.431zm0-22.804h6.431v18.11h-6.431zm0-22.803h6.431v18.109h-6.431zm-107.845 45.607h6.431v18.11h-6.431zm0-22.804h6.431v18.11h-6.431zm-101.769-96.974h317.725c3.534 0 6.425 2.892 6.425 6.425v148.01c0 3.533-2.891 6.426-6.425 6.426h-62.304v-91.891c0-5.892 4.821-10.713 10.715-10.713h5.516v14.589l40.698-23.497-40.698-23.496v14.575h-5.637c-15.713 0-28.572 12.858-28.572 28.571v91.862h-21.398v-18.28h-6.431v18.28h-41.755v-108.341h14.526l-23.523-40.743-23.522 40.743h14.525v108.341h-41.666v-18.28h-6.43v18.28h-21.653v-108.357h14.52l-23.514-40.727-23.514 40.727h14.519l-.113 26.776c-3.264-1.303-6.817-2.021-10.531-2.021h-5.078v-14.586l-40.726 23.513 40.726 23.513v-14.6h4.957c5.484 0 10.04 4.174 10.652 9.501l.109 56.261h-62.123c-3.534 0-6.425-2.892-6.425-6.426v-148.01c0-3.534 2.891-6.425 6.425-6.425m101.769 74.171h6.431v18.109h-6.431z" fill="#0099e2"/></svg>