<svg clip-rule="evenodd" fill-rule="evenodd" stroke-miterlimit="22.926" viewBox="0 0 297 297" xmlns="http://www.w3.org/2000/svg"><path d="m25.091 6.506h246.293c10.223 0 18.585 8.363 18.585 18.585v246.296c0 10.222-8.362 18.585-18.585 18.585h-246.293c-10.222 0-18.585-8.363-18.585-18.585v-246.296c0-10.222 8.363-18.585 18.585-18.585z" fill="#fff" stroke="#000" stroke-width=".57"/><path d="m142.874 214.276h10.695v29.803h-10.695zm0-38.111h10.695v29.804h-10.695zm-117.714-161.692h246.157c5.878 0 10.686 4.809 10.686 10.687v246.159c0 5.878-4.808 10.686-10.686 10.686h-47.201l.001-137.907c-.003-11.08-1.913-22.244-7.686-31.92-5.232-8.768-9.73-12.592-17.07-19.932l-18.326-18.324.004-.004 17.287-17.288-75.444-20.121 20.12 75.446 17.274-17.273 22.115 22.114c9.109 9.172 11.992 13.08 12.365 26.795v138.414h-41.186v-29.62h-10.696v29.62h-41.109v-180.184h24.434l-39.121-67.76-39.121 67.76h24.45v180.184h-47.247c-5.878 0-10.687-4.808-10.687-10.686v-246.159c0-5.878 4.809-10.687 10.687-10.687" fill="#0099e2"/></svg>