<svg clip-rule="evenodd" fill-rule="evenodd" stroke-miterlimit="22.926" viewBox="0 0 354 184" xmlns="http://www.w3.org/2000/svg"><path d="m335.488 176.948h-317.807c-6.147 0-11.175-5.029-11.175-11.175v-148.093c0-6.145 5.029-11.174 11.175-11.174h317.807c6.146 0 11.175 5.028 11.175 11.174v148.093c0 6.147-5.029 11.175-11.175 11.175z" fill="#fff" stroke="#000" stroke-width=".57"/><path d="m233.683 37.254h-6.431v18.11h6.431zm0 22.658h-6.431v18.11h6.431zm0 22.657h-6.431v18.11h6.431zm0 22.657h-6.431v18.11h6.431zm0 22.657h-6.431v18.11h6.431zm-114.007-116.588h-44.613v108.159h14.526l-23.523 40.742-23.522-40.742h14.524v-108.159h-39.347c-3.533 0-6.424 2.893-6.424 6.426v148.01c0 3.534 2.891 6.426 6.424 6.426h101.955v-160.862zm215.77 0h-101.763v21.413h-6.431v-21.413h-101.145v160.862h41.48v-108.341h-14.526l23.523-40.742 23.522 40.742h-14.524v108.341h41.665v-21.616h6.43v21.616h44.361v-108.341h-14.526l23.523-40.742 23.523 40.742h-14.525v108.341h39.413c3.534 0 6.425-2.892 6.425-6.426v-148.01c0-3.534-2.891-6.426-6.425-6.426" fill="#0099e2"/></svg>