<svg clip-rule="evenodd" fill-rule="evenodd" stroke-miterlimit="22.926" viewBox="0 0 240 240" xmlns="http://www.w3.org/2000/svg"><path d="m21.373 6.506h197.036c8.177 0 14.868 6.69 14.868 14.868v197.036c0 8.178-6.691 14.868-14.868 14.868h-197.036c-8.178 0-14.867-6.69-14.867-14.868v-197.036c0-8.178 6.689-14.868 14.867-14.868z" fill="#fff" stroke="#000" stroke-width=".57"/><path d="m21.428 12.88h196.926c4.702 0 8.549 3.848 8.549 8.55v196.925c0 4.702-3.847 8.549-8.549 8.549h-60.157v-23.695h-8.556v23.695h-36.834v-32.035-40.239c0-7.84 9.333-19.126 19.975-19.126h12.974v19.34l53.864-31.263-53.864-31.262v19.465h-13.193c-7.981 0-13.478 2.119-19.756 5.856v-34.882h19.547l-31.297-54.207-31.296 54.207h19.559v144.146h-36.699v-23.695h-8.555v23.695h-22.638c-4.701 0-8.549-3.847-8.549-8.549v-196.925c0-4.702 3.847-8.55 8.549-8.55m22.638 98.865h8.556v23.843h-8.556zm0 30.489h8.556v23.842h-8.556zm0 30.487h8.556v23.843h-8.556zm105.575 0h8.556v23.843h-8.556z" fill="#0099e2"/></svg>