<svg clip-rule="evenodd" fill-rule="evenodd" stroke-miterlimit="22.926" viewBox="0 0 240 240" xmlns="http://www.w3.org/2000/svg"><path d="m218.444 6.54h-197.036c-8.177 0-14.868 6.69-14.868 14.868v197.036c0 8.178 6.691 14.868 14.868 14.868h197.036c8.178 0 14.867-6.69 14.867-14.868v-197.036c0-8.178-6.689-14.868-14.867-14.868z" fill="#fff" stroke="#000" stroke-width=".57"/><path d="m218.388 12.914h-196.926c-4.702 0-8.549 3.848-8.549 8.55v196.925c0 4.702 3.847 8.549 8.549 8.549h105.547v-64.146l23.487-2.227v66.373h36.699v-23.695h8.555v23.695h22.638c4.701 0 8.549-3.847 8.549-8.549v-196.925c0-4.702-3.847-8.55-8.549-8.55m-22.638 98.865h-8.556v23.843h8.556zm0 30.489h-8.556v23.842h8.556zm0 30.487h-8.556v23.843h8.556z" fill="#0099e2"/><g fill="#fff"><path d="m43.106 226.954v-23.695h8.555v23.695m0-115.159h-8.556v23.843h8.556zm0 30.489h-8.556v23.842h8.556zm0 30.487h-8.556v23.843h8.556z"/><path d="m98.246 148.747v23.34h41.378v-23.34z"/><path d="m111.543 157.906v-64.147h19.546l-31.297-54.207-31.295 54.207h19.559v67.31"/><circle cx="138.824" cy="160.499" r="11.681"/><circle cx="99.71" cy="160.405" r="11.681"/></g></svg>