<svg clip-rule="evenodd" fill-rule="evenodd" stroke-miterlimit="22.926" viewBox="0 0 240 240" xmlns="http://www.w3.org/2000/svg"><path d="m21.407 6.54h197.036c8.177 0 14.868 6.69 14.868 14.868v197.036c0 8.178-6.691 14.868-14.868 14.868h-197.036c-8.178 0-14.867-6.69-14.867-14.868v-197.036c0-8.178 6.689-14.868 14.867-14.868z" fill="#fff" stroke="#000" stroke-width=".57"/><path d="m21.463 12.914h196.926c4.702 0 8.549 3.848 8.549 8.55v196.925c0 4.702-3.847 8.549-8.549 8.549h-105.547v-64.146l-23.487-2.227v66.373h-36.699v-23.695h-8.555v23.695h-22.638c-4.701 0-8.549-3.847-8.549-8.549v-196.925c0-4.702 3.847-8.55 8.549-8.55m22.638 98.865h8.556v23.843h-8.556zm0 30.489h8.556v23.842h-8.556zm0 30.487h8.556v23.843h-8.556z" fill="#0099e2"/><g fill="#fff"><path d="m196.745 226.954v-23.695h-8.555v23.695m0-115.159h8.556v23.843h-8.556zm0 30.489h8.556v23.842h-8.556zm0 30.487h8.556v23.843h-8.556z"/><path d="m100.227 148.747h41.378v23.34h-41.378z"/><path d="m128.308 157.906v-64.147h-19.546l31.297-54.207 31.295 54.207h-19.559v67.31"/><circle cx="101.027" cy="160.499" r="11.681"/><circle cx="140.141" cy="160.405" r="11.681"/></g></svg>