<svg clip-rule="evenodd" fill-rule="evenodd" stroke-miterlimit="22.926" viewBox="0 0 240 240" xmlns="http://www.w3.org/2000/svg"><path d="m21.373 6.506h197.036c8.177 0 14.868 6.69 14.868 14.868v197.036c0 8.178-6.691 14.868-14.868 14.868h-197.036c-8.178 0-14.867-6.69-14.867-14.868v-197.036c0-8.178 6.689-14.868 14.867-14.868z" fill="#fff" stroke="#000" stroke-width=".57"/><path d="m21.428 12.88h196.926c4.702 0 8.549 3.847 8.549 8.549v196.926c0 4.702-3.847 8.549-8.549 8.549h-60.415v-23.695h-8.557v23.695h-59.306v-57.385c0-1.431-.002-2.861 0-4.289.036-10.341.616-14.183 8.163-22.153l68.02-68.02 13.821 13.821 16.097-60.356-60.356 16.096 13.83 13.831-67.735 67.734c-1.188 1.189-2.371 2.424-3.501 3.68-4.429 4.931-8.604 12.379-10.207 18.723-2 7.92-1.619 12.628-1.619 20.933v57.385h-14.078v-23.695h-8.557v23.695h-22.526c-4.7 0-8.549-3.847-8.549-8.549v-196.926c0-4.702 3.847-8.549 8.549-8.549m127.954 159.841h8.557v23.843h-8.557zm0-30.487h8.557v23.842h-8.557zm0-30.489h8.557v23.843h-8.557zm-105.428 60.976h8.557v23.843h-8.557zm0-30.487h8.557v23.842h-8.557zm0-30.489h8.557v23.843h-8.557z" fill="#0099e2"/></svg>