<svg clip-rule="evenodd" fill-rule="evenodd" stroke-miterlimit="22.926" viewBox="0 0 240 240" xmlns="http://www.w3.org/2000/svg"><path d="m218.409 6.506h-197.036c-8.176 0-14.867 6.689-14.867 14.868v197.035c0 8.178 6.691 14.868 14.867 14.868h197.036c8.178 0 14.868-6.69 14.868-14.868v-197.035c0-8.179-6.69-14.868-14.868-14.868z" fill="#fff" stroke="#000" stroke-width=".57"/><path d="m124.146 97.551h-8.557v-23.843h8.557zm94.207-84.672h-94.207v23.695h-8.557v-23.695h-94.161c-4.702 0-8.549 3.848-8.549 8.55v196.926c0 4.702 3.847 8.549 8.549 8.549h128.143c0-10.852-3.973-14.85-11.76-22.637l-55.834-55.833c-6.266-6.269-11.503-13.666-13.708-22.404-2-7.918-1.619-12.627-1.619-20.932v-22.34h-19.546l31.297-54.208 31.296 54.208h-19.56v26.629c.035 10.341.615 14.183 8.162 22.152l51.272 51.272v-24.706c-12.303-4.723-21.037-16.647-21.037-30.612 0-13.964 8.734-25.888 21.037-30.611v-14.124h-19.547l31.297-54.208 31.295 54.208h-19.559v14.124c12.303 4.723 21.037 16.647 21.037 30.611 0 13.965-8.734 25.889-21.037 30.612v68.799h45.296c4.703 0 8.549-3.847 8.549-8.549v-196.926c0-4.702-3.846-8.55-8.549-8.55m-94.207 54.184h-8.557v-23.843h8.557zm37.168 31.172c-16.159 0-29.259 13.099-29.259 29.258 0 16.16 13.1 29.259 29.259 29.259s29.258-13.099 29.258-29.259c0-16.159-13.099-29.258-29.258-29.258" fill="#0099e2"/></svg>