<svg clip-rule="evenodd" fill-rule="evenodd" stroke-miterlimit="22.926" viewBox="0 0 240 240" xmlns="http://www.w3.org/2000/svg"><path d="m218.41 6.506h-197.036c-8.177 0-14.868 6.69-14.868 14.868v197.036c0 8.178 6.691 14.868 14.868 14.868h197.036c8.178 0 14.868-6.69 14.868-14.868v-197.036c0-8.178-6.69-14.868-14.868-14.868z" fill="#fff" stroke="#000" stroke-width=".57"/><path d="m90.4 172.721h-8.556v23.843h8.556zm0-30.487h-8.556v23.843h8.556zm0-30.489h-8.556v23.843h8.556zm112.706 60.976h-8.557v23.843h8.557zm0-30.487h-8.557v23.843h8.557zm0-30.489h-8.557v23.843h8.557zm15.248-98.865h-196.925c-4.702 0-8.549 3.848-8.549 8.55v196.926c0 4.702 3.847 8.548 8.549 8.548h60.415v-23.695h8.556v23.695h66.584v-99.12-15.326-7.388c0-12.265-10.036-22.301-22.302-22.301h-59.436v19.411l-54.147-31.263 54.147-31.262v19.394h60.62c24.534 0 44.605 20.071 44.605 44.604v123.251h14.078v-23.695h8.557v23.695h15.248c4.702 0 8.55-3.846 8.55-8.548v-196.926c0-4.702-3.847-8.55-8.55-8.55" fill="#0099e2"/></svg>