<svg clip-rule="evenodd" fill-rule="evenodd" stroke-miterlimit="22.926" viewBox="0 0 240 184" xmlns="http://www.w3.org/2000/svg"><path d="m17.681 6.506h204.344c6.146 0 11.175 5.029 11.175 11.175v148.093c0 6.146-5.03 11.174-11.175 11.174h-204.344c-6.145 0-11.175-5.028-11.175-11.174v-148.093c0-6.146 5.029-11.175 11.175-11.175z" fill="#fff" stroke="#000" stroke-width=".57"/><path d="m123.065 11.296h98.919c3.534 0 6.426 2.893 6.426 6.426v148.011c0 3.534-2.892 6.425-6.426 6.425h-37.249v-108.246h14.525l-23.523-40.742-23.523 40.742h14.526v108.246h-43.675v-160.862zm-105.343 0h37.249v108.247h-14.525l23.523 40.742 23.522-40.742h-14.524v-108.247h43.673v160.862h-98.918c-3.533 0-6.425-2.891-6.425-6.425v-148.011c0-3.534 2.892-6.426 6.425-6.426" fill="#0099e2"/></svg>