<svg clip-rule="evenodd" fill-rule="evenodd" stroke-miterlimit="22.926" viewBox="0 0 240 240" xmlns="http://www.w3.org/2000/svg"><path d="m21.374 6.506h197.036c8.177 0 14.868 6.69 14.868 14.868v197.035c0 8.178-6.691 14.868-14.868 14.868h-197.036c-8.178 0-14.868-6.69-14.868-14.868v-197.035c0-8.178 6.69-14.868 14.868-14.868z" fill="#fff" stroke="#000" stroke-width=".57"/><path d="m115.637 67.064h8.557v-23.843h-8.557zm-94.207-54.185h94.207v23.697h8.557v-23.697h94.161c4.702 0 8.55 3.848 8.55 8.55v196.926c0 4.702-3.848 8.55-8.55 8.55h-128.142c0-10.852 3.972-14.851 11.759-22.637l55.834-55.834c6.266-6.268 11.503-13.666 13.709-22.403 1.999-7.919 1.618-12.627 1.618-20.932v-22.341h19.547l-31.297-54.208-31.296 54.208h19.559v26.629c-.035 10.342-.614 14.184-8.162 22.152l-51.271 51.272v-100.053h19.546l-31.297-54.208-31.295 54.208h19.559v144.147h-45.296c-4.702 0-8.549-3.848-8.549-8.55v-196.926c0-4.702 3.847-8.55 8.549-8.55m94.207 84.672h8.557v-23.843h-8.557z" fill="#0099e2"/></svg>