<svg clip-rule="evenodd" fill-rule="evenodd" stroke-miterlimit="22.926" viewBox="0 0 240 240" xmlns="http://www.w3.org/2000/svg"><path d="m21.374 6.506h197.036c8.177 0 14.868 6.69 14.868 14.868v197.036c0 8.178-6.691 14.868-14.868 14.868h-197.036c-8.178 0-14.868-6.69-14.868-14.868v-197.036c0-8.178 6.69-14.868 14.868-14.868z" fill="#fff" stroke="#000" stroke-width=".57"/><path d="m171.966 172.721h8.557v23.843h-8.557zm0-30.487h8.557v23.843h-8.557zm0-30.489h8.557v23.843h-8.557zm-112.705 60.976h8.556v23.843h-8.556zm0-30.487h8.556v23.843h-8.556zm0-30.489h8.556v23.843h-8.556zm-37.831-98.865h196.925c4.701 0 8.549 3.848 8.549 8.55v196.926c0 4.702-3.848 8.549-8.549 8.549h-37.832v-23.696h-8.557v23.696h-40.324v-144.147h19.546l-31.297-54.207-31.295 54.207h19.559v144.147h-40.338v-23.696h-8.556v23.696h-37.831c-4.703 0-8.55-3.847-8.55-8.549v-196.926c0-4.702 3.847-8.55 8.55-8.55" fill="#0099e2"/></svg>