<svg clip-rule="evenodd" fill-rule="evenodd" stroke-miterlimit="22.926" viewBox="0 0 240 240" xmlns="http://www.w3.org/2000/svg"><path d="m21.374 6.506h197.036c8.177 0 14.868 6.69 14.868 14.868v197.036c0 8.178-6.691 14.868-14.868 14.868h-197.036c-8.178 0-14.868-6.69-14.868-14.868v-197.036c0-8.178 6.69-14.868 14.868-14.868z" fill="#fff" stroke="#000" stroke-width=".57"/><path d="m21.429 12.88h196.926c4.702 0 8.549 3.848 8.549 8.549v196.926c0 4.702-3.847 8.549-8.549 8.549h-60.157v-23.695h-8.556v23.695h-66.866v-30.672c0-7.84 9.332-19.127 19.975-19.127h62.058c29.389 0 53.434-24.045 53.434-53.436 0-29.142-23.642-53.024-52.693-53.426v-19.286l-53.864 31.262 53.864 31.263v-19.273c16.091.218 29.188 13.445 29.188 29.586 0 16.274-13.316 29.59-29.59 29.59h-62.617c-7.979 0-13.477 2.119-19.755 5.855v-76.482h19.546l-31.297-54.208-31.296 54.208h19.559v144.146h-14.042v-23.695h-8.556v23.695h-15.261c-4.701 0-8.549-3.847-8.549-8.549v-196.926c0-4.701 3.847-8.549 8.549-8.549m15.261 98.865h8.556v23.843h-8.556zm0 30.489h8.556v23.842h-8.556zm0 30.487h8.556v23.843h-8.556zm112.952 7.782h8.556v16.061h-8.556z" fill="#0099e2"/></svg>