<svg clip-rule="evenodd" fill-rule="evenodd" stroke-miterlimit="22.926" viewBox="0 0 354 184" xmlns="http://www.w3.org/2000/svg"><path d="m17.681 6.506h317.807c6.147 0 11.175 5.028 11.175 11.174v148.094c0 6.144-5.029 11.173-11.175 11.173h-317.807c-6.146 0-11.175-5.028-11.175-11.173v-148.094c0-6.146 5.029-11.174 11.175-11.174z" fill="#fff" stroke="#000" stroke-width=".57"/><path d="m119.485 55.57h6.431v-18.11h-6.431zm0 22.657h6.431v-18.11h-6.431zm0 22.657h6.431v-18.109h-6.431zm0 22.657h6.431v-18.11h-6.431zm107.576-67.972h6.426v-18.11h-6.426zm0 22.657h6.426v-18.11h-6.426zm0 22.658h6.426v-18.11h-6.426zm0 22.657h6.426v-18.11h-6.426zm0 22.657h6.426v-18.11h-6.426zm0-134.902v21.617h6.431v-21.617h101.955c3.533 0 6.424 2.892 6.424 6.425v148.01c0 3.533-2.891 6.426-6.424 6.426h-39.347v-108.158h14.524l-23.522-40.742-23.523 40.742h14.526v108.158h-44.618v-21.412h-6.426v21.412h-41.48v-44.368c11.408-3.774 19.638-14.521 19.638-27.193 0-12.67-8.23-23.418-19.638-27.191v-9.406h14.526l-23.523-40.742-23.522 40.742h14.524v9.406c-11.406 3.773-19.637 14.521-19.637 27.191 0 12.672 8.231 23.42 19.637 27.193v44.368h-41.67v-21.412h-6.431v21.412h-101.763c-3.534 0-6.425-2.892-6.425-6.426v-148.01c0-3.534 2.891-6.425 6.425-6.425h39.413v108.341h-14.525l23.523 40.743 23.523-40.743h-14.526v-108.341h44.361v21.617h6.43v-21.617h101.14zm-107.576 134.902h6.431v-18.11h-6.431z" fill="#0099e2"/><path d="m176.585 77.358c12.834 0 23.238 10.404 23.238 23.238s-10.404 23.239-23.238 23.239c-12.835 0-23.238-10.405-23.238-23.239s10.403-23.238 23.238-23.238m0-5.397c15.814 0 28.635 12.821 28.635 28.635 0 15.816-12.821 28.636-28.635 28.636-15.815 0-28.636-12.82-28.636-28.636 0-15.814 12.821-28.635 28.636-28.635" fill="#d72717"/><path d="m169.812 103.602h24.911v-13.631c0-1.01-.826-1.836-1.836-1.836h-21.24c-1.01 0-1.835.826-1.835 1.836zm-.859.813h17.24c-1.686.377-2.95 1.865-2.988 3.654h-15.126c-.044-2.077-1.742-3.748-3.83-3.748-2.087 0-3.786 1.671-3.83 3.748h-1.961c-1.063 0-1.933-.869-1.933-1.932v-1.722-3.897-.639c.044-.332.171-.64.386-.923l2.949-4.278c.329-.477.699-.841 1.347-.841h5.621c1.169 0 2.125.957 2.125 2.126zm18.922 0h6.832v3.654h-3.843c-.038-1.789-1.304-3.277-2.989-3.654m-23.626 2.025c.946 0 1.712.766 1.712 1.712s-.766 1.713-1.712 1.713-1.712-.767-1.712-1.713.766-1.712 1.712-1.712m0-1.636c1.849 0 3.348 1.499 3.348 3.348s-1.499 3.347-3.348 3.347-3.348-1.498-3.348-3.347 1.499-3.348 3.348-3.348m22.786 1.636c.945 0 1.712.766 1.712 1.712s-.767 1.713-1.712 1.713c-.947 0-1.713-.767-1.713-1.713s.766-1.712 1.713-1.712m0-1.636c1.848 0 3.347 1.499 3.347 3.348s-1.499 3.347-3.347 3.347c-1.85 0-3.349-1.498-3.349-3.347s1.499-3.348 3.349-3.348m-25.643-9.839h4.609c.584 0 1.063.479 1.063 1.063v2.692c0 .585-.479 1.064-1.063 1.064h-6.232c-.957 0-1.235-1.128-.836-1.726l1.778-2.663c.163-.245.353-.43.681-.43"/></svg>