<svg clip-rule="evenodd" fill-rule="evenodd" stroke-miterlimit="22.926" viewBox="0 0 297 297" xmlns="http://www.w3.org/2000/svg"><path d="m271.384 6.506h-246.293c-10.222 0-18.585 8.363-18.585 18.585v246.296c0 10.222 8.363 18.585 18.585 18.585h246.293c10.223 0 18.585-8.363 18.585-18.585v-246.296c0-10.222-8.362-18.585-18.585-18.585z" fill="#fff" stroke="#000" stroke-width=".57"/><path d="m153.6 214.276h-10.694v29.803h10.694zm0-38.111h-10.694v29.804h10.694zm117.716-161.692h-246.158c-5.877 0-10.686 4.809-10.686 10.687v246.159c0 5.878 4.809 10.686 10.686 10.686h47.202l-.001-137.907c.002-11.08 1.911-22.244 7.685-31.92 5.233-8.768 9.731-12.592 17.071-19.932l18.324-18.324-.003-.004-17.288-17.288 75.445-20.121-20.12 75.446-17.273-17.273-22.116 22.114c-9.109 9.172-11.992 13.08-12.365 26.795v138.414h41.187v-29.62h10.694v29.62h41.109v-180.184h-24.432l39.12-67.76 39.121 67.76h-24.449v180.184h47.247c5.878 0 10.686-4.808 10.686-10.686v-246.159c0-5.878-4.808-10.687-10.686-10.687" fill="#0099e2"/></svg>