<svg clip-rule="evenodd" fill-rule="evenodd" stroke-miterlimit="22.926" viewBox="0 0 240 240" xmlns="http://www.w3.org/2000/svg"><path d="m21.374 6.506h197.036c8.177 0 14.868 6.69 14.868 14.868v197.036c0 8.178-6.691 14.868-14.868 14.868h-197.036c-8.178 0-14.868-6.69-14.868-14.868v-197.036c0-8.178 6.69-14.868 14.868-14.868z" fill="#fff" stroke="#000" stroke-width=".57"/><path d="m149.384 172.721h8.556v23.843h-8.556zm0-30.487h8.556v23.843h-8.556zm0-30.489h8.556v23.843h-8.556zm-112.706 60.976h8.557v23.843h-8.557zm0-30.487h8.557v23.843h-8.557zm0-30.489h8.557v23.843h-8.557zm-15.248-98.865h196.925c4.702 0 8.549 3.848 8.549 8.55v196.926c0 4.702-3.847 8.548-8.549 8.548h-60.415v-23.695h-8.556v23.695h-66.584v-99.12-15.326-7.388c0-12.265 10.036-22.301 22.302-22.301h59.436v19.411l54.147-31.263-54.147-31.262v19.394h-60.62c-24.534 0-44.605 20.071-44.605 44.604v123.251h-14.078v-23.695h-8.557v23.695h-15.248c-4.702 0-8.55-3.846-8.55-8.548v-196.926c0-4.702 3.847-8.55 8.55-8.55" fill="#0099e2"/></svg>