<svg clip-rule="evenodd" fill-rule="evenodd" stroke-miterlimit="22.926" viewBox="0 0 203 297" xmlns="http://www.w3.org/2000/svg"><path d="m21.013 6.506h160.207c7.982 0 14.507 6.524 14.507 14.505v254.455c0 7.98-6.525 14.505-14.507 14.505h-160.207c-7.982 0-14.507-6.525-14.507-14.505v-254.455c0-7.981 6.525-14.505 14.507-14.505z" fill="#fff" stroke="#000" stroke-width=".57"/><path d="m35.382 53.918h131.469c6.109 0 11.108 5.001 11.108 11.108v131.468c0 6.109-4.999 11.11-11.108 11.11h-131.469c-6.11 0-11.108-5.001-11.108-11.11v-131.468c0-6.107 4.998-11.108 11.108-11.108m-14.275-41.208h160.019c4.58 0 8.332 3.75 8.332 8.333v254.39c0 4.584-3.752 8.334-8.332 8.334h-160.019c-4.581 0-8.333-3.75-8.333-8.334v-254.39c0-4.583 3.752-8.333 8.333-8.333" fill="#0099e2"/><path d="m71.646 101.37h18.019c1.28 0 2.327 1.047 2.327 2.327v12.12c0 1.281-1.047 2.327-2.327 2.327h-18.019c-1.28 0-2.327-1.046-2.327-2.327v-12.12c0-1.28 1.047-2.327 2.327-2.327m-11.391-.001h-6.744c-1.28 0-2.515.731-3.43 2.327l-6.051 10.56c-.928 1.62.058 3.887 2.605 3.887h13.62c1.28 0 2.328-1.046 2.328-2.326v-12.121c0-1.279-1.047-2.327-2.328-2.327m70.172.001h16.634c1.28 0 2.621.555 3.121 2.327l2.985 10.559c.507 1.798-.057 3.888-2.605 3.888h-20.135c-1.279 0-2.327-1.046-2.327-2.327v-12.12c0-1.28 1.047-2.327 2.327-2.327m-29.44 0h18.019c1.28 0 2.327 1.047 2.327 2.327v12.12c0 1.281-1.047 2.327-2.327 2.327h-18.019c-1.279 0-2.326-1.046-2.326-2.327v-12.12c0-1.28 1.047-2.327 2.326-2.327m-47.066-5.304h99.265c4.836 0 6.472 2.728 7.625 6.112 1.798 5.275 3.54 10.52 5.4 15.792v24.317c0 3.412-2.792 6.204-6.204 6.204h-9.224c.005-.153.008-.308.008-.462 0-8.027-6.251-14.535-14.279-14.535-8.027 0-14.215 6.508-14.215 14.535 0 .154.003.309.009.462h-48.081c.005-.153.008-.308.008-.462 0-8.027-6.124-14.535-14.15-14.535-8.027 0-14.337 6.508-14.337 14.535 0 .154.004.309.009.462h-3.53c-3.411 0-6.204-2.792-6.204-6.204v-23.542l9.542-16.475c1.709-2.953 3.689-6.204 8.358-6.204m6.084 46.423c3.059 0 5.539 2.481 5.539 5.54s-2.48 5.539-5.539 5.539-5.54-2.48-5.54-5.539 2.481-5.54 5.54-5.54m0-6.669c6.743 0 12.209 5.466 12.209 12.209 0 6.742-5.466 12.208-12.209 12.208s-12.209-5.466-12.209-12.208c0-6.743 5.466-12.209 12.209-12.209m76.507 6.669c3.06 0 5.54 2.481 5.54 5.54s-2.48 5.539-5.54 5.539c-3.059 0-5.54-2.48-5.54-5.539s2.481-5.54 5.54-5.54m0-6.669c6.742 0 12.209 5.466 12.209 12.209 0 6.742-5.467 12.208-12.209 12.208-6.743 0-12.209-5.466-12.209-12.208 0-6.743 5.466-12.209 12.209-12.209"/></svg>