<svg clip-rule="evenodd" fill-rule="evenodd" stroke-miterlimit="22.926" viewBox="0 0 203 297" xmlns="http://www.w3.org/2000/svg"><path d="m21.013 6.506h160.207c7.982 0 14.507 6.524 14.507 14.505v254.455c0 7.98-6.525 14.505-14.507 14.505h-160.207c-7.982 0-14.507-6.525-14.507-14.505v-254.455c0-7.981 6.525-14.505 14.507-14.505z" fill="#fff" stroke="#000" stroke-width=".57"/><path d="m35.382 53.918h131.469c6.109 0 11.108 5.001 11.108 11.108v131.468c0 6.109-4.999 11.11-11.108 11.11h-131.469c-6.11 0-11.108-5.001-11.108-11.11v-131.468c0-6.107 4.998-11.108 11.108-11.108m-14.275-41.208h160.019c4.58 0 8.332 3.75 8.332 8.333v254.39c0 4.584-3.752 8.334-8.332 8.334h-160.019c-4.581 0-8.333-3.75-8.333-8.334v-254.39c0-4.583 3.752-8.333 8.333-8.333" fill="#0099e2"/><path d="m92.68 118.971h16.906c1.808 0 3.287 1.479 3.287 3.286v11.189c0 1.807-1.479 3.286-3.287 3.286h-16.906c-1.808 0-3.287-1.479-3.287-3.286v-11.189c0-1.807 1.479-3.286 3.287-3.286m26.008 0h16.906c1.808 0 3.287 1.479 3.287 3.286v11.189c0 1.807-1.479 3.286-3.287 3.286h-16.906c-1.808 0-3.286-1.479-3.286-3.286v-11.189c0-1.807 1.478-3.286 3.286-3.286m-52.017 0h16.907c1.808 0 3.287 1.479 3.287 3.286v11.189c0 1.807-1.479 3.286-3.287 3.286h-16.907c-1.807 0-3.286-1.479-3.286-3.286v-11.189c0-1.807 1.479-3.286 3.286-3.286m-15.84 0h6.739c1.808 0 3.287 1.479 3.287 3.286v11.189c0 1.806-1.48 3.286-3.287 3.286h-12.893c-3.747 0-3.855-3.08-2.587-5.231l5.455-9.244c.918-1.557 1.479-3.286 3.286-3.286m100.604 0h-6.738c-1.808 0-3.288 1.479-3.288 3.286v11.189c0 1.806 1.48 3.286 3.288 3.286h12.892c3.746 0 3.856-3.08 2.587-5.231l-5.454-9.244c-.919-1.557-1.479-3.286-3.287-3.286m-97.881-4.462h95.125c4.397 0 6.264 2.501 7.913 5.637 1.206 2.296 2.466 4.406 3.712 6.577 1.204 2.1 2.395 4.263 3.679 6.419 1.685 2.829 1.97 4.358 1.97 7.522v12.779c0 5.72-4.68 10.4-10.401 10.4h-3.191c0-5.222-4.235-9.455-9.457-9.455h-83.575c-5.223 0-9.457 4.233-9.457 9.455h-3.191c-5.721 0-10.401-4.68-10.401-10.4v-12.779c0-3.164.285-4.693 1.97-7.522 1.284-2.156 2.474-4.319 3.679-6.419 1.246-2.171 2.505-4.281 3.711-6.577 1.65-3.136 3.517-5.637 7.914-5.637m45.513 50.043h18.857c-.401-4.847 2.942-8.497 5.441-9.228l-10.233-.002.001-.002-9.007.001-9.007-.001.001.002-16.253.002c2.5.731 5.842 4.381 5.442 9.228zm-32.09 1.422c-.886 3.422-3.994 5.949-7.693 5.949-4.389 0-7.946-3.557-7.946-7.945 0-4.389 3.557-7.946 7.946-7.946 3.699 0 6.807 2.527 7.693 5.95.885-3.423 3.993-5.95 7.692-5.95 4.388 0 7.946 3.557 7.946 7.946 0 4.388-3.558 7.945-7.946 7.945-3.699 0-6.807-2.527-7.692-5.949m68.212 0c-.886 3.422-3.994 5.949-7.693 5.949-4.388 0-7.946-3.557-7.946-7.945 0-4.389 3.558-7.946 7.946-7.946 3.699 0 6.807 2.527 7.693 5.95.886-3.423 3.994-5.95 7.692-5.95 4.389 0 7.946 3.557 7.946 7.946 0 4.388-3.557 7.945-7.946 7.945-3.698 0-6.806-2.527-7.692-5.949m-45.931-54.192h23.716l8.787-10.441-19.495-17.792.002-5.781h-1.151-1.153l.003 5.781-19.496 17.792zm11.859-2.777h-10.374l-6.39-7.593 16.764-15.25v.001-.001l16.762 15.25-6.39 7.593z"/></svg>