<svg clip-rule="evenodd" fill-rule="evenodd" stroke-miterlimit="22.926" viewBox="0 0 203 297" xmlns="http://www.w3.org/2000/svg"><path d="m21.013 6.506h160.207c7.982 0 14.507 6.524 14.507 14.505v254.455c0 7.98-6.525 14.505-14.507 14.505h-160.207c-7.982 0-14.507-6.525-14.507-14.505v-254.455c0-7.981 6.525-14.505 14.507-14.505z" fill="#fff" stroke="#000" stroke-width=".57"/><path d="m35.382 53.918h131.469c6.109 0 11.108 5.001 11.108 11.108v131.468c0 6.109-4.999 11.11-11.108 11.11h-131.469c-6.11 0-11.108-5.001-11.108-11.11v-131.468c0-6.107 4.998-11.108 11.108-11.108m-14.275-41.208h160.019c4.58 0 8.332 3.75 8.332 8.333v254.39c0 4.584-3.752 8.334-8.332 8.334h-160.019c-4.581 0-8.333-3.75-8.333-8.334v-254.39c0-4.583 3.752-8.333 8.333-8.333" fill="#0099e2"/><path d="m132.84 82.958h4.449v11.378l6.482-11.378h4.499v18.577h-4.499v-11.16l-6.482 11.16h-4.449zm-50.528 9.684c-2.127.755-6.374.571-6.31 3.389.077 3.368 4.734 2.675 6.325-.406zm-8.56-4.408-2.115-3.352c4.598-3.757 15.126-4.029 15.122 4.304l-.007 8.376c-.002.384.397.943.815.943h1.043l-1.465 3.373c-2.192.242-3.94-.448-4.671-2.259-1.298 1.738-3.142 2.514-4.923 2.503-2.898-.018-5.658-2.132-5.821-5.675-.302-6.53 8.118-6.846 10.582-7.056.17-5.303-6.737-3.37-8.56-1.157m18.598-5.303h4.538v6.596c3.633-.506 4.931-6.791 10.078-7.026l.823 3.844c-2.866-.075-4.211 4.271-6.486 4.863 4.039.463 3.975 4.842 8.329 10.327h-5.187c-4.788-7.766-3.681-8.264-7.557-8.264v8.264h-4.538zm36.658 13.045c-.598 3.634-4.245 6.231-8.157 6.298-5.835.1-8.817-4.392-8.817-9.853 0-3.229.834-5.735 2.496-7.524 1.663-1.784 3.848-2.738 6.559-2.677 4.147.092 6.736 2.178 7.805 6.051-1.236.336-2.471.671-3.705 1.006.017-.004-1.002-3.368-4.298-3.388-3.443-.021-4.522 3.125-4.53 6.485-.006 2.98.912 6.332 4.548 6.332 2.336 0 3.804-1.59 4.28-3.644zm-74.871-13.019h14.417v3.675h-4.954v14.903h-4.508v-14.903h-4.955zm73.185 73.131c3.741 0 6.773 3.032 6.773 6.771 0 3.741-3.032 6.773-6.773 6.773-3.74 0-6.772-3.032-6.772-6.773 0-3.739 3.032-6.771 6.772-6.771m-52.339 0c3.74 0 6.772 3.032 6.772 6.771 0 3.741-3.032 6.773-6.772 6.773s-6.772-3.032-6.772-6.773c0-3.739 3.032-6.771 6.772-6.771m6.772 32.92c0 3.74-3.032 6.772-6.772 6.772s-6.772-3.032-6.772-6.772v-9.24h13.544zm52.34 0v-9.24h-13.545v9.24c.001 3.74 3.032 6.772 6.772 6.772 3.741 0 6.772-3.032 6.773-6.772m-52.502-56.982h39.046c1.949 0 2.942 1.692 3.544 3.544l5.21 16.023h-56.553l4.944-16.023c.576-1.863 1.86-3.544 3.809-3.544m52.126 19.449c2.686 0 4.886 2.199 4.886 4.885v17.2c0 2.687-2.2 4.885-4.886 4.885h-65.205c-2.688 0-4.886-2.198-4.886-4.885v-17.2c0-2.686 2.198-4.885 4.886-4.885l6.366-19.582c.737-2.267 1.949-4.333 4.332-4.333h9.942l3.26-6.074h17.404l3.26 6.074h9.942c2.382 0 3.595 2.066 4.332 4.333z"/></svg>