<svg clip-rule="evenodd" fill-rule="evenodd" stroke-miterlimit="22.926" viewBox="0 0 297 297" xmlns="http://www.w3.org/2000/svg"><path d="m25.091 6.506h246.293c10.223 0 18.585 8.363 18.585 18.585v246.296c0 10.222-8.362 18.585-18.585 18.585h-246.293c-10.222 0-18.585-8.363-18.585-18.585v-246.296c0-10.222 8.363-18.585 18.585-18.585z" fill="#fff" stroke="#000" stroke-width=".57"/><path d="m140.984 237.642h124.474c4.912 0 5.206-4.335 3.945-6.412-6.347-10.451-13.323-22.999-19.486-33.702l-96.835-168.512c-3.096-5.366-6.591-5.367-9.688.001l-110.168 191.635c-2.034 3.518-4.045 7.106-6.153 10.578-1.26 2.077-.536 6.412 3.946 6.412zm-115.824-223.169h246.156c5.878 0 10.687 4.809 10.687 10.687v246.157c0 5.878-4.809 10.686-10.687 10.686h-246.156c-5.878 0-10.687-4.808-10.687-10.686v-246.157c0-5.878 4.809-10.687 10.687-10.687" fill="#0099e2"/><path d="m140.047 204.111h16.814l3.645 27.25h-24.103zm78.089 0h-18.953l10.518 27.25h26.211zm-139.362 0h18.952l-10.518 27.25h-26.21zm84.842-52.124-12.355 12.192 31.231 53.619c3.657 6.276 12.76 5.486 15.218-1.284.838-2.308.666-4.847-.575-6.979zm-27.859-34.977-23.965 23.993c-1.219 1.219-1.895 2.855-1.895 4.579 0 5.695 6.924 8.665 10.996 4.643l14.864-14.678zm55.6-4.295c-1.069-4.856-3.914-6.008-7.742-8.32-2.465-1.489-23.198-13.679-24.896-14.097-4.903-1.21-7.108.657-11.511 3.242-1.64.962-3.288 1.93-4.906 2.928-3.274 2.02-3.271 2.971-3.326 6.598-.087 5.621.171 41.003-.114 41.409-.722 1.035-20.178 19.928-20.961 21.232-.943 1.565-2.195 7.541-2.633 9.375l-8.682 36.804c-1.243 5.19 2.655 10.193 8.005 10.193 3.807 0 7.132-2.614 8.012-6.315 1.045-4.397 7.905-34.366 8.814-36.133.913-1.778 5.947-6.32 7.642-8.013 6.842-6.844 13.669-13.705 20.499-20.563 1.166-1.171 5.366-5.036 5.954-6.392.871-2.008.628-16.006.632-17.95l-.024-17.341c1.961.488 11.493 6.829 11.993 7.845.53 1.081.287 22.102.287 24.956 0 3.579 2.9 6.479 6.478 6.479s6.479-2.9 6.479-6.479zm-60.735-37.903c-2.78 10.76 6.06 20.635 16.918 15.195 5.909-2.961 11.81-7.175 11.676-15.091-.271-16.042-24.849-14.6-28.594-.104" fill-rule="nonzero"/></svg>