<svg clip-rule="evenodd" fill-rule="evenodd" stroke-miterlimit="22.926" viewBox="0 0 297 297" xmlns="http://www.w3.org/2000/svg"><path d="m271.384 6.506h-246.293c-10.223 0-18.585 8.363-18.585 18.585v246.296c0 10.222 8.362 18.585 18.585 18.585h246.293c10.222 0 18.585-8.363 18.585-18.585v-246.296c0-10.222-8.363-18.585-18.585-18.585z" fill="#fff" stroke="#000" stroke-width=".57"/><path d="m155.491 237.642h-124.474c-4.912 0-5.206-4.335-3.945-6.412 6.346-10.451 13.323-22.999 19.486-33.702l96.834-168.512c3.097-5.366 6.591-5.367 9.688.001l110.169 191.635c2.033 3.518 4.045 7.106 6.153 10.578 1.26 2.077.535 6.412-3.946 6.412zm115.824-223.169h-246.156c-5.878 0-10.687 4.809-10.687 10.687v246.157c0 5.878 4.809 10.686 10.687 10.686h246.156c5.878 0 10.687-4.808 10.687-10.686v-246.157c0-5.878-4.809-10.687-10.687-10.687" fill="#0099e2"/><path d="m156.427 204.111h-16.814l-3.645 27.25h24.103zm-78.088 0h18.953l-10.518 27.25h-26.211zm139.362 0h-18.953l10.519 27.25h26.21zm-84.842-52.124 12.354 12.192-31.231 53.619c-3.656 6.276-12.759 5.486-15.218-1.284-.837-2.308-.666-4.847.576-6.979zm27.859-34.977 23.965 23.993c1.218 1.219 1.895 2.855 1.895 4.579 0 5.695-6.925 8.665-10.996 4.643l-14.864-14.678zm-55.6-4.295c1.068-4.856 3.913-6.008 7.741-8.32 2.465-1.489 23.199-13.679 24.896-14.097 4.904-1.21 7.108.657 11.512 3.242 1.639.962 3.287 1.93 4.905 2.928 3.275 2.02 3.271 2.971 3.326 6.598.087 5.621-.171 41.003.114 41.409.723 1.035 20.178 19.928 20.962 21.232.943 1.565 2.195 7.541 2.633 9.375l8.682 36.804c1.243 5.19-2.656 10.193-8.005 10.193-3.808 0-7.133-2.614-8.012-6.315-1.046-4.397-7.905-34.366-8.815-36.133-.913-1.778-5.947-6.32-7.641-8.013-6.843-6.844-13.67-13.705-20.499-20.563-1.166-1.171-5.367-5.036-5.955-6.392-.87-2.008-.628-16.006-.632-17.95l.024-17.341c-1.961.488-11.493 6.829-11.992 7.845-.531 1.081-.287 22.102-.287 24.956 0 3.579-2.9 6.479-6.478 6.479-3.579 0-6.479-2.9-6.479-6.479zm60.735-37.903c2.78 10.76-6.061 20.635-16.919 15.195-5.908-2.961-11.809-7.175-11.676-15.091.272-16.042 24.85-14.6 28.595-.104" fill-rule="nonzero"/></svg>