<svg clip-rule="evenodd" fill-rule="evenodd" stroke-miterlimit="22.926" viewBox="0 0 297 438" xmlns="http://www.w3.org/2000/svg"><path d="m20.646 6.506h255.184c7.776 0 14.139 6.365 14.139 14.144v396.343c0 7.778-6.363 14.143-14.139 14.143h-255.184c-7.777 0-14.14-6.365-14.14-14.143v-396.343c0-7.779 6.363-14.144 14.14-14.144z" fill="#fff" stroke="#000" stroke-width=".57"/><path d="m160.484 237.769 6.173 187.388h-36.838l4.823-146.455zm2.614-81.533h-5.3l.264 7.976-20.73 32.836 1.344-40.812h-43.942l-47.967 184.266-33.999 53.854v-251.378h39.309v31.094h16.077l9.061-31.094h94.252zm120.61-13.258v273.341c0 4.861-3.978 8.838-8.839 8.838h-3.123l-67.022-257.463 14.873-23.56 8.725 29.938h16.077v-31.094zm0-100.393v84.431h-53.303zm-93.248 70.311-26.14-100.412h89.498zm-168.853-100.412h110.548l-26.363 101.274h34.284l3.335-101.274h9.653l3.336 101.274h33.515l-8.37 13.258h-168.777v-105.693c0-4.863 3.977-8.839 8.839-8.839" fill="#008d21"/><path d="m253.787 12.585.03-.101h21.051c4.861 0 8.839 3.977 8.839 8.838v21.264l-241.525 382.571h-20.576c-4.861 0-8.839-3.976-8.839-8.838v-21.963l241.02-381.771z" fill="#d72717"/></svg>