<svg clip-rule="evenodd" fill-rule="evenodd" stroke-miterlimit="22.926" viewBox="0 0 297 297" xmlns="http://www.w3.org/2000/svg"><path d="m25.091 6.506h246.293c10.223 0 18.585 8.363 18.585 18.585v246.296c0 10.222-8.362 18.585-18.585 18.585h-246.293c-10.222 0-18.585-8.363-18.585-18.585v-246.296c0-10.222 8.363-18.585 18.585-18.585z" fill="#fff" stroke="#000" stroke-width=".57"/><path d="m140.984 237.642h124.474c4.912 0 5.206-4.335 3.945-6.412-6.347-10.451-13.323-22.999-19.486-33.702l-96.835-168.512c-3.096-5.366-6.591-5.367-9.688.001l-110.168 191.635c-2.034 3.518-4.045 7.106-6.153 10.578-1.26 2.077-.536 6.412 3.946 6.412zm-115.824-223.169h246.156c5.878 0 10.687 4.809 10.687 10.687v246.157c0 5.878-4.809 10.686-10.687 10.686h-246.156c-5.878 0-10.687-4.808-10.687-10.686v-246.157c0-5.878 4.809-10.687 10.687-10.687" fill="#0099e2"/><path d="m148.238 170.917c10.478.002 21.835 2.354 31.548 6.34 17.075 7.005 23.566 21.304 39.149 21.304h22.02v9.942h-185.434v-9.942h22.02c15.583 0 22.074-14.299 39.149-21.304 9.713-3.986 21.07-6.338 31.548-6.34"/></svg>