<svg clip-rule="evenodd" fill-rule="evenodd" stroke-miterlimit="22.926" viewBox="0 0 203 297" xmlns="http://www.w3.org/2000/svg"><path d="m21.013 6.506h160.207c7.982 0 14.507 6.524 14.507 14.505v254.455c0 7.98-6.525 14.505-14.507 14.505h-160.207c-7.982 0-14.507-6.525-14.507-14.505v-254.455c0-7.981 6.525-14.505 14.507-14.505z" fill="#fff" stroke="#000" stroke-width=".57"/><path d="m101.242 58.923c2.181 0 3.966 1.784 3.966 3.966v13.961c0 2.181-1.785 3.967-3.966 3.967h-52.93c-2.181 0-3.966-1.786-3.966-3.967v-13.961c0-2.182 1.785-3.966 3.966-3.966l5.168-15.896c.598-1.84 1.583-3.517 3.517-3.517h35.56c1.935 0 2.919 1.678 3.517 3.517zm-42.312-15.788h31.695c1.582 0 2.388 1.373 2.877 2.877l4.228 13.006h-45.906l4.014-13.006c.467-1.512 1.509-2.877 3.092-2.877m42.617 46.255v-7.501h-10.993v7.501c0 3.036 2.46 5.498 5.496 5.498s5.497-2.462 5.497-5.498m-42.486 0c0 3.036-2.462 5.498-5.498 5.498-3.035 0-5.496-2.462-5.496-5.498v-7.501h10.994zm-5.498-26.723c3.036 0 5.498 2.461 5.498 5.497s-2.462 5.497-5.498 5.497c-3.035 0-5.496-2.461-5.496-5.497s2.461-5.497 5.496-5.497m42.487 0c3.036 0 5.497 2.461 5.497 5.497s-2.461 5.497-5.497 5.497-5.496-2.461-5.496-5.497 2.46-5.497 5.496-5.497m10.876 191.061c5.095 0 9.226 4.131 9.226 9.227s-4.131 9.227-9.226 9.227c-5.096 0-9.227-4.131-9.227-9.227s4.131-9.227 9.227-9.227m29.379-51.791c-2.906 2.278-5.359 6.962-4.303 10.689 1.167 4.113 7.652 10.8 12.982 2.816 8.158-12.221-.847-19.642-8.679-13.505m7.862 33.219-4.091-7.192-5.667 3.31c-.769.449-.917.259-1.318-.437l-3.713-6.444c-2.788-4.835-9.702-.622-6.922 4.202l6.556 11.376c.785 1.362 2.353 2.402 3.888 1.537zm31.872 18.917c6.229 0 6.229 9.473 0 9.473-1.795 0-11.372.096-12.249-.144-1.715-.468-3.087-3.454-3.92-4.897l-5.9-10.219 8.143-5.065 5.888 10.255c.408.712.498.597 1.628.597zm-13.693-61.443c-1.476 0-2.839.778-3.579 2.054l-16.686 28.827c-.862 1.491-1.013 2.234-.146 3.763.69 1.211 5.644 9.537 5.6 10.175-.06.87-3.633 3.057-4.643 3.788-1.847 1.339-1.667 1.462-2.739 3.303l-11.943 20.513c-.426.73-.646 1.555-.646 2.4 0 4.825 6.427 6.622 8.894 2.426l9.209-15.665c1.155-1.965 2.191-4.55 4.186-5.799l11.825-7.402c2.169-1.359 1.852-3.288.647-5.335l-7.737-13.152c-1.291-2.194-.771-2.627.435-4.724l10.914-18.969c1.579-2.745-.427-6.203-3.591-6.203m-14.122-150.399h17.637v23.474h-17.637zm0 35.336h17.637v23.473h-17.637zm-94.697 111.836 8.443 8.332-21.344 36.642c-2.498 4.289-8.719 3.75-10.399-.877-.572-1.577-.456-3.312.393-4.769zm19.038-23.713 16.378 16.396c.832.833 1.295 1.951 1.295 3.129 0 3.892-4.732 5.921-7.515 3.173l-10.158-10.031zm-37.996-3.124c.73-3.319 2.674-4.107 5.29-5.686 1.685-1.018 15.854-9.349 17.014-9.635 3.35-.826 4.857.449 7.867 2.216 1.12.657 2.246 1.319 3.352 2.002 2.238 1.38 2.235 2.029 2.273 4.508.06 3.842-.117 28.021.077 28.299.495.708 13.79 13.618 14.326 14.508.644 1.071 1.499 5.155 1.799 6.408l5.934 25.152c.848 3.546-1.816 6.965-5.471 6.965-2.602 0-4.874-1.786-5.476-4.316-.714-3.004-5.402-23.485-6.023-24.693-.624-1.215-4.064-4.318-5.223-5.475-4.676-4.677-9.341-9.367-14.008-14.052-.797-.801-3.667-3.442-4.069-4.369-.595-1.371-.429-10.938-.432-12.267l.016-11.851c-1.34.334-7.854 4.667-8.196 5.363-.362.738-.195 15.103-.195 17.053 0 2.446-1.983 4.428-4.428 4.428s-4.427-1.982-4.427-4.428zm27.868-36.191c4.213.488 9.38 3.596 10.58 7.876 1.037 3.699-.411 10.66-4.836 11.502-2.497.476-3.984.131-6.261-.921-4.397-2.031-10.324-6.302-9.72-11.731.601-5.419 5.334-7.292 10.237-6.726m74.076-113.665h11.711v17.618h17.637v-17.618h14.697v17.618h8.9v11.903h-8.9v23.473h8.9v11.863h-8.9v23.472h8.9v17.715h-52.945zm-115.407 0h109.455v111.798h58.897v150.925c0 4.584-3.752 8.334-8.332 8.334h-160.02c-4.58 0-8.332-3.75-8.332-8.334v-254.39c0-4.583 3.752-8.333 8.332-8.333" fill="#0099e2"/></svg>