<svg clip-rule="evenodd" fill-rule="evenodd" stroke-miterlimit="22.926" viewBox="0 0 203 297" xmlns="http://www.w3.org/2000/svg"><path d="m21.013 6.506h160.207c7.982 0 14.507 6.524 14.507 14.505v254.455c0 7.98-6.525 14.505-14.507 14.505h-160.207c-7.982 0-14.507-6.525-14.507-14.505v-254.455c0-7.981 6.525-14.505 14.507-14.505z" fill="#fff" stroke="#000" stroke-width=".57"/><path d="m101.242 58.923c2.181 0 3.966 1.784 3.966 3.966v13.961c0 2.181-1.785 3.967-3.966 3.967h-52.93c-2.181 0-3.966-1.786-3.966-3.967v-13.961c0-2.182 1.785-3.966 3.966-3.966l5.168-15.896c.598-1.84 1.583-3.517 3.517-3.517h35.56c1.935 0 2.919 1.678 3.517 3.517zm-42.312-15.788h31.695c1.582 0 2.388 1.373 2.877 2.877l4.228 13.006h-45.906l4.014-13.006c.467-1.512 1.509-2.877 3.092-2.877m42.617 46.255v-7.501h-10.993v7.501c0 3.036 2.46 5.498 5.496 5.498s5.497-2.462 5.497-5.498m-42.486 0c0 3.036-2.462 5.498-5.498 5.498-3.035 0-5.496-2.462-5.496-5.498v-7.501h10.994zm-5.498-26.723c3.036 0 5.498 2.461 5.498 5.497s-2.462 5.497-5.498 5.497c-3.035 0-5.496-2.461-5.496-5.497s2.461-5.497 5.496-5.497m42.487 0c3.036 0 5.497 2.461 5.497 5.497s-2.461 5.497-5.497 5.497-5.496-2.461-5.496-5.497 2.46-5.497 5.496-5.497m10.876 191.061c5.095 0 9.226 4.131 9.226 9.227s-4.131 9.227-9.226 9.227c-5.096 0-9.227-4.131-9.227-9.227s4.131-9.227 9.227-9.227m29.379-51.791c-2.906 2.278-5.359 6.962-4.303 10.689 1.167 4.113 7.652 10.8 12.982 2.816 8.158-12.221-.847-19.642-8.679-13.505m7.862 33.219-4.091-7.192-5.667 3.31c-.769.449-.917.259-1.318-.437l-3.713-6.444c-2.788-4.835-9.702-.622-6.922 4.202l6.556 11.376c.785 1.362 2.353 2.402 3.888 1.537zm31.872 18.917c6.229 0 6.229 9.473 0 9.473-1.795 0-11.372.096-12.249-.144-1.715-.468-3.087-3.454-3.92-4.897l-5.9-10.219 8.143-5.065 5.888 10.255c.408.712.498.597 1.628.597zm-13.693-61.443c-1.476 0-2.839.778-3.579 2.054l-16.686 28.827c-.862 1.491-1.013 2.234-.146 3.763.69 1.211 5.644 9.537 5.6 10.175-.06.87-3.633 3.057-4.643 3.788-1.847 1.339-1.667 1.462-2.739 3.303l-11.943 20.513c-.426.73-.646 1.555-.646 2.4 0 4.825 6.427 6.622 8.894 2.426l9.209-15.665c1.155-1.965 2.191-4.55 4.186-5.799l11.825-7.402c2.169-1.359 1.852-3.288.647-5.335l-7.737-13.152c-1.291-2.194-.771-2.627.435-4.724l10.914-18.969c1.579-2.745-.427-6.203-3.591-6.203m-99.909-66.255c4.213.488 9.38 3.596 10.58 7.876 1.037 3.699-.411 10.66-4.836 11.502-2.497.476-3.984.131-6.261-.921-4.397-2.031-10.324-6.302-9.72-11.731.601-5.419 5.334-7.292 10.237-6.726m118.121-82.031v21.36h8.9v11.863h-8.9v23.472h8.9v17.715h-52.945v-4.132l11.711-18.686v5.103h17.637v-23.472h-6.124zm8.785-14.016h.115v11.903h-7.574zm-23.482-8.184v-9.434h5.913zm-29.348-9.434h11.711v17.618h12.508l-7.459 11.903h-5.049v8.054l-11.711 18.687zm-5.952 111.41v.388h58.897v150.925c0 4.584-3.752 8.334-8.332 8.334h-150.618l45.75-72.999c1.514 5.807 4.716 19.779 5.296 22.219.602 2.53 2.874 4.316 5.476 4.316 3.655 0 6.319-3.419 5.471-6.965l-5.934-25.152c-.3-1.253-1.155-5.337-1.799-6.408-.057-.094-.26-.328-.578-.667zm-109.455-111.41h109.455v65.76l-55.947 89.27-2.049-2.05v5.319l-2.217 3.536c.007-7.279.051-16.346.017-18.574-.038-2.479-.035-3.128-2.273-4.508-1.106-.683-2.232-1.345-3.352-2.002-3.01-1.767-4.517-3.042-7.867-2.216-1.16.286-15.329 8.617-17.014 9.635-2.616 1.579-4.56 2.367-5.29 5.686v20.13c0 2.446 1.982 4.428 4.427 4.428s4.428-1.982 4.428-4.428c0-1.95-.167-16.315.195-17.053.342-.696 6.856-5.029 8.196-5.363l-.016 11.851c.003 1.329-.163 10.896.432 12.267.402.927 3.272 3.568 4.069 4.369l3.152 3.165-1.285 2.051-4.64-4.58-22.907 39.328c-.849 1.457-.965 3.192-.393 4.769.365 1.005.944 1.817 1.652 2.428l-19.105 30.485v-245.37c0-4.583 3.752-8.333 8.332-8.333" fill="#0099e2"/><path d="m181.126 12.71h-9.352l-159 253.703v9.02c0 4.584 3.752 8.334 8.332 8.334h9.402l158.95-253.623v-9.101c0-4.583-3.752-8.333-8.332-8.333" fill="#d72717"/></svg>