<svg clip-rule="evenodd" fill-rule="evenodd" stroke-miterlimit="22.926" viewBox="0 0 354 128" xmlns="http://www.w3.org/2000/svg"><path d="m21.648 6.506h309.874c8.328 0 15.141 6.813 15.141 15.142v83.753c0 8.328-6.813 15.142-15.141 15.142h-309.874c-8.328 0-15.142-6.814-15.142-15.142v-83.753c0-8.329 6.814-15.142 15.142-15.142z" fill="#fff" stroke="#000" stroke-width=".57"/><path d="m29.503 103.598h294.17v-63.191l-20.392-5.935-20.393 5.935v39.501h-4.154v-11.755l-28.737-13.724-28.737 13.724v11.755h-4.711v-5.597l-14.117-11.344h-16.766v-2.818h-18.177v2.818h-16.766l-14.118 11.344v5.597h-4.748v-9.084l-22.993-47.777-22.994 47.777v9.277h-4.599v-11.429l-25.884-8.768-25.884 8.768v34.926zm-7.839-93.806h309.866c6.322 0 11.496 5.174 11.496 11.497v84.479c0 6.322-5.174 11.496-11.496 11.496h-309.866c-6.323 0-11.496-5.174-11.496-11.496v-84.479c0-6.323 5.173-11.497 11.496-11.497m.932 2.767h308.005c5.398 0 9.814 4.416 9.814 9.814v82.301c0 5.399-4.416 9.815-9.814 9.815h-308.005c-5.398 0-9.815-4.416-9.815-9.815v-82.301c0-5.398 4.417-9.814 9.815-9.814"/></svg>