<svg clip-rule="evenodd" fill-rule="evenodd" stroke-miterlimit="22.926" viewBox="0 0 357 129" xmlns="http://www.w3.org/2000/svg"><path d="m21.813 6.506h313.263c8.418 0 15.306 6.888 15.306 15.307v84.67c0 8.419-6.888 15.307-15.306 15.307h-313.263c-8.419 0-15.307-6.888-15.307-15.307v-84.67c0-8.419 6.888-15.307 15.307-15.307z" fill="#fff" stroke="#000" stroke-width=".57"/><path d="m82.076 79.736v-10.387l-26.167-8.864-26.166 8.864v24.548zm48.744-13.19-20.849-43.322-23.245 48.3v6.954zm-63.661 38.111h259.97v-63.883l-11.51-3.35-29.721 8.042v35.241h-4.2v-11.883l-29.051-13.875-29.051 13.875v11.883h-4.762v-5.659l-10.646-8.553zm-45.342-94.832h313.254c6.392 0 11.622 5.229 11.622 11.622v85.402c0 6.393-5.23 11.622-11.622 11.622h-313.254c-6.392 0-11.622-5.229-11.622-11.622v-85.402c0-6.393 5.23-11.622 11.622-11.622m.943 2.796h311.373c5.456 0 9.921 4.465 9.921 9.922v83.202c0 5.456-4.465 9.921-9.921 9.921h-311.373c-5.457 0-9.922-4.465-9.922-9.921v-83.202c0-5.457 4.465-9.922 9.922-9.922"/><path d="m16.515 100.42 310.862-84.118h7.281c3.118 0 5.669 2.551 5.669 5.669v5.837l-311.197 84.21h-6.946c-3.118 0-5.669-2.551-5.669-5.669z" fill="#d72717"/></svg>