<svg clip-rule="evenodd" fill-rule="evenodd" stroke-miterlimit="22.926" viewBox="0 0 297 438" xmlns="http://www.w3.org/2000/svg"><path d="m20.646 6.506h255.184c7.776 0 14.139 6.365 14.139 14.144v396.343c0 7.778-6.363 14.143-14.139 14.143h-255.184c-7.777 0-14.14-6.365-14.14-14.143v-396.343c0-7.779 6.363-14.144 14.14-14.144z" fill="#fff" stroke="#000" stroke-width=".57"/><path d="m203.477 216.263c7.884 0 14.274 6.391 14.274 14.273 0 7.885-6.39 14.276-14.274 14.276s-14.274-6.391-14.274-14.276c0-7.882 6.39-14.273 14.274-14.273m-110.325 0c7.884 0 14.274 6.391 14.274 14.273 0 7.885-6.39 14.276-14.274 14.276-7.883 0-14.274-6.391-14.274-14.276 0-7.882 6.391-14.273 14.274-14.273m14.274 69.392c0 7.883-6.39 14.274-14.274 14.274-7.883 0-14.274-6.391-14.274-14.274v-.001-19.478h28.548zm110.325 0v-.001-19.478h-28.548v19.479c0 7.883 6.39 14.274 14.274 14.274s14.274-6.391 14.274-14.274m-110.664-120.113h82.302c4.109 0 6.201 3.566 7.472 7.472l10.979 33.772h-119.204l10.422-33.772c1.212-3.927 3.919-7.472 8.029-7.472m109.872 40.997c5.664 0 10.299 4.635 10.299 10.298v36.254c0 5.664-4.635 10.299-10.299 10.299h-137.443c-5.664 0-10.298-4.635-10.298-10.299v-36.254c0-5.663 4.634-10.298 10.298-10.298l13.42-41.278c1.553-4.776 4.109-9.132 9.132-9.132h92.34c5.022 0 7.579 4.357 9.132 9.132zm-195.353-194.054h253.264c4.86 0 8.837 3.976 8.837 8.838v394.997c0 4.861-3.977 8.838-8.837 8.838h-253.264c-4.86 0-8.838-3.977-8.838-8.838v-394.997c0-4.862 3.978-8.838 8.838-8.838" fill="#0099e2"/></svg>