<svg clip-rule="evenodd" fill-rule="evenodd" stroke-miterlimit="22.926" viewBox="0 0 297 438" xmlns="http://www.w3.org/2000/svg"><path d="m24.625 6.506h247.228c9.965 0 18.119 8.153 18.119 18.119v388.32c0 9.965-8.154 18.119-18.119 18.119h-247.228c-9.965 0-18.119-8.154-18.119-18.119v-388.32c0-9.966 8.154-18.119 18.119-18.119z" fill="#fff" stroke="#000" stroke-width=".57"/><path d="m177.72 267.233c14.086.009 22.144-12.028 25.007-25.087 3.646-16.625 1.461-45.416-16.931-52.692-11.727-4.64-23.156 1.217-29.129 12.496-10.356 19.558-7.069 65.27 21.053 65.283m.007-13.723c-6.685.07-10.068-7.127-11.454-13.264-1.824-8.081-2.926-34.674 8.001-38.073 5.966-1.853 10.752.775 13.276 6.605 4.441 10.255 5.311 44.898-9.823 44.732m-84.722 10.8-1.313-15.186c7.954 6.117 34.272 9.798 35.142-5.76.651-11.613-12.789-12.515-19.727-10.117v-12.826c20.515-2.451 20.342-19.915 8.27-20.339-5.125-.181-12.866 3.352-17.392 7.027l-4.701-13.197c5.511-3.734 16.334-6.015 23.42-6.057 11.484 0 22.059 6.009 22.059 18.678.023 7.223-5.413 13.31-13.57 17.287v.22c10.507 1.606 17.277 10.808 17.277 21.196-.01 16.498-15.744 21.998-28.344 21.998-7.58 0-16.609-.19-21.121-2.924m35.029-219.366c5.111 0 9.254 6.933 9.254 15.485 0 8.553-4.143 15.486-9.254 15.486-5.11 0-9.253-6.933-9.253-15.486 0-8.552 4.143-15.485 9.253-15.485m82.894 4.654 4.953 16.425h-9.905zm-82.894-11.044c9.198 0 16.655 9.794 16.655 21.875s-7.457 21.875-16.655 21.875c-9.197 0-16.654-9.794-16.654-21.875s7.457-21.875 16.654-21.875m82.894.998h4.118l14.022 41.753h-8.578l-2.529-8.361h-14.065l-2.529 8.361h-8.577l14.021-41.753zm-134.925 3.58c10.181-7.661 28.62-5.667 28.62 6.462 0 4.658-2.683 7.815-6.505 9.883 12.876 4.512 8.476 23.063-7.642 22.824-6.078-.089-12.497-2.088-16.202-5.583l4.741-6.47c2.684 3.565 7.31 4.996 10.917 5.044 11.027.144 9.642-12.671.691-12.671h-4.204l-.009-6.357c1.997.001 6.085.257 7.476-.605 4.997-3.103 3.416-10.213-4.196-10.092-3.529.057-6.381 1.476-9.603 4.321zm78.905-3.58h7.532v16.068h15.074v-16.068h7.532v41.753h-7.532v-18.613h-15.074v18.613h-7.532zm-128.991-21.137h244.642c4.132 0 7.513 3.38 7.513 7.512v385.715c0 4.132-3.381 7.513-7.513 7.513h-244.642c-4.131 0-7.512-3.381-7.512-7.513v-385.715c0-4.132 3.381-7.512 7.512-7.512m-.625-3.966h245.892c5.833 0 10.606 4.773 10.606 10.606v387.459c0 5.833-4.773 10.606-10.606 10.606h-245.892c-5.833 0-10.606-4.773-10.606-10.606v-387.459c0-5.833 4.773-10.606 10.606-10.606"/><path d="m148.238 141.969c47.074 0 85.235 38.161 85.235 85.235 0 47.075-38.161 85.235-85.235 85.235s-85.234-38.16-85.234-85.235c0-47.074 38.16-85.235 85.234-85.235m0-18.127c57.086 0 103.362 46.277 103.362 103.362s-46.276 103.363-103.362 103.363c-57.084 0-103.361-46.278-103.361-103.363s46.277-103.362 103.361-103.362" fill="#d72717"/></svg>