<svg clip-rule="evenodd" fill-rule="evenodd" stroke-miterlimit="22.926" viewBox="0 0 297 438" xmlns="http://www.w3.org/2000/svg"><path d="m24.625 6.506h247.228c9.965 0 18.119 8.153 18.119 18.119v388.32c0 9.965-8.154 18.119-18.119 18.119h-247.228c-9.965 0-18.119-8.154-18.119-18.119v-388.32c0-9.966 8.154-18.119 18.119-18.119z" fill="#fff" stroke="#000" stroke-width=".57"/><path d="m63.388 286.233c-1.589-2.28-3.089-4.625-4.494-7.034l12.856-14.356c1.259 2.553 2.641 5.032 4.139 7.432zm9.478 11.69c-1.849-1.969-3.621-4.011-5.312-6.122l12.292-13.724c1.622 2.177 3.347 4.275 5.166 6.285zm10.918 10.081c-2.096-1.674-4.125-3.429-6.084-5.258l12.095-13.505c1.951 1.839 3.988 3.587 6.105 5.236zm12.353 8.481c-2.349-1.374-4.639-2.838-6.865-4.387l12.205-13.628c2.28 1.499 4.636 2.891 7.06 4.17zm139.109-145.1c10.35 16.099 16.354 35.258 16.354 55.819 0 57.085-46.276 103.362-103.362 103.362-16.5 0-32.095-3.871-45.931-10.749l12.649-14.123c10.224 4.344 21.474 6.744 33.282 6.744 47.074 0 85.236-38.16 85.236-85.234 0-15.146-3.955-29.366-10.881-41.691zm-9.103-12.108c1.786 2.045 3.492 4.161 5.113 6.344l-12.398 13.842c-1.536-2.267-3.178-4.457-4.919-6.56zm-10.56-10.482c2.034 1.749 4.001 3.574 5.892 5.473l-12.12 13.532c-1.869-1.922-3.827-3.757-5.87-5.498zm-11.987-8.89c2.285 1.452 4.509 2.989 6.667 4.61l-12.151 13.567c-2.195-1.586-4.469-3.071-6.813-4.446zm-13.479-7.221c2.552 1.132 5.052 2.361 7.49 3.689l-12.503 13.96c-2.547-1.224-5.165-2.323-7.845-3.293zm-41.879-8.843c12.343 0 24.178 2.166 35.15 6.135l-13.282 14.829c-6.978-1.848-14.307-2.837-21.868-2.837-47.073 0-85.235 38.161-85.235 85.236 0 10.855 2.032 21.235 5.734 30.784l-13.274 14.82c-6.776-13.756-10.586-29.234-10.586-45.604 0-57.085 46.277-103.363 103.361-103.363m-8.501 131.911c-1.247 2.077-2.865 3.829-4.736 5.289zm-.291-21.948c1.539 2.644 2.53 5.655 2.881 8.835l-21.572 24.087c-2.239.347-4.479.508-6.628.508-1.489 0-3.031-.008-4.586-.04zm-19.764-32.699c-1.151-.586-2.577-.963-4.304-1.023-5.125-.181-12.866 3.352-17.392 7.027l-4.701-13.197c5.511-3.734 16.334-6.015 23.42-6.057 4.452 0 8.767.904 12.383 2.749zm-8.016 31.224c-1.506.126-3.045.394-4.559.918v-7.881l5.39-6.017c7.094-2.079 10.84-6.331 11.088-11.71.01-.219.009-.442-.003-.667l10.955-12.231c1.866 2.096 3.214 4.68 3.838 7.766zm14.452 6.135c-1.078-2.655-3.258-4.386-6.016-5.335l7.641-8.531c2.768.794 5.222 2.144 7.294 3.908zm-33.991 15.681-.434-5.021c.873.671 1.967 1.313 3.225 1.904zm.879 10.165-.073-.845 9.038-10.09c3.174.716 6.616 1.104 9.899.999l-10.967 12.245c-3.155-.422-5.948-1.128-7.897-2.309m59.596-22.923c.654 3.149 1.559 6.181 2.739 8.994l10.605-11.84c-.464-2.797-.819-6.788-.837-11.118zm17.577-52.117c-5.541 2.149-10.31 6.635-13.511 12.68-.745 1.409-1.423 2.978-2.03 4.672zm18.524 1.589c-.921-.529-1.888-1.002-2.906-1.405-1.802-.713-3.596-1.177-5.365-1.412l-28.752 32.104c-.427 3.998-.53 8.186-.261 12.343l14.502-16.193c1.135-6.802 3.611-12.647 8.353-14.123 1.692-.525 3.288-.69 4.766-.524zm10.076 11.023c-1.303-2.51-2.868-4.801-4.727-6.773l-8.842 9.871c.914 1.046 1.7 2.319 2.341 3.798.482 1.114.926 2.533 1.313 4.174zm-21.058 65.351c14.085.009 22.143-12.028 25.006-25.087 2.027-9.241 2.25-22.24-1.108-33.214l-11.448 12.782c.932 11.677-.7 26.321-7.979 30.554-1.474.851-2.97 1.259-4.465 1.242-4.548.047-7.568-3.27-9.47-7.329l-9.472 10.576c2.765 4.013 6.359 7.164 10.903 8.947 2.586 1.022 5.258 1.528 8.033 1.529" fill="#c8c8c8"/><path d="m154.909 39.553h7.531v16.067h15.074v-16.067h7.533v41.753h-7.533v-18.613h-15.074v18.613h-7.531zm-78.906 3.58c3.634-2.733 9.32-4.594 14.688-4.576 6.507.019 13.933 3.528 13.933 11.038 0 4.657-2.683 7.814-6.506 9.883 12.877 4.512 8.477 23.062-7.642 22.824-6.078-.089-12.496-2.088-16.201-5.583l4.74-6.471c2.685 3.566 7.311 4.996 10.918 5.044 11.027.145 9.642-12.671.69-12.671h-4.203l-.01-6.356 4.247.003c1.352 0 2.517-.167 3.23-.609 4.997-3.102 3.416-10.212-4.197-10.091-3.529.056-6.38 1.475-9.602 4.321zm52.032-4.578c9.197 0 16.654 9.794 16.654 21.875s-7.457 21.875-16.654 21.875-16.654-9.794-16.654-21.875 7.457-21.875 16.654-21.875m82.894 11.044 4.953 16.425h-4.953-4.953zm67.143 73.971-259.482 289.721c.756 3.346 3.762 5.865 7.328 5.865h244.642c4.132 0 7.512-3.38 7.512-7.512zm0-22.273-259.666 289.927v12.052l259.666-289.927zm0-22.273-259.666 289.927v12.052l259.666-289.927zm0-22.273-259.666 289.927v12.053l259.666-289.927zm-259.666 257.435 208.573-232.88h-6.489l-2.528-8.361h-7.033-7.033l-2.528 8.361h-8.577l14.02-41.753h8.236l13.451 40.058 49.423-55.183c-.7-3.42-3.742-6.013-7.361-6.013h-244.642c-4.132 0-7.512 3.381-7.512 7.513v288.258zm259.666-279.707-259.666 289.927v12.052l259.666-289.926v-12.053zm-252.779-20.03h245.891c5.834 0 10.607 4.774 10.607 10.607v387.459c0 5.834-4.773 10.606-10.607 10.606h-245.891c-5.833 0-10.606-4.772-10.606-10.606v-387.459c0-5.833 4.773-10.607 10.606-10.607m102.742 30.496c5.11 0 9.254 6.932 9.254 15.485s-4.144 15.485-9.254 15.485-9.254-6.932-9.254-15.485 4.144-15.485 9.254-15.485"/></svg>