<svg clip-rule="evenodd" fill-rule="evenodd" stroke-miterlimit="22.926" viewBox="0 0 297 438" xmlns="http://www.w3.org/2000/svg"><path d="m20.646 6.506h255.184c7.776 0 14.139 6.365 14.139 14.144v396.343c0 7.778-6.363 14.143-14.139 14.143h-255.184c-7.777 0-14.14-6.365-14.14-14.143v-396.343c0-7.779 6.363-14.144 14.14-14.144z" fill="#fff" stroke="#000" stroke-width=".57"/><path d="m253.787 12.585.03-.101h21.051c4.861 0 8.839 3.977 8.839 8.838v21.264l-241.525 382.571h-20.576c-4.861 0-8.839-3.976-8.839-8.838v-21.963l241.02-381.771z" fill="#d72717"/><path d="m203.477 216.263c7.884 0 14.274 6.391 14.274 14.273 0 7.885-6.39 14.276-14.274 14.276s-14.274-6.391-14.274-14.276c0-7.882 6.39-14.273 14.274-14.273m-110.325 0c7.884 0 14.274 6.391 14.274 14.273 0 7.885-6.39 14.276-14.274 14.276-7.883 0-14.274-6.391-14.274-14.276 0-7.882 6.391-14.273 14.274-14.273m124.599 69.392v-.001-19.478h-28.548v19.479c0 7.883 6.39 14.274 14.274 14.274s14.274-6.391 14.274-14.274m-19.359-107.931 9.448 29.062h-27.796zm-91.305-12.182h50.135l-26.038 41.244h-42.548l10.422-33.772c1.212-3.927 3.919-7.472 8.029-7.472m176.62-122.956v373.734c0 4.861-3.977 8.838-8.837 8.838h-232.687l102.127-161.768h72.649c5.664 0 10.299-4.635 10.299-10.299v-36.254c0-5.663-4.635-10.298-10.299-10.298l-12.495-38.434zm-262.101-30.101h232.212l-.03.1-90.623 143.544h-61.097c-5.023 0-7.579 4.356-9.132 9.132l-13.42 41.278c-5.664 0-10.298 4.635-10.298 10.298v36.254c0 5.664 4.634 10.299 10.298 10.299h15.934l-1.759 2.786h-14.813v19.479c0 1.155.139 2.279.398 3.355l-66.508 105.347v-373.034c0-4.862 3.978-8.838 8.838-8.838" fill="#0099e2"/></svg>