<svg clip-rule="evenodd" fill-rule="evenodd" stroke-miterlimit="22.926" viewBox="0 0 297 297" xmlns="http://www.w3.org/2000/svg"><path d="m25.091 6.506h246.293c10.223 0 18.585 8.363 18.585 18.585v246.296c0 10.222-8.362 18.585-18.585 18.585h-246.293c-10.222 0-18.585-8.363-18.585-18.585v-246.296c0-10.222 8.363-18.585 18.585-18.585z" fill="#fff" stroke="#000" stroke-width=".57"/><path d="m25.16 14.474h246.156c5.878 0 10.687 4.809 10.687 10.687v246.157c0 5.878-4.809 10.686-10.687 10.686h-94.158v-114.255h47.438l-76.358-132.247-76.358 132.247h47.437v114.255h-94.157c-5.878 0-10.687-4.808-10.687-10.686v-246.157c0-5.878 4.809-10.687 10.687-10.687" fill="#0099e2"/></svg>