<svg clip-rule="evenodd" fill-rule="evenodd" stroke-miterlimit="22.926" viewBox="0 0 297 297" xmlns="http://www.w3.org/2000/svg"><path d="m25.091 6.506h246.293c10.223 0 18.585 8.363 18.585 18.585v246.296c0 10.222-8.362 18.585-18.585 18.585h-246.293c-10.222 0-18.585-8.363-18.585-18.585v-246.296c0-10.222 8.363-18.585 18.585-18.585z" fill="#fff" stroke="#000" stroke-width=".57"/><path d="m119.317 200.509v81.495h-81.495zm162.686-162.686v233.495c0 5.878-4.809 10.686-10.687 10.686h-94.158v-114.255h47.437l-26.545-45.973zm-256.843-23.349h233.828l-77.908 77.908-32.842-56.88-76.358 132.247h33.833l-91.24 91.24v-233.829c0-5.878 4.809-10.686 10.687-10.686" fill="#0099e2"/><path d="m258.988 14.474h12.328c5.878 0 10.687 4.809 10.687 10.687v12.663l-244.181 244.18h-12.662c-5.878 0-10.687-4.808-10.687-10.686v-12.328l244.515-244.516z" fill="#d72717"/></svg>