<svg clip-rule="evenodd" fill-rule="evenodd" stroke-miterlimit="22.926" viewBox="0 0 436 155" xmlns="http://www.w3.org/2000/svg"><path d="m410.398 6.506h-385.071c-10.352 0-18.821 8.47-18.821 18.821v104.091c0 10.351 8.469 18.821 18.821 18.821h385.071c10.352 0 18.821-8.47 18.821-18.821v-104.091c0-10.351-8.469-18.821-18.821-18.821z" fill="#fff" stroke="#000" stroke-width=".57"/><path d="m409.355 14.054h-382.827c-6.71 0-12.199 5.489-12.199 12.199v102.226c0 6.709 5.489 12.198 12.199 12.198h382.827c6.709 0 12.198-5.489 12.198-12.198v-36.588h-321.911v21.811l-63.173-36.453 63.173-36.454v21.812h321.911v-36.354c0-6.71-5.489-12.199-12.198-12.199" fill="#0099e2"/></svg>