<svg clip-rule="evenodd" fill-rule="evenodd" stroke-miterlimit="22.926" viewBox="0 0 297 297" xmlns="http://www.w3.org/2000/svg"><path d="m25.091 6.506h246.293c10.223 0 18.585 8.363 18.585 18.585v246.296c0 10.222-8.362 18.585-18.585 18.585h-246.293c-10.222 0-18.585-8.363-18.585-18.585v-246.296c0-10.222 8.363-18.585 18.585-18.585z" fill="#fff" stroke="#000" stroke-width=".57"/><path d="m148.238 35.15-39.129 66.854h24.483v92.468h-24.483l39.129 66.855 39.129-66.855h-24.484v-92.468h24.484zm123.078-20.677c5.877 0 10.687 4.809 10.687 10.687v246.157c0 5.878-4.81 10.687-10.687 10.687h-246.157c-5.877 0-10.686-4.809-10.686-10.687v-246.157c0-5.878 4.809-10.687 10.686-10.687z" fill="#0099e2"/></svg>