<svg clip-rule="evenodd" fill-rule="evenodd" stroke-miterlimit="22.926" viewBox="0 0 297 297" xmlns="http://www.w3.org/2000/svg"><path d="m25.091 6.506h246.293c10.223 0 18.585 8.363 18.585 18.585v246.296c0 10.222-8.362 18.585-18.585 18.585h-246.293c-10.222 0-18.585-8.363-18.585-18.585v-246.296c0-10.222 8.363-18.585 18.585-18.585z" fill="#fff" stroke="#000" stroke-width=".57"/><path d="m162.882 110.578v-8.573h8.573zm-29.29 75.653v8.242h-8.241zm-119.119 72.757v-233.828c0-5.878 4.808-10.686 10.686-10.686h233.827l-77.494 77.494-33.255-56.818-39.128 66.855h24.483v37.863l-119.119 119.12zm267.529-221.167v233.496c0 5.878-4.808 10.687-10.686 10.687h-233.496l77.286-77.285 33.131 56.608 39.129-66.854h-24.484v-37.532z" fill="#0099e2"/><path d="m258.988 14.474h12.328c5.877 0 10.686 4.809 10.686 10.687v12.663l-244.18 244.18h-12.662c-5.878 0-10.687-4.809-10.687-10.686v-12.328l244.515-244.516z" fill="#d72717"/></svg>