<svg clip-rule="evenodd" fill-rule="evenodd" stroke-miterlimit="22.926" viewBox="0 0 354 128" xmlns="http://www.w3.org/2000/svg"><path d="m21.929 6.506h309.31c8.483 0 15.423 6.94 15.423 15.423v83.189c0 8.483-6.94 15.424-15.423 15.424h-309.31c-8.483 0-15.423-6.941-15.423-15.424v-83.189c0-8.483 6.94-15.423 15.423-15.423z" fill="#fff" stroke="#000" stroke-width=".57"/><path d="m22.524 9.708h308.12c6.94 0 12.619 5.679 12.619 12.62v82.392c0 6.941-5.679 12.619-12.619 12.619h-254.718v-36.436h17.177l-29.327-50.52-29.326 50.52h17.177v36.436h-29.103c-6.94 0-12.619-5.678-12.619-12.619v-82.392c0-6.941 5.679-12.62 12.619-12.62m156.623 38.999h16.869c2.138 0 3.888 1.75 3.888 3.888v9.854c0 2.138-1.75 3.888-3.888 3.888h-22.808c-3.506 0-4.522-4.125-3.061-6.313l6.508-9.745c.599-.898 1.29-1.572 2.492-1.572m93.844 36.006c6.767 0 12.254 5.487 12.254 12.253 0 6.767-5.487 12.253-12.254 12.253-6.766 0-12.252-5.486-12.252-12.253 0-6.766 5.486-12.253 12.252-12.253m0 5.987c3.462 0 6.268 2.805 6.268 6.266s-2.806 6.267-6.268 6.267c-3.461 0-6.266-2.806-6.266-6.267s2.805-6.266 6.266-6.266m-83.388-5.987c6.766 0 12.253 5.487 12.253 12.253 0 6.767-5.487 12.253-12.253 12.253-6.768 0-12.253-5.486-12.253-12.253 0-6.766 5.485-12.253 12.253-12.253m0 5.987c3.461 0 6.266 2.805 6.266 6.266s-2.805 6.267-6.266 6.267-6.268-2.806-6.268-6.267 2.807-6.266 6.268-6.266m86.468-7.413h25v13.375h-14.063c-.14-6.549-4.771-11.993-10.937-13.375m-69.255 0h63.095c-6.166 1.382-10.796 6.826-10.935 13.375h-55.357c-.162-7.603-6.376-13.716-14.016-13.716-7.642 0-13.855 6.113-14.017 13.716h-7.182c-3.887 0-7.069-3.182-7.069-7.071v-6.304-14.26-2.339c.16-1.213.623-2.343 1.41-3.378l10.793-15.657c1.204-1.746 2.559-3.074 4.927-3.074h20.575c4.276 0 7.776 3.5 7.776 7.778zm3.144-2.973h91.17v-49.888c0-3.694-3.022-6.717-6.717-6.717h-77.736c-3.695 0-6.717 3.023-6.717 6.717z" fill="#0099e2"/></svg>