<svg clip-rule="evenodd" fill-rule="evenodd" stroke-miterlimit="22.926" viewBox="0 0 354 128" xmlns="http://www.w3.org/2000/svg"><path d="m21.929 6.506h309.31c8.483 0 15.423 6.94 15.423 15.423v83.189c0 8.483-6.94 15.424-15.423 15.424h-309.31c-8.483 0-15.423-6.941-15.423-15.424v-83.189c0-8.483 6.94-15.423 15.423-15.423z" fill="#fff" stroke="#000" stroke-width=".57"/><path d="m235.352 75.478h36.854v17.041l50.52-29.095-50.52-29.095v17.041h-36.854zm-92.145 4.836h-91.169v-49.888c0-3.694 3.022-6.717 6.717-6.717h77.736c3.694 0 6.716 3.023 6.716 6.717zm3.144 2.973h-63.094c6.166 1.382 10.796 6.826 10.936 13.375h55.356c.162-7.603 6.375-13.716 14.016-13.716s13.854 6.113 14.016 13.716h7.182c3.889 0 7.07-3.182 7.07-7.071v-6.304-14.26-2.339c-.16-1.213-.623-2.343-1.41-3.378l-10.793-15.657c-1.204-1.746-2.558-3.074-4.927-3.074h-20.575c-4.277 0-7.777 3.5-7.777 7.778zm-69.254 0h-25v13.375h14.063c.14-6.549 4.771-11.993 10.937-13.375m86.468 7.413c-3.461 0-6.267 2.805-6.267 6.266s2.806 6.267 6.267 6.267c3.462 0 6.267-2.806 6.267-6.267s-2.805-6.266-6.267-6.266m0-5.987c-6.767 0-12.252 5.487-12.252 12.253 0 6.767 5.485 12.253 12.252 12.253s12.254-5.486 12.254-12.253c0-6.766-5.487-12.253-12.254-12.253m-83.388 5.987c-3.462 0-6.267 2.805-6.267 6.266s2.805 6.267 6.267 6.267c3.461 0 6.266-2.806 6.266-6.267s-2.805-6.266-6.266-6.266m0-5.987c-6.767 0-12.254 5.487-12.254 12.253 0 6.767 5.487 12.253 12.254 12.253 6.766 0 12.252-5.486 12.252-12.253 0-6.766-5.486-12.253-12.252-12.253m93.844-36.006h-16.868c-2.14 0-3.889 1.75-3.889 3.888v9.854c0 2.138 1.749 3.888 3.889 3.888h22.806c3.506 0 4.524-4.125 3.062-6.313l-6.508-9.745c-.599-.898-1.291-1.572-2.492-1.572m156.623-38.999h-308.12c-6.94 0-12.619 5.679-12.619 12.62v82.392c0 6.941 5.679 12.619 12.619 12.619h308.12c6.94 0 12.619-5.678 12.619-12.619v-82.392c0-6.941-5.679-12.62-12.619-12.62" fill="#0099e2"/></svg>