<svg clip-rule="evenodd" fill-rule="evenodd" stroke-miterlimit="22.926" viewBox="0 0 354 128" xmlns="http://www.w3.org/2000/svg"><path d="m21.929 6.506h309.31c8.483 0 15.423 6.94 15.423 15.423v83.189c0 8.483-6.94 15.424-15.423 15.424h-309.31c-8.483 0-15.423-6.941-15.423-15.424v-83.189c0-8.483 6.94-15.423 15.423-15.423z" fill="#fff" stroke="#000" stroke-width=".57"/><path d="m246.447 29.088h46.205v68.872h-11.261v-57.074h-23.683v57.074h-11.261zm-138.571 47.673c-1.786 12.905-12.693 22.124-24.389 22.363-17.444.354-26.36-15.596-26.36-34.98 0-11.463 2.491-20.361 7.462-26.709 4.97-6.333 11.505-9.722 19.612-9.507 12.398.33 20.139 7.735 23.332 21.486-3.691 1.191-7.384 2.381-11.076 3.571.053-.015-2.993-13.741-12.849-13.811-10.293-.074-14.137 12.873-14.161 24.803-.021 10.577 3.047 23.939 13.919 23.939 6.986 0 11.669-7.106 13.091-14.398zm70.05-12.812c0-21.243 8.94-36.03 26.626-36.03 17.382 0 26.782 14.688 26.782 35.693 0 21.387-9.733 35.517-26.627 35.517-16.949 0-26.781-13.861-26.781-35.18m11.448-.465c0 7.793 1.449 13.71 4.32 17.734 5.766 8.063 16.133 8.136 21.885.033 2.832-3.994 4.255-9.974 4.255-17.959 0-7.89-1.385-13.775-4.14-17.671-5.612-7.898-16.498-7.798-22.115.081-2.795 3.928-4.205 9.844-4.205 17.782m-66.877-34.396h46.316v12.093h-16.777v56.779h-6.381-6.38v-56.779h-16.778zm-99.533-16.519h307.239c5.553 0 10.096 4.543 10.096 10.095v81.719c0 5.553-4.543 10.096-10.096 10.096h-307.239c-5.553 0-10.096-4.543-10.096-10.096v-81.719c0-5.552 4.543-10.095 10.096-10.095m-.44-2.861h308.119c6.941 0 12.619 5.679 12.619 12.62v82.392c0 6.941-5.678 12.619-12.619 12.619h-308.119c-6.941 0-12.619-5.678-12.619-12.619v-82.392c0-6.941 5.678-12.62 12.619-12.62"/></svg>