<svg clip-rule="evenodd" fill-rule="evenodd" stroke-miterlimit="22.926" viewBox="0 0 354 128" xmlns="http://www.w3.org/2000/svg"><path d="m21.929 6.506h309.311c8.483 0 15.423 6.94 15.423 15.423v83.189c0 8.483-6.94 15.424-15.423 15.424h-309.311c-8.483 0-15.423-6.941-15.423-15.424v-83.189c0-8.483 6.94-15.423 15.423-15.423z" fill="#fff" stroke="#000" stroke-width=".57"/><path d="m114.452 51.443h-35.95v-17.366l-50.304 29.446 50.304 29.446v-17.366h35.95zm196.265 20.588.026-17.365h-7.883c-.295 7.678-1.518 14.562-3.661 17.365zm4.395 6.139h-19.431v5.856h-6.24v-11.995h3.135c2.872-2.885 3.982-19.218 3.856-23.205h21.395v23.205h3.524v11.995h-6.239zm-34.787-14.968c8.246-2.421 6.71-17.061-11.144-14.781-2.542.324-5.395 1.656-7.583 2.99l3.504 5.506c7.595-4.557 13.168-1.991 13.084.909-.117 3.964-5.029 3.14-7.099 3.279v5.155c2.793 0 7.931-.429 7.923 3.56-.011 5.457-11.432 4.241-14.717-.258l-4.434 5.016c7.071 6.582 26.83 7.227 26.508-4.555-.101-3.698-3.663-6.469-6.042-6.821m-32.399-2.652c-.088-3.582-2.013-6.702-6.022-6.702-4.273 0-6.269 2.637-6.233 6.702zm1.791 8.737 5.448 3.464c-2.202 3.918-7.696 6.545-12.75 6.516-19.835-.117-18.065-31.3-.779-31.3 9.034 0 15.432 8.385 13.393 17.612h-19.367c.058 2.349 1.12 4.503 2.324 5.805 3.299 3.564 9.878 1.599 11.731-2.097m-43.671 3.312c2.093 0 6.812.113 8.402-.281 3.194-.792 3.627-4.976 1.379-6.538-1.842-1.28-6.934-.959-9.781-.959zm-13.049-23.773h13.049v10.366h6.739c6.206 0 10.433 2.677 10.433 9.518 0 5.576-3.996 9.519-10.433 9.519h-13.65v-23.178h-6.138zm-24.215 15.407c0 12.379 13.559 12.046 13.559.029 0-12.169-13.559-12.21-13.559-.029m19.587-28.415c-.151 2.422-.813 5.521-2.021 6.529-1.375 1.149-1.345.766-3.786.803-4.396.064-10.066-.91-13.226 3.519-1.225 1.715-1.646 3.935-1.674 6.806 2.884-5.957 21.647-7.366 21.647 10.327 0 18.77-21.581 19.751-26.235 6.769-1.958-5.461-2.394-13.382-1.489-19.172 1.416-9.071 6.027-14.433 16.032-14.433h7.139c.916 0 3.335-.685 3.613-1.148m-60.07 27.375c0-8.069 5.113-15.226 13.61-15.226 18.358 0 18.024 31.3.052 31.3-4.979 0-9.7-2.602-11.947-7.316-1.138-2.395-1.715-5.312-1.715-8.758m6.95.423c0 10.125 7.849 11.65 11.439 7.062 3.37-4.307 2.76-16.572-4.744-16.572-4.637 0-6.695 4.602-6.695 9.51m-112.285-51.048h307.24c.086 0 .173.001.26.003.086.003.172.006.258.01v.001c.084.004.17.009.255.015v.001c.085.006.17.014.255.022v.001c.084.009.169.018.253.029s.167.022.251.035c.083.013.166.027.248.041v.001c.083.014.165.03.247.047v.001c.082.016.164.034.245.053s.163.038.243.059c.081.021.161.043.24.066.08.023.159.046.238.071s.157.05.235.077c.079.027.157.054.234.082.077.029.153.058.229.088v.001c.077.03.153.061.229.092v.001c.075.032.15.065.224.099.075.033.149.068.222.104.073.035.147.071.22.108v.001c.072.037.144.075.216.114.071.039.142.079.213.119v.001c.07.04.139.082.21.124.069.042.137.085.206.129.068.044.136.089.203.134.067.046.134.092.2.139v.001c.065.047.132.094.196.142v.001c.065.048.129.097.193.147v.001c.063.049.127.1.189.151v.001c.062.052.124.104.185.156v.001c.061.053.122.106.181.161.06.055.119.109.178.165s.116.113.174.169v.001c.056.057.113.115.169.173.055.059.111.118.166.178.054.06.107.12.16.181v.001c.054.061.105.122.157.184v.001c.052.062.103.125.153.189.05.063.099.127.148.192.048.065.096.13.144.196v.001c.046.066.092.132.138.199.045.068.09.135.134.204.044.068.087.137.129.206s.084.139.125.21c.04.07.08.141.119.212v.001c.039.071.077.143.114.216s.075.145.11.219c.035.073.07.147.103.222.034.074.068.15.1.224v.001c.031.075.062.151.093.227v.001c.03.076.059.153.087.23.029.077.057.155.083.233.027.078.052.156.078.235.024.079.047.158.07.238s.045.16.065.24v.001c.022.08.041.16.06.242.019.081.037.163.054.245s.033.164.047.246v.001c.015.082.029.165.042.248v.001c.013.083.025.166.036.25.01.084.02.169.029.253.008.085.016.17.022.255.007.085.012.17.017.256.004.086.008.172.01.258s.003.172.003.26v81.719c0 .087-.001.173-.003.26-.002.086-.006.172-.01.258-.005.085-.01.17-.017.255-.006.086-.014.17-.022.255-.009.085-.019.169-.029.253-.011.084-.023.168-.036.251-.012.083-.027.166-.042.248v.001c-.014.082-.03.164-.047.246v.001c-.017.081-.035.163-.054.244s-.038.163-.06.244c-.02.08-.042.16-.065.239v.001c-.023.079-.046.159-.07.237v.001c-.026.078-.051.156-.078.234-.026.079-.054.157-.083.234-.028.077-.057.153-.087.229v.001c-.031.076-.062.153-.093.228-.032.075-.066.15-.1.224-.033.075-.068.149-.103.222v.001c-.035.073-.073.146-.11.219-.037.072-.075.144-.114.216-.039.071-.079.142-.119.213-.041.07-.083.14-.125.21-.042.069-.085.137-.129.206v.001c-.044.067-.089.135-.134.202v.001c-.046.066-.092.133-.138.199-.048.066-.096.132-.144.196-.049.065-.098.129-.148.193v.001c-.05.063-.101.126-.153.188-.052.063-.103.124-.157.185v.001c-.053.06-.106.121-.16.18-.055.061-.111.119-.166.178-.056.059-.113.116-.169.174-.058.056-.115.113-.174.169v.001c-.059.055-.118.11-.178.165-.059.054-.12.108-.181.161s-.123.105-.185.156v.001c-.062.051-.126.102-.189.152-.064.05-.128.099-.193.148-.064.049-.131.097-.196.144-.066.046-.133.092-.2.138s-.135.09-.203.134c-.069.044-.137.087-.206.129v.001c-.071.042-.14.083-.21.124-.071.041-.142.08-.213.119-.072.039-.144.077-.216.114v.001c-.073.037-.147.073-.22.109s-.147.07-.222.104c-.074.033-.149.067-.224.099-.076.032-.152.062-.229.093v.001c-.076.03-.152.059-.229.087-.077.029-.155.056-.234.082v.001c-.078.027-.156.052-.235.077-.079.024-.158.048-.238.071-.079.022-.159.044-.24.065-.08.021-.162.041-.243.06-.081.018-.163.036-.245.054-.082.016-.164.032-.247.046v.001c-.082.015-.165.029-.248.041-.084.013-.167.025-.251.036-.084.01-.169.02-.253.029-.085.009-.169.017-.255.022v.001c-.085.006-.171.012-.255.016-.086.005-.172.008-.258.01-.087.003-.173.004-.26.004h-307.24c-.087 0-.173-.001-.26-.004-.086-.002-.172-.005-.258-.01-.085-.004-.171-.01-.256-.016v-.001c-.085-.005-.17-.013-.255-.022-.084-.009-.169-.019-.252-.029-.084-.011-.168-.023-.251-.036-.084-.012-.167-.026-.249-.041v-.001c-.083-.014-.165-.03-.247-.046-.082-.018-.164-.036-.245-.054-.081-.02-.162-.039-.242-.06-.08-.02-.161-.042-.241-.065-.079-.023-.158-.047-.237-.071-.079-.025-.158-.05-.236-.077v-.001c-.078-.026-.156-.053-.233-.082-.077-.028-.154-.057-.23-.087v-.001c-.076-.031-.153-.061-.228-.093s-.15-.066-.225-.099c-.075-.034-.148-.068-.222-.104-.073-.036-.146-.072-.219-.109v-.001c-.072-.037-.144-.075-.216-.114-.071-.039-.142-.078-.213-.119-.07-.041-.14-.082-.209-.124v-.001c-.07-.042-.139-.085-.207-.129s-.137-.088-.204-.134c-.066-.046-.133-.092-.199-.138-.066-.048-.132-.095-.197-.144-.064-.049-.128-.098-.192-.148-.063-.05-.126-.101-.189-.152v-.001c-.062-.051-.124-.103-.185-.156s-.122-.107-.182-.161c-.06-.055-.119-.11-.177-.165v-.001c-.058-.056-.117-.113-.174-.169-.057-.058-.113-.114-.169-.174-.056-.059-.111-.117-.166-.178-.054-.059-.108-.12-.161-.18v-.001c-.053-.061-.105-.122-.157-.185-.051-.062-.102-.125-.152-.188v-.001c-.05-.064-.099-.127-.148-.193-.049-.064-.096-.13-.143-.196-.048-.066-.094-.133-.139-.199v-.001c-.045-.067-.09-.135-.134-.202v-.001c-.044-.069-.087-.137-.129-.206-.043-.07-.084-.14-.125-.21-.04-.071-.08-.142-.119-.213-.039-.072-.078-.144-.115-.216-.037-.073-.073-.146-.109-.219v-.001c-.035-.073-.07-.147-.104-.222-.034-.074-.067-.149-.099-.224s-.063-.152-.093-.228v-.001c-.03-.076-.06-.152-.088-.229-.029-.077-.056-.155-.083-.234-.026-.078-.052-.156-.076-.234v-.001c-.025-.078-.049-.158-.072-.237v-.001c-.022-.079-.044-.159-.065-.239-.021-.081-.041-.163-.06-.244-.018-.081-.036-.163-.053-.244v-.001c-.017-.082-.033-.164-.048-.246v-.001c-.014-.082-.029-.165-.041-.248-.013-.083-.025-.167-.035-.251-.011-.084-.021-.168-.03-.253s-.016-.17-.023-.255-.012-.17-.016-.255c-.004-.086-.008-.172-.01-.258-.002-.087-.003-.173-.003-.26v-81.719c0-.087.001-.174.003-.26s.005-.172.01-.258c.004-.086.009-.171.016-.256s.014-.17.023-.255c.009-.084.019-.169.03-.253.01-.084.022-.167.035-.25v-.001c.012-.083.026-.166.041-.248v-.001c.015-.082.031-.164.048-.246s.035-.164.053-.245c.019-.081.039-.162.06-.242v-.001c.02-.08.042-.16.065-.24s.047-.159.072-.238c.024-.079.05-.157.076-.235.027-.078.054-.156.083-.233.028-.077.058-.154.088-.23v-.001c.03-.076.061-.152.093-.227v-.001c.032-.075.065-.15.099-.224.034-.075.069-.149.104-.222.036-.074.072-.146.109-.219s.076-.145.115-.216v-.001c.039-.071.079-.142.119-.212.041-.071.082-.141.125-.21.042-.069.085-.138.129-.206.044-.069.089-.136.134-.204.045-.067.091-.133.139-.199v-.001c.047-.066.094-.131.143-.196s.098-.129.148-.192c.05-.064.101-.127.152-.189v-.001c.052-.062.104-.123.157-.184v-.001c.053-.061.107-.121.161-.181.055-.06.11-.119.166-.178.056-.058.112-.116.169-.173v-.001c.057-.056.116-.113.174-.169s.117-.11.177-.165.121-.108.182-.161v-.001c.061-.052.123-.104.185-.156v-.001c.063-.051.126-.102.189-.151v-.001c.064-.05.128-.099.192-.147v-.001c.065-.048.131-.095.197-.142v-.001c.066-.047.133-.093.199-.139.068-.045.136-.09.204-.134s.137-.087.207-.129c.069-.042.139-.084.209-.124v-.001c.07-.04.142-.08.213-.119.072-.039.144-.077.216-.114v-.001c.073-.037.146-.073.219-.108.074-.036.147-.071.222-.104.075-.034.15-.067.225-.099v-.001c.075-.031.152-.062.228-.092v-.001c.076-.03.153-.059.23-.088.077-.028.155-.055.233-.082s.157-.052.236-.077.158-.048.237-.071c.08-.023.161-.045.241-.066s.161-.04.242-.059.163-.037.245-.053v-.001c.082-.017.164-.032.247-.047v-.001c.082-.014.165-.028.249-.041.083-.013.167-.024.251-.035.083-.011.168-.021.252-.029v-.001c.085-.008.17-.016.255-.022v-.001c.085-.006.171-.011.256-.015v-.001c.086-.004.172-.007.258-.01.086-.002.173-.003.26-.003" fill="#f8f100"/><path d="m114.452 51.444h-35.95v-17.366l-50.304 29.446 50.304 29.445v-17.366h35.95zm196.265 20.589.026-17.366h-7.883c-.295 7.678-1.518 14.561-3.661 17.366zm4.395 6.138h-19.431v5.855h-6.24v-11.993h3.135c2.872-2.887 3.982-19.22 3.856-23.206h21.395v23.206h3.524v11.993h-6.239zm-34.787-14.968c8.246-2.421 6.71-17.061-11.144-14.781-2.542.324-5.395 1.656-7.583 2.99l3.504 5.505c7.595-4.556 13.168-1.99 13.084.91-.117 3.963-5.029 3.14-7.099 3.278v5.155c2.793 0 7.931-.428 7.923 3.561-.011 5.457-11.432 4.241-14.717-.259l-4.434 5.017c7.071 6.583 26.83 7.226 26.508-4.555-.101-3.697-3.663-6.469-6.042-6.821m-32.399-2.653c-.088-3.581-2.013-6.701-6.022-6.701-4.273 0-6.269 2.637-6.233 6.701zm1.791 8.738 5.448 3.464c-2.202 3.918-7.696 6.545-12.75 6.515-19.835-.117-18.065-31.299-.779-31.299 9.034 0 15.432 8.385 13.393 17.612h-19.367c.058 2.349 1.12 4.504 2.324 5.804 3.299 3.565 9.878 1.599 11.731-2.096m-43.671 3.311c2.093 0 6.812.114 8.402-.281 3.194-.792 3.627-4.975 1.379-6.537-1.842-1.28-6.934-.958-9.781-.958zm-13.049-23.772h13.049v10.366h6.739c6.206 0 10.433 2.676 10.433 9.518 0 5.576-3.996 9.518-10.433 9.518h-13.65v-23.178h-6.138zm-24.215 15.406c0 12.381 13.559 12.048 13.559.029 0-12.168-13.559-12.209-13.559-.029m19.587-28.414c-.151 2.422-.813 5.521-2.021 6.528-1.375 1.149-1.345.767-3.786.803-4.396.064-10.066-.909-13.226 3.52-1.225 1.715-1.646 3.935-1.674 6.806 2.884-5.957 21.647-7.366 21.647 10.327 0 18.771-21.581 19.75-26.235 6.769-1.958-5.461-2.394-13.382-1.489-19.172 1.416-9.071 6.027-14.433 16.032-14.433h7.139c.916 0 3.335-.685 3.613-1.148m-60.07 27.375c0-8.069 5.113-15.226 13.61-15.226 18.358 0 18.024 31.299.052 31.299-4.979 0-9.7-2.6-11.947-7.315-1.138-2.396-1.715-5.312-1.715-8.758m6.95.423c0 10.125 7.849 11.649 11.439 7.061 3.37-4.305 2.76-16.571-4.744-16.571-4.637 0-6.695 4.602-6.695 9.51m-112.285-51.048h307.24c5.552 0 10.095 4.543 10.095 10.095v81.719c0 5.553-4.543 10.096-10.095 10.096h-307.24c-5.553 0-10.095-4.543-10.095-10.096v-81.719c0-5.552 4.542-10.095 10.095-10.095m-.44-2.861h308.119c6.941 0 12.62 5.679 12.62 12.62v82.392c0 6.941-5.679 12.62-12.62 12.62h-308.119c-6.941 0-12.619-5.679-12.619-12.62v-82.392c0-6.941 5.678-12.62 12.619-12.62"/></svg>