<svg clip-rule="evenodd" fill-rule="evenodd" stroke-miterlimit="22.926" viewBox="0 0 354 128" xmlns="http://www.w3.org/2000/svg"><path d="m21.929 6.506h309.311c8.483 0 15.423 6.94 15.423 15.423v83.189c0 8.483-6.94 15.424-15.423 15.424h-309.311c-8.483 0-15.423-6.941-15.423-15.424v-83.189c0-8.483 6.94-15.423 15.423-15.423z" fill="#fff" stroke="#000" stroke-width=".57"/><path d="m51.702 103.562v-35.95h-17.366l29.446-50.304 29.445 50.304h-17.365v35.95zm247.559-31.53.026-17.366h-7.882c-.295 7.679-1.519 14.562-3.661 17.366zm4.395 6.138h-19.43v5.856h-6.24v-11.994h3.134c2.873-2.886 3.983-19.219 3.857-23.205h21.394v23.205h3.525v11.994h-6.24zm-34.786-14.967c8.246-2.422 6.71-17.062-11.144-14.782-2.543.325-5.396 1.657-7.584 2.99l3.505 5.506c7.595-4.556 13.168-1.99 13.084.909-.117 3.964-5.029 3.141-7.099 3.279v5.155c2.792 0 7.931-.428 7.922 3.561-.011 5.457-11.431 4.24-14.717-.259l-4.433 5.017c7.07 6.582 26.83 7.226 26.507-4.556-.101-3.697-3.662-6.469-6.041-6.82m-32.4-2.653c-.088-3.582-2.013-6.702-6.021-6.702-4.274 0-6.27 2.637-6.234 6.702zm1.791 8.738 5.448 3.463c-2.202 3.918-7.696 6.545-12.75 6.516-19.835-.117-18.065-31.299-.779-31.299 9.034 0 15.433 8.384 13.394 17.612h-19.368c.058 2.348 1.121 4.503 2.325 5.804 3.298 3.565 9.878 1.599 11.73-2.096m-43.672 3.311c2.094 0 6.814.113 8.404-.281 3.194-.792 3.626-4.976 1.378-6.537-1.841-1.281-6.933-.959-9.782-.959zm-13.048-23.772h13.048v10.365h6.74c6.206 0 10.433 2.677 10.433 9.518 0 5.577-3.996 9.519-10.433 9.519h-13.649v-23.178h-6.139zm-24.215 15.406c0 12.38 13.559 12.047 13.559.029 0-12.168-13.559-12.209-13.559-.029m19.587-28.415c-.151 2.422-.813 5.522-2.02 6.529-1.375 1.149-1.345.767-3.786.803-4.397.064-10.067-.91-13.227 3.519-1.224 1.716-1.645 3.935-1.674 6.807 2.884-5.957 21.648-7.367 21.648 10.327 0 18.77-21.581 19.75-26.235 6.769-1.959-5.462-2.395-13.383-1.49-19.173 1.416-9.071 6.028-14.432 16.032-14.432h7.139c.916 0 3.335-.686 3.613-1.149m-60.069 27.376c0-8.07 5.112-15.226 13.61-15.226 18.358 0 18.024 31.299.051 31.299-4.978 0-9.7-2.601-11.947-7.315-1.137-2.396-1.714-5.313-1.714-8.758m6.95.423c0 10.125 7.848 11.649 11.439 7.061 3.37-4.306 2.76-16.572-4.744-16.572-4.637 0-6.695 4.602-6.695 9.511m-100.829-51.048h307.239c.086 0 .173 0 .26.003.086.002.172.005.258.01.085.004.171.009.256.016.085.006.17.014.255.023.084.009.169.018.253.029s.167.022.251.035v.001c.083.012.166.026.248.041.083.015.165.03.247.047v.001c.082.016.164.034.245.053s.162.039.242.059v.001c.081.021.161.042.24.065.08.023.16.046.239.071s.157.05.235.077.156.054.233.083c.078.028.154.058.23.087v.001c.076.03.152.061.228.093s.151.065.225.099.148.068.222.104c.073.036.146.072.219.109s.145.075.216.114c.071.04.143.079.213.12s.14.082.21.124v.001c.069.042.138.085.206.129.068.043.137.088.203.133v.001c.068.045.134.091.2.138v.001c.066.047.132.094.197.143.064.048.129.097.192.148.064.05.127.101.19.152.061.052.124.104.184.157.062.053.122.107.182.161.059.055.119.11.177.165v.001c.059.055.117.112.174.169s.114.115.169.174c.056.058.112.117.166.177s.108.12.16.181v.001c.054.061.106.122.158.184v.001c.051.062.102.125.152.189.051.063.1.127.148.192v.001c.048.064.096.13.144.196.047.066.093.132.139.199v.001c.045.067.09.135.133.203.044.068.087.137.129.206.042.07.084.14.125.21.04.071.08.142.12.213.039.072.077.144.114.216.037.073.074.146.109.219.035.074.07.148.104.222v.001c.034.074.067.149.099.224.032.076.063.151.093.228.03.076.06.153.088.23s.057.155.083.233.052.156.077.235.048.159.07.238v.001c.024.079.045.159.066.239v.001c.021.08.041.161.059.242v.001c.02.08.038.162.054.244.018.082.033.164.048.247s.028.165.042.249c.013.083.024.167.035.251s.021.168.029.252v.001c.008.084.016.169.023.254s.012.171.016.256c.004.086.008.172.01.258.002.087.003.173.003.26v81.719c0 .087-.001.173-.003.26-.002.086-.006.172-.01.258s-.009.171-.016.256c-.007.086-.015.17-.023.255s-.018.169-.029.253-.022.168-.035.251-.027.166-.042.248v.001c-.015.082-.03.164-.048.246v.001c-.016.081-.034.163-.054.244-.018.081-.038.162-.059.243-.021.08-.042.16-.066.239v.001c-.022.079-.045.159-.07.237v.001c-.025.079-.051.157-.077.235s-.055.156-.083.233-.058.154-.088.23v.001c-.03.076-.061.152-.093.227s-.065.151-.099.225-.069.148-.104.222-.072.146-.109.219c-.037.072-.075.145-.114.216-.04.071-.08.143-.12.213-.041.07-.083.141-.125.21s-.085.138-.129.206v.001c-.043.067-.088.136-.133.202v.001c-.046.066-.092.133-.139.199-.048.067-.096.132-.144.197-.048.064-.097.128-.148.192v.001c-.05.063-.101.126-.152.188-.052.063-.104.124-.158.185v.001c-.052.06-.106.121-.16.181s-.11.119-.166.177c-.055.059-.112.117-.169.174s-.115.113-.174.169v.001c-.058.056-.118.11-.177.165-.06.055-.12.109-.182.161-.06.053-.123.106-.184.157-.063.051-.126.102-.19.152v.001c-.063.05-.128.098-.192.147-.065.049-.131.097-.197.144s-.132.093-.2.139c-.066.045-.135.089-.203.133s-.137.087-.206.129v.001c-.07.042-.14.083-.21.124s-.142.08-.213.119-.143.078-.216.115v.001c-.073.037-.146.073-.219.108-.074.036-.148.07-.222.104s-.149.067-.225.099-.152.063-.228.093v.001c-.076.03-.152.059-.23.088-.077.028-.155.055-.233.082v.001c-.078.026-.156.052-.235.076s-.159.049-.239.071c-.079.023-.159.044-.24.066-.08.02-.161.041-.242.059-.081.019-.163.036-.245.054-.082.017-.164.032-.247.047v.001c-.082.014-.165.028-.248.041-.084.013-.167.024-.251.035s-.169.02-.253.029c-.085.009-.169.017-.255.023v.001c-.085.006-.171.011-.256.015-.086.005-.172.008-.258.01-.087.003-.173.004-.26.004h-307.239c-.087 0-.174-.001-.26-.004-.086-.002-.172-.005-.258-.01-.086-.004-.171-.009-.256-.015v-.001c-.085-.006-.171-.014-.255-.023-.085-.009-.169-.018-.253-.029s-.168-.022-.251-.035-.166-.027-.249-.041v-.001c-.082-.015-.165-.03-.247-.047-.081-.018-.163-.035-.244-.054s-.162-.039-.243-.059c-.08-.021-.161-.042-.24-.066-.08-.022-.159-.047-.238-.071s-.158-.05-.235-.076v-.001c-.078-.027-.156-.054-.234-.082-.076-.029-.154-.058-.23-.088v-.001c-.076-.03-.152-.061-.227-.093-.076-.032-.151-.065-.225-.099-.075-.034-.149-.068-.222-.104-.074-.035-.147-.071-.219-.108v-.001c-.073-.037-.145-.076-.217-.115-.071-.039-.142-.078-.212-.119-.071-.041-.141-.082-.21-.124v-.001c-.07-.042-.139-.085-.206-.129-.069-.044-.137-.088-.204-.133-.067-.046-.134-.092-.199-.139-.067-.048-.132-.095-.197-.144s-.128-.097-.192-.147v-.001c-.064-.05-.127-.101-.189-.152-.063-.051-.125-.104-.186-.157-.061-.052-.122-.106-.181-.161-.06-.055-.119-.109-.178-.165v-.001c-.058-.056-.116-.112-.174-.169-.056-.057-.113-.114-.169-.174-.056-.058-.111-.117-.165-.177-.055-.06-.108-.121-.161-.181v-.001c-.054-.061-.106-.122-.157-.185-.052-.062-.103-.125-.152-.188v-.001c-.051-.064-.1-.127-.148-.192-.049-.065-.097-.13-.144-.197-.047-.066-.093-.133-.139-.199v-.001c-.045-.066-.09-.135-.134-.202v-.001c-.044-.068-.087-.137-.129-.206s-.084-.14-.124-.21c-.041-.07-.081-.142-.12-.213-.038-.071-.077-.144-.114-.216-.037-.073-.074-.145-.109-.219-.036-.074-.071-.148-.105-.222-.033-.074-.066-.15-.098-.225s-.063-.151-.093-.227v-.001c-.031-.076-.06-.153-.089-.23-.028-.077-.055-.155-.082-.233s-.053-.156-.077-.235v-.001c-.025-.078-.048-.158-.071-.237v-.001c-.023-.079-.045-.159-.066-.239-.02-.081-.04-.162-.059-.243s-.037-.163-.054-.244v-.001c-.017-.082-.032-.164-.047-.246v-.001c-.015-.082-.029-.165-.042-.248s-.024-.167-.035-.251-.02-.168-.029-.253-.017-.17-.023-.255c-.007-.085-.012-.17-.016-.256-.005-.086-.008-.172-.011-.258-.002-.087-.003-.173-.003-.26v-81.719c0-.087.001-.173.003-.26.003-.086.006-.172.011-.258.004-.085.009-.171.016-.256.006-.085.014-.17.023-.254v-.001c.009-.084.018-.168.029-.252s.022-.168.035-.251c.013-.084.027-.166.042-.249.014-.083.03-.165.047-.247s.035-.163.054-.244v-.001c.019-.081.039-.162.059-.242v-.001c.021-.08.043-.16.066-.239v-.001c.023-.079.046-.159.071-.238.024-.079.05-.157.077-.235s.054-.156.082-.233c.029-.077.058-.154.089-.23.03-.077.061-.152.093-.228s.065-.15.098-.224v-.001c.034-.074.069-.148.105-.222.035-.073.072-.146.109-.219s.075-.144.114-.216c.039-.071.079-.142.12-.213.04-.07.082-.14.124-.21.042-.069.085-.138.129-.206s.089-.136.134-.203v-.001c.046-.067.092-.133.139-.199s.095-.132.144-.196v-.001c.048-.064.097-.129.148-.192.049-.064.1-.127.152-.189v-.001c.052-.062.103-.123.157-.184v-.001c.053-.061.106-.121.161-.181.054-.06.109-.119.165-.177.056-.059.112-.117.169-.174.058-.057.116-.114.174-.169v-.001c.059-.055.118-.11.178-.165.059-.054.12-.108.181-.161s.123-.105.186-.157c.062-.051.125-.102.189-.152.063-.05.127-.1.192-.148.065-.049.13-.096.197-.143v-.001c.066-.047.132-.093.199-.138v-.001c.067-.045.135-.09.204-.133.067-.044.137-.087.206-.129v-.001c.069-.042.139-.083.21-.124.07-.041.141-.08.212-.12.072-.039.144-.077.217-.114.072-.037.145-.073.219-.109.073-.036.147-.07.222-.104.074-.034.149-.067.225-.099.075-.032.151-.063.227-.093v-.001c.076-.03.154-.059.23-.087.077-.029.156-.056.234-.083.077-.027.156-.052.235-.077s.158-.048.238-.071c.079-.023.16-.044.24-.065v-.001c.081-.02.162-.04.243-.059s.163-.037.244-.053v-.001c.082-.016.165-.032.247-.047.083-.015.166-.029.249-.041v-.001c.083-.013.167-.024.251-.035s.168-.021.253-.029c.084-.009.169-.017.255-.023.085-.007.17-.012.256-.016s.172-.008.258-.01.172-.003.26-.003" fill="#f8f100"/><path d="m51.702 103.562v-35.949h-17.366l29.446-50.305 29.445 50.305h-17.365v35.949zm247.559-31.529.026-17.367h-7.882c-.295 7.679-1.519 14.562-3.661 17.367zm4.395 6.137h-19.43v5.856h-6.24v-11.993h3.134c2.873-2.887 3.983-19.22 3.857-23.206h21.394v23.206h3.525v11.993h-6.24zm-34.786-14.967c8.246-2.421 6.71-17.061-11.144-14.782-2.543.325-5.396 1.657-7.584 2.991l3.505 5.505c7.595-4.556 13.168-1.99 13.084.91-.117 3.963-5.029 3.14-7.099 3.278v5.155c2.792 0 7.931-.428 7.922 3.561-.011 5.457-11.431 4.241-14.717-.259l-4.433 5.017c7.07 6.583 26.83 7.226 26.507-4.555-.101-3.697-3.662-6.469-6.041-6.821m-32.4-2.653c-.088-3.581-2.013-6.701-6.021-6.701-4.274 0-6.27 2.637-6.234 6.701zm1.791 8.738 5.448 3.463c-2.202 3.918-7.696 6.545-12.75 6.516-19.835-.117-18.065-31.299-.779-31.299 9.034 0 15.433 8.385 13.394 17.612h-19.368c.058 2.349 1.121 4.503 2.325 5.804 3.298 3.565 9.878 1.599 11.73-2.096m-43.672 3.311c2.094 0 6.814.113 8.404-.281 3.194-.792 3.626-4.975 1.378-6.537-1.841-1.281-6.933-.958-9.782-.958zm-13.048-23.772h13.048v10.365h6.74c6.206 0 10.433 2.677 10.433 9.518 0 5.577-3.996 9.519-10.433 9.519h-13.649v-23.178h-6.139zm-24.215 15.406c0 12.381 13.559 12.048 13.559.029 0-12.168-13.559-12.209-13.559-.029m19.587-28.415c-.151 2.423-.813 5.522-2.02 6.529-1.375 1.149-1.345.767-3.786.803-4.397.064-10.067-.909-13.227 3.519-1.224 1.716-1.645 3.936-1.674 6.807 2.884-5.957 21.648-7.367 21.648 10.327 0 18.771-21.581 19.75-26.235 6.769-1.959-5.461-2.395-13.382-1.49-19.173 1.416-9.07 6.028-14.432 16.032-14.432h7.139c.916 0 3.335-.685 3.613-1.149m-60.069 27.376c0-8.069 5.112-15.226 13.61-15.226 18.358 0 18.024 31.299.051 31.299-4.978 0-9.7-2.601-11.947-7.315-1.137-2.396-1.714-5.312-1.714-8.758m6.95.423c0 10.125 7.848 11.649 11.439 7.061 3.37-4.305 2.76-16.572-4.744-16.572-4.637 0-6.695 4.602-6.695 9.511m-100.829-51.048h307.239c5.552 0 10.095 4.543 10.095 10.095v81.719c0 5.553-4.543 10.096-10.095 10.096h-307.239c-5.553 0-10.096-4.543-10.096-10.096v-81.719c0-5.552 4.543-10.095 10.096-10.095m-.44-2.861h308.119c6.94 0 12.619 5.679 12.619 12.62v82.392c0 6.941-5.679 12.619-12.619 12.619h-308.119c-6.941 0-12.62-5.678-12.62-12.619v-82.392c0-6.941 5.679-12.62 12.62-12.62"/></svg>