<svg clip-rule="evenodd" fill-rule="evenodd" stroke-miterlimit="22.926" viewBox="0 0 354 128" xmlns="http://www.w3.org/2000/svg"><path d="m21.929 6.506h309.311c8.483 0 15.423 6.94 15.423 15.423v83.189c0 8.483-6.94 15.424-15.423 15.424h-309.311c-8.483 0-15.423-6.941-15.423-15.424v-83.189c0-8.483 6.94-15.423 15.423-15.423z" fill="#fff" stroke="#000" stroke-width=".57"/><path d="m39.311 63.617c0 10.125 7.848 11.649 11.438 7.062 3.372-4.307 2.76-16.572-4.744-16.572-4.636 0-6.694 4.602-6.694 9.51m-6.95-.423c0-8.069 5.113-15.226 13.61-15.226 18.358 0 18.024 31.299.051 31.299-4.978 0-9.7-2.601-11.947-7.315-1.137-2.396-1.714-5.313-1.714-8.758m60.07-27.376c-.151 2.423-.814 5.522-2.021 6.529-1.375 1.149-1.345.767-3.786.803-4.396.064-10.066-.909-13.227 3.519-1.224 1.716-1.645 3.936-1.674 6.807 2.884-5.957 21.648-7.367 21.648 10.327 0 18.77-21.581 19.751-26.235 6.769-1.958-5.462-2.394-13.382-1.49-19.173 1.416-9.071 6.027-14.432 16.032-14.432h7.14c.915 0 3.334-.685 3.613-1.149m-19.588 28.415c0 12.38 13.559 12.047 13.559.03 0-12.169-13.559-12.21-13.559-.03m24.216-15.406h13.048v10.366h6.74c6.206 0 10.432 2.676 10.432 9.518 0 5.576-3.996 9.518-10.432 9.518h-13.65v-23.177h-6.138zm13.048 23.772c2.093 0 6.813.114 8.403-.281 3.194-.792 3.626-4.975 1.379-6.537-1.842-1.28-6.934-.959-9.782-.959zm43.672-3.311 5.448 3.464c-2.203 3.918-7.697 6.545-12.751 6.515-19.835-.117-18.064-31.299-.779-31.299 9.035 0 15.432 8.384 13.393 17.612h-19.366c.058 2.349 1.119 4.503 2.323 5.805 3.299 3.564 9.878 1.598 11.732-2.097m-1.791-8.737c-.089-3.582-2.013-6.703-6.023-6.703-4.272 0-6.269 2.638-6.232 6.703zm32.398 2.652c8.246-2.421 6.711-17.062-11.143-14.782-2.543.325-5.396 1.657-7.584 2.99l3.505 5.506c7.594-4.556 13.168-1.99 13.084.909-.118 3.964-5.03 3.141-7.099 3.279v5.156c2.792 0 7.931-.429 7.922 3.56-.011 5.457-11.431 4.24-14.717-.259l-4.433 5.017c7.07 6.582 26.829 7.226 26.507-4.556-.1-3.697-3.662-6.469-6.042-6.82m34.787 14.968h-19.43v5.855h-6.24v-11.994h3.134c2.872-2.886 3.983-19.219 3.857-23.205h21.394v23.205h3.525v11.994h-6.24zm-4.395-6.139.026-17.366h-7.883c-.295 7.679-1.518 14.562-3.66 17.366zm-191.813-59.463h307.24c.085 0 .172.001.259.003.086.003.172.005.258.01.085.005.171.01.256.016.085.007.17.015.255.023.084.009.169.018.253.029v.001c.084.01.167.022.251.034v.001c.083.013.166.026.248.041.083.015.165.031.247.048s.164.034.245.053.162.039.242.06c.081.021.161.042.24.065.081.023.16.047.239.071v.001c.079.025.157.05.235.076.078.027.156.055.233.083.078.028.154.058.23.088.076.031.152.061.228.093v.001c.076.031.151.064.225.098s.149.069.222.104c.073.036.146.072.219.109v.001c.073.037.145.075.216.114.072.039.143.078.213.119.071.041.14.082.21.124v.001c.07.042.138.085.206.129.069.044.137.088.203.134.068.046.134.091.201.139.065.047.131.095.196.143.064.049.129.098.192.148.064.05.127.101.19.152v.001c.061.051.124.103.184.156.062.054.122.107.182.162.059.054.119.109.178.165.058.056.116.112.173.169.057.058.114.115.169.174.056.058.112.117.166.178.054.06.108.12.161.181s.105.123.157.185c.052.063.102.126.152.189.051.064.1.128.149.193.047.065.095.13.143.196.047.066.093.133.139.2.045.067.09.135.134.203.044.069.086.137.128.207.042.069.084.139.125.209v.001c.041.07.081.141.12.212v.001c.039.071.077.143.114.215.037.073.074.146.109.22.035.073.071.147.104.221v.001c.034.074.067.149.099.224.032.076.063.152.093.228.03.077.06.153.088.23.028.078.057.155.083.233s.052.157.077.236.048.158.071.238.044.159.065.24c.021.08.041.161.06.242v.001c.019.08.037.162.053.245.018.082.033.164.048.246v.001c.015.082.028.165.042.248v.001c.013.083.024.166.035.25s.021.169.03.253c.007.085.015.169.022.254s.012.171.017.257c.003.085.007.171.009.258.002.086.003.172.003.259v81.72c0 .087-.001.172-.003.259-.002.086-.006.172-.009.258-.005.086-.01.171-.017.256-.007.086-.015.17-.022.255-.009.085-.019.169-.03.253s-.022.168-.035.251-.027.166-.042.248v.001c-.015.082-.03.164-.048.246v.001c-.016.081-.034.163-.053.244s-.039.162-.06.243c-.021.08-.042.16-.065.239v.001c-.023.08-.046.16-.071.238v.001c-.025.078-.051.156-.077.234s-.055.156-.083.234c-.028.077-.058.153-.088.229v.001c-.03.076-.061.152-.093.228-.032.075-.065.15-.099.224-.033.074-.069.149-.104.222v.001c-.035.073-.072.145-.109.219-.037.072-.075.144-.114.215-.039.072-.079.143-.12.213-.041.071-.083.141-.125.21-.042.07-.084.138-.128.206v.001c-.044.068-.089.136-.134.202v.001c-.046.067-.092.133-.139.2-.048.066-.096.131-.143.196-.049.064-.098.129-.149.192v.001c-.05.064-.1.126-.152.189-.052.062-.104.124-.157.184v.001c-.053.061-.107.121-.161.181s-.11.119-.166.178c-.055.058-.112.116-.169.173s-.115.114-.173.169v.001c-.059.056-.119.111-.178.165-.06.055-.12.109-.182.162-.06.052-.123.105-.184.156v.001c-.063.051-.126.101-.19.151v.001c-.063.05-.128.099-.192.148-.065.048-.131.096-.196.143-.067.047-.133.093-.201.139-.066.046-.134.09-.203.134-.068.044-.136.087-.206.129v.001c-.07.042-.139.083-.21.124-.07.041-.141.08-.213.119-.071.039-.143.077-.216.114v.001c-.073.037-.146.073-.219.108-.073.036-.148.071-.222.105-.074.033-.149.066-.225.098-.076.033-.152.063-.228.093v.001c-.076.03-.152.06-.23.088-.077.028-.155.056-.233.082v.001c-.078.026-.156.052-.235.076-.079.025-.158.049-.239.072-.079.022-.159.043-.24.065-.08.02-.161.041-.242.06-.081.018-.163.036-.245.053s-.164.032-.247.047v.001c-.082.015-.165.028-.248.041-.084.013-.167.025-.251.035-.084.011-.169.021-.253.03-.085.008-.169.016-.255.022v.001c-.085.006-.171.012-.256.016-.086.005-.172.007-.258.009-.087.003-.173.004-.259.004h-307.24c-.087 0-.174-.001-.26-.004-.086-.002-.172-.004-.258-.009-.086-.004-.171-.01-.256-.016v-.001c-.085-.006-.171-.014-.255-.022-.084-.009-.169-.019-.252-.03-.084-.01-.168-.022-.251-.035-.084-.013-.167-.026-.249-.041v-.001c-.083-.015-.165-.03-.248-.047-.081-.017-.163-.035-.244-.053-.081-.02-.162-.04-.243-.06-.08-.021-.16-.042-.24-.065s-.159-.047-.238-.072c-.078-.024-.158-.05-.235-.076v-.001c-.078-.026-.156-.054-.234-.082-.076-.028-.153-.058-.23-.088v-.001c-.076-.03-.152-.06-.227-.093-.076-.032-.151-.065-.225-.098-.075-.034-.149-.069-.222-.105-.074-.035-.147-.071-.219-.108v-.001c-.073-.037-.145-.075-.216-.114-.072-.039-.143-.078-.213-.119-.071-.041-.14-.082-.21-.124v-.001c-.07-.042-.138-.085-.206-.129-.069-.044-.137-.088-.204-.134s-.134-.092-.199-.139c-.067-.048-.132-.095-.197-.143-.065-.049-.128-.098-.192-.148v-.001c-.064-.05-.127-.1-.189-.151v-.001c-.063-.051-.125-.104-.186-.156-.061-.053-.121-.107-.181-.162-.06-.054-.119-.109-.178-.165v-.001c-.058-.055-.116-.112-.174-.169-.056-.057-.113-.114-.169-.173s-.111-.118-.165-.178c-.055-.06-.108-.12-.161-.181v-.001c-.053-.06-.106-.122-.157-.184-.052-.063-.102-.125-.152-.189v-.001c-.051-.063-.1-.127-.148-.192-.049-.065-.097-.13-.144-.196-.047-.067-.093-.133-.138-.2v-.001c-.046-.066-.091-.134-.135-.202v-.001c-.044-.068-.087-.136-.129-.206-.042-.069-.084-.139-.124-.21-.041-.07-.081-.141-.12-.213-.038-.071-.077-.143-.114-.215-.037-.074-.074-.146-.109-.219v-.001c-.036-.073-.071-.148-.104-.222-.034-.074-.067-.149-.099-.224-.032-.076-.063-.152-.093-.228v-.001c-.031-.076-.06-.152-.089-.229-.028-.078-.055-.156-.082-.234s-.052-.156-.077-.234v-.001c-.025-.078-.048-.158-.071-.238v-.001c-.023-.079-.045-.159-.066-.239-.02-.081-.04-.162-.059-.243s-.037-.163-.054-.244v-.001c-.016-.082-.032-.164-.047-.246v-.001c-.015-.082-.029-.165-.042-.248s-.024-.167-.035-.251-.02-.168-.029-.253-.017-.17-.023-.255c-.007-.085-.012-.17-.016-.256-.005-.086-.008-.172-.01-.258-.002-.087-.004-.172-.004-.259v-81.72c0-.087.002-.173.004-.259.002-.087.005-.173.01-.258.004-.086.009-.172.016-.257.006-.085.014-.169.023-.254.009-.084.018-.169.029-.253s.022-.167.035-.25v-.001c.013-.083.027-.166.042-.248v-.001c.014-.082.031-.164.047-.246.017-.083.035-.164.054-.245v-.001c.019-.081.039-.162.059-.242.021-.081.043-.16.066-.24s.046-.159.071-.238.05-.158.077-.236.054-.155.082-.233c.029-.077.058-.153.089-.23.03-.076.061-.152.093-.228.032-.075.065-.15.099-.224v-.001c.033-.074.068-.148.104-.221.035-.074.072-.147.109-.22.037-.072.075-.144.114-.215v-.001c.039-.071.079-.142.12-.212v-.001c.04-.07.082-.14.124-.209.042-.07.085-.138.129-.207.044-.068.089-.136.135-.203.045-.067.091-.134.138-.2s.095-.131.144-.196c.048-.065.097-.129.148-.193.05-.063.1-.126.152-.189.052-.062.104-.124.157-.185s.106-.121.161-.181c.054-.061.109-.12.165-.178.056-.059.112-.116.169-.174.058-.057.116-.113.174-.169.059-.056.118-.111.178-.165.06-.055.12-.108.181-.162.061-.053.123-.105.186-.156v-.001c.062-.051.125-.102.189-.152.063-.05.128-.099.192-.148.065-.048.13-.096.197-.143.066-.048.132-.093.199-.139.067-.045.135-.09.204-.134.068-.044.137-.087.206-.129v-.001c.07-.042.139-.083.21-.124.07-.041.141-.08.213-.119.071-.039.143-.077.216-.114v-.001c.072-.037.145-.073.219-.109.073-.035.147-.07.222-.104.074-.034.149-.066.225-.098v-.001c.075-.032.151-.062.227-.093.077-.03.154-.06.23-.088.078-.028.156-.056.234-.083.077-.026.157-.051.235-.076v-.001c.079-.024.158-.048.238-.071s.16-.044.24-.065c.081-.021.162-.041.243-.06s.163-.036.244-.053c.083-.017.165-.033.248-.048.082-.015.165-.028.249-.041v-.001c.083-.012.167-.024.251-.034v-.001c.083-.011.168-.02.252-.029.084-.008.169-.016.255-.023.085-.006.17-.011.256-.016.086-.004.172-.007.258-.01.086-.002.172-.003.26-.003m215.295 38.875h35.95v-17.366l50.304 29.446-50.304 29.446v-17.367h-35.95z" fill="#f8f100"/><path d="m22.524 9.708h308.119c6.941 0 12.619 5.679 12.619 12.62v82.392c0 6.941-5.678 12.619-12.619 12.619h-308.119c-6.941 0-12.62-5.678-12.62-12.619v-82.392c0-6.941 5.679-12.62 12.62-12.62m.44 2.861h307.24c5.551 0 10.094 4.543 10.094 10.095v81.719c0 5.553-4.543 10.096-10.094 10.096h-307.24c-5.553 0-10.096-4.543-10.096-10.096v-81.719c0-5.552 4.543-10.095 10.096-10.095m16.346 51.048c0 10.125 7.848 11.649 11.439 7.061 3.371-4.305 2.759-16.572-4.745-16.572-4.636 0-6.694 4.602-6.694 9.511m-6.95-.423c0-8.069 5.113-15.226 13.61-15.226 18.358 0 18.024 31.299.051 31.299-4.978 0-9.7-2.601-11.947-7.315-1.137-2.396-1.714-5.312-1.714-8.758m60.07-27.376c-.151 2.423-.814 5.522-2.021 6.529-1.375 1.149-1.345.767-3.786.803-4.396.064-10.066-.909-13.226 3.519-1.225 1.716-1.646 3.936-1.675 6.807 2.884-5.957 21.648-7.367 21.648 10.327 0 18.771-21.581 19.75-26.235 6.769-1.958-5.461-2.394-13.382-1.49-19.173 1.416-9.07 6.027-14.432 16.032-14.432h7.14c.915 0 3.334-.685 3.613-1.149m-19.588 28.415c0 12.381 13.559 12.048 13.559.029 0-12.168-13.559-12.209-13.559-.029m24.216-15.406h13.048v10.365h6.74c6.206 0 10.432 2.677 10.432 9.518 0 5.577-3.996 9.519-10.432 9.519h-13.65v-23.178h-6.138zm13.048 23.772c2.093 0 6.813.113 8.403-.281 3.194-.792 3.626-4.975 1.379-6.537-1.842-1.281-6.934-.958-9.782-.958zm43.672-3.311 5.448 3.463c-2.203 3.918-7.697 6.545-12.751 6.516-19.835-.117-18.064-31.299-.779-31.299 9.035 0 15.432 8.385 13.393 17.612h-19.366c.058 2.349 1.119 4.503 2.323 5.804 3.299 3.565 9.878 1.599 11.732-2.096m-1.791-8.738c-.089-3.581-2.013-6.701-6.023-6.701-4.272 0-6.269 2.637-6.232 6.701zm32.398 2.653c8.246-2.421 6.711-17.061-11.143-14.782-2.543.325-5.396 1.657-7.584 2.991l3.505 5.505c7.594-4.556 13.169-1.99 13.084.91-.118 3.963-5.03 3.14-7.099 3.278v5.155c2.792 0 7.931-.428 7.922 3.561-.011 5.457-11.431 4.241-14.717-.259l-4.433 5.017c7.07 6.583 26.83 7.226 26.507-4.555-.1-3.697-3.662-6.469-6.042-6.821m34.787 14.967h-19.43v5.856h-6.239v-11.993h3.133c2.872-2.887 3.983-19.22 3.857-23.206h21.394v23.206h3.525v11.993h-6.24zm-4.395-6.137.026-17.367h-7.883c-.294 7.679-1.518 14.562-3.66 17.367zm23.482-20.589h35.951v-17.366l50.303 29.445-50.303 29.446v-17.366h-35.951z"/></svg>