<svg clip-rule="evenodd" fill-rule="evenodd" stroke-miterlimit="22.926" viewBox="0 0 297 391" xmlns="http://www.w3.org/2000/svg"><path d="m24.097 6.506h248.281c9.675 0 17.591 7.917 17.591 17.592v342.286c0 9.676-7.916 17.592-17.591 17.592h-248.281c-9.675 0-17.591-7.916-17.591-17.592v-342.286c0-9.675 7.916-17.592 17.591-17.592z" fill="#fff" stroke="#000" stroke-width=".57"/><path d="m164.037 180.286-50.013 50.013c-14.599 14.599-16.596 17.368-17.002 45.091v100.487h-73.077c-5.257 0-9.56-4.303-9.56-9.561v-342.15c0-5.259 4.301-9.562 9.56-9.562h131.313v100.639c0 5.643 4.647 10.262 10.326 10.262h19.946c5.678 0 10.325-4.618 10.325-10.262v-100.639h76.674c5.259 0 9.561 4.303 9.561 9.562v342.15c0 5.258-4.303 9.561-9.561 9.561h-76.674v-100.638c0-5.644-4.647-10.263-10.325-10.263h-19.946c-5.679 0-10.326 4.619-10.326 10.263v100.638h-33.942v-108.338c0-10.458 3.118-13.371 7.908-18.154l51.993-51.919 14.558 14.557 16.829-63.125-63.125 16.829zm109.271-168.315h-250.142c-6.31 0-11.472 5.163-11.472 11.472v343.594c0 6.311 5.162 11.473 11.472 11.473h250.142c6.31 0 11.473-5.162 11.473-11.473v-343.594c0-6.309-5.163-11.472-11.473-11.472"/><path d="m85.66 54.855c25.538 0 46.24 20.702 46.24 46.24s-20.702 46.24-46.24 46.24-46.241-20.702-46.241-46.24 20.703-46.24 46.241-46.24m-61.714 321.021c-5.258 0-9.561-4.302-9.561-9.56v-342.15c0-5.259 4.302-9.562 9.561-9.562h131.312v100.639c0 5.642 4.648 10.261 10.326 10.261h19.947c5.677 0 10.325-4.618 10.325-10.261v-100.639h76.674c5.258 0 9.56 4.303 9.56 9.562v342.15c0 5.258-4.303 9.56-9.56 9.56h-76.674v-100.637c0-5.645-4.648-10.263-10.325-10.263h-19.947c-5.678 0-10.326 4.618-10.326 10.263v100.637h-33.941v-108.337c0-10.458 3.118-13.371 7.907-18.155l51.993-51.919 14.559 14.558 16.829-63.125-63.125 16.829 14.557 14.559-50.012 50.012c-14.599 14.6-16.596 17.369-17.003 45.091v100.487z" fill="#f8f100"/><path d="m53.456 91.48h64.353c.905 0 1.646.74 1.646 1.646v15.917c0 .905-.741 1.646-1.646 1.646h-64.353c-.906 0-1.646-.741-1.646-1.646v-15.917c0-.906.74-1.646 1.646-1.646m32.204-36.625c25.537 0 46.24 20.702 46.24 46.24s-20.703 46.24-46.24 46.24c-25.538 0-46.241-20.702-46.241-46.24s20.703-46.24 46.241-46.24" fill="#d72717"/></svg>