<svg clip-rule="evenodd" fill-rule="evenodd" stroke-miterlimit="22.926" viewBox="0 0 297 391" xmlns="http://www.w3.org/2000/svg"><path d="m24.097 6.506h248.281c9.675 0 17.591 7.917 17.591 17.592v342.286c0 9.676-7.916 17.592-17.591 17.592h-248.281c-9.675 0-17.591-7.916-17.591-17.592v-342.286c0-9.675 7.916-17.592 17.591-17.592z" fill="#fff" stroke="#000" stroke-width=".57"/><path d="m156.02 180.441 64.927 64.927c3.109 3.109 5.801 7.446 7.558 12.031 2.506 6.532 2.164 11.238 2.264 17.99v100.488h41.761c5.259 0 9.56-4.303 9.56-9.561v-342.15c0-5.259-4.301-9.562-9.56-9.562h-103.993v100.639c0 5.643-4.648 10.261-10.327 10.261h-19.945c-5.679 0-10.326-4.618-10.326-10.261v-100.639h-49.79v191.416h20.589l-32.737 56.537-32.736-56.537h20.588v-191.416h-29.907c-5.259 0-9.561 4.303-9.561 9.562v342.15c0 5.258 4.302 9.561 9.561 9.561h103.993v-100.638c0-5.645 4.647-10.263 10.326-10.263h19.945c5.679 0 10.327 4.618 10.327 10.263v100.638h37.936v-92.563c0-19.328.092-17.969-13.571-31.633l-54.062-54.06-14.557 14.557-16.83-63.125 63.126 16.829zm-132.853-168.471h250.142c6.31 0 11.473 5.163 11.473 11.473v343.594c0 6.31-5.163 11.472-11.473 11.472h-250.142c-6.31 0-11.473-5.162-11.473-11.472v-343.594c0-6.31 5.163-11.473 11.473-11.473"/><path d="m226.668 53.752c26.295 0 47.611 21.316 47.611 47.611s-21.316 47.612-47.611 47.612-47.611-21.317-47.611-47.612 21.316-47.611 47.611-47.611m-202.723-39.147h29.908v191.416h-20.588l32.736 56.537 32.736-56.537h-20.589v-191.416h49.791v100.638c0 5.644 4.647 10.262 10.326 10.262h19.945c5.679 0 10.326-4.618 10.326-10.262v-100.638h103.993c5.259 0 9.561 4.302 9.561 9.561v342.15c0 5.258-4.302 9.561-9.561 9.561h-41.76v-100.487c-.1-6.752.242-11.458-2.264-17.991-1.758-4.584-4.449-8.921-7.559-12.031l-64.926-64.927 14.558-14.558-63.126-16.829 16.83 63.125 14.558-14.558 54.061 54.061c13.663 13.664 13.572 12.304 13.572 31.633v92.562h-37.937v-100.638c0-5.644-4.647-10.262-10.326-10.262h-19.945c-5.679 0-10.326 4.618-10.326 10.262v100.638h-103.994c-5.258 0-9.56-4.303-9.56-9.561v-342.15c0-5.259 4.302-9.561 9.56-9.561" fill="#f8f100"/><path d="m226.668 53.752c26.295 0 47.611 21.316 47.611 47.611s-21.316 47.612-47.611 47.612-47.611-21.317-47.611-47.612 21.316-47.611 47.611-47.611m0 8.881c21.39 0 38.73 17.341 38.73 38.73 0 21.391-17.34 38.732-38.73 38.732s-38.731-17.341-38.731-38.732c0-21.389 17.341-38.73 38.731-38.73" fill="#d72717"/></svg>