<svg clip-rule="evenodd" fill-rule="evenodd" stroke-miterlimit="22.926" viewBox="0 0 297 297" xmlns="http://www.w3.org/2000/svg"><path d="m25.091 6.506h246.293c10.223 0 18.585 8.363 18.585 18.585v246.296c0 10.222-8.362 18.585-18.585 18.585h-246.293c-10.222 0-18.585-8.363-18.585-18.585v-246.296c0-10.222 8.363-18.585 18.585-18.585z" fill="#fff" stroke="#000" stroke-width=".57"/><path d="m25.16 14.474h246.156c5.878 0 10.687 4.808 10.687 10.686v246.157c0 5.878-4.809 10.687-10.687 10.687h-246.156c-5.878 0-10.687-4.809-10.687-10.687v-246.157c0-5.878 4.809-10.686 10.687-10.686" fill="#0099e2"/><g fill="#fff" fill-rule="nonzero"><path d="m51.779 176.968 23.906-2.9c.762 6.094 2.812 10.752 6.152 13.975 3.34 3.222 7.383 4.834 12.129 4.834 5.098 0 9.39-1.934 12.876-5.801s5.23-9.082 5.23-15.645c0-6.211-1.67-11.132-5.01-14.765s-7.412-5.45-12.217-5.45c-3.164 0-6.943.616-11.338 1.846l2.725-20.127c6.679.176 11.777-1.274 15.293-4.35 3.515-3.077 5.273-7.163 5.273-12.261 0-4.336-1.289-7.793-3.867-10.371s-6.006-3.867-10.283-3.867c-4.219 0-7.822 1.464-10.811 4.394-2.988 2.93-4.804 7.207-5.449 12.832l-22.764-3.867c1.582-7.793 3.97-14.019 7.163-18.677 3.194-4.658 7.647-8.32 13.36-10.986s12.114-3.999 19.204-3.999c12.129 0 21.855 3.867 29.18 11.601 6.035 6.329 9.052 13.477 9.052 21.446 0 11.308-6.181 20.332-18.545 27.07 7.383 1.582 13.287 5.127 17.71 10.635 4.424 5.508 6.636 12.158 6.636 19.951 0 11.309-4.131 20.947-12.392 28.916-8.262 7.969-18.545 11.953-30.85 11.953-11.66 0-21.328-3.354-29.004-10.063s-12.129-15.484-13.359-26.324z"/><path d="m194.513 81.783c12.48 0 22.236 4.453 29.268 13.359 8.378 10.547 12.568 28.037 12.568 52.471 0 24.375-4.219 41.895-12.656 52.559-6.973 8.789-16.7 13.183-29.18 13.183-12.539 0-22.646-4.819-30.322-14.458s-11.514-26.821-11.514-51.548c0-24.258 4.219-41.718 12.656-52.383 6.973-8.789 16.7-13.183 29.18-13.183zm0 20.478c-2.988 0-5.654.953-7.998 2.857s-4.16 5.317-5.449 10.239c-1.699 6.387-2.549 17.139-2.549 32.256s.762 25.503 2.285 31.157c1.524 5.655 3.442 9.419 5.757 11.294 2.314 1.875 4.966 2.813 7.954 2.813s5.654-.952 7.998-2.857c2.344-1.904 4.16-5.317 5.449-10.239 1.699-6.328 2.549-17.051 2.549-32.168s-.762-25.503-2.285-31.157c-1.523-5.655-3.442-9.434-5.757-11.338-2.314-1.904-4.966-2.857-7.954-2.857z"/></g></svg>