<svg clip-rule="evenodd" fill-rule="evenodd" stroke-miterlimit="22.926" viewBox="0 0 297 297" xmlns="http://www.w3.org/2000/svg"><path d="m25.091 6.506h246.293c10.223 0 18.585 8.363 18.585 18.585v246.296c0 10.222-8.362 18.585-18.585 18.585h-246.293c-10.222 0-18.585-8.363-18.585-18.585v-246.296c0-10.222 8.363-18.585 18.585-18.585z" fill="#fff" stroke="#000" stroke-width=".57"/><path d="m25.16 14.474h246.156c5.878 0 10.687 4.808 10.687 10.686v246.157c0 5.878-4.809 10.687-10.687 10.687h-246.156c-5.878 0-10.687-4.809-10.687-10.687v-246.157c0-5.878 4.809-10.686 10.687-10.686" fill="#0099e2"/><g fill="#fff" fill-rule="nonzero"><path d="m115.851 211.158h-24.697v-93.076c-9.024 8.437-19.659 14.677-31.905 18.72v-22.412c6.446-2.109 13.448-6.108 21.006-11.997 7.559-5.888 12.744-12.759 15.557-20.61h20.039z"/><path d="m153.117 178.023 24.609-2.549c.703 5.567 2.783 9.976 6.24 13.228s7.442 4.878 11.953 4.878c5.157 0 9.522-2.095 13.096-6.284 3.574-4.19 5.361-10.503 5.361-18.941 0-7.91-1.772-13.843-5.317-17.798s-8.159-5.932-13.843-5.932c-7.09 0-13.447 3.134-19.072 9.404l-20.039-2.9 12.656-67.061h65.303v23.115h-46.582l-3.867 21.885c5.507-2.754 11.132-4.131 16.875-4.131 10.957 0 20.244 3.985 27.861 11.953 7.617 7.969 11.426 18.311 11.426 31.026 0 10.605-3.076 20.068-9.229 28.388-8.379 11.368-20.01 17.051-34.892 17.051-11.895 0-21.592-3.193-29.092-9.58s-11.983-14.971-13.447-25.752z"/></g></svg>