<svg clip-rule="evenodd" fill-rule="evenodd" stroke-miterlimit="22.926" viewBox="0 0 297 297" xmlns="http://www.w3.org/2000/svg"><path d="m25.091 6.506h246.293c10.223 0 18.585 8.363 18.585 18.585v246.296c0 10.222-8.362 18.585-18.585 18.585h-246.293c-10.222 0-18.585-8.363-18.585-18.585v-246.296c0-10.222 8.363-18.585 18.585-18.585z" fill="#fff" stroke="#000" stroke-width=".57"/><path d="m25.16 14.474h246.156c5.878 0 10.687 4.808 10.687 10.686v246.157c0 5.878-4.809 10.687-10.687 10.687h-246.156c-5.878 0-10.687-4.809-10.687-10.687v-246.157c0-5.878 4.809-10.686 10.687-10.686" fill="#0099e2"/><g fill="#fff" fill-rule="nonzero"><path d="m53.185 181.363 23.906-2.637c.586 4.864 2.11 8.467 4.57 10.811 2.461 2.344 5.713 3.515 9.756 3.515 5.098 0 9.434-2.343 13.008-7.031 3.574-4.687 5.859-14.414 6.856-29.18-6.211 7.208-13.975 10.811-23.291 10.811-10.137 0-18.882-3.911-26.236-11.733-7.353-7.823-11.03-18.003-11.03-30.542 0-13.067 3.882-23.599 11.645-31.597 7.764-7.998 17.652-11.997 29.664-11.997 13.066 0 23.789 5.054 32.168 15.161 8.378 10.107 12.568 26.733 12.568 49.878 0 23.555-4.365 40.547-13.096 50.977-8.73 10.429-20.097 15.644-34.101 15.644-10.079 0-18.223-2.681-24.434-8.042s-10.195-13.374-11.953-24.038zm55.898-53.965c0-7.969-1.831-14.15-5.493-18.545-3.662-4.394-7.895-6.592-12.7-6.592-4.57 0-8.364 1.802-11.382 5.406-3.017 3.603-4.526 9.507-4.526 17.71 0 8.32 1.64 14.428 4.922 18.325 3.281 3.896 7.382 5.845 12.304 5.845 4.746 0 8.745-1.875 11.997-5.625s4.878-9.258 4.878-16.524z"/><path d="m194.513 81.783c12.48 0 22.236 4.453 29.268 13.359 8.378 10.547 12.568 28.037 12.568 52.471 0 24.375-4.219 41.895-12.656 52.559-6.973 8.789-16.7 13.183-29.18 13.183-12.539 0-22.646-4.819-30.322-14.458s-11.514-26.821-11.514-51.548c0-24.258 4.219-41.718 12.656-52.383 6.973-8.789 16.7-13.183 29.18-13.183zm0 20.478c-2.988 0-5.654.953-7.998 2.857s-4.16 5.317-5.449 10.239c-1.699 6.387-2.549 17.139-2.549 32.256s.762 25.503 2.285 31.157c1.524 5.655 3.442 9.419 5.757 11.294 2.314 1.875 4.966 2.813 7.954 2.813s5.654-.952 7.998-2.857c2.344-1.904 4.16-5.317 5.449-10.239 1.699-6.328 2.549-17.051 2.549-32.168s-.762-25.503-2.285-31.157c-1.523-5.655-3.442-9.434-5.757-11.338-2.314-1.904-4.966-2.857-7.954-2.857z"/></g></svg>