<svg clip-rule="evenodd" fill-rule="evenodd" stroke-miterlimit="22.926" viewBox="0 0 297 297" xmlns="http://www.w3.org/2000/svg"><path d="m25.091 6.506h246.293c10.223 0 18.585 8.363 18.585 18.585v246.296c0 10.222-8.362 18.585-18.585 18.585h-246.293c-10.222 0-18.585-8.363-18.585-18.585v-246.296c0-10.222 8.363-18.585 18.585-18.585z" fill="#fff" stroke="#000" stroke-width=".57"/><path d="m25.16 14.474h246.156c5.878 0 10.687 4.808 10.687 10.686v246.157c0 5.878-4.809 10.687-10.687 10.687h-246.156c-5.878 0-10.687-4.809-10.687-10.687v-246.157c0-5.878 4.809-10.686 10.687-10.686" fill="#0099e2"/><g fill="#fff" fill-rule="nonzero"><path d="m81.656 189.042h-20.043v-65.837c-7.323 5.969-15.953 10.383-25.891 13.242v-15.853c5.23-1.492 10.912-4.32 17.047-8.486 6.134-4.165 10.342-9.025 12.624-14.578h16.263z"/><path d="m145.493 97.53c10.128 0 18.045 3.15 23.752 9.449 6.799 7.461 10.199 19.832 10.199 37.115 0 17.242-3.423 29.634-10.271 37.177-5.658 6.217-13.552 9.326-23.68 9.326-10.176 0-18.379-3.409-24.608-10.227s-9.344-18.972-9.344-36.462c0-17.159 3.424-29.51 10.271-37.053 5.659-6.217 13.552-9.325 23.681-9.325zm0 14.485c-2.425 0-4.589.674-6.491 2.021s-3.376 3.761-4.422 7.242c-1.379 4.518-2.069 12.123-2.069 22.816s.619 18.04 1.855 22.039c1.236 4 2.794 6.663 4.672 7.989s4.03 1.989 6.455 1.989 4.589-.673 6.491-2.02 3.376-3.761 4.422-7.243c1.379-4.476 2.068-12.061 2.068-22.754s-.618-18.039-1.854-22.039c-1.237-3.999-2.794-6.672-4.672-8.019s-4.03-2.021-6.455-2.021z"/><path d="m226.734 97.53c10.128 0 18.045 3.15 23.751 9.449 6.8 7.461 10.2 19.832 10.2 37.115 0 17.242-3.424 29.634-10.271 37.177-5.659 6.217-13.552 9.326-23.68 9.326-10.176 0-18.379-3.409-24.608-10.227s-9.344-18.972-9.344-36.462c0-17.159 3.424-29.51 10.271-37.053 5.659-6.217 13.552-9.325 23.681-9.325zm0 14.485c-2.425 0-4.589.674-6.491 2.021s-3.376 3.761-4.422 7.242c-1.379 4.518-2.069 12.123-2.069 22.816s.618 18.04 1.855 22.039c1.236 4 2.793 6.663 4.672 7.989 1.878 1.326 4.03 1.989 6.455 1.989s4.588-.673 6.49-2.02 3.376-3.761 4.423-7.243c1.379-4.476 2.068-12.061 2.068-22.754s-.618-18.039-1.854-22.039c-1.237-3.999-2.794-6.672-4.672-8.019-1.879-1.347-4.03-2.021-6.455-2.021z"/></g></svg>