<svg clip-rule="evenodd" fill-rule="evenodd" stroke-miterlimit="22.926" viewBox="0 0 297 297" xmlns="http://www.w3.org/2000/svg"><path d="m25.091 6.506h246.293c10.223 0 18.585 8.363 18.585 18.585v246.296c0 10.222-8.362 18.585-18.585 18.585h-246.293c-10.222 0-18.585-8.363-18.585-18.585v-246.296c0-10.222 8.363-18.585 18.585-18.585z" fill="#fff" stroke="#000" stroke-width=".57"/><path d="m25.16 14.474h246.156c5.878 0 10.687 4.808 10.687 10.686v246.157c0 5.878-4.809 10.687-10.687 10.687h-246.156c-5.878 0-10.687-4.809-10.687-10.687v-246.157c0-5.878 4.809-10.686 10.687-10.686" fill="#0099e2"/><g fill="#fff" fill-rule="nonzero"><path d="m73.839 141.636c-6.387-2.695-11.03-6.401-13.93-11.118-2.901-4.717-4.351-9.887-4.351-15.512 0-9.61 3.354-17.549 10.063-23.819 6.709-6.269 16.246-9.404 28.609-9.404 12.246 0 21.753 3.135 28.52 9.404 6.768 6.27 10.152 14.209 10.152 23.819 0 5.976-1.553 11.294-4.659 15.952-3.105 4.658-7.47 8.217-13.095 10.678 7.148 2.872 12.583 7.061 16.303 12.569 3.721 5.508 5.582 11.865 5.582 19.072 0 11.895-3.794 21.563-11.382 29.004s-17.681 11.162-30.279 11.162c-11.718 0-21.474-3.076-29.267-9.228-9.199-7.266-13.799-17.227-13.799-29.883 0-6.973 1.728-13.374 5.186-19.204 3.457-5.83 8.906-10.328 16.347-13.492zm5.098-24.873c0 4.922 1.391 8.76 4.175 11.514 2.783 2.754 6.489 4.131 11.118 4.131 4.687 0 8.437-1.392 11.25-4.175 2.812-2.783 4.219-6.636 4.219-11.558 0-4.628-1.392-8.334-4.175-11.118-2.783-2.783-6.46-4.174-11.031-4.174-4.746 0-8.525 1.406-11.337 4.218-2.813 2.813-4.219 6.533-4.219 11.162zm-2.285 55.196c0 6.797 1.743 12.099 5.229 15.908 3.487 3.808 7.837 5.713 13.052 5.713 5.098 0 9.316-1.831 12.656-5.493s5.01-8.951 5.01-15.865c0-6.035-1.699-10.883-5.098-14.546-3.398-3.662-7.705-5.493-12.92-5.493-6.035 0-10.532 2.08-13.491 6.241-2.959 4.16-4.438 8.671-4.438 13.535z"/><path d="m194.513 81.783c12.48 0 22.236 4.453 29.268 13.359 8.378 10.547 12.568 28.037 12.568 52.471 0 24.375-4.219 41.895-12.656 52.559-6.973 8.789-16.7 13.183-29.18 13.183-12.539 0-22.646-4.819-30.322-14.458s-11.514-26.821-11.514-51.548c0-24.258 4.219-41.718 12.656-52.383 6.973-8.789 16.7-13.183 29.18-13.183zm0 20.478c-2.988 0-5.654.953-7.998 2.857s-4.16 5.317-5.449 10.239c-1.699 6.387-2.549 17.139-2.549 32.256s.762 25.503 2.285 31.157c1.524 5.655 3.442 9.419 5.757 11.294 2.314 1.875 4.966 2.813 7.954 2.813s5.654-.952 7.998-2.857c2.344-1.904 4.16-5.317 5.449-10.239 1.699-6.328 2.549-17.051 2.549-32.168s-.762-25.503-2.285-31.157c-1.523-5.655-3.442-9.434-5.757-11.338-2.314-1.904-4.966-2.857-7.954-2.857z"/></g></svg>