<svg clip-rule="evenodd" fill-rule="evenodd" stroke-miterlimit="22.926" viewBox="0 0 297 297" xmlns="http://www.w3.org/2000/svg"><path d="m25.091 6.506h246.293c10.223 0 18.585 8.363 18.585 18.585v246.296c0 10.222-8.362 18.585-18.585 18.585h-246.293c-10.222 0-18.585-8.363-18.585-18.585v-246.296c0-10.222 8.363-18.585 18.585-18.585z" fill="#fff" stroke="#000" stroke-width=".57"/><path d="m25.16 14.474h246.156c5.878 0 10.687 4.808 10.687 10.686v246.157c0 5.878-4.809 10.687-10.687 10.687h-246.156c-5.878 0-10.687-4.809-10.687-10.687v-246.157c0-5.878 4.809-10.686 10.687-10.686" fill="#0099e2"/><g fill="#fff" fill-rule="nonzero"><path d="m136.329 113.863-23.906 2.637c-.586-4.922-2.109-8.555-4.57-10.899-2.461-2.343-5.654-3.515-9.58-3.515-5.215 0-9.624 2.343-13.228 7.031-3.603 4.687-5.874 14.443-6.811 29.267 6.152-7.265 13.799-10.898 22.939-10.898 10.313 0 19.146 3.926 26.499 11.777 7.354 7.852 11.03 17.989 11.03 30.411 0 13.183-3.867 23.759-11.601 31.728s-17.666 11.953-29.795 11.953c-13.008 0-23.701-5.054-32.08-15.161s-12.568-26.675-12.568-49.702c0-23.613 4.365-40.635 13.095-51.065 8.731-10.429 20.069-15.644 34.014-15.644 9.785 0 17.886 2.739 24.302 8.218 6.416 5.478 10.503 13.432 12.26 23.862zm-55.986 53.877c0 8.027 1.846 14.224 5.537 18.589 3.692 4.365 7.91 6.548 12.656 6.548 4.571 0 8.379-1.787 11.426-5.362 3.047-3.574 4.571-9.433 4.571-17.578 0-8.379-1.641-14.516-4.922-18.413-3.282-3.896-7.383-5.845-12.305-5.845-4.746 0-8.76 1.861-12.041 5.581-3.281 3.721-4.922 9.214-4.922 16.48z"/><path d="m194.513 81.783c12.48 0 22.236 4.453 29.268 13.359 8.378 10.547 12.568 28.037 12.568 52.471 0 24.375-4.219 41.895-12.656 52.559-6.973 8.789-16.7 13.183-29.18 13.183-12.539 0-22.646-4.819-30.322-14.458s-11.514-26.821-11.514-51.548c0-24.258 4.219-41.718 12.656-52.383 6.973-8.789 16.7-13.183 29.18-13.183zm0 20.478c-2.988 0-5.654.953-7.998 2.857s-4.16 5.317-5.449 10.239c-1.699 6.387-2.549 17.139-2.549 32.256s.762 25.503 2.285 31.157c1.524 5.655 3.442 9.419 5.757 11.294 2.314 1.875 4.966 2.813 7.954 2.813s5.654-.952 7.998-2.857c2.344-1.904 4.16-5.317 5.449-10.239 1.699-6.328 2.549-17.051 2.549-32.168s-.762-25.503-2.285-31.157c-1.523-5.655-3.442-9.434-5.757-11.338-2.314-1.904-4.966-2.857-7.954-2.857z"/></g></svg>