<svg clip-rule="evenodd" fill-rule="evenodd" stroke-miterlimit="22.926" viewBox="0 0 297 297" xmlns="http://www.w3.org/2000/svg"><path d="m25.091 6.506h246.293c10.223 0 18.585 8.363 18.585 18.585v246.296c0 10.222-8.362 18.585-18.585 18.585h-246.293c-10.222 0-18.585-8.363-18.585-18.585v-246.296c0-10.222 8.363-18.585 18.585-18.585z" fill="#fff" stroke="#000" stroke-width=".57"/><path d="m25.16 14.474h246.156c5.878 0 10.687 4.808 10.687 10.686v246.157c0 5.878-4.809 10.687-10.687 10.687h-246.156c-5.878 0-10.687-4.809-10.687-10.687v-246.157c0-5.878 4.809-10.686 10.687-10.686" fill="#0099e2"/><g fill="#fff" fill-rule="nonzero"><path d="m136.066 188.218v22.94h-86.573c.938-8.672 3.75-16.89 8.438-24.653 4.687-7.764 13.945-18.062 27.773-30.894 11.133-10.371 17.959-17.402 20.479-21.094 3.398-5.097 5.098-10.136 5.098-15.117 0-5.508-1.48-9.741-4.439-12.7s-7.046-4.439-12.261-4.439c-5.156 0-9.257 1.553-12.304 4.659-3.047 3.105-4.805 8.261-5.274 15.468l-24.609-2.461c1.465-13.593 6.064-23.349 13.799-29.267 7.734-5.918 17.402-8.877 29.004-8.877 12.714 0 22.705 3.428 29.97 10.283 7.266 6.856 10.899 15.381 10.899 25.576 0 5.801-1.04 11.324-3.12 16.568s-5.376 10.737-9.888 16.479c-2.988 3.809-8.379 9.287-16.172 16.436-7.793 7.148-12.729 11.894-14.81 14.238-2.08 2.344-3.764 4.629-5.053 6.855z"/><path d="m194.513 81.783c12.48 0 22.236 4.453 29.268 13.359 8.378 10.547 12.568 28.037 12.568 52.471 0 24.375-4.219 41.895-12.656 52.559-6.973 8.789-16.7 13.183-29.18 13.183-12.539 0-22.646-4.819-30.322-14.458s-11.514-26.821-11.514-51.548c0-24.258 4.219-41.718 12.656-52.383 6.973-8.789 16.7-13.183 29.18-13.183zm0 20.478c-2.988 0-5.654.953-7.998 2.857s-4.16 5.317-5.449 10.239c-1.699 6.387-2.549 17.139-2.549 32.256s.762 25.503 2.285 31.157c1.524 5.655 3.442 9.419 5.757 11.294 2.314 1.875 4.966 2.813 7.954 2.813s5.654-.952 7.998-2.857c2.344-1.904 4.16-5.317 5.449-10.239 1.699-6.328 2.549-17.051 2.549-32.168s-.762-25.503-2.285-31.157c-1.523-5.655-3.442-9.434-5.757-11.338-2.314-1.904-4.966-2.857-7.954-2.857z"/></g></svg>