<svg clip-rule="evenodd" fill-rule="evenodd" stroke-miterlimit="22.926" viewBox="0 0 297 297" xmlns="http://www.w3.org/2000/svg"><path d="m25.091 6.506h246.293c10.223 0 18.585 8.363 18.585 18.585v246.296c0 10.222-8.362 18.585-18.585 18.585h-246.293c-10.222 0-18.585-8.363-18.585-18.585v-246.296c0-10.222 8.363-18.585 18.585-18.585z" fill="#fff" stroke="#000" stroke-width=".57"/><path d="m25.16 14.474h246.156c5.878 0 10.687 4.808 10.687 10.686v246.157c0 5.878-4.809 10.687-10.687 10.687h-246.156c-5.878 0-10.687-4.809-10.687-10.687v-246.157c0-5.878 4.809-10.686 10.687-10.686" fill="#0099e2"/><g fill="#fff" fill-rule="nonzero"><path d="m53.009 178.023 24.609-2.549c.704 5.567 2.784 9.976 6.241 13.228s7.441 4.878 11.953 4.878c5.156 0 9.521-2.095 13.096-6.284 3.574-4.19 5.361-10.503 5.361-18.941 0-7.91-1.773-13.843-5.318-17.798-3.544-3.955-8.159-5.932-13.842-5.932-7.09 0-13.448 3.134-19.073 9.404l-20.039-2.9 12.657-67.061h65.302v23.115h-46.582l-3.867 21.885c5.508-2.754 11.133-4.131 16.875-4.131 10.957 0 20.244 3.985 27.861 11.953 7.618 7.969 11.426 18.311 11.426 31.026 0 10.605-3.076 20.068-9.228 28.388-8.379 11.368-20.01 17.051-34.893 17.051-11.894 0-21.592-3.193-29.092-9.58s-11.982-14.971-13.447-25.752z"/><path d="m194.513 81.783c12.48 0 22.236 4.453 29.268 13.359 8.378 10.547 12.568 28.037 12.568 52.471 0 24.375-4.219 41.895-12.656 52.559-6.973 8.789-16.7 13.183-29.18 13.183-12.539 0-22.646-4.819-30.322-14.458s-11.514-26.821-11.514-51.548c0-24.258 4.219-41.718 12.656-52.383 6.973-8.789 16.7-13.183 29.18-13.183zm0 20.478c-2.988 0-5.654.953-7.998 2.857s-4.16 5.317-5.449 10.239c-1.699 6.387-2.549 17.139-2.549 32.256s.762 25.503 2.285 31.157c1.524 5.655 3.442 9.419 5.757 11.294 2.314 1.875 4.966 2.813 7.954 2.813s5.654-.952 7.998-2.857c2.344-1.904 4.16-5.317 5.449-10.239 1.699-6.328 2.549-17.051 2.549-32.168s-.762-25.503-2.285-31.157c-1.523-5.655-3.442-9.434-5.757-11.338-2.314-1.904-4.966-2.857-7.954-2.857z"/></g></svg>