<svg clip-rule="evenodd" fill-rule="evenodd" stroke-miterlimit="22.926" viewBox="0 0 297 297" xmlns="http://www.w3.org/2000/svg"><path d="m25.091 6.506h246.293c10.223 0 18.585 8.363 18.585 18.585v246.296c0 10.222-8.362 18.585-18.585 18.585h-246.293c-10.222 0-18.585-8.363-18.585-18.585v-246.296c0-10.222 8.363-18.585 18.585-18.585z" fill="#fff" stroke="#000" stroke-width=".57"/><path d="m122.061 114.054 2.528 25.362-5.9-.002-1.167-16.819-6.921 13.191-6.921-13.191-1.167 16.819-5.901.002 2.529-25.362h5.588l5.872 11.694 5.871-11.694zm-54.726 24.674-1.128-7.114c2.526 1.553 5.282 2.138 7.874 2.138 4.882 0 8.311-3.24 8.311-6.457 0-3.068-2.31-6.125-5.844-6.004-1.51.051-3.432.588-5.12 2.316l-3.977-1.894v-17.805h20.318l-1.649 6.167h-12.884v7.201c7.826-4.188 15.929 1.358 15.803 9.089-.123 7.426-5.329 13.312-13.582 13.459-2.58.011-5.258-.656-8.122-1.096m-6.907-34.82-.158 35.493-6.49-.001-.009-26.864-4.69 2.857-2.473-3.173 7.745-8.312zm-35.268-89.434h246.156c5.878 0 10.686 4.809 10.686 10.686v246.158c0 5.878-4.808 10.686-10.686 10.686h-58.031v-183.413c0-35.654-29.171-64.824-64.825-64.824-14.407 0-27.754 4.765-38.547 12.793l-13.732-16.364-23.496 64.553 67.652-11.928-13.964-16.643c7.674-5.1 14.244-6.19 23.35-6.19 20.443 0 37.17 16.726 37.17 37.17v55.42c-10.772-7.978-24.076-12.711-38.433-12.711-35.34 0-64.307 28.664-64.812 63.891h-.119-21.468l34.349 59.494 34.348-59.494h-21.08c0-21.102 16.668-37.671 37.171-37.671h2.874c20.443 0 37.17 16.727 37.17 37.171v78.746h-161.733c-5.878 0-10.687-4.808-10.687-10.686v-246.158c0-5.877 4.809-10.686 10.687-10.686" fill="#0099e2"/></svg>