<svg clip-rule="evenodd" fill-rule="evenodd" stroke-miterlimit="22.926" viewBox="0 0 297 297" xmlns="http://www.w3.org/2000/svg"><path d="m25.091 6.506h246.293c10.223 0 18.585 8.363 18.585 18.585v246.296c0 10.222-8.362 18.585-18.585 18.585h-246.293c-10.222 0-18.585-8.363-18.585-18.585v-246.296c0-10.222 8.363-18.585 18.585-18.585z" fill="#fff" stroke="#000" stroke-width=".57"/><path d="m172.01 74.808c15.164 0 31.904 17.699 31.904 36.538 0 18.838-16.741 36.537-31.904 36.537h-50.97v-36.537-36.538zm-.476-29.953c26.166 0 62.382 24.575 62.382 66.49 0 41.916-36.218 66.491-62.382 66.491h-50.509v75.203h-30.054v-75.203-14.038-52.453-66.49zm-146.375-30.381h246.157c5.879 0 10.686 4.808 10.686 10.687v246.158c0 5.878-4.807 10.686-10.686 10.686h-246.157c-5.878 0-10.686-4.808-10.686-10.686v-246.158c0-5.879 4.808-10.687 10.686-10.687" fill="#0099e2"/></svg>