<svg clip-rule="evenodd" fill-rule="evenodd" stroke-miterlimit="22.926" viewBox="0 0 297 297" xmlns="http://www.w3.org/2000/svg"><path d="m25.091 6.506h246.293c10.223 0 18.585 8.363 18.585 18.585v246.296c0 10.222-8.362 18.585-18.585 18.585h-246.293c-10.222 0-18.585-8.363-18.585-18.585v-246.296c0-10.222 8.363-18.585 18.585-18.585z" fill="#fff" stroke="#000" stroke-width=".57"/><path d="m25.16 14.474h246.156c5.878 0 10.687 4.809 10.687 10.687v246.157c0 5.878-4.809 10.686-10.687 10.686h-63.038v-147.418h18.447v-110.334h-65.425v110.334h18.447v37.691c-14.03-24.091-32.645-40.439-54.565-56.956l-65.382-49.27-17.17 22.786c20.844 15.707 41.734 31.35 62.59 47.036 19.024 14.311 33.461 26.487 49.443 50.466 12.961 19.448 22.646 46.296 25.084 77.01v18.655h-154.587c-5.878 0-10.687-4.808-10.687-10.686v-246.157c0-5.878 4.809-10.687 10.687-10.687" fill="#0099e2"/><path d="m200.207 110.395h12.391v12.39h-12.391zm0-24.78h12.391v12.39h-12.391zm0-24.781h12.391v12.391h-12.391zm0-24.78h12.391v12.39h-12.391zm-12.389 61.95h12.39v12.391h-12.39zm0-24.779h12.39v12.39h-12.39zm0-24.781h12.39v12.391h-12.39zm-12.391 61.951h12.391v12.39h-12.391zm0-24.78h12.391v12.39h-12.391zm0-24.781h12.391v12.391h-12.391zm0-24.78h12.391v12.39h-12.391z" fill="#d72717"/></svg>