<svg clip-rule="evenodd" fill-rule="evenodd" stroke-miterlimit="22.926" viewBox="0 0 297 297" xmlns="http://www.w3.org/2000/svg"><path d="m25.09 6.506h246.295c10.222 0 18.584 8.363 18.584 18.585v246.296c0 10.222-8.362 18.585-18.584 18.585h-246.295c-10.222 0-18.584-8.363-18.584-18.585v-246.296c0-10.222 8.362-18.585 18.584-18.585z" fill="#fff" stroke="#000" stroke-width=".57"/><path d="m103.663 182.737-18.137 44.717c-.931 2.295-.889 4.835.109 7.102 3.298 7.496 14.308 7.471 17.443-.133l12.715-30.389zm7.645-89.111-26.303 31.553c-1.336 1.605-1.975 3.653-1.788 5.732.62 6.871 9.299 9.7 13.773 4.406l17.256-20.25zm58.162-10.325-26.716-18.161c-4.233-3.42-7.206-2.587-10.722-.403-4.13 2.564-11.609 6.064-14.67 8.513-3.451 2.762-3.314 3.846-2.869 7.991l6.473 49.701c.222 1.709.175 3.269-1.477 5.732l-17.71 26.411c-2.286 3.409-1.425 5.89.453 8.549l26.047 44.874c6.234 10.666 22.872 1.841 16.41-9.43l-20.594-35.922c-1.055-1.842-.819-2.76.483-4.742l20.875-31.737c3.971-5.968 4.107-5.511 3.247-12.709-.764-6.4-2.25-15.159-2.428-16.636l-3.085-20.297c1.971 1.378 14.265 9.699 14.934 10.726.753 1.157 4.065 23.825 4.544 27.069 1.464 9.902 17.899 10.408 15.734-3.442l-3.845-26.004c-.941-6.031-.121-6.612-5.084-10.083m-62.259-39.945c-3.3 12.774 7.194 24.495 20.083 18.036 7.014-3.514 14.018-8.515 13.86-17.912-.322-19.044-29.497-17.332-33.943-.124m174.79 161.795v66.166c0 5.878-4.808 10.687-10.686 10.687h-188.57v-20.721h51.634v-18.718h51.951v-18.69h51.689v-18.724zm-256.842-190.678h246.156c5.878 0 10.686 4.809 10.686 10.687v160.531h-53.996v18.725h-51.586v18.703h-52.012v18.997h-51.613v18.867h-58.322v-235.823c0-5.878 4.809-10.687 10.687-10.687" fill="#0099e2"/></svg>