<svg clip-rule="evenodd" fill-rule="evenodd" stroke-miterlimit="22.926" viewBox="0 0 297 297" xmlns="http://www.w3.org/2000/svg"><path d="m25.09 6.506h246.295c10.222 0 18.584 8.363 18.584 18.585v246.296c0 10.222-8.362 18.585-18.584 18.585h-246.295c-10.222 0-18.584-8.363-18.584-18.585v-246.296c0-10.222 8.362-18.585 18.584-18.585z" fill="#fff" stroke="#000" stroke-width=".57"/><path d="m153.233 136.987 13.283 73.429c.44 2.432-.057 4.915-1.417 6.944-4.488 6.706-14.839 4.529-16.381-3.541l-11.93-68.431zm-32.643-45.456-25.859 16.563c-1.758 1.126-2.994 2.877-3.449 4.915-1.501 6.734 5.905 12.071 11.778 8.389l20.222-12.659zm-.97-51.429c-5.819 11.84 2.084 25.444 16.014 21.73 7.58-2.022 15.453-5.501 17.201-14.736 3.542-18.713-25.377-22.945-33.215-6.994m59.352 40.718-26.023-14.328c-5.124-2.975-9.508-2.864-13.105-.818l-12.893 7.33c-3.842 2.185-3.314 3.846-2.869 7.991l4.734 38.824c.208 1.707 1.006 4.285-1.937 5.776l-29.919 15.25c-2.63 1.341-4.708 3.242-4.705 7.591l.038 44.686c.01 12.393 17.727 11.776 17.727-.095v-34.15c.054-3.23-.101-4.81 1.78-5.754l43.11-21.63c4.572-2.294 4.052-3.3 3.379-9.771-.668-6.409-2.25-15.159-2.428-16.635l-3.086-20.298c1.972 1.378 14.818 8.04 15.487 9.067.753 1.155 6.341 23.026 6.82 26.27 1.464 9.901 17.959 10.316 15.733-3.442l-6.531-28.196c-.834-3.602-1.343-5.286-5.312-7.668m92.342-66.347h-246.156c-5.878 0-10.687 4.809-10.687 10.687v160.531h53.996v18.725h51.586v18.703h52.012v18.997h51.613v18.867h58.323v-235.823c0-5.878-4.809-10.687-10.687-10.687m-256.843 190.678v66.166c0 5.878 4.809 10.687 10.687 10.687h188.57v-20.721h-51.635v-18.718h-51.952v-18.69h-51.687v-18.724h-43.983z" fill="#0099e2"/></svg>