<svg clip-rule="evenodd" fill-rule="evenodd" stroke-miterlimit="22.926" viewBox="0 0 297 297" xmlns="http://www.w3.org/2000/svg"><path d="m25.09 6.506h246.295c10.222 0 18.584 8.363 18.584 18.585v246.296c0 10.222-8.362 18.585-18.584 18.585h-246.295c-10.222 0-18.584-8.363-18.584-18.585v-246.296c0-10.222 8.362-18.585 18.584-18.585z" fill="#fff" stroke="#000" stroke-width=".57"/><path d="m97.979 60.686h100.516v46.799h-100.516z" fill="#d72717"/><path d="m282.002 205.151v66.166c0 5.878-4.809 10.687-10.687 10.687h-108.213v-165.064h44.922v-65.711h-119.575v65.711h44.924v165.064h-108.215c-5.877 0-10.686-4.809-10.686-10.687l.001-246.157c0-5.878 4.808-10.687 10.686-10.687h246.156c5.878 0 10.687 4.809 10.687 10.687z" fill="#0099e2"/></svg>