<svg clip-rule="evenodd" fill-rule="evenodd" stroke-miterlimit="22.926" viewBox="0 0 297 297" xmlns="http://www.w3.org/2000/svg"><path d="m25.09 6.506h246.295c10.222 0 18.584 8.363 18.584 18.585v246.296c0 10.222-8.362 18.585-18.584 18.585h-246.295c-10.222 0-18.584-8.363-18.584-18.585v-246.296c0-10.222 8.362-18.585 18.584-18.585z" fill="#fff" stroke="#000" stroke-width=".57"/><path d="m79.009 282.004h-53.851c-5.878 0-10.687-4.809-10.687-10.687l.001-246.157c0-5.878 4.809-10.686 10.687-10.686h53.85zm202.993-76.853v66.166c0 5.878-4.809 10.687-10.687 10.687h-163.385v-118.785h53.775v45.149h64.615v-120.259h-64.615v45.15h-53.775v-118.785h163.385c5.878 0 10.687 4.808 10.687 10.686z" fill="#0099e2"/><path d="m170.955 97.114h46.115v102.251h-46.115z" fill="#d72717"/></svg>