<svg clip-rule="evenodd" fill-rule="evenodd" stroke-miterlimit="22.926" viewBox="0 0 297 297" xmlns="http://www.w3.org/2000/svg"><path d="m6.506 25.09v246.295c0 10.222 8.363 18.584 18.585 18.584h246.296c10.222 0 18.585-8.362 18.585-18.584v-246.295c0-10.222-8.363-18.584-18.585-18.584h-246.296c-10.222 0-18.585 8.362-18.585 18.584z" fill="#fff" stroke="#000" stroke-width=".57"/><path d="m282.004 79.01v-53.852c0-5.877-4.809-10.686-10.687-10.686l-246.157.001c-5.878 0-10.686 4.808-10.686 10.686v53.851zm-76.853 202.992h66.166c5.878 0 10.687-4.808 10.687-10.686v-163.384h-118.785v53.774h45.149v64.615h-120.259v-64.615h45.15v-53.774h-118.785v163.384c0 5.878 4.808 10.686 10.686 10.686z" fill="#0099e2"/><path d="m97.114 217.071v-46.116h102.251v46.116z" fill="#d72717"/></svg>