<svg clip-rule="evenodd" fill-rule="evenodd" stroke-miterlimit="22.926" viewBox="0 0 297 297" xmlns="http://www.w3.org/2000/svg"><path d="m271.385 6.506h-246.295c-10.222 0-18.584 8.363-18.584 18.585v246.296c0 10.222 8.362 18.585 18.584 18.585h246.295c10.222 0 18.584-8.363 18.584-18.585v-246.296c0-10.222-8.362-18.585-18.584-18.585z" fill="#fff" stroke="#000" stroke-width=".57"/><path d="m217.465 282.004h53.852c5.877 0 10.686-4.809 10.686-10.687l-.001-246.157c0-5.878-4.808-10.686-10.686-10.686h-53.851zm-202.992-76.853v66.166c0 5.878 4.808 10.687 10.686 10.687h163.384v-118.785h-53.774v45.149h-64.615v-120.259h64.615v45.15h53.774v-118.785h-163.384c-5.878 0-10.686 4.808-10.686 10.686z" fill="#0099e2"/><path d="m79.404 97.114h46.116v102.251h-46.116z" fill="#d72717"/></svg>