<svg clip-rule="evenodd" fill-rule="evenodd" stroke-miterlimit="22.926" viewBox="0 0 297 297" xmlns="http://www.w3.org/2000/svg"><path d="m25.09 6.506h246.295c10.222 0 18.584 8.363 18.584 18.585v246.296c0 10.222-8.362 18.585-18.584 18.585h-246.295c-10.222 0-18.584-8.363-18.584-18.585v-246.296c0-10.222 8.362-18.585 18.584-18.585z" fill="#fff" stroke="#000" stroke-width=".57"/><path d="m139.373 138.234h55.453v-41.45h-55.453zm0-123.76h55.453v34.114h-55.453zm-124.901 123.76.001-113.074c0-5.877 4.809-10.686 10.687-10.686h66.019v123.76h-76.707zm76.707 143.77h-66.02c-5.877 0-10.687-4.808-10.687-10.686v-84.89h76.707zm190.823-95.576v84.89c0 5.878-4.808 10.686-10.686 10.686h-117.318-14.625v-95.576zm0-161.268v113.074h-38.98v-123.76h28.294c5.878 0 10.686 4.809 10.686 10.686" fill="#0099e2"/><path d="m64.076 138.233v14.123h40.986v-13.627-50.282c0-14.056 11.5-25.555 25.556-25.555h73.083c14.056 0 25.556 11.499 25.556 25.555v58.327c0 14.056-11.5 25.555-25.556 25.555h-18.692-59.388v109.675h-20.559v-109.675h-40.986v14.098l-41.738-24.097zm61.545.496v13.627h77.5c3.068 0 5.577-2.509 5.577-5.576v-58.34c0-3.066-2.509-5.575-5.577-5.575h-71.925c-3.066 0-5.575 2.509-5.575 5.575z"/></svg>