<svg clip-rule="evenodd" fill-rule="evenodd" stroke-miterlimit="22.926" viewBox="0 0 297 438" xmlns="http://www.w3.org/2000/svg"><path d="m28.238 6.506h239.999c11.958 0 21.732 9.773 21.732 21.729v381.188c0 11.955-9.774 21.729-21.732 21.729h-239.999c-11.958 0-21.732-9.774-21.732-21.729v-381.188c0-11.956 9.774-21.729 21.732-21.729z" fill="#fff" stroke="#000" stroke-width=".57"/><path d="m49.764 77.532h196.947c9.154 0 16.641 7.491 16.641 16.642v196.946c0 9.15-7.487 16.641-16.641 16.641h-196.947c-9.153 0-16.641-7.491-16.641-16.641v-196.946c0-9.151 7.488-16.642 16.641-16.642m-21.385-61.732h239.717c6.863 0 12.483 5.618 12.483 12.484v381.09c0 6.866-5.62 12.484-12.483 12.484h-239.717c-6.863 0-12.483-5.618-12.483-12.484v-381.09c0-6.866 5.62-12.484 12.483-12.484" fill="#0099e2"/><path d="m172.996 152.817c13.019 21.471 23.793 33.471 47.212 44.118-9.84 5.403-19.182 10.3-30.577 9.022 9.129 12.298 23.953 22.479 37.915 28.571 6.929 3.023 12.798 4.471 19.816 5.709-13.248 8.922-27.23 16.112-43.891 17.349-3.145.234-6.654.261-10.205.264v23.566h-27.875v-22.005c-4.65 1.651-7.741 5.031-16.639 6.227-9.961 1.34-18.991-.132-28.602-2.283l10.683-8.848c12.53-11.514 21.29-27.47 25.411-43.851-10.39 5.415-18.497 7.467-31.322 9.152 9.563-8.368 14.316-13.392 19.937-24.361 6.803-13.276 6.41-23.792 5.673-37.562-6.042 2.989-9.448 3.945-16.576 6.328 6.413-10.586 10.686-26.449 10.906-39.205.108-6.165-1.019-12.663-1.976-18.653 10.774 12.453 20.684 22.853 34.136 31.732l12.773 8.084c-4.749 2.426-11.525 6.192-16.799 6.646m-108.323 91.29h34.8c2.927 0 5.321 2.394 5.321 5.32 0 2.927-2.394 5.322-5.321 5.322l-1.545.001 6.866 26.666h-8.318l-6.866-26.666h-15.106l-6.834 26.666h-8.318l6.834-26.666-1.513-.001c-2.927 0-5.321-2.395-5.321-5.322 0-2.926 2.394-5.32 5.321-5.32"/></svg>