<svg clip-rule="evenodd" fill-rule="evenodd" stroke-miterlimit="22.926" viewBox="0 0 297 438" xmlns="http://www.w3.org/2000/svg"><path d="m28.238 6.506h239.999c11.958 0 21.732 9.773 21.732 21.729v381.188c0 11.955-9.774 21.729-21.732 21.729h-239.999c-11.958 0-21.732-9.774-21.732-21.729v-381.188c0-11.956 9.774-21.729 21.732-21.729z" fill="#fff" stroke="#000" stroke-width=".57"/><path d="m28.378 15.8h239.717c6.864 0 12.484 5.618 12.484 12.484v381.09c0 6.866-5.62 12.485-12.484 12.485h-239.717c-6.862 0-12.483-5.619-12.483-12.485v-381.09c0-6.866 5.621-12.484 12.483-12.484m21.385 61.732h196.948c9.153 0 16.64 7.492 16.64 16.642v196.946c0 9.151-7.487 16.641-16.64 16.641h-196.948c-9.153 0-16.64-7.49-16.64-16.641v-196.946c0-9.15 7.487-16.642 16.64-16.642" fill="#0099e2"/><path d="m82.405 165.177c0 19.634-1.806 35.023-5.419 44.013h20.756v-44.013zm-11.924-10.854h40.487v54.867h7.804v23.905h-12.118v-14.107h-38.775v14.107h-12.575v-23.905h7.782c6.883-14.035 7.395-39.075 7.395-54.867m57.236 0h49.536v67.41h-12.674v-55.863h-24.188v55.863h-12.674zm113.453 47.025c-1.872 12.985-13.302 22.263-25.558 22.502-18.283.356-27.624-15.693-27.624-35.199 0-11.535 2.61-20.489 7.819-26.876 5.208-6.372 12.056-9.784 20.553-9.567 12.992.332 21.104 7.783 24.451 21.621-3.869 1.199-7.739 2.396-11.607 3.593.055-.015-3.137-13.826-13.466-13.897-10.788-.075-14.815 12.954-14.84 24.959-.023 10.643 3.194 24.088 14.586 24.088 7.322 0 12.229-7.15 13.719-14.487z" fill-rule="nonzero"/></svg>