<svg clip-rule="evenodd" fill-rule="evenodd" stroke-miterlimit="22.926" viewBox="0 0 297 438" xmlns="http://www.w3.org/2000/svg"><path d="m28.238 6.506h239.999c11.958 0 21.732 9.773 21.732 21.729v381.188c0 11.955-9.774 21.729-21.732 21.729h-239.999c-11.958 0-21.732-9.774-21.732-21.729v-381.188c0-11.956 9.774-21.729 21.732-21.729z" fill="#fff" stroke="#000" stroke-width=".57"/><path d="m28.379 15.799h239.717c6.863 0 12.483 5.619 12.483 12.485v381.09c0 6.866-5.62 12.484-12.483 12.484h-239.717c-6.863 0-12.483-5.618-12.483-12.484v-381.09c0-6.866 5.62-12.485 12.483-12.485m21.385 61.733h196.947c9.154 0 16.641 7.491 16.641 16.641v196.947c0 9.15-7.487 16.64-16.641 16.64h-196.947c-9.153 0-16.641-7.49-16.641-16.64v-196.947c0-9.15 7.488-16.641 16.641-16.641" fill="#0099e2"/><g fill-rule="nonzero"><path d="m56.207 205.773h-4.688v-42.949h27.657v42.949h-4.659v-37.91h-18.31z"/><path d="m84.625 190.217c0-5.371 1.128-9.424 3.384-12.159 2.255-2.734 5.112-4.101 8.569-4.101 3.398 0 6.24 1.367 8.525 4.101 2.285 2.735 3.428 6.68 3.428 11.836 0 5.586-1.123 9.746-3.369 12.481-2.246 2.734-5.108 4.101-8.584 4.101-3.418 0-6.265-1.372-8.54-4.116-2.276-2.744-3.413-6.792-3.413-12.143zm4.424 0c0 4.023.732 7.016 2.197 8.979s3.281 2.944 5.449 2.944c2.031 0 3.775-.991 5.23-2.973 1.455-1.983 2.182-4.966 2.182-8.95 0-4.004-.732-6.988-2.197-8.951-1.465-1.962-3.281-2.944-5.449-2.944-2.051 0-3.799.986-5.244 2.959-1.446 1.973-2.168 4.951-2.168 8.936z"/><path d="m115.767 174.66h20.098v31.113h-4.307v-26.748h-11.455v15.498c0 3.535-.092 5.908-.278 7.119s-.723 2.237-1.611 3.077c-.889.839-2.154 1.259-3.794 1.259-1.016 0-2.158-.068-3.428-.205v-4.424c2.031-.019 3.232-.087 3.604-.205.371-.117.659-.415.864-.893.205-.479.307-2.173.307-5.083z"/><path d="m142.369 174.66h4.307v23.73l12.011-23.73h4.659v31.113h-4.307v-23.584l-12.012 23.584h-4.658z"/><path d="m169.937 174.66h4.307v26.777h11.982v-26.777h4.336v26.777h2.784v16.26h-3.575v-11.924h-19.834z"/><path d="m198.062 174.66h4.307v23.73l12.012-23.73h4.658v31.113h-4.307v-23.584l-12.011 23.584h-4.659z"/><path d="m245.67 174.66v31.113h-4.307v-12.129h-2.519c-1.465 0-2.579.235-3.34.703-.762.469-1.866 2.012-3.311 4.629l-3.75 6.797h-5.361l4.658-8.379c1.426-2.558 2.842-4.004 4.248-4.336-2.461-.429-4.287-1.518-5.478-3.266-1.192-1.748-1.788-3.765-1.788-6.05 0-2.852.806-5.078 2.417-6.68 1.612-1.601 3.843-2.402 6.695-2.402zm-4.307 4.365h-6.152c-2.578 0-4.239.493-4.981 1.48-.742.986-1.113 2.124-1.113 3.413 0 1.875.552 3.242 1.655 4.101 1.104.86 3.042 1.289 5.816 1.289h4.775z"/></g></svg>