<svg clip-rule="evenodd" fill-rule="evenodd" stroke-miterlimit="22.926" viewBox="0 0 297 438" xmlns="http://www.w3.org/2000/svg"><path d="m28.238 6.506h239.999c11.958 0 21.732 9.773 21.732 21.729v381.188c0 11.955-9.774 21.729-21.732 21.729h-239.999c-11.958 0-21.732-9.774-21.732-21.729v-381.188c0-11.956 9.774-21.729 21.732-21.729z" fill="#fff" stroke="#000" stroke-width=".57"/><path d="m211.015 351.608h6.37v7.878h4.288v-18.549h-4.288v6.878h-6.37v-6.878h-4.289v18.549h4.289zm-37.868 15.015v-8.572c.535 0 1.033 1.574 4.092 1.626 5.174.09 8.485-4.642 8.551-9.529.068-4.983-2.673-9.732-8.406-9.623-1.466.028-3.093.462-4.237 1.868h-.064l-.726-1.421h-3.462v25.651zm0-18.211c.047-4.61 6.095-5.768 7.764-1.363 1.107 2.92.544 8.647-3.957 8.701-1.434.015-2.781-.803-3.415-2.157-.253-.536-.384-1.204-.392-2.005zm-44.212-7.475h15.109v18.549h-4.288v-14.744h-6.533v14.744h-4.288zm-34.889 10.671h6.37v7.878h4.289v-18.549h-4.289v6.878h-6.37v-6.878h-4.289v18.549h4.289zm-39.946 15.015v-8.572c.534 0 1.032 1.574 4.091 1.626 5.175.09 8.485-4.642 8.552-9.529.067-4.983-2.674-9.732-8.406-9.623-1.466.028-3.093.462-4.237 1.868h-.064l-.727-1.421h-3.462v25.651zm0-18.211c.046-4.61 6.094-5.768 7.764-1.363 1.106 2.92.545 8.647-3.957 8.701-1.434.015-2.782-.803-3.415-2.157-.254-.536-.385-1.204-.392-2.005zm94.154 1.428c0-1.607.356-3.168 1.057-4.675.706-1.502 1.705-2.657 2.997-3.447 1.292-.794 2.736-1.195 4.332-1.195 2.459 0 4.479.901 6.053 2.703 1.575 1.803 2.359 4.076 2.359 6.827 0 2.768-.796 5.065-2.381 6.891-1.59 1.826-3.589 2.732-6 2.732-1.496 0-2.913-.376-4.268-1.136-1.356-.759-2.386-1.872-3.092-3.339-.701-1.467-1.057-3.252-1.057-5.361m4.282.26c0 1.883.395 3.321 1.191 4.321.79 1 1.769 1.5 2.934 1.5 1.164 0 2.138-.5 2.923-1.5.79-1 1.186-2.45 1.186-4.358 0-1.852-.396-3.285-1.186-4.283-.785-1-1.759-1.5-2.923-1.5-1.165 0-2.144.5-2.934 1.5-.796.998-1.191 2.443-1.191 4.32m114.016-17.063c-.526 3.21-3.313 5.66-6.672 5.66s-6.146-2.45-6.673-5.66h3.333c.463 1.401 1.783 2.413 3.34 2.413 1.556 0 2.876-1.012 3.338-2.413zm-14.561 7.892h4.253v11.367l7.27-11.367h4.255v18.557h-4.255v-11.148l-7.27 11.148h-4.253zm-172.288 9.554c-2.052.733-6.152.554-6.089 3.286.074 3.267 4.568 2.595 6.105-.392zm-8.26-4.273-2.042-3.251c4.438-3.644 14.598-3.909 14.594 4.173l-.006 8.122c-.002.374.382.915.786.915h1.007l-1.414 3.271c-2.115.235-3.802-.435-4.508-2.19-1.253 1.685-3.033 2.437-4.752 2.426-2.795-.017-5.46-2.067-5.617-5.503-.291-6.333 7.835-6.638 10.212-6.841.164-5.144-6.502-3.27-8.26-1.122m172.052-5.273h4.242v18.548h-4.242zm-12.926 14.896h3.049c1.819 0 3.576-.728 3.576-2.355s-1.862-2.345-3.568-2.345h-3.057zm-4.309-14.896h4.309v6.977h4.197c4.076 0 6.647 2.213 6.546 5.631-.103 3.417-2.857 5.94-6.546 5.94h-8.506v-12.677zm-101.177 12.724c-.581 3.47-4.126 5.95-7.927 6.014-5.67.096-8.568-4.194-8.568-9.408 0-3.084.81-5.476 2.425-7.183 1.616-1.705 3.74-2.616 6.375-2.558 4.029.089 6.546 2.08 7.584 5.779-1.2.321-2.4.64-3.601.96.018-.004-.972-3.217-4.175-3.235-3.346-.02-4.395 2.983-4.403 6.192-.007 2.845.886 6.046 4.42 6.046 2.271 0 3.697-1.518 4.158-3.479zm72.811-8.716v14.541h-.19-1.913-1.899-.204v-14.541h-5.393v-4.008h14.992v4.008zm-161.752 14.541v-19.745h-7.6v-5.443h20.36v5.443h-7.582v19.745zm157.55 16.87h11.751v18.55h-3.526v-15.41h-4.732l-.233 7.922c-.126 4.358-2.438 7.221-6.657 8.015l-.656-3.438c3.417-.688 3.655-2.786 3.793-5.049zm-52.306 4.008v14.54h-.19-1.912-1.901-.203v-14.54h-5.394v-4.008h14.994v4.008zm12.278 21.79v-8.571c.535 0 1.033 1.573 4.091 1.626 5.175.088 8.486-4.644 8.552-9.531.067-4.982-2.674-9.732-8.406-9.623-1.466.029-3.093.463-4.237 1.868h-.064l-.727-1.419h-3.462v25.65zm0-18.212c.046-4.609 6.094-5.768 7.764-1.361 1.106 2.919.545 8.646-3.957 8.699-1.435.016-2.782-.803-3.415-2.156-.254-.537-.385-1.204-.392-2.004zm-36.165 3.085h6.37v7.878h4.289v-18.549h-4.289v6.878h-6.37v-6.878h-4.289v18.549h4.289zm-25.114-1.656c0-1.608.355-3.168 1.056-4.676.707-1.502 1.706-2.656 2.998-3.446 1.292-.794 2.736-1.196 4.331-1.196 2.459 0 4.479.902 6.053 2.703 1.575 1.803 2.36 4.077 2.36 6.828 0 2.767-.796 5.064-2.381 6.89-1.591 1.826-3.589 2.733-6 2.733-1.496 0-2.914-.376-4.269-1.137-1.355-.759-2.385-1.873-3.092-3.339-.701-1.467-1.056-3.251-1.056-5.36m4.282.259c0 1.883.395 3.322 1.191 4.321.79 1 1.769 1.5 2.933 1.5s2.139-.5 2.924-1.5c.79-.999 1.186-2.449 1.186-4.358 0-1.852-.396-3.285-1.186-4.283-.785-1-1.76-1.5-2.924-1.5s-2.143.5-2.933 1.5c-.796.998-1.191 2.444-1.191 4.32m118.607 5.421h2.984c1.78 0 3.501-.692 3.501-2.244 0-1.551-1.822-2.235-3.491-2.235h-2.994zm-4.333-14.695h4.333v6.363h4.22c4.098 0 6.684 2.331 6.583 5.93-.104 3.599-2.873 6.255-6.583 6.255h-8.553v-13.95zm-137.624.143h4.368v6.526c3.495-.501 4.746-6.719 9.698-6.951l.792 3.802c-2.759-.074-4.053 4.226-6.243 4.812 3.888.458 3.826 4.79 8.015 10.216h-4.99c-4.608-7.683-3.543-8.174-7.272-8.174v8.174h-4.368zm96.552 8.872c0-1.608.355-3.168 1.056-4.676.706-1.502 1.705-2.656 2.997-3.446 1.293-.794 2.737-1.196 4.332-1.196 2.459 0 4.479.902 6.053 2.703 1.574 1.803 2.359 4.077 2.359 6.828 0 2.767-.795 5.064-2.38 6.89-1.59 1.826-3.588 2.733-6 2.733-1.497 0-2.915-.376-4.269-1.137-1.355-.759-2.386-1.873-3.092-3.339-.701-1.467-1.056-3.251-1.056-5.36m4.282.259c0 1.883.395 3.322 1.19 4.321.79 1 1.771 1.5 2.935 1.5 1.163 0 2.137-.5 2.923-1.5.79-.999 1.185-2.449 1.185-4.358 0-1.852-.395-3.285-1.185-4.283-.786-1-1.76-1.5-2.923-1.5-1.164 0-2.145.5-2.935 1.5-.795.998-1.19 2.444-1.19 4.32m-124.387-308.098h196.947c9.154 0 16.641 7.491 16.641 16.641v196.947c0 9.15-7.487 16.64-16.641 16.64h-196.947c-9.153 0-16.641-7.49-16.641-16.64v-196.947c0-9.15 7.488-16.641 16.641-16.641m-21.385-61.733h239.717c6.863 0 12.483 5.619 12.483 12.485v381.09c0 6.866-5.62 12.484-12.483 12.484h-239.717c-6.863 0-12.483-5.618-12.483-12.484v-381.09c0-6.866 5.62-12.485 12.483-12.485" fill="#0099e2"/><path d="m126.574 158.148h92.847v-38.333c0-3.762-3.078-6.84-6.841-6.84h-79.166c-3.763 0-6.84 3.078-6.84 6.84zm-3.201 3.027h64.254c-6.279 1.409-10.994 6.952-11.137 13.621h-56.375c-.165-7.742-6.492-13.967-14.273-13.967-7.783 0-14.11 6.225-14.274 13.967h-7.314c-3.96 0-7.201-3.24-7.201-7.199v-6.422-10.534-2.382c.164-1.236.634-2.385 1.437-3.44l10.992-15.945c1.225-1.779 2.605-3.131 5.017-3.131h20.953c4.355 0 7.921 3.564 7.921 7.922zm70.528 0h25.459v13.621h-14.321c-.143-6.669-4.859-12.212-11.138-13.621m-88.059 7.55c3.524 0 6.381 2.858 6.381 6.382 0 3.525-2.857 6.382-6.381 6.382-3.525 0-6.383-2.857-6.383-6.382 0-3.524 2.858-6.382 6.383-6.382m0-6.097c6.891 0 12.477 5.587 12.477 12.479 0 6.891-5.586 12.478-12.477 12.478-6.893 0-12.478-5.587-12.478-12.478 0-6.892 5.585-12.479 12.478-12.479m84.922 6.097c3.525 0 6.382 2.858 6.382 6.382 0 3.525-2.857 6.382-6.382 6.382s-6.381-2.857-6.381-6.382c0-3.524 2.856-6.382 6.381-6.382m0-6.097c6.892 0 12.478 5.587 12.478 12.479 0 6.891-5.586 12.478-12.478 12.478-6.891 0-12.478-5.587-12.478-12.478 0-6.892 5.587-12.479 12.478-12.479m-95.57-32.681h17.178c2.179 0 3.961 1.782 3.961 3.959v10.036c0 2.178-1.782 3.96-3.961 3.96h-23.227c-3.57 0-4.606-4.201-3.117-6.429l6.628-9.926c.609-.913 1.314-1.6 2.538-1.6m21.12 82.189h19.519c1.386 0 2.519 1.135 2.519 2.521v13.129c0 1.386-1.133 2.52-2.519 2.52h-19.519c-1.387 0-2.52-1.134-2.52-2.52v-13.129c0-1.386 1.133-2.521 2.52-2.521m-12.337-.001h-7.307c-1.387 0-2.723.793-3.715 2.521l-6.554 11.439c-1.005 1.754.063 4.21 2.821 4.21h14.755c1.385 0 2.52-1.134 2.52-2.52v-13.129c0-1.386-1.134-2.521-2.52-2.521m76.009.001h18.019c1.385 0 2.839.602 3.381 2.521l3.232 11.438c.551 1.948-.062 4.211-2.821 4.211h-21.811c-1.386 0-2.52-1.134-2.52-2.52v-13.129c0-1.386 1.133-2.521 2.52-2.521m-31.89 0h19.519c1.387 0 2.521 1.135 2.521 2.521v13.129c0 1.386-1.134 2.52-2.521 2.52h-19.519c-1.386 0-2.519-1.134-2.519-2.52v-13.129c0-1.386 1.133-2.521 2.519-2.521m-50.981-5.745h107.523c5.239 0 7.01 2.955 8.259 6.619 1.949 5.716 3.836 11.397 5.851 17.107v26.341c0 3.696-3.025 6.72-6.72 6.72h-9.993c.006-.167.009-.333.009-.501 0-8.694-6.772-15.745-15.467-15.745-8.694 0-15.397 7.051-15.397 15.745 0 .168.003.334.009.501h-52.081c.005-.167.008-.333.008-.501 0-8.694-6.633-15.745-15.327-15.745s-15.529 7.051-15.529 15.745c0 .168.003.334.009.501h-3.824c-3.694 0-6.719-3.024-6.719-6.72v-25.501l10.335-17.846c1.852-3.198 3.995-6.72 9.054-6.72m6.59 50.286c3.314 0 6 2.686 6 6s-2.686 6.001-6 6.001-6.001-2.687-6.001-6.001 2.687-6 6.001-6m0-7.224c7.304 0 13.224 5.921 13.224 13.224 0 7.304-5.92 13.225-13.224 13.225s-13.224-5.921-13.224-13.225c0-7.303 5.92-13.224 13.224-13.224m82.872 7.224c3.314 0 6.001 2.686 6.001 6s-2.687 6.001-6.001 6.001-6-2.687-6-6.001 2.686-6 6-6m0-7.224c7.304 0 13.225 5.921 13.225 13.224 0 7.304-5.921 13.225-13.225 13.225-7.303 0-13.224-5.921-13.224-13.225 0-7.303 5.921-13.224 13.224-13.224"/></svg>