<svg clip-rule="evenodd" fill-rule="evenodd" stroke-miterlimit="22.926" viewBox="0 0 297 438" xmlns="http://www.w3.org/2000/svg"><path d="m28.238 6.506h239.999c11.958 0 21.732 9.773 21.732 21.729v381.188c0 11.955-9.774 21.729-21.732 21.729h-239.999c-11.958 0-21.732-9.774-21.732-21.729v-381.188c0-11.956 9.774-21.729 21.732-21.729z" fill="#fff" stroke="#000" stroke-width=".57"/><path d="m49.763 77.532h196.948c9.153 0 16.64 7.491 16.64 16.642v196.946c0 9.15-7.487 16.641-16.64 16.641h-196.948c-9.153 0-16.64-7.491-16.64-16.641v-196.946c0-9.151 7.487-16.642 16.64-16.642m-21.385-61.732h239.717c6.864 0 12.484 5.618 12.484 12.484v381.09c0 6.866-5.62 12.484-12.484 12.484h-239.717c-6.862 0-12.483-5.618-12.483-12.484v-381.09c0-6.866 5.621-12.484 12.483-12.484" fill="#0099e2"/><path d="m155.375 202.642.029-20.89h-9.174c-.342 9.237-1.766 17.517-4.259 20.89zm5.114 7.384h-22.613v7.044h-7.262v-14.428h3.647c3.343-3.472 4.636-23.119 4.489-27.914h24.899v27.914h4.103v14.428h-7.263zm52.004-17.951c0-3.167.7-6.241 2.08-9.21 1.392-2.957 3.36-5.231 5.905-6.786 2.543-1.565 5.387-2.354 8.53-2.354 4.842 0 8.819 1.774 11.92 5.323 3.1 3.55 4.646 8.027 4.646 13.444 0 5.451-1.566 9.975-4.687 13.57-3.133 3.597-7.068 5.383-11.818 5.383-2.946 0-5.738-.742-8.406-2.24-2.669-1.496-4.698-3.688-6.09-6.576-1.38-2.887-2.08-6.402-2.08-10.554m8.434.509c0 3.708.777 6.542 2.344 8.51 1.556 1.969 3.486 2.952 5.778 2.952s4.211-.983 5.758-2.952c1.555-1.968 2.335-4.825 2.335-8.582 0-3.647-.78-6.469-2.335-8.436-1.547-1.969-3.466-2.954-5.758-2.954s-4.222.985-5.778 2.954c-1.567 1.967-2.344 4.812-2.344 8.508m-46.744-17.856h8.198v21.873l14.011-21.873h8.197v35.713h-8.197v-21.455l-14.011 21.455h-8.198zm-58.569 18.609c-4.043 1.446-12.114 1.092-11.992 6.474.147 6.434 8.995 5.109 12.022-.773zm-16.269-8.415-4.019-6.403c8.739-7.174 28.748-7.693 28.739 8.221l-.011 15.996c-.005.733.752 1.8 1.548 1.8h1.982l-2.784 6.442c-4.165.464-7.488-.857-8.879-4.314-2.466 3.32-5.97 4.799-9.356 4.78-5.504-.034-10.753-4.072-11.064-10.837-.571-12.472 15.431-13.075 20.113-13.476.322-10.128-12.804-6.437-16.269-2.209m-35.097-16.107h7.621c3.565 0 7.009 2.479 7.009 8.03 0 5.552-3.649 7.999-6.991 7.999h-7.639zm-10.048 41.626h9.732v-17.751h8.43c8.91 0 15.93-8.194 16.073-16.425.143-8.23-6.278-16.102-15.199-16.102h-19.036z" fill-rule="nonzero"/></svg>