<svg clip-rule="evenodd" fill-rule="evenodd" stroke-miterlimit="22.926" viewBox="0 0 297 438" xmlns="http://www.w3.org/2000/svg"><path d="m28.238 6.506h239.999c11.958 0 21.732 9.773 21.732 21.729v381.188c0 11.955-9.774 21.729-21.732 21.729h-239.999c-11.958 0-21.732-9.774-21.732-21.729v-381.188c0-11.956 9.774-21.729 21.732-21.729z" fill="#fff" stroke="#000" stroke-width=".57"/><path d="m28.378 15.8h239.717c6.864 0 12.484 5.618 12.484 12.484v381.09c0 6.866-5.62 12.485-12.484 12.485h-239.717c-6.862 0-12.483-5.619-12.483-12.485v-381.09c0-6.866 5.621-12.484 12.483-12.484m21.385 61.732h196.948c9.153 0 16.64 7.492 16.64 16.642v196.946c0 9.151-7.487 16.641-16.64 16.641h-196.948c-9.153 0-16.64-7.49-16.64-16.641v-196.946c0-9.15 7.487-16.642 16.64-16.642" fill="#0099e2"/><g fill-rule="nonzero"><path d="m93.772 196.73 6.25 1.914c-1.38 6.432-3.795 11.23-7.246 14.394s-7.65 4.746-12.598 4.746c-4.349 0-8.066-1.061-11.152-3.183-3.086-2.123-5.612-5.528-7.578-10.215-1.966-4.688-2.949-10.221-2.949-16.602 0-6.302.983-11.634 2.949-15.996s4.629-7.656 7.988-9.883c3.36-2.226 7.11-3.339 11.25-3.339 4.531 0 8.425 1.412 11.68 4.238 3.255 2.825 5.534 6.973 6.836 12.441l-6.094 1.758c-2.083-7.969-6.263-11.953-12.539-11.953-3.125 0-5.833.801-8.125 2.402-2.292 1.602-4.121 4.095-5.488 7.481-1.367 3.385-2.051 7.669-2.051 12.851 0 7.839 1.38 13.718 4.141 17.637 2.76 3.919 6.432 5.879 11.015 5.879 3.386 0 6.309-1.204 8.77-3.613s4.108-6.061 4.941-10.957z"/><path d="m107.053 175.323h13.282c3.02 0 5.332.287 6.933.86 1.602.573 3.034 1.751 4.297 3.535s1.895 3.991 1.895 6.621c0 3.958-1.355 6.914-4.063 8.867 3.724 1.667 5.586 5 5.586 10 0 3.203-.95 5.938-2.852 8.203-1.901 2.266-5.143 3.399-9.726 3.399h-15.352zm5.743 17.461h6.171c2.448 0 4.135-.156 5.059-.468.924-.313 1.751-.944 2.48-1.895.73-.95 1.094-2.116 1.094-3.496 0-2.187-.644-3.698-1.933-4.531-1.289-.834-3.457-1.25-6.504-1.25h-6.367zm0 18.243h7.617c3.255 0 5.508-.502 6.758-1.504 1.25-1.003 1.875-2.559 1.875-4.668 0-2.24-.658-3.848-1.973-4.825-1.315-.976-3.731-1.464-7.246-1.464h-7.031z"/><path d="m168.694 175.323v41.485h-5.742v-16.172h-3.36c-1.953 0-3.437.312-4.453.937-1.015.625-2.487 2.683-4.414 6.172l-5 9.063h-7.148l6.211-11.172c1.901-3.412 3.789-5.339 5.664-5.781-3.281-.573-5.716-2.025-7.305-4.356-1.588-2.33-2.383-5.019-2.383-8.066 0-3.802 1.075-6.771 3.223-8.906 2.148-2.136 5.124-3.204 8.926-3.204zm-5.742 5.821h-8.203c-3.438 0-5.651.657-6.641 1.972-.99 1.316-1.484 2.832-1.484 4.551 0 2.5.735 4.323 2.207 5.469 1.471 1.146 4.056 1.719 7.754 1.719h6.367z"/><path d="m184.983 198.058v-5.508c2.448-.026 4.108-.143 4.981-.352.872-.208 1.699-.826 2.48-1.855s1.172-2.337 1.172-3.926c0-1.927-.514-3.45-1.543-4.57s-2.363-1.68-4.004-1.68c-3.255 0-5.534 2.331-6.836 6.992l-5.469-1.093c1.745-7.787 5.873-11.68 12.383-11.68 3.594 0 6.426 1.204 8.496 3.613 2.071 2.409 3.106 5.306 3.106 8.692 0 3.255-1.341 5.95-4.024 8.086 3.412 2.265 5.117 5.742 5.117 10.429 0 3.724-1.106 6.745-3.32 9.063-2.213 2.317-5.312 3.476-9.297 3.476-7.734 0-12.239-4.205-13.515-12.617l5.39-1.406c.495 2.63 1.498 4.681 3.008 6.152 1.51 1.472 3.229 2.207 5.156 2.207 1.979 0 3.607-.67 4.883-2.011 1.276-1.342 1.914-3.054 1.914-5.137 0-1.667-.403-3.08-1.211-4.238-.807-1.159-1.66-1.895-2.558-2.207-.899-.313-2.377-.469-4.434-.469z"/><path d="m207.366 175.323h5.742v16.211h7.344c5.26 0 9.049 1.237 11.367 3.711s3.477 5.469 3.477 8.985c0 3.333-1.049 6.263-3.145 8.789s-5.553 3.789-10.371 3.789h-14.414zm5.742 35.704h6.055c4.401 0 7.2-.704 8.398-2.11s1.797-2.956 1.797-4.648c0-2.214-.69-3.92-2.07-5.117-1.38-1.198-3.828-1.797-7.344-1.797h-6.836z"/></g></svg>