<svg clip-rule="evenodd" fill-rule="evenodd" stroke-miterlimit="22.926" viewBox="0 0 297 438" xmlns="http://www.w3.org/2000/svg"><path d="m28.238 6.506h239.999c11.958 0 21.732 9.773 21.732 21.729v381.188c0 11.955-9.774 21.729-21.732 21.729h-239.999c-11.958 0-21.732-9.774-21.732-21.729v-381.188c0-11.956 9.774-21.729 21.732-21.729z" fill="#fff" stroke="#000" stroke-width=".57"/><path d="m49.764 103.715h196.947c9.154 0 16.641 7.491 16.641 16.642v196.946c0 9.149-7.487 16.641-16.641 16.641h-196.947c-9.153 0-16.641-7.492-16.641-16.641v-196.946c0-9.151 7.488-16.642 16.641-16.642m-21.385-87.915h239.717c6.863 0 12.483 5.618 12.483 12.484v381.09c0 6.866-5.62 12.485-12.483 12.485h-239.717c-6.863 0-12.483-5.619-12.483-12.485v-381.09c0-6.866 5.62-12.484 12.483-12.484" fill="#0099e2"/><path d="m48.445 275.532c11.315 0 22.63 22.731 33.945 22.731 11.008 0 22.016-22.731 33.024-22.731 11.111 0 22.222 22.731 33.332 22.731 10.975 0 21.949-22.731 32.925-22.731 11.077 0 22.155 22.731 33.233 22.731 11.042 0 22.083-22.731 33.125-22.731v13.505c-11.042 0-22.083 22.73-33.125 22.73-11.078 0-22.156-22.73-33.233-22.73-10.976 0-21.95 22.73-32.925 22.73-11.11 0-22.221-22.73-33.332-22.73-11.008 0-22.016 22.73-33.024 22.73-11.315 0-22.63-22.73-33.945-22.73zm0-27.009c11.315 0 22.63 22.732 33.945 22.732 11.008 0 22.016-22.732 33.024-22.732 11.111 0 22.222 22.732 33.332 22.732 10.975 0 21.949-22.732 32.925-22.732 11.077 0 22.155 22.732 33.233 22.732 11.042 0 22.083-22.732 33.125-22.732v13.505c-11.042 0-22.083 22.731-33.125 22.731-11.078 0-22.156-22.731-33.233-22.731-10.976 0-21.95 22.731-32.925 22.731-11.11 0-22.221-22.731-33.332-22.731-11.008 0-22.016 22.731-33.024 22.731-11.315 0-22.63-22.731-33.945-22.731zm143.652-77.566c-.776 26.54-16.678 29.333-18.808 33.536-1.544 3.048-2.378 9.253 1.852 10.737 10.684 3.75 14.917.212 24.854 11.187 5.278 5.828 9.861 15.339 10.44 23.283.134 1.829.115 4.318.085 6.857-9.617-4.519-19.233-21.645-28.849-21.645-9.824 0-19.648 18.211-29.472 22.031-2.341.951-4.683.921-7.025-.028-9.92-3.885-19.84-22.003-29.76-22.003-9.463 0-18.926 16.799-28.389 21.514 2.165-9.721 7.019-30.08 14.877-35.972 10.701-8.025 33.337-1.175 32.161-10.362-1.044-8.153-13.358-4.842-17.66-10.007-4.06-4.872-1.314-8.021-1.266-9.268.018-.494-1.169-1.712-.349-3.355.719-1.44-2-2.014-.875-4.307 1.783-3.632 1.39-1.391-2.752-6.133-3.897-4.461 5.887-9.387 5.938-12.554.046-2.861-.352-4.671-.469-7.331-.252-5.714.844-13.57 3.881-18.429 9.597-15.356 45.446-17.144 60.278-4.124 11.286 9.907 11.719 22.262 11.308 36.373"/></svg>