<svg clip-rule="evenodd" fill-rule="evenodd" stroke-miterlimit="22.926" viewBox="0 0 297 438" xmlns="http://www.w3.org/2000/svg"><path d="m28.238 6.506h239.999c11.958 0 21.732 9.773 21.732 21.729v381.188c0 11.955-9.774 21.729-21.732 21.729h-239.999c-11.958 0-21.732-9.774-21.732-21.729v-381.188c0-11.956 9.774-21.729 21.732-21.729z" fill="#fff" stroke="#000" stroke-width=".57"/><path d="m49.764 77.532h196.947c9.154 0 16.641 7.491 16.641 16.642v196.946c0 9.15-7.487 16.641-16.641 16.641h-196.947c-9.153 0-16.641-7.491-16.641-16.641v-196.946c0-9.151 7.488-16.642 16.641-16.642m-21.385-61.732h239.717c6.863 0 12.483 5.618 12.483 12.484v381.09c0 6.866-5.62 12.484-12.483 12.484h-239.717c-6.863 0-12.483-5.618-12.483-12.484v-381.09c0-6.866 5.62-12.484 12.483-12.484" fill="#0099e2"/><path d="m87.51 228.25-16.017-73.443h15.511l10.125 50.444 11.362-50.444h14.074l11.362 50.444 10.125-50.444h15.511l-16.016 73.443h-17.084l-10.935-47.609-10.934 47.609zm138.292-22.384c-2.052 13.976-14.579 23.961-28.012 24.219-20.035.385-30.276-16.89-30.276-37.885 0-12.416 2.862-22.052 8.57-28.928 5.709-6.859 13.216-10.529 22.525-10.295 14.24.357 23.13 8.376 26.798 23.27-4.239 1.289-8.48 2.578-12.721 3.867.061-.016-3.438-12.953-14.758-13.029-11.821-.08-15.526 12.013-15.554 24.935-.025 11.457 3.131 24.347 15.616 24.347 8.024 0 13.063-6.116 14.695-14.013z" fill-rule="nonzero"/></svg>