<svg clip-rule="evenodd" fill-rule="evenodd" stroke-miterlimit="22.926" viewBox="0 0 297 438" xmlns="http://www.w3.org/2000/svg"><path d="m28.238 6.506h239.999c11.958 0 21.732 9.773 21.732 21.729v381.188c0 11.955-9.774 21.729-21.732 21.729h-239.999c-11.958 0-21.732-9.774-21.732-21.729v-381.188c0-11.956 9.774-21.729 21.732-21.729z" fill="#fff" stroke="#000" stroke-width=".57"/><path d="m49.764 77.532h196.947c9.154 0 16.641 7.491 16.641 16.642v196.946c0 9.149-7.487 16.641-16.641 16.641h-196.947c-9.153 0-16.641-7.492-16.641-16.641v-196.946c0-9.151 7.488-16.642 16.641-16.642m-21.385-61.732h239.717c6.863 0 12.483 5.618 12.483 12.484v381.09c0 6.866-5.62 12.484-12.483 12.484h-239.717c-6.863 0-12.483-5.618-12.483-12.484v-381.09c0-6.866 5.62-12.484 12.483-12.484" fill="#0099e2"/><path d="m138.635 112.328h19.204v26.055h26.054v19.204h-26.054v26.054h-19.204v-26.054h-26.054v-19.204h26.054z" fill="#d72717"/><path d="m87.611 215.106h33.348c5.85 0 10.634 4.785 10.634 10.634v7.165h-54.616v-7.165c0-5.849 4.785-10.634 10.634-10.634m148.726-14.708c5.316 0 9.663 4.349 9.663 9.663v79.508h-19.326v-26.1h-156.874v26.1h-19.326v-97.367c0-5.315 4.348-9.662 9.662-9.662h.001c5.315 0 9.663 4.347 9.663 9.663v43.453h156.874v-25.596c0-5.314 4.348-9.662 9.663-9.662"/></svg>