<svg clip-rule="evenodd" fill-rule="evenodd" stroke-miterlimit="22.926" viewBox="0 0 297 438" xmlns="http://www.w3.org/2000/svg"><path d="m28.238 6.506h239.999c11.958 0 21.732 9.773 21.732 21.729v381.188c0 11.955-9.774 21.729-21.732 21.729h-239.999c-11.958 0-21.732-9.774-21.732-21.729v-381.188c0-11.956 9.774-21.729 21.732-21.729z" fill="#fff" stroke="#000" stroke-width=".57"/><path d="m49.764 77.532h196.947c9.154 0 16.641 7.491 16.641 16.642v196.946c0 9.149-7.487 16.641-16.641 16.641h-196.947c-9.153 0-16.641-7.492-16.641-16.641v-196.946c0-9.151 7.488-16.642 16.641-16.642m-21.385-61.732h239.717c6.863 0 12.483 5.618 12.483 12.484v381.09c0 6.866-5.62 12.484-12.483 12.484h-239.717c-6.863 0-12.483-5.618-12.483-12.484v-381.09c0-6.866 5.62-12.484 12.483-12.484" fill="#0099e2"/><path d="m135.25 116.607h9.229v10.188h-8.021c-4.717 0-5.501 3.197-5.501 6.832v11.079c0 10.441-1.529 18.682-11.027 28.888-14.42 15.497-28.834 30.874-43.132 46.5-16.758 18.526-3.953 50.607 23.024 50.607 16.87 0 30.54-13.67 30.54-30.54v-52.379c.268-8.514 5.874-13.512 14.117-13.512v9.441c-3.406 0-4.461 2.198-4.46 5.21l.014 51.24c0 22.208-18.003 40.212-40.211 40.212-34.896 0-53.097-41.461-29.665-67.33 13.996-15.313 28.215-30.546 42.008-46.028 7.622-8.554 9.069-15.189 9.096-22.564l.053-15.115c.026-7.083 7.119-12.41 13.936-12.729m30.206 4.297h53.748c2.543 0 4.623 2.08 4.623 4.623v45.063c0 2.542-2.08 4.623-4.623 4.623h-53.748c-2.543 0-4.624-2.081-4.624-4.623v-45.063c0-2.543 2.081-4.623 4.624-4.623m-7.823-17.731h69.393c5.594 0 10.171 4.578 10.171 10.171v168.004h-89.734v-168.004c0-5.593 4.576-10.171 10.17-10.171"/></svg>