<svg clip-rule="evenodd" fill-rule="evenodd" stroke-miterlimit="22.926" viewBox="0 0 297 438" xmlns="http://www.w3.org/2000/svg"><path d="m28.238 6.506h239.999c11.958 0 21.732 9.773 21.732 21.729v381.188c0 11.955-9.774 21.729-21.732 21.729h-239.999c-11.958 0-21.732-9.774-21.732-21.729v-381.188c0-11.956 9.774-21.729 21.732-21.729z" fill="#fff" stroke="#000" stroke-width=".57"/><path d="m49.764 77.532h196.947c9.154 0 16.641 7.491 16.641 16.642v196.946c0 9.149-7.487 16.641-16.641 16.641h-196.947c-9.153 0-16.641-7.492-16.641-16.641v-196.946c0-9.151 7.488-16.642 16.641-16.642m-21.385-61.732h239.717c6.863 0 12.483 5.618 12.483 12.484v381.09c0 6.866-5.62 12.484-12.483 12.484h-239.717c-6.863 0-12.483-5.618-12.483-12.484v-381.09c0-6.866 5.62-12.484 12.483-12.484" fill="#0099e2"/><path d="m179.936 134.28v14.556h-7.669c-3.541 0-7.925 3.272-9.408 6.345-4.35 9.011 3.805 20.223 3.805 23.796v100.893c0 10.091-8.257 18.348-18.349 18.348-10.091 0-18.347-8.257-18.347-18.348 0-9.636-.287-100.492.154-101.799 1.052-3.138 4.658-12.322 4.762-14.994.299-7.57-2.208-14.241-11.982-14.241h-9.385c-2.045 0-1.846.11-3.575-1.066-5.189-3.528-8.772-8.343-9.636-13.49h38.371v-11.959h-38.371c1.294-8.814 10.591-14.307 19.768-19.807 4.937-2.96 6.051-4.614 10.231-7.96h49.631v27.767h-22.06v11.959z"/></svg>