<svg clip-rule="evenodd" fill-rule="evenodd" stroke-miterlimit="22.926" viewBox="0 0 297 438" xmlns="http://www.w3.org/2000/svg"><path d="m28.238 6.506h239.999c11.958 0 21.732 9.773 21.732 21.729v381.188c0 11.955-9.774 21.729-21.732 21.729h-239.999c-11.958 0-21.732-9.774-21.732-21.729v-381.188c0-11.956 9.774-21.729 21.732-21.729z" fill="#fff" stroke="#000" stroke-width=".57"/><path d="m49.764 77.532h196.947c9.154 0 16.641 7.491 16.641 16.642v196.946c0 9.149-7.487 16.641-16.641 16.641h-196.947c-9.153 0-16.641-7.492-16.641-16.641v-196.946c0-9.151 7.488-16.642 16.641-16.642m-21.385-61.732h239.717c6.863 0 12.483 5.618 12.483 12.484v381.09c0 6.866-5.62 12.484-12.483 12.484h-239.717c-6.863 0-12.483-5.618-12.483-12.484v-381.09c0-6.866 5.62-12.484 12.483-12.484" fill="#0099e2"/><path d="m138.792 94.526h19.092v7.252c.174 2.949.937 5.157 3.671 7.769 5.016 4.797 11.787 1.579 15.401 3.543 7.971 4.332 7.191 10.316 7.191 18.561h-35.809-35.81c0-8.245-.779-14.229 7.191-18.561 3.615-1.964 10.385 1.254 15.402-3.543 2.732-2.611 3.496-4.818 3.671-7.765zm31.872 39.711h-5.016l4.465 49.417h5.015zm13.272 0h-5.016l53.515 155.727h5.015zm-71.196 0h5.015l-53.514 155.727h-5.015zm13.272 0h5.015l-4.464 49.417h-5.016zm19.818 0h5.016v49.417h-5.016zm51.267 89.305c4.026 0 7.321 3.294 7.321 7.321v25.774c0 4.029-3.295 7.324-7.321 7.324h-97.719c-4.026 0-7.322-3.295-7.322-7.324v-25.774c0-4.027 3.296-7.321 7.322-7.321l9.541-29.348c1.103-3.397 2.922-6.492 6.492-6.492h65.652c3.571 0 5.388 3.096 6.492 6.492zm-78.118-29.148h58.515c2.922 0 4.409 2.535 5.313 5.312l7.806 24.011h-84.751l7.409-24.011c.863-2.791 2.788-5.312 5.708-5.312m78.68 85.396v-13.849h-20.298v13.849c.001 5.605 4.544 10.148 10.15 10.148 5.605 0 10.148-4.543 10.148-10.148m-78.437 0c0 5.605-4.544 10.148-10.149 10.148s-10.148-4.543-10.149-10.148v-13.849h20.298z"/></svg>