<svg clip-rule="evenodd" fill-rule="evenodd" stroke-miterlimit="22.926" viewBox="0 0 297 438" xmlns="http://www.w3.org/2000/svg"><path d="m28.238 6.506h239.999c11.958 0 21.732 9.773 21.732 21.729v381.188c0 11.955-9.774 21.729-21.732 21.729h-239.999c-11.958 0-21.732-9.774-21.732-21.729v-381.188c0-11.956 9.774-21.729 21.732-21.729z" fill="#fff" stroke="#000" stroke-width=".57"/><path d="m49.764 77.532h196.947c9.154 0 16.641 7.491 16.641 16.642v196.946c0 9.149-7.487 16.641-16.641 16.641h-196.947c-9.153 0-16.641-7.492-16.641-16.641v-196.946c0-9.151 7.488-16.642 16.641-16.642m-21.385-61.732h239.717c6.863 0 12.483 5.618 12.483 12.484v381.09c0 6.866-5.62 12.484-12.483 12.484h-239.717c-6.863 0-12.483-5.618-12.483-12.484v-381.09c0-6.866 5.62-12.484 12.483-12.484" fill="#0099e2"/><path d="m217.72 106.629c8.44 8.189 12.272 19.894 12.149 31.559-.118 11.344-6.246 35.448-10.355 46.684-9.754 26.674-31.428 56.845-53.535 74.573-13.48 10.811-27.676 19.046-43.342 24.995-6.255 2.375-10.564 2.302-17.573 1.468-15.552-1.851-25.945-12.279-32.078-26.05l43.207-14.886c1.832 6.994 8.507 8.477 12.844 3.632 1.169-1.307 65.418-91.915 67.928-95.94 2.168-3.476 2.621-6.487.244-9.745-1.935-2.653-4.589-2.741-7.438-2.65v-45.702c7.914.595 11.836 1.025 18.815 5.212 3.059 1.835 6.402 4.201 9.134 6.85m-102.441 135.868-3.56-10.334c-1.491-4.326-6.251-6.647-10.579-5.156l-27.472 9.465c-4.327 1.491-6.648 6.251-5.157 10.578l3.561 10.334zm71.82-147.93h-10.929c-4.578 0-8.322 3.746-8.322 8.323v29.056c0 4.578 3.744 8.323 8.322 8.323h10.929z"/></svg>