<svg clip-rule="evenodd" fill-rule="evenodd" stroke-miterlimit="22.926" viewBox="0 0 297 438" xmlns="http://www.w3.org/2000/svg"><path d="m28.238 6.506h239.999c11.958 0 21.732 9.773 21.732 21.729v381.188c0 11.955-9.774 21.729-21.732 21.729h-239.999c-11.958 0-21.732-9.774-21.732-21.729v-381.188c0-11.956 9.774-21.729 21.732-21.729z" fill="#fff" stroke="#000" stroke-width=".57"/><path d="m49.764 77.532h196.947c9.154 0 16.641 7.491 16.641 16.642v196.946c0 9.149-7.487 16.641-16.641 16.641h-196.947c-9.153 0-16.641-7.492-16.641-16.641v-196.946c0-9.151 7.488-16.642 16.641-16.642m-21.385-61.732h239.717c6.863 0 12.483 5.618 12.483 12.484v381.09c0 6.866-5.62 12.484-12.483 12.484h-239.717c-6.863 0-12.483-5.618-12.483-12.484v-381.09c0-6.866 5.62-12.484 12.483-12.484" fill="#0099e2"/><path d="m123.753 169.303v111.854c0 5.303-4.092 9.246-9.924 9.246-5.085 0-9.246-4.161-9.246-9.246v-111.854c-7.725-3.045-11.577-10.595-11.577-19.368v-54.899h7.218v35.912c0 6.719 10.335 6.718 10.335 0v-35.912h7.217v35.912c0 6.719 10.336 6.718 10.336 0v-35.912h7.217v54.899c0 8.772-3.852 16.323-11.576 19.368m60.579-74.413h1.568c9.663 0 17.568 7.905 17.568 17.568v168.699c0 5.304-4.091 9.246-9.924 9.246-5.085 0-9.246-4.161-9.246-9.246v-70.308c-9.647-.019-17.533-7.917-17.533-17.567v-80.824c0-9.663 7.905-17.568 17.567-17.568"/></svg>