<svg clip-rule="evenodd" fill-rule="evenodd" stroke-miterlimit="22.926" viewBox="0 0 297 438" xmlns="http://www.w3.org/2000/svg"><path d="m28.238 6.506h239.999c11.958 0 21.732 9.773 21.732 21.729v381.188c0 11.955-9.774 21.729-21.732 21.729h-239.999c-11.958 0-21.732-9.774-21.732-21.729v-381.188c0-11.956 9.774-21.729 21.732-21.729z" fill="#fff" stroke="#000" stroke-width=".57"/><path d="m49.764 77.532h196.947c9.154 0 16.641 7.491 16.641 16.642v196.946c0 9.149-7.487 16.641-16.641 16.641h-196.947c-9.153 0-16.641-7.492-16.641-16.641v-196.946c0-9.151 7.488-16.642 16.641-16.642m-21.385-61.732h239.717c6.863 0 12.483 5.618 12.483 12.484v381.09c0 6.866-5.62 12.484-12.483 12.484h-239.717c-6.863 0-12.483-5.618-12.483-12.484v-381.09c0-6.866 5.62-12.484 12.483-12.484" fill="#0099e2"/><path d="m201.182 103.089c5.298 0 9.633 4.335 9.633 9.633 0 5.299-4.335 9.633-9.633 9.633h-17.094v16.574h8.74c2.542 0 4.624 2.08 4.624 4.623v6.554c0 3.305 2.704 6.009 6.009 6.009h32.025v-8.838c0-4.576 3.745-8.319 8.321-8.319h2.077v62.144h-2.077c-4.576 0-8.321-3.743-8.321-8.319v-8.839l-42.83.01c-6.642.057-8.512 8.92-17.877 8.92-9.756 0-11.468-9.526-19.316-10.741-1.74-.27-6.235-.179-8.185-.179-18.562 0-33.748 15.187-33.748 33.748v12.672h-27.522v-14.47c0-31.784 26.004-57.789 57.788-57.789h2.203c3.306 0 6.01-2.704 6.01-6.009v-6.554c0-2.543 2.081-4.623 4.623-4.623h8.741v-16.574h-17.094c-5.298 0-9.633-4.334-9.633-9.633 0-5.298 4.335-9.633 9.633-9.633zm-90.744 129.127h-5.001l7.063 57.612h5.001zm-21.147 0h5l-7.063 57.612h-5.001zm8.073 0h5v57.612h-5z"/></svg>