<svg clip-rule="evenodd" fill-rule="evenodd" stroke-linejoin="round" stroke-miterlimit="2" viewBox="0 0 284 143" xmlns="http://www.w3.org/2000/svg"><path d="m282.736 22.485c0-11.948-9.7-21.647-21.647-21.647h-236.875c-11.948 0-21.647 9.699-21.647 21.647v97.816c0 11.948 9.699 21.647 21.647 21.647h236.875c11.947 0 21.647-9.699 21.647-21.647z" fill="#fff"/><path d="m19.939 0c-5.224.141-10.185 2.213-13.926 5.892-3.853 3.789-6.013 8.895-6.013 14.307v101.965c0 5.383 2.026 10.545 5.814 14.385 3.644 3.695 8.475 5.732 13.635 5.873v-.004l244.073-.023v.004c5.225-.141 10.187-2.215 13.928-5.893 3.853-3.789 6.014-8.894 6.014-14.307v-101.966c0-5.412-2.161-10.519-6.014-14.307-3.741-3.679-8.703-5.751-13.928-5.892v.003l-243.583-.034v-.003zm243.583 4.461c4.062.137 7.925 1.744 10.837 4.609 3.005 2.955 4.681 6.944 4.681 11.163v101.966c0 4.219-1.676 8.209-4.681 11.165-2.912 2.863-6.775 4.47-10.837 4.609v.019l-244.073.024v-.02c-3.961-.136-7.686-1.693-10.491-4.537-2.972-3.013-4.535-7.078-4.535-11.295v-101.965c0-4.219 1.675-8.208 4.681-11.164 2.912-2.863 6.774-4.471 10.835-4.609v-.02l243.583.034z"/><g fill-rule="nonzero"><path d="m77.775 96.255v14.019h-43.398c.465-5.3 1.889-10.339 4.27-15.12 2.381-4.78 7.009-11.055 13.884-18.825 5.443-6.195 8.791-10.384 10.044-12.569 1.862-3.187 2.793-6.391 2.793-9.614 0-3.438-.77-6.034-2.31-7.788-1.539-1.755-3.562-2.632-6.069-2.632-5.478 0-8.432 4.1-8.862 12.3l-12.3-1.504c.752-8.021 2.981-13.911 6.687-17.671s8.639-5.64 14.797-5.64c6.768 0 11.871 2.203 15.308 6.607 3.438 4.404 5.156 9.453 5.156 15.146 0 3.223-.438 6.347-1.316 9.373-.877 3.026-2.229 6.069-4.055 9.131-1.826 3.061-4.87 6.973-9.131 11.736-3.974 4.476-6.49 7.43-7.546 8.862s-1.907 2.829-2.551 4.189z"/><path d="m86.315 90.025 12.354-1.558c.322 3.438 1.378 6.141 3.169 8.111 1.79 1.969 3.76 2.954 5.908 2.954 2.542 0 4.727-1.262 6.553-3.787 1.826-2.524 2.739-6.4 2.739-11.628 0-4.942-.904-8.594-2.712-10.957-1.809-2.364-4.109-3.545-6.902-3.545-3.545 0-6.732 1.915-9.561 5.747l-10.044-1.773 6.338-40.981h32.71v14.126h-23.31l-1.988 13.374c2.793-1.683 5.622-2.525 8.487-2.525 5.084 0 9.399 2.006 12.944 6.016 4.476 5.121 6.714 11.87 6.714 20.249 0 6.911-1.907 13.267-5.72 19.068-3.814 5.8-9.266 8.701-16.355 8.701-5.73 0-10.519-1.871-14.368-5.613s-6.168-9.068-6.956-15.979z"/><path d="m157.214 31.211c6.266 0 11.333 2.981 15.2 8.943s5.801 16.391 5.801 31.287c0 14.86-1.934 25.271-5.801 31.233s-8.916 8.943-15.147 8.943c-6.266 0-11.333-2.954-15.2-8.863-3.867-5.908-5.801-16.399-5.801-31.474 0-14.789 1.934-25.164 5.801-31.126s8.916-8.943 15.147-8.943zm0 12.515c-2.435 0-4.378 1.611-5.828 4.834s-2.175 10.85-2.175 22.881.725 19.649 2.175 22.854 3.393 4.807 5.828 4.807c2.47 0 4.422-1.611 5.854-4.834 1.433-3.223 2.149-10.832 2.149-22.827 0-12.031-.716-19.658-2.149-22.881-1.432-3.223-3.384-4.834-5.854-4.834z"/><path d="m189.44 110.274v-56.987h15.415l11.548 39.692 11.763-39.692h15.308v56.987h-10.689v-37.49l-11.333 37.49h-10.581l-10.742-37.49v37.49z"/></g></svg>