<svg clip-rule="evenodd" fill-rule="evenodd" stroke-linejoin="round" stroke-miterlimit="2" viewBox="0 0 284 143" xmlns="http://www.w3.org/2000/svg"><path d="m282.67 25.251c0-13.135-10.664-23.8-23.8-23.8h-233.385c-13.135 0-23.8 10.665-23.8 23.8v92.401c0 13.136 10.665 23.8 23.8 23.8h233.385c13.136 0 23.8-10.664 23.8-23.8z" fill="#fff"/><path d="m19.939 0c-5.224.141-10.185 2.213-13.926 5.892-3.853 3.789-6.013 8.895-6.013 14.307v101.965c0 5.383 2.026 10.545 5.814 14.385 3.644 3.695 8.475 5.732 13.635 5.873v-.004l244.073-.023v.004c5.225-.141 10.187-2.215 13.928-5.893 3.853-3.789 6.014-8.894 6.014-14.307v-101.966c0-5.412-2.161-10.519-6.014-14.307-3.741-3.679-8.703-5.751-13.928-5.892v.003l-243.583-.034v-.003zm243.583 4.461c4.062.137 7.925 1.744 10.837 4.609 3.005 2.955 4.681 6.944 4.681 11.163v101.966c0 4.219-1.676 8.209-4.681 11.165-2.912 2.863-6.775 4.47-10.837 4.609v.019l-244.073.024v-.02c-3.961-.136-7.686-1.693-10.491-4.537-2.972-3.013-4.535-7.078-4.535-11.295v-101.965c0-4.219 1.675-8.208 4.681-11.164 2.912-2.863 6.774-4.471 10.835-4.609v-.02l243.583.034z"/><g fill-rule="nonzero"><path d="m59.44 90.613 13.477-1.699c.351 3.75 1.504 6.699 3.457 8.847 1.953 2.149 4.101 3.223 6.445 3.223 2.774 0 5.156-1.377 7.149-4.131 1.992-2.754 2.988-6.982 2.988-12.685 0-5.391-.986-9.375-2.959-11.953-1.973-2.579-4.483-3.868-7.529-3.868-3.868 0-7.344 2.09-10.43 6.27l-10.957-1.934 6.914-44.707h35.684v15.41h-25.43l-2.168 14.59c3.047-1.836 6.133-2.754 9.258-2.754 5.547 0 10.254 2.188 14.121 6.563 4.883 5.586 7.324 12.949 7.324 22.09 0 7.539-2.08 14.472-6.24 20.8-4.16 6.329-10.108 9.493-17.842 9.493-6.25 0-11.475-2.041-15.674-6.123s-6.728-9.893-7.588-17.432z"/><path d="m136.784 26.453c6.836 0 12.363 3.252 16.582 9.756s6.328 17.881 6.328 34.131c0 16.21-2.109 27.568-6.328 34.072s-9.727 9.756-16.523 9.756c-6.836 0-12.364-3.223-16.582-9.668-4.219-6.446-6.329-17.891-6.329-34.336 0-16.133 2.11-27.451 6.329-33.955 4.218-6.504 9.726-9.756 16.523-9.756zm0 13.652c-2.656 0-4.775 1.758-6.357 5.274-1.582 3.515-2.373 11.836-2.373 24.961s.791 21.435 2.373 24.931 3.701 5.244 6.357 5.244c2.695 0 4.824-1.758 6.387-5.273 1.562-3.516 2.343-11.817 2.343-24.902 0-13.125-.781-21.446-2.343-24.961-1.563-3.516-3.692-5.274-6.387-5.274z"/><path d="m171.94 112.703v-62.168h16.817l12.597 43.301 12.832-43.301h16.7v62.168h-11.661v-40.899l-12.363 40.899h-11.543l-11.719-40.899v40.899z"/></g></svg>