<svg clip-rule="evenodd" fill-rule="evenodd" stroke-linejoin="round" stroke-miterlimit="2" viewBox="0 0 284 143" xmlns="http://www.w3.org/2000/svg"><path d="m282.736 22.485c0-11.948-9.7-21.647-21.647-21.647h-236.875c-11.948 0-21.647 9.699-21.647 21.647v97.816c0 11.948 9.699 21.647 21.647 21.647h236.875c11.947 0 21.647-9.699 21.647-21.647z" fill="#fff"/><path d="m220.018 99.211 47.741-27.986-47.741-27.985v18.276h-34.899v19.419h34.899zm43.505-94.751c8.597.292 15.517 7.13 15.517 15.772v101.966c0 8.644-6.92 15.482-15.517 15.773v.02l-244.074.025v-.021c-8.643-.297-15.025-7.254-15.025-15.831v-101.966c0-8.642 6.92-15.482 15.516-15.772v-.02l243.583.034v.02zm-243.583-4.46c-11.01.296-19.94 9.137-19.94 20.198v101.966c0 10.998 8.389 19.957 19.449 20.258v-.004l244.074-.023v.003c11.009-.296 19.941-9.136 19.941-20.2v-101.966c0-11.063-8.932-19.902-19.941-20.198v.003l-243.583-.034v-.003z"/><g fill-rule="nonzero"><path d="m45.043 68.141c-2.214-1.146-3.881-2.708-5-4.687-1.12-1.979-1.68-4.362-1.68-7.149 0-4.505 1.276-8.092 3.828-10.761 2.552-2.67 5.99-4.004 10.313-4.004 4.583 0 8.072 1.426 10.468 4.277 2.396 2.852 3.594 6.322 3.594 10.41 0 2.787-.579 5.202-1.738 7.246-1.159 2.045-2.741 3.601-4.746 4.668 2.682 1.302 4.687 3.132 6.015 5.489 1.328 2.356 1.993 5.254 1.993 8.691 0 3.542-.658 6.667-1.973 9.375s-3.132 4.779-5.449 6.211c-2.318 1.432-4.922 2.148-7.813 2.148-4.531 0-8.275-1.569-11.23-4.707-2.956-3.138-4.434-7.363-4.434-12.675 0-3.438.677-6.394 2.031-8.868s3.295-4.362 5.821-5.664zm1.836-11.054c0 2.239.527 3.958 1.582 5.156 1.054 1.198 2.389 1.797 4.004 1.797 1.64 0 2.994-.599 4.062-1.797s1.602-2.917 1.602-5.156c0-2.162-.528-3.842-1.582-5.039-1.055-1.198-2.377-1.797-3.965-1.797-1.667 0-3.034.605-4.102 1.816s-1.601 2.884-1.601 5.02zm-.821 24.531c0 3.073.651 5.443 1.953 7.109 1.302 1.667 2.865 2.5 4.688 2.5s3.353-.794 4.59-2.383c1.237-1.588 1.855-3.971 1.855-7.148 0-2.734-.631-4.896-1.894-6.484-1.263-1.589-2.819-2.383-4.668-2.383-1.823 0-3.366.801-4.629 2.402-1.263 1.602-1.895 3.731-1.895 6.387z"/><path d="m88.988 41.54c4.557 0 8.242 2.168 11.055 6.504 2.812 4.336 4.218 11.92 4.218 22.754 0 10.807-1.406 18.378-4.218 22.714-2.813 4.336-6.485 6.504-11.016 6.504-4.557 0-8.242-2.148-11.055-6.445-2.812-4.297-4.218-11.927-4.218-22.891 0-10.755 1.406-18.3 4.218-22.636 2.813-4.336 6.485-6.504 11.016-6.504zm0 9.101c-1.771 0-3.184 1.172-4.238 3.516-1.055 2.344-1.582 7.891-1.582 16.641s.527 14.29 1.582 16.621c1.054 2.33 2.467 3.496 4.238 3.496 1.797 0 3.216-1.172 4.258-3.516 1.041-2.344 1.562-7.877 1.562-16.601 0-8.75-.521-14.297-1.562-16.641-1.042-2.344-2.461-3.516-4.258-3.516z"/><path d="m112.425 99.04v-41.446h11.211l8.399 28.868 8.555-28.868h11.132v41.446h-7.773v-27.266l-8.242 27.266h-7.696l-7.812-27.266v27.266z"/></g></svg>