<svg clip-rule="evenodd" fill-rule="evenodd" stroke-linejoin="round" stroke-miterlimit="2" viewBox="0 0 284 143" xmlns="http://www.w3.org/2000/svg"><path d="m282.67 25.251c0-13.135-10.664-23.8-23.8-23.8h-233.385c-13.135 0-23.8 10.665-23.8 23.8v92.401c0 13.136 10.665 23.8 23.8 23.8h233.385c13.136 0 23.8-10.664 23.8-23.8z" fill="#fff"/><path d="m19.939 0c-5.224.141-10.185 2.213-13.926 5.892-3.853 3.789-6.013 8.895-6.013 14.307v101.965c0 5.383 2.026 10.545 5.814 14.385 3.644 3.695 8.475 5.732 13.635 5.873v-.004l244.073-.023v.004c5.225-.141 10.187-2.215 13.928-5.893 3.853-3.789 6.014-8.894 6.014-14.307v-101.966c0-5.412-2.161-10.519-6.014-14.307-3.741-3.679-8.703-5.751-13.928-5.892v.003l-243.583-.034v-.003zm243.583 4.461c4.062.137 7.925 1.744 10.837 4.609 3.005 2.955 4.681 6.944 4.681 11.163v101.966c0 4.219-1.676 8.209-4.681 11.165-2.912 2.863-6.775 4.47-10.837 4.609v.019l-244.073.024v-.02c-3.961-.136-7.686-1.693-10.491-4.537-2.972-3.013-4.535-7.078-4.535-11.295v-101.965c0-4.219 1.675-8.208 4.681-11.164 2.912-2.863 6.774-4.471 10.835-4.609v-.02l243.583.034z"/><g fill-rule="nonzero"><path d="m74.85 97.41v15.293h-47.343c.507-5.781 2.06-11.28 4.658-16.494 2.598-5.215 7.646-12.061 15.146-20.537 5.938-6.758 9.59-11.329 10.957-13.711 2.032-3.477 3.047-6.973 3.047-10.489 0-3.75-.84-6.582-2.519-8.496-1.68-1.914-3.887-2.871-6.621-2.871-5.977 0-9.2 4.473-9.668 13.418l-13.418-1.641c.82-8.75 3.252-15.175 7.295-19.277 4.043-4.101 9.423-6.152 16.142-6.152 7.383 0 12.949 2.402 16.699 7.207s5.625 10.312 5.625 16.523c0 3.516-.478 6.924-1.435 10.225s-2.432 6.621-4.424 9.961-5.312 7.607-9.961 12.803c-4.336 4.882-7.08 8.105-8.232 9.668-1.153 1.562-2.08 3.085-2.784 4.57z"/><path d="m106.784 26.453c6.836 0 12.363 3.252 16.582 9.756s6.328 17.881 6.328 34.131c0 16.21-2.109 27.568-6.328 34.072s-9.727 9.756-16.523 9.756c-6.836 0-12.364-3.223-16.582-9.668-4.219-6.446-6.329-17.891-6.329-34.336 0-16.133 2.11-27.451 6.329-33.955 4.218-6.504 9.726-9.756 16.523-9.756zm0 13.652c-2.656 0-4.775 1.758-6.357 5.274-1.582 3.515-2.373 11.836-2.373 24.961s.791 21.435 2.373 24.931 3.701 5.244 6.357 5.244c2.695 0 4.824-1.758 6.387-5.273 1.562-3.516 2.343-11.817 2.343-24.902 0-13.125-.781-21.446-2.343-24.961-1.563-3.516-3.692-5.274-6.387-5.274z"/><path d="m161.511 26.453c6.836 0 12.363 3.252 16.582 9.756 4.218 6.504 6.328 17.881 6.328 34.131 0 16.21-2.11 27.568-6.328 34.072-4.219 6.504-9.727 9.756-16.524 9.756-6.836 0-12.363-3.223-16.582-9.668-4.219-6.446-6.328-17.891-6.328-34.336 0-16.133 2.109-27.451 6.328-33.955s9.727-9.756 16.524-9.756zm0 13.652c-2.657 0-4.776 1.758-6.358 5.274-1.582 3.515-2.373 11.836-2.373 24.961s.791 21.435 2.373 24.931 3.701 5.244 6.358 5.244c2.695 0 4.824-1.758 6.386-5.273 1.563-3.516 2.344-11.817 2.344-24.902 0-13.125-.781-21.446-2.344-24.961-1.562-3.516-3.691-5.274-6.386-5.274z"/><path d="m196.667 112.703v-62.168h16.816l12.598 43.301 12.832-43.301h16.699v62.168h-11.66v-40.899l-12.363 40.899h-11.543l-11.719-40.899v40.899z"/></g></svg>