<svg clip-rule="evenodd" fill-rule="evenodd" stroke-linejoin="round" stroke-miterlimit="2" viewBox="0 0 284 143" xmlns="http://www.w3.org/2000/svg"><path d="m282.736 22.485c0-11.948-9.7-21.647-21.647-21.647h-236.875c-11.948 0-21.647 9.699-21.647 21.647v97.816c0 11.948 9.699 21.647 21.647 21.647h236.875c11.947 0 21.647-9.699 21.647-21.647z" fill="#fff"/><path d="m263.524 0c11.011.296 19.939 9.137 19.939 20.198v101.966c0 10.998-8.388 19.957-19.448 20.258v-.004l-244.074-.023v.002c-11.009-.295-19.941-9.135-19.941-20.199v-101.966c0-11.064 8.932-19.902 19.941-20.198v.003l243.583-.034v-.003zm-243.583 4.46c-8.597.291-15.518 7.13-15.518 15.772v101.966c0 8.644 6.921 15.482 15.518 15.773v.02l244.074.025v-.021c8.643-.297 15.025-7.254 15.025-15.831v-101.966c0-8.642-6.92-15.482-15.516-15.772v-.02l-243.583.033v.021zm43.505 94.751-47.742-27.986 47.742-27.985v18.276h34.9v19.419h-34.9z"/><g fill-rule="nonzero"><path d="m129.956 83.844 8.711-1.289c.234 2.709.976 4.779 2.226 6.211 1.25 1.433 2.722 2.149 4.414 2.149 1.849 0 3.412-.847 4.688-2.539 1.276-1.693 1.914-4.037 1.914-7.032 0-2.786-.612-4.974-1.836-6.562-1.224-1.589-2.708-2.383-4.453-2.383-1.146 0-2.513.273-4.102.82l.977-8.945c2.318.052 4.154-.573 5.508-1.875 1.328-1.302 1.992-3.138 1.992-5.508 0-1.979-.482-3.528-1.445-4.648-.964-1.12-2.201-1.68-3.711-1.68-1.511 0-2.819.645-3.926 1.934s-1.764 3.196-1.973 5.722l-8.32-1.718c.859-5.235 2.539-9.037 5.039-11.407 2.5-2.369 5.651-3.554 9.453-3.554 4.271 0 7.663 1.523 10.176 4.57s3.769 6.419 3.769 10.117c0 2.5-.566 4.753-1.699 6.758s-2.832 3.763-5.097 5.273c2.63.704 4.772 2.253 6.425 4.649 1.654 2.396 2.481 5.39 2.481 8.984 0 5.235-1.556 9.564-4.668 12.989-3.112 3.424-6.817 5.136-11.113 5.136-4.115 0-7.598-1.445-10.45-4.336-2.851-2.89-4.511-6.836-4.98-11.836z"/><path d="m166.909 84.313 8.984-1.133c.235 2.5 1.003 4.466 2.305 5.899 1.302 1.432 2.734 2.148 4.297 2.148 1.849 0 3.437-.918 4.766-2.754 1.328-1.836 1.992-4.655 1.992-8.457 0-3.594-.658-6.25-1.973-7.969-1.315-1.718-2.988-2.578-5.019-2.578-2.579 0-4.896 1.394-6.954 4.18l-7.304-1.289 4.609-29.805h23.789v10.274h-16.953l-1.445 9.726c2.031-1.224 4.088-1.836 6.172-1.836 3.698 0 6.836 1.459 9.414 4.375 3.255 3.724 4.883 8.633 4.883 14.727 0 5.026-1.387 9.648-4.161 13.867-2.773 4.219-6.738 6.328-11.894 6.328-4.167 0-7.65-1.36-10.449-4.082-2.8-2.721-4.486-6.595-5.059-11.621z"/><path d="m205.425 99.04v-41.446h11.211l8.398 28.868 8.555-28.868h11.133v41.446h-7.774v-27.266l-8.242 27.266h-7.695l-7.813-27.266v27.266z"/></g></svg>