<svg clip-rule="evenodd" fill-rule="evenodd" stroke-linejoin="round" stroke-miterlimit="2" viewBox="0 0 284 143" xmlns="http://www.w3.org/2000/svg"><path d="m282.736 22.485c0-11.948-9.7-21.647-21.647-21.647h-236.875c-11.948 0-21.647 9.699-21.647 21.647v97.816c0 11.948 9.699 21.647 21.647 21.647h236.875c11.947 0 21.647-9.699 21.647-21.647z" fill="#fff"/><path d="m263.524 0c11.011.296 19.939 9.137 19.939 20.198v101.966c0 10.998-8.388 19.957-19.448 20.258v-.004l-244.074-.023v.002c-11.009-.295-19.941-9.135-19.941-20.199v-101.966c0-11.064 8.932-19.902 19.941-20.198v.003l243.583-.034v-.003zm-243.583 4.46c-8.597.291-15.518 7.13-15.518 15.772v101.966c0 8.644 6.921 15.482 15.518 15.773v.02l244.074.025v-.021c8.643-.297 15.025-7.254 15.025-15.831v-101.966c0-8.642-6.92-15.482-15.516-15.772v-.02l-243.583.033v.021zm43.505 94.751-47.742-27.986 47.742-27.985v18.276h34.9v19.419h-34.9z"/><g fill-rule="nonzero"><path d="m111.714 83.844 8.711-1.289c.234 2.709.976 4.779 2.226 6.211 1.25 1.433 2.722 2.149 4.414 2.149 1.849 0 3.412-.847 4.688-2.539 1.276-1.693 1.914-4.037 1.914-7.032 0-2.786-.612-4.974-1.836-6.562-1.224-1.589-2.708-2.383-4.453-2.383-1.146 0-2.513.273-4.102.82l.977-8.945c2.317.052 4.153-.573 5.508-1.875 1.328-1.302 1.992-3.138 1.992-5.508 0-1.979-.482-3.528-1.446-4.648-.963-1.12-2.2-1.68-3.71-1.68-1.511 0-2.819.645-3.926 1.934s-1.765 3.196-1.973 5.722l-8.32-1.718c.859-5.235 2.539-9.037 5.039-11.407 2.5-2.369 5.651-3.554 9.453-3.554 4.271 0 7.663 1.523 10.176 4.57s3.769 6.419 3.769 10.117c0 2.5-.566 4.753-1.699 6.758s-2.832 3.763-5.098 5.273c2.631.704 4.773 2.253 6.426 4.649 1.654 2.396 2.481 5.39 2.481 8.984 0 5.235-1.556 9.564-4.668 12.989-3.112 3.424-6.817 5.136-11.114 5.136-4.114 0-7.597-1.445-10.449-4.336-2.851-2.89-4.512-6.836-4.98-11.836z"/><path d="m163.745 41.54c4.557 0 8.242 2.168 11.055 6.504 2.812 4.336 4.218 11.92 4.218 22.753 0 10.808-1.406 18.379-4.218 22.715-2.813 4.336-6.485 6.504-11.016 6.504-4.557 0-8.242-2.148-11.055-6.445-2.812-4.297-4.218-11.927-4.218-22.891 0-10.755 1.406-18.3 4.218-22.636 2.813-4.336 6.485-6.504 11.016-6.504zm0 9.101c-1.771 0-3.184 1.172-4.238 3.516-1.055 2.344-1.582 7.89-1.582 16.64s.527 14.291 1.582 16.622c1.054 2.33 2.467 3.496 4.238 3.496 1.797 0 3.216-1.172 4.258-3.516 1.041-2.344 1.562-7.878 1.562-16.602 0-8.75-.521-14.296-1.562-16.64-1.042-2.344-2.461-3.516-4.258-3.516z"/><path d="m200.229 41.54c4.558 0 8.243 2.168 11.055 6.504 2.813 4.336 4.219 11.92 4.219 22.753 0 10.808-1.406 18.379-4.219 22.715-2.812 4.336-6.484 6.504-11.016 6.504-4.557 0-8.242-2.148-11.054-6.445-2.813-4.297-4.219-11.927-4.219-22.891 0-10.755 1.406-18.3 4.219-22.636 2.812-4.336 6.484-6.504 11.015-6.504zm0 9.101c-1.77 0-3.183 1.172-4.238 3.516s-1.582 7.89-1.582 16.64.527 14.291 1.582 16.622c1.055 2.33 2.468 3.496 4.238 3.496 1.797 0 3.216-1.172 4.258-3.516s1.563-7.878 1.563-16.602c0-8.75-.521-14.296-1.563-16.64s-2.461-3.516-4.258-3.516z"/><path d="m223.667 99.04v-41.446h11.211l8.398 28.868 8.555-28.868h11.133v41.446h-7.774v-27.266l-8.242 27.266h-7.695l-7.813-27.266v27.266z"/></g></svg>