<svg clip-rule="evenodd" fill-rule="evenodd" stroke-linejoin="round" stroke-miterlimit="2" viewBox="0 0 284 143" xmlns="http://www.w3.org/2000/svg"><path d="m282.736 22.485c0-11.948-9.7-21.647-21.647-21.647h-236.875c-11.948 0-21.647 9.699-21.647 21.647v97.816c0 11.948 9.699 21.647 21.647 21.647h236.875c11.947 0 21.647-9.699 21.647-21.647z" fill="#fff"/><path d="m19.939 0c-5.224.141-10.185 2.213-13.926 5.892-3.853 3.789-6.013 8.895-6.013 14.307v101.965c0 5.383 2.026 10.545 5.814 14.385 3.644 3.695 8.475 5.732 13.635 5.873v-.004l244.073-.023v.004c5.225-.141 10.187-2.215 13.928-5.893 3.853-3.789 6.014-8.894 6.014-14.307v-101.966c0-5.412-2.161-10.519-6.014-14.307-3.741-3.679-8.703-5.751-13.928-5.892v.003l-243.583-.034v-.003zm243.583 4.461c4.062.137 7.925 1.744 10.837 4.609 3.005 2.955 4.681 6.944 4.681 11.163v101.966c0 4.219-1.676 8.209-4.681 11.165-2.912 2.863-6.775 4.47-10.837 4.609v.019l-244.073.024v-.02c-3.961-.136-7.686-1.693-10.491-4.537-2.972-3.013-4.535-7.078-4.535-11.295v-101.965c0-4.219 1.675-8.208 4.681-11.164 2.912-2.863 6.774-4.471 10.835-4.609v-.02l243.583.034z"/><g fill-rule="nonzero"><path d="m79.401 112.499v-17.285h-28.828v-14.414l30.527-54.551h11.368v54.493h8.73v14.472h-8.73v17.285zm0-31.757v-29.356l-16.172 29.356z"/><path d="m107.878 90.41 13.476-1.7c.352 3.75 1.504 6.7 3.457 8.848s4.102 3.223 6.446 3.223c2.773 0 5.156-1.377 7.148-4.131s2.988-6.983 2.988-12.686c0-5.39-.986-9.375-2.959-11.953-1.972-2.578-4.482-3.867-7.529-3.867-3.867 0-7.344 2.09-10.43 6.27l-10.957-1.934 6.914-44.707h35.684v15.41h-25.43l-2.168 14.59c3.047-1.836 6.133-2.754 9.258-2.754 5.547 0 10.254 2.187 14.121 6.562 4.883 5.586 7.324 12.95 7.324 22.09 0 7.539-2.08 14.473-6.24 20.801s-10.107 9.492-17.842 9.492c-6.25 0-11.474-2.041-15.673-6.123-4.2-4.082-6.729-9.892-7.588-17.431z"/><path d="m165.651 112.499v-62.168h16.817l12.597 43.301 12.832-43.301h16.699v62.168h-11.66v-40.898l-12.363 40.898h-11.543l-11.719-40.898v40.898z"/></g></svg>