<svg clip-rule="evenodd" fill-rule="evenodd" stroke-linejoin="round" stroke-miterlimit="2" viewBox="0 0 284 143" xmlns="http://www.w3.org/2000/svg"><path d="m282.736 22.485c0-11.948-9.7-21.647-21.647-21.647h-236.875c-11.948 0-21.647 9.699-21.647 21.647v97.816c0 11.948 9.699 21.647 21.647 21.647h236.875c11.947 0 21.647-9.699 21.647-21.647z" fill="#fff"/><path d="m19.939 0c-5.224.141-10.185 2.213-13.926 5.892-3.853 3.789-6.013 8.895-6.013 14.307v101.965c0 5.383 2.026 10.545 5.814 14.385 3.644 3.695 8.475 5.732 13.635 5.873v-.004l244.073-.023v.004c5.225-.141 10.187-2.215 13.928-5.893 3.853-3.789 6.014-8.894 6.014-14.307v-101.966c0-5.412-2.161-10.519-6.014-14.307-3.741-3.679-8.703-5.751-13.928-5.892v.003l-243.583-.034v-.003zm243.583 4.461c4.062.137 7.925 1.744 10.837 4.609 3.005 2.955 4.681 6.944 4.681 11.163v101.966c0 4.219-1.676 8.209-4.681 11.165-2.912 2.863-6.775 4.47-10.837 4.609v.019l-244.073.024v-.02c-3.961-.136-7.686-1.693-10.491-4.537-2.972-3.013-4.535-7.078-4.535-11.295v-101.965c0-4.219 1.675-8.208 4.681-11.164 2.912-2.863 6.774-4.471 10.835-4.609v-.02l243.583.034z"/><g fill-rule="nonzero"><path d="m52.448 89.706 13.066-1.933c.352 4.062 1.465 7.168 3.34 9.316 1.875 2.149 4.082 3.223 6.621 3.223 2.774 0 5.118-1.27 7.032-3.809s2.871-6.054 2.871-10.547c0-4.179-.918-7.46-2.754-9.843s-4.063-3.574-6.68-3.574c-1.719 0-3.769.41-6.152 1.23l1.465-13.418c3.476.078 6.23-.859 8.261-2.812 1.992-1.954 2.989-4.708 2.989-8.262 0-2.969-.723-5.293-2.168-6.973-1.446-1.68-3.301-2.519-5.567-2.519-2.265 0-4.228.966-5.888 2.9-1.661 1.934-2.647 4.795-2.959 8.584l-12.481-2.578c1.289-7.852 3.809-13.555 7.559-17.11 3.75-3.554 8.476-5.332 14.179-5.332 6.407 0 11.494 2.286 15.264 6.856s5.654 9.629 5.654 15.176c0 3.75-.849 7.129-2.549 10.136-1.699 3.008-4.248 5.645-7.646 7.911 3.945 1.054 7.158 3.378 9.639 6.972 2.48 3.594 3.72 8.086 3.72 13.477 0 7.851-2.334 14.346-7.002 19.482-4.668 5.137-10.224 7.705-16.669 7.705-6.172 0-11.397-2.168-15.674-6.504-4.278-4.336-6.768-10.254-7.471-17.754z"/><path d="m130.495 26.249c6.836 0 12.363 3.252 16.582 9.756s6.328 17.881 6.328 34.131c0 16.211-2.109 27.569-6.328 34.072-4.219 6.504-9.727 9.756-16.524 9.756-6.835 0-12.363-3.222-16.582-9.668-4.218-6.445-6.328-17.89-6.328-34.336 0-16.132 2.11-27.451 6.328-33.955 4.219-6.504 9.727-9.756 16.524-9.756zm0 13.653c-2.656 0-4.776 1.758-6.358 5.273-1.582 3.516-2.373 11.836-2.373 24.961s.791 21.436 2.373 24.932 3.702 5.244 6.358 5.244c2.695 0 4.824-1.758 6.387-5.273 1.562-3.516 2.343-11.817 2.343-24.903 0-13.125-.781-21.445-2.343-24.961-1.563-3.515-3.692-5.273-6.387-5.273z"/><path d="m165.651 112.499v-62.168h16.817l12.597 43.301 12.832-43.301h16.699v62.168h-11.66v-40.898l-12.363 40.898h-11.543l-11.719-40.898v40.898z"/></g></svg>