<svg clip-rule="evenodd" fill-rule="evenodd" stroke-linejoin="round" stroke-miterlimit="2" viewBox="0 0 284 143" xmlns="http://www.w3.org/2000/svg"><path d="m282.736 22.485c0-11.948-9.7-21.647-21.647-21.647h-236.875c-11.948 0-21.647 9.699-21.647 21.647v97.816c0 11.948 9.699 21.647 21.647 21.647h236.875c11.947 0 21.647-9.699 21.647-21.647z" fill="#fff"/><path d="m19.939 0c-5.224.141-10.185 2.213-13.926 5.892-3.853 3.789-6.013 8.895-6.013 14.307v101.965c0 5.383 2.026 10.545 5.814 14.385 3.644 3.695 8.475 5.732 13.635 5.873v-.004l244.073-.023v.004c5.225-.141 10.187-2.215 13.928-5.893 3.853-3.789 6.014-8.894 6.014-14.307v-101.966c0-5.412-2.161-10.519-6.014-14.307-3.741-3.679-8.703-5.751-13.928-5.892v.003l-243.583-.034v-.003zm243.583 4.461c4.062.137 7.925 1.744 10.837 4.609 3.005 2.955 4.681 6.944 4.681 11.163v101.966c0 4.219-1.676 8.209-4.681 11.165-2.912 2.863-6.775 4.47-10.837 4.609v.019l-244.073.024v-.02c-3.961-.136-7.686-1.693-10.491-4.537-2.972-3.013-4.535-7.078-4.535-11.295v-101.965c0-4.219 1.675-8.208 4.681-11.164 2.912-2.863 6.774-4.471 10.835-4.609v-.02l243.583.034z"/><g fill-rule="nonzero"><path d="m98.561 97.206v15.293h-47.343c.507-5.781 2.06-11.279 4.658-16.494 2.597-5.215 7.646-12.06 15.146-20.537 5.938-6.758 9.59-11.328 10.957-13.711 2.031-3.476 3.047-6.972 3.047-10.488 0-3.75-.84-6.582-2.519-8.496-1.68-1.914-3.887-2.871-6.622-2.871-5.976 0-9.199 4.472-9.667 13.418l-13.418-1.641c.82-8.75 3.251-15.176 7.294-19.277 4.043-4.102 9.424-6.153 16.143-6.153 7.383 0 12.949 2.403 16.699 7.207 3.75 4.805 5.625 10.313 5.625 16.524 0 3.516-.478 6.924-1.435 10.225-.957 3.3-2.432 6.621-4.424 9.96-1.992 3.34-5.313 7.608-9.961 12.803-4.336 4.883-7.08 8.106-8.232 9.668-1.153 1.563-2.081 3.086-2.784 4.57z"/><path d="m130.495 26.249c6.836 0 12.363 3.252 16.582 9.756s6.328 17.881 6.328 34.131c0 16.211-2.109 27.569-6.328 34.072-4.219 6.504-9.727 9.756-16.524 9.756-6.835 0-12.363-3.222-16.582-9.668-4.218-6.445-6.328-17.89-6.328-34.336 0-16.132 2.11-27.451 6.328-33.955 4.219-6.504 9.727-9.756 16.524-9.756zm0 13.653c-2.656 0-4.776 1.758-6.358 5.273-1.582 3.516-2.373 11.836-2.373 24.961s.791 21.436 2.373 24.932 3.702 5.244 6.358 5.244c2.695 0 4.824-1.758 6.387-5.273 1.562-3.516 2.343-11.817 2.343-24.903 0-13.125-.781-21.445-2.343-24.961-1.563-3.515-3.692-5.273-6.387-5.273z"/><path d="m165.651 112.499v-62.168h16.817l12.597 43.301 12.832-43.301h16.699v62.168h-11.66v-40.898l-12.363 40.898h-11.543l-11.719-40.898v40.898z"/></g></svg>