<svg clip-rule="evenodd" fill-rule="evenodd" stroke-linejoin="round" stroke-miterlimit="2" viewBox="0 0 284 143" xmlns="http://www.w3.org/2000/svg"><path d="m282.736 22.485c0-11.948-9.7-21.647-21.647-21.647h-236.875c-11.948 0-21.647 9.699-21.647 21.647v97.816c0 11.948 9.699 21.647 21.647 21.647h236.875c11.947 0 21.647-9.699 21.647-21.647z" fill="#fff"/><path d="m19.939 0c-5.224.141-10.185 2.213-13.926 5.892-3.853 3.789-6.013 8.895-6.013 14.307v101.965c0 5.383 2.026 10.545 5.814 14.385 3.644 3.695 8.475 5.732 13.635 5.873v-.004l244.073-.023v.004c5.225-.141 10.187-2.215 13.928-5.893 3.853-3.789 6.014-8.894 6.014-14.307v-101.966c0-5.412-2.161-10.519-6.014-14.307-3.741-3.679-8.703-5.751-13.928-5.892v.003l-243.583-.034v-.003zm243.583 4.461c4.062.137 7.925 1.744 10.837 4.609 3.005 2.955 4.681 6.944 4.681 11.163v101.966c0 4.219-1.676 8.209-4.681 11.165-2.912 2.863-6.775 4.47-10.837 4.609v.019l-244.073.024v-.02c-3.961-.136-7.686-1.693-10.491-4.537-2.972-3.013-4.535-7.078-4.535-11.295v-101.965c0-4.219 1.675-8.208 4.681-11.164 2.912-2.863 6.774-4.471 10.835-4.609v-.02l243.583.034z"/><g fill-rule="nonzero"><path d="m70.866 66.355c-3.32-1.719-5.82-4.062-7.5-7.031s-2.519-6.543-2.519-10.723c0-6.758 1.914-12.138 5.742-16.142s8.984-6.006 15.468-6.006c6.875 0 12.11 2.138 15.704 6.416 3.593 4.277 5.39 9.482 5.39 15.615 0 4.18-.869 7.803-2.607 10.869-1.738 3.067-4.112 5.401-7.119 7.002 4.023 1.953 7.031 4.697 9.023 8.233 1.992 3.535 2.988 7.88 2.988 13.037 0 5.312-.986 10-2.959 14.062-1.972 4.063-4.697 7.168-8.173 9.317-3.477 2.148-7.383 3.222-11.719 3.222-6.797 0-12.412-2.353-16.846-7.06-4.433-4.707-6.65-11.045-6.65-19.014 0-5.156 1.015-9.59 3.047-13.301 2.031-3.711 4.941-6.543 8.73-8.496zm2.754-16.582c0 3.359.791 5.938 2.373 7.734 1.582 1.797 3.584 2.696 6.006 2.696 2.461 0 4.492-.899 6.094-2.696 1.601-1.796 2.402-4.375 2.402-7.734 0-3.242-.791-5.762-2.373-7.558-1.582-1.797-3.565-2.696-5.947-2.696-2.5 0-4.551.908-6.153 2.725-1.601 1.816-2.402 4.326-2.402 7.529zm-1.231 36.797c0 4.609.977 8.164 2.93 10.664s4.297 3.75 7.031 3.75c2.735 0 5.03-1.191 6.885-3.574 1.856-2.383 2.783-5.957 2.783-10.723 0-4.101-.947-7.344-2.841-9.726-1.895-2.383-4.229-3.575-7.002-3.575-2.735 0-5.049 1.202-6.944 3.604-1.894 2.402-2.842 5.596-2.842 9.58z"/><path d="m136.784 26.453c6.836 0 12.363 3.252 16.582 9.756s6.328 17.881 6.328 34.131c0 16.21-2.109 27.568-6.328 34.072s-9.727 9.756-16.523 9.756c-6.836 0-12.364-3.223-16.582-9.668-4.219-6.446-6.329-17.891-6.329-34.336 0-16.133 2.11-27.451 6.329-33.955 4.218-6.504 9.726-9.756 16.523-9.756zm0 13.652c-2.656 0-4.775 1.758-6.357 5.274-1.582 3.515-2.373 11.836-2.373 24.961s.791 21.435 2.373 24.931 3.701 5.244 6.357 5.244c2.695 0 4.824-1.758 6.387-5.273 1.562-3.516 2.343-11.817 2.343-24.902 0-13.125-.781-21.446-2.343-24.961-1.563-3.516-3.692-5.274-6.387-5.274z"/><path d="m171.94 112.703v-62.168h16.817l12.597 43.301 12.832-43.301h16.7v62.168h-11.661v-40.899l-12.363 40.899h-11.543l-11.719-40.899v40.899z"/></g></svg>