<svg clip-rule="evenodd" fill-rule="evenodd" stroke-linejoin="round" stroke-miterlimit="2" viewBox="0 0 284 143" xmlns="http://www.w3.org/2000/svg"><path d="m282.736 22.485c0-11.948-9.7-21.647-21.647-21.647h-236.875c-11.948 0-21.647 9.699-21.647 21.647v97.816c0 11.948 9.699 21.647 21.647 21.647h236.875c11.947 0 21.647-9.699 21.647-21.647z" fill="#fff"/><path d="m19.939 0c-5.224.141-10.185 2.213-13.926 5.892-3.853 3.789-6.013 8.895-6.013 14.307v101.965c0 5.383 2.026 10.545 5.814 14.385 3.644 3.695 8.475 5.732 13.635 5.873v-.004l244.073-.023v.004c5.225-.141 10.187-2.215 13.928-5.893 3.853-3.789 6.014-8.894 6.014-14.307v-101.966c0-5.412-2.161-10.519-6.014-14.307-3.741-3.679-8.703-5.751-13.928-5.892v.003l-243.583-.034v-.003zm243.583 4.461c4.062.137 7.925 1.744 10.837 4.609 3.005 2.955 4.681 6.944 4.681 11.163v101.966c0 4.219-1.676 8.209-4.681 11.165-2.912 2.863-6.775 4.47-10.837 4.609v.019l-244.073.024v-.02c-3.961-.136-7.686-1.693-10.491-4.537-2.972-3.013-4.535-7.078-4.535-11.295v-101.965c0-4.219 1.675-8.208 4.681-11.164 2.912-2.863 6.774-4.471 10.835-4.609v-.02l243.583.034z"/><g fill-rule="nonzero"><path d="m102.966 50.816-11.978 1.611c-.573-5.872-2.918-8.808-7.036-8.808-2.686 0-4.915 1.468-6.687 4.404s-2.891 8.862-3.357 17.778c1.54-2.22 3.259-3.885 5.156-4.995 1.898-1.11 3.993-1.665 6.285-1.665 5.048 0 9.453 2.354 13.212 7.063 3.76 4.709 5.64 10.966 5.64 18.772 0 8.307-1.987 14.824-5.962 19.551-3.974 4.726-8.898 7.09-14.77 7.09-6.446 0-11.79-3.071-16.033-9.212s-6.365-16.319-6.365-30.534c0-14.431 2.202-24.815 6.607-31.153 4.404-6.338 10.061-9.507 16.972-9.507 4.763 0 8.782 1.621 12.058 4.861 3.277 3.241 5.363 8.155 6.258 14.744zm-27.984 32.925c0 4.977.922 8.781 2.766 11.413 1.845 2.632 3.948 3.948 6.311 3.948 2.292 0 4.199-1.092 5.721-3.276 1.521-2.185 2.282-5.765 2.282-10.743 0-5.156-.823-8.916-2.47-11.279s-3.688-3.545-6.123-3.545c-2.364 0-4.369 1.128-6.016 3.384s-2.471 5.622-2.471 10.098z"/><path d="m111.398 90.025 12.354-1.558c.322 3.438 1.378 6.141 3.169 8.111 1.79 1.969 3.76 2.954 5.908 2.954 2.542 0 4.727-1.262 6.553-3.787 1.826-2.524 2.739-6.4 2.739-11.628 0-4.942-.904-8.594-2.712-10.957-1.809-2.364-4.109-3.545-6.902-3.545-3.545 0-6.732 1.915-9.561 5.747l-10.044-1.773 6.338-40.981h32.71v14.126h-23.31l-1.988 13.374c2.793-1.683 5.622-2.525 8.487-2.525 5.084 0 9.399 2.006 12.944 6.016 4.476 5.121 6.714 11.87 6.714 20.249 0 6.911-1.907 13.267-5.72 19.068-3.814 5.8-9.266 8.701-16.355 8.701-5.73 0-10.519-1.871-14.368-5.613s-6.168-9.068-6.956-15.979z"/><path d="m164.357 110.274v-56.987h15.415l11.548 39.692 11.763-39.692h15.308v56.987h-10.689v-37.49l-11.333 37.49h-10.581l-10.742-37.49v37.49z"/></g></svg>