<svg clip-rule="evenodd" fill-rule="evenodd" stroke-linejoin="round" stroke-miterlimit="2" viewBox="0 0 284 143" xmlns="http://www.w3.org/2000/svg"><path d="m282.67 25.251c0-13.135-10.664-23.8-23.8-23.8h-233.385c-13.135 0-23.8 10.665-23.8 23.8v92.401c0 13.136 10.665 23.8 23.8 23.8h233.385c13.136 0 23.8-10.664 23.8-23.8z" fill="#fff"/><path d="m19.939 0c-5.224.141-10.185 2.213-13.926 5.892-3.853 3.789-6.013 8.895-6.013 14.307v101.965c0 5.383 2.026 10.545 5.814 14.385 3.644 3.695 8.475 5.732 13.635 5.873v-.004l244.073-.023v.004c5.225-.141 10.187-2.215 13.928-5.893 3.853-3.789 6.014-8.894 6.014-14.307v-101.966c0-5.412-2.161-10.519-6.014-14.307-3.741-3.679-8.703-5.751-13.928-5.892v.003l-243.583-.034v-.003zm243.583 4.461c4.062.137 7.925 1.744 10.837 4.609 3.005 2.955 4.681 6.944 4.681 11.163v101.966c0 4.219-1.676 8.209-4.681 11.165-2.912 2.863-6.775 4.47-10.837 4.609v.019l-244.073.024v-.02c-3.961-.136-7.686-1.693-10.491-4.537-2.972-3.013-4.535-7.078-4.535-11.295v-101.965c0-4.219 1.675-8.208 4.681-11.164 2.912-2.863 6.774-4.471 10.835-4.609v-.02l243.583.034z"/><g fill-rule="nonzero"><path d="m58.737 89.91 13.067-1.934c.351 4.063 1.464 7.168 3.339 9.317 1.875 2.148 4.082 3.222 6.621 3.222 2.774 0 5.118-1.269 7.032-3.808s2.871-6.055 2.871-10.547c0-4.18-.918-7.461-2.754-9.844s-4.063-3.574-6.68-3.574c-1.719 0-3.769.41-6.152 1.23l1.465-13.418c3.476.078 6.23-.859 8.261-2.812 1.993-1.953 2.989-4.707 2.989-8.262 0-2.969-.723-5.293-2.168-6.973-1.446-1.679-3.301-2.519-5.567-2.519-2.265 0-4.228.967-5.888 2.9-1.66 1.934-2.647 4.795-2.959 8.584l-12.481-2.578c1.289-7.851 3.809-13.554 7.559-17.109s8.476-5.332 14.18-5.332c6.406 0 11.494 2.285 15.263 6.855 3.77 4.571 5.654 9.629 5.654 15.176 0 3.75-.849 7.129-2.548 10.137-1.7 3.008-4.248 5.644-7.647 7.91 3.945 1.055 7.158 3.379 9.639 6.973 2.48 3.593 3.721 8.086 3.721 13.476 0 7.852-2.334 14.346-7.002 19.483-4.668 5.136-10.225 7.705-16.67 7.705-6.172 0-11.397-2.168-15.674-6.504s-6.768-10.254-7.471-17.754z"/><path d="m114.167 90.613 13.476-1.699c.352 3.75 1.504 6.699 3.457 8.847 1.954 2.149 4.102 3.223 6.446 3.223 2.773 0 5.156-1.377 7.148-4.131s2.988-6.982 2.988-12.685c0-5.391-.986-9.375-2.959-11.953-1.972-2.579-4.482-3.868-7.529-3.868-3.867 0-7.344 2.09-10.43 6.27l-10.957-1.934 6.915-44.707h35.683v15.41h-25.43l-2.168 14.59c3.047-1.836 6.133-2.754 9.258-2.754 5.547 0 10.254 2.188 14.121 6.563 4.883 5.586 7.325 12.949 7.325 22.09 0 7.539-2.08 14.472-6.241 20.8-4.16 6.329-10.107 9.493-17.841 9.493-6.25 0-11.475-2.041-15.674-6.123s-6.729-9.893-7.588-17.432z"/><path d="m171.94 112.703v-62.168h16.817l12.597 43.301 12.832-43.301h16.7v62.168h-11.661v-40.899l-12.363 40.899h-11.543l-11.719-40.899v40.899z"/></g></svg>