<svg clip-rule="evenodd" fill-rule="evenodd" stroke-linejoin="round" stroke-miterlimit="2" viewBox="0 0 284 143" xmlns="http://www.w3.org/2000/svg"><path d="m282.736 22.485c0-11.948-9.7-21.647-21.647-21.647h-236.875c-11.948 0-21.647 9.699-21.647 21.647v97.816c0 11.948 9.699 21.647 21.647 21.647h236.875c11.947 0 21.647-9.699 21.647-21.647z" fill="#fff"/><path d="m220.018 99.211 47.741-27.986-47.741-27.985v18.276h-34.899v19.419h34.899zm43.505-94.751c8.597.292 15.517 7.13 15.517 15.772v101.966c0 8.644-6.92 15.482-15.517 15.773v.02l-244.074.025v-.021c-8.643-.297-15.025-7.254-15.025-15.831v-101.966c0-8.642 6.92-15.482 15.516-15.772v-.02l243.583.034v.02zm-243.583-4.46c-11.01.296-19.94 9.137-19.94 20.198v101.966c0 10.998 8.389 19.957 19.449 20.258v-.004l244.074-.023v.003c11.009-.296 19.941-9.136 19.941-20.2v-101.966c0-11.063-8.932-19.902-19.941-20.198v.003l-243.583-.034v-.003z"/><g fill-rule="nonzero"><path d="m67.777 55.798-8.711 1.171c-.417-4.27-2.122-6.406-5.117-6.406-1.953 0-3.574 1.068-4.863 3.203-1.289 2.136-2.103 6.446-2.442 12.93 1.12-1.615 2.37-2.826 3.75-3.633s2.904-1.211 4.571-1.211c3.671 0 6.875 1.713 9.609 5.137s4.101 7.975 4.101 13.652c0 6.042-1.445 10.782-4.335 14.219-2.891 3.438-6.472 5.156-10.743 5.156-4.687 0-8.574-2.233-11.66-6.699s-4.629-11.868-4.629-22.207c0-10.495 1.602-18.047 4.805-22.656 3.203-4.61 7.318-6.914 12.344-6.914 3.463 0 6.386 1.178 8.769 3.535s3.9 5.931 4.551 10.723zm-20.352 23.945c0 3.62.671 6.387 2.012 8.301s2.871 2.871 4.59 2.871c1.667 0 3.053-.795 4.16-2.383 1.107-1.589 1.66-4.193 1.66-7.813 0-3.75-.599-6.484-1.797-8.203-1.197-1.718-2.682-2.578-4.453-2.578-1.718 0-3.177.821-4.375 2.461-1.198 1.641-1.797 4.089-1.797 7.344z"/><path d="m73.91 84.313 8.984-1.133c.235 2.5 1.003 4.467 2.305 5.899s2.734 2.148 4.297 2.148c1.849 0 3.437-.918 4.765-2.754 1.329-1.836 1.993-4.655 1.993-8.457 0-3.593-.658-6.25-1.973-7.968-1.315-1.719-2.988-2.579-5.02-2.579-2.578 0-4.895 1.394-6.953 4.18l-7.304-1.289 4.609-29.805h23.789v10.274h-16.953l-1.445 9.726c2.031-1.224 4.088-1.836 6.171-1.836 3.698 0 6.836 1.459 9.415 4.375 3.255 3.724 4.882 8.633 4.882 14.727 0 5.026-1.386 9.648-4.16 13.867-2.773 4.219-6.738 6.328-11.894 6.328-4.167 0-7.65-1.36-10.45-4.082-2.799-2.721-4.485-6.595-5.058-11.621z"/><path d="m112.425 99.04v-41.446h11.211l8.399 28.868 8.555-28.868h11.132v41.446h-7.773v-27.266l-8.242 27.266h-7.696l-7.812-27.266v27.266z"/></g></svg>