<svg clip-rule="evenodd" fill-rule="evenodd" stroke-linejoin="round" stroke-miterlimit="2" viewBox="0 0 284 143" xmlns="http://www.w3.org/2000/svg"><path d="m282.736 22.485c0-11.948-9.7-21.647-21.647-21.647h-236.875c-11.948 0-21.647 9.699-21.647 21.647v97.816c0 11.948 9.699 21.647 21.647 21.647h236.875c11.947 0 21.647-9.699 21.647-21.647z" fill="#fff"/><path d="m263.524 0c11.011.296 19.939 9.137 19.939 20.198v101.966c0 10.998-8.388 19.957-19.448 20.258v-.004l-244.074-.023v.002c-11.009-.295-19.941-9.135-19.941-20.199v-101.966c0-11.064 8.932-19.902 19.941-20.198v.003l243.583-.034v-.003zm-243.583 4.46c-8.597.291-15.518 7.13-15.518 15.772v101.966c0 8.644 6.921 15.482 15.518 15.773v.02l244.074.025v-.021c8.643-.297 15.025-7.254 15.025-15.831v-101.966c0-8.642-6.92-15.482-15.516-15.772v-.02l-243.583.033v.021zm43.505 94.751-47.742-27.986 47.742-27.985v18.276h34.9v19.419h-34.9z"/><g fill-rule="nonzero"><path d="m148.198 83.844 8.711-1.289c.234 2.709.977 4.779 2.227 6.211 1.25 1.433 2.721 2.149 4.414 2.149 1.849 0 3.411-.847 4.687-2.539 1.276-1.693 1.914-4.037 1.914-7.032 0-2.786-.612-4.974-1.836-6.562-1.224-1.589-2.708-2.383-4.453-2.383-1.146 0-2.513.273-4.101.82l.976-8.945c2.318.052 4.154-.573 5.508-1.875 1.328-1.302 1.992-3.138 1.992-5.508 0-1.979-.482-3.528-1.445-4.648-.964-1.12-2.201-1.68-3.711-1.68-1.511 0-2.819.645-3.926 1.934s-1.764 3.196-1.973 5.722l-8.32-1.718c.86-5.235 2.539-9.037 5.039-11.407 2.5-2.369 5.651-3.554 9.453-3.554 4.271 0 7.663 1.523 10.176 4.57s3.77 6.419 3.77 10.117c0 2.5-.567 4.753-1.7 6.758-1.132 2.005-2.832 3.763-5.097 5.273 2.63.704 4.772 2.253 6.426 4.649 1.653 2.396 2.48 5.39 2.48 8.984 0 5.235-1.556 9.564-4.668 12.989-3.112 3.424-6.816 5.136-11.113 5.136-4.115 0-7.598-1.445-10.449-4.336-2.852-2.89-4.512-6.836-4.981-11.836z"/><path d="m187.182 99.04v-41.446h11.211l8.399 28.868 8.555-28.868h11.132v41.446h-7.773v-27.266l-8.242 27.266h-7.696l-7.812-27.266v27.266z"/></g></svg>