<svg clip-rule="evenodd" fill-rule="evenodd" stroke-linejoin="round" stroke-miterlimit="2" viewBox="0 0 284 143" xmlns="http://www.w3.org/2000/svg"><path d="m282.736 22.485c0-11.948-9.7-21.647-21.647-21.647h-236.875c-11.948 0-21.647 9.699-21.647 21.647v97.816c0 11.948 9.699 21.647 21.647 21.647h236.875c11.947 0 21.647-9.699 21.647-21.647z" fill="#fff"/><path d="m19.939 0c-5.224.141-10.185 2.213-13.926 5.892-3.853 3.789-6.013 8.895-6.013 14.307v101.965c0 5.383 2.026 10.545 5.814 14.385 3.644 3.695 8.475 5.732 13.635 5.873v-.004l244.073-.023v.004c5.225-.141 10.187-2.215 13.928-5.893 3.853-3.789 6.014-8.894 6.014-14.307v-101.966c0-5.412-2.161-10.519-6.014-14.307-3.741-3.679-8.703-5.751-13.928-5.892v.003l-243.583-.034v-.003zm243.583 4.461c4.062.137 7.925 1.744 10.837 4.609 3.005 2.955 4.681 6.944 4.681 11.163v101.966c0 4.219-1.676 8.209-4.681 11.165-2.912 2.863-6.775 4.47-10.837 4.609v.019l-244.073.024v-.02c-3.961-.136-7.686-1.693-10.491-4.537-2.972-3.013-4.535-7.078-4.535-11.295v-101.965c0-4.219 1.675-8.208 4.681-11.164 2.912-2.863 6.774-4.471 10.835-4.609v-.02l243.583.034z"/><g fill-rule="nonzero"><path d="m58.458 112.499h-13.476v-62.05c-5.039 5.664-10.86 9.824-17.461 12.48v-14.941c3.75-1.524 7.637-4.248 11.66-8.174s6.816-8.447 8.379-13.565h10.898z"/><path d="m78.849 90.41 13.477-1.7c.351 3.75 1.503 6.7 3.457 8.848 1.953 2.148 4.101 3.223 6.445 3.223 2.773 0 5.156-1.377 7.148-4.131 1.993-2.754 2.989-6.983 2.989-12.686 0-5.39-.987-9.375-2.959-11.953-1.973-2.578-4.483-3.867-7.53-3.867-3.867 0-7.343 2.09-10.429 6.27l-10.957-1.934 6.914-44.707h35.683v15.41h-25.429l-2.168 14.59c3.046-1.836 6.132-2.754 9.257-2.754 5.547 0 10.254 2.187 14.122 6.562 4.882 5.586 7.324 12.95 7.324 22.09 0 7.539-2.08 14.473-6.24 20.801-4.161 6.328-10.108 9.492-17.842 9.492-6.25 0-11.475-2.041-15.674-6.123s-6.729-9.892-7.588-17.431z"/><path d="m156.193 26.249c6.836 0 12.363 3.252 16.582 9.756s6.328 17.881 6.328 34.131c0 16.211-2.109 27.569-6.328 34.072-4.219 6.504-9.727 9.756-16.524 9.756-6.836 0-12.363-3.222-16.582-9.668-4.218-6.445-6.328-17.89-6.328-34.336 0-16.132 2.11-27.451 6.328-33.955 4.219-6.504 9.727-9.756 16.524-9.756zm0 13.653c-2.657 0-4.776 1.758-6.358 5.273-1.582 3.516-2.373 11.836-2.373 24.961s.791 21.436 2.373 24.932 3.701 5.244 6.358 5.244c2.695 0 4.824-1.758 6.386-5.273 1.563-3.516 2.344-11.817 2.344-24.903 0-13.125-.781-21.445-2.344-24.961-1.562-3.515-3.691-5.273-6.386-5.273z"/><path d="m191.349 112.499v-62.168h16.816l12.598 43.301 12.832-43.301h16.699v62.168h-11.66v-40.898l-12.363 40.898h-11.543l-11.719-40.898v40.898z"/></g></svg>