<svg clip-rule="evenodd" fill-rule="evenodd" stroke-linejoin="round" stroke-miterlimit="2" viewBox="0 0 284 143" xmlns="http://www.w3.org/2000/svg"><path d="m282.736 22.485c0-11.948-9.7-21.647-21.647-21.647h-236.875c-11.948 0-21.647 9.699-21.647 21.647v97.816c0 11.948 9.699 21.647 21.647 21.647h236.875c11.947 0 21.647-9.699 21.647-21.647z" fill="#fff"/><path d="m263.524 0c11.011.296 19.939 9.137 19.939 20.198v101.966c0 10.998-8.388 19.957-19.448 20.258v-.004l-244.074-.023v.002c-11.009-.295-19.941-9.135-19.941-20.199v-101.966c0-11.064 8.932-19.902 19.941-20.198v.003l243.583-.034v-.003zm-243.583 4.46c-8.597.291-15.518 7.13-15.518 15.772v101.966c0 8.644 6.921 15.482 15.518 15.773v.02l244.074.025v-.021c8.643-.297 15.025-7.254 15.025-15.831v-101.966c0-8.642-6.92-15.482-15.516-15.772v-.02l-243.583.033v.021zm43.505 94.751-47.742-27.986 47.742-27.985v18.276h34.9v19.419h-34.9z"/><g fill-rule="nonzero"><path d="m160.698 88.844v10.196h-31.562c.338-3.854 1.373-7.52 3.105-10.996 1.732-3.477 5.098-8.041 10.098-13.692 3.958-4.505 6.393-7.552 7.304-9.14 1.355-2.318 2.032-4.649 2.032-6.993 0-2.5-.56-4.388-1.68-5.664s-2.591-1.914-4.414-1.914c-3.984 0-6.133 2.982-6.445 8.946l-8.946-1.094c.547-5.834 2.168-10.117 4.864-12.852 2.695-2.734 6.282-4.101 10.761-4.101 4.922 0 8.633 1.601 11.133 4.804s3.75 6.875 3.75 11.016c0 2.344-.319 4.616-.957 6.816-.638 2.201-1.621 4.414-2.949 6.641s-3.542 5.072-6.641 8.535c-2.89 3.255-4.72 5.404-5.488 6.445-.768 1.042-1.387 2.058-1.856 3.047z"/><path d="m166.909 84.313 8.984-1.133c.235 2.5 1.003 4.466 2.305 5.899 1.302 1.432 2.734 2.148 4.297 2.148 1.849 0 3.437-.918 4.766-2.754 1.328-1.836 1.992-4.655 1.992-8.457 0-3.594-.658-6.25-1.973-7.969-1.315-1.718-2.988-2.578-5.019-2.578-2.579 0-4.896 1.394-6.954 4.18l-7.304-1.289 4.609-29.805h23.789v10.274h-16.953l-1.445 9.726c2.031-1.224 4.088-1.836 6.172-1.836 3.698 0 6.836 1.459 9.414 4.375 3.255 3.724 4.883 8.633 4.883 14.727 0 5.026-1.387 9.648-4.161 13.867-2.773 4.219-6.738 6.328-11.894 6.328-4.167 0-7.65-1.36-10.449-4.082-2.8-2.721-4.486-6.595-5.059-11.621z"/><path d="m205.425 99.04v-41.446h11.211l8.398 28.868 8.555-28.868h11.133v41.446h-7.774v-27.266l-8.242 27.266h-7.695l-7.813-27.266v27.266z"/></g></svg>