<svg clip-rule="evenodd" fill-rule="evenodd" stroke-linejoin="round" stroke-miterlimit="2" viewBox="0 0 284 143" xmlns="http://www.w3.org/2000/svg"><path d="m282.736 22.485c0-11.948-9.7-21.647-21.647-21.647h-236.875c-11.948 0-21.647 9.699-21.647 21.647v97.816c0 11.948 9.699 21.647 21.647 21.647h236.875c11.947 0 21.647-9.699 21.647-21.647z" fill="#fff"/><path d="m162.824 108.051c13.12.008 20.624-11.203 23.291-23.365 3.397-15.485 1.361-42.3-15.77-49.077-10.922-4.321-21.567 1.133-27.128 11.639-8.206 15.497-7.811 51.555 12.126 59.379 2.409.951 4.898 1.422 7.481 1.424m.007-12.781c-6.227.064-9.377-6.637-10.668-12.354-1.7-7.527-2.726-32.295 7.452-35.46 5.556-1.727 10.013.72 12.364 6.151 3.597 8.306 4.909 34.749-4.99 40.506-1.374.792-2.767 1.172-4.158 1.157m-59.092 12.781c13.12.008 20.625-11.203 23.292-23.365 3.396-15.485 1.36-42.3-15.77-49.077-10.922-4.321-21.567 1.133-27.129 11.639-8.206 15.497-7.811 51.555 12.126 59.379 2.409.951 4.898 1.422 7.481 1.424m.007-12.781c-6.226.064-9.377-6.637-10.668-12.354-1.7-7.527-2.725-32.295 7.452-35.46 5.556-1.727 10.013.72 12.365 6.151 3.596 8.306 4.908 34.749-4.99 40.506-1.374.792-2.767 1.172-4.159 1.157m-79.811 10.058-1.223-14.144c7.408 5.697 31.92 9.127 32.731-5.363.411-7.364-5.157-10.37-11.777-10.37-2.119 0-4.387.182-6.598.946v-11.946c9.862-1.177 15.064-5.749 15.348-11.904.143-3.108-2.066-6.842-7.644-7.039-4.773-.167-11.984 3.123-16.199 6.546l-4.378-12.292c5.133-3.479 15.213-5.602 21.813-5.641 10.695 0 20.545 5.597 20.545 17.395.021 6.729-5.043 12.398-12.64 16.101v.205c9.787 1.496 16.092 10.067 16.092 19.741-.009 15.367-14.664 20.488-26.398 20.488-7.06 0-15.469-.178-19.672-2.723m232.398-48.953 5.198 50.655-12.128-.004-2.4-33.592-14.227 26.346-14.225-26.346-2.401 33.592-12.128.004 5.198-50.655 11.488.001 12.068 23.355 12.069-23.355zm-236.394-56.375c-5.224.141-10.185 2.213-13.926 5.892-3.853 3.789-6.013 8.895-6.013 14.307v101.965c0 5.383 2.026 10.545 5.814 14.385 3.644 3.695 8.475 5.732 13.635 5.873v-.004l244.073-.023v.004c5.225-.141 10.187-2.215 13.928-5.893 3.853-3.789 6.014-8.894 6.014-14.307v-101.966c0-5.412-2.161-10.519-6.014-14.307-3.741-3.679-8.703-5.751-13.928-5.892v.003l-243.583-.034v-.003zm243.583 4.461c4.062.137 7.925 1.744 10.837 4.609 3.005 2.955 4.681 6.944 4.681 11.163v101.966c0 4.219-1.676 8.209-4.681 11.165-2.912 2.863-6.775 4.47-10.837 4.609v.019l-244.073.024v-.02c-3.961-.136-7.686-1.693-10.491-4.537-2.972-3.013-4.535-7.078-4.535-11.295v-101.965c0-4.219 1.675-8.208 4.681-11.164 2.912-2.863 6.774-4.471 10.835-4.609v-.02l243.583.034v.021z"/></svg>