<svg clip-rule="evenodd" fill-rule="evenodd" stroke-linejoin="round" stroke-miterlimit="2" viewBox="0 0 284 284" xmlns="http://www.w3.org/2000/svg"><path d="m280.657 21.942c0-10.75-8.728-19.478-19.479-19.478h-239.306c-10.75 0-19.478 8.728-19.478 19.478v239.568c0 10.75 8.728 19.478 19.478 19.478h239.306c10.751 0 19.479-8.728 19.479-19.478v-239.568z" fill="#ebebeb"/><path d="m263.522 4.46c4.062.138 7.925 1.745 10.837 4.609 3.005 2.955 4.681 6.945 4.681 11.163v242.817c0 4.219-1.676 8.208-4.681 11.163-2.912 2.865-6.775 4.472-10.837 4.61v.02l-244.074.024v-.02c-3.961-.136-7.685-1.693-10.49-4.537-2.973-3.014-4.535-7.077-4.535-11.294v-242.816c0-4.219 1.675-8.208 4.681-11.164 2.912-2.864 6.774-4.472 10.835-4.609v-.02l243.583.033v.021zm-243.583-4.46c-5.224.141-10.186 2.213-13.926 5.892-3.853 3.789-6.013 8.894-6.013 14.307v242.816c0 5.382 2.026 10.543 5.814 14.384 3.644 3.694 8.475 5.733 13.634 5.873v-.003l244.074-.023v.003c5.225-.141 10.187-2.214 13.928-5.892 3.852-3.789 6.013-8.896 6.013-14.308v-242.817c0-5.412-2.16-10.518-6.013-14.307-3.741-3.678-8.703-5.751-13.928-5.891v.003l-243.583-.034v-.003z"/><g fill-rule="nonzero"><path d="m23.221 89.227 12.76-1.54c1.43 10.12 6.05 15.18 13.97 15.18 3.96 0 7.04-1.1 9.35-3.08 2.2-2.09 3.41-4.62 3.41-7.7 0-1.76-.44-3.3-1.21-4.62-.77-1.21-1.98-2.2-3.63-3.08-1.54-.77-5.5-2.09-11.66-3.96-5.61-1.76-9.68-3.52-12.21-5.5-2.64-1.98-4.62-4.62-6.16-7.81s-2.31-6.6-2.31-10.34c0-4.29.99-8.14 2.97-11.55 1.98-3.52 4.62-6.05 8.03-7.81 3.52-1.76 7.7-2.64 12.76-2.64 7.59 0 13.53 2.09 17.82 6.16 4.18 4.18 6.49 10.01 6.71 17.71l-12.98.66c-.66-4.18-1.87-7.15-3.74-8.8-1.87-1.76-4.62-2.53-8.14-2.53s-6.16.66-8.14 2.2c-1.87 1.43-2.75 3.3-2.75 5.39 0 2.2.77 3.96 2.53 5.5 1.76 1.43 5.72 3.08 11.88 4.84 6.49 1.87 11.33 3.85 14.19 5.94 2.97 2.09 5.17 4.84 6.71 8.14s2.31 7.37 2.31 11.99c0 6.93-2.09 12.65-6.38 17.27-4.18 4.73-10.78 7.04-19.69 7.04-15.84 0-24.64-9.02-26.4-27.06z"/><path d="m101.198 114.857v-65.45h-19.14v-13.31h51.26v13.31h-19.14v65.45z"/><path d="m137.587 75.917c0-9.35 1.43-17.05 4.18-23.1s6.38-10.56 10.89-13.64c4.51-2.97 9.9-4.4 16.28-4.4 9.24 0 16.72 3.52 22.55 10.56s8.69 17.16 8.69 30.14c0 13.2-3.08 23.43-9.24 30.91-5.39 6.49-12.65 9.79-22 9.79s-16.72-3.19-22.11-9.68c-6.16-7.48-9.24-17.6-9.24-30.58zm13.42-.44c0 9.02 1.76 15.84 5.17 20.35s7.7 6.82 12.76 6.82c5.17 0 9.35-2.31 12.76-6.82 3.41-4.4 5.06-11.33 5.06-20.68 0-9.13-1.65-15.84-4.95-20.24s-7.59-6.49-12.87-6.49-9.57 2.2-12.87 6.6c-3.41 4.4-5.06 11.22-5.06 20.46z"/><path d="m210.428 114.857v-78.76h20.9c7.81 0 12.87.44 15.29 1.1 3.85 1.32 7.04 3.85 9.46 7.81 2.53 3.96 3.74 9.13 3.74 15.4 0 5.72-.99 10.45-3.19 14.3s-4.84 6.6-8.03 8.14c-3.3 1.54-8.8 2.31-16.72 2.31h-8.47v29.7zm12.98-65.45v22.33h7.15c4.84 0 8.14-.33 9.9-.99s3.08-1.87 4.29-3.63c1.1-1.76 1.65-3.96 1.65-6.6 0-2.53-.55-4.73-1.76-6.6-1.1-1.76-2.53-2.97-4.18-3.52-1.76-.66-5.28-.99-10.78-.99z"/><path d="m119.018 236.857h-12.43v-56.87c-4.62 5.17-9.9 9.02-15.95 11.44v-13.75c3.41-1.32 7.04-3.85 10.67-7.48 3.74-3.52 6.27-7.7 7.7-12.43h10.01z"/><path d="m140.474 236.857v-56.98h15.4l11.55 39.71 11.77-39.71h15.29v56.98h-10.67v-37.51l-11.33 37.51h-10.56l-10.78-37.51v37.51z"/></g></svg>