<svg clip-rule="evenodd" fill-rule="evenodd" stroke-linejoin="round" stroke-miterlimit="2" viewBox="0 0 284 143" xmlns="http://www.w3.org/2000/svg"><path d="m282.736 22.485c0-11.948-9.7-21.647-21.647-21.647h-236.875c-11.948 0-21.647 9.699-21.647 21.647v97.816c0 11.948 9.699 21.647 21.647 21.647h236.875c11.947 0 21.647-9.699 21.647-21.647z" fill="#fff"/><path d="m220.018 99.211 47.741-27.986-47.741-27.985v18.276h-34.899v19.419h34.899zm43.505-94.751c8.597.292 15.517 7.13 15.517 15.772v101.966c0 8.644-6.92 15.482-15.517 15.773v.02l-244.074.025v-.021c-8.643-.297-15.025-7.254-15.025-15.831v-101.966c0-8.642 6.92-15.482 15.516-15.772v-.02l243.583.034v.02zm-243.583-4.46c-11.01.296-19.94 9.137-19.94 20.198v101.966c0 10.998 8.389 19.957 19.449 20.258v-.004l244.074-.023v.003c11.009-.296 19.941-9.136 19.941-20.2v-101.966c0-11.063-8.932-19.902-19.941-20.198v.003l-243.583-.034v-.003z"/><g fill-rule="nonzero"><path d="m60.316 99.04h-8.984v-41.367c-3.36 3.776-7.24 6.549-11.641 8.32v-9.961c2.5-1.016 5.091-2.832 7.774-5.449 2.682-2.617 4.544-5.632 5.585-9.043h7.266z"/><path d="m88.988 41.54c4.557 0 8.242 2.168 11.055 6.504 2.812 4.336 4.218 11.92 4.218 22.754 0 10.807-1.406 18.378-4.218 22.714-2.813 4.336-6.485 6.504-11.016 6.504-4.557 0-8.242-2.148-11.055-6.445-2.812-4.297-4.218-11.927-4.218-22.891 0-10.755 1.406-18.3 4.218-22.636 2.813-4.336 6.485-6.504 11.016-6.504zm0 9.101c-1.771 0-3.184 1.172-4.238 3.516-1.055 2.344-1.582 7.891-1.582 16.641s.527 14.29 1.582 16.621c1.054 2.33 2.467 3.496 4.238 3.496 1.797 0 3.216-1.172 4.258-3.516 1.041-2.344 1.562-7.877 1.562-16.601 0-8.75-.521-14.297-1.562-16.641-1.042-2.344-2.461-3.516-4.258-3.516z"/><path d="m112.425 99.04v-41.446h11.211l8.399 28.868 8.555-28.868h11.132v41.446h-7.773v-27.266l-8.242 27.266h-7.696l-7.812-27.266v27.266z"/></g></svg>