<svg clip-rule="evenodd" fill-rule="evenodd" stroke-linejoin="round" stroke-miterlimit="2" viewBox="0 0 284 143" xmlns="http://www.w3.org/2000/svg"><path d="m282.736 22.485c0-11.948-9.7-21.647-21.647-21.647h-236.875c-11.948 0-21.647 9.699-21.647 21.647v97.816c0 11.948 9.699 21.647 21.647 21.647h236.875c11.947 0 21.647-9.699 21.647-21.647z" fill="#fff"/><path d="m263.524 0c11.011.296 19.939 9.137 19.939 20.198v101.966c0 10.998-8.388 19.957-19.448 20.258v-.004l-244.074-.023v.002c-11.009-.295-19.941-9.135-19.941-20.199v-101.966c0-11.064 8.932-19.902 19.941-20.198v.003l243.583-.034v-.003zm-243.583 4.46c-8.597.291-15.518 7.13-15.518 15.772v101.966c0 8.644 6.921 15.482 15.518 15.773v.02l244.074.025v-.021c8.643-.297 15.025-7.254 15.025-15.831v-101.966c0-8.642-6.92-15.482-15.516-15.772v-.02l-243.583.033v.021zm43.505 94.751-47.742-27.986 47.742-27.985v18.276h34.9v19.419h-34.9z"/><g fill-rule="nonzero"><path d="m148.667 84.313 8.984-1.133c.235 2.5 1.003 4.466 2.305 5.899 1.302 1.432 2.734 2.148 4.297 2.148 1.849 0 3.437-.918 4.765-2.754 1.329-1.836 1.993-4.655 1.993-8.457 0-3.594-.658-6.25-1.973-7.969-1.315-1.718-2.988-2.578-5.02-2.578-2.578 0-4.895 1.394-6.953 4.18l-7.304-1.289 4.609-29.805h23.789v10.274h-16.953l-1.445 9.726c2.031-1.224 4.088-1.836 6.171-1.836 3.698 0 6.836 1.459 9.415 4.375 3.255 3.724 4.882 8.633 4.882 14.727 0 5.026-1.386 9.648-4.16 13.867-2.773 4.219-6.738 6.328-11.894 6.328-4.167 0-7.65-1.36-10.45-4.082-2.799-2.721-4.485-6.595-5.058-11.621z"/><path d="m187.182 99.04v-41.446h11.211l8.399 28.868 8.555-28.868h11.132v41.446h-7.773v-27.266l-8.242 27.266h-7.696l-7.812-27.266v27.266z"/></g></svg>