<svg clip-rule="evenodd" fill-rule="evenodd" stroke-linejoin="round" stroke-miterlimit="2" viewBox="0 0 284 143" xmlns="http://www.w3.org/2000/svg"><path d="m282.736 22.485c0-11.948-9.7-21.647-21.647-21.647h-236.875c-11.948 0-21.647 9.699-21.647 21.647v97.816c0 11.948 9.699 21.647 21.647 21.647h236.875c11.947 0 21.647-9.699 21.647-21.647z" fill="#fff"/><path d="m220.018 99.211 47.741-27.986-47.741-27.985v18.276h-34.899v19.419h34.899zm43.505-94.751c8.597.292 15.517 7.13 15.517 15.772v101.966c0 8.644-6.92 15.482-15.517 15.773v.02l-244.074.025v-.021c-8.643-.297-15.025-7.254-15.025-15.831v-101.966c0-8.642 6.92-15.482 15.516-15.772v-.02l243.583.034v.02zm-243.583-4.46c-11.01.296-19.94 9.137-19.94 20.198v101.966c0 10.998 8.389 19.957 19.449 20.258v-.004l244.074-.023v.003c11.009-.296 19.941-9.136 19.941-20.2v-101.966c0-11.063-8.932-19.902-19.941-20.198v.003l-243.583-.034v-.003z"/><g fill-rule="nonzero"><path d="m55.668 84.313 8.984-1.133c.234 2.5 1.003 4.467 2.305 5.899s2.734 2.148 4.297 2.148c1.849 0 3.437-.918 4.765-2.754s1.992-4.655 1.992-8.457c0-3.593-.657-6.25-1.972-7.968-1.315-1.719-2.989-2.579-5.02-2.579-2.578 0-4.896 1.394-6.953 4.18l-7.305-1.289 4.61-29.805h23.789v10.274h-16.953l-1.446 9.726c2.032-1.224 4.089-1.836 6.172-1.836 3.698 0 6.836 1.459 9.414 4.375 3.256 3.724 4.883 8.633 4.883 14.727 0 5.026-1.387 9.648-4.16 13.867s-6.738 6.328-11.895 6.328c-4.166 0-7.649-1.36-10.449-4.082-2.799-2.721-4.485-6.595-5.058-11.621z"/><path d="m94.183 99.04v-41.446h11.211l8.399 28.868 8.554-28.868h11.133v41.446h-7.773v-27.266l-8.242 27.266h-7.696l-7.812-27.266v27.266z"/></g></svg>