<svg clip-rule="evenodd" fill-rule="evenodd" stroke-linejoin="round" stroke-miterlimit="2" viewBox="0 0 284 143" xmlns="http://www.w3.org/2000/svg"><path d="m282.736 22.485c0-11.948-9.7-21.647-21.647-21.647h-236.875c-11.948 0-21.647 9.699-21.647 21.647v97.816c0 11.948 9.699 21.647 21.647 21.647h236.875c11.947 0 21.647-9.699 21.647-21.647z" fill="#fff"/><path d="m220.018 99.211 47.741-27.986-47.741-27.985v18.276h-34.899v19.419h34.899zm43.505-94.751c8.597.292 15.517 7.13 15.517 15.772v101.966c0 8.644-6.92 15.482-15.517 15.773v.02l-244.074.025v-.021c-8.643-.297-15.025-7.254-15.025-15.831v-101.966c0-8.642 6.92-15.482 15.516-15.772v-.02l243.583.034v.02zm-243.583-4.46c-11.01.296-19.94 9.137-19.94 20.198v101.966c0 10.998 8.389 19.957 19.449 20.258v-.004l244.074-.023v.003c11.009-.296 19.941-9.136 19.941-20.2v-101.966c0-11.063-8.932-19.902-19.941-20.198v.003l-243.583-.034v-.003z"/><g fill-rule="nonzero"><path d="m36.957 83.844 8.711-1.289c.234 2.709.976 4.779 2.226 6.211 1.25 1.433 2.722 2.149 4.414 2.149 1.849 0 3.412-.847 4.688-2.539 1.276-1.693 1.914-4.037 1.914-7.032 0-2.786-.612-4.974-1.836-6.562-1.224-1.589-2.708-2.383-4.453-2.383-1.146 0-2.513.274-4.102.82l.977-8.945c2.317.052 4.153-.573 5.508-1.875 1.328-1.302 1.992-3.138 1.992-5.508 0-1.979-.482-3.528-1.446-4.648-.963-1.12-2.2-1.68-3.71-1.68-1.511 0-2.819.645-3.926 1.934s-1.765 3.196-1.973 5.722l-8.32-1.718c.859-5.235 2.539-9.037 5.039-11.407 2.5-2.369 5.651-3.554 9.453-3.554 4.271 0 7.663 1.523 10.176 4.57s3.769 6.419 3.769 10.117c0 2.5-.566 4.753-1.699 6.758s-2.832 3.763-5.098 5.274c2.631.703 4.773 2.252 6.426 4.648 1.654 2.396 2.481 5.391 2.481 8.984 0 5.235-1.556 9.564-4.668 12.989-3.112 3.424-6.817 5.136-11.114 5.136-4.114 0-7.597-1.445-10.449-4.336-2.851-2.89-4.512-6.836-4.98-11.836z"/><path d="m73.91 84.313 8.984-1.133c.235 2.5 1.003 4.467 2.305 5.899s2.734 2.148 4.297 2.148c1.849 0 3.437-.918 4.765-2.754 1.329-1.836 1.993-4.655 1.993-8.457 0-3.593-.658-6.25-1.973-7.968-1.315-1.719-2.988-2.579-5.02-2.579-2.578 0-4.895 1.394-6.953 4.18l-7.304-1.289 4.609-29.805h23.789v10.274h-16.953l-1.445 9.726c2.031-1.224 4.088-1.836 6.171-1.836 3.698 0 6.836 1.459 9.415 4.375 3.255 3.724 4.882 8.633 4.882 14.727 0 5.026-1.386 9.648-4.16 13.867-2.773 4.219-6.738 6.328-11.894 6.328-4.167 0-7.65-1.36-10.45-4.082-2.799-2.721-4.485-6.595-5.058-11.621z"/><path d="m112.425 99.04v-41.446h11.211l8.399 28.868 8.555-28.868h11.132v41.446h-7.773v-27.266l-8.242 27.266h-7.696l-7.812-27.266v27.266z"/></g></svg>