<svg clip-rule="evenodd" fill-rule="evenodd" stroke-linejoin="round" stroke-miterlimit="2" viewBox="0 0 284 143" xmlns="http://www.w3.org/2000/svg"><path d="m282.67 25.251c0-13.135-10.664-23.8-23.8-23.8h-233.385c-13.135 0-23.8 10.665-23.8 23.8v92.401c0 13.136 10.665 23.8 23.8 23.8h233.385c13.136 0 23.8-10.664 23.8-23.8z" fill="#fff"/><path d="m19.939 0c-5.224.141-10.185 2.213-13.926 5.892-3.853 3.789-6.013 8.895-6.013 14.307v101.965c0 5.383 2.026 10.545 5.814 14.385 3.644 3.695 8.475 5.732 13.635 5.873v-.004l244.073-.023v.004c5.225-.141 10.187-2.215 13.928-5.893 3.853-3.789 6.014-8.894 6.014-14.307v-101.966c0-5.412-2.161-10.519-6.014-14.307-3.741-3.679-8.703-5.751-13.928-5.892v.003l-243.583-.034v-.003zm243.583 4.461c4.062.137 7.925 1.744 10.837 4.609 3.005 2.955 4.681 6.944 4.681 11.163v101.966c0 4.219-1.676 8.209-4.681 11.165-2.912 2.863-6.775 4.47-10.837 4.609v.019l-244.073.024v-.02c-3.961-.136-7.686-1.693-10.491-4.537-2.972-3.013-4.535-7.078-4.535-11.295v-101.965c0-4.219 1.675-8.208 4.681-11.164 2.912-2.863 6.774-4.471 10.835-4.609v-.02l243.583.034z"/><g fill-rule="nonzero"><path d="m83.776 112.703h-13.476v-62.051c-5.039 5.664-10.86 9.824-17.461 12.48v-14.941c3.75-1.523 7.636-4.248 11.66-8.174 4.023-3.926 6.816-8.447 8.379-13.564h10.898z"/><path d="m103.464 89.91 13.066-1.934c.352 4.063 1.465 7.168 3.34 9.317 1.875 2.148 4.082 3.222 6.621 3.222 2.773 0 5.117-1.269 7.031-3.808s2.871-6.055 2.871-10.547c0-4.18-.918-7.461-2.754-9.844-1.835-2.383-4.062-3.574-6.679-3.574-1.719 0-3.77.41-6.153 1.23l1.465-13.418c3.477.078 6.231-.859 8.262-2.812 1.992-1.953 2.988-4.707 2.988-8.262 0-2.969-.722-5.293-2.168-6.973-1.445-1.679-3.3-2.519-5.566-2.519s-4.229.967-5.889 2.9c-1.66 1.934-2.646 4.795-2.959 8.584l-12.48-2.578c1.289-7.851 3.808-13.554 7.558-17.109s8.477-5.332 14.18-5.332c6.406 0 11.494 2.285 15.264 6.855 3.769 4.571 5.654 9.629 5.654 15.176 0 3.75-.85 7.129-2.549 10.137s-4.248 5.644-7.646 7.91c3.945 1.055 7.158 3.379 9.638 6.973 2.481 3.593 3.721 8.086 3.721 13.476 0 7.852-2.334 14.346-7.002 19.483-4.668 5.136-10.224 7.705-16.67 7.705-6.172 0-11.396-2.168-15.674-6.504-4.277-4.336-6.767-10.254-7.47-17.754z"/><path d="m161.94 112.703v-62.168h16.817l12.597 43.301 12.832-43.301h16.7v62.168h-11.661v-40.899l-12.363 40.899h-11.543l-11.719-40.899v40.899z"/></g></svg>