<svg clip-rule="evenodd" fill-rule="evenodd" stroke-linejoin="round" stroke-miterlimit="2" viewBox="0 0 284 143" xmlns="http://www.w3.org/2000/svg"><path d="m282.736 22.485c0-11.948-9.7-21.647-21.647-21.647h-236.875c-11.948 0-21.647 9.699-21.647 21.647v97.816c0 11.948 9.699 21.647 21.647 21.647h236.875c11.947 0 21.647-9.699 21.647-21.647z" fill="#fff"/><path d="m109.777 57.539c-5.736-1.555-11.647 1.835-13.201 7.572s1.836 11.648 7.572 13.201c5.737 1.555 11.647-1.836 13.202-7.572 1.554-5.737-1.837-11.648-7.573-13.201m-1.3 4.796c-3.087-.836-6.268.989-7.104 4.076-.837 3.087.988 6.269 4.075 7.105s6.268-.989 7.104-4.076c.837-3.087-.988-6.268-4.075-7.105m87.945-16.882c-5.377-6.351-10.756-12.702-16.134-19.052-2.94-3.471-4.284-3.418-8.726-3.406-9.226.03-18.453.059-27.679.088-2.413.008-4.034.311-5.9 2.189-5.738 5.777-10.883 12.439-16.621 18.215-8.631 1.223-16.836 2.447-25.467 3.668-3.228.457-5.905 2.403-5.87 4.823l.142 8.968c.536 3.085 1.38 4.183 4.5 4.973l.148.041c.067-.418.157-.836.27-1.253 1.769-6.53 8.566-10.428 15.096-8.659 5.688 1.541 9.378 6.896 9.067 12.566l44.061.001 1.072-.058c-.065-1.271.066-2.573.417-3.869 1.788-6.596 8.584-10.496 15.181-8.708 5.24 1.419 8.777 6.001 9.116 11.13 3.988-1.572 5.469-1.148 6.435-5.939l2.019-10.024c.619-3.073.911-3.287-1.127-5.694m-22.183-18.391-30.984.018c-1.874.001-3.42 1.448-4.646 2.865l-8.296 9.587c-1.227 1.418-.14 5.013 3.047 5.05l42.804.04c1.873.001 4.243-2.583 3.999-4.442l-1.296-9.867c-.279-1.854-2.753-3.261-4.628-3.251m4.018 35.273c-3.086-.836-6.267.989-7.104 4.076-.836 3.087.988 6.269 4.075 7.105 3.088.836 6.269-.989 7.106-4.076.836-3.087-.99-6.268-4.077-7.105m1.3-4.796c-5.736-1.555-11.646 1.835-13.201 7.572-1.554 5.737 1.836 11.648 7.573 13.201 5.736 1.555 11.647-1.836 13.202-7.572 1.553-5.737-1.836-11.648-7.574-13.201m-119.083 80.456v-46.141l-56.051 26.915v3.429c0 8.644 6.921 15.482 15.518 15.773v.02zm148.707.015v-47.265h-134.898v47.251zm69.859-19.241-56.05-26.915v46.158l41.025.004v-.021c8.643-.297 15.025-7.254 15.025-15.831zm-218.566-39.668h162.516l56.05 26.915v-85.818c0-8.642-6.92-15.482-15.516-15.772v-.02l-243.583.033v.021c-8.597.291-15.518 7.13-15.518 15.772v85.784zm203.05-79.101c11.011.296 19.94 9.137 19.94 20.198v101.966c0 10.998-8.389 19.957-19.449 20.258v-.004l-244.074-.024v.003c-11.009-.295-19.941-9.135-19.941-20.199v-101.966c0-11.064 8.932-19.902 19.941-20.198v.003l243.583-.034v-.003z"/></svg>