<svg clip-rule="evenodd" fill-rule="evenodd" stroke-linejoin="round" stroke-miterlimit="2" viewBox="0 0 284 143" xmlns="http://www.w3.org/2000/svg"><path d="m282.736 22.485c0-11.948-9.7-21.647-21.647-21.647h-236.875c-11.948 0-21.647 9.699-21.647 21.647v97.816c0 11.948 9.699 21.647 21.647 21.647h236.875c11.947 0 21.647-9.699 21.647-21.647z" fill="#fff"/><path d="m263.525 0c11.011.297 19.939 9.137 19.939 20.199v101.965c0 10.998-8.388 19.957-19.448 20.258v-.004l-244.074-.023v.003c-11.009-.296-19.942-9.136-19.942-20.199v-101.966c0-11.064 8.933-19.903 19.942-20.199v.003l243.583-.034v-.003zm-243.583 4.46c-8.597.292-15.518 7.131-15.518 15.773v101.966c0 8.643 6.921 15.481 15.518 15.772v.021l244.074.024v-.021c8.643-.296 15.025-7.253 15.025-15.831v-101.965c0-8.643-6.92-15.482-15.516-15.773v-.02l-243.583.034v.02z"/><g fill-rule="nonzero"><path d="m96.395 68.244c-3.043-1.575-5.335-3.724-6.875-6.445-1.539-2.721-2.309-5.998-2.309-9.829 0-6.195 1.754-11.127 5.263-14.798 3.51-3.67 8.236-5.505 14.18-5.505 6.302 0 11.1 1.961 14.395 5.881 3.294 3.921 4.941 8.693 4.941 14.314 0 3.832-.797 7.153-2.39 9.964s-3.769 4.95-6.526 6.418c3.688 1.791 6.445 4.306 8.272 7.547 1.826 3.24 2.739 7.224 2.739 11.95 0 4.87-.904 9.167-2.713 12.891-1.808 3.724-4.305 6.571-7.492 8.54s-6.768 2.954-10.742 2.954c-6.231 0-11.378-2.157-15.442-6.472s-6.097-10.125-6.097-17.429c0-4.727.931-8.791 2.793-12.193 1.862-3.401 4.53-5.997 8.003-7.788zm2.525-15.2c0 3.079.725 5.443 2.175 7.09s3.285 2.471 5.505 2.471c2.256 0 4.118-.824 5.586-2.471s2.203-4.011 2.203-7.09c0-2.972-.726-5.282-2.176-6.929s-3.267-2.47-5.451-2.47c-2.292 0-4.172.832-5.64 2.497s-2.202 3.966-2.202 6.902zm-1.128 33.731c0 4.225.895 7.483 2.685 9.775 1.791 2.292 3.939 3.437 6.446 3.437 2.506 0 4.61-1.092 6.311-3.276s2.551-5.461 2.551-9.829c0-3.76-.868-6.732-2.605-8.916s-3.876-3.276-6.418-3.276c-2.507 0-4.629 1.101-6.365 3.303-1.737 2.202-2.605 5.129-2.605 8.782z"/><path d="m158.109 65.612v-11.87h42.378v11.87h-14.985v45.118h-12.407v-45.118z"/></g></svg>