<svg clip-rule="evenodd" fill-rule="evenodd" stroke-linejoin="round" stroke-miterlimit="2" viewBox="0 0 284 143" xmlns="http://www.w3.org/2000/svg"><path d="m282.736 22.485c0-11.948-9.7-21.647-21.647-21.647h-236.875c-11.948 0-21.647 9.699-21.647 21.647v97.816c0 11.948 9.699 21.647 21.647 21.647h236.875c11.947 0 21.647-9.699 21.647-21.647z" fill="#fff"/><path d="m263.525 0c11.011.297 19.939 9.137 19.939 20.199v101.965c0 10.998-8.388 19.957-19.448 20.258v-.004l-244.074-.023v.003c-11.009-.296-19.942-9.136-19.942-20.199v-101.966c0-11.064 8.933-19.903 19.942-20.199v.003l243.583-.034v-.003zm-243.583 4.46c-8.597.292-15.518 7.131-15.518 15.773v101.966c0 8.643 6.921 15.481 15.518 15.772v.021l244.074.024v-.021c8.643-.296 15.025-7.253 15.025-15.831v-101.965c0-8.643-6.92-15.482-15.516-15.773v-.02l-243.583.034v.02z"/><g fill-rule="nonzero"><path d="m92.313 110.73h-12.353v-56.88c-4.619 5.192-9.955 9.005-16.006 11.44v-13.696c3.437-1.397 7-3.894 10.688-7.493 3.689-3.598 6.249-7.743 7.681-12.434h9.99z"/><path d="m111.005 90.481 12.353-1.558c.323 3.437 1.379 6.141 3.169 8.11 1.791 1.97 3.76 2.954 5.908 2.954 2.543 0 4.727-1.262 6.553-3.786 1.826-2.525 2.739-6.401 2.739-11.629 0-4.941-.904-8.593-2.712-10.957-1.808-2.363-4.109-3.545-6.902-3.545-3.545 0-6.732 1.916-9.56 5.747l-10.044-1.772 6.338-40.981h32.709v14.126h-23.31l-1.987 13.374c2.793-1.683 5.621-2.525 8.486-2.525 5.085 0 9.399 2.005 12.944 6.016 4.476 5.12 6.714 11.87 6.714 20.249 0 6.911-1.907 13.266-5.72 19.067-3.814 5.801-9.265 8.701-16.355 8.701-5.729 0-10.518-1.871-14.368-5.612-3.849-3.742-6.167-9.069-6.955-15.979z"/><path d="m183.192 65.612v-11.87h42.378v11.87h-14.985v45.118h-12.407v-45.118z"/></g></svg>