<svg clip-rule="evenodd" fill-rule="evenodd" stroke-linejoin="round" stroke-miterlimit="2" viewBox="0 0 284 143" xmlns="http://www.w3.org/2000/svg"><path d="m282.736 22.485c0-11.948-9.7-21.647-21.647-21.647h-236.875c-11.948 0-21.647 9.699-21.647 21.647v97.816c0 11.948 9.699 21.647 21.647 21.647h236.875c11.947 0 21.647-9.699 21.647-21.647z" fill="#fff"/><path d="m263.525 0c11.011.297 19.939 9.137 19.939 20.199v101.965c0 10.998-8.388 19.957-19.448 20.258v-.004l-244.074-.023v.003c-11.009-.296-19.942-9.136-19.942-20.199v-101.966c0-11.064 8.933-19.903 19.942-20.199v.003l243.583-.034v-.003zm-243.583 4.46c-8.597.292-15.518 7.131-15.518 15.773v101.966c0 8.643 6.921 15.481 15.518 15.772v.021l244.074.024v-.021c8.643-.296 15.025-7.253 15.025-15.831v-101.965c0-8.643-6.92-15.482-15.516-15.773v-.02l-243.583.034v.02z"/><g fill-rule="nonzero"><path d="m92.313 110.73h-12.353v-56.88c-4.619 5.192-9.955 9.005-16.006 11.44v-13.696c3.437-1.397 7-3.894 10.688-7.493 3.689-3.598 6.249-7.743 7.681-12.434h9.99z"/><path d="m131.737 31.667c6.266 0 11.333 2.981 15.2 8.943 3.868 5.962 5.801 16.391 5.801 31.287 0 14.86-1.933 25.271-5.801 31.233-3.867 5.961-8.916 8.942-15.146 8.942-6.266 0-11.333-2.954-15.2-8.862-3.868-5.908-5.801-16.4-5.801-31.475 0-14.788 1.933-25.163 5.801-31.125 3.867-5.962 8.916-8.943 15.146-8.943zm0 12.515c-2.435 0-4.377 1.611-5.827 4.834-1.451 3.222-2.176 10.849-2.176 22.881 0 12.031.725 19.649 2.176 22.854 1.45 3.204 3.392 4.807 5.827 4.807 2.471 0 4.422-1.612 5.855-4.834 1.432-3.223 2.148-10.832 2.148-22.827 0-12.032-.716-19.659-2.148-22.881-1.433-3.223-3.384-4.834-5.855-4.834z"/><path d="m183.192 65.612v-11.87h42.378v11.87h-14.985v45.118h-12.407v-45.118z"/></g></svg>