<svg clip-rule="evenodd" fill-rule="evenodd" stroke-linejoin="round" stroke-miterlimit="2" viewBox="0 0 284 143" xmlns="http://www.w3.org/2000/svg"><path d="m282.736 22.485c0-11.948-9.7-21.647-21.647-21.647h-236.875c-11.948 0-21.647 9.699-21.647 21.647v97.816c0 11.948 9.699 21.647 21.647 21.647h236.875c11.947 0 21.647-9.699 21.647-21.647z" fill="#fff"/><path d="m263.524 0c11.011.296 19.939 9.137 19.939 20.198v101.966c0 10.998-8.388 19.957-19.448 20.258v-.004l-244.074-.023v.002c-11.009-.295-19.941-9.135-19.941-20.199v-101.966c0-11.064 8.932-19.902 19.941-20.198v.003l243.583-.034v-.003zm-259.101 105.599h137.65l25.805 17.281 14.134-5.218c15.01 6.743 28.74 8.008 40.949 2.297 18.52 10.841 37.199 11.929 56.033 3.465.03-.416.046-.836.046-1.26v-101.966c0-8.642-6.92-15.482-15.516-15.772v-.02l-243.583.033v.021c-8.597.291-15.518 7.13-15.518 15.772zm60.563-9.59c0 4.507-3.653 8.16-8.16 8.16s-8.159-3.653-8.159-8.161v-11.135h16.319zm63.068 0v-11.136h-16.32v11.136c0 4.507 3.654 8.16 8.16 8.16 4.507 0 8.16-3.653 8.16-8.16m-63.262-68.663h47.049c2.349 0 3.544 2.038 4.271 4.271l6.277 19.306h-68.144l5.958-19.306c.693-2.244 2.24-4.271 4.589-4.271m62.81 23.436c3.237 0 5.887 2.65 5.887 5.887v20.725c0 3.237-2.65 5.886-5.887 5.886h-78.571c-3.237 0-5.887-2.649-5.887-5.886v-20.725c0-3.237 2.65-5.887 5.887-5.887l7.672-23.597c.887-2.73 2.349-5.22 5.22-5.22h52.787c2.871 0 4.333 2.49 5.22 5.22z"/></svg>