<svg clip-rule="evenodd" fill-rule="evenodd" stroke-linejoin="round" stroke-miterlimit="2" viewBox="0 0 284 284" xmlns="http://www.w3.org/2000/svg"><path d="m280.657 21.942c0-10.75-8.728-19.478-19.479-19.478h-239.306c-10.75 0-19.478 8.728-19.478 19.478v239.568c0 10.75 8.728 19.478 19.478 19.478h239.306c10.751 0 19.479-8.728 19.479-19.478v-239.568z" fill="#ebebeb"/><path d="m283.42 263.527c-.296 11.008-9.138 19.938-20.195 19.936l-242.971-.051c-10.994 0-19.953-8.387-20.254-19.446h.004l.023-244.029h-.003c.296-11.006 9.132-19.94 20.195-19.937l242.972.049c11.062.003 19.899 8.932 20.195 19.938h-.003l.034 243.54zm-156.045-259.083-107.156-.021c-8.639-.002-15.479 6.919-15.77 15.514h-.019l-.012 107.421h97.807c13.832 0 25.15-11.319 25.15-25.151zm151.586 15.543c-.292-8.594-7.132-15.513-15.77-15.514l-106.941-.022v96.173c0 30.578-25.019 55.596-55.598 55.596h-96.236l-.012 107.746h.022c.297 8.643 7.252 15.022 15.828 15.024l117.486.023v-124.49h7.939v124.492l117.546.026c8.64.002 15.479-6.92 15.77-15.514h.02l-.034-243.54h-.02z"/></svg>