<svg clip-rule="evenodd" fill-rule="evenodd" stroke-linecap="round" stroke-linejoin="round" stroke-miterlimit="1.5" viewBox="0 0 284 284" xmlns="http://www.w3.org/2000/svg"><path d="m280.657 21.942c0-10.75-8.728-19.478-19.479-19.478h-239.306c-10.75 0-19.478 8.728-19.478 19.478v239.568c0 10.75 8.728 19.478 19.478 19.478h239.306c10.751 0 19.479-8.728 19.479-19.478v-239.568z" fill="#ebebeb"/><path d="m263.527 0c11.008.296 19.938 9.138 19.936 20.195l-.051 242.971c0 10.994-8.387 19.953-19.446 20.254v-.004l-244.029-.023v.003c-11.006-.296-19.94-9.132-19.937-20.195l.049-242.972c.003-11.062 8.932-19.899 19.938-20.195v.003l243.54-.034v-.003zm0 4.405-243.54.034v.02c-8.594.292-15.513 7.132-15.514 15.77l-.022 106.941h.049v28.875h-.056l-.021 107.156c-.002 8.639 6.919 15.479 15.514 15.77v.019l244.029.026v-.022c8.643-.297 15.022-7.252 15.024-15.828l.023-117.486h-94.49v-7.939h94.492l.026-117.546c.002-8.64-6.92-15.479-15.514-15.77v-.02z"/><path d="m4.494 137.736h94.5v7.936h-94.5z"/><path d="m137.718 184.502h7.9v94.5h-7.9z"/><path d="m137.744 4.412h7.9v94.5h-7.9z"/><g fill="none" stroke="#000"><circle cx="141.598" cy="141.753" r="45.413" stroke-width="8"/><circle cx="141.559" cy="141.495" r="55.765" stroke-width="28"/></g></svg>