<svg clip-rule="evenodd" fill-rule="evenodd" stroke-linejoin="round" stroke-miterlimit="2" viewBox="0 0 284 284" xmlns="http://www.w3.org/2000/svg"><path d="m280.657 21.942c0-10.75-8.728-19.478-19.479-19.478h-239.306c-10.75 0-19.478 8.728-19.478 19.478v239.568c0 10.75 8.728 19.478 19.478 19.478h239.306c10.751 0 19.479-8.728 19.479-19.478v-239.568z" fill="#ebebeb"/><path d="m0 19.936c.296-11.008 9.138-19.938 20.195-19.936l242.971.051c10.994 0 19.953 8.387 20.254 19.446h-.004l-.023 244.029h.003c-.296 11.006-9.132 19.94-20.195 19.937l-242.972-.049c-11.062-.003-19.899-8.932-20.195-19.938h.003l-.034-243.54h-.003zm4.405 0 .034 243.54h.02c.292 8.594 7.132 15.513 15.77 15.514l106.941.022v-.049h28.875v.056l107.156.021c8.639.002 15.479-6.919 15.77-15.514h.019l.026-244.029h-.022c-.297-8.643-7.252-15.022-15.828-15.024l-117.486-.023v94.49h-7.939v-94.492l-117.546-.026c-8.64-.002-15.479 6.92-15.77 15.514h-.02z"/><path d="m137.736 184.469h7.936v94.5h-7.936z"/><path d="m279.833 145.718v28h-85.721v-28zm-191.053 0v28h-84.58v-28z"/><path d="m72.106 145.711h28.341c1.951 21.044 19.676 37.542 41.225 37.542 21.548 0 39.274-16.498 41.224-37.542h28.321c-2.006 36.653-32.404 65.799-69.556 65.799-37.151 0-67.549-29.146-69.555-65.799z"/><path d="m141.608 92.022c27.267 0 49.405 22.137 49.405 49.404 0 27.268-22.138 49.405-49.405 49.405s-49.405-22.137-49.405-49.405c0-27.267 22.138-49.404 49.405-49.404zm-.016 8c22.86 0 41.419 18.559 41.419 41.419s-18.559 41.419-41.419 41.419-41.42-18.559-41.42-41.419 18.56-41.419 41.42-41.419z"/></svg>