<svg width="100%" height="100%" viewBox="0 0 284 284" version="1.1" xmlns="http://www.w3.org/2000/svg" xmlns:xlink="http://www.w3.org/1999/xlink" xml:space="preserve" xmlns:serif="http://www.serif.com/" fill-rule="evenodd" clip-rule="evenodd" stroke-linejoin="round" stroke-miterlimit="2"><path d="M280.657,21.942c0,-10.75 -8.728,-19.478 -19.479,-19.478l-239.306,0c-10.75,0 -19.478,8.728 -19.478,19.478l0,239.568c0,10.75 8.728,19.478 19.478,19.478l239.306,0c10.751,0 19.479,-8.728 19.479,-19.478l0,-239.568Z" fill="#ebebeb"/><path d="M263.527,0c11.008,0.296 19.938,9.138 19.936,20.195l-0.051,242.971c0,10.994 -8.387,19.953 -19.446,20.254l0,-0.004l-244.029,-0.023l0,0.003c-11.006,-0.296 -19.94,-9.132 -19.937,-20.195l0.049,-242.972c0.003,-11.062 8.932,-19.899 19.938,-20.195l0,0.003l243.54,-0.034l0,-0.003Zm-259.083,156.045l-0.021,107.156c-0.002,8.639 6.919,15.479 15.514,15.77l0,0.019l107.421,0.012l0,-97.807c0,-13.832 -11.319,-25.15 -25.151,-25.15l-97.763,0Zm15.543,-151.586c-8.594,0.292 -15.513,7.132 -15.514,15.77l-0.022,106.941l96.173,0c30.578,0 55.596,25.019 55.596,55.598l0,96.236l107.746,0.012l0,-0.022c8.643,-0.297 15.022,-7.252 15.024,-15.828l0.023,-117.486l-124.49,0l0,-7.939l124.492,0l0.026,-117.546c0.002,-8.64 -6.92,-15.479 -15.514,-15.77l0,-0.02l-243.54,0.034l0,0.02Z"/></svg>