<svg clip-rule="evenodd" fill-rule="evenodd" stroke-linejoin="round" stroke-miterlimit="2" viewBox="0 0 284 284" xmlns="http://www.w3.org/2000/svg"><path d="m280.657 21.942c0-10.75-8.728-19.478-19.479-19.478h-239.306c-10.75 0-19.478 8.728-19.478 19.478v239.568c0 10.75 8.728 19.478 19.478 19.478h239.306c10.751 0 19.479-8.728 19.479-19.478v-239.568z" fill="#ebebeb"/><path d="m19.936 283.42c-11.008-.296-19.938-9.138-19.936-20.195l.051-242.971c0-10.994 8.387-19.953 19.446-20.254v.004l244.029.023v-.003c11.006.296 19.94 9.132 19.937 20.195l-.049 242.972c-.003 11.062-8.932 19.899-19.938 20.195v-.003l-243.54.034v.003zm259.083-156.045.021-107.156c.002-8.639-6.919-15.479-15.514-15.77v-.019l-107.421-.012v97.807c0 13.832 11.319 25.15 25.151 25.15zm-15.543 151.586c8.594-.292 15.513-7.132 15.514-15.77l.022-106.941h-96.173c-30.578 0-55.596-25.019-55.596-55.598v-96.236l-107.746-.012v.022c-8.643.297-15.022 7.252-15.024 15.828l-.023 117.486h124.49v7.939h-124.492l-.026 117.546c-.002 8.64 6.92 15.479 15.514 15.77v.02l243.54-.034z"/></svg>