<svg clip-rule="evenodd" fill-rule="evenodd" stroke-linejoin="round" stroke-miterlimit="2" viewBox="0 0 284 284" xmlns="http://www.w3.org/2000/svg"><path d="m280.657 21.942c0-10.75-8.728-19.478-19.479-19.478h-239.306c-10.75 0-19.478 8.728-19.478 19.478v239.568c0 10.75 8.728 19.478 19.478 19.478h239.306c10.751 0 19.479-8.728 19.479-19.478v-239.568z" fill="#ebebeb"/><path d="m19.936 283.42c-11.008-.296-19.938-9.138-19.936-20.195l.051-242.971c0-10.994 8.387-19.953 19.446-20.254v.004l244.029.023v-.003c11.006.296 19.94 9.132 19.937 20.195l-.049 242.972c-.003 11.062-8.932 19.899-19.938 20.195v-.003l-243.54.034v.003zm0-4.405 243.54-.034v-.02c8.594-.292 15.513-7.132 15.514-15.77l.022-106.941h-.049v-28.875h.056l.021-107.156c.002-8.639-6.919-15.479-15.514-15.77v-.019l-244.029-.026v.022c-8.643.297-15.022 7.252-15.024 15.828l-.023 117.486h94.49v7.939h-94.492l-.026 117.546c-.002 8.64 6.92 15.479 15.514 15.77z"/><path d="m184.469 137.748h94.5v7.936h-94.5z"/><path d="m145.718 3.587h28v85.721h-28v-85.721zm0 191.053h28v84.58h-28z"/><path d="m145.711 211.314v-28.341c21.044-1.951 37.542-19.676 37.542-41.225 0-21.548-16.498-39.274-37.542-41.224v-28.321c36.653 2.006 65.799 32.404 65.799 69.556 0 37.151-29.146 67.549-65.799 69.555z"/><path d="m92.022 141.812c0-27.267 22.137-49.405 49.404-49.405 27.268 0 49.405 22.138 49.405 49.405s-22.137 49.405-49.405 49.405c-27.267 0-49.404-22.138-49.404-49.405zm8 .016c0-22.86 18.559-41.419 41.419-41.419s41.419 18.559 41.419 41.419-18.559 41.42-41.419 41.42-41.419-18.56-41.419-41.42z"/></svg>