<svg clip-rule="evenodd" fill-rule="evenodd" stroke-linejoin="round" stroke-miterlimit="2" viewBox="0 0 284 284" xmlns="http://www.w3.org/2000/svg"><path d="m280.657 21.942c0-10.75-8.728-19.478-19.479-19.478h-239.306c-10.75 0-19.478 8.728-19.478 19.478v239.568c0 10.75 8.728 19.478 19.478 19.478h239.306c10.751 0 19.479-8.728 19.479-19.478v-239.568z" fill="#ebebeb"/><path d="m263.527 0c11.008.296 19.938 9.138 19.936 20.195l-.051 242.971c0 10.994-8.387 19.953-19.446 20.254v-.004l-244.029-.023v.003c-11.006-.296-19.94-9.132-19.937-20.195l.049-242.972c.003-11.062 8.932-19.899 19.938-20.195v.003l243.54-.034v-.003zm0 4.405-243.54.034v.02c-8.594.292-15.513 7.132-15.514 15.77l-.022 106.941h.049v28.875h-.056l-.021 107.156c-.002 8.639 6.919 15.479 15.514 15.77v.019l107.421.012v-97.807c0-1.111-.073-2.206-.215-3.28v-43.968c17.286 9.456 29.077-2.172 29.077 18.821v126.236l107.746.012v-.022c8.643-.297 15.022-7.252 15.024-15.828l.051-242.971c.002-8.64-6.92-15.479-15.514-15.77v-.02z"/><path d="m154.302 123.67 119.521-119.522 5.574 5.574-119.522 119.521z"/><path d="m155.766 135.386-134.084-134.084c-12.414 1.447-18.898 8.502-20.332 20.332l134.084 134.084c14.39 17.632 22.821 16.617 20.332-20.332z"/></svg>