<svg clip-rule="evenodd" fill-rule="evenodd" stroke-linejoin="round" stroke-miterlimit="2" viewBox="0 0 284 143" xmlns="http://www.w3.org/2000/svg"><path d="m282.736 22.485c0-11.948-9.7-21.647-21.647-21.647h-236.875c-11.948 0-21.647 9.699-21.647 21.647v97.816c0 11.948 9.699 21.647 21.647 21.647h236.875c11.947 0 21.647-9.699 21.647-21.647z" fill="#fff"/><path d="m114.729 4.426v52.735l-107.38-24.742 134.382 105.584 122.284.012v-.02c8.643-.297 15.025-7.254 15.025-15.831v-101.966c0-8.642-6.92-15.482-15.516-15.772v-.021l-94.79.014v52.742l107.462-24.741-134.465 105.583-121.79-.012v-.021c-8.597-.291-15.518-7.128-15.518-15.772v-101.966c0-8.642 6.921-15.481 15.518-15.772v-.021l94.788-.013zm148.795-4.426c11.011.296 19.939 9.136 19.939 20.198v101.966c0 10.998-8.388 19.957-19.448 20.258v-.004l-244.074-.024v.003c-11.009-.296-19.941-9.136-19.941-20.199v-101.966c0-11.064 8.932-19.903 19.941-20.199v.004l243.583-.034v-.003z"/></svg>