<svg clip-rule="evenodd" fill-rule="evenodd" stroke-linejoin="round" stroke-miterlimit="2" viewBox="0 0 284 143" xmlns="http://www.w3.org/2000/svg"><path d="m282.736 22.485c0-11.948-9.7-21.647-21.647-21.647h-236.875c-11.948 0-21.647 9.699-21.647 21.647v97.816c0 11.948 9.699 21.647 21.647 21.647h236.875c11.947 0 21.647-9.699 21.647-21.647z" fill="#fff"/><path d="m167.942 58.864c12.918 0 23.391 10.473 23.391 23.39 0 12.918-10.473 23.39-23.391 23.39s-23.391-10.472-23.391-23.39c0-12.917 10.473-23.39 23.391-23.39m-96.508 0c12.918 0 23.39 10.473 23.39 23.39 0 12.918-10.472 23.39-23.39 23.39s-23.391-10.472-23.391-23.39c0-12.917 10.473-23.39 23.391-23.39m96.508-1.903c13.969 0 25.294 11.325 25.294 25.293s-11.325 25.295-25.294 25.295-25.294-11.327-25.294-25.295 11.325-25.293 25.294-25.293m-96.508 0c13.968 0 25.293 11.325 25.293 25.293s-11.325 25.295-25.293 25.295c-13.97 0-25.294-11.327-25.294-25.295s11.324-25.293 25.294-25.293m0-3.972c14.695 0 26.863 10.836 28.949 24.952 12.87-4.017 25.739-4.019 38.608.008 2.083-14.121 14.253-24.96 28.951-24.96 14.826 0 27.08 11.029 29.003 25.329l41.733-41.733c4.685-4.685 15.546-3.61 15.546 5.275v7.261h-4.232l-.01-7.494c0-4.81-6.017-4.223-8.367-1.872l-39.141 39.141v10.334h-6.103c-3.129 12.795-14.672 22.291-28.429 22.291-16.161 0-29.266-13.105-29.266-29.267l.011-.811c-12.666-3.9-25.332-3.898-37.999-.006l.011.817c0 16.162-13.105 29.267-29.265 29.267-13.758 0-25.3-9.496-28.43-22.291h-4.443v-10.334l4.743-4.744c2.775-9.647 10.38-17.252 20.028-20.027l17.54-17.54c4.685-4.685 15.547-3.61 15.547 5.275v7.261h-4.234l-.009-7.494c0-4.81-6.017-4.223-8.368-1.872l-13.246 13.247c.289-.009.58-.013.872-.013m-67.011 69.21c0 8.643 6.921 15.48 15.518 15.771l244.074.026c8.643-.299 15.025-7.256 15.025-15.832v-101.966c0-8.642-6.92-15.482-15.516-15.772l-243.583.034c-8.597.291-15.518 7.13-15.518 15.772v101.967zm259.101-122.199c11.011.296 19.939 9.137 19.939 20.198v101.966c0 17.967-19.448 21.455-19.448 20.254l-244.074-.022c-11.009-.295-19.941-9.135-19.941-20.197v-101.967c0-11.064 8.932-19.903 19.941-20.199l243.583-.033z"/></svg>