<svg clip-rule="evenodd" fill-rule="evenodd" stroke-linejoin="round" stroke-miterlimit="2" viewBox="0 0 284 143" xmlns="http://www.w3.org/2000/svg"><path d="m282.736 22.485c0-11.948-9.7-21.647-21.647-21.647h-236.875c-11.948 0-21.647 9.699-21.647 21.647v97.816c0 11.948 9.699 21.647 21.647 21.647h236.875c11.947 0 21.647-9.699 21.647-21.647z" fill="#fff"/><path d="m103.121 42.633c14.388-8.963 26.73 8.715 27.415 22.314l1.244.014c1.707-19.245 13.034-34.987 32.655-39.279 12.986-2.84 27.426.176 37.249 9.545 3.494 3.333 6.769 9.836 7.187 14.567 1.387 15.714-9.719 28.061-23.88 32.657-11.162 3.621-47.425 3.752-60.014 3.148-13.127-.631-29.578-2.593-42.363-5.207-6.533-1.336-11.41-3.156-13.166-10.003-4.543-17.72 19.33-17.623 19.879-5.426l1.272.01c1.597-9.154 4.311-17.225 12.522-22.34m2.472-8.327c7.779-1.843 15.049.325 20.614 6.062l3.858 3.976 3.3-5.1c6.53-10.094 19.929-18.601 31.82-20.551 9.128-1.498 19.824-.544 28.17 3.312 8.584 3.967 13.725 7.228 18.373 15.555 4.591 8.229 5.002 16.375 2.496 25.398-1.994 7.18-9.04 15.841-15.283 20.157-9.845 6.81-18.964 7.525-30.578 8.428-26.092 2.029-54.349 1.072-80.247-3.342-6.328-1.078-13.878-2.152-18.139-5.508-6.809-5.361-9.605-14.472-6.748-22.342 1.105-3.044 5.363-7.353 8.223-8.822 5.859-3.009 10.225-1.752 15.997-.034 3.715-7.516 9.507-15.145 18.144-17.189m86.866 60.713h-6.247l-10.144 21.076h6.248zm-27.264 9.049h-6.247l-10.145 21.076h6.247zm-25.865-9.049h-6.247l-10.144 21.076h6.247zm-26.214 9.049h-6.247l-10.145 21.076h6.248zm-26.098-9.049h-6.248l-10.144 21.076h6.248zm176.507-95.019c11.011.296 19.939 9.137 19.939 20.198v101.966c0 17.967-19.448 21.455-19.448 20.254l-244.074-.022c-11.009-.295-19.942-9.135-19.942-20.197v-101.967c0-11.064 8.933-19.903 19.942-20.199l243.583-.033zm-259.101 122.199c0 8.642 6.921 15.48 15.518 15.771l244.074.026c8.643-.299 15.024-7.256 15.024-15.832v-101.966c0-8.642-6.919-15.482-15.515-15.773l-243.583.035c-8.597.291-15.518 7.13-15.518 15.772v101.967z"/></svg>