<svg clip-rule="evenodd" fill-rule="evenodd" stroke-linejoin="round" stroke-miterlimit="2" viewBox="0 0 284 143" xmlns="http://www.w3.org/2000/svg"><path d="m282.736 22.485c0-11.948-9.7-21.647-21.647-21.647h-236.875c-11.948 0-21.647 9.699-21.647 21.647v97.816c0 11.948 9.699 21.647 21.647 21.647h236.875c11.947 0 21.647-9.699 21.647-21.647z" fill="#fff"/><path d="m121.815 31.628 3.87 21.261h25.631v10.192h-23.776l1.127 6.189h33.044l15.106 31.588 13.408-6.755 5.222 10.539-23.295 11.736-17.632-35.964h-35.731l-9.358-51.415c-2.183-2.141-3.538-5.123-3.538-8.422 0-6.513 5.28-11.793 11.794-11.793 6.513 0 11.793 5.28 11.793 11.793 0 5.061-3.188 9.378-7.665 11.051m38.8 65.366c-1.849 16.074-15.501 28.557-32.071 28.557-17.831 0-32.287-14.455-32.287-32.286 0-12.687 7.321-23.664 17.967-28.942l-1.426-7.83c-14.258 6.113-24.247 20.276-24.247 36.772 0 22.087 17.906 39.993 39.993 39.993 17.002 0 31.526-10.612 37.312-25.573zm-140.676 45.427c-11.01-.296-19.939-9.137-19.939-20.199v-101.965c0-10.999 8.388-19.958 19.448-20.257v.003l244.074.023v-.002c11.009.295 19.941 9.135 19.941 20.198v101.966c0 11.065-8.932 19.903-19.941 20.199v-.003l-243.583.034zm243.583-4.46c8.597-.291 15.518-7.13 15.518-15.773v-101.966c0-8.642-6.921-15.481-15.518-15.772v-.021l-244.074-.024v.02c-8.643.298-15.025 7.254-15.025 15.832v101.965c0 8.643 6.92 15.483 15.516 15.773v.02l243.583-.034z"/></svg>