<svg clip-rule="evenodd" fill-rule="evenodd" stroke-linejoin="round" stroke-miterlimit="2" viewBox="0 0 284 143" xmlns="http://www.w3.org/2000/svg"><path d="m282.736 22.485c0-11.948-9.7-21.647-21.647-21.647h-236.875c-11.948 0-21.647 9.699-21.647 21.647v97.816c0 11.948 9.699 21.647 21.647 21.647h236.875c11.947 0 21.647-9.699 21.647-21.647z" fill="#fff"/><path d="m163.162 72.303 13.655 28.556 13.408-6.755 5.222 10.539-23.295 11.735-17.457-35.608zm-41.347-40.674 3.87 21.261h25.631v10.192h-23.776l1.127 6.189h16.754l-11.143 11.143h-15.489l-9.358-51.415c-2.183-2.14-3.538-5.122-3.538-8.421 0-6.514 5.281-11.794 11.794-11.794 6.514 0 11.793 5.28 11.793 11.794 0 5.061-3.188 9.377-7.665 11.051m-19.381 80.628c-3.883-5.329-6.176-11.892-6.176-18.991 0-12.688 7.32-23.664 17.966-28.942l-1.425-7.83c-14.259 6.113-24.247 20.276-24.247 36.772 0 9.229 3.128 17.726 8.379 24.494zm58.181-15.263c-1.849 16.075-15.501 28.558-32.07 28.558-5.4 0-10.488-1.327-14.962-3.67l-5.657 5.657c6.021 3.63 13.076 5.72 20.619 5.72 17.002 0 31.525-10.612 37.311-25.573zm-140.676 45.428c-11.01-.297-19.939-9.138-19.939-20.199v-101.965c0-10.999 8.389-19.958 19.449-20.258v.004l244.073.023v-.002c11.009.295 19.942 9.134 19.942 20.198v101.966c0 11.064-8.933 19.903-19.942 20.199v-.003l-243.583.033zm243.583-4.461c8.597-.291 15.518-7.13 15.518-15.772v-101.966c0-8.643-6.921-15.482-15.518-15.773v-.02l-32.484-.003.017-.016-20.777.002-.012.012-190.817-.019v.02c-8.643.298-15.026 7.254-15.026 15.832v101.965c0 8.643 6.921 15.482 15.516 15.772v.021l243.583-.034z"/><path d="m210.278 4.413 20.776-.002-133.589 133.588-20.771-.002 133.584-133.584z" fill="#d72717"/></svg>