<svg clip-rule="evenodd" fill-rule="evenodd" stroke-linejoin="round" stroke-miterlimit="2" viewBox="0 0 284 143" xmlns="http://www.w3.org/2000/svg"><path d="m137.616 106.151-.622-7.195c3.768 2.897 16.238 4.642 16.65-2.73.209-3.745-2.623-5.274-5.992-5.274-1.077 0-2.23.092-3.355.48v-6.076c5.017-.6 7.663-2.925 7.807-6.057.074-1.581-1.05-3.48-3.887-3.581-2.43-.085-6.097 1.589-8.242 3.33l-2.227-6.252c2.611-1.77 7.739-2.85 11.097-2.87 5.44 0 10.451 2.846 10.451 8.849.011 3.423-2.565 6.308-6.429 8.191v.104c4.978.762 8.186 5.121 8.186 10.043-.005 7.816-7.461 10.422-13.43 10.422-3.591 0-7.869-.09-10.007-1.384m65.765-11.138c0-1.791-.038-3.137-.885-4.198-.849-1.06-2.371-1.614-3.829-1.614-1.283 0-2.5.413-3.666 1.224-1.056.735-2.263 1.528-2.812 2.588.076 2.005.581 3.765 1.519 5.277 1.124 1.766 2.583 2.645 4.392 2.645 1.307 0 2.459-.566 3.445-1.709.985-1.142 1.836-2.528 1.836-4.213m2.699 8.779c-2.281 2.24-4.618 3.744-7.651 3.744-4.734 0-8.237-2.66-10.57-7.093-1.773-3.369-2.682-7.041-2.682-11.9 0-5.372 1.885-9.863 4.255-13.717 3.397-5.524 11.898-5.878 17.756-3.524l1.574 7.046c-3.657-1.408-10.251-3.926-13.75-.209-2.319 2.464-2.553 4.699-2.553 8.391 3.71-3.78 10.768-4.524 14.748-.495 4.469 4.526 3.358 13.352-1.127 17.757m-182.579-59.154c0 2.051.432 3.618 1.303 4.707.864 1.088 1.936 1.633 3.209 1.633 1.274 0 2.34-.545 3.199-1.633.865-1.089 1.298-2.669 1.298-4.746 0-2.018-.433-3.578-1.298-4.667-.859-1.088-1.925-1.633-3.199-1.633-1.273 0-2.345.545-3.209 1.633-.871 1.089-1.303 2.662-1.303 4.706m-4.685-.281c0-1.752.389-3.452 1.156-5.094.773-1.636 1.866-2.893 3.28-3.752 1.413-.866 2.993-1.303 4.739-1.303 2.69 0 4.899.981 6.622 2.944s2.581 4.439 2.581 7.436c0 3.014-.87 5.516-2.604 7.505-1.74 1.989-3.926 2.977-6.565 2.977-1.637 0-3.187-.41-4.67-1.238s-2.61-2.04-3.383-3.637c-.767-1.598-1.156-3.542-1.156-5.838m88.462 1.749h7.05v8.279h4.748v-19.493h-4.748v7.229h-7.05v-7.229h-4.748v19.493h4.748zm-66.432-11.214h16.197v19.493h-4.597v-15.495h-7.003v15.495h-4.597zm209.635 4.72-2.244-3.222c1.996-1.303 5.119-2.19 8.067-2.182 3.575.01 7.653 1.683 7.653 5.264 0 2.221-1.473 3.726-3.572 4.712 7.072 2.152 4.655 10.998-4.199 10.884-3.338-.042-6.863-.996-8.897-2.662l2.603-3.086c1.474 1.701 4.015 2.383 5.996 2.406 6.056.069 5.296-6.043.379-6.043h-2.308l-.005-3.03 2.332.001c.742 0 1.382-.079 1.774-.291 2.745-1.479 1.875-4.869-2.304-4.811-1.94.027-3.505.703-5.275 2.06m-151.525 8.905c-.633 3.78-4.494 6.481-8.634 6.551-6.176.104-9.332-4.569-9.332-10.248 0-3.358.881-5.964 2.641-7.824 1.76-1.856 4.073-2.848 6.943-2.785 4.389.097 7.129 2.266 8.26 6.294l-3.921 1.046c.019-.004-1.06-3.504-4.548-3.524-3.645-.021-4.787 3.249-4.795 6.745-.008 3.098.964 6.585 4.814 6.585 2.473 0 4.026-1.654 4.529-3.79zm24.549-13.625h4.355v7.332h4.243c4.119 0 6.719 2.326 6.616 5.918s-2.886 6.243-6.616 6.243h-8.598v-13.323zm4.355 15.655h3.082c1.838 0 3.615-.764 3.615-2.474 0-1.711-1.882-2.465-3.606-2.465h-3.091zm13.066-15.655h4.288v19.493h-4.288zm-77.844 5.509-2.224-3.542c4.834-3.967 15.901-4.255 15.896 4.547l-.007 8.848c-.002.405.416.995.856.995h1.097l-1.54 3.563c-2.304.256-4.141-.474-4.911-2.386-1.363 1.836-3.301 2.655-5.175 2.643-3.044-.019-5.947-2.251-6.118-5.993-.317-6.898 8.534-7.232 11.124-7.453.178-5.602-7.082-3.561-8.998-1.222m8.998 4.655c-2.236.799-6.701.604-6.633 3.579.081 3.559 4.976 2.827 6.649-.427zm78.137-10.128h4.461v11.917l7.623-11.917h4.461v19.457h-4.461v-11.689l-7.623 11.689h-4.461zm15.269-8.277c-.553 3.366-3.474 5.935-6.997 5.935-3.522 0-6.445-2.569-6.997-5.935h3.495c.485 1.469 1.87 2.53 3.502 2.53s3.017-1.061 3.501-2.53zm45.682 16.632c.048-4.887 6.46-6.115 8.23-1.444 1.173 3.096.578 9.168-4.195 9.224-1.522.017-2.949-.85-3.62-2.286-.271-.568-.409-1.276-.415-2.125zm0 19.31v-9.089c.564 0 1.094 1.668 4.336 1.725 5.486.093 8.998-4.924 9.067-10.105.071-5.283-2.835-10.319-8.912-10.202-1.555.029-3.28.49-4.491 1.98h-.07l-.77-1.506h-3.671v27.197zm15.503-27.186h4.978l4.886 12.39 4.389-12.39h4.904l-7.442 20.362c-.813 2.202-1.639 3.88-2.48 5.034-.843 1.148-1.931 1.728-3.266 1.728-1.313 0-2.155-.06-2.895-.266l-1.657-4.069c.631.05 2.674.075 3.182.075 1.037 0 .95-.232 1.395-.686.447-.455 1.158-2.177 1.569-3.686zm-36.994-.515h13.996v4.288h-9.709v15.205h-4.287v-15.205zm-162.83 44.204h5.166v10.336c8.487-.822 3.176-10.853 14.452-10.853l1.128 5.258c-5.246-.231-6.218 7.387-9.896 8.013 5.818.992 5.427 6.683 12.012 15.27h-6.262c-7.246-11.698-5.571-12.447-11.434-12.447v12.447h-5.166zm29.369.041h17.483v28.005h-5.245v-23.264h-7.04l-.346 11.958c-.19 6.581-3.627 10.904-9.904 12.103l-.977-5.191c5.083-1.039 5.438-4.206 5.643-7.622zm25.315 21.248c1.95 0 3.53 1.581 3.53 3.532 0 1.95-1.58 3.53-3.53 3.53-1.951 0-3.531-1.58-3.531-3.53 0-1.951 1.58-3.532 3.531-3.532m46.746 0c1.95 0 3.531 1.581 3.531 3.532 0 1.95-1.581 3.53-3.531 3.53s-3.531-1.58-3.531-3.53c0-1.951 1.581-3.532 3.531-3.532m41.842 0c1.95 0 3.53 1.581 3.53 3.532 0 .923-.354 1.763-.934 2.393l-3.334 6.474h-3.406l2.87-5.573c-1.321-.512-2.256-1.793-2.256-3.294 0-1.951 1.58-3.532 3.53-3.532m48.604 0c1.951 0 3.532 1.581 3.532 3.532 0 .923-.355 1.763-.936 2.393l-3.333 6.474h-3.406l2.87-5.573c-1.321-.512-2.257-1.793-2.257-3.294 0-1.951 1.58-3.532 3.53-3.532m13.737-23.315 1.767-6.592h22.316v6.592c-5.013 6.6-9.939 19.767-11.837 30.131l-7.849-.171c2.459-10.35 7.287-21.192 12.283-29.96zm-122.046 17.063v-13.009l-10.007 13.009zm0 13.068v-6.773h-17.323v-6.265l17.685-23.686h6.555v23.656h4.915l-2.385 6.295h-2.53v6.773zm-90.473-102.741c-8.596.291-15.518 7.13-15.518 15.772v101.966c0 8.643 6.922 15.481 15.518 15.772v.021l244.074.024v-.02c8.643-.297 15.025-7.254 15.025-15.831v-101.966c0-8.642-6.92-15.482-15.516-15.773v-.02l-243.583.034v.021z" fill="#e89300"/><path d="m110.414 107.201v-6.772h-17.323v-6.266l17.685-23.686h6.555v23.657h4.916l-2.386 6.295h-2.53v6.772zm0-13.067v-13.01l-10.007 13.01zm122.046-17.064 1.767-6.592h22.316v6.592c-5.013 6.6-9.939 19.767-11.837 30.131l-7.849-.171c2.459-10.35 7.287-21.192 12.284-29.96zm-13.736 23.316c1.95 0 3.531 1.581 3.531 3.531 0 .924-.355 1.763-.936 2.393l-3.333 6.474h-3.406l2.87-5.573c-1.321-.512-2.257-1.793-2.257-3.294 0-1.95 1.58-3.531 3.531-3.531m-48.605 0c1.95 0 3.53 1.581 3.53 3.531 0 .924-.354 1.763-.934 2.393l-3.334 6.474h-3.405l2.87-5.573c-1.322-.512-2.257-1.793-2.257-3.294 0-1.95 1.58-3.531 3.53-3.531m-41.842 0c1.95 0 3.531 1.581 3.531 3.531s-1.581 3.53-3.531 3.53-3.53-1.58-3.53-3.53 1.58-3.531 3.53-3.531m-46.746 0c1.95 0 3.53 1.581 3.53 3.531s-1.58 3.53-3.53 3.53-3.531-1.58-3.531-3.53 1.581-3.531 3.531-3.531m-25.315-21.248h17.483v28.004h-5.245v-23.264h-7.04l-.346 11.958c-.19 6.581-3.627 10.904-9.904 12.103l-.977-5.191c5.083-1.039 5.438-4.206 5.644-7.622zm-29.368-.041h5.166v10.335c8.486-.822 3.175-10.853 14.451-10.853l1.128 5.258c-5.245-.231-6.218 7.387-9.896 8.013 5.819.993 5.427 6.683 12.012 15.27h-6.262c-7.245-11.697-5.571-12.446-11.433-12.446v12.446h-5.166zm162.829-44.205h13.996v4.288h-9.709v15.206h-4.287v-15.206zm36.994.516h4.978l4.886 12.389 4.389-12.389h4.904l-7.442 20.361c-.813 2.203-1.639 3.88-2.48 5.035-.843 1.147-1.93 1.728-3.265 1.728-1.314 0-2.156-.061-2.896-.267l-1.657-4.069c.631.05 2.675.075 3.182.075 1.038 0 .95-.232 1.395-.686.447-.455 1.158-2.176 1.569-3.686zm-15.503 27.185v-9.089c.564 0 1.094 1.669 4.336 1.725 5.486.094 8.998-4.924 9.067-10.105.072-5.282-2.835-10.319-8.912-10.202-1.555.029-3.28.49-4.491 1.981h-.069l-.771-1.507h-3.671v27.197zm0-19.31c.048-4.887 6.46-6.115 8.23-1.443 1.173 3.095.579 9.167-4.195 9.223-1.521.017-2.949-.85-3.62-2.286-.271-.568-.409-1.276-.415-2.125zm-45.682-16.632c-.552 3.366-3.474 5.935-6.997 5.935-3.522 0-6.445-2.569-6.997-5.935h3.495c.486 1.469 1.87 2.53 3.502 2.53s3.017-1.061 3.501-2.53zm-15.269 8.277h4.461v11.918l7.623-11.918h4.461v19.458h-4.461v-11.69l-7.623 11.69h-4.461zm-78.137 10.128c-2.236.799-6.701.604-6.633 3.58.081 3.558 4.976 2.826 6.649-.428zm-8.998-4.655-2.224-3.541c4.834-3.968 15.901-4.256 15.896 4.547l-.007 8.847c-.002.405.416.995.856.995h1.097l-1.54 3.563c-2.304.257-4.141-.474-4.911-2.386-1.363 1.836-3.301 2.655-5.174 2.644-3.045-.019-5.948-2.252-6.119-5.994-.317-6.897 8.534-7.231 11.124-7.453.178-5.602-7.082-3.561-8.998-1.222m77.844-5.509h4.288v19.493h-4.288zm-13.066 15.655h3.082c1.838 0 3.615-.764 3.615-2.474s-1.882-2.465-3.606-2.465h-3.091zm-4.355-15.655h4.355v7.332h4.243c4.12 0 6.719 2.326 6.616 5.918-.103 3.593-2.886 6.244-6.616 6.244h-8.598v-13.324zm-24.549 13.625c-.633 3.781-4.494 6.481-8.634 6.551-6.176.104-9.332-4.569-9.332-10.247 0-3.359.882-5.965 2.641-7.825 1.76-1.856 4.073-2.848 6.943-2.785 4.389.097 7.13 2.266 8.26 6.295l-3.921 1.046c.019-.005-1.06-3.504-4.548-3.524-3.644-.022-4.786 3.249-4.795 6.744-.008 3.098.965 6.585 4.814 6.585 2.473 0 4.026-1.654 4.529-3.79zm151.525-8.905-2.244-3.222c1.996-1.303 5.119-2.19 8.068-2.182 3.574.01 7.652 1.683 7.652 5.264 0 2.221-1.473 3.727-3.572 4.712 7.072 2.152 4.655 10.998-4.199 10.885-3.337-.043-6.863-.996-8.897-2.663l2.604-3.085c1.473 1.7 4.014 2.382 5.996 2.405 6.055.069 5.296-6.043.379-6.043h-2.309l-.005-3.03 2.332.001c.742 0 1.382-.079 1.774-.29 2.746-1.479 1.875-4.87-2.304-4.812-1.94.027-3.505.703-5.275 2.06m-209.635-4.72h16.197v19.494h-4.597v-15.496h-7.003v15.496h-4.597zm66.432 11.214h7.05v8.28h4.748v-19.494h-4.748v7.229h-7.05v-7.229h-4.748v19.494h4.748zm-88.462-1.749c0-1.752.389-3.452 1.156-5.094.773-1.636 1.866-2.893 3.28-3.752 1.413-.866 2.994-1.303 4.739-1.303 2.69 0 4.9.981 6.622 2.945 1.723 1.963 2.581 4.439 2.581 7.435 0 3.014-.869 5.516-2.604 7.506-1.74 1.988-3.926 2.976-6.565 2.976-1.637 0-3.187-.41-4.67-1.238s-2.61-2.04-3.383-3.637c-.767-1.598-1.156-3.542-1.156-5.838m4.685.281c0 2.051.432 3.619 1.303 4.708.864 1.087 1.936 1.632 3.209 1.632 1.275 0 2.34-.545 3.199-1.632.865-1.089 1.298-2.67 1.298-4.747 0-2.018-.433-3.578-1.298-4.667-.859-1.087-1.924-1.632-3.199-1.632-1.273 0-2.345.545-3.209 1.632-.871 1.089-1.303 2.663-1.303 4.706m182.579 59.154c-2.281 2.24-4.618 3.744-7.651 3.744-4.734 0-8.237-2.66-10.57-7.093-1.773-3.369-2.682-7.041-2.682-11.9 0-5.372 1.885-9.863 4.256-13.717 3.396-5.523 11.897-5.878 17.755-3.523l1.575 7.045c-3.658-1.408-10.252-3.926-13.75-.209-2.32 2.464-2.554 4.7-2.554 8.391 3.71-3.78 10.768-4.523 14.748-.495 4.469 4.526 3.358 13.353-1.127 17.757m-2.699-8.779c0-1.791-.038-3.137-.885-4.198-.849-1.059-2.371-1.614-3.829-1.614-1.283 0-2.5.413-3.666 1.225-1.056.734-2.263 1.527-2.812 2.587.077 2.005.581 3.765 1.519 5.277 1.124 1.766 2.583 2.645 4.393 2.645 1.306 0 2.459-.566 3.444-1.709.985-1.142 1.836-2.528 1.836-4.213m-65.765 11.138-.622-7.195c3.769 2.897 16.238 4.642 16.65-2.73.209-3.745-2.623-5.274-5.992-5.274-1.077 0-2.23.092-3.355.48v-6.076c5.017-.599 7.663-2.925 7.807-6.056.074-1.581-1.05-3.481-3.887-3.581-2.43-.085-6.097 1.588-8.242 3.33l-2.227-6.253c2.611-1.77 7.739-2.85 11.097-2.87 5.44 0 10.451 2.846 10.451 8.849.012 3.423-2.565 6.308-6.429 8.192v.103c4.978.762 8.186 5.121 8.186 10.043-.005 7.817-7.461 10.422-13.43 10.422-3.591 0-7.869-.09-10.007-1.384m-117.675-101.691c-8.596.291-15.518 7.13-15.518 15.772v101.966c0 8.644 6.922 15.482 15.518 15.773v.02l244.075.024v-.02c8.642-.297 15.024-7.254 15.024-15.831v-101.966c0-8.642-6.92-15.482-15.516-15.772v-.02l-243.583.033v.021zm243.583-4.46c11.011.296 19.94 9.137 19.94 20.198v101.966c0 10.998-8.389 19.957-19.448 20.258v-.004l-244.075-.024v.003c-11.008-.296-19.941-9.135-19.941-20.199v-101.966c0-11.064 8.933-19.903 19.941-20.198v.003l243.583-.034v-.003z"/></svg>