<svg clip-rule="evenodd" fill-rule="evenodd" stroke-linejoin="round" stroke-miterlimit="2" viewBox="0 0 143 284" xmlns="http://www.w3.org/2000/svg"><path d="m140.786 24.307c0-12.27-9.963-22.233-22.233-22.233h-94.49c-12.271 0-22.233 9.963-22.233 22.233v235.787c0 12.27 9.962 22.233 22.233 22.233h94.49c12.27 0 22.233-9.963 22.233-22.233z" fill="#fff"/><path d="m94.334 63.023-23.124-40.159-23.122 40.159h13.432v52.784h19.382v-52.784zm43.627-43.082c-.291-8.597-7.129-15.518-15.772-15.518h-101.966c-8.643 0-15.481 6.921-15.772 15.518h-.021l-.024 244.074h.02c.298 8.643 7.254 15.026 15.832 15.026h101.965c8.642 0 15.482-6.921 15.773-15.517h.02l-.034-243.583zm4.461 243.583c-.297 11.011-9.137 19.94-20.199 19.94h-101.965c-10.999 0-19.958-8.389-20.258-19.449h.003l.024-244.074h-.003c.296-11.009 9.136-19.941 20.199-19.941h101.966c11.065 0 19.903 8.932 20.2 19.941h-.004l.033 243.583z"/><g fill-rule="nonzero"><path d="m59.294 179.066 7.187-.906c.188 2 .802 3.573 1.844 4.719s2.187 1.719 3.437 1.719c1.48 0 2.75-.735 3.813-2.203 1.062-1.469 1.594-3.724 1.594-6.766 0-2.875-.526-5-1.579-6.375-1.052-1.375-2.39-2.063-4.015-2.063-2.063 0-3.917 1.115-5.563 3.344l-5.843-1.031 3.687-23.844h19.031v8.219h-13.562l-1.156 7.781c1.625-.979 3.27-1.469 4.937-1.469 2.958 0 5.469 1.167 7.531 3.5 2.605 2.98 3.907 6.907 3.907 11.782 0 4.021-1.11 7.718-3.329 11.093-2.218 3.375-5.39 5.063-9.515 5.063-3.333 0-6.12-1.089-8.36-3.266-2.239-2.177-3.588-5.276-4.046-9.297z"/><path d="m56.217 235.667v-33.157h8.969l6.718 23.094 6.844-23.094h8.906v33.157h-6.218v-21.813l-6.594 21.813h-6.156l-6.25-21.813v21.813z"/></g></svg>