<svg clip-rule="evenodd" fill-rule="evenodd" stroke-linejoin="round" stroke-miterlimit="2" viewBox="0 0 143 284" xmlns="http://www.w3.org/2000/svg"><path d="m140.786 24.307c0-12.27-9.963-22.233-22.233-22.233h-94.49c-12.271 0-22.233 9.963-22.233 22.233v235.787c0 12.27 9.962 22.233 22.233 22.233h94.49c12.27 0 22.233-9.963 22.233-22.233z" fill="#fff"/><path d="m85.223 4.424-.137 184.837h27.209l-41.084 70.235-41.084-70.235h27.21l-.137-184.837h-36.977c-8.643 0-15.481 6.921-15.772 15.518h-.02l-.024 244.074h.02c.297 8.642 7.254 15.025 15.831 15.025h101.965c8.643 0 15.482-6.921 15.773-15.516h.02l-.033-243.583h-.022c-.291-8.597-7.129-15.518-15.771-15.518h-36.967zm57.199 259.101c-.297 11.01-9.136 19.94-20.199 19.94h-101.965c-10.998 0-19.957-8.39-20.258-19.449h.004l.024-244.074h-.003c.296-11.009 9.135-19.942 20.198-19.942h101.967c11.064 0 19.902 8.933 20.199 19.942h-.004l.033 243.583z"/></svg>