<svg clip-rule="evenodd" fill-rule="evenodd" stroke-linejoin="round" stroke-miterlimit="2" viewBox="0 0 284 143" xmlns="http://www.w3.org/2000/svg"><path d="m282.736 22.485c0-11.948-9.7-21.647-21.647-21.647h-236.875c-11.948 0-21.647 9.699-21.647 21.647v97.816c0 11.948 9.699 21.647 21.647 21.647h236.875c11.947 0 21.647-9.699 21.647-21.647z" fill="#fff"/><path d="m269.126 71.7-21.808-36.949-21.805 36.949h14.241v35.243h15.131v-35.243zm-211.175 0-21.807-36.949-21.807 36.949h14.241v35.243h15.132v-35.243zm-38.009-67.24c-8.597.292-15.519 7.13-15.519 15.773v101.965c0 8.644 6.922 15.482 15.519 15.773v.02l244.074.025v-.021c8.642-.297 15.024-7.254 15.024-15.831v-101.966c0-8.642-6.92-15.482-15.515-15.772v-.02l-243.583.034v.02zm243.583-4.46c11.01.296 19.939 9.137 19.939 20.198v101.966c0 10.998-8.389 19.957-19.448 20.258v-.004l-244.074-.023v.003c-11.009-.296-19.942-9.136-19.942-20.2v-101.965c0-11.064 8.933-19.903 19.942-20.199v.003l243.583-.034v-.003z"/><g fill-rule="nonzero"><path d="m83.141 95.788v-11.523h-19.219v-9.61l20.352-36.367h7.578v36.328h5.82v9.649h-5.82v11.523zm0-21.172v-19.57l-10.781 19.57z"/><path d="m117.203 38.288c4.558 0 8.242 2.168 11.055 6.504 2.812 4.336 4.219 11.921 4.219 22.754 0 10.807-1.407 18.379-4.219 22.715-2.813 4.336-6.484 6.504-11.016 6.504-4.557 0-8.242-2.149-11.054-6.446-2.813-4.296-4.219-11.927-4.219-22.89 0-10.755 1.406-18.301 4.219-22.637 2.812-4.336 6.484-6.504 11.015-6.504zm0 9.102c-1.771 0-3.183 1.172-4.238 3.515-1.055 2.344-1.582 7.891-1.582 16.641s.527 14.29 1.582 16.621 2.467 3.496 4.238 3.496c1.797 0 3.216-1.172 4.258-3.515 1.042-2.344 1.563-7.878 1.563-16.602 0-8.75-.521-14.297-1.563-16.641-1.042-2.343-2.461-3.515-4.258-3.515z"/><path d="m153.688 38.288c4.557 0 8.242 2.168 11.054 6.504 2.813 4.336 4.219 11.921 4.219 22.754 0 10.807-1.406 18.379-4.219 22.715-2.812 4.336-6.484 6.504-11.015 6.504-4.558 0-8.242-2.149-11.055-6.446-2.812-4.296-4.219-11.927-4.219-22.89 0-10.755 1.407-18.301 4.219-22.637 2.813-4.336 6.484-6.504 11.016-6.504zm0 9.102c-1.771 0-3.184 1.172-4.239 3.515-1.054 2.344-1.582 7.891-1.582 16.641s.528 14.29 1.582 16.621c1.055 2.331 2.468 3.496 4.239 3.496 1.797 0 3.216-1.172 4.257-3.515 1.042-2.344 1.563-7.878 1.563-16.602 0-8.75-.521-14.297-1.563-16.641-1.041-2.343-2.46-3.515-4.257-3.515z"/><path d="m177.125 95.788v-41.445h11.211l8.399 28.867 8.554-28.867h11.133v41.445h-7.773v-27.265l-8.243 27.265h-7.695l-7.812-27.265v27.265z"/></g></svg>