<svg width="100%" height="100%" viewBox="0 0 284 143" version="1.1" xmlns="http://www.w3.org/2000/svg" xmlns:xlink="http://www.w3.org/1999/xlink" xml:space="preserve" xmlns:serif="http://www.serif.com/" fill-rule="evenodd" clip-rule="evenodd" stroke-linejoin="round" stroke-miterlimit="2"><path d="M282.736,22.485c0,-11.948 -9.7,-21.647 -21.647,-21.647l-236.875,0c-11.948,0 -21.647,9.699 -21.647,21.647l0,97.816c0,11.948 9.699,21.647 21.647,21.647l236.875,0c11.947,0 21.647,-9.699 21.647,-21.647l0,-97.816Z" fill="#fff"/><path d="M269.126,71.7l-21.808,-36.949l-21.805,36.949l14.241,0l0,35.243l15.131,0l0,-35.243l14.241,0Zm-211.175,0l-21.807,-36.949l-21.807,36.949l14.241,0l0,35.243l15.132,0l0,-35.243l14.241,0Zm-38.009,-67.24c-8.597,0.292 -15.519,7.13 -15.519,15.773l0,101.965c0,8.644 6.922,15.482 15.519,15.773l0,0.02l244.074,0.025l0,-0.021c8.642,-0.297 15.024,-7.254 15.024,-15.831l0,-101.966c0,-8.642 -6.92,-15.482 -15.515,-15.772l0,-0.02l-243.583,0.034l0,0.02Zm243.583,-4.46c11.01,0.296 19.939,9.137 19.939,20.198l0,101.966c0,10.998 -8.389,19.957 -19.448,20.258l0,-0.004l-244.074,-0.023l0,0.003c-11.009,-0.296 -19.942,-9.136 -19.942,-20.2l0,-101.965c0,-11.064 8.933,-19.903 19.942,-20.199l0,0.003l243.583,-0.034l0,-0.003Z"/><path d="M102.125,81.062l8.985,-1.133c0.234,2.5 1.002,4.466 2.304,5.898c1.302,1.433 2.735,2.149 4.297,2.149c1.849,0 3.438,-0.918 4.766,-2.754c1.328,-1.836 1.992,-4.655 1.992,-8.457c0,-3.594 -0.658,-6.25 -1.973,-7.969c-1.315,-1.719 -2.988,-2.578 -5.019,-2.578c-2.578,0 -4.896,1.393 -6.953,4.18l-7.305,-1.289l4.609,-29.805l23.789,0l0,10.273l-16.953,0l-1.445,9.727c2.031,-1.224 4.088,-1.836 6.172,-1.836c3.698,0 6.836,1.458 9.414,4.375c3.255,3.724 4.883,8.633 4.883,14.726c0,5.027 -1.387,9.649 -4.161,13.868c-2.773,4.218 -6.738,6.328 -11.894,6.328c-4.167,0 -7.65,-1.361 -10.449,-4.082c-2.8,-2.722 -4.486,-6.595 -5.059,-11.621Z" fill-rule="nonzero"/><path d="M140.641,95.788l0,-41.445l11.211,0l8.398,28.867l8.555,-28.867l11.133,0l0,41.445l-7.774,0l0,-27.265l-8.242,27.265l-7.695,0l-7.813,-27.265l0,27.265l-7.773,0Z" fill-rule="nonzero"/></svg>