<svg clip-rule="evenodd" fill-rule="evenodd" stroke-linejoin="round" stroke-miterlimit="2" viewBox="0 0 284 143" xmlns="http://www.w3.org/2000/svg"><path d="m282.736 22.485c0-11.948-9.7-21.647-21.647-21.647h-236.875c-11.948 0-21.647 9.699-21.647 21.647v97.816c0 11.948 9.699 21.647 21.647 21.647h236.875c11.947 0 21.647-9.699 21.647-21.647z" fill="#fff"/><path d="m269.126 71.7-21.808-36.949-21.805 36.949h14.241v35.243h15.131v-35.243zm-211.175 0-21.807-36.949-21.807 36.949h14.241v35.243h15.132v-35.243zm-38.009-67.24c-8.597.292-15.519 7.13-15.519 15.773v101.965c0 8.644 6.922 15.482 15.519 15.773v.02l244.074.025v-.021c8.642-.297 15.024-7.254 15.024-15.831v-101.966c0-8.642-6.92-15.482-15.515-15.772v-.02l-243.583.034v.02zm243.583-4.46c11.01.296 19.939 9.137 19.939 20.198v101.966c0 10.998-8.389 19.957-19.448 20.258v-.004l-244.074-.023v.003c-11.009-.296-19.942-9.136-19.942-20.2v-101.965c0-11.064 8.933-19.903 19.942-20.199v.003l243.583-.034v-.003z"/><g fill-rule="nonzero"><path d="m91.5 64.89c-2.213-1.146-3.88-2.709-5-4.688s-1.68-4.362-1.68-7.148c0-4.505 1.277-8.093 3.829-10.762s5.989-4.004 10.312-4.004c4.583 0 8.073 1.426 10.469 4.278 2.396 2.851 3.594 6.321 3.594 10.41 0 2.786-.58 5.202-1.739 7.246s-2.741 3.6-4.746 4.668c2.683 1.302 4.688 3.131 6.016 5.488s1.992 5.254 1.992 8.691c0 3.542-.658 6.667-1.973 9.375-1.315 2.709-3.131 4.779-5.449 6.211-2.318 1.433-4.922 2.149-7.812 2.149-4.532 0-8.275-1.569-11.231-4.707s-4.433-7.363-4.433-12.676c0-3.437.677-6.393 2.031-8.867s3.294-4.362 5.82-5.664zm1.836-11.055c0 2.24.527 3.958 1.582 5.156s2.389 1.797 4.004 1.797c1.641 0 2.995-.599 4.063-1.797 1.067-1.198 1.601-2.916 1.601-5.156 0-2.161-.527-3.841-1.582-5.039s-2.376-1.797-3.965-1.797c-1.666 0-3.034.606-4.101 1.817-1.068 1.211-1.602 2.884-1.602 5.019zm-.82 24.531c0 3.073.651 5.443 1.953 7.11 1.302 1.666 2.864 2.5 4.687 2.5s3.353-.795 4.59-2.383c1.237-1.589 1.856-3.971 1.856-7.149 0-2.734-.632-4.895-1.895-6.484-1.263-1.588-2.819-2.383-4.668-2.383-1.823 0-3.366.801-4.629 2.403-1.263 1.601-1.894 3.73-1.894 6.386z"/><path d="m135.445 38.288c4.558 0 8.243 2.168 11.055 6.504 2.813 4.336 4.219 11.921 4.219 22.754 0 10.807-1.406 18.379-4.219 22.715-2.812 4.336-6.484 6.504-11.015 6.504-4.558 0-8.243-2.149-11.055-6.446-2.813-4.296-4.219-11.927-4.219-22.89 0-10.755 1.406-18.301 4.219-22.637 2.812-4.336 6.484-6.504 11.015-6.504zm0 9.102c-1.77 0-3.183 1.172-4.238 3.515-1.055 2.344-1.582 7.891-1.582 16.641s.527 14.29 1.582 16.621 2.468 3.496 4.238 3.496c1.797 0 3.217-1.172 4.258-3.515 1.042-2.344 1.563-7.878 1.563-16.602 0-8.75-.521-14.297-1.563-16.641-1.041-2.343-2.461-3.515-4.258-3.515z"/><path d="m158.883 95.788v-41.445h11.211l8.398 28.867 8.555-28.867h11.133v41.445h-7.774v-27.265l-8.242 27.265h-7.695l-7.813-27.265v27.265z"/></g></svg>