<svg width="100%" height="100%" viewBox="0 0 284 143" version="1.1" xmlns="http://www.w3.org/2000/svg" xmlns:xlink="http://www.w3.org/1999/xlink" xml:space="preserve" xmlns:serif="http://www.serif.com/" fill-rule="evenodd" clip-rule="evenodd" stroke-linejoin="round" stroke-miterlimit="2"><path d="M282.736,22.485c0,-11.948 -9.7,-21.647 -21.647,-21.647l-236.875,0c-11.948,0 -21.647,9.699 -21.647,21.647l0,97.816c0,11.948 9.699,21.647 21.647,21.647l236.875,0c11.947,0 21.647,-9.699 21.647,-21.647l0,-97.816Z" fill="#fff"/><path d="M269.126,71.7l-21.808,-36.949l-21.805,36.949l14.241,0l0,35.243l15.131,0l0,-35.243l14.241,0Zm-211.175,0l-21.807,-36.949l-21.807,36.949l14.241,0l0,35.243l15.132,0l0,-35.243l14.241,0Zm-38.009,-67.24c-8.597,0.292 -15.519,7.13 -15.519,15.773l0,101.965c0,8.644 6.922,15.482 15.519,15.773l0,0.02l244.074,0.025l0,-0.021c8.642,-0.297 15.024,-7.254 15.024,-15.831l0,-101.966c0,-8.642 -6.92,-15.482 -15.515,-15.772l0,-0.02l-243.583,0.034l0,0.02Zm243.583,-4.46c11.01,0.296 19.939,9.137 19.939,20.198l0,101.966c0,10.998 -8.389,19.957 -19.448,20.258l0,-0.004l-244.074,-0.023l0,0.003c-11.009,-0.296 -19.942,-9.136 -19.942,-20.2l0,-101.965c0,-11.064 8.933,-19.903 19.942,-20.199l0,0.003l243.583,-0.034l0,-0.003Z"/><path d="M95.914,85.593l0,10.195l-31.562,0c0.338,-3.854 1.373,-7.519 3.105,-10.996c1.732,-3.476 5.098,-8.04 10.098,-13.691c3.958,-4.505 6.393,-7.552 7.305,-9.141c1.354,-2.318 2.031,-4.648 2.031,-6.992c0,-2.5 -0.56,-4.388 -1.68,-5.664c-1.12,-1.276 -2.591,-1.914 -4.414,-1.914c-3.984,0 -6.133,2.982 -6.445,8.945l-8.946,-1.094c0.547,-5.833 2.168,-10.117 4.864,-12.851c2.695,-2.735 6.282,-4.102 10.761,-4.102c4.922,0 8.633,1.602 11.133,4.805c2.5,3.203 3.75,6.875 3.75,11.016c0,2.343 -0.319,4.615 -0.957,6.816c-0.638,2.2 -1.621,4.414 -2.949,6.641c-1.328,2.226 -3.542,5.071 -6.641,8.535c-2.89,3.255 -4.72,5.403 -5.488,6.445c-0.768,1.042 -1.387,2.057 -1.855,3.047l17.89,0Z" fill-rule="nonzero"/><path d="M117.203,38.288c4.558,0 8.242,2.168 11.055,6.504c2.812,4.336 4.219,11.921 4.219,22.754c0,10.807 -1.407,18.379 -4.219,22.715c-2.813,4.336 -6.484,6.504 -11.016,6.504c-4.557,0 -8.242,-2.149 -11.054,-6.446c-2.813,-4.296 -4.219,-11.927 -4.219,-22.89c0,-10.755 1.406,-18.301 4.219,-22.637c2.812,-4.336 6.484,-6.504 11.015,-6.504Zm0,9.102c-1.771,0 -3.183,1.172 -4.238,3.515c-1.055,2.344 -1.582,7.891 -1.582,16.641c0,8.75 0.527,14.29 1.582,16.621c1.055,2.331 2.467,3.496 4.238,3.496c1.797,0 3.216,-1.172 4.258,-3.515c1.042,-2.344 1.563,-7.878 1.563,-16.602c0,-8.75 -0.521,-14.297 -1.563,-16.641c-1.042,-2.343 -2.461,-3.515 -4.258,-3.515Z" fill-rule="nonzero"/><path d="M153.688,38.288c4.557,0 8.242,2.168 11.054,6.504c2.813,4.336 4.219,11.921 4.219,22.754c0,10.807 -1.406,18.379 -4.219,22.715c-2.812,4.336 -6.484,6.504 -11.015,6.504c-4.558,0 -8.242,-2.149 -11.055,-6.446c-2.812,-4.296 -4.219,-11.927 -4.219,-22.89c0,-10.755 1.407,-18.301 4.219,-22.637c2.813,-4.336 6.484,-6.504 11.016,-6.504Zm0,9.102c-1.771,0 -3.184,1.172 -4.239,3.515c-1.054,2.344 -1.582,7.891 -1.582,16.641c0,8.75 0.528,14.29 1.582,16.621c1.055,2.331 2.468,3.496 4.239,3.496c1.797,0 3.216,-1.172 4.257,-3.515c1.042,-2.344 1.563,-7.878 1.563,-16.602c0,-8.75 -0.521,-14.297 -1.563,-16.641c-1.041,-2.343 -2.46,-3.515 -4.257,-3.515Z" fill-rule="nonzero"/><path d="M177.125,95.788l0,-41.445l11.211,0l8.399,28.867l8.554,-28.867l11.133,0l0,41.445l-7.773,0l0,-27.265l-8.243,27.265l-7.695,0l-7.812,-27.265l0,27.265l-7.774,0Z" fill-rule="nonzero"/></svg>