<svg clip-rule="evenodd" fill-rule="evenodd" stroke-linejoin="round" stroke-miterlimit="2" viewBox="0 0 143 284" xmlns="http://www.w3.org/2000/svg"><path d="m140.786 24.307c0-12.27-9.963-22.233-22.233-22.233h-94.49c-12.271 0-22.233 9.963-22.233 22.233v235.787c0 12.27 9.962 22.233 22.233 22.233h94.49c12.27 0 22.233-9.963 22.233-22.233z" fill="#fff"/><path d="m94.334 63.023-23.124-40.159-23.122 40.159h13.432v52.784h19.382v-52.784zm43.627-43.082c-.291-8.597-7.129-15.518-15.772-15.518h-101.966c-8.643 0-15.481 6.921-15.772 15.518h-.021l-.024 244.074h.02c.298 8.643 7.254 15.026 15.832 15.026h101.965c8.642 0 15.482-6.921 15.773-15.517h.02l-.034-243.583zm4.461 243.583c-.297 11.011-9.137 19.94-20.199 19.94h-101.965c-10.999 0-19.958-8.389-20.258-19.449h.003l.024-244.074h-.003c.296-11.009 9.136-19.941 20.199-19.941h101.966c11.065 0 19.903 8.932 20.2 19.941h-.004l.033 243.583z"/><g fill-rule="nonzero"><path d="m44.325 178.691 6.969-1.031c.187 2.167.781 3.823 1.781 4.969s2.177 1.719 3.531 1.719c1.479 0 2.729-.677 3.75-2.032 1.021-1.354 1.531-3.229 1.531-5.625 0-2.229-.489-3.979-1.468-5.25-.98-1.27-2.167-1.906-3.563-1.906-.917 0-2.01.219-3.281.656l.781-7.156c1.854.042 3.323-.458 4.406-1.5 1.063-1.041 1.594-2.51 1.594-4.406 0-1.583-.385-2.823-1.156-3.719s-1.761-1.344-2.969-1.344-2.255.516-3.141 1.547c-.885 1.032-1.411 2.558-1.578 4.578l-6.656-1.375c.688-4.187 2.031-7.229 4.031-9.125 2-1.895 4.521-2.843 7.563-2.843 3.417 0 6.13 1.218 8.14 3.656 2.011 2.437 3.016 5.135 3.016 8.094 0 2-.453 3.802-1.359 5.406-.907 1.604-2.266 3.01-4.078 4.219 2.104.562 3.817 1.802 5.14 3.718 1.323 1.917 1.985 4.313 1.985 7.188 0 4.187-1.245 7.651-3.735 10.391-2.489 2.739-5.453 4.109-8.89 4.109-3.292 0-6.079-1.156-8.36-3.469-2.281-2.312-3.609-5.469-3.984-9.469z"/><path d="m85.95 144.848c3.646 0 6.594 1.734 8.844 5.203s3.375 9.536 3.375 18.203c0 8.646-1.125 14.703-3.375 18.172s-5.188 5.203-8.813 5.203c-3.646 0-6.594-1.719-8.844-5.156-2.25-3.438-3.375-9.542-3.375-18.313 0-8.604 1.125-14.64 3.375-18.109s5.188-5.203 8.813-5.203zm0 7.281c-1.417 0-2.547.937-3.391 2.812s-1.265 6.313-1.265 13.313.421 11.432 1.265 13.297c.844 1.864 1.974 2.797 3.391 2.797 1.437 0 2.573-.938 3.406-2.813s1.25-6.302 1.25-13.281c0-7-.417-11.438-1.25-13.313s-1.969-2.812-3.406-2.812z"/><path d="m56.217 235.667v-33.157h8.969l6.718 23.094 6.844-23.094h8.906v33.157h-6.218v-21.813l-6.594 21.813h-6.156l-6.25-21.813v21.813z"/></g></svg>