<svg clip-rule="evenodd" fill-rule="evenodd" stroke-linejoin="round" stroke-miterlimit="2" viewBox="0 0 143 284" xmlns="http://www.w3.org/2000/svg"><path d="m140.786 24.307c0-12.27-9.963-22.233-22.233-22.233h-94.49c-12.271 0-22.233 9.963-22.233 22.233v235.787c0 12.27 9.962 22.233 22.233 22.233h94.49c12.27 0 22.233-9.963 22.233-22.233z" fill="#fff"/><path d="m94.334 63.023-23.124-40.159-23.122 40.159h13.432v52.784h19.382v-52.784zm43.627-43.082c-.291-8.597-7.129-15.518-15.772-15.518h-101.966c-8.643 0-15.481 6.921-15.772 15.518h-.021l-.024 244.074h.02c.298 8.643 7.254 15.026 15.832 15.026h101.965c8.642 0 15.482-6.921 15.773-15.517h.02l-.034-243.583zm4.461 243.583c-.297 11.011-9.137 19.94-20.199 19.94h-101.965c-10.999 0-19.958-8.389-20.258-19.449h.003l.024-244.074h-.003c.296-11.009 9.136-19.941 20.199-19.941h101.966c11.065 0 19.903 8.932 20.2 19.941h-.004l.033 243.583z"/><g fill-rule="nonzero"><path d="m68.981 156.254-6.969.937c-.333-3.416-1.698-5.125-4.093-5.125-1.563 0-2.86.855-3.891 2.563s-1.682 5.156-1.953 10.344c.896-1.292 1.896-2.261 3-2.907 1.104-.645 2.323-.968 3.656-.968 2.938 0 5.5 1.37 7.688 4.109 2.187 2.74 3.281 6.38 3.281 10.922 0 4.833-1.156 8.625-3.469 11.375-2.312 2.75-5.177 4.125-8.594 4.125-3.75 0-6.859-1.786-9.328-5.359s-3.703-9.495-3.703-17.766c0-8.396 1.281-14.438 3.844-18.125 2.562-3.688 5.854-5.531 9.875-5.531 2.771 0 5.109.942 7.015 2.828 1.907 1.885 3.12 4.745 3.641 8.578zm-16.281 19.156c0 2.896.536 5.11 1.609 6.641s2.297 2.297 3.672 2.297c1.333 0 2.443-.636 3.328-1.907.886-1.27 1.328-3.354 1.328-6.25 0-3-.479-5.187-1.437-6.562s-2.146-2.063-3.563-2.063c-1.375 0-2.541.657-3.5 1.969-.958 1.313-1.437 3.271-1.437 5.875z"/><path d="m73.887 179.066 7.188-.906c.187 2 .802 3.573 1.844 4.719 1.041 1.146 2.187 1.719 3.437 1.719 1.479 0 2.75-.735 3.813-2.203 1.062-1.469 1.593-3.724 1.593-6.766 0-2.875-.526-5-1.578-6.375s-2.39-2.063-4.015-2.063c-2.063 0-3.917 1.115-5.563 3.344l-5.844-1.031 3.688-23.844h19.031v8.219h-13.562l-1.157 7.781c1.625-.979 3.271-1.469 4.938-1.469 2.958 0 5.469 1.167 7.531 3.5 2.604 2.98 3.906 6.907 3.906 11.782 0 4.021-1.109 7.718-3.328 11.093s-5.39 5.063-9.515 5.063c-3.334 0-6.12-1.089-8.36-3.266-2.239-2.177-3.588-5.276-4.047-9.297z"/><path d="m56.217 235.667v-33.157h8.969l6.718 23.094 6.844-23.094h8.906v33.157h-6.218v-21.813l-6.594 21.813h-6.156l-6.25-21.813v21.813z"/></g></svg>