<svg clip-rule="evenodd" fill-rule="evenodd" stroke-linejoin="round" stroke-miterlimit="2" viewBox="0 0 284 143" xmlns="http://www.w3.org/2000/svg"><path d="m282.736 22.485c0-11.948-9.7-21.647-21.647-21.647h-236.875c-11.948 0-21.647 9.699-21.647 21.647v97.816c0 11.948 9.699 21.647 21.647 21.647h236.875c11.947 0 21.647-9.699 21.647-21.647z" fill="#fff"/><path d="m269.126 71.7-21.808-36.949-21.805 36.949h14.241v35.243h15.131v-35.243zm-211.175 0-21.807-36.949-21.807 36.949h14.241v35.243h15.132v-35.243zm-38.009-67.24c-8.597.292-15.519 7.13-15.519 15.773v101.965c0 8.644 6.922 15.482 15.519 15.773v.02l244.074.025v-.021c8.642-.297 15.024-7.254 15.024-15.831v-101.966c0-8.642-6.92-15.482-15.515-15.772v-.02l-243.583.034v.02zm243.583-4.46c11.01.296 19.939 9.137 19.939 20.198v101.966c0 10.998-8.389 19.957-19.448 20.258v-.004l-244.074-.023v.003c-11.009-.296-19.942-9.136-19.942-20.2v-101.965c0-11.064 8.933-19.903 19.942-20.199v.003l243.583-.034v-.003z"/><g fill-rule="nonzero"><path d="m95.914 85.593v10.195h-31.562c.338-3.854 1.373-7.519 3.105-10.996 1.732-3.476 5.098-8.04 10.098-13.691 3.958-4.505 6.393-7.552 7.305-9.141 1.354-2.318 2.031-4.648 2.031-6.992 0-2.5-.56-4.388-1.68-5.664s-2.591-1.914-4.414-1.914c-3.984 0-6.133 2.982-6.445 8.945l-8.946-1.094c.547-5.833 2.168-10.117 4.864-12.851 2.695-2.735 6.282-4.102 10.761-4.102 4.922 0 8.633 1.602 11.133 4.805s3.75 6.875 3.75 11.016c0 2.343-.319 4.615-.957 6.816-.638 2.2-1.621 4.414-2.949 6.641-1.328 2.226-3.542 5.071-6.641 8.535-2.89 3.255-4.72 5.403-5.488 6.445s-1.387 2.057-1.855 3.047z"/><path d="m102.125 81.062 8.985-1.133c.234 2.5 1.002 4.466 2.304 5.898 1.302 1.433 2.735 2.149 4.297 2.149 1.849 0 3.438-.918 4.766-2.754s1.992-4.655 1.992-8.457c0-3.594-.658-6.25-1.973-7.969s-2.988-2.578-5.019-2.578c-2.578 0-4.896 1.393-6.953 4.18l-7.305-1.289 4.609-29.805h23.789v10.273h-16.953l-1.445 9.727c2.031-1.224 4.088-1.836 6.172-1.836 3.698 0 6.836 1.458 9.414 4.375 3.255 3.724 4.883 8.633 4.883 14.726 0 5.027-1.387 9.649-4.161 13.868-2.773 4.218-6.738 6.328-11.894 6.328-4.167 0-7.65-1.361-10.449-4.082-2.8-2.722-4.486-6.595-5.059-11.621z"/><path d="m153.688 38.288c4.557 0 8.242 2.168 11.054 6.504 2.813 4.336 4.219 11.921 4.219 22.754 0 10.807-1.406 18.379-4.219 22.715-2.812 4.336-6.484 6.504-11.015 6.504-4.558 0-8.242-2.149-11.055-6.446-2.812-4.296-4.219-11.927-4.219-22.89 0-10.755 1.407-18.301 4.219-22.637 2.813-4.336 6.484-6.504 11.016-6.504zm0 9.102c-1.771 0-3.184 1.172-4.239 3.515-1.054 2.344-1.582 7.891-1.582 16.641s.528 14.29 1.582 16.621c1.055 2.331 2.468 3.496 4.239 3.496 1.797 0 3.216-1.172 4.257-3.515 1.042-2.344 1.563-7.878 1.563-16.602 0-8.75-.521-14.297-1.563-16.641-1.041-2.343-2.46-3.515-4.257-3.515z"/><path d="m177.125 95.788v-41.445h11.211l8.399 28.867 8.554-28.867h11.133v41.445h-7.773v-27.265l-8.243 27.265h-7.695l-7.812-27.265v27.265z"/></g></svg>