<svg clip-rule="evenodd" fill-rule="evenodd" stroke-linejoin="round" stroke-miterlimit="2" viewBox="0 0 284 143" xmlns="http://www.w3.org/2000/svg"><path d="m282.736 22.485c0-11.948-9.7-21.647-21.647-21.647h-236.875c-11.948 0-21.647 9.699-21.647 21.647v97.816c0 11.948 9.699 21.647 21.647 21.647h236.875c11.947 0 21.647-9.699 21.647-21.647z" fill="#fff"/><path d="m269.126 71.7-21.808-36.949-21.805 36.949h14.241v35.243h15.131v-35.243zm-211.175 0-21.807-36.949-21.807 36.949h14.241v35.243h15.132v-35.243zm-38.009-67.24c-8.597.292-15.519 7.13-15.519 15.773v101.965c0 8.644 6.922 15.482 15.519 15.773v.02l244.074.025v-.021c8.642-.297 15.024-7.254 15.024-15.831v-101.966c0-8.642-6.92-15.482-15.515-15.772v-.02l-243.583.034v.02zm243.583-4.46c11.01.296 19.939 9.137 19.939 20.198v101.966c0 10.998-8.389 19.957-19.448 20.258v-.004l-244.074-.023v.003c-11.009-.296-19.942-9.136-19.942-20.2v-101.965c0-11.064 8.933-19.903 19.942-20.199v.003l243.583-.034v-.003z"/><g fill-rule="nonzero"><path d="m101.383 95.788v-11.523h-19.219v-9.61l20.352-36.367h7.578v36.328h5.82v9.649h-5.82v11.523zm0-21.172v-19.57l-10.781 19.57z"/><path d="m120.367 81.062 8.985-1.133c.234 2.5 1.002 4.466 2.304 5.898 1.302 1.433 2.735 2.149 4.297 2.149 1.849 0 3.438-.918 4.766-2.754s1.992-4.655 1.992-8.457c0-3.594-.657-6.25-1.973-7.969-1.315-1.719-2.988-2.578-5.019-2.578-2.578 0-4.896 1.393-6.953 4.18l-7.305-1.289 4.609-29.805h23.79v10.273h-16.954l-1.445 9.727c2.031-1.224 4.089-1.836 6.172-1.836 3.698 0 6.836 1.458 9.414 4.375 3.255 3.724 4.883 8.633 4.883 14.726 0 5.027-1.387 9.649-4.16 13.868-2.774 4.218-6.739 6.328-11.895 6.328-4.167 0-7.65-1.361-10.449-4.082-2.8-2.722-4.486-6.595-5.059-11.621z"/><path d="m158.883 95.788v-41.445h11.211l8.398 28.867 8.555-28.867h11.133v41.445h-7.774v-27.265l-8.242 27.265h-7.695l-7.813-27.265v27.265z"/></g></svg>