<svg clip-rule="evenodd" fill-rule="evenodd" stroke-linejoin="round" stroke-miterlimit="2" viewBox="0 0 143 284" xmlns="http://www.w3.org/2000/svg"><path d="m140.786 24.307c0-12.27-9.963-22.233-22.233-22.233h-94.49c-12.271 0-22.233 9.963-22.233 22.233v235.787c0 12.27 9.962 22.233 22.233 22.233h94.49c12.27 0 22.233-9.963 22.233-22.233z" fill="#fff"/><path d="m94.334 63.023-23.124-40.159-23.122 40.159h13.432v52.784h19.382v-52.784zm43.627-43.082c-.291-8.597-7.129-15.518-15.772-15.518h-101.966c-8.643 0-15.481 6.921-15.772 15.518h-.021l-.024 244.074h.02c.298 8.643 7.254 15.026 15.832 15.026h101.965c8.642 0 15.482-6.921 15.773-15.517h.02l-.034-243.583zm4.461 243.583c-.297 11.011-9.137 19.94-20.199 19.94h-101.965c-10.999 0-19.958-8.389-20.258-19.449h.003l.024-244.074h-.003c.296-11.009 9.136-19.941 20.199-19.941h101.966c11.065 0 19.903 8.932 20.2 19.941h-.004l.033 243.583z"/><g fill-rule="nonzero"><path d="m48.419 190.848h-7.188v-33.094c-2.687 3.021-5.792 5.24-9.312 6.656v-7.969c2-.812 4.073-2.265 6.218-4.359 2.146-2.094 3.636-4.505 4.469-7.234h5.813z"/><path d="m71.356 144.848c3.646 0 6.594 1.734 8.844 5.203s3.375 9.536 3.375 18.203c0 8.646-1.125 14.703-3.375 18.172s-5.188 5.203-8.813 5.203c-3.645 0-6.593-1.719-8.843-5.156-2.25-3.438-3.375-9.542-3.375-18.313 0-8.604 1.125-14.64 3.375-18.109s5.187-5.203 8.812-5.203zm0 7.281c-1.417 0-2.547.937-3.391 2.812-.843 1.875-1.265 6.313-1.265 13.313s.422 11.432 1.265 13.297c.844 1.864 1.974 2.797 3.391 2.797 1.438 0 2.573-.938 3.406-2.813.834-1.875 1.25-6.302 1.25-13.281 0-7-.416-11.438-1.25-13.313-.833-1.875-1.968-2.812-3.406-2.812z"/><path d="m100.544 144.848c3.645 0 6.593 1.734 8.843 5.203s3.375 9.536 3.375 18.203c0 8.646-1.125 14.703-3.375 18.172s-5.187 5.203-8.812 5.203c-3.646 0-6.594-1.719-8.844-5.156-2.25-3.438-3.375-9.542-3.375-18.313 0-8.604 1.125-14.64 3.375-18.109s5.188-5.203 8.813-5.203zm0 7.281c-1.417 0-2.547.937-3.391 2.812s-1.266 6.313-1.266 13.313.422 11.432 1.266 13.297c.844 1.864 1.974 2.797 3.391 2.797 1.437 0 2.573-.938 3.406-2.813s1.25-6.302 1.25-13.281c0-7-.417-11.438-1.25-13.313s-1.969-2.812-3.406-2.812z"/><path d="m56.217 235.667v-33.157h8.969l6.718 23.094 6.844-23.094h8.906v33.157h-6.218v-21.813l-6.594 21.813h-6.156l-6.25-21.813v21.813z"/></g></svg>