<svg clip-rule="evenodd" fill-rule="evenodd" stroke-linejoin="round" stroke-miterlimit="2" viewBox="0 0 284 143" xmlns="http://www.w3.org/2000/svg"><path d="m282.736 22.485c0-11.948-9.7-21.647-21.647-21.647h-236.875c-11.948 0-21.647 9.699-21.647 21.647v97.816c0 11.948 9.699 21.647 21.647 21.647h236.875c11.947 0 21.647-9.699 21.647-21.647z" fill="#fff"/><path d="m269.126 71.7-21.808-36.949-21.805 36.949h14.241v35.243h15.131v-35.243zm-211.175 0-21.807-36.949-21.807 36.949h14.241v35.243h15.132v-35.243zm-38.009-67.24c-8.597.292-15.519 7.13-15.519 15.773v101.965c0 8.644 6.922 15.482 15.519 15.773v.02l244.074.025v-.021c8.642-.297 15.024-7.254 15.024-15.831v-101.966c0-8.642-6.92-15.482-15.515-15.772v-.02l-243.583.034v.02zm243.583-4.46c11.01.296 19.939 9.137 19.939 20.198v101.966c0 10.998-8.389 19.957-19.448 20.258v-.004l-244.074-.023v.003c-11.009-.296-19.942-9.136-19.942-20.2v-101.965c0-11.064 8.933-19.903 19.942-20.199v.003l243.583-.034v-.003z"/><g fill-rule="nonzero"><path d="m65.172 80.593 8.711-1.289c.234 2.708.977 4.779 2.227 6.211s2.721 2.148 4.414 2.148c1.849 0 3.411-.846 4.687-2.539s1.914-4.036 1.914-7.031c0-2.787-.612-4.974-1.836-6.563-1.224-1.588-2.708-2.382-4.453-2.382-1.146 0-2.513.273-4.101.82l.976-8.945c2.318.052 4.154-.573 5.508-1.875 1.328-1.302 1.992-3.138 1.992-5.508 0-1.979-.482-3.529-1.445-4.649-.964-1.119-2.201-1.679-3.711-1.679-1.511 0-2.819.644-3.926 1.933s-1.764 3.197-1.973 5.723l-8.32-1.719c.859-5.234 2.539-9.036 5.039-11.406s5.651-3.555 9.453-3.555c4.271 0 7.663 1.524 10.176 4.571 2.513 3.046 3.77 6.419 3.77 10.117 0 2.5-.567 4.752-1.7 6.758-1.132 2.005-2.832 3.763-5.097 5.273 2.63.703 4.772 2.253 6.425 4.648 1.654 2.396 2.481 5.391 2.481 8.985 0 5.234-1.556 9.564-4.668 12.988-3.112 3.425-6.816 5.137-11.113 5.137-4.115 0-7.598-1.446-10.45-4.336-2.851-2.891-4.511-6.836-4.98-11.836z"/><path d="m117.203 38.288c4.558 0 8.242 2.168 11.055 6.504 2.812 4.336 4.219 11.921 4.219 22.754 0 10.807-1.407 18.379-4.219 22.715-2.813 4.336-6.484 6.504-11.016 6.504-4.557 0-8.242-2.149-11.054-6.446-2.813-4.296-4.219-11.927-4.219-22.89 0-10.755 1.406-18.301 4.219-22.637 2.812-4.336 6.484-6.504 11.015-6.504zm0 9.102c-1.771 0-3.183 1.172-4.238 3.515-1.055 2.344-1.582 7.891-1.582 16.641s.527 14.29 1.582 16.621 2.467 3.496 4.238 3.496c1.797 0 3.216-1.172 4.258-3.515 1.042-2.344 1.563-7.878 1.563-16.602 0-8.75-.521-14.297-1.563-16.641-1.042-2.343-2.461-3.515-4.258-3.515z"/><path d="m153.688 38.288c4.557 0 8.242 2.168 11.054 6.504 2.813 4.336 4.219 11.921 4.219 22.754 0 10.807-1.406 18.379-4.219 22.715-2.812 4.336-6.484 6.504-11.015 6.504-4.558 0-8.242-2.149-11.055-6.446-2.812-4.296-4.219-11.927-4.219-22.89 0-10.755 1.407-18.301 4.219-22.637 2.813-4.336 6.484-6.504 11.016-6.504zm0 9.102c-1.771 0-3.184 1.172-4.239 3.515-1.054 2.344-1.582 7.891-1.582 16.641s.528 14.29 1.582 16.621c1.055 2.331 2.468 3.496 4.239 3.496 1.797 0 3.216-1.172 4.257-3.515 1.042-2.344 1.563-7.878 1.563-16.602 0-8.75-.521-14.297-1.563-16.641-1.041-2.343-2.46-3.515-4.257-3.515z"/><path d="m177.125 95.788v-41.445h11.211l8.399 28.867 8.554-28.867h11.133v41.445h-7.773v-27.265l-8.243 27.265h-7.695l-7.812-27.265v27.265z"/></g></svg>