<svg clip-rule="evenodd" fill-rule="evenodd" stroke-linejoin="round" stroke-miterlimit="2" viewBox="0 0 284 143" xmlns="http://www.w3.org/2000/svg"><path d="m282.736 22.485c0-11.948-9.7-21.647-21.647-21.647h-236.875c-11.948 0-21.647 9.699-21.647 21.647v97.816c0 11.948 9.699 21.647 21.647 21.647h236.875c11.947 0 21.647-9.699 21.647-21.647z" fill="#fff"/><path d="m269.126 71.7-21.808-36.949-21.805 36.949h14.241v35.243h15.131v-35.243zm-211.175 0-21.807-36.949-21.807 36.949h14.241v35.243h15.132v-35.243zm-38.009-67.24c-8.597.292-15.519 7.13-15.519 15.773v101.965c0 8.644 6.922 15.482 15.519 15.773v.02l244.074.025v-.021c8.642-.297 15.024-7.254 15.024-15.831v-101.966c0-8.642-6.92-15.482-15.515-15.772v-.02l-243.583.034v.02zm243.583-4.46c11.01.296 19.939 9.137 19.939 20.198v101.966c0 10.998-8.389 19.957-19.448 20.258v-.004l-244.074-.023v.003c-11.009-.296-19.942-9.136-19.942-20.2v-101.965c0-11.064 8.933-19.903 19.942-20.199v.003l243.583-.034v-.003z"/><g fill-rule="nonzero"><path d="m114.156 85.593v10.195h-31.562c.338-3.854 1.374-7.519 3.105-10.996 1.732-3.476 5.098-8.04 10.098-13.691 3.958-4.505 6.393-7.552 7.305-9.141 1.354-2.318 2.031-4.648 2.031-6.992 0-2.5-.56-4.388-1.68-5.664s-2.591-1.914-4.414-1.914c-3.984 0-6.133 2.982-6.445 8.945l-8.945-1.094c.546-5.833 2.168-10.117 4.863-12.851 2.695-2.735 6.282-4.102 10.762-4.102 4.921 0 8.632 1.602 11.132 4.805s3.75 6.875 3.75 11.016c0 2.343-.319 4.615-.957 6.816-.638 2.2-1.621 4.414-2.949 6.641-1.328 2.226-3.542 5.071-6.64 8.535-2.891 3.255-4.721 5.403-5.489 6.445s-1.386 2.057-1.855 3.047z"/><path d="m135.445 38.288c4.558 0 8.243 2.168 11.055 6.504 2.813 4.336 4.219 11.921 4.219 22.754 0 10.807-1.406 18.379-4.219 22.715-2.812 4.336-6.484 6.504-11.015 6.504-4.558 0-8.243-2.149-11.055-6.446-2.813-4.296-4.219-11.927-4.219-22.89 0-10.755 1.406-18.301 4.219-22.637 2.812-4.336 6.484-6.504 11.015-6.504zm0 9.102c-1.77 0-3.183 1.172-4.238 3.515-1.055 2.344-1.582 7.891-1.582 16.641s.527 14.29 1.582 16.621 2.468 3.496 4.238 3.496c1.797 0 3.217-1.172 4.258-3.515 1.042-2.344 1.563-7.878 1.563-16.602 0-8.75-.521-14.297-1.563-16.641-1.041-2.343-2.461-3.515-4.258-3.515z"/><path d="m158.883 95.788v-41.445h11.211l8.398 28.867 8.555-28.867h11.133v41.445h-7.774v-27.265l-8.242 27.265h-7.695l-7.813-27.265v27.265z"/></g></svg>