<svg clip-rule="evenodd" fill-rule="evenodd" stroke-linejoin="round" stroke-miterlimit="2" viewBox="0 0 143 284" xmlns="http://www.w3.org/2000/svg"><path d="m140.786 24.307c0-12.27-9.963-22.233-22.233-22.233h-94.49c-12.271 0-22.233 9.963-22.233 22.233v235.787c0 12.27 9.962 22.233 22.233 22.233h94.49c12.27 0 22.233-9.963 22.233-22.233z" fill="#fff"/><path d="m71.421 23.634 41.085 70.235h-27.141c-.023 31.91-.023 63.816 0 95.726h27.141l-41.085 70.235-41.084-70.235h27.138c.024-31.91.024-63.816 0-95.726h-27.138l41.084-70.235zm71.21 239.891c-.297 11.01-9.137 19.94-20.197 19.94h-101.967c-17.967 0-21.454-19.449-20.254-19.449l.021-244.074c.296-11.009 9.135-19.942 20.199-19.942h101.966c11.064 0 19.902 8.933 20.199 19.942zm-122.198-259.101c-8.643 0-15.482 6.921-15.773 15.518l-.024 244.074c.297 8.642 7.254 15.025 15.831 15.025h101.967c8.64 0 15.48-6.921 15.771-15.516l-.033-243.583c-.293-8.597-7.131-15.518-15.773-15.518h-101.966z"/></svg>