<svg clip-rule="evenodd" fill-rule="evenodd" stroke-linejoin="round" stroke-miterlimit="2" viewBox="0 0 143 284" xmlns="http://www.w3.org/2000/svg"><path d="m140.786 24.307c0-12.27-9.963-22.233-22.233-22.233h-94.49c-12.271 0-22.233 9.963-22.233 22.233v235.787c0 12.27 9.962 22.233 22.233 22.233h94.49c12.27 0 22.233-9.963 22.233-22.233z" fill="#fff"/><path d="m94.334 63.023-23.124-40.159-23.122 40.159h13.432v52.784h19.382v-52.784zm43.627-43.082c-.291-8.597-7.129-15.518-15.772-15.518h-101.966c-8.643 0-15.481 6.921-15.772 15.518h-.021l-.024 244.074h.02c.298 8.643 7.254 15.026 15.832 15.026h101.965c8.642 0 15.482-6.921 15.773-15.517h.02l-.034-243.583zm4.461 243.583c-.297 11.011-9.137 19.94-20.199 19.94h-101.965c-10.999 0-19.958-8.389-20.258-19.449h.003l.024-244.074h-.003c.296-11.009 9.136-19.941 20.199-19.941h101.966c11.065 0 19.903 8.932 20.2 19.941h-.004l.033 243.583z"/><g fill-rule="nonzero"><path d="m63.012 190.848h-7.187v-33.094c-2.688 3.021-5.792 5.24-9.313 6.656v-7.969c2-.812 4.073-2.265 6.219-4.359s3.636-4.505 4.469-7.234h5.812z"/><path d="m73.512 178.691 6.969-1.031c.188 2.167.781 3.823 1.781 4.969s2.177 1.719 3.532 1.719c1.479 0 2.729-.677 3.75-2.032 1.02-1.354 1.531-3.229 1.531-5.625 0-2.229-.49-3.979-1.469-5.25-.979-1.27-2.167-1.906-3.562-1.906-.917 0-2.011.219-3.282.656l.782-7.156c1.854.042 3.323-.458 4.406-1.5 1.062-1.041 1.594-2.51 1.594-4.406 0-1.583-.386-2.823-1.157-3.719-.77-.896-1.76-1.344-2.968-1.344-1.209 0-2.256.516-3.141 1.547-.885 1.032-1.411 2.558-1.578 4.578l-6.656-1.375c.687-4.187 2.031-7.229 4.031-9.125 2-1.895 4.521-2.843 7.562-2.843 3.417 0 6.131 1.218 8.141 3.656 2.01 2.437 3.016 5.135 3.016 8.094 0 2-.454 3.802-1.36 5.406s-2.265 3.01-4.078 4.219c2.104.562 3.818 1.802 5.141 3.718 1.323 1.917 1.984 4.313 1.984 7.188 0 4.187-1.245 7.651-3.734 10.391-2.49 2.739-5.453 4.109-8.891 4.109-3.292 0-6.078-1.156-8.359-3.469-2.282-2.312-3.61-5.469-3.985-9.469z"/><path d="m56.217 235.667v-33.157h8.969l6.718 23.094 6.844-23.094h8.906v33.157h-6.218v-21.813l-6.594 21.813h-6.156l-6.25-21.813v21.813z"/></g></svg>