<svg clip-rule="evenodd" fill-rule="evenodd" stroke-linejoin="round" stroke-miterlimit="2" viewBox="0 0 284 143" xmlns="http://www.w3.org/2000/svg"><path d="m282.736 22.485c0-11.948-9.7-21.647-21.647-21.647h-236.875c-11.948 0-21.647 9.699-21.647 21.647v97.816c0 11.948 9.699 21.647 21.647 21.647h236.875c11.947 0 21.647-9.699 21.647-21.647z" fill="#fff"/><path d="m269.126 71.7-21.808-36.949-21.805 36.949h14.241v35.243h15.131v-35.243zm-211.175 0-21.807-36.949-21.807 36.949h14.241v35.243h15.132v-35.243zm-38.009-67.24c-8.597.292-15.519 7.13-15.519 15.773v101.965c0 8.644 6.922 15.482 15.519 15.773v.02l244.074.025v-.021c8.642-.297 15.024-7.254 15.024-15.831v-101.966c0-8.642-6.92-15.482-15.515-15.772v-.02l-243.583.034v.02zm243.583-4.46c11.01.296 19.939 9.137 19.939 20.198v101.966c0 10.998-8.389 19.957-19.448 20.258v-.004l-244.074-.023v.003c-11.009-.296-19.942-9.136-19.942-20.2v-101.965c0-11.064 8.933-19.903 19.942-20.199v.003l243.583-.034v-.003z"/><g fill-rule="nonzero"><path d="m106.774 95.788h-8.985v-41.367c-3.359 3.776-7.239 6.55-11.64 8.32v-9.961c2.5-1.015 5.091-2.832 7.773-5.449s4.544-5.631 5.586-9.043h7.266z"/><path d="m119.899 80.593 8.711-1.289c.234 2.708.976 4.779 2.226 6.211s2.721 2.148 4.414 2.148c1.849 0 3.412-.846 4.688-2.539s1.914-4.036 1.914-7.031c0-2.787-.612-4.974-1.836-6.563-1.224-1.588-2.709-2.382-4.453-2.382-1.146 0-2.513.273-4.102.82l.977-8.945c2.317.052 4.153-.573 5.507-1.875 1.329-1.302 1.993-3.138 1.993-5.508 0-1.979-.482-3.529-1.446-4.649-.963-1.119-2.2-1.679-3.711-1.679-1.51 0-2.819.644-3.925 1.933-1.107 1.289-1.765 3.197-1.973 5.723l-8.32-1.719c.859-5.234 2.539-9.036 5.039-11.406s5.651-3.555 9.453-3.555c4.271 0 7.663 1.524 10.176 4.571 2.513 3.046 3.769 6.419 3.769 10.117 0 2.5-.566 4.752-1.699 6.758-1.133 2.005-2.832 3.763-5.098 5.273 2.63.703 4.772 2.253 6.426 4.648 1.654 2.396 2.481 5.391 2.481 8.985 0 5.234-1.556 9.564-4.668 12.988-3.112 3.425-6.817 5.137-11.114 5.137-4.114 0-7.597-1.446-10.449-4.336-2.852-2.891-4.512-6.836-4.98-11.836z"/><path d="m158.883 95.788v-41.445h11.211l8.398 28.867 8.555-28.867h11.133v41.445h-7.774v-27.265l-8.242 27.265h-7.695l-7.813-27.265v27.265z"/></g></svg>