<svg clip-rule="evenodd" fill-rule="evenodd" stroke-linejoin="round" stroke-miterlimit="2" viewBox="0 0 143 284" xmlns="http://www.w3.org/2000/svg"><path d="m140.786 24.307c0-12.27-9.963-22.233-22.233-22.233h-94.49c-12.271 0-22.233 9.963-22.233 22.233v235.787c0 12.27 9.962 22.233 22.233 22.233h94.49c12.27 0 22.233-9.963 22.233-22.233z" fill="#fff"/><path d="m94.334 63.023-23.124-40.159-23.122 40.159h13.432v52.784h19.382v-52.784zm43.627-43.082c-.291-8.597-7.129-15.518-15.772-15.518h-101.966c-8.643 0-15.481 6.921-15.772 15.518h-.021l-.024 244.074h.02c.298 8.643 7.254 15.026 15.832 15.026h101.965c8.642 0 15.482-6.921 15.773-15.517h.02l-.034-243.583zm4.461 243.583c-.297 11.011-9.137 19.94-20.199 19.94h-101.965c-10.999 0-19.958-8.389-20.258-19.449h.003l.024-244.074h-.003c.296-11.009 9.136-19.941 20.199-19.941h101.966c11.065 0 19.903 8.932 20.2 19.941h-.004l.033 243.583z"/><g fill-rule="nonzero"><path d="m50.794 166.129c-1.771-.917-3.105-2.167-4-3.75-.896-1.583-1.344-3.49-1.344-5.719 0-3.604 1.021-6.474 3.062-8.609 2.042-2.136 4.792-3.203 8.25-3.203 3.667 0 6.459 1.14 8.375 3.422 1.917 2.281 2.875 5.057 2.875 8.328 0 2.229-.463 4.161-1.39 5.797-.927 1.635-2.193 2.88-3.797 3.734 2.146 1.042 3.75 2.505 4.812 4.391 1.063 1.885 1.594 4.203 1.594 6.953 0 2.833-.526 5.333-1.578 7.5-1.052 2.166-2.505 3.823-4.359 4.968-1.855 1.146-3.938 1.719-6.25 1.719-3.625 0-6.62-1.255-8.985-3.765-2.364-2.511-3.547-5.891-3.547-10.141 0-2.75.542-5.115 1.625-7.094 1.084-1.979 2.636-3.489 4.657-4.531zm1.468-8.844c0 1.792.422 3.167 1.266 4.125.844.959 1.911 1.438 3.203 1.438 1.313 0 2.396-.479 3.25-1.438.854-.958 1.281-2.333 1.281-4.125 0-1.729-.422-3.073-1.265-4.031-.844-.958-1.901-1.438-3.172-1.438-1.333 0-2.427.485-3.281 1.454-.855.968-1.282 2.307-1.282 4.015zm-.656 19.625c0 2.459.521 4.354 1.563 5.688 1.041 1.333 2.291 2 3.75 2 1.458 0 2.682-.636 3.671-1.907.99-1.27 1.485-3.177 1.485-5.718 0-2.188-.505-3.917-1.516-5.188-1.01-1.271-2.255-1.906-3.734-1.906-1.458 0-2.693.641-3.703 1.922-1.011 1.281-1.516 2.984-1.516 5.109z"/><path d="m85.95 144.848c3.646 0 6.594 1.734 8.844 5.203s3.375 9.536 3.375 18.203c0 8.646-1.125 14.703-3.375 18.172s-5.188 5.203-8.813 5.203c-3.646 0-6.594-1.719-8.844-5.156-2.25-3.438-3.375-9.542-3.375-18.313 0-8.604 1.125-14.64 3.375-18.109s5.188-5.203 8.813-5.203zm0 7.281c-1.417 0-2.547.937-3.391 2.812s-1.265 6.313-1.265 13.313.421 11.432 1.265 13.297c.844 1.864 1.974 2.797 3.391 2.797 1.437 0 2.573-.938 3.406-2.813s1.25-6.302 1.25-13.281c0-7-.417-11.438-1.25-13.313s-1.969-2.812-3.406-2.812z"/><path d="m56.217 235.667v-33.157h8.969l6.718 23.094 6.844-23.094h8.906v33.157h-6.218v-21.813l-6.594 21.813h-6.156l-6.25-21.813v21.813z"/></g></svg>