<svg clip-rule="evenodd" fill-rule="evenodd" stroke-linejoin="round" stroke-miterlimit="2" viewBox="0 0 284 143" xmlns="http://www.w3.org/2000/svg"><path d="m281.459 24.981c0-12.964-10.526-23.49-23.49-23.49h-232.55c-12.964 0-23.49 10.526-23.49 23.49v91.196c0 12.964 10.526 23.489 23.49 23.489h232.55c12.964 0 23.49-10.525 23.49-23.489z" fill="#fff"/><path d="m4.423 122.199c0 8.643 6.921 15.48 15.518 15.771l244.074.026c8.643-.299 15.025-7.256 15.025-15.832v-101.966c0-8.642-6.92-15.482-15.516-15.772l-243.583.034c-8.597.291-15.518 7.13-15.518 15.772v101.967zm259.101-122.199c11.011.296 19.94 9.137 19.94 20.198v101.966c0 17.967-19.449 21.455-19.449 20.254l-244.074-.022c-11.009-.295-19.941-9.134-19.941-20.197v-101.967c0-11.064 8.932-19.903 19.941-20.199l243.583-.033zm-123.573 86.912c-.054-2.193-1.232-4.104-3.686-4.104-2.615 0-3.838 1.616-3.815 4.104zm1.096 5.348 3.335 2.119c-1.348 2.398-4.711 4.007-7.805 3.988-5.153-.029-8.778-3.848-8.778-9.438 0-5.148 3.324-9.718 8.301-9.718 5.531 0 9.447 5.131 8.199 10.779h-11.854c.035 1.438.685 2.756 1.422 3.553 2.019 2.181 6.046.978 7.18-1.283m-31.431-12.52h12.826v18.098h-3.848v-15.035h-5.165l-.254 7.728c-.139 4.254-2.66 7.049-7.264 7.822l-.717-3.355c3.729-.672 3.989-2.719 4.139-4.926zm105.292-26.25c0 1.883.397 3.322 1.196 4.322.794.999 1.778 1.499 2.947 1.499s2.149-.5 2.937-1.499c.795-1 1.191-2.451 1.191-4.359 0-1.853-.396-3.285-1.191-4.284-.788-1-1.768-1.5-2.937-1.5s-2.153.5-2.947 1.5c-.799.999-1.196 2.444-1.196 4.321m-4.302-.259c0-1.609.358-3.169 1.061-4.677.711-1.502 1.714-2.657 3.012-3.446 1.298-.795 2.748-1.196 4.352-1.196 2.47 0 4.499.901 6.08 2.704 1.582 1.802 2.371 4.076 2.371 6.828 0 2.767-.799 5.065-2.392 6.891-1.597 1.826-3.605 2.734-6.028 2.734-1.503 0-2.927-.377-4.288-1.138-1.361-.759-2.396-1.873-3.107-3.339-.703-1.467-1.061-3.252-1.061-5.361m-78.362-3.366h10.387v5.157h-10.387zm31.85 48.191h-3.471v-8.255h-.866c-.991 0-1.425.298-1.924.919-2.043 2.557-2.968 4.754-4.615 7.319l-4.356.017c1.621-1.933 2.228-3.367 3.343-5.05.794-1.2 1.639-2.741 2.232-3.506.609-.785 1.101-1.297 2.11-1.457-.54-.082-2.268-2.594-3.071-3.858-.344-.543-.845-1.129-1.885-1.129h-.923l.945-3.537c1.386-.009 2.557.524 3.197 1.176 1.354 1.381 2.777 3.873 4.238 5.514.41.461.933.457 1.575.404v-6.588h3.471v6.588c.642.053 1.166.057 1.576-.404 1.461-1.641 2.883-4.133 4.237-5.514.641-.652 1.811-1.185 3.197-1.176l.945 3.537h-.924c-1.038 0-1.539.586-1.883 1.129-.804 1.264-2.531 3.776-3.071 3.858 1.008.16 1.501.672 2.109 1.457.593.765 1.437 2.306 2.232 3.506 1.115 1.683 1.722 3.117 3.343 5.05l-4.356-.017c-1.647-2.565-2.572-4.762-4.615-7.319-.498-.621-.933-.919-1.924-.919h-.866zm-67.227-11.144c-.054-2.193-1.232-4.104-3.686-4.104-2.615 0-3.838 1.616-3.815 4.104zm1.096 5.348 3.335 2.119c-1.348 2.398-4.711 4.007-7.805 3.988-5.153-.029-8.778-3.848-8.778-9.438 0-5.148 3.323-9.718 8.301-9.718 5.531 0 9.447 5.131 8.199 10.779h-11.854c.035 1.438.685 2.756 1.421 3.553 2.02 2.181 6.047.978 7.181-1.283m-32.05-12.52h13.733v3.58h-4.793v14.518h-4.146v-14.518h-4.794zm26.581-17.011v-7.303h-.741c-3.143 0-3.114.825-4.386 2.741l-2.343 4.562h-4.031c.686-.844 2.997-5.068 3.728-6.666.49-1.07 1.011-1.425 2.177-1.725-2.464-.609-3.765-2.114-3.765-4.621 0-1.104.283-2.066.838-2.917.556-.851 1.289-1.425 2.2-1.715.905-.291 2.261-.454 4.071-.454h5.516v18.098zm0-15.111h-2.338c-1.933 0-3.393.478-3.393 2.496 0 2.017 1.693 2.486 3.393 2.486h2.338zm88.834 32.37h4.28v6.41c3.425-.492 4.649-6.597 9.503-6.826l.775 3.734c-2.702-.072-3.969 4.151-6.116 4.725 3.81.451 3.75 4.705 7.854 10.035h-4.891c-4.515-7.547-3.471-8.027-7.125-8.027v8.027h-4.28zm-132.947-21.051.017-10.707h-4.842c-.181 4.735-.933 8.979-2.248 10.707zm2.699 3.785h-11.933v3.61h-3.832v-7.395h1.924c1.765-1.779 2.447-11.849 2.369-14.306h13.14v14.306h2.164v7.395h-3.832zm10.276-18.091h12.825v18.098h-3.848v-15.035h-5.164l-.254 7.728c-.139 4.254-2.66 7.048-7.264 7.822l-.718-3.355c3.73-.671 3.99-2.718 4.139-4.926zm89.719 8.859c0 1.883.396 3.322 1.196 4.322.794.999 1.778 1.499 2.947 1.499s2.149-.5 2.937-1.499c.794-1 1.191-2.451 1.191-4.359 0-1.853-.397-3.285-1.191-4.284-.788-1-1.768-1.5-2.937-1.5s-2.153.5-2.947 1.5c-.8.999-1.196 2.444-1.196 4.321m-4.303-.259c0-1.609.358-3.169 1.062-4.677.71-1.502 1.714-2.657 3.012-3.446 1.298-.795 2.748-1.196 4.351-1.196 2.471 0 4.499.901 6.081 2.704 1.582 1.802 2.37 4.076 2.37 6.828 0 2.767-.799 5.065-2.391 6.891-1.597 1.826-3.605 2.734-6.028 2.734-1.504 0-2.928-.377-4.289-1.138-1.36-.759-2.396-1.873-3.106-3.339-.704-1.467-1.062-3.252-1.062-5.361m47.367 1.811h6.546v7.687h4.409v-18.098h-4.409v6.711h-6.546v-6.711h-4.408v18.098h4.408zm-9.397 2.009c-.58 3.472-4.126 5.952-7.929 6.017-5.672.095-8.569-4.196-8.569-9.411 0-3.084.809-5.478 2.426-7.186 1.615-1.703 3.74-2.615 6.376-2.557 4.03.089 6.546 2.081 7.585 5.781-1.201.319-2.401.64-3.601.96.017-.004-.974-3.218-4.178-3.236-3.346-.02-4.394 2.983-4.402 6.193-.007 2.846.886 6.048 4.42 6.048 2.271 0 3.698-1.519 4.16-3.482zm18.045 22.906h4.152v11.092l7.095-11.092h4.151v18.109h-4.151v-10.879l-7.095 10.879h-4.152zm29.75-35.337h4.151v11.092l7.096-11.092h4.151v18.109h-4.151v-10.879l-7.096 10.879h-4.151zm14.212-7.703c-.515 3.133-3.235 5.524-6.513 5.524s-5.998-2.391-6.513-5.524h3.254c.451 1.367 1.739 2.355 3.259 2.355 1.519 0 2.808-.988 3.259-2.355zm-119.671 25.812h-15.538v-4.41c2.115-1.968 4.431-4.192 6.381-6.247 1.556-1.641 2.863-3.185 3.763-4.325 1.071-1.354 2.312-2.487 1.928-4.287-.344-1.605-1.665-2.953-3.414-2.92-1.91.036-3.498 1.511-5.265 3.474l-2.982-3.324c1.66-2.432 5.338-3.815 8.106-3.815 4.293 0 7.92 2.962 7.92 7.389 0 1.526-.183 3.058-1.195 4.459-.935 1.295-2.932 3.456-5.382 5.867l-3.518 3.461h10.412z"/></svg>