<svg clip-rule="evenodd" fill-rule="evenodd" stroke-linejoin="round" stroke-miterlimit="2" viewBox="0 0 284 143" xmlns="http://www.w3.org/2000/svg"><path d="m281.459 24.981c0-12.964-10.526-23.49-23.49-23.49h-232.55c-12.964 0-23.49 10.526-23.49 23.49v91.196c0 12.964 10.526 23.489 23.49 23.489h232.55c12.964 0 23.49-10.525 23.49-23.489z" fill="#fff"/><path d="m112.323 61.885-.442-5.007c2.682 2.017 11.557 3.231 11.851-1.9.149-2.607-1.867-3.672-4.264-3.672-.768 0-1.588.066-2.39.335v-4.229c3.572-.417 5.455-2.035 5.558-4.215.051-1.1-.748-2.422-2.768-2.492-1.728-.059-4.339 1.106-5.865 2.317l-1.586-4.351c1.859-1.232 5.509-1.984 7.899-1.997 3.872 0 7.439 1.981 7.439 6.158.008 2.383-1.826 4.39-4.577 5.701v.072c3.544.53 5.827 3.565 5.827 6.99-.003 5.44-5.31 7.254-9.559 7.254-2.556 0-5.601-.063-7.123-.964m134.426-24.968c-.515 3.133-3.235 5.524-6.513 5.524s-5.998-2.391-6.513-5.524h3.254c.451 1.367 1.74 2.355 3.259 2.355s2.808-.988 3.259-2.355zm-14.212 7.703h4.151v11.092l7.096-11.092h4.151v18.11h-4.151v-10.879l-7.096 10.879h-4.151zm-29.75 35.337h4.152v11.092l7.095-11.092h4.151v18.11h-4.151v-10.879l-7.095 10.879h-4.152zm-18.045-22.905c-.58 3.472-4.126 5.952-7.929 6.016-5.672.095-8.569-4.196-8.569-9.411 0-3.084.809-5.477 2.426-7.185 1.615-1.704 3.74-2.616 6.376-2.558 4.03.09 6.547 2.082 7.585 5.781-1.201.319-2.401.64-3.601.96.017-.004-.974-3.217-4.178-3.236-3.345-.02-4.394 2.984-4.402 6.194-.007 2.845.886 6.047 4.42 6.047 2.271 0 3.698-1.519 4.16-3.481zm9.397-2.009h6.546v7.687h4.409v-18.099h-4.409v6.712h-6.546v-6.712h-4.408v18.099h4.408zm-47.367-1.811c0-1.609.358-3.169 1.062-4.677.71-1.503 1.714-2.657 3.012-3.446 1.298-.796 2.748-1.197 4.351-1.197 2.471 0 4.499.901 6.081 2.704s2.37 4.076 2.37 6.828c0 2.768-.799 5.065-2.39 6.892-1.598 1.826-3.606 2.733-6.029 2.733-1.504 0-2.927-.377-4.289-1.137-1.36-.76-2.396-1.874-3.106-3.339-.704-1.468-1.062-3.252-1.062-5.361m4.303.258c0 1.883.396 3.322 1.196 4.322.794 1 1.779 1.5 2.948 1.5 1.168 0 2.148-.5 2.936-1.5.794-1 1.191-2.451 1.191-4.358 0-1.853-.397-3.286-1.191-4.285-.788-.999-1.768-1.499-2.936-1.499-1.169 0-2.154.5-2.948 1.499-.8.999-1.196 2.445-1.196 4.321m-89.719-8.859h12.825v18.099h-3.848v-15.036h-5.164l-.254 7.729c-.139 4.253-2.66 7.048-7.264 7.822l-.718-3.355c3.73-.672 3.99-2.719 4.14-4.927zm-10.276 18.092h-11.933v3.61h-3.832v-7.395h1.925c1.764-1.78 2.446-11.849 2.368-14.307h13.14v14.307h2.164v7.395h-3.832zm-2.699-3.785.017-10.707h-4.842c-.181 4.735-.933 8.978-2.248 10.707zm132.947 21.051h4.28v6.41c3.425-.493 4.65-6.598 9.503-6.826l.775 3.734c-2.702-.072-3.969 4.15-6.116 4.724 3.81.452 3.75 4.706 7.854 10.036h-4.891c-4.514-7.547-3.471-8.028-7.125-8.028v8.028h-4.28zm-88.834-32.371h-2.338c-1.933 0-3.393.479-3.393 2.496 0 2.018 1.693 2.487 3.393 2.487h2.338zm0 15.112v-7.304h-.741c-3.143 0-3.114.825-4.386 2.742l-2.343 4.562h-4.031c.686-.845 2.997-5.068 3.728-6.667.49-1.069 1.011-1.424 2.177-1.725-2.464-.609-3.764-2.113-3.764-4.621 0-1.103.282-2.065.837-2.917.557-.851 1.289-1.424 2.2-1.715.905-.291 2.261-.454 4.071-.454h5.517v18.099zm-26.581 17.01h13.733v3.581h-4.793v14.517h-4.146v-14.517h-4.794zm32.05 12.52 3.335 2.119c-1.348 2.399-4.711 4.008-7.805 3.988-5.153-.029-8.777-3.847-8.777-9.437 0-5.149 3.322-9.719 8.3-9.719 5.531 0 9.447 5.131 8.199 10.779h-11.854c.035 1.438.685 2.756 1.421 3.553 2.02 2.182 6.047.979 7.181-1.283m-1.096-5.348c-.054-2.193-1.232-4.103-3.686-4.103-2.615 0-3.837 1.615-3.815 4.103zm67.227 11.145h-3.471v-8.256h-.865c-.992 0-1.426.299-1.925.92-2.043 2.557-2.968 4.754-4.614 7.318l-4.357.018c1.621-1.934 2.229-3.367 3.343-5.051.794-1.199 1.639-2.74 2.232-3.506.609-.785 1.101-1.297 2.11-1.457-.539-.082-2.268-2.594-3.071-3.857-.343-.543-.845-1.129-1.884-1.129h-.924l.945-3.537c1.386-.01 2.557.523 3.197 1.176 1.354 1.38 2.777 3.873 4.238 5.513.41.461.933.457 1.575.405v-6.588h3.471v6.588c.642.052 1.167.056 1.576-.405 1.461-1.64 2.883-4.133 4.237-5.513.641-.653 1.812-1.186 3.197-1.176l.946 3.537h-.925c-1.038 0-1.539.586-1.883 1.129-.804 1.263-2.531 3.775-3.071 3.857 1.008.16 1.501.672 2.109 1.457.593.766 1.438 2.307 2.232 3.506 1.115 1.684 1.722 3.117 3.343 5.051l-4.356-.018c-1.647-2.564-2.572-4.761-4.614-7.318-.499-.621-.934-.92-1.925-.92h-.866zm-32.255-48.465h10.389v5.157h-10.389zm78.767 3.64c0-1.609.358-3.169 1.061-4.677.711-1.503 1.714-2.657 3.012-3.446 1.298-.796 2.748-1.197 4.352-1.197 2.47 0 4.499.901 6.08 2.704 1.582 1.803 2.371 4.076 2.371 6.828 0 2.768-.799 5.065-2.391 6.892-1.598 1.826-3.606 2.733-6.029 2.733-1.503 0-2.926-.377-4.288-1.137-1.361-.76-2.396-1.874-3.107-3.339-.703-1.468-1.061-3.252-1.061-5.361m4.302.258c0 1.883.397 3.322 1.196 4.322.794 1 1.779 1.5 2.948 1.5 1.168 0 2.148-.5 2.936-1.5.795-1 1.191-2.451 1.191-4.358 0-1.853-.396-3.286-1.191-4.285-.788-.999-1.768-1.499-2.936-1.499-1.169 0-2.154.5-2.948 1.499-.799.999-1.196 2.445-1.196 4.321m-105.292 26.25h12.826v18.098h-3.848v-15.035h-5.165l-.254 7.728c-.139 4.254-2.66 7.049-7.264 7.823l-.717-3.356c3.729-.672 3.989-2.718 4.139-4.925zm31.431 12.52 3.336 2.119c-1.349 2.399-4.712 4.008-7.806 3.988-5.153-.029-8.777-3.847-8.777-9.437 0-5.149 3.323-9.719 8.3-9.719 5.531 0 9.447 5.131 8.2 10.779h-11.855c.035 1.438.685 2.756 1.422 3.553 2.019 2.182 6.046.979 7.18-1.283m-1.096-5.348c-.054-2.193-1.232-4.103-3.686-4.103-2.615 0-3.838 1.615-3.815 4.103zm123.573-86.912c11.011.297 19.94 9.137 19.94 20.198v101.966c0 17.967-19.449 21.455-19.449 20.254l-244.074-.021c-11.009-.295-19.941-9.135-19.941-20.198v-101.966c0-11.064 8.932-19.903 19.941-20.199l243.583-.034zm-259.101 122.199c0 8.643 6.921 15.481 15.518 15.772l244.074.025c8.643-.298 15.025-7.256 15.025-15.832v-101.966c0-8.641-6.92-15.481-15.516-15.772l-243.583.034c-8.597.292-15.518 7.131-15.518 15.773v101.966z"/></svg>