<svg clip-rule="evenodd" fill-rule="evenodd" stroke-linejoin="round" stroke-miterlimit="2" viewBox="0 0 284 143" xmlns="http://www.w3.org/2000/svg"><path d="m281.459 24.981c0-12.964-10.526-23.49-23.49-23.49h-232.55c-12.964 0-23.49 10.526-23.49 23.49v91.196c0 12.964 10.526 23.489 23.49 23.489h232.55c12.964 0 23.49-10.525 23.49-23.489z" fill="#fff"/><path d="m263.523 4.46c4.06.138 7.924 1.745 10.836 4.609 3.005 2.955 4.681 6.945 4.681 11.163v101.967c0 4.219-1.676 8.207-4.681 11.164-2.912 2.864-6.776 4.471-10.836 4.608v.021l-244.075.024v-.02c-3.96-.137-7.685-1.693-10.49-4.537-2.973-3.014-4.535-7.076-4.535-11.295v-101.965c0-4.219 1.676-8.208 4.681-11.164 2.912-2.864 6.774-4.471 10.835-4.609v-.02l243.584.033v.021zm-243.584-4.46c-5.224.141-10.186 2.212-13.926 5.892-3.852 3.789-6.013 8.895-6.013 14.307v101.965c0 5.383 2.026 10.543 5.814 14.385 3.644 3.693 8.476 5.732 13.634 5.873v-.004l244.075-.023v.003c5.224-.14 10.186-2.214 13.927-5.892 3.852-3.789 6.013-8.895 6.013-14.307v-101.967c0-5.412-2.161-10.518-6.013-14.307-3.741-3.678-8.703-5.751-13.927-5.891v.003l-243.584-.034v-.003zm26.596 44.302h13.906v19.846h19.846v13.907h-19.846v19.843h-13.906v-19.843h-19.845v-13.907h19.845zm174.733 36.077c8.061 0 14.596 6.535 14.596 14.596 0 8.06-6.535 14.593-14.596 14.593-8.06 0-14.596-6.533-14.596-14.593 0-8.061 6.536-14.596 14.596-14.596m0 7.973c3.657 0 6.623 2.964 6.623 6.623 0 3.656-2.966 6.621-6.623 6.621s-6.623-2.965-6.623-6.621c0-3.659 2.966-6.623 6.623-6.623m-91.464-7.973c8.061 0 14.596 6.535 14.596 14.596 0 8.06-6.535 14.593-14.596 14.593s-14.595-6.533-14.595-14.593c0-8.061 6.534-14.596 14.595-14.596m0 7.973c3.657 0 6.622 2.964 6.622 6.623 0 3.656-2.965 6.621-6.622 6.621s-6.623-2.965-6.623-6.621c0-3.659 2.966-6.623 6.623-6.623m-7.273-55.499h118.67c5.782 0 7.737 3.261 9.115 7.306 2.15 6.307 4.233 12.577 6.457 18.879v29.071c0 4.079-3.338 7.416-7.416 7.416h-11.029c.007-.183.009-.367.009-.55 0-9.598-7.473-17.377-17.069-17.377s-16.993 7.779-16.993 17.377c0 .183.003.367.01.55h-57.481c.006-.183.01-.367.01-.55 0-9.598-7.321-17.377-16.917-17.377s-17.14 7.779-17.14 17.377c0 .183.004.367.011.55h-4.22c-4.078 0-7.417-3.336-7.417-7.416v-28.144l11.407-19.696c2.044-3.53 4.411-7.416 9.993-7.416m56.266 6.34h21.542c1.531 0 2.783 1.252 2.783 2.782v14.49c0 1.53-1.252 2.782-2.783 2.782h-21.542c-1.53 0-2.781-1.252-2.781-2.782v-14.49c0-1.53 1.251-2.782 2.781-2.782m35.197 0h19.884c1.532 0 3.135.664 3.733 2.782l3.567 12.624c.608 2.149-.068 4.648-3.114 4.648h-24.07c-1.531 0-2.783-1.252-2.783-2.782v-14.49c0-1.53 1.251-2.782 2.783-2.782m-83.89 0h-8.064c-1.53 0-3.006.874-4.1 2.781l-7.234 12.624c-1.11 1.937.069 4.649 3.114 4.649h16.284c1.528 0 2.781-1.252 2.781-2.782v-14.491c0-1.529-1.251-2.781-2.781-2.781m13.616 0h21.542c1.531 0 2.782 1.252 2.782 2.782v14.49c0 1.53-1.251 2.782-2.782 2.782h-21.542c-1.53 0-2.781-1.252-2.781-2.782v-14.49c0-1.53 1.251-2.782 2.781-2.782"/></svg>