<svg clip-rule="evenodd" fill-rule="evenodd" stroke-linejoin="round" stroke-miterlimit="2" viewBox="0 0 284 143" xmlns="http://www.w3.org/2000/svg"><path d="m281.459 24.981c0-12.964-10.526-23.49-23.49-23.49h-232.55c-12.964 0-23.49 10.526-23.49 23.49v91.196c0 12.964 10.526 23.489 23.49 23.489h232.55c12.964 0 23.49-10.525 23.49-23.489z" fill="#fff"/><path d="m255.257 71.237c0 4.628-1.282 11.962-7.229 11.94-2.486-.009-3.787-.961-5.205-2.937-3.488-4.863-3.345-20.974 5.128-20.943 6.049.022 7.306 7.201 7.306 11.94m-7.267-17.884c-9.605 0-13.879 9.501-13.796 17.881.238 23.779 27.355 23.779 27.592 0 .083-8.379-4.191-17.881-13.796-17.881m-39.316 6.719h3.149c3.732-.002 7.781.41 7.781 5.029 0 4.122-3.727 4.921-7.116 4.925l-3.813.003zm-6.491 28.146h6.483v-12.335h3.902c7.725.001 13.553-3.071 13.553-11.325 0-2.645-1.03-5.118-2.969-6.93-2.869-2.679-7.099-3.425-10.887-3.425h-10.082zm-25.067 0h6.458v-28.161h9.546v-5.854h-25.55v5.854h9.546zm-39.902 0h20.902v-5.851h-14.916v-9.262h12.073v-5.553h-12.073v-7.477h14.969v-5.872h-20.955zm-43.698 0 6.874-.002 2.503-22.558 8.104 17.691 8.104-17.691 2.503 22.558 6.874.002-3.705-34.015h-6.983l-6.793 14.954-6.792-14.954h-6.984zm-46.981-43.806h13.907v19.846h19.846v13.906h-19.846v19.845h-13.907v-19.845h-19.844v-13.906h19.844zm216.988-39.952c4.06.137 7.924 1.745 10.837 4.609 3.004 2.955 4.68 6.945 4.68 11.163v101.967c0 4.219-1.676 8.209-4.68 11.164-2.913 2.863-6.777 4.471-10.837 4.609v.02l-244.074.023v-.019c-3.961-.137-7.686-1.694-10.49-4.537-2.973-3.014-4.535-7.076-4.535-11.295v-101.966c0-4.218 1.675-8.208 4.681-11.164 2.911-2.863 6.774-4.471 10.835-4.608v-.021l243.583.034v.021zm-243.583-4.46c-5.225.141-10.186 2.213-13.926 5.891-3.853 3.789-6.014 8.895-6.014 14.307v101.966c0 5.383 2.027 10.545 5.814 14.385 3.644 3.695 8.476 5.732 13.635 5.873v-.004l244.074-.024v.004c5.224-.14 10.186-2.215 13.927-5.892 3.853-3.79 6.014-8.895 6.014-14.307v-101.967c0-5.412-2.16-10.518-6.014-14.307-3.741-3.678-8.703-5.751-13.927-5.891v.003l-243.583-.034v-.003z"/></svg>