<svg clip-rule="evenodd" fill-rule="evenodd" stroke-linejoin="round" stroke-miterlimit="2" viewBox="0 0 284 143" xmlns="http://www.w3.org/2000/svg"><path d="m281.459 24.981c0-12.964-10.526-23.49-23.49-23.49h-232.55c-12.964 0-23.49 10.526-23.49 23.49v91.196c0 12.964 10.526 23.489 23.49 23.489h232.55c12.964 0 23.49-10.525 23.49-23.489z" fill="#fff"/><path d="m19.939 0c-5.224.141-10.186 2.213-13.926 5.892-3.853 3.789-6.013 8.895-6.013 14.307v101.965c0 5.383 2.026 10.545 5.814 14.385 3.644 3.695 8.476 5.732 13.634 5.873v-.004l244.074-.023v.003c5.225-.14 10.187-2.214 13.928-5.892 3.852-3.789 6.013-8.895 6.013-14.307v-101.967c0-5.412-2.16-10.518-6.013-14.307-3.741-3.678-8.703-5.751-13.928-5.891v.003l-243.583-.034v-.003zm243.583 4.46c4.061.138 7.925 1.746 10.837 4.609 3.005 2.955 4.681 6.945 4.681 11.163v101.967c0 4.219-1.676 8.209-4.681 11.164-2.912 2.864-6.776 4.471-10.837 4.61v.019l-244.074.024v-.02c-3.961-.137-7.685-1.693-10.49-4.537-2.973-3.014-4.535-7.076-4.535-11.295v-101.965c0-4.219 1.676-8.208 4.681-11.164 2.912-2.864 6.774-4.472 10.835-4.609v-.02l243.583.033zm-66.373 43.263h-23.325l-7.186-8.536 18.848-17.147h.001l18.848 17.147zm-24.995 3.122h26.666l9.88-11.74-21.921-20.004.003-6.5h-2.59l.002 6.5-21.92 20.004zm51.642 60.932c-.995 3.848-4.49 6.69-8.649 6.69-4.934 0-8.934-4-8.934-8.934 0-4.935 4-8.935 8.934-8.935 4.159 0 7.654 2.841 8.649 6.691.997-3.85 4.492-6.691 8.651-6.691 4.933 0 8.933 4 8.933 8.935 0 4.934-4 8.934-8.933 8.934-4.159 0-7.654-2.842-8.651-6.69m-76.695 0c-.996 3.848-4.491 6.69-8.65 6.69-4.934 0-8.934-4-8.934-8.934 0-4.935 4-8.935 8.934-8.935 4.159 0 7.654 2.841 8.65 6.691.995-3.85 4.49-6.691 8.65-6.691 4.933 0 8.933 4 8.933 8.935 0 4.934-4 8.934-8.933 8.934-4.16 0-7.655-2.842-8.65-6.69m19.487-1.599h37.796c-.45-5.449 3.309-9.553 6.118-10.375l-11.504-.002v-.002h-20.254l.001.002-18.274.002c2.81.822 6.569 4.926 6.117 10.375zm-34.579-56.267h106.955c4.945 0 7.044 2.812 8.898 6.339 1.356 2.581 2.772 4.954 4.174 7.395 1.354 2.36 2.692 4.793 4.135 7.216 1.896 3.182 2.216 4.901 2.216 8.457v14.37c0 6.431-5.262 11.695-11.694 11.695h-3.589c0-5.873-4.761-10.633-10.633-10.633h-93.969c-5.873 0-10.633 4.76-10.633 10.633h-3.588c-6.433 0-11.695-5.264-11.695-11.695v-14.37c0-3.556.321-5.275 2.215-8.457 1.444-2.423 2.782-4.856 4.137-7.216 1.4-2.441 2.817-4.814 4.173-7.395 1.854-3.527 3.953-6.339 8.898-6.339m110.055 5.017h-7.577c-2.032 0-3.695 1.663-3.695 3.696v12.579c0 2.031 1.663 3.695 3.695 3.695h14.497c4.212 0 4.335-3.462 2.908-5.88l-6.133-10.394c-1.033-1.751-1.663-3.696-3.695-3.696m-113.117 0h7.577c2.033 0 3.696 1.663 3.696 3.696v12.579c0 2.031-1.664 3.695-3.696 3.695h-14.496c-4.213 0-4.336-3.462-2.909-5.88l6.133-10.394c1.033-1.751 1.663-3.696 3.695-3.696m17.81 0h19.01c2.032 0 3.695 1.663 3.695 3.696v12.579c0 2.031-1.663 3.695-3.695 3.695h-19.01c-2.032 0-3.695-1.664-3.695-3.695v-12.579c0-2.033 1.663-3.696 3.695-3.696m58.487 0h19.009c2.033 0 3.696 1.663 3.696 3.696v12.579c0 2.031-1.663 3.695-3.696 3.695h-19.009c-2.033 0-3.696-1.664-3.696-3.695v-12.579c0-2.033 1.663-3.696 3.696-3.696m-29.243 0h19.009c2.033 0 3.696 1.663 3.696 3.696v12.579c0 2.031-1.663 3.695-3.696 3.695h-19.009c-2.033 0-3.696-1.664-3.696-3.695v-12.579c0-2.033 1.663-3.696 3.696-3.696m-129.466-14.515h13.906v19.845h19.846v13.906h-19.846v19.846h-13.906v-19.846h-19.845v-13.906h19.845z"/></svg>