<svg clip-rule="evenodd" fill-rule="evenodd" viewBox="0 0 284 143" xmlns="http://www.w3.org/2000/svg"><path d="m282.67 25.251c0-13.135-10.664-23.8-23.8-23.8h-233.385c-13.135 0-23.8 10.665-23.8 23.8v92.401c0 13.136 10.665 23.8 23.8 23.8h233.385c13.136 0 23.8-10.664 23.8-23.8z" fill="#fff"/><path d="m263.525 0c11.011.296 19.939 9.137 19.939 20.198v101.966c0 17.967-19.448 21.455-19.448 20.254l-244.074-.022c-11.009-.295-19.942-9.135-19.942-20.197v-101.967c0-11.064 8.933-19.903 19.942-20.199l243.583-.033zm-259.101 122.199c0 8.642 6.921 15.48 15.518 15.771l244.074.026c8.643-.299 15.024-7.256 15.024-15.832v-101.966c0-8.642-6.919-15.482-15.515-15.773l-243.583.035c-8.597.291-15.518 7.13-15.518 15.772z"/><path d="m203.124 112.394c0 3.559-2.914 6.471-6.471 6.471h-121.877c-3.559 0-6.471-2.912-6.471-6.471v-60.26c0-3.56 2.912-6.472 6.471-6.472h121.877c3.557 0 6.471 2.912 6.471 6.472z"/><path d="m94.238 57.782c0 2.224-4.307 4.03-9.616 4.03-5.313 0-9.621-1.806-9.621-4.03 0-2.226 4.308-4.029 9.621-4.029 5.309 0 9.616 1.803 9.616 4.029" fill="#fff"/><path d="m92.408 57.782c0 1.801-3.484 3.264-7.785 3.264-4.303 0-7.791-1.463-7.791-3.264 0-1.803 3.488-3.263 7.791-3.263 4.301 0 7.785 1.46 7.785 3.263" fill="#1e0f00"/><path d="m202.279 48.996-26.247-19.08-6.042 8.309 28.357 20.611 4.353-5.986"/><path d="m193.971 85.135c-25.472 8.547-73.702 11.674-73.702-6.904 0-23.053 19.577-41.848 43.583-41.848 15.576 0 29.293 7.917 37.003 19.774" fill="#1e0f00"/><path d="m169.991 28.543h10.272v44.915h-10.272z"/><path d="m163.646 39.62c21.748 0 39.479 17.8 39.479 39.623 0 21.821-17.731 39.621-39.479 39.621-21.756 0-39.485-17.8-39.485-39.621 0-21.823 17.729-39.623 39.485-39.623" fill="#fff"/><path d="m163.646 44.376c19.14 0 34.74 15.663 34.74 34.867 0 19.202-15.6 34.865-34.74 34.865-19.144 0-34.748-15.663-34.748-34.865 0-19.204 15.604-34.867 34.748-34.867" fill="#1e0f00"/><path d="m163.646 51c15.503 0 28.139 12.686 28.139 28.243 0 15.552-12.636 28.242-28.139 28.242-15.509 0-28.143-12.69-28.143-28.242 0-15.557 12.634-28.243 28.143-28.243" fill="#fff"/><path d="m163.646 53.825c13.95 0 25.322 11.42 25.322 25.417s-11.372 25.417-25.322 25.417c-13.958 0-25.328-11.42-25.328-25.417s11.37-25.417 25.328-25.417" fill="#1e0f00"/><path d="m163.646 58.654c11.299 0 20.514 9.248 20.514 20.587 0 11.34-9.215 20.59-20.514 20.59-11.305 0-20.518-9.25-20.518-20.59 0-11.339 9.213-20.587 20.518-20.587" fill="#fff"/><path d="m163.646 62.566c9.15 0 16.616 7.492 16.616 16.676 0 9.183-7.466 16.677-16.616 16.677-9.157 0-16.62-7.494-16.62-16.677 0-9.184 7.463-16.676 16.62-16.676" fill="#1e0f00"/><g fill="none" stroke="#000" stroke-width=".5"><path d="m193.48 13.235 4.468 13.533"/><path d="m208.051 20-10.103 6.769"/><path d="m208.051 20-3.997 9.659"/><path d="m204.053 29.659h8.695"/><path d="m212.749 29.659-8.695 4.651"/><path d="m204.053 34.31 2.002 7.097"/><path d="m206.054 41.406-5.994-4.808"/><path d="m200.059 36.598-4.344 7.252"/><path d="m195.716 43.85-1.06-7.252"/><path d="m194.656 36.598h-8.93"/><path d="m185.726 36.598 6.579-6.939"/><path d="m192.305 29.659-9.396-2.89"/><path d="m182.908 26.768h10.572"/><path d="m193.48 26.768v-13.533"/></g></svg>