<svg clip-rule="evenodd" fill-rule="evenodd" stroke-linejoin="round" stroke-miterlimit="2" viewBox="0 0 284 143" xmlns="http://www.w3.org/2000/svg"><path d="m282.67 25.251c0-13.135-10.664-23.8-23.8-23.8h-233.385c-13.135 0-23.8 10.665-23.8 23.8v92.401c0 13.136 10.665 23.8 23.8 23.8h233.385c13.136 0 23.8-10.664 23.8-23.8z" fill="#fff"/><path d="m263.525 0c11.011.296 19.939 9.137 19.939 20.198v101.966c0 17.967-19.448 21.455-19.448 20.254l-244.074-.022c-11.009-.295-19.942-9.135-19.942-20.197v-101.967c0-11.064 8.933-19.903 19.942-20.199l243.583-.033zm-259.101 122.199c0 8.642 6.921 15.48 15.518 15.771l244.074.026c8.643-.299 15.024-7.256 15.024-15.832v-101.966c0-8.642-6.919-15.482-15.515-15.773l-243.583.035c-8.597.291-15.518 7.13-15.518 15.772z"/><path d="m272.043 120.822h-260.821v-4.09h260.821zm-58.587-28.875c5.621 3.075 7.327 10.871 3.79 17.348-3.539 6.483-11.022 9.256-16.652 6.184-5.625-3.077-7.327-10.869-3.788-17.352 3.541-6.476 11.018-9.256 16.65-6.18zm-149.296 3.156c5.697 0 10.34 4.646 10.34 10.341 0 5.698-4.643 10.343-10.34 10.343-5.698 0-10.341-4.645-10.341-10.343 0-5.695 4.643-10.341 10.341-10.341zm66.902-61.331 38.328 12.037c1.073.462 2.508.558 3.618-.1l19.328-11.063c.892-.518 2.042-.377 2.86.071l43.313 23.669c1.234.675 2.23 2.183 2.236 3.741l.192 24.702c.017 2.179-.343 4.361-1.775 6.09l-13.522 16.273c-1.44 1.731-3.39 2.84-5.112 1.899l-1.858-1.015c4.034-7.385 2.095-16.267-4.318-19.771-6.42-3.505-14.936-.34-18.972 7.047l-48.483-26.494c4.038-7.385 2.093-16.265-4.32-19.769-6.411-3.504-14.936-.344-18.968 7.045l-3.089-1.687c-1.724-.944-1.683-3.145-1.166-5.325l6.597-15.449c.528-2.179 3.308-2.678 5.111-1.901zm79.699 63.101c3.274 1.786 4.266 6.317 2.206 10.088-2.06 3.768-6.407 5.378-9.678 3.592-3.274-1.79-4.264-6.315-2.202-10.085 2.056-3.771 6.401-5.385 9.674-3.595zm-146.601 4.382c2.307 0 4.189 1.884 4.189 4.189 0 2.31-1.882 4.192-4.189 4.192-2.308 0-4.192-1.882-4.192-4.192 0-2.305 1.884-4.189 4.192-4.189zm2.064-66.067v-9.419h8.459v9.244l.656-1.007 45.734 45.43h23.225v8.025h-26.265l-.518.796-.802-.796h-.163v-.162l-41.867-41.589v15.421h6.284v24.928l-3.06 12.59c-2.56-4.468-7.69-7.518-13.596-7.518s-11.028 3.05-13.588 7.518h-32.465c-2.314-1.721-5.517-2.655-6.943-5.162-1.238-2.176-.243-5.003-.263-7.507-.068-8.283 0-16.566 0-24.849h16.299l-.207-.316zm128.61 4.013 38.436 21.003c1.434.782 1.35 2.617.972 4.44l-2.838 13.663c-.38 1.818-2.821 2.367-4.263 1.579l-48.611-26.563c-1.434-.782-2.51-3.476-.968-4.437l13.013-8.103c1.546-.958 2.821-2.367 4.259-1.582zm-53.153 13.531c5.629 3.074 7.333 10.868 3.794 17.349-3.541 6.481-11.022 9.257-16.651 6.178-5.632-3.075-7.332-10.867-3.791-17.347 3.541-6.481 11.02-9.257 16.648-6.18zm-2.692 4.926c3.279 1.788 4.265 6.315 2.205 10.087-2.058 3.768-6.405 5.378-9.68 3.588-3.269-1.788-4.261-6.315-2.204-10.085 2.058-3.768 6.41-5.378 9.679-3.59zm-96.9 3.473h24.135v-15.826z" fill="#1e0f00"/></svg>