<svg clip-rule="evenodd" fill-rule="evenodd" stroke-linejoin="round" stroke-miterlimit="2" viewBox="0 0 284 143" xmlns="http://www.w3.org/2000/svg"><path d="m281.459 24.981c0-12.964-10.526-23.49-23.49-23.49h-232.55c-12.964 0-23.49 10.526-23.49 23.49v91.196c0 12.964 10.526 23.489 23.49 23.489h232.55c12.964 0 23.49-10.525 23.49-23.489z" fill="#fff"/><path d="m23.634 71.21 70.235-41.084v27.139c31.91.023 63.816.023 95.726 0v-27.139l70.235 41.084-70.235 41.084v-27.138c-31.91-.024-63.816-.024-95.726 0v27.138l-70.235-41.084zm239.891-71.21c11.01.296 19.939 9.137 19.939 20.198v101.966c0 17.966-19.448 21.455-19.448 20.254l-244.074-.022c-11.009-.295-19.942-9.135-19.942-20.197v-101.967c0-11.064 8.933-19.903 19.942-20.199l243.583-.033zm-259.101 122.199c0 8.642 6.921 15.48 15.518 15.771l244.074.026c8.642-.299 15.024-7.256 15.024-15.832v-101.966c0-8.642-6.92-15.482-15.515-15.773l-243.583.035c-8.597.291-15.518 7.13-15.518 15.772z"/></svg>