<svg clip-rule="evenodd" fill-rule="evenodd" stroke-linejoin="round" stroke-miterlimit="2" viewBox="0 0 284 143" xmlns="http://www.w3.org/2000/svg"><path d="m281.459 24.981c0-12.964-10.526-23.49-23.49-23.49h-232.55c-12.964 0-23.49 10.526-23.49 23.49v91.196c0 12.964 10.526 23.489 23.49 23.489h232.55c12.964 0 23.49-10.525 23.49-23.489z" fill="#fff"/><path d="m279.04 57.199-184.837.137v-27.21l-70.235 41.084 70.235 41.085v-27.21l184.837.137v36.976c0 8.644-6.921 15.481-15.518 15.772v.021l-244.073.024v-.02c-8.643-.297-15.026-7.254-15.026-15.831v-101.966c0-8.642 6.921-15.482 15.516-15.772v-.02l243.583.033v.021c8.597.291 15.518 7.13 15.518 15.772zm-259.101-57.199c-11.01.296-19.939 9.136-19.939 20.198v101.966c0 10.998 8.389 19.957 19.449 20.258v-.004l244.073-.024v.003c11.009-.296 19.942-9.135 19.942-20.199v-101.966c0-11.064-8.933-19.903-19.942-20.199v.004l-243.583-.034v-.003z"/></svg>