<svg clip-rule="evenodd" fill-rule="evenodd" stroke-linejoin="round" stroke-miterlimit="2" viewBox="0 0 284 143" xmlns="http://www.w3.org/2000/svg"><path d="m281.459 24.981c0-12.964-10.526-23.49-23.49-23.49h-232.55c-12.964 0-23.49 10.526-23.49 23.49v91.196c0 12.964 10.526 23.489 23.49 23.489h232.55c12.964 0 23.49-10.525 23.49-23.489z" fill="#fff"/><path d="m97.333 70.198-6.052 12.7c-.512 1.074-1.428 2.825-2.273 3.681l-.028.028-4.71 2.809c-1.767 1.055-3.965 3.274-2.924 5.53.12.261.282.501.478.712 1.062 1.149 3.211 1.279 4.513.488l7.763-4.715c1.208-.734 2.209-2.739 2.822-4.01l6.189-12.82c4.721 4.755 7.637 11.303 7.637 18.533 0 14.529-11.778 26.308-26.308 26.308-14.529 0-26.308-11.779-26.308-26.308s11.779-26.308 26.308-26.308c4.685 0 9.083 1.226 12.893 3.372m75.917 28.228 26.357-.088c1.35-.005 2.619-.545 3.518-1.558 1.621-1.826 1.454-4.336.17-6.298-2.037-3.115-4.193-6.181-6.329-9.23-2.85-4.07-5.727-8.124-8.614-12.17 3.262-1.45 6.873-2.256 10.673-2.256 14.529 0 26.308 11.779 26.308 26.308s-11.779 26.308-26.308 26.308c-12.717 0-23.326-9.023-25.775-21.016m-5.799-6.954h-10.446l14.304-34.334 8.008 11.272c-6.854 5.471-11.383 13.731-11.866 23.062m28.251 0h-22.931c.47-7.545 4.121-14.229 9.627-18.726zm-111.262-29.956c5.503 0 10.676 1.407 15.183 3.879l9.332-19.583c.307-.645.619-1.347.581-2.077-.049-.934-.501-1.781-1.223-2.372-.796-.653-1.938-.991-2.823-1.543-.926-.58-1.782-1.268-2.543-2.053-5.133-5.295-4.44-13.87 1.996-17.764 1.478-.894 3.144-1.398 4.878-1.398l16.361.002c5.239 0 4.771 6.98.408 6.98h-15.669c-3.286 0-4.981 3.614-3.353 6.22.111.178.238.347.38.503 1.344 1.48 3.563 2.177 5.081 3.537 3.154 2.824 3.959 6.056 3.429 10.101l-.046.35 52.11-.007 1.659-3.717h-13.61c-6.157 0-6.157-9.655 0-9.655h22.72c6.157 0 6.157 9.655 0 9.655h-2.515l-.079.19c-.398.952-.814 1.896-1.21 2.849-.299.716-1.048 2.381-1.14 3.107-.073.571.232 1.196.558 1.647 3.448 4.764 6.884 9.537 10.306 14.319 4.174-2.03 8.861-3.17 13.814-3.17 17.462 0 31.617 14.156 31.617 31.618s-14.155 31.617-31.617 31.617c-15.652 0-28.646-11.374-31.172-26.307l-17.242.057-43.169-32.871-1.908 3.953c6.458 5.788 10.524 14.195 10.524 23.551 0 17.462-14.156 31.617-31.618 31.617-17.461 0-31.617-14.155-31.617-31.617s14.156-31.618 31.617-31.618m29.244-8.107h52.792l-15.242 36.59-40.289-30.917zm-93.742-48.949c-8.597.292-15.518 7.131-15.518 15.773v101.965c0 8.644 6.921 15.482 15.518 15.773v.02l244.074.025v-.021c8.643-.297 15.025-7.254 15.025-15.831v-101.966c0-8.642-6.92-15.481-15.516-15.772v-.02l-243.583.034v.02zm243.583-4.46c11.011.297 19.939 9.137 19.939 20.198v101.966c0 10.998-8.388 19.957-19.448 20.258v-.004l-244.074-.023v.003c-11.009-.296-19.942-9.136-19.942-20.2v-101.965c0-11.064 8.933-19.903 19.942-20.199v.003l243.583-.034v-.003z"/></svg>