<svg clip-rule="evenodd" fill-rule="evenodd" stroke-linejoin="round" stroke-miterlimit="2" viewBox="0 0 284 143" xmlns="http://www.w3.org/2000/svg"><path d="m281.459 24.981c0-12.964-10.526-23.49-23.49-23.49h-232.55c-12.964 0-23.49 10.526-23.49 23.49v91.196c0 12.964 10.526 23.489 23.49 23.489h232.55c12.964 0 23.49-10.525 23.49-23.489z" fill="#fff"/><path d="m19.941 4.46c-8.596.291-15.518 7.13-15.518 15.772v101.966c0 8.644 6.922 15.482 15.518 15.773v.02l244.074.025v-.021c8.643-.297 15.025-7.254 15.025-15.831v-101.966c0-8.642-6.92-15.482-15.516-15.772v-.02l-243.583.033v.021zm243.583-4.46c11.011.296 19.94 9.137 19.94 20.198v101.966c0 10.998-8.389 19.957-19.449 20.258v-.004l-244.074-.024v.003c-11.009-.295-19.941-9.135-19.941-20.199v-101.966c0-11.064 8.932-19.902 19.941-20.198v.003l243.583-.034v-.003z"/><g fill-rule="nonzero"><path d="m84.517 125.103v-24.868h5.414v10.125c.734-.078 1.297-.32 1.687-.726.391-.406.875-1.606 1.453-3.598.579-1.992 1.215-3.488 1.911-4.488.695-1 1.925-1.5 3.691-1.5.5 0 1.203.062 2.109.187v4.266h-.586c-.859 0-1.515.125-1.968.375s-.875 1.078-1.266 2.484c-.391 1.407-.766 2.477-1.125 3.211-.359.735-.953 1.321-1.781 1.758.687.25 1.379.742 2.074 1.477.695.734 1.527 2.211 2.496 4.429l2.977 6.868h-5.766l-2.742-7.196c-.547-1.453-1.016-2.386-1.406-2.8-.391-.414-.977-.622-1.758-.622v10.618z"/><path d="m104.275 100.212h5.039v3.656c.687-1.312 1.593-2.343 2.718-3.093s2.336-1.125 3.633-1.125c2.328 0 4.332 1.109 6.012 3.328 1.68 2.218 2.519 5.367 2.519 9.445 0 4.281-.843 7.559-2.531 9.832-1.687 2.273-3.695 3.41-6.023 3.41-1.078 0-2.082-.262-3.012-.785s-1.91-1.473-2.941-2.848v12.539h-5.414zm5.343 12.023c0 2.813.457 4.883 1.371 6.211.915 1.329 2.02 1.993 3.317 1.993 1.234 0 2.273-.614 3.117-1.84.844-1.227 1.266-3.231 1.266-6.012 0-2.641-.434-4.59-1.301-5.848-.867-1.257-1.926-1.886-3.176-1.886-1.312 0-2.406.613-3.281 1.84-.875 1.226-1.313 3.074-1.313 5.542z"/><path d="m127.22 112.306c0-2.438.484-4.656 1.453-6.656s2.234-3.5 3.797-4.5c1.562-1 3.32-1.5 5.273-1.5 3.282 0 5.86 1.285 7.735 3.855s2.812 5.574 2.812 9.012c0 2.562-.488 4.875-1.465 6.937-.976 2.063-2.257 3.614-3.843 4.653s-3.325 1.558-5.215 1.558c-3.031 0-5.547-1.156-7.547-3.469-2-2.312-3-5.609-3-9.89zm5.531.351c0 2.516.492 4.418 1.477 5.707.984 1.289 2.172 1.934 3.562 1.934 1.36 0 2.524-.648 3.492-1.945.969-1.297 1.454-3.211 1.454-5.743 0-2.468-.493-4.351-1.477-5.648s-2.164-1.945-3.539-1.945c-1.359 0-2.527.648-3.504 1.945s-1.465 3.195-1.465 5.695z"/><path d="m152.673 125.103v-24.868h6.727l5.039 17.321 5.132-17.321h6.68v24.868h-4.664v-16.36l-4.945 16.36h-4.617l-4.688-16.36v16.36z"/><path d="m193.501 117.181 5.367 1.101c-.718 2.5-1.836 4.356-3.351 5.567-1.516 1.211-3.36 1.816-5.531 1.816-3.016 0-5.344-1.008-6.985-3.023-1.937-2.344-2.906-5.625-2.906-9.844 0-4.156.976-7.484 2.93-9.984 1.656-2.11 3.796-3.164 6.421-3.164 2.922 0 5.211 1.078 6.868 3.234 1.906 2.469 2.859 6.109 2.859 10.922l-.023.75h-13.524c.031 1.969.473 3.492 1.324 4.57.852 1.078 1.879 1.617 3.082 1.617 1.735 0 2.891-1.187 3.469-3.562zm.305-6.656c-.047-1.938-.461-3.395-1.242-4.372-.782-.976-1.711-1.464-2.789-1.464-1.141 0-2.102.507-2.883 1.523-.797 1.031-1.188 2.469-1.172 4.313z"/></g><path d="m104.984 51.261-4.425 9.286c-.375.786-1.044 2.066-1.662 2.692l-.021.021-3.444 2.054c-1.292.771-2.899 2.394-2.138 4.043.088.191.206.367.35.521.776.84 2.348.935 3.3.357l5.676-3.448c.884-.537 1.616-2.003 2.064-2.932l4.525-9.375c3.453 3.477 5.585 8.265 5.585 13.552 0 10.625-8.613 19.238-19.238 19.238-10.624 0-19.237-8.613-19.237-19.238 0-10.624 8.613-19.237 19.237-19.237 3.426 0 6.642.896 9.428 2.466m55.514 20.641 19.274-.064c.987-.004 1.915-.399 2.572-1.14 1.185-1.335 1.063-3.17.124-4.605-1.489-2.278-3.066-4.52-4.628-6.749-2.084-2.976-4.187-5.941-6.299-8.9 2.386-1.06 5.026-1.649 7.805-1.649 10.624 0 19.238 8.613 19.238 19.237 0 10.625-8.614 19.238-19.238 19.238-9.299 0-17.057-6.598-18.848-15.368m-4.24-5.085h-7.639l10.46-25.106 5.856 8.242c-5.012 4.001-8.324 10.041-8.677 16.864m20.658 0h-16.768c.344-5.517 3.013-10.405 7.04-13.693zm-81.36-21.905c4.024 0 7.807 1.029 11.103 2.836l6.824-14.32c.224-.471.453-.985.425-1.518-.036-.683-.367-1.303-.895-1.735-.582-.477-1.417-.725-2.064-1.128-.677-.424-1.303-.927-1.859-1.501-3.754-3.872-3.247-10.143 1.459-12.99 1.081-.654 2.299-1.022 3.567-1.022l11.964.001c3.831 0 3.489 5.104.298 5.104h-11.457c-2.403 0-3.643 2.643-2.452 4.548.081.131.174.254.278.368.982 1.082 2.605 1.592 3.715 2.587 2.306 2.065 2.895 4.428 2.507 7.386l-.033.256 38.105-.005 1.213-2.718h-9.952c-4.502 0-4.502-7.06 0-7.06h16.614c4.502 0 4.502 7.06 0 7.06h-1.839l-.058.139c-.291.696-.595 1.386-.885 2.083-.219.524-.766 1.741-.834 2.272-.053.417.17.874.408 1.204 2.522 3.484 5.034 6.974 7.537 10.471 3.052-1.484 6.479-2.318 10.101-2.318 12.769 0 23.12 10.351 23.12 23.12s-10.351 23.12-23.12 23.12c-11.445 0-20.947-8.317-22.794-19.237l-12.608.042-31.567-24.037-1.396 2.891c4.723 4.232 7.696 10.38 7.696 17.221 0 12.769-10.352 23.12-23.121 23.12-12.768 0-23.119-10.351-23.119-23.12s10.351-23.12 23.119-23.12m21.385-5.928h38.604l-11.146 26.756-29.461-22.608z"/></svg>