<svg clip-rule="evenodd" fill-rule="evenodd" stroke-linejoin="round" stroke-miterlimit="2" viewBox="0 0 284 143" xmlns="http://www.w3.org/2000/svg"><path d="m281.459 24.981c0-12.964-10.526-23.49-23.49-23.49h-232.55c-12.964 0-23.49 10.526-23.49 23.49v91.196c0 12.964 10.526 23.489 23.49 23.489h232.55c12.964 0 23.49-10.525 23.49-23.489z" fill="#fff"/><path d="m158.403 25.221h23.101c1.82 0 3.309 1.489 3.309 3.309v22.65c0 1.82-1.489 3.309-3.309 3.309h-31.855c-1.995 0-3.559-2.663-2.49-5.427l7.935-20.532c.657-1.698 1.49-3.309 3.309-3.309m-72.802 29.268h26.129v-29.159h8.094v29.159h17.418l11.479-29.243c1.478-3.763 3.31-7.353 7.354-7.353h32.289c4.043 0 7.352 3.309 7.352 7.353v29.243l3.743 7.195-4.545 9.651c-3.199-1.239-6.676-1.922-10.313-1.922-15.765 0-28.549 12.784-28.549 28.549 0 .198.003.394.007.592h-48.585c-2.75-8.69-10.877-14.99-20.477-14.99-2.694 0-5.271.498-7.647 1.404v-24.229c0-3.437 2.814-6.25 6.251-6.25m99 28.736c8.141 0 14.739 6.597 14.739 14.737 0 8.139-6.598 14.737-14.739 14.737-8.138 0-14.737-6.598-14.737-14.737 0-8.14 6.599-14.737 14.737-14.737m-97.604 3.281c10.236 0 18.533 8.297 18.533 18.532s-8.297 18.532-18.533 18.532-18.532-8.297-18.532-18.532 8.296-18.532 18.532-18.532m0 9.34c5.078 0 9.193 4.115 9.193 9.192 0 5.076-4.115 9.192-9.193 9.192-5.076 0-9.192-4.116-9.192-9.192 0-5.077 4.116-9.192 9.192-9.192m97.604-23.492c14.144 0 25.609 11.465 25.609 25.608s-11.465 25.608-25.609 25.608c-14.142 0-25.607-11.465-25.607-25.608s11.465-25.608 25.607-25.608m-164.66-67.894c-8.597.292-15.518 7.131-15.518 15.772v101.966c0 8.644 6.921 15.481 15.518 15.773v.02l244.074.023v-.019c8.643-.297 15.025-7.254 15.025-15.831v-101.965c0-8.643-6.92-15.482-15.516-15.773v-.02l-243.583.033v.021zm243.583-4.46c11.011.296 19.94 9.137 19.94 20.199v101.965c0 10.998-8.389 19.957-19.449 20.257v-.003l-244.074-.024v.002c-11.009-.295-19.941-9.134-19.941-20.198v-101.966c0-11.063 8.932-19.903 19.941-20.198v.003l243.583-.034v-.003z"/></svg>