<svg clip-rule="evenodd" fill-rule="evenodd" stroke-linejoin="round" stroke-miterlimit="2" viewBox="0 0 284 143" xmlns="http://www.w3.org/2000/svg"><path d="m281.459 24.981c0-12.964-10.526-23.49-23.49-23.49h-232.55c-12.964 0-23.49 10.526-23.49 23.49v91.196c0 12.964 10.526 23.489 23.49 23.489h232.55c12.964 0 23.49-10.525 23.49-23.489z" fill="#fff"/><path d="m19.941 4.46c-8.596.291-15.518 7.13-15.518 15.772v101.966c0 8.644 6.922 15.482 15.518 15.773v.02l244.074.025v-.021c8.643-.297 15.025-7.254 15.025-15.831v-101.966c0-8.642-6.92-15.482-15.516-15.772v-.02l-243.583.033v.021zm243.583-4.46c11.011.296 19.94 9.137 19.94 20.198v101.966c0 10.998-8.389 19.957-19.449 20.258v-.004l-244.074-.024v.003c-11.009-.295-19.941-9.135-19.941-20.199v-101.966c0-11.064 8.932-19.902 19.941-20.198v.003l243.583-.034v-.003z"/><g fill-rule="nonzero"><path d="m84.517 125.103v-24.868h5.414v10.125c.734-.078 1.297-.32 1.687-.726.391-.406.875-1.606 1.453-3.598.579-1.992 1.215-3.488 1.911-4.488.695-1 1.925-1.5 3.691-1.5.5 0 1.203.062 2.109.187v4.266h-.586c-.859 0-1.515.125-1.968.375s-.875 1.078-1.266 2.484c-.391 1.407-.766 2.477-1.125 3.211-.359.735-.953 1.321-1.781 1.758.687.25 1.379.742 2.074 1.477.695.734 1.527 2.211 2.496 4.429l2.977 6.868h-5.766l-2.742-7.196c-.547-1.453-1.016-2.386-1.406-2.8-.391-.414-.977-.622-1.758-.622v10.618z"/><path d="m104.275 100.212h5.039v3.656c.687-1.312 1.593-2.343 2.718-3.093s2.336-1.125 3.633-1.125c2.328 0 4.332 1.109 6.012 3.328 1.68 2.218 2.519 5.367 2.519 9.445 0 4.281-.843 7.559-2.531 9.832-1.687 2.273-3.695 3.41-6.023 3.41-1.078 0-2.082-.262-3.012-.785s-1.91-1.473-2.941-2.848v12.539h-5.414zm5.343 12.023c0 2.813.457 4.883 1.371 6.211.915 1.329 2.02 1.993 3.317 1.993 1.234 0 2.273-.614 3.117-1.84.844-1.227 1.266-3.231 1.266-6.012 0-2.641-.434-4.59-1.301-5.848-.867-1.257-1.926-1.886-3.176-1.886-1.312 0-2.406.613-3.281 1.84-.875 1.226-1.313 3.074-1.313 5.542z"/><path d="m127.22 112.306c0-2.438.484-4.656 1.453-6.656s2.234-3.5 3.797-4.5c1.562-1 3.32-1.5 5.273-1.5 3.282 0 5.86 1.285 7.735 3.855s2.812 5.574 2.812 9.012c0 2.562-.488 4.875-1.465 6.937-.976 2.063-2.257 3.614-3.843 4.653s-3.325 1.558-5.215 1.558c-3.031 0-5.547-1.156-7.547-3.469-2-2.312-3-5.609-3-9.89zm5.531.351c0 2.516.492 4.418 1.477 5.707.984 1.289 2.172 1.934 3.562 1.934 1.36 0 2.524-.648 3.492-1.945.969-1.297 1.454-3.211 1.454-5.743 0-2.468-.493-4.351-1.477-5.648s-2.164-1.945-3.539-1.945c-1.359 0-2.527.648-3.504 1.945s-1.465 3.195-1.465 5.695z"/><path d="m152.673 125.103v-24.868h6.727l5.039 17.321 5.132-17.321h6.68v24.868h-4.664v-16.36l-4.945 16.36h-4.617l-4.688-16.36v16.36z"/><path d="m193.501 117.181 5.367 1.101c-.718 2.5-1.836 4.356-3.351 5.567-1.516 1.211-3.36 1.816-5.531 1.816-3.016 0-5.344-1.008-6.985-3.023-1.937-2.344-2.906-5.625-2.906-9.844 0-4.156.976-7.484 2.93-9.984 1.656-2.11 3.796-3.164 6.421-3.164 2.922 0 5.211 1.078 6.868 3.234 1.906 2.469 2.859 6.109 2.859 10.922l-.023.75h-13.524c.031 1.969.473 3.492 1.324 4.57.852 1.078 1.879 1.617 3.082 1.617 1.735 0 2.891-1.187 3.469-3.562zm.305-6.656c-.047-1.938-.461-3.395-1.242-4.372-.782-.976-1.711-1.464-2.789-1.464-1.141 0-2.102.507-2.883 1.523-.797 1.031-1.188 2.469-1.172 4.313z"/></g><path d="m183.649 63.166c8.19 0 14.829 6.639 14.829 14.828 0 8.191-6.639 14.83-14.829 14.83-8.188 0-14.828-6.639-14.828-14.83 0-8.189 6.64-14.828 14.828-14.828m0 8.1c3.716 0 6.73 3.012 6.73 6.728s-3.014 6.73-6.73 6.73c-3.715 0-6.728-3.014-6.728-6.73s3.013-6.728 6.728-6.728m-92.927-8.1c8.189 0 14.829 6.639 14.829 14.828 0 8.191-6.64 14.83-14.829 14.83-8.19 0-14.83-6.639-14.83-14.83 0-8.189 6.64-14.828 14.83-14.828m0 8.1c3.715 0 6.728 3.012 6.728 6.728s-3.013 6.73-6.728 6.73c-3.717 0-6.73-3.014-6.73-6.73s3.013-6.728 6.73-6.728m-7.39-56.387h120.57c5.874 0 7.861 3.314 9.261 7.423 2.185 6.409 4.301 12.779 6.56 19.182v29.537c0 4.144-3.391 7.536-7.535 7.536h-11.206c.007-.188.011-.373.011-.563 0-9.748-7.593-17.655-17.344-17.655-9.749 0-17.265 7.907-17.265 17.655 0 .19.004.375.011.563h-58.401c.005-.188.009-.373.009-.563 0-9.748-7.438-17.655-17.187-17.655-9.75 0-17.414 7.907-17.414 17.655 0 .19.004.375.01.563h-4.287c-4.143 0-7.535-3.392-7.535-7.536v-28.595l11.589-20.011c2.077-3.587 4.481-7.536 10.153-7.536m57.168 6.442h21.886c1.555 0 2.827 1.272 2.827 2.827v14.722c0 1.555-1.272 2.826-2.827 2.826h-21.886c-1.556 0-2.826-1.271-2.826-2.826v-14.722c0-1.555 1.27-2.827 2.826-2.827m35.758 0h20.205c1.554 0 3.184.675 3.791 2.827l3.625 12.826c.618 2.184-.069 4.722-3.165 4.722h-24.456c-1.554 0-2.827-1.271-2.827-2.826v-14.722c0-1.555 1.273-2.827 2.827-2.827m-85.232-.001h-8.193c-1.555 0-3.054.889-4.166 2.826l-7.35 12.828c-1.126 1.967.071 4.721 3.164 4.721h16.545c1.554 0 2.826-1.272 2.826-2.826v-14.723c0-1.554-1.271-2.826-2.826-2.826m13.834.001h21.887c1.555 0 2.827 1.272 2.827 2.827v14.722c0 1.555-1.272 2.826-2.827 2.826h-21.887c-1.555 0-2.825-1.271-2.825-2.826v-14.722c0-1.555 1.27-2.827 2.825-2.827"/></svg>