<svg clip-rule="evenodd" fill-rule="evenodd" stroke-linejoin="round" stroke-miterlimit="2" viewBox="0 0 284 143" xmlns="http://www.w3.org/2000/svg"><path d="m281.459 24.981c0-12.964-10.526-23.49-23.49-23.49h-232.55c-12.964 0-23.49 10.526-23.49 23.49v91.196c0 12.964 10.526 23.489 23.49 23.489h232.55c12.964 0 23.49-10.525 23.49-23.489z" fill="#fff"/><path d="m117.481 105.498h-9.491v19.079h9.491v-7.469h18.026c.869 2.606 3.328 4.484 6.225 4.484s5.356-1.878 6.225-4.484h18.025v7.469h9.491v-19.079h-9.491v7.464h-18.022c-.868-2.61-3.328-4.492-6.228-4.492s-5.361 1.882-6.228 4.492h-18.023zm-9.491-2.213h67.483v-3.6h-67.483zm-88.049-98.825c-8.597.291-15.518 7.13-15.518 15.772v101.966c0 8.644 6.921 15.482 15.518 15.773v.02l244.074.025v-.021c8.643-.297 15.025-7.254 15.025-15.831v-101.966c0-8.642-6.92-15.482-15.516-15.772v-.02l-243.583.033v.021zm243.583-4.46c11.011.296 19.939 9.137 19.939 20.198v101.966c0 10.998-8.388 19.957-19.448 20.258v-.004l-244.074-.024v.003c-11.009-.295-19.941-9.135-19.941-20.199v-101.966c0-11.064 8.932-19.902 19.941-20.198v.003l243.583-.034v-.003z"/><path d="m115.066 17.844h53.331c3.736 0 6.793 3.057 6.793 6.792v72.565h-66.916v-72.565c0-3.735 3.056-6.792 6.792-6.792" fill="#e89300"/></svg>