<svg clip-rule="evenodd" fill-rule="evenodd" stroke-linejoin="round" stroke-miterlimit="2" viewBox="0 0 284 143" xmlns="http://www.w3.org/2000/svg"><path d="m281.459 24.981c0-12.964-10.526-23.49-23.49-23.49h-232.55c-12.964 0-23.49 10.526-23.49 23.49v91.196c0 12.964 10.526 23.489 23.49 23.489h232.55c12.964 0 23.49-10.525 23.49-23.489z" fill="#fff"/><path d="m190.496 80.958c9.289 0 16.82 7.53 16.82 16.819 0 9.29-7.531 16.821-16.82 16.821-9.288 0-16.819-7.531-16.819-16.821 0-9.289 7.531-16.819 16.819-16.819m0 9.188c4.215 0 7.633 3.416 7.633 7.631s-3.418 7.633-7.633 7.633c-4.214 0-7.632-3.418-7.632-7.633s3.418-7.631 7.632-7.631m-105.403-9.188c9.289 0 16.82 7.53 16.82 16.819 0 9.29-7.531 16.821-16.82 16.821s-16.82-7.531-16.82-16.821c0-9.289 7.531-16.819 16.82-16.819m0 9.188c4.214 0 7.632 3.416 7.632 7.631s-3.418 7.633-7.632 7.633c-4.215 0-7.633-3.418-7.633-7.633s3.418-7.631 7.633-7.631m-8.381-63.957h136.756c6.662 0 8.916 3.759 10.504 8.419 2.478 7.27 4.878 14.495 7.441 21.757v33.503c0 4.7-3.847 8.547-8.547 8.547h-12.71c.007-.213.012-.423.012-.638 0-11.057-8.612-20.025-19.672-20.025-11.058 0-19.583 8.968-19.583 20.025 0 .215.005.425.012.638h-66.241c.006-.213.01-.423.01-.638 0-11.057-8.436-20.025-19.494-20.025-11.059 0-19.752 8.968-19.752 20.025 0 .215.005.425.012.638h-4.863c-4.699 0-8.546-3.847-8.546-8.547v-32.434l13.144-22.698c2.356-4.068 5.083-8.547 11.517-8.547m64.842 7.307h24.824c1.764 0 3.207 1.443 3.207 3.206v16.699c0 1.763-1.443 3.205-3.207 3.205h-24.824c-1.765 0-3.205-1.442-3.205-3.205v-16.699c0-1.763 1.44-3.206 3.205-3.206m40.559 0h22.917c1.763 0 3.611.765 4.3 3.206l4.112 14.548c.7 2.477-.079 5.356-3.59 5.356h-27.739c-1.763 0-3.207-1.442-3.207-3.205v-16.699c0-1.763 1.444-3.206 3.207-3.206m-96.675-.001h-9.293c-1.763 0-3.464 1.008-4.725 3.205l-8.336 14.55c-1.278 2.231.08 5.355 3.588 5.355h18.766c1.763 0 3.206-1.443 3.206-3.206v-16.699c0-1.763-1.442-3.205-3.206-3.205m15.692.001h24.825c1.763 0 3.206 1.443 3.206 3.206v16.699c0 1.763-1.443 3.205-3.206 3.205h-24.825c-1.764 0-3.205-1.442-3.205-3.205v-16.699c0-1.763 1.441-3.206 3.205-3.206m162.394-33.496c11.011.296 19.94 9.137 19.94 20.198v101.966c0 10.998-8.389 19.957-19.448 20.258v-.004l-244.075-.023v.002c-11.008-.295-19.941-9.135-19.941-20.199v-101.966c0-11.064 8.933-19.902 19.941-20.198v.003l243.583-.034v-.003zm-243.583 4.46c-8.596.291-15.518 7.13-15.518 15.772v101.966c0 8.644 6.922 15.482 15.518 15.773v.02l244.075.025v-.021c8.642-.297 15.024-7.254 15.024-15.831v-101.966c0-8.642-6.92-15.482-15.516-15.772v-.02l-243.583.033v.021z"/></svg>