<svg width="100%" height="100%" viewBox="0 0 284 143" version="1.1" xmlns="http://www.w3.org/2000/svg" xmlns:xlink="http://www.w3.org/1999/xlink" xml:space="preserve" xmlns:serif="http://www.serif.com/" fill-rule="evenodd" clip-rule="evenodd" stroke-linejoin="round" stroke-miterlimit="2"><path d="M281.459,24.981c0,-12.964 -10.526,-23.49 -23.49,-23.49l-232.55,0c-12.964,0 -23.49,10.526 -23.49,23.49l0,91.196c0,12.964 10.526,23.489 23.49,23.489l232.55,0c12.964,0 23.49,-10.525 23.49,-23.489l0,-91.196Z" fill="#fff"/><path d="M19.941,4.46c-8.596,0.291 -15.518,7.13 -15.518,15.772l0,101.966c0,8.644 6.922,15.482 15.518,15.773l0,0.02l244.074,0.025l0,-0.021c8.643,-0.297 15.025,-7.254 15.025,-15.831l0,-101.966c0,-8.642 -6.92,-15.482 -15.516,-15.772l0,-0.02l-243.583,0.033l0,0.021Zm243.583,-4.46c11.011,0.296 19.94,9.137 19.94,20.198l0,101.966c0,10.998 -8.389,19.957 -19.449,20.258l0,-0.004l-244.074,-0.024l0,0.003c-11.009,-0.295 -19.941,-9.135 -19.941,-20.199l0,-101.966c0,-11.064 8.932,-19.902 19.941,-20.198l0,0.003l243.583,-0.034l0,-0.003Z"/><path d="M82.421,29.791l18.083,0.367c2.293,0.047 4.131,1.962 4.084,4.253l-0.215,10.564c-0.046,2.293 -1.96,4.13 -4.254,4.084l-24.449,-0.497c-3.758,-0.077 -4.759,-4.52 -3.144,-6.835l7.189,-10.306c0.661,-0.948 1.418,-1.657 2.706,-1.63m99.904,36.446c7.253,0.148 13.015,6.149 12.867,13.403c-0.147,7.254 -6.148,13.016 -13.401,12.869c-7.255,-0.148 -13.017,-6.149 -12.869,-13.403c0.147,-7.254 6.148,-13.016 13.403,-12.869m-0.131,6.419c3.71,0.075 6.656,3.144 6.581,6.854c-0.076,3.711 -3.144,6.658 -6.854,6.582c-3.71,-0.075 -6.657,-3.144 -6.581,-6.855c0.075,-3.71 3.144,-6.657 6.854,-6.581m-89.264,-8.236c7.254,0.148 13.015,6.149 12.867,13.403c-0.147,7.254 -6.147,13.016 -13.401,12.869c-7.255,-0.148 -13.016,-6.149 -12.868,-13.403c0.147,-7.254 6.147,-13.016 13.402,-12.869m-0.131,6.418c3.711,0.076 6.658,3.145 6.583,6.855c-0.076,3.711 -3.145,6.658 -6.856,6.582c-3.71,-0.075 -6.657,-3.145 -6.582,-6.855c0.076,-3.71 3.145,-6.657 6.855,-6.582m92.859,-6.062l26.799,0.545l-0.291,14.337l-15.076,-0.307c-0.007,-7.024 -4.853,-12.959 -11.432,-14.575m-74.243,-1.509l67.638,1.375c-6.639,1.347 -11.722,7.081 -12.014,14.099l-59.344,-1.207c-0.008,-8.153 -6.535,-14.841 -14.727,-15.007c-8.192,-0.167 -14.985,6.25 -15.324,14.396l-7.699,-0.156c-4.169,-0.085 -7.51,-3.564 -7.425,-7.733l0.137,-6.758l0.225,-11.089l0.051,-2.508c0.199,-1.298 0.719,-2.498 1.586,-3.59l11.912,-16.55c1.328,-1.846 2.809,-3.24 5.349,-3.189l22.056,0.449c4.585,0.093 8.261,3.922 8.168,8.508l-0.589,28.96Zm3.435,-3.118l97.736,1.986l0.82,-40.351c0.08,-3.959 -3.093,-7.266 -7.054,-7.346l-83.335,-1.694c-3.961,-0.08 -7.266,3.094 -7.347,7.053l-0.82,40.352Z"/><path d="M84.517,125.103l0,-24.868l5.414,0l0,10.125c0.734,-0.078 1.297,-0.32 1.687,-0.726c0.391,-0.406 0.875,-1.606 1.453,-3.598c0.579,-1.992 1.215,-3.488 1.911,-4.488c0.695,-1 1.925,-1.5 3.691,-1.5c0.5,0 1.203,0.062 2.109,0.187l0,4.266l-0.586,0c-0.859,0 -1.515,0.125 -1.968,0.375c-0.453,0.25 -0.875,1.078 -1.266,2.484c-0.391,1.407 -0.766,2.477 -1.125,3.211c-0.359,0.735 -0.953,1.321 -1.781,1.758c0.687,0.25 1.379,0.742 2.074,1.477c0.695,0.734 1.527,2.211 2.496,4.429l2.977,6.868l-5.766,0l-2.742,-7.196c-0.547,-1.453 -1.016,-2.386 -1.406,-2.8c-0.391,-0.414 -0.977,-0.622 -1.758,-0.622l0,10.618l-5.414,0Z" fill-rule="nonzero"/><path d="M104.275,100.212l5.039,0l0,3.656c0.687,-1.312 1.593,-2.343 2.718,-3.093c1.125,-0.75 2.336,-1.125 3.633,-1.125c2.328,0 4.332,1.109 6.012,3.328c1.68,2.218 2.519,5.367 2.519,9.445c0,4.281 -0.843,7.559 -2.531,9.832c-1.687,2.273 -3.695,3.41 -6.023,3.41c-1.078,0 -2.082,-0.262 -3.012,-0.785c-0.93,-0.523 -1.91,-1.473 -2.941,-2.848l0,12.539l-5.414,0l0,-34.359Zm5.343,12.023c0,2.813 0.457,4.883 1.371,6.211c0.915,1.329 2.02,1.993 3.317,1.993c1.234,0 2.273,-0.614 3.117,-1.84c0.844,-1.227 1.266,-3.231 1.266,-6.012c0,-2.641 -0.434,-4.59 -1.301,-5.848c-0.867,-1.257 -1.926,-1.886 -3.176,-1.886c-1.312,0 -2.406,0.613 -3.281,1.84c-0.875,1.226 -1.313,3.074 -1.313,5.542Z" fill-rule="nonzero"/><path d="M127.22,112.306c0,-2.438 0.484,-4.656 1.453,-6.656c0.969,-2 2.234,-3.5 3.797,-4.5c1.562,-1 3.32,-1.5 5.273,-1.5c3.282,0 5.86,1.285 7.735,3.855c1.875,2.57 2.812,5.574 2.812,9.012c0,2.562 -0.488,4.875 -1.465,6.937c-0.976,2.063 -2.257,3.614 -3.843,4.653c-1.586,1.039 -3.325,1.558 -5.215,1.558c-3.031,0 -5.547,-1.156 -7.547,-3.469c-2,-2.312 -3,-5.609 -3,-9.89Zm5.531,0.351c0,2.516 0.492,4.418 1.477,5.707c0.984,1.289 2.172,1.934 3.562,1.934c1.36,0 2.524,-0.648 3.492,-1.945c0.969,-1.297 1.454,-3.211 1.454,-5.743c0,-2.468 -0.493,-4.351 -1.477,-5.648c-0.984,-1.297 -2.164,-1.945 -3.539,-1.945c-1.359,0 -2.527,0.648 -3.504,1.945c-0.977,1.297 -1.465,3.195 -1.465,5.695Z" fill-rule="nonzero"/><path d="M152.673,125.103l0,-24.868l6.727,0l5.039,17.321l5.132,-17.321l6.68,0l0,24.868l-4.664,0l0,-16.36l-4.945,16.36l-4.617,0l-4.688,-16.36l0,16.36l-4.664,0Z" fill-rule="nonzero"/><path d="M193.501,117.181l5.367,1.101c-0.718,2.5 -1.836,4.356 -3.351,5.567c-1.516,1.211 -3.36,1.816 -5.531,1.816c-3.016,0 -5.344,-1.008 -6.985,-3.023c-1.937,-2.344 -2.906,-5.625 -2.906,-9.844c0,-4.156 0.976,-7.484 2.93,-9.984c1.656,-2.11 3.796,-3.164 6.421,-3.164c2.922,0 5.211,1.078 6.868,3.234c1.906,2.469 2.859,6.109 2.859,10.922l-0.023,0.75l-13.524,0c0.031,1.969 0.473,3.492 1.324,4.57c0.852,1.078 1.879,1.617 3.082,1.617c1.735,0 2.891,-1.187 3.469,-3.562Zm0.305,-6.656c-0.047,-1.938 -0.461,-3.395 -1.242,-4.372c-0.782,-0.976 -1.711,-1.464 -2.789,-1.464c-1.141,0 -2.102,0.507 -2.883,1.523c-0.797,1.031 -1.188,2.469 -1.172,4.313l8.086,0Z" fill-rule="nonzero"/></svg>