<svg clip-rule="evenodd" fill-rule="evenodd" stroke-linejoin="round" stroke-miterlimit="2" viewBox="0 0 284 143" xmlns="http://www.w3.org/2000/svg"><path d="m281.459 24.981c0-12.964-10.526-23.49-23.49-23.49h-232.55c-12.964 0-23.49 10.526-23.49 23.49v91.196c0 12.964 10.526 23.489 23.49 23.489h232.55c12.964 0 23.49-10.525 23.49-23.489z" fill="#fff"/><path d="m106.453 35.119h123.688v63.284h-50.008c-.946-11.456-10.541-20.46-22.242-20.46-11.7 0-21.296 9.004-22.241 20.46h-91.44v-8.361h62.243zm51.438 56.504c4.771 0 8.639 3.869 8.639 8.639 0 4.772-3.868 8.64-8.639 8.64s-8.638-3.868-8.638-8.64c0-4.77 3.867-8.639 8.638-8.639m0-9.59c10.068 0 18.23 8.162 18.23 18.229 0 10.068-8.162 18.23-18.23 18.23s-18.229-8.162-18.229-18.23c0-10.067 8.161-18.229 18.229-18.229m-137.95-77.573c-8.596.292-15.518 7.131-15.518 15.773v101.966c0 8.643 6.922 15.481 15.518 15.772v.021l244.075.024v-.021c8.642-.296 15.024-7.253 15.024-15.831v-101.965c0-8.643-6.92-15.482-15.516-15.773v-.02l-243.583.034v.02zm243.583-4.46c11.011.297 19.94 9.137 19.94 20.199v101.965c0 10.998-8.389 19.957-19.448 20.258v-.004l-244.075-.023v.003c-11.009-.296-19.941-9.136-19.941-20.199v-101.966c0-11.064 8.932-19.903 19.941-20.199v.003l243.583-.034v-.003z"/></svg>