<svg clip-rule="evenodd" fill-rule="evenodd" stroke-linejoin="round" stroke-miterlimit="2" viewBox="0 0 284 143" xmlns="http://www.w3.org/2000/svg"><path d="m281.459 24.981c0-12.964-10.526-23.49-23.49-23.49h-232.55c-12.964 0-23.49 10.526-23.49 23.49v91.196c0 12.964 10.526 23.489 23.49 23.489h232.55c12.964 0 23.49-10.525 23.49-23.489z" fill="#fff"/><path d="m68.931 48.852h23.577c2.99 0 5.436 2.447 5.436 5.435v13.773c0 2.99-2.446 5.435-5.436 5.435h-31.878c-4.9 0-6.322-5.765-4.278-8.824l9.096-13.622c.837-1.254 1.804-2.197 3.483-2.197m131.169 44.854c9.457 0 17.125 7.669 17.125 17.127 0 9.457-7.668 17.126-17.125 17.126-9.459 0-17.127-7.669-17.127-17.126 0-9.458 7.668-17.127 17.127-17.127m0 8.368c4.837 0 8.758 3.922 8.758 8.759 0 4.838-3.921 8.76-8.758 8.76-4.838 0-8.759-3.922-8.759-8.76 0-4.837 3.921-8.759 8.759-8.759m-116.555-8.368c9.458 0 17.125 7.668 17.125 17.127 0 9.457-7.667 17.126-17.125 17.126-9.459 0-17.126-7.669-17.126-17.126 0-9.459 7.667-17.127 17.126-17.127m0 8.368c4.838 0 8.76 3.922 8.76 8.759 0 4.838-3.922 8.76-8.76 8.76s-8.76-3.922-8.76-8.76c0-4.837 3.922-8.759 8.76-8.759m120.86-10.361h34.942v18.693h-19.656c-.195-9.154-6.668-16.761-15.286-18.693m-96.799 0h88.188c-8.617 1.932-15.09 9.539-15.285 18.693h-77.373c-.227-10.626-8.911-19.169-19.591-19.169-10.681 0-19.365 8.543-19.591 19.169h-10.038c-5.435 0-9.882-4.446-9.882-9.881v-26.54c.225-1.697.87-3.274 1.971-4.721l15.087-21.885c1.681-2.44 3.575-4.297 6.886-4.297h28.758c5.978 0 10.87 4.893 10.87 10.873zm4.394-4.155h127.43v-52.611c0-5.162-4.224-9.387-9.388-9.387h-108.654c-5.164 0-9.388 4.225-9.388 9.387zm-92.059-83.098c-8.596.291-15.518 7.13-15.518 15.772v101.966c0 8.644 6.922 15.482 15.518 15.773v.02l244.074.025v-.021c8.643-.297 15.025-7.254 15.025-15.831v-101.966c0-8.642-6.92-15.482-15.516-15.772v-.02l-243.583.033v.021zm243.583-4.46c11.011.296 19.94 9.137 19.94 20.198v101.966c0 10.998-8.389 19.957-19.449 20.258v-.004l-244.074-.024v.003c-11.009-.295-19.941-9.135-19.941-20.199v-101.966c0-11.064 8.932-19.902 19.941-20.198v.003l243.583-.034v-.003z"/></svg>