<svg clip-rule="evenodd" fill-rule="evenodd" stroke-linejoin="round" stroke-miterlimit="2" viewBox="0 0 284 143" xmlns="http://www.w3.org/2000/svg"><path d="m281.459 24.981c0-12.964-10.526-23.49-23.49-23.49h-232.55c-12.964 0-23.49 10.526-23.49 23.49v91.196c0 12.964 10.526 23.489 23.49 23.489h232.55c12.964 0 23.49-10.525 23.49-23.489z" fill="#fff"/><path d="m81.455 87.278c-10.162-2.753-20.633 3.253-23.387 13.416-2.753 10.162 3.254 20.633 13.416 23.387 10.162 2.753 20.634-3.253 23.387-13.416 2.753-10.162-3.253-20.633-13.416-23.387m-2.302 8.498c-5.469-1.481-11.105 1.751-12.587 7.22-1.481 5.469 1.751 11.104 7.221 12.586 5.468 1.482 11.104-1.75 12.585-7.219 1.482-5.47-1.75-11.105-7.219-12.587m155.798-29.907c-9.526-11.251-19.054-22.503-28.582-33.753-5.208-6.148-7.589-6.055-15.459-6.033-16.344.052-32.69.105-49.033.157-4.275.013-7.149.55-10.454 3.876-10.164 10.234-19.279 22.036-29.444 32.27-15.293 2.166-29.826 4.335-45.117 6.498-5.719.81-10.46 4.255-10.399 8.544l.252 15.887c.949 5.464 2.444 7.41 7.972 8.811l.262.07c.12-.739.278-1.48.478-2.218 3.134-11.568 15.175-18.475 26.743-15.341 10.077 2.73 16.615 12.217 16.063 22.263h78.058l1.897-.102c-.114-2.252.118-4.558.74-6.852 3.166-11.688 15.208-18.595 26.895-15.429 9.282 2.516 15.549 10.63 16.149 19.718 7.064-2.787 9.687-2.034 11.397-10.521l3.58-17.759c1.097-5.444 1.612-5.824-1.998-10.086m-39.297-32.581-54.89.032c-3.32 0-6.06 2.565-8.232 5.075l-14.697 16.984c-2.173 2.512-.247 8.881 5.399 8.946l75.828.07c3.32.003 7.519-4.575 7.086-7.869l-2.297-17.479c-.495-3.285-4.876-5.777-8.197-5.759m7.118 62.488c-5.468-1.481-11.104 1.751-12.586 7.22-1.481 5.469 1.751 11.104 7.22 12.586s11.105-1.751 12.586-7.22c1.483-5.469-1.751-11.105-7.22-12.586m2.303-8.498c-10.162-2.753-20.633 3.253-23.387 13.416-2.754 10.162 3.253 20.633 13.415 23.387 10.163 2.753 20.634-3.253 23.388-13.416 2.753-10.162-3.254-20.633-13.416-23.387m-185.134-82.818c-8.596.291-15.518 7.13-15.518 15.772v101.966c0 8.643 6.922 15.481 15.518 15.772v.021l244.075.024v-.02c8.642-.297 15.024-7.254 15.024-15.831v-101.966c0-8.642-6.92-15.482-15.516-15.773v-.02l-243.583.034v.021zm243.583-4.46c11.011.296 19.94 9.136 19.94 20.198v101.966c0 10.998-8.389 19.957-19.448 20.258v-.004l-244.075-.024v.003c-11.008-.296-19.941-9.136-19.941-20.199v-101.966c0-11.064 8.933-19.903 19.941-20.199v.004l243.583-.034v-.003z"/></svg>