<svg clip-rule="evenodd" fill-rule="evenodd" stroke-linejoin="round" stroke-miterlimit="2" viewBox="0 0 284 143" xmlns="http://www.w3.org/2000/svg"><path d="m281.459 24.981c0-12.964-10.526-23.49-23.49-23.49h-232.55c-12.964 0-23.49 10.526-23.49 23.49v91.196c0 12.964 10.526 23.489 23.49 23.489h232.55c12.964 0 23.49-10.525 23.49-23.489z" fill="#fff"/><path d="m190.293 74.233 4.172 10.308c-5.307 5.755-1.254 15.206 6.665 15.206 5.005 0 9.063-4.059 9.063-9.064 0-4.766-3.678-8.673-8.351-9.036l-4.192-10.354c12.059-2.149 23.176 7.098 23.176 19.39 0 10.878-8.819 19.697-19.696 19.697-19.514 0-27.028-25.459-10.837-36.147m-97.115.004-4.14 10.344c5.252 5.765 1.192 15.166-6.703 15.166-5.005 0-9.063-4.059-9.063-9.064 0-4.859 3.823-8.825 8.625-9.054l4.123-10.298c-12.117-2.293-23.382 6.973-23.382 19.352 0 10.878 8.819 19.697 19.697 19.697 19.508 0 27.028-25.45 10.843-36.143m-10.843-13.1c2.553 0 5.029.323 7.392.931l8.664-21.647c-5.808 0-4.969.792-4.969-12.787 0-3.902 2.602-3.022 7.241-3.022h17.352c4.601 0 4.601 7.354 0 7.354l-6.205.03c-.717.075-4.464 6.023-5.17 6.965h31.331c9.167 0 9.167 14.274 0 14.274h-17.95c-5.741 0-4.483 3.852-3.646 6.925h.008l3.579 13.169c.563 2.049 1.894 3.864 4.022 3.864h11.002c2.136 0 2.99-1.972 3.972-3.868l6.81-13.165h30.429c2.171 0 3.29 2.689 1.601 4.23-10.17 9.27-14.01 24.49-9.526 37.799h-41.616c-5.219 0-8.119-4.457-9.494-9.494l-12.719-46.604-7.554 18.875c8.952 5.077 14.992 14.69 14.992 25.717 0 16.319-13.227 29.546-29.546 29.546-16.317 0-29.545-13.227-29.545-29.546 0-16.318 13.228-29.546 29.545-29.546m100.82-4.537 3.393 8.382c-8.936 5.08-14.965 14.687-14.965 25.701 0 16.319 13.229 29.546 29.547 29.546 16.317 0 29.545-13.227 29.545-29.546 0-19.336-18.217-33.323-36.773-28.655l-2.197-5.428h14.311v-3.994c0-5.222-4.274-9.496-9.495-9.496h-38.447c-1.424 0-3.029 1.298-3.625 2.59l-5.032 10.9zm80.369-56.6c11.011.296 19.94 9.136 19.94 20.198v101.966c0 10.998-8.389 19.957-19.448 20.257v-.003l-244.075-.024v.003c-11.008-.296-19.941-9.136-19.941-20.199v-101.966c0-11.064 8.933-19.903 19.941-20.199v.004l243.583-.034v-.003zm-243.583 4.46c-8.596.291-15.518 7.13-15.518 15.772v101.966c0 8.643 6.922 15.481 15.518 15.772v.021l244.075.024v-.02c8.642-.297 15.024-7.254 15.024-15.831v-101.966c0-8.642-6.92-15.482-15.516-15.773v-.02l-243.583.034v.021z"/></svg>