<svg clip-rule="evenodd" fill-rule="evenodd" stroke-linejoin="round" stroke-miterlimit="2" viewBox="0 0 284 143" xmlns="http://www.w3.org/2000/svg"><path d="m281.459 24.981c0-12.964-10.526-23.49-23.49-23.49h-232.55c-12.964 0-23.49 10.526-23.49 23.49v91.196c0 12.964 10.526 23.489 23.49 23.489h232.55c12.964 0 23.49-10.525 23.49-23.489z" fill="#fff"/><path d="m19.941 4.46c-8.597.292-15.518 7.13-15.518 15.772v101.966c0 8.644 6.921 15.482 15.518 15.773v.02l244.074.025v-.021c8.643-.297 15.025-7.254 15.025-15.831v-101.966c0-8.642-6.92-15.482-15.516-15.772v-.02l-243.583.033v.021zm243.583-4.46c11.011.296 19.939 9.137 19.939 20.198v101.966c0 10.998-8.388 19.957-19.448 20.258v-.004l-244.074-.023v.003c-11.009-.296-19.941-9.136-19.941-20.2v-101.966c0-11.064 8.932-19.902 19.941-20.198v.003l243.583-.034v-.003z"/><path d="m141.731 17.559c4.934 0 9.711.669 14.25 1.917l-5.775 37.056 29.195-23.52c6.782 6.688 11.791 15.167 14.261 24.67l-34.981 13.529 34.981 13.53c-2.47 9.503-7.48 17.982-14.261 24.67l-29.195-23.521 5.775 37.057c-4.539 1.247-9.316 1.917-14.25 1.917s-9.711-.67-14.249-1.917l5.774-37.057-29.195 23.521c-6.782-6.688-11.791-15.166-14.261-24.67l34.982-13.53-34.983-13.529c2.471-9.504 7.48-17.983 14.262-24.67l29.195 23.52-5.774-37.056c4.538-1.248 9.315-1.917 14.249-1.917" fill="#d72717"/></svg>