<svg clip-rule="evenodd" fill-rule="evenodd" stroke-linejoin="round" stroke-miterlimit="2" viewBox="0 0 284 143" xmlns="http://www.w3.org/2000/svg"><path d="m281.459 24.981c0-12.964-10.526-23.49-23.49-23.49h-232.55c-12.964 0-23.49 10.526-23.49 23.49v91.196c0 12.964 10.526 23.489 23.49 23.489h232.55c12.964 0 23.49-10.525 23.49-23.489z" fill="#fff"/><path d="m179.51 53.722 2.056-7.742h25.954v7.742c-5.83 7.749-11.505 23.011-13.714 35.182h-8.994c2.86-12.154 8.475-24.886 14.286-35.182zm-137.238 3.45c0 1.622-.532 2.967-1.586 4.045-1.066 1.068-2.566 1.817-4.525 2.237-1.96-.42-3.461-1.169-4.525-2.237-2.857-2.893-2.217-9.432 4.525-9.432 3.378 0 6.111 1.781 6.111 5.387m-6.107 13.559c8.032 1.728 7.525 9.771 2.38 11.32-9.027 2.716-12.502-9.144-2.38-11.32m-.004-25.485c14.547 0 17.71 16.452 7.299 21.274v.132c10.868 3.934 9.395 22.862-7.299 22.862s-18.164-18.932-7.296-22.862v-.132c-10.381-4.808-7.282-21.274 7.296-21.274m88.532 21.837h29.981v8.174h-29.981zm79.871 12.336c2.619 0 4.742 2.124 4.742 4.743 0 2.618-2.123 4.741-4.742 4.741-2.618 0-4.741-2.123-4.741-4.741 0-2.619 2.123-4.743 4.741-4.743m-146.734 0c2.619 0 4.742 2.124 4.742 4.743 0 2.618-2.123 4.741-4.742 4.741s-4.742-2.123-4.742-4.741c0-2.619 2.123-4.743 4.742-4.743m21.607 4.019c-2.96.03-4.459-3.156-5.072-5.875-.809-3.578-1.296-15.353 3.543-16.858 2.641-.821 4.76.343 5.878 2.925 1.966 4.541 2.351 19.882-4.349 19.808m-.004 6.076c6.238.004 9.806-5.326 11.074-11.108 1.615-7.363.647-20.111-7.497-23.333-5.193-2.055-10.254.538-12.898 5.533-4.584 8.657-3.135 28.903 9.321 28.908m27.445-6.076c-2.96.03-4.459-3.156-5.072-5.875-.809-3.578-1.296-15.353 3.543-16.858 2.641-.821 4.76.343 5.878 2.925 1.966 4.541 2.351 19.882-4.349 19.808m-.004 6.076c6.238.004 9.806-5.326 11.074-11.108 1.614-7.363.647-20.111-7.498-23.333-5.192-2.055-10.254.538-12.898 5.533-4.584 8.657-3.134 28.903 9.322 28.908m65.346-43.532-.189 42.921h-7.85l-.01-32.488-5.673 3.455-2.99-3.836 9.367-10.053zm79.845 37.456c-2.96.03-4.458-3.156-5.072-5.875-.808-3.578-1.295-15.353 3.543-16.858 2.641-.821 4.76.343 5.878 2.925 1.966 4.541 2.352 19.882-4.349 19.808m-.003 6.076c6.238.004 9.805-5.326 11.073-11.108 1.615-7.363.647-20.111-7.497-23.333-5.193-2.055-10.254.538-12.899 5.533-4.583 8.657-3.133 28.903 9.323 28.908m-37.255-1.293-.582-6.725c3.522 2.709 15.178 4.339 15.562-2.551.197-3.501-2.451-4.93-5.599-4.93-1.007 0-2.085.086-3.137.45v-5.68c4.689-.56 7.162-2.733 7.298-5.66.067-1.478-.983-3.253-3.635-3.347-2.269-.079-5.697 1.485-7.702 3.112l-2.081-5.844c2.439-1.654 7.232-2.664 10.371-2.682 5.085 0 9.769 2.661 9.769 8.271.009 3.199-2.399 5.895-6.011 7.656v.097c4.654.711 7.651 4.787 7.651 9.386-.004 7.306-6.972 9.741-12.552 9.741-3.356 0-7.354-.085-9.352-1.294m-194.865-83.761c-8.597.291-15.518 7.13-15.518 15.772v101.966c0 8.644 6.921 15.482 15.518 15.773v.02l244.074.024v-.02c8.642-.297 15.024-7.254 15.024-15.831v-101.966c0-8.642-6.92-15.482-15.515-15.772v-.02l-243.583.033v.021zm243.583-4.46c11.01.296 19.939 9.137 19.939 20.198v101.966c0 10.998-8.389 19.957-19.448 20.258v-.004l-244.074-.024v.003c-11.009-.296-19.942-9.135-19.942-20.199v-101.966c0-11.064 8.933-19.903 19.942-20.198v.003l243.583-.034v-.003z"/></svg>