<svg clip-rule="evenodd" fill-rule="evenodd" stroke-linejoin="round" stroke-miterlimit="2" viewBox="0 0 284 143" xmlns="http://www.w3.org/2000/svg"><path d="m281.459 24.981c0-12.964-10.526-23.49-23.49-23.49h-232.55c-12.964 0-23.49 10.526-23.49 23.49v91.196c0 12.964 10.526 23.489 23.49 23.489h232.55c12.964 0 23.49-10.525 23.49-23.489z" fill="#fff"/><path d="m176.625 50.159-24.918 24.918 37.616 37.617-9.908 9.908-37.617-37.616-37.616 37.616-9.908-9.908 37.616-37.617-24.918-24.918-18.245 18.244-9.908-9.908 11.683-25.472 20.932-20.931 16.802 16.802-11.356 11.356 24.918 24.919 24.919-24.919-11.357-11.356 16.803-16.802 20.931 20.931 11.684 25.472-9.908 9.908zm-156.684-45.699c-8.596.292-15.518 7.131-15.518 15.773v101.966c0 8.643 6.922 15.481 15.518 15.772v.021l244.075.024v-.021c8.642-.296 15.024-7.253 15.024-15.831v-101.965c0-8.643-6.92-15.482-15.516-15.773v-.02l-243.583.034v.02zm243.583-4.46c11.011.297 19.94 9.137 19.94 20.199v101.965c0 10.998-8.389 19.957-19.448 20.258v-.004l-244.075-.023v.003c-11.008-.296-19.941-9.136-19.941-20.199v-101.966c0-11.064 8.933-19.903 19.941-20.199v.003l243.583-.034v-.003z"/></svg>