<svg clip-rule="evenodd" fill-rule="evenodd" stroke-linejoin="round" stroke-miterlimit="2" viewBox="0 0 284 143" xmlns="http://www.w3.org/2000/svg"><path d="m281.459 24.981c0-12.964-10.526-23.49-23.49-23.49h-232.55c-12.964 0-23.49 10.526-23.49 23.49v91.196c0 12.964 10.526 23.489 23.49 23.489h232.55c12.964 0 23.49-10.525 23.49-23.489z" fill="#fff"/><path d="m181.015 50.671h3.177c1.894 0 3.725-.729 3.725-2.358 0-1.632-1.938-2.351-3.715-2.351h-3.187zm-4.61-15.445h4.61v6.688h4.492c4.362 0 7.112 2.449 7.005 6.232-.11 3.782-3.057 6.574-7.005 6.574h-9.102zm-18.886 0h13.838v19.528h-4.153v-16.223h-5.572l-.273 8.339c-.151 4.589-2.87 7.605-7.839 8.44l-.774-3.62c4.024-.725 4.305-2.933 4.467-5.315zm-104.008 9.746c0 2.051.432 3.619 1.303 4.708.864 1.088 1.936 1.632 3.209 1.632 1.274 0 2.341-.544 3.199-1.632.865-1.089 1.297-2.67 1.297-4.747 0-2.018-.432-3.578-1.297-4.666-.858-1.089-1.925-1.634-3.199-1.634-1.273 0-2.345.545-3.209 1.634-.871 1.088-1.303 2.662-1.303 4.705m-4.685-.281c0-1.751.389-3.452 1.156-5.093.773-1.637 1.866-2.894 3.28-3.753 1.413-.866 2.993-1.303 4.739-1.303 2.69 0 4.899.981 6.621 2.944 1.724 1.963 2.582 4.439 2.582 7.435 0 3.015-.87 5.518-2.604 7.506-1.74 1.989-3.926 2.977-6.565 2.977-1.637 0-3.187-.41-4.67-1.238-1.482-.828-2.61-2.04-3.383-3.637-.767-1.598-1.156-3.542-1.156-5.838m78.546 10.098h-12.903v3.903h-4.143v-7.997h2.08c1.908-1.923 2.646-12.812 2.561-15.469h14.209v15.469h2.34v7.997h-4.144zm-2.919-4.094.018-11.576h-5.235c-.195 5.119-1.008 9.708-2.431 11.576zm-49.199-4.254h7.051v8.279h4.748v-19.494h-4.748v7.229h-7.051v-7.229h-4.748v19.494h4.748zm-46.289-11.215h16.197v19.494h-4.597v-15.496h-7.003v15.496h-4.597zm187.808 0h4.563v11.941l7.799-11.941h4.563v19.494h-4.563v-11.712l-7.799 11.712h-4.563zm21.507-.138h4.827v6.961c3.863-.534 5.245-7.166 10.72-7.414l.875 4.056c-3.049-.079-4.479 4.507-6.9 5.131 4.297.49 4.23 5.11 8.859 10.898h-5.516c-5.093-8.195-3.916-8.719-8.038-8.719v8.719h-4.827zm-133.066 13.664 3.618 2.309c-1.463 2.611-5.11 4.362-8.466 4.342-5.591-.033-9.522-4.19-9.522-10.276 0-5.608 3.604-10.585 9.004-10.585 6 0 10.248 5.588 8.894 11.738h-12.859c.037 1.566.742 3.002 1.543 3.87 2.19 2.375 6.558 1.065 7.788-1.398m-1.189-5.824c-.058-2.387-1.337-4.467-3.998-4.467-2.837 0-4.163 1.758-4.139 4.467zm43.43 5.824 3.619 2.309c-1.463 2.611-5.111 4.362-8.467 4.342-5.591-.033-9.523-4.19-9.523-10.276 0-5.608 3.605-10.585 9.005-10.585 5.999 0 10.247 5.588 8.893 11.738h-12.859c.038 1.566.743 3.002 1.543 3.87 2.19 2.375 6.559 1.065 7.789-1.398m-1.189-5.824c-.059-2.387-1.336-4.467-3.998-4.467-2.837 0-4.164 1.758-4.139 4.467zm53.951 3.513h7.051v8.279h4.748v-19.494h-4.748v7.229h-7.051v-7.229h-4.747v19.494h4.747zm-4.264 59.717-.482-5.59c2.927 2.251 12.615 3.607 12.936-2.12.163-2.911-2.038-4.098-4.655-4.098-.838 0-1.734.072-2.608.374v-4.722c3.898-.466 5.954-2.271 6.066-4.705.057-1.229-.816-2.703-3.02-2.781-1.887-.067-4.737 1.234-6.404 2.587l-1.73-4.858c2.029-1.376 6.014-2.215 8.622-2.23 4.227 0 8.119 2.213 8.119 6.875.009 2.659-1.992 4.9-4.995 6.364v.08c3.868.592 6.36 3.98 6.36 7.803-.003 6.073-5.795 8.097-10.434 8.097-2.79 0-6.113-.07-7.775-1.076m30.638-3.976c-2.461.025-3.706-2.622-4.216-4.882-.672-2.976-1.077-12.764 2.945-14.014 2.196-.682 3.958.285 4.886 2.431 1.635 3.774 1.955 16.526-3.615 16.465m-.003 5.052c5.186.002 8.151-4.428 9.205-9.234 1.343-6.12.538-16.718-6.232-19.396-4.317-1.708-8.524.448-10.721 4.6-3.81 7.196-2.606 24.025 7.748 24.03m-39.032-8.653c2.25 0 4.073 1.823 4.073 4.073 0 2.248-1.823 4.072-4.073 4.072-2.249 0-4.072-1.824-4.072-4.072 0-2.25 1.823-4.073 4.072-4.073m-101.522 7.577-.483-5.59c2.927 2.251 12.615 3.607 12.935-2.12.163-2.911-2.037-4.098-4.654-4.098-.838 0-1.734.072-2.608.374v-4.722c3.898-.466 5.954-2.271 6.066-4.705.057-1.229-.816-2.703-3.021-2.781-1.886-.067-4.736 1.234-6.402 2.587l-1.731-4.858c2.029-1.376 6.013-2.215 8.622-2.23 4.227 0 8.12 2.213 8.12 6.875.009 2.659-1.993 4.9-4.996 6.364v.08c3.868.592 6.36 3.98 6.36 7.803-.003 6.073-5.796 8.097-10.434 8.097-2.79 0-6.114-.07-7.774-1.076m77.87-23.47c0 1.753.037 3.07.865 4.107.83 1.037 2.319 1.579 3.746 1.579 1.256 0 2.446-.404 3.587-1.198 1.033-.718 2.214-1.494 2.751-2.531-.075-1.962-.568-3.684-1.485-5.162-1.1-1.729-2.528-2.589-4.298-2.589-1.279 0-2.407.554-3.37 1.672-.964 1.118-1.796 2.473-1.796 4.122m-2.642-8.589c2.232-2.192 4.52-3.663 7.486-3.663 4.631 0 8.059 2.602 10.341 6.939 1.736 3.296 2.625 6.889 2.625 11.644 0 5.256-1.845 9.649-4.165 13.42-3.322 5.404-11.639 5.752-17.371 3.448l-1.541-6.895c3.579 1.378 10.031 3.843 13.453.205 2.269-2.411 2.499-4.597 2.499-8.21-3.629 3.7-10.535 4.427-14.429.485-4.373-4.428-3.287-13.064 1.102-17.373m-96.702 6.251c0 1.347-.441 2.466-1.318 3.361-.886.889-2.133 1.511-3.762 1.86-1.629-.349-2.877-.971-3.761-1.86-2.375-2.404-1.843-7.84 3.761-7.84 2.808 0 5.08 1.481 5.08 4.479m-5.077 11.27c6.677 1.436 6.256 8.122 1.978 9.409-7.503 2.259-10.391-7.6-1.978-9.409m-.003-21.184c12.092 0 14.722 13.674 6.067 17.683v.11c9.035 3.27 7.81 19.005-6.067 19.005s-15.098-15.738-6.065-19.005v-.11c-8.628-3.996-6.053-17.683 6.065-17.683m70.599 17.993h24.609v7.113h-24.609zm-52.484 10.152c2.25 0 4.073 1.823 4.073 4.073 0 2.248-1.823 4.072-4.073 4.072-2.248 0-4.072-1.824-4.072-4.072 0-2.25 1.824-4.073 4.072-4.073m39.076 3.601c-2.46.025-3.706-2.622-4.216-4.882-.672-2.976-1.077-12.764 2.945-14.014 2.196-.682 3.957.285 4.886 2.431 1.635 3.774 1.955 16.526-3.615 16.465m-.003 5.052c5.185.002 8.151-4.428 9.205-9.234 1.343-6.12.538-16.718-6.232-19.396-4.317-1.708-8.523.448-10.721 4.6-3.811 7.196-2.606 24.025 7.748 24.03m-96.726-102.774c-8.597.292-15.518 7.13-15.518 15.773v101.965c0 8.644 6.921 15.482 15.518 15.773v.02l244.074.025v-.021c8.643-.297 15.024-7.254 15.024-15.831v-101.966c0-8.642-6.92-15.482-15.515-15.772v-.02l-243.583.034v.02zm243.583-4.46c11.011.296 19.939 9.137 19.939 20.198v101.966c0 10.998-8.388 19.957-19.448 20.258v-.004l-244.074-.023v.003c-11.009-.296-19.942-9.136-19.942-20.2v-101.965c0-11.064 8.933-19.903 19.942-20.199v.003l243.583-.034v-.003z"/></svg>