<svg clip-rule="evenodd" fill-rule="evenodd" stroke-linejoin="round" stroke-miterlimit="2" viewBox="0 0 284 143" xmlns="http://www.w3.org/2000/svg"><path d="m281.459 24.981c0-12.964-10.526-23.49-23.49-23.49h-232.55c-12.964 0-23.49 10.526-23.49 23.49v91.196c0 12.964 10.526 23.489 23.49 23.489h232.55c12.964 0 23.49-10.525 23.49-23.489z" fill="#fff"/><path d="m177.247 94.348.018-11.577h-5.255c-.197 5.119-1.013 9.708-2.441 11.577zm2.93 4.093h-12.953v3.903h-4.16v-7.996h2.089c1.915-1.924 2.656-12.813 2.572-15.47h14.262v15.47h2.35v7.996h-4.16zm-23.822-11.862c-.058-2.386-1.341-4.466-4.013-4.466-2.849 0-4.179 1.758-4.155 4.466zm1.194 5.825 3.632 2.309c-1.468 2.611-5.13 4.362-8.499 4.342-5.612-.033-9.559-4.19-9.559-10.276 0-5.608 3.618-10.585 9.039-10.585 6.022 0 10.287 5.588 8.928 11.738h-12.909c.039 1.566.747 3.002 1.549 3.869 2.199 2.376 6.584 1.067 7.819-1.397m-77.381-5.685h17.458v5.182h-17.458zm168.34-34.775h17.458v5.181h-17.458zm-58.699 3.331h7.077v8.28h4.766v-19.494h-4.766v7.229h-7.077v-7.229h-4.766v19.494h4.766zm-54.159-3.512c-.059-2.387-1.341-4.467-4.014-4.467-2.847 0-4.179 1.759-4.154 4.467zm1.194 5.824 3.632 2.309c-1.469 2.611-5.13 4.363-8.5 4.342-5.611-.033-9.558-4.19-9.558-10.276 0-5.608 3.618-10.585 9.039-10.585 6.022 0 10.287 5.589 8.927 11.739h-12.908c.038 1.565.746 3.001 1.549 3.868 2.199 2.376 6.583 1.067 7.819-1.397m60.814 31.455c-2.329.799-6.982.603-6.911 3.579.085 3.559 5.185 2.826 6.928-.426zm-9.375-4.655-2.317-3.541c5.036-3.968 16.568-4.255 16.563 4.546l-.007 8.848c-.002.406.434.995.892.995h1.143l-1.606 3.563c-2.399.257-4.313-.474-5.116-2.386-1.421 1.835-3.441 2.655-5.392 2.643-3.172-.019-6.197-2.251-6.376-5.993-.33-6.899 8.893-7.231 11.591-7.453.186-5.602-7.379-3.561-9.375-1.222m-95.036-32.624c-.059-2.387-1.342-4.467-4.014-4.467-2.848 0-4.179 1.759-4.154 4.467zm1.194 5.824 3.632 2.309c-1.469 2.611-5.131 4.363-8.5 4.342-5.612-.033-9.558-4.19-9.558-10.276 0-5.608 3.618-10.585 9.039-10.585 6.022 0 10.287 5.589 8.927 11.739h-12.908c.038 1.565.746 3.001 1.549 3.868 2.198 2.376 6.583 1.067 7.819-1.397m32.768 48.449v-9.144c.576 0 1.114 1.679 4.416 1.735 5.589.094 9.165-4.954 9.236-10.166.073-5.315-2.887-10.382-9.077-10.264-1.583.029-3.34.493-4.575 1.992h-.069l-.785-1.515h-3.739v27.362zm0-19.426c.05-4.918 6.58-6.154 8.383-1.454 1.195 3.115.589 9.223-4.273 9.28-1.549.017-3.004-.856-3.687-2.299-.275-.572-.417-1.285-.423-2.14zm-7.901 5.893c-.633 3.781-4.495 6.481-8.635 6.551-6.176.104-9.331-4.568-9.331-10.248 0-3.357.881-5.964 2.641-7.824 1.76-1.855 4.073-2.848 6.943-2.785 4.388.097 7.13 2.266 8.259 6.295-1.306.348-2.613.697-3.92 1.045.018-.004-1.06-3.502-4.549-3.524-3.644-.021-4.786 3.249-4.795 6.745-.007 3.099.966 6.586 4.814 6.586 2.473 0 4.027-1.655 4.53-3.791zm108.709-48.58h4.846v6.961c3.878-.534 5.265-7.165 10.76-7.414l.879 4.056c-3.061-.079-4.495 4.508-6.926 5.132 4.314.489 4.246 5.109 8.893 10.897h-5.537c-5.113-8.195-3.931-8.719-8.069-8.719v8.719h-4.846zm-21.589.138h4.58v11.94l7.829-11.94h4.581v19.494h-4.581v-11.711l-7.829 11.711h-4.58zm-188.53 0h16.26v19.494h-4.615v-15.496h-7.03v15.496h-4.615zm46.467 11.214h7.078v8.28h4.766v-19.494h-4.766v7.229h-7.078v-7.229h-4.766v19.494h4.766zm49.388 4.256.018-11.577h-5.254c-.197 5.119-1.013 9.707-2.441 11.577zm2.931 4.093h-12.953v3.903h-4.16v-7.996h2.089c1.915-1.924 2.655-12.812 2.571-15.47h14.263v15.47h2.35v7.996h-4.16zm-78.848-10.098c0-1.752.39-3.451 1.16-5.094.776-1.636 1.873-2.893 3.292-3.752 1.419-.866 3.005-1.303 4.758-1.303 2.7 0 4.918.981 6.647 2.944 1.729 1.964 2.592 4.44 2.592 7.436 0 3.014-.874 5.516-2.615 7.506-1.747 1.988-3.941 2.977-6.59 2.977-1.644 0-3.2-.411-4.688-1.239-1.488-.827-2.62-2.04-3.396-3.637-.77-1.598-1.16-3.542-1.16-5.838m4.703.281c0 2.052.433 3.619 1.308 4.708.867 1.088 1.943 1.632 3.221 1.632 1.279 0 2.349-.544 3.211-1.632.868-1.089 1.302-2.67 1.302-4.747 0-2.018-.434-3.578-1.302-4.666-.862-1.088-1.932-1.633-3.211-1.633-1.278 0-2.354.545-3.221 1.633-.875 1.088-1.308 2.662-1.308 4.705m104.407-9.746h13.891v19.529h-4.168v-16.223h-5.594l-.275 8.338c-.151 4.589-2.881 7.605-7.868 8.44l-.777-3.62c4.039-.725 4.321-2.933 4.484-5.315zm18.958 0h4.629v6.688h4.509c4.378 0 7.141 2.449 7.032 6.232-.111 3.782-3.068 6.574-7.032 6.574h-9.138zm4.629 15.445h3.189c1.902 0 3.74-.728 3.74-2.358 0-1.632-1.946-2.35-3.732-2.35h-3.197zm-150.592-55.046c-8.596.292-15.518 7.131-15.518 15.773v101.966c0 8.643 6.922 15.481 15.518 15.772v.021l244.075.024v-.021c8.642-.296 15.024-7.253 15.024-15.831v-101.965c0-8.643-6.92-15.482-15.516-15.773v-.02l-243.583.034zm243.583-4.46c11.011.297 19.94 9.137 19.94 20.199v101.965c0 10.998-8.389 19.957-19.448 20.258v-.004l-244.075-.023v.003c-11.008-.296-19.941-9.136-19.941-20.199v-101.966c0-11.064 8.933-19.903 19.941-20.199v.003l243.583-.034v-.003z"/></svg>