<svg clip-rule="evenodd" fill-rule="evenodd" stroke-linejoin="round" stroke-miterlimit="2" viewBox="0 0 284 143" xmlns="http://www.w3.org/2000/svg"><path d="m281.459 24.981c0-12.964-10.526-23.49-23.49-23.49h-232.55c-12.964 0-23.49 10.526-23.49 23.49v91.196c0 12.964 10.526 23.489 23.49 23.489h232.55c12.964 0 23.49-10.525 23.49-23.489z" fill="#fff"/><path d="m159.309 36.879-12.576 12.576 18.984 18.984-5.001 5-18.984-18.984-18.983 18.984-5.001-5 18.984-18.984-12.575-12.576-9.208 9.207-5-5 5.896-12.855 10.563-10.563 8.48 8.479-5.731 5.732 12.575 12.575 12.576-12.575-5.731-5.732 8.48-8.479 10.564 10.563 5.896 12.855-5.001 5zm20.201 52.165 2.056-7.742h25.954v7.742c-5.83 7.75-11.505 23.01-13.714 35.181h-8.994c2.86-12.153 8.476-24.886 14.286-35.181zm-137.238 3.45c0 1.622-.531 2.968-1.586 4.045-1.065 1.068-2.566 1.816-4.525 2.237-1.959-.421-3.461-1.169-4.525-2.237-2.857-2.893-2.217-9.432 4.525-9.432 3.378 0 6.111 1.78 6.111 5.387m-6.107 13.559c8.032 1.727 7.525 9.771 2.38 11.32-9.027 2.716-12.502-9.144-2.38-11.32m-.003-25.485c14.546 0 17.709 16.451 7.298 21.273v.132c10.869 3.935 9.395 22.864-7.298 22.864-16.695 0-18.165-18.933-7.296-22.864v-.132c-10.382-4.807-7.283-21.273 7.296-21.273m88.531 21.838h29.981v8.173h-29.981zm79.871 12.335c2.619 0 4.742 2.123 4.742 4.742s-2.123 4.742-4.742 4.742c-2.618 0-4.741-2.123-4.741-4.742s2.123-4.742 4.741-4.742m-146.734 0c2.619 0 4.742 2.123 4.742 4.742s-2.123 4.742-4.742 4.742-4.742-2.123-4.742-4.742 2.123-4.742 4.742-4.742m21.607 4.018c-2.96.031-4.459-3.155-5.072-5.874-.808-3.578-1.296-15.353 3.543-16.858 2.641-.821 4.76.343 5.878 2.925 1.966 4.541 2.352 19.882-4.349 19.807m-.003 6.078c6.237.003 9.805-5.327 11.073-11.109 1.615-7.362.647-20.111-7.497-23.334-5.193-2.054-10.254.539-12.898 5.534-4.584 8.657-3.135 28.902 9.322 28.909m27.444-6.078c-2.96.031-4.459-3.155-5.072-5.874-.809-3.578-1.296-15.353 3.543-16.858 2.641-.821 4.76.343 5.878 2.925 1.966 4.541 2.352 19.882-4.349 19.807m-.004 6.078c6.238.003 9.806-5.327 11.074-11.109 1.614-7.362.647-20.111-7.497-23.334-5.193-2.054-10.255.539-12.898 5.534-4.584 8.657-3.135 28.902 9.321 28.909m65.346-43.533-.189 42.921-7.85-.001-.01-32.487-5.673 3.455-2.99-3.837 9.367-10.053zm79.845 37.455c-2.96.031-4.458-3.155-5.071-5.874-.809-3.578-1.296-15.353 3.543-16.858 2.64-.821 4.759.343 5.877 2.925 1.966 4.541 2.352 19.882-4.349 19.807m-.003 6.078c6.238.003 9.806-5.327 11.073-11.109 1.615-7.362.648-20.111-7.497-23.334-5.193-2.054-10.254.539-12.898 5.534-4.583 8.657-3.134 28.902 9.322 28.909m-37.255-1.294-.582-6.725c3.522 2.709 15.178 4.339 15.563-2.551.196-3.501-2.452-4.93-5.6-4.93-1.007 0-2.085.086-3.137.45v-5.68c4.69-.56 7.162-2.733 7.298-5.66.067-1.479-.982-3.253-3.635-3.347-2.269-.08-5.697 1.485-7.702 3.112l-2.081-5.844c2.44-1.655 7.232-2.664 10.371-2.683 5.085 0 9.769 2.661 9.769 8.272.009 3.199-2.399 5.895-6.011 7.656v.097c4.654.711 7.651 4.787 7.651 9.386-.004 7.306-6.971 9.741-12.551 9.741-3.357 0-7.355-.084-9.353-1.294m-194.865-119.083c-8.597.291-15.518 7.13-15.518 15.772v101.966c0 8.643 6.921 15.481 15.518 15.772v.021l244.074.024v-.02c8.643-.297 15.024-7.254 15.024-15.831v-101.966c0-8.642-6.919-15.482-15.515-15.773v-.02l-243.583.034v.021zm243.583-4.46c11.011.296 19.939 9.136 19.939 20.198v101.966c0 10.998-8.388 19.957-19.448 20.257v-.003l-244.074-.024v.003c-11.009-.296-19.942-9.136-19.942-20.199v-101.966c0-11.064 8.933-19.903 19.942-20.199v.004l243.583-.034v-.003z"/></svg>