<svg clip-rule="evenodd" fill-rule="evenodd" stroke-linejoin="round" stroke-miterlimit="2" viewBox="0 0 284 143" xmlns="http://www.w3.org/2000/svg"><path d="m281.459 24.981c0-12.964-10.526-23.49-23.49-23.49h-232.55c-12.964 0-23.49 10.526-23.49 23.49v91.196c0 12.964 10.526 23.489 23.49 23.489h232.55c12.964 0 23.49-10.525 23.49-23.489z" fill="#fff"/><path d="m60.88 89.783c7.726-2.094 15.686 2.473 17.779 10.199 2.094 7.726-2.473 15.686-10.199 17.779-7.725 2.093-15.685-2.473-17.779-10.199-2.093-7.725 2.473-15.686 10.199-17.779m1.751 6.461c4.157-1.127 8.442 1.33 9.568 5.488 1.127 4.157-1.331 8.442-5.489 9.569-4.158 1.126-8.442-1.331-9.568-5.49-1.127-4.157 1.331-8.441 5.489-9.567m5.411-47.506 41.729.024c2.524.001 4.607 1.951 6.258 3.859l11.173 12.912c1.652 1.909.188 6.751-4.105 6.8l-57.646.054c-2.523.002-5.715-3.479-5.386-5.983l1.746-13.288c.375-2.497 3.707-4.391 6.231-4.378m-29.874 24.77c7.242-8.553 14.485-17.108 21.728-25.66 3.96-4.674 5.77-4.604 11.753-4.587 12.424.04 24.852.08 37.276.12 3.25.009 5.434.417 7.947 2.946 7.727 7.78 14.656 16.752 22.384 24.533 11.626 1.647 22.675 3.295 34.299 4.94 4.347.615 7.952 3.234 7.905 6.496l-.19 12.077c-.722 4.153-1.859 5.633-6.062 6.697l-.198.054c-.092-.563-.212-1.125-.364-1.686-2.383-8.795-11.537-14.046-20.331-11.663-7.661 2.075-12.631 9.288-12.211 16.925h-59.341l-1.444-.078c.088-1.712-.088-3.465-.561-5.209-2.407-8.885-11.562-14.136-20.446-11.729-7.057 1.912-11.821 8.081-12.277 14.991-5.371-2.12-7.365-1.547-8.665-8l-2.721-13.5c-.833-4.138-1.226-4.428 1.519-7.667m118.441 22.736c4.158-1.127 8.442 1.331 9.568 5.488 1.127 4.157-1.331 8.443-5.488 9.569-4.158 1.126-8.443-1.331-9.568-5.49-1.127-4.157 1.33-8.441 5.488-9.567m-1.75-6.461c7.725-2.094 15.686 2.473 17.779 10.199 2.094 7.726-2.473 15.686-10.198 17.779-7.727 2.093-15.687-2.473-17.78-10.199-2.093-7.725 2.473-15.686 10.199-17.779m124.181 16.08h-102.766v13.137h-171.851v-98.768c0-8.642 6.922-15.481 15.519-15.772v-.021l243.583-.033v.02c8.595.29 15.515 7.13 15.515 15.772zm-15.515-105.863c11.01.296 19.939 9.137 19.939 20.198v101.966c0 10.998-8.389 19.957-19.448 20.258v-.004l-244.074-.024v.003c-11.009-.296-19.942-9.135-19.942-20.199v-101.966c0-11.064 8.933-19.903 19.942-20.199v.004l243.583-.034v-.003z"/></svg>