<svg clip-rule="evenodd" fill-rule="evenodd" stroke-linejoin="round" stroke-miterlimit="2" viewBox="0 0 284 143" xmlns="http://www.w3.org/2000/svg"><path d="m281.459 24.981c0-12.964-10.526-23.49-23.49-23.49h-232.55c-12.964 0-23.49 10.526-23.49 23.49v91.196c0 12.964 10.526 23.489 23.49 23.489h232.55c12.964 0 23.49-10.525 23.49-23.489z" fill="#fff"/><path d="m168.733 50.428c3.166-.676 6.311 1.362 6.986 4.529l4.325 20.267c.675 3.167-1.364 6.312-4.53 6.987l-76.841 16.395c-3.167.676-6.31-1.363-6.986-4.53l-4.324-20.268c-.675-3.166 1.363-6.31 4.529-6.985l2.579-24.679c.299-2.855 1.208-5.595 4.016-6.195l51.625-11.014c2.808-.599 4.757 1.532 6.195 4.016zm-66.317-9.814 46.013-9.818c2.297-.49 3.892 1.254 5.068 3.286l10.168 17.572-66.645 14.219 1.799-20.125c.209-2.34 1.299-4.644 3.597-5.134m76.197 53.95-2.323-10.889-15.961 3.405 2.323 10.89c.94 4.408 5.275 7.218 9.683 6.278 4.408-.942 7.218-5.276 6.278-9.684m-61.68 13.16c.941 4.408-1.87 8.743-6.278 9.683-4.407.94-8.742-1.87-9.683-6.277l-2.323-10.89 15.961-3.406zm162.107-1.861h-137.943v13.137h-136.674v-98.768c0-8.642 6.921-15.481 15.518-15.772v-.021l243.583-.033v.02c8.596.29 15.516 7.13 15.516 15.772zm-15.516-105.863c11.011.296 19.939 9.136 19.939 20.198v101.966c0 10.998-8.388 19.957-19.448 20.258v-.004l-244.074-.024v.003c-11.009-.296-19.941-9.136-19.941-20.199v-101.966c0-11.064 8.932-19.903 19.941-20.199v.004l243.583-.034v-.003z"/></svg>