<svg clip-rule="evenodd" fill-rule="evenodd" stroke-linejoin="round" stroke-miterlimit="2" viewBox="0 0 284 143" xmlns="http://www.w3.org/2000/svg"><path d="m281.459 24.981c0-12.964-10.526-23.49-23.49-23.49h-232.55c-12.964 0-23.49 10.526-23.49 23.49v91.196c0 12.964 10.526 23.489 23.49 23.489h232.55c12.964 0 23.49-10.525 23.49-23.489z" fill="#fff"/><path d="m234.658 50.971c3.237 0 5.887 2.649 5.887 5.887v20.725c0 3.237-2.65 5.887-5.887 5.887h-78.57c-3.239 0-5.888-2.65-5.888-5.887v-20.725c0-3.238 2.649-5.887 5.888-5.887l7.671-23.597c.887-2.73 2.349-5.22 5.22-5.22h52.787c2.871 0 4.332 2.49 5.22 5.22zm-62.81-23.436h47.049c2.349 0 3.545 2.039 4.271 4.271l6.277 19.307h-68.144l5.958-19.307c.693-2.245 2.24-4.271 4.589-4.271m63.262 68.662v-11.135h-16.319v11.135c0 4.507 3.652 8.16 8.159 8.16s8.16-3.653 8.16-8.16m-63.067 0c-.001 4.507-3.654 8.16-8.16 8.16-4.507 0-8.161-3.653-8.161-8.16v-11.135h16.321zm106.997 9.666h-138.527v13.137h-136.09v-98.768c0-8.642 6.922-15.481 15.518-15.772v-.021l243.583-.033v.02c8.596.29 15.516 7.13 15.516 15.772zm-15.516-105.863c11.011.296 19.94 9.137 19.94 20.198v101.966c0 10.998-8.389 19.957-19.449 20.258v-.004l-244.074-.024v.003c-11.009-.296-19.941-9.135-19.941-20.199v-101.966c0-11.064 8.932-19.903 19.941-20.199v.004l243.583-.034v-.003z"/></svg>