<svg clip-rule="evenodd" fill-rule="evenodd" stroke-linejoin="round" stroke-miterlimit="2" viewBox="0 0 284 143" xmlns="http://www.w3.org/2000/svg"><path d="m281.459 24.981c0-12.964-10.526-23.49-23.49-23.49h-232.55c-12.964 0-23.49 10.526-23.49 23.49v91.196c0 12.964 10.526 23.489 23.49 23.489h232.55c12.964 0 23.49-10.525 23.49-23.489z" fill="#fff"/><path d="m189.358 76.157c-7.944-.973-15.174 4.68-16.147 12.625-.973 7.943 4.678 15.174 12.624 16.147 7.944.973 15.174-4.679 16.147-12.624.974-7.945-4.679-15.174-12.624-16.148m-.813 6.645c-4.276-.525-8.167 2.517-8.691 6.793-.523 4.275 2.519 8.166 6.794 8.691 4.275.522 8.167-2.52 8.69-6.795.524-4.275-2.518-8.166-6.793-8.689m-12.114-46.253-41.301 5.958c-2.498.36-4.282 2.587-5.645 4.71l-9.224 14.369c-1.363 2.126.775 6.71 5.031 6.148l57.068-8.146c2.497-.357 5.162-4.256 4.48-6.687l-3.618-12.905c-.727-2.419-4.295-3.819-6.791-3.447m33.094 20.268c-8.385-7.436-16.771-14.873-25.157-22.308-4.584-4.064-6.365-3.736-12.285-2.87-12.293 1.808-24.588 3.615-36.881 5.421-3.215.472-5.32 1.187-7.447 4.047-6.542 8.8-12.125 18.666-18.668 27.467-11.273 3.283-21.975 6.486-33.247 9.768-4.216 1.227-7.411 4.333-6.901 7.554l1.907 11.927c1.305 4.009 2.64 5.312 6.951 5.768l.206.025c.009-.569.049-1.144.119-1.721 1.108-9.044 9.422-15.544 18.466-14.436 7.877.966 13.823 7.397 14.494 15.015l58.738-8.438 1.417-.283c-.33-1.682-.404-3.443-.185-5.236 1.119-9.137 9.434-15.636 18.571-14.518 7.256.889 12.849 6.318 14.283 13.092 5.015-2.862 7.07-2.579 7.439-9.151l.774-13.75c.236-4.215.584-4.556-2.594-7.373m-114.004 39.351c-4.275-.524-8.166 2.518-8.69 6.794-.523 4.275 2.518 8.167 6.794 8.69 4.275.524 8.167-2.518 8.69-6.794.524-4.275-2.519-8.166-6.794-8.69m.814-6.644c-7.944-.973-15.175 4.679-16.148 12.624s4.679 15.174 12.624 16.148c7.944.972 15.175-4.679 16.148-12.624.973-7.946-4.679-15.175-12.624-16.148m182.705 16.339h-138.265v13.137h-136.352v-98.768c0-8.642 6.921-15.481 15.518-15.772v-.021l243.583-.033v.02c8.596.29 15.516 7.13 15.516 15.772zm-15.516-105.863c11.011.296 19.939 9.136 19.939 20.198v101.966c0 10.998-8.388 19.957-19.448 20.258v-.004l-244.074-.024v.003c-11.009-.296-19.941-9.136-19.941-20.199v-101.966c0-11.064 8.932-19.903 19.941-20.199v.004l243.583-.034v-.003z"/></svg>