<svg clip-rule="evenodd" fill-rule="evenodd" stroke-linejoin="round" stroke-miterlimit="2" viewBox="0 0 284 143" xmlns="http://www.w3.org/2000/svg"><path d="m281.459 24.981c0-12.964-10.526-23.49-23.49-23.49h-232.55c-12.964 0-23.49 10.526-23.49 23.49v91.196c0 12.964 10.526 23.489 23.49 23.489h232.55c12.964 0 23.49-10.525 23.49-23.489z" fill="#fff"/><path d="m162.533 89.783c-7.726-2.094-15.686 2.473-17.778 10.199-2.094 7.726 2.472 15.686 10.198 17.779s15.685-2.473 17.779-10.199c2.093-7.725-2.472-15.686-10.199-17.779m-1.75 6.461c-4.157-1.127-8.442 1.33-9.568 5.488-1.127 4.157 1.331 8.442 5.488 9.569 4.158 1.126 8.442-1.331 9.569-5.49 1.126-4.157-1.332-8.441-5.489-9.567m-5.411-47.506-41.73.024c-2.523.001-4.607 1.951-6.257 3.859l-11.173 12.912c-1.652 1.909-.189 6.751 4.104 6.8l57.647.054c2.522.002 5.715-3.479 5.385-5.983l-1.745-13.288c-.376-2.497-3.708-4.391-6.231-4.378m29.874 24.77c-7.242-8.553-14.485-17.108-21.729-25.66-3.959-4.674-5.769-4.604-11.752-4.587-12.425.04-24.852.08-37.276.12-3.25.009-5.435.417-7.947 2.946-7.728 7.78-14.657 16.752-22.385 24.533-11.625 1.647-22.674 3.295-34.299 4.94-4.347.615-7.952 3.234-7.905 6.496l.191 12.077c.722 4.153 1.859 5.633 6.061 6.697l.199.054c.091-.563.212-1.125.364-1.686 2.382-8.795 11.536-14.046 20.33-11.663 7.661 2.075 12.631 9.288 12.212 16.925h59.341l1.443-.078c-.087-1.712.088-3.465.562-5.209 2.406-8.885 11.561-14.136 20.445-11.729 7.058 1.912 11.822 8.081 12.277 14.991 5.371-2.12 7.366-1.547 8.665-8l2.721-13.5c.834-4.138 1.226-4.428-1.518-7.667m-118.442 22.736c-4.157-1.127-8.442 1.331-9.568 5.488-1.127 4.157 1.331 8.443 5.489 9.569 4.157 1.126 8.442-1.331 9.567-5.49 1.127-4.157-1.33-8.441-5.488-9.567m1.75-6.461c-7.725-2.094-15.686 2.473-17.778 10.199-2.094 7.726 2.473 15.686 10.198 17.779 7.726 2.093 15.686-2.473 17.779-10.199 2.094-7.725-2.472-15.686-10.199-17.779m210.486 16.08h-102.767v13.137h-171.85v-98.768c0-8.642 6.922-15.481 15.518-15.772v-.021l243.583-.033v.02c8.596.29 15.516 7.13 15.516 15.772zm-15.516-105.863c11.011.296 19.94 9.137 19.94 20.198v101.966c0 10.998-8.389 19.957-19.449 20.258v-.004l-244.074-.024v.003c-11.009-.296-19.941-9.135-19.941-20.199v-101.966c0-11.064 8.932-19.903 19.941-20.199v.004l243.583-.034v-.003z"/></svg>