<svg clip-rule="evenodd" fill-rule="evenodd" stroke-linejoin="round" stroke-miterlimit="2" viewBox="0 0 284 143" xmlns="http://www.w3.org/2000/svg"><path d="m281.459 24.981c0-12.964-10.526-23.49-23.49-23.49h-232.55c-12.964 0-23.49 10.526-23.49 23.49v91.196c0 12.964 10.526 23.489 23.49 23.489h232.55c12.964 0 23.49-10.525 23.49-23.489z" fill="#fff"/><path d="m129.853 76.663c7.726-2.094 15.686 2.473 17.779 10.198 2.094 7.726-2.473 15.687-10.198 17.78-7.726 2.092-15.686-2.473-17.78-10.199-2.093-7.726 2.473-15.686 10.199-17.779m1.751 6.46c4.157-1.126 8.441 1.331 9.568 5.488 1.127 4.158-1.332 8.443-5.489 9.569-4.158 1.127-8.441-1.33-9.568-5.489-1.126-4.157 1.331-8.441 5.489-9.568m5.411-47.505 41.729.024c2.524 0 4.607 1.951 6.258 3.859l11.173 12.911c1.652 1.91.188 6.751-4.104 6.801l-57.647.054c-2.523.001-5.716-3.479-5.387-5.983l1.747-13.288c.376-2.497 3.707-4.392 6.231-4.378m-29.874 24.769c7.242-8.553 14.485-17.107 21.728-25.659 3.959-4.675 5.77-4.604 11.753-4.587 12.425.04 24.852.08 37.275.119 3.25.01 5.435.418 7.948 2.947 7.727 7.78 14.656 16.752 22.384 24.532 11.625 1.647 22.675 3.296 34.299 4.94 4.348.615 7.952 3.235 7.905 6.496l-.191 12.077c-.722 4.154-1.858 5.634-6.06 6.698l-.2.054c-.09-.563-.212-1.125-.363-1.687-2.383-8.795-11.537-14.046-20.331-11.662-7.66 2.075-12.631 9.288-12.212 16.924l-59.34.001-1.443-.078c.087-1.712-.089-3.465-.562-5.209-2.407-8.885-11.561-14.136-20.446-11.729-7.057 1.911-11.821 8.081-12.276 14.99-5.372-2.119-7.366-1.547-8.666-7.999l-2.721-13.5c-.833-4.139-1.226-4.428 1.519-7.668m118.442 22.736c4.157-1.126 8.44 1.331 9.567 5.488 1.127 4.158-1.331 8.443-5.489 9.569-4.157 1.127-8.441-1.33-9.567-5.489-1.126-4.157 1.331-8.441 5.489-9.568m-1.751-6.46c7.726-2.094 15.686 2.473 17.779 10.198 2.093 7.726-2.473 15.687-10.199 17.78-7.726 2.092-15.685-2.473-17.779-10.199-2.093-7.726 2.473-15.686 10.199-17.779m55.208 29.2h-173.062v13.137h-101.555v-98.768c0-8.642 6.922-15.481 15.518-15.772v-.021l243.583-.033v.02c8.596.29 15.516 7.13 15.516 15.772zm-15.516-105.863c11.011.296 19.94 9.137 19.94 20.198v101.966c0 10.998-8.389 19.957-19.448 20.258v-.004l-244.075-.024v.003c-11.008-.296-19.941-9.135-19.941-20.199v-101.966c0-11.064 8.933-19.902 19.941-20.198v.003l243.583-.034v-.003z"/></svg>