<svg clip-rule="evenodd" fill-rule="evenodd" stroke-linejoin="round" stroke-miterlimit="2" viewBox="0 0 284 143" xmlns="http://www.w3.org/2000/svg"><path d="m281.459 24.981c0-12.964-10.526-23.49-23.49-23.49h-232.55c-12.964 0-23.49 10.526-23.49 23.49v91.196c0 12.964 10.526 23.489 23.49 23.489h232.55c12.964 0 23.49-10.525 23.49-23.489z" fill="#fff"/><path d="m88.933 90.678c7.349-3.174 15.878.21 19.052 7.559 3.174 7.347-.21 15.878-7.559 19.051-7.347 3.174-15.878-.211-19.052-7.558-3.173-7.349.211-15.878 7.559-19.052m2.654 6.145c3.954-1.708 8.545.113 10.253 4.067 1.708 3.955-.113 8.545-4.068 10.254-3.954 1.708-8.545-.114-10.253-4.069-1.708-3.954.114-8.544 4.068-10.252m-1.419-47.792 41.306-5.928c2.498-.359 4.837 1.274 6.744 2.927l12.9 11.185c1.907 1.655 1.148 6.656-3.093 7.317l-57.049 8.275c-2.497.362-6.153-2.628-6.185-5.153l-.167-13.401c.017-2.526 3.043-4.875 5.544-5.222m-26.036 28.777c5.948-9.499 11.897-18.998 17.846-28.496 3.252-5.192 5.054-5.38 10.978-6.217 12.304-1.732 24.609-3.465 36.912-5.198 3.218-.454 5.439-.362 8.286 1.783 8.758 6.599 16.896 14.49 25.655 21.089 11.742-.029 22.913.027 34.653-.003 4.39-.011 8.332 2.068 8.751 5.302l1.533 11.981c-.121 4.214-1.036 5.841-5.043 7.493l-.19.082c-.17-.543-.37-1.083-.6-1.617-3.613-8.364-13.422-12.256-21.786-8.643-7.286 3.146-11.178 10.994-9.674 18.493l-58.733 8.465-1.439.127c-.159-1.707-.583-3.417-1.299-5.075-3.65-8.451-13.46-12.342-21.911-8.693-6.712 2.899-10.548 9.685-10.013 16.588-5.618-1.331-7.51-.481-9.718-6.682l-4.618-12.973c-1.415-3.978-1.845-4.208.41-7.806m120.473 5.61c3.954-1.708 8.545.114 10.253 4.069 1.708 3.954-.113 8.545-4.068 10.253-3.954 1.708-8.545-.114-10.253-4.068-1.707-3.955.114-8.546 4.068-10.254m-2.654-6.144c7.348-3.174 15.879.21 19.052 7.558 3.175 7.348-.21 15.878-7.559 19.052-7.347 3.174-15.879-.211-19.052-7.559-3.173-7.347.21-15.878 7.559-19.051m97.089 28.59h-138.265v13.136h-136.352v-98.767c0-8.642 6.922-15.481 15.518-15.773v-.02l243.583-.034v.02c8.596.291 15.516 7.13 15.516 15.773zm-15.516-105.864c11.011.297 19.94 9.137 19.94 20.199v101.965c0 10.998-8.389 19.957-19.448 20.258v-.004l-244.075-.023v.003c-11.008-.296-19.941-9.136-19.941-20.199v-101.966c0-11.064 8.933-19.903 19.941-20.199v.003l243.583-.034v-.003z"/></svg>