<svg clip-rule="evenodd" fill-rule="evenodd" stroke-linejoin="round" stroke-miterlimit="2" viewBox="0 0 284 143" xmlns="http://www.w3.org/2000/svg"><path d="m281.459 24.981c0-12.964-10.526-23.49-23.49-23.49h-232.55c-12.964 0-23.49 10.526-23.49 23.49v91.196c0 12.964 10.526 23.489 23.49 23.489h232.55c12.964 0 23.49-10.525 23.49-23.489z" fill="#fff"/><path d="m181.018 64.181c3.237 0 5.887 2.649 5.887 5.887v20.724c0 3.239-2.65 5.887-5.887 5.887h-78.571c-3.238 0-5.887-2.648-5.887-5.887v-20.724c0-3.238 2.649-5.887 5.887-5.887l7.672-23.597c.887-2.73 2.349-5.22 5.22-5.22h52.787c2.871 0 4.332 2.49 5.22 5.22zm-62.81-23.436h47.049c2.349 0 3.544 2.039 4.271 4.271l6.276 19.306h-68.143l5.958-19.306c.692-2.245 2.24-4.271 4.589-4.271m63.262 68.663v-11.136h-16.319v11.136c0 4.506 3.652 8.16 8.159 8.16s8.16-3.654 8.16-8.16m-63.068 0c0 4.506-3.653 8.16-8.159 8.16-4.507 0-8.16-3.654-8.16-8.161v-11.135h16.319zm160.638-3.544h-85.105v13.136h-189.511v-98.767c0-8.642 6.921-15.481 15.518-15.773v-.02l243.583-.034v.02c8.596.291 15.515 7.13 15.515 15.773zm-15.515-105.864c11.011.297 19.939 9.137 19.939 20.199v101.965c0 10.998-8.388 19.957-19.448 20.258v-.004l-244.074-.023v.003c-11.009-.296-19.942-9.136-19.942-20.199v-101.966c0-11.064 8.933-19.903 19.942-20.199v.003l243.583-.034v-.003z"/></svg>