<svg clip-rule="evenodd" fill-rule="evenodd" stroke-linejoin="round" stroke-miterlimit="2" viewBox="0 0 284 143" xmlns="http://www.w3.org/2000/svg"><path d="m281.459 24.981c0-12.964-10.526-23.49-23.49-23.49h-232.55c-12.964 0-23.49 10.526-23.49 23.49v91.196c0 12.964 10.526 23.489 23.49 23.489h232.55c12.964 0 23.49-10.525 23.49-23.489z" fill="#fff"/><path d="m231.424 76.663c-7.725-2.094-15.686 2.473-17.778 10.198-2.094 7.726 2.472 15.687 10.198 17.78 7.726 2.092 15.686-2.473 17.779-10.199s-2.472-15.686-10.199-17.779m-1.75 6.46c-4.157-1.126-8.441 1.331-9.568 5.488-1.126 4.158 1.332 8.443 5.489 9.569 4.157 1.127 8.441-1.33 9.568-5.489 1.126-4.157-1.332-8.441-5.489-9.568m-5.411-47.505-41.73.024c-2.523 0-4.606 1.951-6.257 3.859l-11.173 12.911c-1.653 1.91-.188 6.751 4.104 6.801l57.647.054c2.522.001 5.716-3.479 5.386-5.983l-1.746-13.288c-.376-2.497-3.708-4.392-6.231-4.378m29.874 24.769c-7.242-8.553-14.485-17.107-21.729-25.659-3.959-4.675-5.769-4.604-11.752-4.587-12.425.04-24.852.08-37.276.119-3.25.01-5.435.418-7.947 2.947-7.727 7.78-14.656 16.752-22.385 24.532-11.625 1.647-22.674 3.296-34.298 4.94-4.348.615-7.952 3.235-7.906 6.496l.191 12.077c.722 4.154 1.859 5.634 6.061 6.698l.2.054c.09-.563.211-1.125.363-1.687 2.383-8.795 11.536-14.046 20.33-11.662 7.661 2.075 12.631 9.288 12.212 16.924l59.341.001 1.443-.078c-.087-1.712.088-3.465.562-5.209 2.406-8.885 11.562-14.136 20.446-11.729 7.057 1.911 11.821 8.081 12.277 14.99 5.371-2.119 7.365-1.547 8.665-7.999l2.72-13.5c.834-4.139 1.226-4.428-1.518-7.668m-118.442 22.736c-4.157-1.126-8.441 1.331-9.568 5.488-1.126 4.158 1.331 8.443 5.489 9.569 4.158 1.127 8.442-1.33 9.568-5.489 1.127-4.157-1.331-8.441-5.489-9.568m1.75-6.46c-7.725-2.094-15.685 2.473-17.778 10.198-2.094 7.726 2.473 15.687 10.198 17.78 7.726 2.092 15.686-2.473 17.78-10.199 2.092-7.726-2.474-15.686-10.2-17.779m141.595 29.2h-173.061v13.137h-101.555v-98.768c0-8.642 6.921-15.481 15.518-15.772v-.021l243.583-.033v.02c8.595.29 15.515 7.13 15.515 15.772zm-15.515-105.863c11.01.296 19.939 9.137 19.939 20.198v101.966c0 10.998-8.389 19.957-19.448 20.258v-.004l-244.074-.024v.003c-11.009-.296-19.942-9.135-19.942-20.199v-101.966c0-11.064 8.933-19.902 19.942-20.198v.003l243.583-.034v-.003z"/></svg>