<svg clip-rule="evenodd" fill-rule="evenodd" stroke-linejoin="round" stroke-miterlimit="2" viewBox="0 0 284 143" xmlns="http://www.w3.org/2000/svg"><path d="m281.459 24.981c0-12.964-10.526-23.49-23.49-23.49h-232.55c-12.964 0-23.49 10.526-23.49 23.49v91.196c0 12.964 10.526 23.489 23.49 23.489h232.55c12.964 0 23.49-10.525 23.49-23.489z" fill="#fff"/><path d="m200.233 34.948c22.471.696 40.213 19.177 40.213 41.536 0 22.795-18.437 41.561-41.527 41.561-11.807 0-22.867-4.98-30.676-13.55-5.07 4.545-11.626 7.138-18.586 7.138-7.111 0-13.739-2.707-18.788-7.32l2.196-2.198c4.417 4 10.227 6.429 16.592 6.429 7.477 0 14.187-3.35 18.773-8.662 7.021 9.164 18.064 15.073 30.489 15.073 21.214 0 38.411-17.223 38.411-38.471 0-21.245-17.197-38.47-38.411-38.47-.602 0-1.2.016-1.795.043zm-77.711 40.411c3.256-12.031 14.056-21.049 27.135-21.049 3.078 0 6.096.507 8.957 1.484l-2.473 2.473c-2.068-.566-4.241-.867-6.484-.867-13.231 0-24.062 10.49-24.965 23.773-2.823-3.253-6.942-5.304-11.532-5.304-8.511 0-15.409 7.049-15.409 15.744 0 6.834 4.261 12.65 10.217 14.827l-2.376 2.376c-2.672-1.216-4.992-3.054-6.801-5.32l-18.61-2.659 2.451-4.087h12.705c-.458-1.64-.703-3.365-.703-5.137 0-10.197 8.096-18.833 18.526-18.833 3.354 0 6.57.915 9.362 2.579m141.002-75.359c11.011.297 19.939 9.137 19.939 20.198v101.966c0 10.998-8.388 19.957-19.448 20.258v-.004l-244.074-.023v.003c-11.009-.296-19.941-9.136-19.941-20.2v-101.965c0-11.064 8.932-19.903 19.941-20.199v.003l243.583-.034v-.003zm-183.402 75.706c-7.242-8.552-14.485-17.107-21.728-25.659-3.959-4.675-5.77-4.603-11.753-4.587-12.425.039-24.852.08-37.276.119-1.924.006-3.475.152-4.942.794v-26.14c0-8.642 6.921-15.481 15.518-15.773v-.02l243.583-.034v.02c8.596.291 15.516 7.13 15.516 15.772v101.966c0 8.577-6.382 15.534-15.025 15.831v.021l-244.074-.025v-.02c-8.597-.291-15.518-7.129-15.518-15.773v-15.299l31.103.001 1.444-.078c-.088-1.713.089-3.466.561-5.209 2.408-8.886 11.562-14.137 20.447-11.729 7.057 1.911 11.821 8.08 12.276 14.989 5.371-2.119 7.366-1.547 8.666-7.999l2.721-13.5c.833-4.138 1.225-4.427-1.519-7.668m-29.874-24.769-41.73.024c-1.525.001-2.889.713-4.095 1.698v21.881l48.415.046c2.524.002 5.716-3.479 5.388-5.982l-1.747-13.289c-.376-2.497-3.707-4.391-6.231-4.378m5.411 47.506c-4.157-1.127-8.442 1.331-9.568 5.488-1.127 4.158 1.331 8.441 5.488 9.568 4.158 1.126 8.442-1.331 9.569-5.488 1.126-4.158-1.332-8.442-5.489-9.568m1.75-6.461c-7.725-2.093-15.685 2.473-17.779 10.199-2.093 7.725 2.473 15.685 10.199 17.779 7.726 2.093 15.686-2.473 17.779-10.199s-2.473-15.686-10.199-17.779"/><path d="m209.995 4.413 20.775-.002-133.588 133.588-20.771-.002 133.584-133.584z" fill="#d72717"/></svg>