<svg clip-rule="evenodd" fill-rule="evenodd" stroke-linejoin="round" stroke-miterlimit="2" viewBox="0 0 284 143" xmlns="http://www.w3.org/2000/svg"><path d="m281.459 24.981c0-12.964-10.526-23.49-23.49-23.49h-232.55c-12.964 0-23.49 10.526-23.49 23.49v91.196c0 12.964 10.526 23.489 23.49 23.489h232.55c12.964 0 23.49-10.525 23.49-23.489z" fill="#fff"/><path d="m55.538 37.168c18.815 0 34.068 15.253 34.068 34.068s-15.253 34.067-34.068 34.067-34.068-15.252-34.068-34.067 15.253-34.068 34.068-34.068m28.25 11.135c11.29 13.303 11.518 32.785.518 46.345 7.311 10.126 19.212 16.717 32.656 16.717 22.232 0 40.256-18.024 40.256-40.256 0-22.233-18.024-40.256-40.256-40.256-13.765 0-25.915 6.911-33.174 17.45m70.96 44.972c-.129.222-.259.443-.392.662.133-.219.264-.44.392-.662m1.148-40.918c6.112 12.036 6.179 26.361.174 38.457 7.645 18.533 25.888 31.579 47.18 31.579 28.177 0 51.02-22.844 51.02-51.02 0-28.177-22.843-51.019-51.02-51.019-21.455 0-39.814 13.244-47.354 32.003m-.441-.844c.101.186.199.373.296.561-.097-.188-.195-.375-.296-.561m-99.365-16.041c10.453 0 19.875 4.421 26.501 11.489 17.928-25.275 56.014-23.795 71.904 2.857 8.532-18.872 27.523-32.004 49.581-32.004 30.036 0 54.385 24.349 54.385 54.385s-24.349 54.385-54.385 54.385c-22.254 0-41.383-13.369-49.803-32.51-16.051 26.315-53.824 27.616-71.661 2.516-22.325 23.866-62.838 8.176-62.838-24.803 0-20.056 16.259-36.315 36.316-36.315m169.339 63.484c9.842.004 15.471-8.405 17.471-17.527 2.548-11.616 1.021-31.73-11.828-36.814-8.192-3.241-16.179.851-20.349 8.731-7.237 13.666-4.94 45.6 14.706 45.61m.006-9.588c-4.67.048-7.034-4.979-8.001-9.268-1.276-5.645-2.045-24.224 5.588-26.598 4.168-1.295 7.512.541 9.276 4.614 3.102 7.166 3.71 31.368-6.863 31.252m-160.563-1.205c6.083.004 9.561-5.194 10.798-10.831 1.574-7.178.63-19.608-7.311-22.751-5.063-2.003-9.997.526-12.576 5.396-4.469 8.441-3.055 28.18 9.089 28.186m.003-5.925c-7.242.074-6.993-20.453-1.49-22.164 2.575-.802 4.641.333 5.731 2.851 1.918 4.428 2.293 19.385-4.241 19.313m45.808-32.999-.194 43.942h-8.036l-.011-33.261-5.808 3.538-3.061-3.927 9.59-10.294zm-61.33 5.213-.147 33.478h-6.122l-.008-25.34-4.425 2.695-2.332-2.992 7.306-7.842zm-29.412-49.992c-8.596.291-15.518 7.13-15.518 15.772v101.966c0 8.643 6.922 15.481 15.518 15.772v.021l244.075.024v-.02c8.642-.297 15.024-7.254 15.024-15.831v-101.966c0-8.642-6.92-15.482-15.516-15.773v-.02l-243.583.034v.021zm243.583-4.46c11.011.296 19.94 9.136 19.94 20.198v101.966c0 10.998-8.389 19.957-19.448 20.257v-.003l-244.075-.024v.003c-11.008-.296-19.941-9.136-19.941-20.199v-101.966c0-11.064 8.933-19.903 19.941-20.199v.004l243.583-.035v-.002zm-147.156 92.711-1.475-9.296c9.646 5.932 20.278 1.618 20.278-5.304 0-5.49-5.999-11.008-13.732-4.538l-5.06-2.383v-22.495h25.556l-2.012 8.179-16.034-.034v8.501c9.897-4.879 20.011 1.689 19.849 11.599-.152 9.343-6.549 16.732-17.038 16.783-3.243.016-6.729-.457-10.332-1.012m82.594 6.136h-33.262v-9.441c7.768-7.228 15.501-14.766 21.717-22.631 2.291-2.9 4.948-5.326 4.125-9.179-.735-3.436-3.563-6.321-7.307-6.25-4.09.076-7.489 3.235-11.272 7.437l-6.383-7.118c3.555-5.205 11.426-8.166 17.353-8.166 16.281 0 20.431 17.008 14.397 25.364-3.66 5.069-13.145 14.153-19.054 19.969h22.289z"/></svg>