<svg clip-rule="evenodd" fill-rule="evenodd" stroke-linejoin="round" stroke-miterlimit="2" viewBox="0 0 284 143" xmlns="http://www.w3.org/2000/svg"><path d="m281.459 24.981c0-12.964-10.526-23.49-23.49-23.49h-232.55c-12.964 0-23.49 10.526-23.49 23.49v91.196c0 12.964 10.526 23.489 23.49 23.489h232.55c12.964 0 23.49-10.525 23.49-23.489z" fill="#fff"/><path d="m187.143 65.842h7.182v18.791l12.274-18.791h7.182v30.679h-7.182v-18.431l-12.274 18.431h-7.182zm42.132 17.648h11.095v13.031h7.473v-30.679h-7.473v11.377h-11.095v-11.377h-7.473v30.679h7.473zm-51.505-17.649 3.13 30.681-7.302-.002-1.445-20.347-8.564 15.957-8.564-15.957-1.445 20.347-7.302.002 3.13-30.681 6.916.001 7.265 14.146 7.266-14.146zm-69.708 20.665c-5.32.055-8.012-5.671-9.115-10.557-1.452-6.43-2.329-27.593 6.368-30.297 4.746-1.476 8.555.615 10.563 5.255 3.535 8.162 4.226 35.731-7.816 35.599m-.006 10.921c11.211.007 17.623-9.573 19.901-19.965 2.902-13.23 1.163-36.143-13.474-41.933-9.332-3.692-18.428.968-23.18 9.944-8.238 15.558-5.633 51.943 16.753 51.954m-67.558-2.324-1.045-12.086c6.33 4.868 27.276 7.799 27.968-4.584.352-6.293-4.405-8.861-10.063-8.861-1.81 0-3.748.155-5.637.808v-10.207c8.426-1.006 12.872-4.913 13.114-10.172.122-2.656-1.765-5.847-6.531-6.015-4.079-.144-10.241 2.668-13.843 5.593l-3.741-10.503c4.387-2.973 13-4.788 18.64-4.821 9.138 0 17.555 4.782 17.555 14.865.019 5.749-4.309 10.594-10.8 13.759v.174c8.363 1.278 13.751 8.602 13.751 16.869-.009 13.131-12.532 17.507-22.558 17.507-6.033 0-13.219-.151-16.81-2.326m-20.556-90.643c-8.597.292-15.518 7.131-15.518 15.773v101.965c0 8.644 6.921 15.482 15.518 15.773v.02l244.074.025v-.021c8.643-.297 15.024-7.254 15.024-15.831v-101.966c0-8.642-6.919-15.481-15.515-15.772v-.02l-243.583.034v.02zm243.583-4.46c11.011.297 19.939 9.137 19.939 20.198v101.966c0 10.998-8.388 19.957-19.448 20.258v-.004l-244.074-.023v.003c-11.009-.296-19.942-9.136-19.942-20.2v-101.965c0-11.064 8.933-19.903 19.942-20.199v.003l243.583-.034v-.003z"/></svg>