<svg clip-rule="evenodd" fill-rule="evenodd" stroke-linejoin="round" stroke-miterlimit="2" viewBox="0 0 284 143" xmlns="http://www.w3.org/2000/svg"><path d="m282.67 25.251c0-13.135-10.664-23.8-23.8-23.8h-233.385c-13.135 0-23.8 10.665-23.8 23.8v92.401c0 13.136 10.665 23.8 23.8 23.8h233.385c13.136 0 23.8-10.664 23.8-23.8z" fill="#f8f100"/><path d="m263.525 0c11.011.296 19.939 9.137 19.939 20.198v101.966c0 17.967-19.448 21.455-19.448 20.254l-244.074-.022c-11.009-.295-19.942-9.135-19.942-20.197v-101.967c0-11.064 8.933-19.903 19.942-20.199l243.583-.033zm-259.101 122.199c0 8.642 6.921 15.48 15.518 15.771l244.074.026c8.643-.299 15.024-7.256 15.024-15.832v-101.966c0-8.642-6.919-15.482-15.515-15.773l-243.583.035c-8.597.291-15.518 7.13-15.518 15.772z"/><g fill="red" fill-rule="nonzero"><path d="m80.343 98.332h-13.472l-.064-4.416c0-5.933.73-10.739 2.191-14.419 1.461-3.679 4.297-7.727 8.509-12.142 4.684-4.967 7.498-8.371 8.444-10.21.945-1.84 1.418-3.979 1.418-6.416 0-4.002-1.214-7.29-3.642-9.866s-5.49-3.863-9.185-3.863c-7.95 0-12.849 5.68-14.697 17.04l-13.6-2.208c.386-8.646 3.169-15.741 8.347-21.283s11.678-8.313 19.498-8.313c7.95 0 14.568 2.782 19.854 8.347 5.285 5.566 7.928 12.511 7.928 20.835 0 4.232-.924 8.245-2.772 12.039-1.848 3.795-5.823 8.98-11.925 15.557-3.137 3.404-5.081 6.141-5.833 8.21-.752 2.07-1.085 5.772-.999 11.108zm-13.472 26.078v-19.386h14.89v19.386z"/><path d="m146.477 98.332h-13.472l-.064-4.416c0-5.933.73-10.739 2.191-14.419 1.461-3.679 4.297-7.727 8.509-12.142 4.684-4.967 7.498-8.371 8.444-10.21.945-1.84 1.418-3.979 1.418-6.416 0-4.002-1.214-7.29-3.642-9.866s-5.49-3.863-9.185-3.863c-7.95 0-12.849 5.68-14.697 17.04l-13.6-2.208c.386-8.646 3.169-15.741 8.347-21.283s11.678-8.313 19.498-8.313c7.95 0 14.568 2.782 19.854 8.347 5.285 5.566 7.928 12.511 7.928 20.835 0 4.232-.924 8.245-2.772 12.039-1.848 3.795-5.823 8.98-11.925 15.557-3.137 3.404-5.081 6.141-5.833 8.21-.752 2.07-1.085 5.772-.999 11.108zm-13.472 26.078v-19.386h14.89v19.386z"/><path d="m212.611 98.332h-13.472l-.064-4.416c0-5.933.73-10.739 2.191-14.419 1.461-3.679 4.297-7.727 8.509-12.142 4.684-4.967 7.498-8.371 8.444-10.21.945-1.84 1.418-3.979 1.418-6.416 0-4.002-1.214-7.29-3.642-9.866s-5.49-3.863-9.185-3.863c-7.95 0-12.849 5.68-14.697 17.04l-13.6-2.208c.386-8.646 3.169-15.741 8.347-21.283s11.678-8.313 19.498-8.313c7.95 0 14.568 2.782 19.854 8.347 5.285 5.566 7.928 12.511 7.928 20.835 0 4.232-.924 8.245-2.772 12.039-1.848 3.795-5.823 8.98-11.925 15.557-3.137 3.404-5.081 6.141-5.833 8.21-.752 2.07-1.085 5.772-.999 11.108zm-13.472 26.078v-19.386h14.89v19.386z"/></g></svg>